999
dxfrw 0.6.3
  0
SECTION
  2
HEADER
  9
$ACADVER
  1
AC1021
  9
$DWGCODEPAGE
  3
ANSI_1252
  9
$INSBASE
 10
0
 20
0
 30
0
  9
$EXTMIN
 10
1e+20
 20
1e+20
 30
1e+20
  9
$EXTMAX
 10
-1e+20
 20
-1e+20
 30
-1e+20
  9
$LIMMIN
 10
0
 20
0
  9
$LIMMAX
 10
420
 20
297
  9
$ORTHOMODE
 70
    0
  9
$REGENMODE
 70
    1
  9
$FILLMODE
 70
    1
  9
$QTEXTMODE
 70
    0
  9
$MIRRTEXT
 70
    0
  9
$LTSCALE
 40
1
  9
$ATTMODE
 70
    0
  9
$TEXTSIZE
 40
2.5
  9
$TRACEWID
 40
15.68
  9
$TEXTSTYLE
  7
STANDARD
  9
$CLAYER
  8
0
  9
$CELTYPE
  6
BYLAYER
  9
$CECOLOR
 62
  256
  9
$CELTSCALE
 40
1
  9
$DISPSILH
 70
    0
  9
$DIMSCALE
 40
1
  9
$DIMASZ
 40
2.5
  9
$DIMEXO
 40
0.625
  9
$DIMDLI
 40
3.75
  9
$DIMRND
 40
0
  9
$DIMDLE
 40
0
  9
$DIMEXE
 40
1.25
  9
$DIMTP
 40
0
  9
$DIMTM
 40
0
  9
$DIMTXT
 40
2.5
  9
$DIMCEN
 40
2.5
  9
$DIMTSZ
 40
0
  9
$DIMTOL
 70
    0
  9
$DIMLIM
 70
    0
  9
$DIMTIH
 70
    0
  9
$DIMTOH
 70
    0
  9
$DIMSE1
 70
    0
  9
$DIMSE2
 70
    0
  9
$DIMTAD
 70
    1
  9
$DIMZIN
 70
    8
  9
$DIMBLK
  1

  9
$DIMASO
 70
    1
  9
$DIMSHO
 70
    1
  9
$DIMPOST
  1

  9
$DIMAPOST
  1

  9
$DIMALT
 70
    0
  9
$DIMALTD
 70
    3
  9
$DIMALTF
 40
0.03937
  9
$DIMLFAC
 40
1
  9
$DIMTOFL
 70
    1
  9
$DIMTVP
 40
0
  9
$DIMTIX
 70
    0
  9
$DIMSOXD
 70
    0
  9
$DIMSAH
 70
    0
  9
$DIMBLK1
  1

  9
$DIMBLK2
  1

  9
$DIMSTYLE
  2
STANDARD
  9
$DIMCLRD
 70
    0
  9
$DIMCLRE
 70
    0
  9
$DIMCLRT
 70
    0
  9
$DIMTFAC
 40
1
  9
$DIMGAP
 40
0.625
  9
$DIMJUST
 70
    0
  9
$DIMSD1
 70
    0
  9
$DIMSD2
 70
    0
  9
$DIMTOLJ
 70
    0
  9
$DIMTZIN
 70
    8
  9
$DIMALTZ
 70
    0
  9
$DIMALTTZ
 70
    0
  9
$DIMUPT
 70
    0
  9
$DIMDEC
 70
    2
  9
$DIMTDEC
 70
    2
  9
$DIMALTU
 70
    2
  9
$DIMALTTD
 70
    3
  9
$DIMTXSTY
  7
STANDARD
  9
$DIMAUNIT
 70
    0
  9
$DIMADEC
 70
    0
  9
$DIMALTRND
 40
0
  9
$DIMAZIN
 70
    0
  9
$DIMDSEP
 70
   44
  9
$DIMATFIT
 70
    3
  9
$DIMFRAC
 70
    0
  9
$DIMLDRBLK
  1
STANDARD
  9
$DIMLUNIT
 70
    2
  9
$DIMLWD
 70
   -2
  9
$DIMLWE
 70
   -2
  9
$DIMTMOVE
 70
    0
  9
$DIMFXL
 40
1
  9
$DIMFXLON
 70
    0
  9
$DIMJOGANG
 40
0.7854
  9
$DIMTFILL
 70
    0
  9
$DIMTFILLCLR
 70
    0
  9
$DIMARCSYM
 70
    0
  9
$DIMLTYPE
  6

  9
$DIMLTEX1
  6

  9
$DIMLTEX2
  6

  9
$LUNITS
 70
    2
  9
$LUPREC
 70
    4
  9
$SKETCHINC
 40
1
  9
$FILLETRAD
 40
0
  9
$AUNITS
 70
    0
  9
$AUPREC
 70
    2
  9
$MENU
  1
.
  9
$ELEVATION
 40
0
  9
$PELEVATION
 40
0
  9
$THICKNESS
 40
0
  9
$LIMCHECK
 70
    0
  9
$CHAMFERA
 40
0
  9
$CHAMFERB
 40
0
  9
$CHAMFERC
 40
0
  9
$CHAMFERD
 40
0
  9
$SKPOLY
 70
    0
  9
$USRTIMER
 70
    1
  9
$ANGBASE
 50
0
  9
$ANGDIR
 70
    0
  9
$PDMODE
 70
   34
  9
$PDSIZE
 40
0
  9
$PLINEWID
 40
0
  9
$SPLFRAME
 70
    0
  9
$SPLINETYPE
 70
    2
  9
$SPLINESEGS
 70
    8
  9
$HANDSEED
  5
20000
  9
$SURFTAB1
 70
    6
  9
$SURFTAB2
 70
    6
  9
$SURFTYPE
 70
    6
  9
$SURFU
 70
    6
  9
$SURFV
 70
    6
  9
$UCSBASE
  2

  9
$UCSNAME
  2

  9
$UCSORG
 10
0
 20
0
 30
0
  9
$UCSXDIR
 10
1
 20
0
 30
0
  9
$UCSYDIR
 10
0
 20
1
 30
0
  9
$UCSORTHOREF
  2

  9
$UCSORTHOVIEW
 70
    0
  9
$UCSORGTOP
 10
0
 20
0
 30
0
  9
$UCSORGBOTTOM
 10
0
 20
0
 30
0
  9
$UCSORGLEFT
 10
0
 20
0
 30
0
  9
$UCSORGRIGHT
 10
0
 20
0
 30
0
  9
$UCSORGFRONT
 10
0
 20
0
 30
0
  9
$UCSORGBACK
 10
0
 20
0
 30
0
  9
$PUCSBASE
  2

  9
$PUCSNAME
  2

  9
$PUCSORG
 10
0
 20
0
 30
0
  9
$PUCSXDIR
 10
1
 20
0
 30
0
  9
$PUCSYDIR
 10
0
 20
1
 30
0
  9
$PUCSORTHOREF
  2

  9
$PUCSORTHOVIEW
 70
    0
  9
$PUCSORGTOP
 10
0
 20
0
 30
0
  9
$PUCSORGBOTTOM
 10
0
 20
0
 30
0
  9
$PUCSORGLEFT
 10
0
 20
0
 30
0
  9
$PUCSORGRIGHT
 10
0
 20
0
 30
0
  9
$PUCSORGFRONT
 10
0
 20
0
 30
0
  9
$PUCSORGBACK
 10
0
 20
0
 30
0
  9
$USERI1
 70
    0
  9
$USERI2
 70
    0
  9
$USERI3
 70
    0
  9
$USERI4
 70
    0
  9
$USERI5
 70
    0
  9
$USERR1
 40
0
  9
$USERR2
 40
0
  9
$USERR3
 40
0
  9
$USERR4
 40
0
  9
$USERR5
 40
0
  9
$WORLDVIEW
 70
    1
  9
$SHADEDGE
 70
    3
  9
$SHADEDIF
 70
   70
  9
$TILEMODE
 70
    1
  9
$MAXACTVP
 70
   64
  9
$PINSBASE
 10
0
 20
0
 30
0
  9
$PLIMCHECK
 70
    0
  9
$PEXTMIN
 10
0
 20
0
 30
0
  9
$PEXTMAX
 10
0
 20
0
 30
0
  9
$PLIMMIN
 10
0
 20
0
  9
$PLIMMAX
 10
297
 20
210
  9
$UNITMODE
 70
    0
  9
$VISRETAIN
 70
    1
  9
$PLINEGEN
 70
    0
  9
$PSLTSCALE
 70
    1
  9
$TREEDEPTH
 70
 3020
  9
$CMLSTYLE
  2
Standard
  9
$CMLJUST
 70
    0
  9
$CMLSCALE
 40
20
  9
$PROXYGRAPHICS
 70
    1
  9
$MEASUREMENT
 70
    1
  9
$CELWEIGHT
370
   -1
  9
$ENDCAPS
280
    0
  9
$JOINSTYLE
280
    0
  9
$LWDISPLAY
290
    0
  9
$INSUNITS
 70
    0
  9
$HYPERLINKBASE
  1

  9
$STYLESHEET
  1

  9
$XEDIT
290
    1
  9
$CEPSNTYPE
380
    0
  9
$PSTYLEMODE
290
    1
  9
$EXTNAMES
290
    1
  9
$PSVPSCALE
 40
0
  9
$OLESTARTUP
290
    0
  9
$SORTENTS
280
  127
  9
$INDEXCTL
280
    0
  9
$HIDETEXT
280
    1
  9
$XCLIPFRAME
290
    0
  9
$HALOGAP
280
    0
  9
$OBSCOLOR
 70
  257
  9
$OBSLTYPE
280
    0
  9
$INTERSECTIONDISPLAY
280
    0
  9
$INTERSECTIONCOLOR
 70
  257
  9
$DIMASSOC
280
    1
  9
$PROJECTNAME
  1

  9
$CAMERADISPLAY
290
    0
  9
$LENSLENGTH
 40
50
  9
$CAMERAHEIGHT
 40
0
  9
$STEPSPERSEC
 40
2
  9
$STEPSIZE
 40
50
  9
$3DDWFPREC
 40
2
  9
$PSOLWIDTH
 40
5
  9
$PSOLHEIGHT
 40
80
  9
$LOFTANG1
 40
1.570796326794897
  9
$LOFTANG2
 40
1.570796326794897
  9
$LOFTMAG1
 40
0
  9
$LOFTMAG2
 40
0
  9
$LOFTPARAM
 70
    7
  9
$LOFTNORMALS
280
    1
  9
$LATITUDE
 40
1
  9
$LONGITUDE
 40
1
  9
$NORTHDIRECTION
 40
0
  9
$TIMEZONE
 70
-8000
  9
$LIGHTGLYPHDISPLAY
280
    1
  9
$TILEMODELIGHTSYNCH
280
    1
  9
$SOLIDHIST
280
    1
  9
$SHOWHIST
280
    1
  9
$DWFFRAME
280
    2
  9
$DGNFRAME
280
    0
  9
$REALWORLDSCALE
290
    1
  9
$INTERFERECOLOR
 62
    1
  9
$CSHADOW
280
    0
  9
$SHADOWPLANELOCATION
 40
0
  0
ENDSEC
  0
SECTION
  2
CLASSES
  0
ENDSEC
  0
SECTION
  2
TABLES
  0
TABLE
  2
VPORT
  5
8
330
0
100
AcDbSymbolTable
 70
    1
  0
VPORT
  5
31
330
2
100
AcDbSymbolTableRecord
100
AcDbViewportTableRecord
  2
*ACTIVE
 70
    0
 10
0
 20
0
 11
1
 21
1
 12
0.651828
 22
-0.16
 13
0
 23
0
 14
10
 24
10
 15
10
 25
10
 16
0
 26
0
 36
1
 17
0
 27
0
 37
0
 40
5.13732
 41
2.4426877
 42
50
 43
0
 44
0
 50
0
 51
0
 71
    0
 72
  100
 73
    1
 74
    3
 75
    0
 76
    0
 77
    0
 78
    0
281
    0
 65
    1
110
0
120
0
130
0
111
1
121
0
131
0
112
0
122
1
132
0
 79
    0
146
0
348
10020
 60
    7
 61
    5
292
1
282
    1
141
0
142
0
 63
  250
421
3358443
  0
ENDTAB
  0
TABLE
  2
LTYPE
  5
5
330
0
100
AcDbSymbolTable
 70
    4
  0
LTYPE
  5
14
330
5
100
AcDbSymbolTableRecord
100
AcDbLinetypeTableRecord
  2
ByBlock
 70
    0
  3

 72
   65
 73
    0
 40
0
  0
LTYPE
  5
15
330
5
100
AcDbSymbolTableRecord
100
AcDbLinetypeTableRecord
  2
ByLayer
 70
    0
  3

 72
   65
 73
    0
 40
0
  0
LTYPE
  5
16
330
5
100
AcDbSymbolTableRecord
100
AcDbLinetypeTableRecord
  2
Continuous
 70
    0
  3
Solid line
 72
   65
 73
    0
 40
0
  0
LTYPE
  5
32
330
5
100
AcDbSymbolTableRecord
100
AcDbLinetypeTableRecord
  2
DASHED
 70
    0
  3

 72
   65
 73
    2
 40
2
 49
1
 74
    0
 49
-1
 74
    0
  0
LTYPE
  5
33
330
5
100
AcDbSymbolTableRecord
100
AcDbLinetypeTableRecord
  2
DASHEDX2
 70
    0
  3

 72
   65
 73
    2
 40
3
 49
2
 74
    0
 49
-1
 74
    0
  0
LTYPE
  5
34
330
5
100
AcDbSymbolTableRecord
100
AcDbLinetypeTableRecord
  2
DASHDOT
 70
    0
  3

 72
   65
 73
    4
 40
3
 49
1
 74
    0
 49
-1
 74
    0
 49
0
 74
    0
 49
-1
 74
    0
  0
LTYPE
  5
35
330
5
100
AcDbSymbolTableRecord
100
AcDbLinetypeTableRecord
  2
DIVIDE
 70
    0
  3

 72
   65
 73
    6
 40
4
 49
1
 74
    0
 49
-1
 74
    0
 49
0
 74
    0
 49
-1
 74
    0
 49
0
 74
    0
 49
-1
 74
    0
  0
LTYPE
  5
36
330
5
100
AcDbSymbolTableRecord
100
AcDbLinetypeTableRecord
  2
DOT
 70
    0
  3

 72
   65
 73
    2
 40
1
 49
1
 74
    0
 49
0
 74
    0
  0
ENDTAB
  0
TABLE
  2
LAYER
  5
2
330
0
100
AcDbSymbolTable
 70
    1
  0
LAYER
  5
37
330
2
100
AcDbSymbolTableRecord
100
AcDbLayerTableRecord
  2
dimensions
 70
    0
 62
    7
  6
CONTINUOUS
370
   -3
390
F
  0
LAYER
  5
38
330
2
100
AcDbSymbolTableRecord
100
AcDbLayerTableRecord
  2
text
 70
    0
 62
    7
  6
CONTINUOUS
370
   -3
390
F
  0
LAYER
  5
39
330
2
100
AcDbSymbolTableRecord
100
AcDbLayerTableRecord
  2
s001-#def-active-grp
 70
    0
 62
    7
  6
CONTINUOUS
370
   -3
390
F
  0
LAYER
  5
10
330
2
100
AcDbSymbolTableRecord
100
AcDbLayerTableRecord
  2
0
 70
    0
 62
    7
  6
CONTINUOUS
370
   -3
390
F
  0
ENDTAB
  0
TABLE
  2
STYLE
  5
3
330
0
100
AcDbSymbolTable
 70
    3
  0
STYLE
  5
3A
330
2
100
AcDbSymbolTableRecord
100
AcDbTextStyleTableRecord
  2
unicode
 70
    0
 40
0
 41
1
 50
0
 71
    0
 42
1
  3
unicode
  4

  0
STYLE
  5
3B
330
2
100
AcDbSymbolTableRecord
100
AcDbTextStyleTableRecord
  2
Standard
 70
    0
 40
0
 41
1
 50
0
 71
    0
 42
1
  3
txt
  4

  0
ENDTAB
  0
TABLE
  2
VIEW
  5
6
330
0
100
AcDbSymbolTable
 70
    0
  0
ENDTAB
  0
TABLE
  2
UCS
  5
7
330
0
100
AcDbSymbolTable
 70
    0
  0
ENDTAB
  0
TABLE
  2
APPID
  5
9
330
0
100
AcDbSymbolTable
 70
    1
  0
APPID
  5
12
330
9
100
AcDbSymbolTableRecord
100
AcDbRegAppTableRecord
  2
ACAD
 70
    0
  0
ENDTAB
  0
TABLE
  2
DIMSTYLE
  5
A
330
0
100
AcDbSymbolTable
 70
    1
100
AcDbDimStyleTable
 71
    1
  0
DIMSTYLE
105
3C
330
A
100
AcDbSymbolTableRecord
100
AcDbDimStyleTableRecord
  2
Standard
 70
    0
 40
1
 41
2.5
 42
0.625
 43
3.75
 44
1.25
 45
0
 46
0
 47
0
 48
0
140
2.5
141
2.5
142
0
143
0.03937007874015748
144
1
145
0
146
1
147
0.625
148
0
 71
    0
 72
    0
 73
    0
 74
    0
 75
    0
 76
    0
 77
    1
 78
    8
 79
    0
170
    0
171
    3
172
    1
173
    0
174
    0
175
    0
176
    0
177
    0
178
    0
179
    0
271
    2
272
    2
273
    2
274
    3
275
    0
276
    0
277
    2
278
   44
279
    0
280
    0
281
    0
282
    0
283
    0
284
    8
285
    0
286
    0
288
    0
289
    3
341

371
   -2
372
   -2
  0
ENDTAB
  0
TABLE
  2
BLOCK_RECORD
  5
1
330
0
100
AcDbSymbolTable
 70
    2
  0
BLOCK_RECORD
  5
1F
330
1
100
AcDbSymbolTableRecord
100
AcDbBlockTableRecord
  2
*Model_Space
 70
    0
280
    1
281
    0
  0
BLOCK_RECORD
  5
1E
330
1
100
AcDbSymbolTableRecord
100
AcDbBlockTableRecord
  2
*Paper_Space
 70
    0
280
    1
281
    0
  0
ENDTAB
  0
ENDSEC
  0
SECTION
  2
BLOCKS
  0
BLOCK
  5
20
330
1F
100
AcDbEntity
  8
0
100
AcDbBlockBegin
  2
*Model_Space
 70
    0
 10
0
 20
0
 30
0
  3
*Model_Space
  1

  0
ENDBLK
  5
21
330
1F
100
AcDbEntity
  8
0
100
AcDbBlockEnd
  0
BLOCK
  5
1C
330
1B
100
AcDbEntity
  8
0
100
AcDbBlockBegin
  2
*Paper_Space
 70
    0
 10
0
 20
0
 30
0
  3
*Paper_Space
  1

  0
ENDBLK
  5
1D
330
1F
100
AcDbEntity
  8
0
100
AcDbBlockEnd
  0
ENDSEC
  0
SECTION
  2
ENTITIES
  0
POLYLINE
  5
3D
100
AcDbEntity
  8
s001-#def-active-grp
  6
CONTINUOUS
 62
    7
420
    0
370
    9
100
AcDb3dPolyline
 10
0
 20
0
 30
0
 70
    0
  0
VERTEX
  5
3E
100
AcDbEntity
  8
s001-#def-active-grp
  6
CONTINUOUS
 62
    7
420
    0
370
    9
100
AcDbVertex
 10
-45.28871553128433
 20
-27.2023595888021
 30
0
  0
VERTEX
  5
3F
100
AcDbEntity
  8
s001-#def-active-grp
  6
CONTINUOUS
 62
    7
420
    0
370
    9
100
AcDbVertex
 10
4.705116130377398
 20
-27.1763209181755
 30
0
  0
VERTEX
  5
40
100
AcDbEntity
  8
s001-#def-active-grp
  6
CONTINUOUS
 62
    7
420
    0
370
    9
100
AcDbVertex
 10
20.15666700788191
 20
20.35261556878097
 30
0
  0
VERTEX
  5
41
100
AcDbEntity
  8
s001-#def-active-grp
  6
CONTINUOUS
 62
    7
420
    0
370
    9
100
AcDbVertex
 10
-29.83716465377982
 20
20.32657689815438
 30
0
  0
VERTEX
  5
42
100
AcDbEntity
  8
s001-#def-active-grp
  6
CONTINUOUS
 62
    7
420
    0
370
    9
100
AcDbVertex
 10
-45.28871553128433
 20
-27.2023595888021
 30
0
  0
SEQEND
  5
43
100
AcDbEntity
  8
s001-#def-active-grp
  6
CONTINUOUS
 62
    7
420
    0
370
    9
  0
POLYLINE
  5
44
100
AcDbEntity
  8
s001-#def-active-grp
  6
CONTINUOUS
 62
    7
420
    0
370
    9
100
AcDb3dPolyline
 10
0
 20
0
 30
0
 70
    0
  0
VERTEX
  5
45
100
AcDbEntity
  8
s001-#def-active-grp
  6
CONTINUOUS
 62
    7
420
    0
370
    9
100
AcDbVertex
 10
-29.83716465377982
 20
20.32657689815438
 30
0
  0
VERTEX
  5
46
100
AcDbEntity
  8
s001-#def-active-grp
  6
CONTINUOUS
 62
    7
420
    0
370
    9
100
AcDbVertex
 10
-4.8412447153407
 20
2.188231392741127
 30
0
  0
VERTEX
  5
47
100
AcDbEntity
  8
s001-#def-active-grp
  6
CONTINUOUS
 62
    7
420
    0
370
    9
100
AcDbVertex
 10
4.705116130377398
 20
-27.1763209181755
 30
0
  0
SEQEND
  5
48
100
AcDbEntity
  8
s001-#def-active-grp
  6
CONTINUOUS
 62
    7
420
    0
370
    9
  0
LINE
  5
49
100
AcDbEntity
  8
s001-#def-active-grp
  6
CONTINUOUS
 62
    7
420
    0
370
    9
100
AcDbLine
 10
-20.29179970045347
 20
-27.1893402534888
 11
-20.29166262762519
 21
-24.69101921362359
  0
LINE
  5
4A
100
AcDbEntity
  8
s001-#def-active-grp
  6
CONTINUOUS
 62
    7
420
    0
370
    9
100
AcDbLine
 10
-37.56294009253207
 20
-3.437891345323862
 11
-35.18563448154616
 21
-4.208676791677949
  0
LINE
  5
4B
100
AcDbEntity
  8
s001-#def-active-grp
  6
CONTINUOUS
 62
    7
420
    0
370
    9
100
AcDbLine
 10
-4.840248822948944
 20
20.33959623346767
 11
-4.840385895777224
 21
17.84127519360246
  0
LINE
  5
4C
100
AcDbEntity
  8
s001-#def-active-grp
  6
CONTINUOUS
 62
    7
420
    0
370
    9
100
AcDbLine
 10
12.43089156912966
 20
-3.411852674697265
 11
10.05358595814375
 21
-2.641067228343175
  0
LINE
  5
4D
100
AcDbEntity
  8
s001-#def-active-grp
  6
CONTINUOUS
 62
    7
420
    0
370
    9
100
AcDbLine
 10
-15.86981194249686
 20
13.27935358143238
 11
-18.80859742662366
 21
9.235454709463117
  0
LINE
  5
4E
100
AcDbEntity
  8
s001-#def-active-grp
  6
CONTINUOUS
 62
    7
420
    0
370
    9
100
AcDbLine
 10
-2.445454619134367
 20
-13.26730663380878
 11
2.309326034171079
 21
-11.72078289162559
  0
POLYLINE
  5
4F
100
AcDbEntity
  8
s001-#def-active-grp
  6
CONTINUOUS
 62
    7
420
    0
370
    9
100
AcDb3dPolyline
 10
0
 20
0
 30
0
 70
    0
  0
VERTEX
  5
50
100
AcDbEntity
  8
s001-#def-active-grp
  6
CONTINUOUS
 62
    7
420
    0
370
    9
100
AcDbVertex
 10
-1.194859341145957
 20
-9.028029525609753
 30
0
  0
VERTEX
  5
51
100
AcDbEntity
  8
s001-#def-active-grp
  6
CONTINUOUS
 62
    7
420
    0
370
    9
100
AcDbVertex
 10
0.4442761768662433
 20
-8.355149398047466
 30
0
  0
VERTEX
  5
52
100
AcDbEntity
  8
s001-#def-active-grp
  6
CONTINUOUS
 62
    7
420
    0
370
    9
100
AcDbVertex
 10
2.019147272383146
 20
-7.405723906134411
 30
0
  0
VERTEX
  5
53
100
AcDbEntity
  8
s001-#def-active-grp
  6
CONTINUOUS
 62
    7
420
    0
370
    9
100
AcDbVertex
 10
3.461494962053957
 20
-6.189902706432758
 30
0
  0
VERTEX
  5
54
100
AcDbEntity
  8
s001-#def-active-grp
  6
CONTINUOUS
 62
    7
420
    0
370
    9
100
AcDbVertex
 10
4.706347121076124
 20
-4.740000090640934
 30
0
  0
VERTEX
  5
55
100
AcDbEntity
  8
s001-#def-active-grp
  6
CONTINUOUS
 62
    7
420
    0
370
    9
100
AcDbVertex
 10
5.700859574380152
 20
-3.108437904518345
 30
0
  0
VERTEX
  5
56
100
AcDbEntity
  8
s001-#def-active-grp
  6
CONTINUOUS
 62
    7
420
    0
370
    9
100
AcDbVertex
 10
6.411500238411989
 20
-1.361651856454854
 30
0
  0
VERTEX
  5
57
100
AcDbEntity
  8
s001-#def-active-grp
  6
CONTINUOUS
 62
    7
420
    0
370
    9
100
AcDbVertex
 10
6.827624744205453
 20
0.4286207036751863
 30
0
  0
VERTEX
  5
58
100
AcDbEntity
  8
s001-#def-active-grp
  6
CONTINUOUS
 62
    7
420
    0
370
    9
100
AcDbVertex
 10
6.960698012498
 20
2.194378289052729
 30
0
  0
SEQEND
  5
59
100
AcDbEntity
  8
s001-#def-active-grp
  6
CONTINUOUS
 62
    7
420
    0
370
    9
  0
POLYLINE
  5
5A
100
AcDbEntity
  8
s001-#def-active-grp
  6
CONTINUOUS
 62
    7
420
    0
370
    9
100
AcDb3dPolyline
 10
0
 20
0
 30
0
 70
    0
  0
VERTEX
  5
5B
100
AcDbEntity
  8
s001-#def-active-grp
  6
CONTINUOUS
 62
    7
420
    0
370
    9
100
AcDbVertex
 10
6.960698012498
 20
2.194378289052729
 30
0
  0
VERTEX
  5
5C
100
AcDbEntity
  8
s001-#def-active-grp
  6
CONTINUOUS
 62
    7
420
    0
370
    9
100
AcDbVertex
 10
6.827818496640681
 20
3.959997356202754
 30
0
  0
VERTEX
  5
5D
100
AcDbEntity
  8
s001-#def-active-grp
  6
CONTINUOUS
 62
    7
420
    0
370
    9
100
AcDbVertex
 10
6.41189041718158
 20
5.749836552005811
 30
0
  0
VERTEX
  5
5E
100
AcDbEntity
  8
s001-#def-active-grp
  6
CONTINUOUS
 62
    7
420
    0
370
    9
100
AcDbVertex
 10
5.701441390791556
 20
7.495882443030929
 30
0
  0
VERTEX
  5
5F
100
AcDbEntity
  8
s001-#def-active-grp
  6
CONTINUOUS
 62
    7
420
    0
370
    9
100
AcDbVertex
 10
4.707107915165143
 20
9.126408763280685
 30
0
  0
VERTEX
  5
60
100
AcDbEntity
  8
s001-#def-active-grp
  6
CONTINUOUS
 62
    7
420
    0
370
    9
100
AcDbVertex
 10
3.462414785652338
 20
10.57501473011356
 30
0
  0
VERTEX
  5
61
100
AcDbEntity
  8
s001-#def-active-grp
  6
CONTINUOUS
 62
    7
420
    0
370
    9
100
AcDbVertex
 10
2.020200427990934
 20
11.78933354124934
 30
0
  0
VERTEX
  5
62
100
AcDbEntity
  8
s001-#def-active-grp
  6
CONTINUOUS
 62
    7
420
    0
370
    9
100
AcDbVertex
 10
0.4454334247862429
 20
12.73711858300445
 30
0
  0
VERTEX
  5
63
100
AcDbEntity
  8
s001-#def-active-grp
  6
CONTINUOUS
 62
    7
420
    0
370
    9
100
AcDbVertex
 10
-1.193628350451476
 20
13.4082913019379
 30
0
  0
SEQEND
  5
64
100
AcDbEntity
  8
s001-#def-active-grp
  6
CONTINUOUS
 62
    7
420
    0
370
    9
  0
POLYLINE
  5
65
100
AcDbEntity
  8
s001-#def-active-grp
  6
CONTINUOUS
 62
    7
420
    0
370
    9
100
AcDb3dPolyline
 10
0
 20
0
 30
0
 70
    0
  0
VERTEX
  5
66
100
AcDbEntity
  8
s001-#def-active-grp
  6
CONTINUOUS
 62
    7
420
    0
370
    9
100
AcDbVertex
 10
-1.193628350451476
 20
13.4082913019379
 30
0
  0
VERTEX
  5
67
100
AcDbEntity
  8
s001-#def-active-grp
  6
CONTINUOUS
 62
    7
420
    0
370
    9
100
AcDbVertex
 10
-2.914887925672128
 20
13.82662376905921
 30
0
  0
VERTEX
  5
68
100
AcDbEntity
  8
s001-#def-active-grp
  6
CONTINUOUS
 62
    7
420
    0
370
    9
100
AcDbVertex
 10
-4.746816711170221
 20
13.98337973454922
 30
0
  0
VERTEX
  5
69
100
AcDbEntity
  8
s001-#def-active-grp
  6
CONTINUOUS
 62
    7
420
    0
370
    9
100
AcDbVertex
 10
-6.628246046424336
 20
13.84667424141819
 30
0
  0
VERTEX
  5
6A
100
AcDbEntity
  8
s001-#def-active-grp
  6
CONTINUOUS
 62
    7
420
    0
370
    9
100
AcDbVertex
 10
-8.48763008953544
 20
13.404492311092
 30
0
  0
VERTEX
  5
6B
100
AcDbEntity
  8
s001-#def-active-grp
  6
CONTINUOUS
 62
    7
420
    0
370
    9
100
AcDbVertex
 10
-10.25140520244186
 20
12.66821784877803
 30
0
  0
VERTEX
  5
6C
100
AcDbEntity
  8
s001-#def-active-grp
  6
CONTINUOUS
 62
    7
420
    0
370
    9
100
AcDbVertex
 10
-11.85338335857154
 20
11.67192209917482
 30
0
  0
VERTEX
  5
6D
100
AcDbEntity
  8
s001-#def-active-grp
  6
CONTINUOUS
 62
    7
420
    0
370
    9
100
AcDbVertex
 10
-13.24276739670732
 20
10.46741290887818
 30
0
  0
VERTEX
  5
6E
100
AcDbEntity
  8
s001-#def-active-grp
  6
CONTINUOUS
 62
    7
420
    0
370
    9
100
AcDbVertex
 10
-14.38883655175752
 20
9.116462876123183
 30
0
  0
SEQEND
  5
6F
100
AcDbEntity
  8
s001-#def-active-grp
  6
CONTINUOUS
 62
    7
420
    0
370
    9
  0
POLYLINE
  5
70
100
AcDbEntity
  8
s001-#def-active-grp
  6
CONTINUOUS
 62
    7
420
    0
370
    9
100
AcDb3dPolyline
 10
0
 20
0
 30
0
 70
    0
  0
VERTEX
  5
71
100
AcDbEntity
  8
s001-#def-active-grp
  6
CONTINUOUS
 62
    7
420
    0
370
    9
100
AcDbVertex
 10
-20.289572817363
 20
13.39834541477232
 30
0
  0
VERTEX
  5
72
100
AcDbEntity
  8
s001-#def-active-grp
  6
CONTINUOUS
 62
    7
420
    0
370
    9
100
AcDbVertex
 10
-21.79582881951679
 20
10.95984622006177
 30
0
  0
VERTEX
  5
73
100
AcDbEntity
  8
s001-#def-active-grp
  6
CONTINUOUS
 62
    7
420
    0
370
    9
100
AcDbVertex
 10
-22.95477183557376
 20
8.220581532347628
 30
0
  0
VERTEX
  5
74
100
AcDbEntity
  8
s001-#def-active-grp
  6
CONTINUOUS
 62
    7
420
    0
370
    9
100
AcDbVertex
 10
-23.68667049885401
 20
5.258714441622993
 30
0
  0
VERTEX
  5
75
100
AcDbEntity
  8
s001-#def-active-grp
  6
CONTINUOUS
 62
    7
420
    0
370
    9
100
AcDbVertex
 10
-23.93718918224959
 20
2.178285505583633
 30
0
  0
VERTEX
  5
76
100
AcDbEntity
  8
s001-#def-active-grp
  6
CONTINUOUS
 62
    7
420
    0
370
    9
100
AcDbVertex
 10
-23.68700850604099
 20
-0.9018826473696056
 30
0
  0
VERTEX
  5
77
100
AcDbEntity
  8
s001-#def-active-grp
  6
CONTINUOUS
 62
    7
420
    0
370
    9
100
AcDbVertex
 10
-22.95543481241195
 20
-3.862987506566747
 30
0
  0
VERTEX
  5
78
100
AcDbEntity
  8
s001-#def-active-grp
  6
CONTINUOUS
 62
    7
420
    0
370
    9
100
AcDbVertex
 10
-21.79679231500156
 20
-6.601045108449926
 30
0
  0
VERTEX
  5
79
100
AcDbEntity
  8
s001-#def-active-grp
  6
CONTINUOUS
 62
    7
420
    0
370
    9
100
AcDbVertex
 10
-20.29080380805748
 20
-9.03797541275916
 30
0
  0
SEQEND
  5
7A
100
AcDbEntity
  8
s001-#def-active-grp
  6
CONTINUOUS
 62
    7
420
    0
370
    9
  0
POLYLINE
  5
7B
100
AcDbEntity
  8
s001-#def-active-grp
  6
CONTINUOUS
 62
    7
420
    0
370
    9
100
AcDb3dPolyline
 10
0
 20
0
 30
0
 70
    0
  0
VERTEX
  5
7C
100
AcDbEntity
  8
s001-#def-active-grp
  6
CONTINUOUS
 62
    7
420
    0
370
    9
100
AcDbVertex
 10
-20.29080380805748
 20
-9.03797541275916
 30
0
  0
VERTEX
  5
7D
100
AcDbEntity
  8
s001-#def-active-grp
  6
CONTINUOUS
 62
    7
420
    0
370
    9
100
AcDbVertex
 10
-18.43666471698084
 20
-11.22192694702892
 30
0
  0
VERTEX
  5
7E
100
AcDbEntity
  8
s001-#def-active-grp
  6
CONTINUOUS
 62
    7
420
    0
370
    9
100
AcDbVertex
 10
-16.18880785202527
 20
-13.16852210832058
 30
0
  0
VERTEX
  5
7F
100
AcDbEntity
  8
s001-#def-active-grp
  6
CONTINUOUS
 62
    7
420
    0
370
    9
100
AcDbVertex
 10
-13.596929490383
 20
-14.7778625062135
 30
0
  0
VERTEX
  5
80
100
AcDbEntity
  8
s001-#def-active-grp
  6
CONTINUOUS
 62
    7
420
    0
370
    9
100
AcDbVertex
 10
-10.74321197164754
 20
-15.96620689613622
 30
0
  0
VERTEX
  5
81
100
AcDbEntity
  8
s001-#def-active-grp
  6
CONTINUOUS
 62
    7
420
    0
370
    9
100
AcDbVertex
 10
-7.734743729230487
 20
-16.67853840065461
 30
0
  0
VERTEX
  5
82
100
AcDbEntity
  8
s001-#def-active-grp
  6
CONTINUOUS
 62
    7
420
    0
370
    9
100
AcDbVertex
 10
-4.690551215441596
 20
-16.89656146218702
 30
0
  0
VERTEX
  5
83
100
AcDbEntity
  8
s001-#def-active-grp
  6
CONTINUOUS
 62
    7
420
    0
370
    9
100
AcDbVertex
 10
-1.726400174103264
 20
-16.63983731364567
 30
0
  0
VERTEX
  5
84
100
AcDbEntity
  8
s001-#def-active-grp
  6
CONTINUOUS
 62
    7
420
    0
370
    9
100
AcDbVertex
 10
1.058730756182648
 20
-15.96005999982462
 30
0
  0
SEQEND
  5
85
100
AcDbEntity
  8
s001-#def-active-grp
  6
CONTINUOUS
 62
    7
420
    0
370
    9
  0
POLYLINE
  5
86
100
AcDbEntity
  8
s001-#def-active-grp
  6
CONTINUOUS
 62
    7
420
    0
370
    9
100
AcDb3dPolyline
 10
0
 20
0
 30
0
 70
    0
  0
VERTEX
  5
87
100
AcDbEntity
  8
s001-#def-active-grp
  6
CONTINUOUS
 62
    7
420
    0
370
    9
100
AcDbVertex
 10
-14.39082833653149
 20
-27.18626680533299
 30
0
  0
VERTEX
  5
88
100
AcDbEntity
  8
s001-#def-active-grp
  6
CONTINUOUS
 62
    7
420
    0
370
    9
100
AcDbVertex
 10
-14.73871142545449
 20
-22.56381607635063
 30
0
  0
VERTEX
  5
89
100
AcDbEntity
  8
s001-#def-active-grp
  6
CONTINUOUS
 62
    7
420
    0
370
    9
100
AcDbVertex
 10
-15.82762527435359
 20
-17.87795622734274
 30
0
  0
VERTEX
  5
8A
100
AcDbEntity
  8
s001-#def-active-grp
  6
CONTINUOUS
 62
    7
420
    0
370
    9
100
AcDbVertex
 10
-17.68760497271642
 20
-13.30674873872315
 30
0
  0
VERTEX
  5
8B
100
AcDbEntity
  8
s001-#def-active-grp
  6
CONTINUOUS
 62
    7
420
    0
370
    9
100
AcDbVertex
 10
-18.900437692106
 20
-11.12307883253005
 30
0
  0
VERTEX
  5
8C
100
AcDbEntity
  8
s001-#def-active-grp
  6
CONTINUOUS
 62
    7
420
    0
370
    9
100
AcDbVertex
 10
-20.29080380805747
 20
-9.037975412759163
 30
0
  0
VERTEX
  5
8D
100
AcDbEntity
  8
s001-#def-active-grp
  6
CONTINUOUS
 62
    7
420
    0
370
    9
100
AcDbVertex
 10
-21.84584201999786
 20
-7.072528676623886
 30
0
  0
VERTEX
  5
8E
100
AcDbEntity
  8
s001-#def-active-grp
  6
CONTINUOUS
 62
    7
420
    0
370
    9
100
AcDbVertex
 10
-23.54945272668457
 20
-5.245475755285854
 30
0
  0
VERTEX
  5
8F
100
AcDbEntity
  8
s001-#def-active-grp
  6
CONTINUOUS
 62
    7
420
    0
370
    9
100
AcDbVertex
 10
-27.32521893410419
 20
-2.066347834554882
 30
0
  0
VERTEX
  5
90
100
AcDbEntity
  8
s001-#def-active-grp
  6
CONTINUOUS
 62
    7
420
    0
370
    9
100
AcDbVertex
 10
-31.44801247285475
 20
0.4149856187880567
 30
0
  0
VERTEX
  5
91
100
AcDbEntity
  8
s001-#def-active-grp
  6
CONTINUOUS
 62
    7
420
    0
370
    9
100
AcDbVertex
 10
-35.73913191008666
 20
2.17213860927702
 30
0
  0
SEQEND
  5
92
100
AcDbEntity
  8
s001-#def-active-grp
  6
CONTINUOUS
 62
    7
420
    0
370
    9
  0
POLYLINE
  5
93
100
AcDbEntity
  8
s001-#def-active-grp
  6
CONTINUOUS
 62
    7
420
    0
370
    9
100
AcDb3dPolyline
 10
0
 20
0
 30
0
 70
    0
  0
VERTEX
  5
94
100
AcDbEntity
  8
s001-#def-active-grp
  6
CONTINUOUS
 62
    7
420
    0
370
    9
100
AcDbVertex
 10
1.060722540973018
 20
20.34266968162348
 30
0
  0
VERTEX
  5
95
100
AcDbEntity
  8
s001-#def-active-grp
  6
CONTINUOUS
 62
    7
420
    0
370
    9
100
AcDbVertex
 10
1.275726114038635
 20
17.48583801979192
 30
0
  0
VERTEX
  5
96
100
AcDbEntity
  8
s001-#def-active-grp
  6
CONTINUOUS
 62
    7
420
    0
370
    9
100
AcDbVertex
 10
1.948711883478446
 20
14.58981736658788
 30
0
  0
VERTEX
  5
97
100
AcDbEntity
  8
s001-#def-active-grp
  6
CONTINUOUS
 62
    7
420
    0
370
    9
100
AcDbVertex
 10
3.098242555450944
 20
11.76465576899419
 30
0
  0
VERTEX
  5
98
100
AcDbEntity
  8
s001-#def-active-grp
  6
CONTINUOUS
 62
    7
420
    0
370
    9
100
AcDbVertex
 10
4.707107915165135
 20
9.126408763280681
 30
0
  0
VERTEX
  5
99
100
AcDbEntity
  8
s001-#def-active-grp
  6
CONTINUOUS
 62
    7
420
    0
370
    9
100
AcDbVertex
 10
6.721063704278879
 20
6.782515072640885
 30
0
  0
VERTEX
  5
9A
100
AcDbEntity
  8
s001-#def-active-grp
  6
CONTINUOUS
 62
    7
420
    0
370
    9
100
AcDbVertex
 10
9.054615554036445
 20
4.817705963046235
 30
0
  0
VERTEX
  5
9B
100
AcDbEntity
  8
s001-#def-active-grp
  6
CONTINUOUS
 62
    7
420
    0
370
    9
100
AcDbVertex
 10
11.60264208958161
 20
3.28415755145883
 30
0
  0
VERTEX
  5
9C
100
AcDbEntity
  8
s001-#def-active-grp
  6
CONTINUOUS
 62
    7
420
    0
370
    9
100
AcDbVertex
 10
14.25469975157507
 20
2.198177279903611
 30
0
  0
SEQEND
  5
9D
100
AcDbEntity
  8
s001-#def-active-grp
  6
CONTINUOUS
 62
    7
420
    0
370
    9
  0
DIMENSION
  5
9E
100
AcDbEntity
  8
dimensions
  6
CONTINUOUS
 62
    6
420
16718335
370
    5
100
AcDbDimension
 10
-45.28871553128433
 20
-27.2023595888021
 30
0.5224836537830472
 11
-53.73023920359995
 21
-33.33627512193961
 31
0.6147074882824222
 70
   34
  1
72°
 71
    5
  3
STANDARD
 53
0
210
0
220
0
230
1
 42
1.256637061435917
100
AcDb2LineAngularDimension
 13
-45.28871553128433
 23
-27.2023595888021
 33
0.5224836537830472
 14
4.705116130377396
 24
-27.1763209181755
 34
1.307415353398902
 15
-29.83716465377982
 25
20.32657689815438
 35
-0.9774403105390557
 16
-53.73023920359995
 26
-33.33627512193961
 36
0.6147074882824222
  0
DIMENSION
  5
9F
100
AcDbEntity
  8
dimensions
  6
CONTINUOUS
 62
    6
420
16718335
370
    5
100
AcDbDimension
 10
-4.587044391628943
 20
25.22432481195306
 30
-0.8587613273403349
 11
-4.587044391628943
 21
25.22432481195306
 31
-0.8587613273403349
 70
   33
  1
50.00
 71
    5
  3
STANDARD
 53
0
210
0
220
0
230
1
 42
50
100
AcDbAlignedDimension
 13
-29.83716465377982
 23
20.32657689815438
 33
-0.9774403105390557
 14
20.15666700788192
 24
20.35261556878098
 34
-0.192508610923201
  0
DIMENSION
  5
A0
100
AcDbEntity
  8
dimensions
  6
CONTINUOUS
 62
    6
420
16718335
370
    5
100
AcDbDimension
 10
-22.01279348728646
 20
-25.94107612764069
 30
0.8421240135974636
 11
-22.01279348728646
 21
-25.94107612764069
 31
0.8421240135974636
 70
   33
  1
2.50
 71
    5
  3
STANDARD
 53
0
210
0
220
0
230
1
 42
2.5
100
AcDbAlignedDimension
 13
-20.2916626276252
 23
-24.69101921362359
 33
0.8233418457351165
 14
-20.29179970045347
 24
-27.1893402534888
 34
0.9149495035909745
  0
DIMENSION
  5
A1
100
AcDbEntity
  8
dimensions
  6
CONTINUOUS
 62
    6
420
16718335
370
    5
100
AcDbDimension
 10
7.919957112823985
 20
0.7207580174418422
 30
0.3350061272808588
 11
7.919957112823985
 21
0.7207580174418422
 31
0.3350061272808588
 70
   33
  1
2.50
 71
    5
  3
STANDARD
 53
0
210
0
220
0
230
1
 42
2.5
100
AcDbAlignedDimension
 13
12.43089156912966
 23
-3.411852674697261
 33
0.5574533712378503
 14
10.05358595814374
 24
-2.641067228343175
 34
0.4918193277571901
  0
DIMENSION
  5
A2
100
AcDbEntity
  8
dimensions
  6
CONTINUOUS
 62
    6
420
16718335
370
    5
100
AcDbDimension
 10
-6.339402973528801
 20
15.59415367844209
 30
-0.4345321655884986
 11
-6.339402973528801
 21
15.59415367844209
 31
-0.4345321655884986
 70
   33
  1
2.50
 71
    5
  3
STANDARD
 53
0
210
0
220
0
230
1
 42
2.5
100
AcDbAlignedDimension
 13
-4.840248822948948
 23
20.33959623346768
 33
-0.5849744607311282
 14
-4.840385895777228
 24
17.84127519360246
 34
-0.4933668028752703
  0
DIMENSION
  5
A3
100
AcDbEntity
  8
dimensions
  6
CONTINUOUS
 62
    6
420
16718335
370
    5
100
AcDbDimension
 10
-37.01260000283928
 20
-5.786732577236086
 30
-0.1326985595483803
 11
-37.01260000283928
 21
-5.786732577236086
 31
-0.1326985595483803
 70
   33
  1
2.50
 71
    5
  3
STANDARD
 53
0
210
0
220
0
230
1
 42
2.5
100
AcDbAlignedDimension
 13
-37.56294009253207
 23
-3.437891345323861
 33
-0.2274783283780042
 14
-35.18563448154617
 24
-4.208676791677948
 34
-0.161844284897344
  0
DIMENSION
  5
A4
100
AcDbEntity
  8
dimensions
  6
CONTINUOUS
 62
    6
420
16718335
370
    5
100
AcDbDimension
 10
4.705116130377396
 20
-27.1763209181755
 30
1.307415353398902
 11
-5.303545669795961
 21
-19.91351297890059
 31
0.8837658562247158
 70
   34
  1
72°
 71
    5
  3
STANDARD
 53
0
210
0
220
0
230
1
 42
1.256637061435917
100
AcDb2LineAngularDimension
 13
4.705116130377396
 23
-27.1763209181755
 33
1.307415353398902
 14
-4.841244715340699
 24
2.188231392741127
 34
0.08059413250132391
 15
-45.28871553128433
 25
-27.2023595888021
 35
0.5224836537830472
 16
-5.303545669795961
 26
-19.91351297890059
 36
0.8837658562247158
  0
DIMENSION
  5
A5
100
AcDbEntity
  8
dimensions
  6
CONTINUOUS
 62
    6
420
16718335
370
    5
100
AcDbDimension
 10
-18.83075900842908
 20
12.34134771934768
 30
-0.4484230890188657
 11
-18.83075900842908
 21
12.34134771934768
 31
-0.4484230890188657
 70
   33
  1
5.00
 71
    5
  3
STANDARD
 53
0
210
0
220
0
230
1
 42
5
100
AcDbAlignedDimension
 13
-15.86981194249686
 23
13.27935358143238
 33
-0.4994666771845874
 14
-18.80859742662367
 24
9.235454709463122
 34
-0.3973795008531443
  0
DIMENSION
  5
A6
100
AcDbEntity
  8
dimensions
  6
CONTINUOUS
 62
    6
420
16718335
370
    5
100
AcDbDimension
 10
0.7531758250911621
 20
-15.01894400366976
 30
0.6940047429501128
 11
0.7531758250911621
 21
-15.01894400366976
 31
0.6940047429501128
 70
   33
  1
5.00
 71
    5
  3
STANDARD
 53
0
210
0
220
0
230
1
 42
5
100
AcDbAlignedDimension
 13
-2.445454619134369
 23
-13.26730663380878
 33
0.6849873456541442
 14
2.309326034171073
 24
-11.72078289162559
 34
0.7030221402460815
  0
DIMENSION
  5
A7
100
AcDbEntity
  8
dimensions
  6
CONTINUOUS
 62
    6
420
16718335
370
    5
100
AcDbDimension
 10
-36.02615081329483
 20
-13.66623064687685
 30
0.3859322820707616
 11
-36.02615081329483
 21
-13.66623064687685
 31
0.3859322820707616
 70
   33
  1
30.90
 71
    5
  3
STANDARD
 53
0
210
0
220
0
230
1
 42
30.9016994375
100
AcDbAlignedDimension
 13
-20.29080380805747
 23
-9.037975412759161
 33
0.2493809103584758
 14
-45.28871553128433
 24
-27.2023595888021
 34
0.5224836537830472
  0
ENDSEC
  0
SECTION
  2
OBJECTS
  0
DICTIONARY
  5
C
330
0
100
AcDbDictionary
281
    1
  3
ACAD_GROUP
350
D
  0
DICTIONARY
  5
D
330
C
100
AcDbDictionary
281
    1
  0
ENDSEC
  0
EOF
