%TF.GenerationSoftware,KiCad,Pcbnew,5.1.8*%
%TF.CreationDate,2020-12-23T16:20:00-05:00*%
%TF.ProjectId,penroserombus_thin_40mm,70656e72-6f73-4657-926f-6d6275735f74,rev?*%
%TF.SameCoordinates,Original*%
%TF.FileFunction,Soldermask,Top*%
%TF.FilePolarity,Negative*%
%FSLAX46Y46*%
G04 Gerber Fmt 4.6, Leading zero omitted, Abs format (unit mm)*
G04 Created by KiCad (PCBNEW 5.1.8) date 2020-12-23 16:20:00*
%MOMM*%
%LPD*%
G01*
G04 APERTURE LIST*
%ADD10C,0.100000*%
%ADD11O,1.700000X1.700000*%
%ADD12R,1.700000X1.700000*%
G04 APERTURE END LIST*
D10*
%TO.C,J3*%
G36*
X135261566Y-75128791D02*
G01*
X136636895Y-74129556D01*
X137636130Y-75504885D01*
X136260801Y-76504120D01*
X135261566Y-75128791D01*
G37*
G36*
G01*
X133894328Y-76122149D02*
X133894328Y-76122149D01*
G75*
G02*
X135081609Y-76310196I499617J-687664D01*
G01*
X135081609Y-76310196D01*
G75*
G02*
X134893562Y-77497477I-687664J-499617D01*
G01*
X134893562Y-77497477D01*
G75*
G02*
X133706281Y-77309430I-499617J687664D01*
G01*
X133706281Y-77309430D01*
G75*
G02*
X133894328Y-76122149I687664J499617D01*
G01*
G37*
G36*
G01*
X131839425Y-77615123D02*
X131839425Y-77615123D01*
G75*
G02*
X133026706Y-77803170I499617J-687664D01*
G01*
X133026706Y-77803170D01*
G75*
G02*
X132838659Y-78990451I-687664J-499617D01*
G01*
X132838659Y-78990451D01*
G75*
G02*
X131651378Y-78802404I-499617J687664D01*
G01*
X131651378Y-78802404D01*
G75*
G02*
X131839425Y-77615123I687664J499617D01*
G01*
G37*
%TD*%
%TO.C,C1*%
G36*
G01*
X147194701Y-76237479D02*
X148098205Y-75943913D01*
G75*
G02*
X148413223Y-76104423I77254J-237764D01*
G01*
X148621809Y-76746387D01*
G75*
G02*
X148461299Y-77061405I-237764J-77254D01*
G01*
X147557795Y-77354971D01*
G75*
G02*
X147242777Y-77194461I-77254J237764D01*
G01*
X147034191Y-76552497D01*
G75*
G02*
X147194701Y-76237479I237764J77254D01*
G01*
G37*
G36*
G01*
X146553491Y-74264037D02*
X147456995Y-73970471D01*
G75*
G02*
X147772013Y-74130981I77254J-237764D01*
G01*
X147980599Y-74772945D01*
G75*
G02*
X147820089Y-75087963I-237764J-77254D01*
G01*
X146916585Y-75381529D01*
G75*
G02*
X146601567Y-75221019I-77254J237764D01*
G01*
X146392981Y-74579055D01*
G75*
G02*
X146553491Y-74264037I237764J77254D01*
G01*
G37*
%TD*%
%TO.C,C2*%
G36*
G01*
X163072509Y-71473405D02*
X162169005Y-71766971D01*
G75*
G02*
X161853987Y-71606461I-77254J237764D01*
G01*
X161645401Y-70964497D01*
G75*
G02*
X161805911Y-70649479I237764J77254D01*
G01*
X162709415Y-70355913D01*
G75*
G02*
X163024433Y-70516423I77254J-237764D01*
G01*
X163233019Y-71158387D01*
G75*
G02*
X163072509Y-71473405I-237764J-77254D01*
G01*
G37*
G36*
G01*
X162431299Y-69499963D02*
X161527795Y-69793529D01*
G75*
G02*
X161212777Y-69633019I-77254J237764D01*
G01*
X161004191Y-68991055D01*
G75*
G02*
X161164701Y-68676037I237764J77254D01*
G01*
X162068205Y-68382471D01*
G75*
G02*
X162383223Y-68542981I77254J-237764D01*
G01*
X162591809Y-69184945D01*
G75*
G02*
X162431299Y-69499963I-237764J-77254D01*
G01*
G37*
%TD*%
%TO.C,D1*%
G36*
X145185004Y-78684755D02*
G01*
X144875987Y-77733698D01*
X146302572Y-77270173D01*
X146611589Y-78221230D01*
X145185004Y-78684755D01*
G37*
G36*
X144196149Y-75641374D02*
G01*
X143887132Y-74690317D01*
X145313717Y-74226792D01*
X145622734Y-75177849D01*
X144196149Y-75641374D01*
G37*
G36*
X140524827Y-80198938D02*
G01*
X140215810Y-79247881D01*
X141642395Y-78784356D01*
X141951412Y-79735413D01*
X140524827Y-80198938D01*
G37*
G36*
X139535972Y-77155557D02*
G01*
X139226955Y-76204500D01*
X140653540Y-75740975D01*
X140962557Y-76692032D01*
X139535972Y-77155557D01*
G37*
%TD*%
%TO.C,D2*%
G36*
X170422799Y-69433036D02*
G01*
X170731816Y-70384093D01*
X169305231Y-70847618D01*
X168996214Y-69896561D01*
X170422799Y-69433036D01*
G37*
G36*
X169433944Y-66389655D02*
G01*
X169742961Y-67340712D01*
X168316376Y-67804237D01*
X168007359Y-66853180D01*
X169433944Y-66389655D01*
G37*
G36*
X165762622Y-70947219D02*
G01*
X166071639Y-71898276D01*
X164645054Y-72361801D01*
X164336037Y-71410744D01*
X165762622Y-70947219D01*
G37*
G36*
X164773767Y-67903838D02*
G01*
X165082784Y-68854895D01*
X163656199Y-69318420D01*
X163347182Y-68367363D01*
X164773767Y-67903838D01*
G37*
%TD*%
D11*
%TO.C,J1*%
X176239724Y-64038590D03*
X173699724Y-64038590D03*
D12*
X171159724Y-64038590D03*
%TD*%
%TO.C,J2*%
X138799045Y-82550000D03*
D11*
X136259045Y-82550000D03*
X133719045Y-82550000D03*
%TD*%
%TO.C,J4*%
G36*
G01*
X178119344Y-68973468D02*
X178119344Y-68973468D01*
G75*
G02*
X176932063Y-68785421I-499617J687664D01*
G01*
X176932063Y-68785421D01*
G75*
G02*
X177120110Y-67598140I687664J499617D01*
G01*
X177120110Y-67598140D01*
G75*
G02*
X178307391Y-67786187I499617J-687664D01*
G01*
X178307391Y-67786187D01*
G75*
G02*
X178119344Y-68973468I-687664J-499617D01*
G01*
G37*
G36*
G01*
X176064441Y-70466442D02*
X176064441Y-70466442D01*
G75*
G02*
X174877160Y-70278395I-499617J687664D01*
G01*
X174877160Y-70278395D01*
G75*
G02*
X175065207Y-69091114I687664J499617D01*
G01*
X175065207Y-69091114D01*
G75*
G02*
X176252488Y-69279161I499617J-687664D01*
G01*
X176252488Y-69279161D01*
G75*
G02*
X176064441Y-70466442I-687664J-499617D01*
G01*
G37*
D10*
G36*
X174697203Y-71459800D02*
G01*
X173321874Y-72459035D01*
X172322639Y-71083706D01*
X173697968Y-70084471D01*
X174697203Y-71459800D01*
G37*
%TD*%
%TO.C,JP1*%
G36*
X157469766Y-77618199D02*
G01*
X157933291Y-79044784D01*
X156982234Y-79353801D01*
X156518709Y-77927216D01*
X157469766Y-77618199D01*
G37*
G36*
X156221204Y-79600442D02*
G01*
X156197870Y-79608023D01*
X156149943Y-79618538D01*
X156101216Y-79624306D01*
X156052157Y-79625269D01*
X156003240Y-79621420D01*
X155954937Y-79612793D01*
X155907712Y-79599475D01*
X155862020Y-79581591D01*
X155818299Y-79559314D01*
X155776974Y-79532861D01*
X155738440Y-79502482D01*
X155703069Y-79468475D01*
X155671203Y-79431163D01*
X155643146Y-79390908D01*
X155619171Y-79348096D01*
X155599507Y-79303142D01*
X155591926Y-79279809D01*
X155591353Y-79279995D01*
X155436844Y-78804466D01*
X155437417Y-78804280D01*
X155429836Y-78780947D01*
X155419321Y-78733020D01*
X155413553Y-78684292D01*
X155412590Y-78635234D01*
X155416439Y-78586317D01*
X155425066Y-78538014D01*
X155438384Y-78490788D01*
X155456268Y-78445096D01*
X155478545Y-78401376D01*
X155504998Y-78360050D01*
X155535376Y-78321517D01*
X155569384Y-78286146D01*
X155606695Y-78254279D01*
X155646951Y-78226223D01*
X155689762Y-78202248D01*
X155734717Y-78182584D01*
X155758050Y-78175002D01*
X155757864Y-78174430D01*
X156280945Y-78004470D01*
X156744471Y-79431055D01*
X156221390Y-79601014D01*
X156221204Y-79600442D01*
G37*
G36*
X157707529Y-77540945D02*
G01*
X158230610Y-77370986D01*
X158230796Y-77371558D01*
X158254130Y-77363977D01*
X158302057Y-77353462D01*
X158350784Y-77347694D01*
X158399843Y-77346731D01*
X158448760Y-77350580D01*
X158497063Y-77359207D01*
X158544288Y-77372525D01*
X158589980Y-77390409D01*
X158633701Y-77412686D01*
X158675026Y-77439139D01*
X158713560Y-77469518D01*
X158748931Y-77503525D01*
X158780797Y-77540837D01*
X158808854Y-77581092D01*
X158832829Y-77623904D01*
X158852493Y-77668858D01*
X158860074Y-77692191D01*
X158860647Y-77692005D01*
X159015156Y-78167534D01*
X159014583Y-78167720D01*
X159022164Y-78191053D01*
X159032679Y-78238980D01*
X159038447Y-78287708D01*
X159039410Y-78336766D01*
X159035561Y-78385683D01*
X159026934Y-78433986D01*
X159013616Y-78481212D01*
X158995732Y-78526904D01*
X158973455Y-78570624D01*
X158947002Y-78611950D01*
X158916624Y-78650483D01*
X158882616Y-78685854D01*
X158845305Y-78717721D01*
X158805049Y-78745777D01*
X158762238Y-78769752D01*
X158717283Y-78789416D01*
X158693950Y-78796998D01*
X158694136Y-78797570D01*
X158171055Y-78967530D01*
X157707529Y-77540945D01*
G37*
%TD*%
%TO.C,JP2*%
G36*
X152881529Y-65094945D02*
G01*
X153404610Y-64924986D01*
X153404796Y-64925558D01*
X153428130Y-64917977D01*
X153476057Y-64907462D01*
X153524784Y-64901694D01*
X153573843Y-64900731D01*
X153622760Y-64904580D01*
X153671063Y-64913207D01*
X153718288Y-64926525D01*
X153763980Y-64944409D01*
X153807701Y-64966686D01*
X153849026Y-64993139D01*
X153887560Y-65023518D01*
X153922931Y-65057525D01*
X153954797Y-65094837D01*
X153982854Y-65135092D01*
X154006829Y-65177904D01*
X154026493Y-65222858D01*
X154034074Y-65246191D01*
X154034647Y-65246005D01*
X154189156Y-65721534D01*
X154188583Y-65721720D01*
X154196164Y-65745053D01*
X154206679Y-65792980D01*
X154212447Y-65841708D01*
X154213410Y-65890766D01*
X154209561Y-65939683D01*
X154200934Y-65987986D01*
X154187616Y-66035212D01*
X154169732Y-66080904D01*
X154147455Y-66124624D01*
X154121002Y-66165950D01*
X154090624Y-66204483D01*
X154056616Y-66239854D01*
X154019305Y-66271721D01*
X153979049Y-66299777D01*
X153936238Y-66323752D01*
X153891283Y-66343416D01*
X153867950Y-66350998D01*
X153868136Y-66351570D01*
X153345055Y-66521530D01*
X152881529Y-65094945D01*
G37*
G36*
X151395204Y-67154442D02*
G01*
X151371870Y-67162023D01*
X151323943Y-67172538D01*
X151275216Y-67178306D01*
X151226157Y-67179269D01*
X151177240Y-67175420D01*
X151128937Y-67166793D01*
X151081712Y-67153475D01*
X151036020Y-67135591D01*
X150992299Y-67113314D01*
X150950974Y-67086861D01*
X150912440Y-67056482D01*
X150877069Y-67022475D01*
X150845203Y-66985163D01*
X150817146Y-66944908D01*
X150793171Y-66902096D01*
X150773507Y-66857142D01*
X150765926Y-66833809D01*
X150765353Y-66833995D01*
X150610844Y-66358466D01*
X150611417Y-66358280D01*
X150603836Y-66334947D01*
X150593321Y-66287020D01*
X150587553Y-66238292D01*
X150586590Y-66189234D01*
X150590439Y-66140317D01*
X150599066Y-66092014D01*
X150612384Y-66044788D01*
X150630268Y-65999096D01*
X150652545Y-65955376D01*
X150678998Y-65914050D01*
X150709376Y-65875517D01*
X150743384Y-65840146D01*
X150780695Y-65808279D01*
X150820951Y-65780223D01*
X150863762Y-65756248D01*
X150908717Y-65736584D01*
X150932050Y-65729002D01*
X150931864Y-65728430D01*
X151454945Y-65558470D01*
X151918471Y-66985055D01*
X151395390Y-67155014D01*
X151395204Y-67154442D01*
G37*
G36*
X152643766Y-65172199D02*
G01*
X153107291Y-66598784D01*
X152156234Y-66907801D01*
X151692709Y-65481216D01*
X152643766Y-65172199D01*
G37*
%TD*%
%TO.C,SW1*%
G36*
X155620295Y-68173402D02*
G01*
X156666458Y-67833484D01*
X157269041Y-69688044D01*
X156222878Y-70027962D01*
X155620295Y-68173402D01*
G37*
G36*
X153242654Y-68945944D02*
G01*
X154288817Y-68606026D01*
X154891400Y-70460586D01*
X153845237Y-70800504D01*
X153242654Y-68945944D01*
G37*
G36*
X150865013Y-69718487D02*
G01*
X151911176Y-69378569D01*
X152513759Y-71233129D01*
X151467596Y-71573047D01*
X150865013Y-69718487D01*
G37*
G36*
X157366241Y-73546871D02*
G01*
X158412404Y-73206953D01*
X159014987Y-75061513D01*
X157968824Y-75401431D01*
X157366241Y-73546871D01*
G37*
G36*
X154988600Y-74319414D02*
G01*
X156034763Y-73979496D01*
X156637346Y-75834056D01*
X155591183Y-76173974D01*
X154988600Y-74319414D01*
G37*
G36*
X152610959Y-75091956D02*
G01*
X153657122Y-74752038D01*
X154259705Y-76606598D01*
X153213542Y-76946516D01*
X152610959Y-75091956D01*
G37*
%TD*%
M02*
