<?xml version="1.0" standalone="no"?>
 <!DOCTYPE svg PUBLIC "-//W3C//DTD SVG 1.1//EN" 
 "http://www.w3.org/Graphics/SVG/1.1/DTD/svg11.dtd"> 
<svg
  xmlns:svg="http://www.w3.org/2000/svg"
  xmlns="http://www.w3.org/2000/svg"
  xmlns:xlink="http://www.w3.org/1999/xlink"
  version="1.1"
  width="5.298440cm" height="4.742180cm" viewBox="0 0 20860 18670">
<title>SVG Picture created as penroserombus_thick_40mm-F_Cu.svg date 2020/12/21 13:54:12 </title>
  <desc>Picture generated by PCBNEW </desc>
<g style="fill:#000000; fill-opacity:1;stroke:#000000; stroke-opacity:1;
stroke-linecap:round; stroke-linejoin:round;"
 transform="translate(0 0) scale(1 1)">
</g>
<g style="fill:#000000; fill-opacity:0.0; 
stroke:#000000; stroke-width:-0.000393701; stroke-opacity:1; 
stroke-linecap:round; stroke-linejoin:round;">
<g >
</g>
<g style="fill:#840000; fill-opacity:0.0; 
stroke:#840000; stroke-width:-0.000393701; stroke-opacity:1; 
stroke-linecap:round; stroke-linejoin:round;">
</g>
<g style="fill:#840000; fill-opacity:0.0; 
stroke:#840000; stroke-width:0; stroke-opacity:1; 
stroke-linecap:round; stroke-linejoin:round;">
</g>
<g style="fill:#840000; fill-opacity:1.0; 
stroke:#840000; stroke-width:0; stroke-opacity:1; 
stroke-linecap:round; stroke-linejoin:round;">
<path style="fill:#840000; fill-opacity:1.0; 
stroke:#840000; stroke-width:0; stroke-opacity:1; 
stroke-linecap:round; stroke-linejoin:round;fill-rule:evenodd;"
d="M 11373.7,7649.78
11023.3,7904.33
10572.1,7283.23
10922.4,7028.68
Z" /> 
<path style="fill:#840000; fill-opacity:1.0; 
stroke:#840000; stroke-width:0; stroke-opacity:1; 
stroke-linecap:round; stroke-linejoin:round;fill-rule:evenodd;"
d="M 10577.4,8228.3
10227,8482.86
9775.79,7861.76
10126.1,7607.21
Z" /> 
<path style="fill:#840000; fill-opacity:1.0; 
stroke:#840000; stroke-width:0; stroke-opacity:1; 
stroke-linecap:round; stroke-linejoin:round;fill-rule:evenodd;"
d="M 9781.12,8806.83
9430.76,9061.39
8979.51,8440.29
9329.87,8185.74
Z" /> 
<path style="fill:#840000; fill-opacity:1.0; 
stroke:#840000; stroke-width:0; stroke-opacity:1; 
stroke-linecap:round; stroke-linejoin:round;fill-rule:evenodd;"
d="M 12681.2,9449.36
12330.8,9703.91
11879.5,9082.82
12229.9,8828.27
Z" /> 
<path style="fill:#840000; fill-opacity:1.0; 
stroke:#840000; stroke-width:0; stroke-opacity:1; 
stroke-linecap:round; stroke-linejoin:round;fill-rule:evenodd;"
d="M 11884.9,10027.9
11534.5,10282.4
11083.3,9661.35
11433.6,9406.79
Z" /> 
<path style="fill:#840000; fill-opacity:1.0; 
stroke:#840000; stroke-width:0; stroke-opacity:1; 
stroke-linecap:round; stroke-linejoin:round;fill-rule:evenodd;"
d="M 11088.6,10606.4
10738.2,10861
10287,10239.9
10637.3,9985.32
Z" /> 
</g>
<g >
</g>
<g style="fill:#840000; fill-opacity:1.0; 
stroke:#840000; stroke-width:0; stroke-opacity:1; 
stroke-linecap:round; stroke-linejoin:round;">
<path style="fill:#840000; fill-opacity:1.0; 
stroke:#840000; stroke-width:0; stroke-opacity:1; 
stroke-linecap:round; stroke-linejoin:round;fill-rule:evenodd;"
d="M 15949.4,5659.61
15959,5660.65
15968.5,5662.63
15977.7,5665.52
15986.6,5669.3
15995,5673.94
16003,5679.39
16010.4,5685.59
16017.2,5692.48
16023.2,5700.01
16179.4,5915
16184.7,5923.09
16189.2,5931.65
16192.8,5940.61
16195.5,5949.88
16197.3,5959.37
16198.2,5968.99
16198.1,5978.65
16197,5988.25
16195.1,5997.71
16192.2,6006.92
16188.4,6015.81
16183.7,6024.28
16178.3,6032.26
16172.1,6039.67
16165.2,6046.43
16157.7,6052.48
15855.1,6272.33
15847,6277.61
15838.4,6282.08
15829.5,6285.69
15820.2,6288.4
15810.7,6290.19
15801.1,6291.05
15791.4,6290.95
15781.8,6289.91
15772.4,6287.93
15763.2,6285.04
15754.3,6281.26
15745.8,6276.62
15737.8,6271.17
15730.4,6264.97
15723.7,6258.08
15717.6,6250.55
15561.4,6035.56
15556.1,6027.47
15551.6,6018.91
15548,6009.95
15545.3,6000.68
15543.5,5991.19
15542.7,5981.57
15542.8,5971.91
15543.8,5962.31
15545.8,5952.85
15548.7,5943.64
15552.5,5934.75
15557.1,5926.28
15562.5,5918.3
15568.8,5910.89
15575.6,5904.13
15583.2,5898.08
15885.8,5678.24
15893.8,5672.95
15902.4,5668.48
15911.4,5664.87
15920.6,5662.16
15930.1,5660.37
15939.7,5659.51
Z" /> 
<path style="fill:#840000; fill-opacity:1.0; 
stroke:#840000; stroke-width:0; stroke-opacity:1; 
stroke-linecap:round; stroke-linejoin:round;fill-rule:evenodd;"
d="M 15469.2,4998.7
15478.8,4999.74
15488.3,5001.72
15497.5,5004.61
15506.4,5008.4
15514.9,5013.03
15522.8,5018.48
15530.2,5024.68
15537,5031.57
15543.1,5039.1
15699.3,5254.09
15704.6,5262.18
15709,5270.74
15712.6,5279.7
15715.3,5288.97
15717.1,5298.46
15718,5308.08
15717.9,5317.74
15716.8,5327.34
15714.9,5336.8
15712,5346.01
15708.2,5354.9
15703.6,5363.37
15698.1,5371.35
15691.9,5378.76
15685,5385.52
15677.5,5391.58
15374.9,5611.42
15366.8,5616.7
15358.3,5621.17
15349.3,5624.78
15340,5627.49
15330.5,5629.29
15320.9,5630.14
15311.3,5630.04
15301.7,5629
15292.2,5627.02
15283,5624.13
15274.1,5620.35
15265.6,5615.71
15257.6,5610.26
15250.2,5604.06
15243.5,5597.17
15237.4,5589.64
15081.2,5374.65
15075.9,5366.56
15071.5,5358
15067.9,5349.04
15065.1,5339.77
15063.4,5330.28
15062.5,5320.66
15062.6,5311
15063.6,5301.4
15065.6,5291.94
15068.5,5282.73
15072.3,5273.84
15076.9,5265.37
15082.4,5257.39
15088.6,5249.98
15095.5,5243.22
15103,5237.17
15405.6,5017.33
15413.7,5012.04
15422.2,5007.57
15431.2,5003.96
15440.5,5001.25
15449.9,4999.46
15459.6,4998.6
Z" /> 
</g>
<g >
</g>
<g style="fill:#840000; fill-opacity:1.0; 
stroke:#840000; stroke-width:0; stroke-opacity:1; 
stroke-linecap:round; stroke-linejoin:round;">
<path style="fill:#840000; fill-opacity:1.0; 
stroke:#840000; stroke-width:0; stroke-opacity:1; 
stroke-linecap:round; stroke-linejoin:round;fill-rule:evenodd;"
d="M 8103.25,12657.3
8112.85,12658.3
8122.3,12660.3
8131.52,12663.2
8140.41,12667
8148.88,12671.6
8156.86,12677
8164.26,12683.2
8171.03,12690.1
8177.08,12697.7
8396.92,13000.3
8402.21,13008.3
8406.68,13016.9
8410.29,13025.9
8413,13035.1
8414.79,13044.6
8415.64,13054.2
8415.55,13063.9
8414.51,13073.5
8412.53,13083
8409.64,13092.2
8405.85,13101.1
8401.22,13109.5
8395.77,13117.5
8389.57,13124.9
8382.67,13131.7
8375.15,13137.7
8160.15,13293.9
8152.07,13299.2
8143.51,13303.7
8134.55,13307.3
8125.28,13310
8115.79,13311.8
8106.16,13312.7
8096.51,13312.6
8086.9,13311.5
8077.45,13309.5
8068.23,13306.7
8059.35,13302.9
8050.87,13298.2
8042.89,13292.8
8035.49,13286.6
8028.73,13279.7
8022.67,13272.2
7802.83,12969.6
7797.54,12961.5
7793.07,12952.9
7789.47,12944
7786.75,12934.7
7784.96,12925.2
7784.11,12915.6
7784.2,12905.9
7785.25,12896.3
7787.22,12886.9
7790.12,12877.7
7793.9,12868.8
7798.54,12860.3
7803.98,12852.3
7810.18,12844.9
7817.08,12838.1
7824.61,12832.1
8039.6,12675.9
8047.68,12670.6
8056.25,12666.1
8065.21,12662.5
8074.48,12659.8
8083.97,12658
8093.59,12657.2
Z" /> 
<path style="fill:#840000; fill-opacity:1.0; 
stroke:#840000; stroke-width:0; stroke-opacity:1; 
stroke-linecap:round; stroke-linejoin:round;fill-rule:evenodd;"
d="M 8764.16,12177.1
8773.76,12178.1
8783.21,12180.1
8792.43,12183
8801.32,12186.8
8809.79,12191.4
8817.77,12196.9
8825.17,12203.1
8831.94,12210
8837.99,12217.5
9057.83,12520.1
9063.12,12528.2
9067.59,12536.7
9071.2,12545.7
9073.91,12555
9075.7,12564.4
9076.55,12574.1
9076.46,12583.7
9075.42,12593.3
9073.44,12602.8
9070.55,12612
9066.76,12620.9
9062.12,12629.4
9056.68,12637.3
9050.48,12644.7
9043.58,12651.5
9036.06,12657.6
8821.06,12813.8
8812.98,12819
8804.42,12823.5
8795.46,12827.1
8786.19,12829.8
8776.69,12831.6
8767.07,12832.5
8757.41,12832.4
8747.81,12831.3
8738.36,12829.4
8729.14,12826.5
8720.26,12822.7
8711.78,12818.1
8703.8,12812.6
8696.4,12806.4
8689.64,12799.5
8683.58,12792
8463.74,12489.4
8458.45,12481.3
8453.98,12472.8
8450.38,12463.8
8447.66,12454.5
8445.87,12445
8445.02,12435.4
8445.11,12425.8
8446.15,12416.1
8448.13,12406.7
8451.03,12397.5
8454.81,12388.6
8459.45,12380.1
8464.89,12372.1
8471.09,12364.7
8477.99,12358
8485.52,12351.9
8700.51,12195.7
8708.59,12190.4
8717.16,12186
8726.12,12182.3
8735.39,12179.6
8744.88,12177.8
8754.5,12177
Z" /> 
</g>
<g >
</g>
<g style="fill:#840000; fill-opacity:1.0; 
stroke:#840000; stroke-width:0; stroke-opacity:1; 
stroke-linecap:round; stroke-linejoin:round;">
<path style="fill:#840000; fill-opacity:1.0; 
stroke:#840000; stroke-width:0; stroke-opacity:1; 
stroke-linecap:round; stroke-linejoin:round;fill-rule:evenodd;"
d="M 14980.1,6928.47
14748.7,6609.96
15226.5,6262.84
15457.9,6581.35
Z" /> 
<path style="fill:#840000; fill-opacity:1.0; 
stroke:#840000; stroke-width:0; stroke-opacity:1; 
stroke-linecap:round; stroke-linejoin:round;fill-rule:evenodd;"
d="M 14239.6,5909.24
14008.2,5590.72
14485.9,5243.61
14717.4,5562.12
Z" /> 
<path style="fill:#840000; fill-opacity:1.0; 
stroke:#840000; stroke-width:0; stroke-opacity:1; 
stroke-linecap:round; stroke-linejoin:round;fill-rule:evenodd;"
d="M 13419.4,8062.39
13188,7743.87
13665.8,7396.76
13897.2,7715.27
Z" /> 
<path style="fill:#840000; fill-opacity:1.0; 
stroke:#840000; stroke-width:0; stroke-opacity:1; 
stroke-linecap:round; stroke-linejoin:round;fill-rule:evenodd;"
d="M 12678.9,7043.15
12447.5,6724.64
12925.2,6377.52
13156.6,6696.03
Z" /> 
</g>
<g >
</g>
<g style="fill:#840000; fill-opacity:1.0; 
stroke:#840000; stroke-width:0; stroke-opacity:1; 
stroke-linecap:round; stroke-linejoin:round;">
<path style="fill:#840000; fill-opacity:1.0; 
stroke:#840000; stroke-width:0; stroke-opacity:1; 
stroke-linecap:round; stroke-linejoin:round;fill-rule:evenodd;"
d="M 5807.4,12035.6
5575.99,11717.1
6053.76,11369.9
6285.17,11688.5
Z" /> 
<path style="fill:#840000; fill-opacity:1.0; 
stroke:#840000; stroke-width:0; stroke-opacity:1; 
stroke-linecap:round; stroke-linejoin:round;fill-rule:evenodd;"
d="M 6547.92,13054.8
6316.51,12736.3
6794.27,12389.2
7025.69,12707.7
Z" /> 
<path style="fill:#840000; fill-opacity:1.0; 
stroke:#840000; stroke-width:0; stroke-opacity:1; 
stroke-linecap:round; stroke-linejoin:round;fill-rule:evenodd;"
d="M 7368.1,10901.7
7136.69,10583.1
7614.46,10236
7845.87,10554.5
Z" /> 
<path style="fill:#840000; fill-opacity:1.0; 
stroke:#840000; stroke-width:0; stroke-opacity:1; 
stroke-linecap:round; stroke-linejoin:round;fill-rule:evenodd;"
d="M 8108.62,11920.9
7877.21,11602.4
8354.98,11255.3
8586.39,11573.8
Z" /> 
</g>
<g >
</g>
<g style="fill:#848400; fill-opacity:1.0; 
stroke:#848400; stroke-width:0; stroke-opacity:1; 
stroke-linecap:round; stroke-linejoin:round;">
<circle cx="16836.8" cy="10747.2" r="334.646" /> 
<circle cx="17145.8" cy="9796.11" r="334.646" /> 
<path style="fill:#848400; fill-opacity:1.0; 
stroke:#848400; stroke-width:0; stroke-opacity:1; 
stroke-linecap:round; stroke-linejoin:round;fill-rule:evenodd;"
d="M 17033.2,9059.91
17240,8423.38
17876.5,8630.2
17669.7,9266.73
Z" /> 
</g>
<g >
</g>
<g style="fill:#848400; fill-opacity:1.0; 
stroke:#848400; stroke-width:0; stroke-opacity:1; 
stroke-linecap:round; stroke-linejoin:round;">
<path style="fill:#848400; fill-opacity:1.0; 
stroke:#848400; stroke-width:0; stroke-opacity:1; 
stroke-linecap:round; stroke-linejoin:round;fill-rule:evenodd;"
d="M 7749.08,15318.9
8418.37,15318.9
8418.37,15988.2
7749.08,15988.2
Z" /> 
<circle cx="7083.72" cy="15653.6" r="334.646" /> 
<circle cx="6083.72" cy="15653.6" r="334.646" /> 
</g>
<g >
</g>
<g style="fill:#848400; fill-opacity:1.0; 
stroke:#848400; stroke-width:0; stroke-opacity:1; 
stroke-linecap:round; stroke-linejoin:round;">
<path style="fill:#848400; fill-opacity:1.0; 
stroke:#848400; stroke-width:0; stroke-opacity:1; 
stroke-linecap:round; stroke-linejoin:round;fill-rule:evenodd;"
d="M 12615.5,2310.18
13284.8,2310.18
13284.8,2979.47
12615.5,2979.47
Z" /> 
<circle cx="11950.1" cy="2644.83" r="334.646" /> 
<circle cx="10950.1" cy="2644.83" r="334.646" /> 
</g>
<g >
</g>
<g style="fill:#848400; fill-opacity:1.0; 
stroke:#848400; stroke-width:0; stroke-opacity:1; 
stroke-linecap:round; stroke-linejoin:round;">
<circle cx="2960.96" cy="11355.5" r="334.646" /> 
<circle cx="3269.98" cy="10404.4" r="334.646" /> 
<path style="fill:#848400; fill-opacity:1.0; 
stroke:#848400; stroke-width:0; stroke-opacity:1; 
stroke-linecap:round; stroke-linejoin:round;fill-rule:evenodd;"
d="M 3157.31,9668.21
3364.14,9031.68
4000.67,9238.5
3793.85,9875.04
Z" /> 
</g>
<g >
</g>
<g style="fill:#840000; fill-opacity:1.0; 
stroke:#840000; stroke-width:0; stroke-opacity:1; 
stroke-linecap:round; stroke-linejoin:round;">
<path style="fill:#840000; fill-opacity:1.0; 
stroke:#840000; stroke-width:0; stroke-opacity:1; 
stroke-linecap:round; stroke-linejoin:round;fill-rule:evenodd;"
d="M 9230.57,7100.25
8883.45,6622.48
9201.96,6391.07
9549.08,6868.84
Z" /> 
<path style="fill:#840000; fill-opacity:1.0; 
stroke:#840000; stroke-width:0; stroke-opacity:1; 
stroke-linecap:round; stroke-linejoin:round;fill-rule:evenodd;"
d="M 9456.91,6206.13
9464.73,6200.46
9481.39,6190.69
9498.94,6182.6
9517.19,6176.27
9535.97,6171.76
9555.11,6169.12
9574.41,6168.36
9593.69,6169.49
9612.78,6172.52
9631.47,6177.39
9649.59,6184.08
9666.97,6192.51
9683.44,6202.6
9698.85,6214.26
9713.03,6227.38
9725.86,6241.82
9731.54,6249.63
9731.73,6249.49
9847.44,6408.75
9847.25,6408.89
9852.93,6416.7
9862.69,6433.37
9870.78,6450.91
9877.11,6469.16
9881.62,6487.95
9884.27,6507.08
9885.03,6526.39
9883.89,6545.67
9880.87,6564.75
9875.99,6583.44
9869.3,6601.57
9860.87,6618.95
9850.78,6635.42
9839.12,6650.82
9826,6665.01
9811.56,6677.84
9803.75,6683.52
9803.89,6683.71
9628.71,6810.99
9281.59,6333.22
9456.77,6205.94
Z" /> 
<path style="fill:#840000; fill-opacity:1.0; 
stroke:#840000; stroke-width:0; stroke-opacity:1; 
stroke-linecap:round; stroke-linejoin:round;fill-rule:evenodd;"
d="M 9150.94,7158.1
8975.76,7285.38
8975.62,7285.19
8967.81,7290.86
8951.14,7300.63
8933.6,7308.72
8915.35,7315.05
8896.56,7319.56
8877.43,7322.21
8858.12,7322.96
8838.84,7321.83
8819.76,7318.8
8801.07,7313.93
8782.94,7307.24
8765.56,7298.81
8749.09,7288.72
8733.69,7277.06
8719.5,7263.94
8706.67,7249.5
8700.99,7241.69
8700.8,7241.83
8585.1,7082.57
8585.29,7082.43
8579.61,7074.62
8569.84,7057.95
8561.75,7040.41
8555.42,7022.16
8550.91,7003.37
8548.27,6984.24
8547.51,6964.94
8548.65,6945.65
8551.67,6926.57
8556.55,6907.88
8563.23,6889.75
8571.66,6872.37
8581.76,6855.9
8593.42,6840.5
8606.53,6826.31
8620.97,6813.48
8628.78,6807.8
8628.64,6807.61
8803.83,6680.34
Z" /> 
</g>
<g >
</g>
<g style="fill:#840000; fill-opacity:1.0; 
stroke:#840000; stroke-width:0; stroke-opacity:1; 
stroke-linecap:round; stroke-linejoin:round;">
<path style="fill:#840000; fill-opacity:1.0; 
stroke:#840000; stroke-width:0; stroke-opacity:1; 
stroke-linecap:round; stroke-linejoin:round;fill-rule:evenodd;"
d="M 12165,11657.3
11989.8,11784.5
11989.7,11784.4
11981.9,11790
11965.2,11799.8
11947.7,11807.9
11929.4,11814.2
11910.6,11818.7
11891.5,11821.4
11872.2,11822.1
11852.9,11821
11833.8,11818
11815.1,11813.1
11797,11806.4
11779.6,11798
11763.2,11787.9
11747.8,11776.2
11733.6,11763.1
11720.7,11748.7
11715.1,11740.9
11714.9,11741
11599.2,11581.7
11599.4,11581.6
11593.7,11573.8
11583.9,11557.1
11575.8,11539.6
11569.5,11521.3
11565,11502.5
11562.3,11483.4
11561.6,11464.1
11562.7,11444.8
11565.7,11425.7
11570.6,11407
11577.3,11388.9
11585.7,11371.5
11595.8,11355.1
11607.5,11339.7
11620.6,11325.5
11635,11312.6
11642.8,11307
11642.7,11306.8
11817.9,11179.5
Z" /> 
<path style="fill:#840000; fill-opacity:1.0; 
stroke:#840000; stroke-width:0; stroke-opacity:1; 
stroke-linecap:round; stroke-linejoin:round;fill-rule:evenodd;"
d="M 12471,10705.3
12478.8,10699.6
12495.5,10689.9
12513,10681.8
12531.3,10675.4
12550,10670.9
12569.2,10668.3
12588.5,10667.5
12607.8,10668.7
12626.8,10671.7
12645.5,10676.6
12663.7,10683.2
12681,10691.7
12697.5,10701.8
12712.9,10713.4
12727.1,10726.5
12739.9,10741
12745.6,10748.8
12745.8,10748.7
12861.5,10907.9
12861.3,10908.1
12867,10915.9
12876.8,10932.5
12884.8,10950.1
12891.2,10968.3
12895.7,10987.1
12898.3,11006.2
12899.1,11025.6
12898,11044.8
12894.9,11063.9
12890.1,11082.6
12883.4,11100.7
12874.9,11118.1
12864.8,11134.6
12853.2,11150
12840.1,11164.2
12825.6,11177
12817.8,11182.7
12818,11182.9
12642.8,11310.1
12295.7,10832.4
12470.8,10705.1
Z" /> 
<path style="fill:#840000; fill-opacity:1.0; 
stroke:#840000; stroke-width:0; stroke-opacity:1; 
stroke-linecap:round; stroke-linejoin:round;fill-rule:evenodd;"
d="M 12244.6,11599.4
11897.5,11121.6
12216,10890.2
12563.1,11368
Z" /> 
</g>
<g >
</g>
<g style="fill:#C2C2C2; fill-opacity:1.0; 
stroke:#C2C2C2; stroke-width:0; stroke-opacity:1; 
stroke-linecap:round; stroke-linejoin:round;">
<circle cx="12330.3" cy="7044.83" r="157.48" /> 
</g>
<g style="fill:#C2C2C2; fill-opacity:1.0; 
stroke:#C2C2C2; stroke-width:39.3701; stroke-opacity:1; 
stroke-linecap:round; stroke-linejoin:round;">
</g>
<g style="fill:#C2C2C2; fill-opacity:1.0; 
stroke:#C2C2C2; stroke-width:0; stroke-opacity:1; 
stroke-linecap:round; stroke-linejoin:round;">
<circle cx="15030.3" cy="4944.83" r="157.48" /> 
</g>
<g style="fill:#C2C2C2; fill-opacity:1.0; 
stroke:#C2C2C2; stroke-width:39.3701; stroke-opacity:1; 
stroke-linecap:round; stroke-linejoin:round;">
</g>
<g style="fill:#C2C2C2; fill-opacity:1.0; 
stroke:#C2C2C2; stroke-width:0; stroke-opacity:1; 
stroke-linecap:round; stroke-linejoin:round;">
<circle cx="7330.33" cy="9244.83" r="157.48" /> 
</g>
<g style="fill:#C2C2C2; fill-opacity:1.0; 
stroke:#C2C2C2; stroke-width:39.3701; stroke-opacity:1; 
stroke-linecap:round; stroke-linejoin:round;">
</g>
<g style="fill:#C2C2C2; fill-opacity:1.0; 
stroke:#C2C2C2; stroke-width:0; stroke-opacity:1; 
stroke-linecap:round; stroke-linejoin:round;">
<circle cx="8830.33" cy="10744.8" r="157.48" /> 
</g>
<g style="fill:#C2C2C2; fill-opacity:1.0; 
stroke:#C2C2C2; stroke-width:39.3701; stroke-opacity:1; 
stroke-linecap:round; stroke-linejoin:round;">
</g>
<g style="fill:#C2C2C2; fill-opacity:1.0; 
stroke:#C2C2C2; stroke-width:0; stroke-opacity:1; 
stroke-linecap:round; stroke-linejoin:round;">
<circle cx="6280.33" cy="12144.8" r="157.48" /> 
</g>
<g style="fill:#C2C2C2; fill-opacity:1.0; 
stroke:#C2C2C2; stroke-width:39.3701; stroke-opacity:1; 
stroke-linecap:round; stroke-linejoin:round;">
</g>
<g style="fill:#C2C2C2; fill-opacity:1.0; 
stroke:#C2C2C2; stroke-width:0; stroke-opacity:1; 
stroke-linecap:round; stroke-linejoin:round;">
<circle cx="10830.3" cy="5444.83" r="157.48" /> 
</g>
<g style="fill:#C2C2C2; fill-opacity:1.0; 
stroke:#C2C2C2; stroke-width:39.3701; stroke-opacity:1; 
stroke-linecap:round; stroke-linejoin:round;">
</g>
<g style="fill:#C2C2C2; fill-opacity:1.0; 
stroke:#C2C2C2; stroke-width:0; stroke-opacity:1; 
stroke-linecap:round; stroke-linejoin:round;">
<circle cx="10830.3" cy="8644.83" r="157.48" /> 
</g>
<g style="fill:#C2C2C2; fill-opacity:1.0; 
stroke:#C2C2C2; stroke-width:39.3701; stroke-opacity:1; 
stroke-linecap:round; stroke-linejoin:round;">
</g>
<g style="fill:#C2C2C2; fill-opacity:1.0; 
stroke:#C2C2C2; stroke-width:0; stroke-opacity:1; 
stroke-linecap:round; stroke-linejoin:round;">
<circle cx="10830.3" cy="9244.83" r="157.48" /> 
</g>
<g style="fill:#C2C2C2; fill-opacity:1.0; 
stroke:#C2C2C2; stroke-width:39.3701; stroke-opacity:1; 
stroke-linecap:round; stroke-linejoin:round;">
</g>
<g style="fill:#C2C2C2; fill-opacity:1.0; 
stroke:#C2C2C2; stroke-width:0; stroke-opacity:1; 
stroke-linecap:round; stroke-linejoin:round;">
<circle cx="11230.3" cy="3744.83" r="157.48" /> 
</g>
<g style="fill:#C2C2C2; fill-opacity:1.0; 
stroke:#C2C2C2; stroke-width:39.3701; stroke-opacity:1; 
stroke-linecap:round; stroke-linejoin:round;">
</g>
<g style="fill:#C2C2C2; fill-opacity:1.0; 
stroke:#C2C2C2; stroke-width:0; stroke-opacity:1; 
stroke-linecap:round; stroke-linejoin:round;">
<circle cx="15120.9" cy="10735.4" r="157.48" /> 
</g>
<g style="fill:#C2C2C2; fill-opacity:1.0; 
stroke:#C2C2C2; stroke-width:39.3701; stroke-opacity:1; 
stroke-linecap:round; stroke-linejoin:round;">
</g>
<g style="fill:#C2C2C2; fill-opacity:1.0; 
stroke:#C2C2C2; stroke-width:0; stroke-opacity:1; 
stroke-linecap:round; stroke-linejoin:round;">
<circle cx="5330.33" cy="10444.8" r="157.48" /> 
</g>
<g style="fill:#C2C2C2; fill-opacity:1.0; 
stroke:#C2C2C2; stroke-width:39.3701; stroke-opacity:1; 
stroke-linecap:round; stroke-linejoin:round;">
</g>
<g style="fill:#C2C2C2; fill-opacity:1.0; 
stroke:#C2C2C2; stroke-width:0; stroke-opacity:1; 
stroke-linecap:round; stroke-linejoin:round;">
<circle cx="5301.95" cy="12521.9" r="157.48" /> 
</g>
<g style="fill:#C2C2C2; fill-opacity:1.0; 
stroke:#C2C2C2; stroke-width:39.3701; stroke-opacity:1; 
stroke-linecap:round; stroke-linejoin:round;">
</g>
<g >
</g>
<g style="fill:#840000; fill-opacity:1.0; 
stroke:#840000; stroke-width:39.3701; stroke-opacity:1; 
stroke-linecap:round; stroke-linejoin:round;">
</g>
<g style="fill:#840000; fill-opacity:1.0; 
stroke:#840000; stroke-width:393.701; stroke-opacity:1; 
stroke-linecap:round; stroke-linejoin:round;">
</g>
<g style="fill:#840000; fill-opacity:0.0; 
stroke:#840000; stroke-width:393.701; stroke-opacity:1; 
stroke-linecap:round; stroke-linejoin:round;">
<path d="M8760 12504
L8231 11588
" />
<path d="M15870 5975
L15103 6595
" />
<path d="M16074 4689
L14640 3255
" />
<path d="M16074 5770
L16074 4689
" />
<path d="M15870 5975
L16074 5770
" />
<path d="M7083 15488
L7083 15653
" />
<path d="M8760 13811
L7083 15488
" />
<path d="M8760 12504
L8760 13811
" />
<path d="M3269 10404
L8231 11588
" />
<path d="M17145 9796
L15103 6595
" />
<path d="M11813 3255
L11740 3255
" />
<path d="M11950 3118
L11813 3255
" />
<path d="M12087 3255
L12740 3255
" />
<path d="M11950 3118
L12087 3255
" />
<path d="M11950 2644
L11950 3118
" />
<path d="M12740 3255
L11740 3255
" />
<path d="M14640 3255
L12740 3255
" />
<path d="M16672 9796
L12657 13811
" />
<path d="M12657 13811
L8760 13811
" />
<path d="M17145 9796
L16672 9796
" />
<path d="M3818 10404
L3269 10404
" />
<path d="M10967 3255
L3818 10404
" />
<path d="M11740 3255
L10967 3255
" />
<path d="M15030 4954
L15390 5314
" />
</g>
<g style="fill:#840000; fill-opacity:0.0; 
stroke:#840000; stroke-width:98.4252; stroke-opacity:1; 
stroke-linecap:round; stroke-linejoin:round;">
<path d="M15030 4944
L15030 4954
" />
<path d="M12330 7044
L12330 6944
" />
<path d="M12564 6710
L12802 6710
" />
<path d="M12330 6944
L12564 6710
" />
<path d="M5930 11702
L5288 11702
" />
<path d="M11816 11545
L10687 10423
" />
<path d="M10972 7466
L9630 6444
" />
<path d="M10972 7466
L10830 8644
" />
<path d="M10830 9244
L10687 10423
" />
<path d="M12862 5576
L10972 7466
" />
<path d="M14362 5576
L12862 5576
" />
<path d="M13542 7635
L13542 7729
" />
<path d="M14845 6332
L13542 7635
" />
<path d="M12601 5115
L14538 5115
" />
<path d="M14845 5422
L14845 6332
" />
<path d="M14538 5115
L14845 5422
" />
<path d="M11230 3744
L12601 5115
" />
<path d="M2960 11355
L6671 12721
" />
<path d="M12644 10943
L12280 9266
" />
<path d="M9380 8623
L8802 7046
" />
<path d="M9380 8623
L7491 10568
" />
<path d="M12280 9266
L9380 8623
" />
<path d="M12230 11244
L11484 9844
" />
<path d="M12935 11949
L12230 11244
" />
<path d="M13906 11949
L12935 11949
" />
<path d="M15120 10735
L13906 11949
" />
<path d="M10176 8045
L9216 6745
" />
<path d="M10176 8045
L10176 8198
" />
<path d="M6403 15472
L6403 15653
" />
<path d="M6403 15448
L6403 15653
" />
<path d="M6305 15653
L6083 15653
" />
<path d="M8718 6534
L6649 8603
" />
<path d="M9004 6534
L8718 6534
" />
<path d="M9216 6745
L9004 6534
" />
<path d="M6083 13991
L6083 15653
" />
<path d="M6649 8603
L5330 9922
" />
<path d="M5330 9922
L5330 10444
" />
<path d="M6083 13303
L6083 15653
" />
<path d="M5301 12521
L6083 13303
" />
</g>
<g >
</g>
<g style="fill:#840000; fill-opacity:0.0; 
stroke:#840000; stroke-width:98.4252; stroke-opacity:1; 
stroke-linecap:round; stroke-linejoin:round;">
<g >
</g>
<g style="fill:#840000; fill-opacity:1.0; 
stroke:#840000; stroke-width:100; stroke-opacity:1; 
stroke-linecap:round; stroke-linejoin:round;">
<path style="fill:#840000; fill-opacity:1.0; 
stroke:#840000; stroke-width:100; stroke-opacity:1; 
stroke-linecap:round; stroke-linejoin:round;fill-rule:evenodd;"
d="M 15747.5,16348.5
607.993,16348.5
2249.03,11297.9
2376.31,11297.9
2376.31,11413.1
2398.78,11526
2442.85,11632.4
2506.84,11728.2
2588.27,11809.6
2684.03,11873.6
2790.42,11917.6
2903.38,11940.1
3018.54,11940.1
3131.49,11917.6
3237.89,11873.6
3331.71,11810.9
4914,12393.7
4910.13,12403
4894.47,12481.8
4894.47,12562
4910.13,12640.7
4940.84,12714.9
4985.44,12781.6
5042.19,12838.4
5108.93,12883
5183.09,12913.7
5261.81,12929.4
5286.28,12929.4
5784.51,13427.6
5784.51,15150.4
5711.04,15199.5
5629.6,15280.9
5565.62,15376.7
5521.55,15483.1
5499.08,15596
5499.08,15711.2
5521.55,15824.1
5565.62,15930.5
5629.6,16026.3
5711.04,16107.7
5806.79,16171.7
5913.19,16215.8
6026.14,16238.2
6141.31,16238.2
6254.26,16215.8
6360.66,16171.7
6456.41,16107.7
6537.85,16026.3
6583.72,15957.6
6629.6,16026.3
6711.04,16107.7
6806.79,16171.7
6913.19,16215.8
7026.14,16238.2
7141.31,16238.2
7254.26,16215.8
7360.66,16171.7
7456.41,16107.7
7508.33,16055.8
7516.99,16084.4
7540.21,16127.8
7571.45,16165.9
7609.51,16197.1
7652.95,16220.3
7700.07,16234.6
7749.08,16239.4
7971.22,16238.2
8033.72,16175.7
8033.72,15703.6
8133.72,15703.6
8133.72,16175.7
8196.22,16238.2
8418.37,16239.4
8467.38,16234.6
8514.5,16220.3
8557.94,16197.1
8596,16165.9
8627.24,16127.8
8650.46,16084.4
8664.75,16037.2
8669.58,15988.2
8668.37,15766.1
8605.87,15703.6
8133.72,15703.6
8033.72,15703.6
8025.85,15703.6
8025.85,15603.6
8033.72,15603.6
8033.72,15595.7
8133.72,15595.7
8133.72,15603.6
8605.87,15603.6
8668.37,15541.1
8669.58,15318.9
8664.75,15269.9
8650.46,15222.8
8627.24,15179.4
8596,15141.3
8557.94,15110.1
8514.5,15086.9
8467.38,15072.6
8418.37,15067.7
8196.22,15068.9
8133.73,15131.4
8133.73,15070.2
8945.88,14258
12635.6,14258
12657.5,14260.2
12679.5,14258
12679.5,14258
12745.1,14251.6
12829.4,14226
12907,14184.5
12975,14128.7
12989,14111.6
16259.4,10841.2
16274.7,10917.7
16318.7,11024.1
16382.7,11119.9
16464.1,11201.3
16559.9,11265.3
16666.3,11309.3
16779.2,11331.8
16894.4,11331.8
17007.4,11309.3
17113.8,11265.3
17209.5,11201.3
17291,11119.9
17354.9,11024.1
17399,10917.7
17421.5,10804.8
17421.5,10689.6
17399,10576.6
17354.9,10470.2
17291,10374.5
17281.7,10365.2
17316.4,10358.3
17422.8,10314.2
17518.5,10250.2
17600,10168.8
17664,10073
17708,9966.65
17730.5,9853.7
17730.5,9738.53
17708,9625.58
17664,9519.18
17662.3,9516.64
17689.4,9517.17
17737.9,9508.51
17783.8,9490.56
17825.2,9464.01
17860.7,9429.88
17888.9,9389.48
17908.6,9344.36
17976.1,9132.72
17936,9053.96
17487,8908.06
17484.5,8915.55
17389.4,8884.65
17391.9,8877.16
17384.4,8874.73
17404.4,8812.95
17517.9,8812.95
17966.9,8958.86
18045.7,8918.73
18115.5,8707.83
18126,8659.73
18127,8610.49
18118.3,8562.01
18100.4,8516.15
18073.8,8474.68
18039.7,8439.18
17999.3,8411.02
17954.2,8391.29
17742.5,8323.79
17663.8,8363.92
17517.9,8812.95
17404.4,8812.95
17415.3,8779.62
17422.8,8782.05
17568.7,8333.02
17528.5,8254.26
17317.6,8184.46
17269.5,8173.91
17220.3,8172.94
17171.8,8181.6
17126,8199.55
17084.5,8226.1
17049,8260.23
17020.8,8300.63
17001.1,8345.75
16933.6,8557.4
16973.7,8636.15
16925.7,8620.54
15694.8,6691.95
15901.5,6524.81
15943.6,6510.22
16002.7,6475.56
16305.3,6255.72
16356.6,6210.19
16397.9,6155.54
16427.8,6093.87
16445.1,6027.55
16445.4,6023.73
16448.1,6020.39
16489.6,5942.76
16515.2,5858.53
16521.6,5792.88
16521.6,5792.88
16523.8,5770.93
16521.6,5748.99
16521.6,4711.21
16523.8,4689.26
16521.6,4667.32
16521.6,4667.31
16515.2,4601.66
16489.6,4517.43
16448.1,4439.8
16392.3,4371.76
16375.2,4357.77
14972.1,2954.62
14958.1,2937.56
14890,2881.72
14812.4,2840.23
14728.2,2814.68
14662.5,2808.21
14662.5,2808.21
14640.6,2806.05
14618.6,2808.21
13535.1,2808.21
13534.8,2757.33
13472.3,2694.83
13000.1,2694.83
13000.1,2702.7
12900.1,2702.7
12900.1,2694.83
12892.3,2694.83
12892.3,2594.83
12900.1,2594.83
12900.1,2122.68
13000.1,2122.68
13000.1,2594.83
13472.3,2594.83
13534.8,2532.33
13536,2310.18
13531.2,2261.17
13516.9,2214.05
13493.7,2170.62
13462.4,2132.55
13424.3,2101.31
13380.9,2078.09
13333.8,2063.8
13284.8,2058.97
13062.6,2060.18
13000.1,2122.68
12900.1,2122.68
12837.6,2060.18
12615.5,2058.97
12566.5,2063.8
12519.4,2078.09
12475.9,2101.31
12437.9,2132.55
12406.6,2170.62
12383.4,2214.05
12374.7,2242.61
12322.8,2190.7
12227.1,2126.72
12120.7,2082.65
12007.7,2060.18
11892.6,2060.18
11779.6,2082.65
11673.2,2126.72
11577.4,2190.7
11496,2272.14
11450.1,2340.79
11404.3,2272.14
11322.8,2190.7
11227.1,2126.72
11120.7,2082.65
11007.7,2060.18
10892.6,2060.18
10779.6,2082.65
10673.2,2126.72
10577.4,2190.7
10496,2272.14
10432,2367.89
10388,2474.29
10365.5,2587.24
10365.5,2702.41
10388,2815.36
10432,2921.76
10496,3017.52
10534.7,3056.23
4222.15,9368.8
4239.59,9316.13
4250.14,9268.03
4251.11,9218.79
4242.45,9170.31
4224.5,9124.46
4197.95,9082.98
4163.82,9047.48
4123.42,9019.32
4078.3,8999.59
3866.65,8932.09
3787.9,8972.22
3642,9421.26
3649.49,9423.69
3618.58,9518.79
3611.09,9516.36
3608.66,9523.85
3513.56,9492.95
3515.99,9485.46
3066.95,9339.56
2988.2,9379.69
2918.4,9590.59
2907.85,9638.69
2906.88,9687.92
2915.54,9736.4
2933.49,9782.26
2960.04,9823.74
2994.17,9859.24
3018.11,9875.92
2993.04,9886.31
2897.29,9950.29
2815.85,10031.7
2751.87,10127.5
2707.8,10233.9
2685.33,10346.8
2685.33,10462
2707.8,10574.9
2751.87,10681.3
2815.85,10777.1
2825.14,10786.4
2790.42,10793.3
2684.03,10837.4
2588.27,10901.3
2506.84,10982.8
2442.85,11078.5
2398.78,11184.9
2376.31,11297.9
2249.03,11297.9
2941.82,9165.7
3057.73,9165.7
3097.85,9244.45
3546.89,9390.35
3692.79,8941.32
3652.66,8862.56
3441.76,8792.77
3393.66,8782.21
3344.43,8781.24
3295.95,8789.9
3250.09,8807.85
3208.61,8834.4
3173.12,8868.53
3144.96,8908.93
3125.22,8954.05
3057.73,9165.7
2941.82,9165.7
5286.36,1949.94
20425.9,1949.94
Z" /> 
<path style="fill:#840000; fill-opacity:1.0; 
stroke:#840000; stroke-width:100; stroke-opacity:1; 
stroke-linecap:round; stroke-linejoin:round;fill-rule:evenodd;"
d="M 5941.64,11632.9
5948.01,11628.3
6006.79,11709.2
6000.42,11713.8
6196.95,11984.3
6284.25,11998.1
6432.83,11891.7
6469.64,11859
6499.36,11819.7
6520.85,11775.4
6533.29,11727.8
6536.18,11678.6
6531.09,11641.8
7818.43,11948.9
7905.39,12068.5
7938.1,12105.4
7977.36,12135.1
8021.67,12156.6
8047.9,12163.4
8168.58,12372.5
8158.53,12369.9
8109.37,12367
8060.58,12373.8
8014.06,12389.9
7971.57,12414.8
7876.17,12485.6
7862.34,12572.9
8110.94,12915.1
8117.31,12910.4
8176.09,12991.3
8169.72,12996
8174.34,13002.3
8093.44,13061.1
8088.81,13054.8
7790.45,13271.5
7776.62,13358.8
7877.29,13499.4
7910,13536.3
7949.27,13566
7993.58,13587.5
8041.23,13599.9
8090.39,13602.8
8139.17,13596.1
8185.7,13579.9
8228.18,13555
8313.94,13491.4
8313.94,13626.1
6799.99,15140
6711.04,15199.5
6642.29,15268.2
6616.13,15236.3
6570.56,15198.9
6518.59,15171.1
6462.18,15154
6403.53,15148.3
6382.94,15150.3
6382.94,13318.4
6384.38,13303.7
6382.94,13289
6382.94,13289
6378.61,13245
6376.6,13238.4
6377.4,13239.3
6416.66,13269
6460.97,13290.5
6508.62,13302.9
6557.78,13305.8
6606.56,13299.1
6653.09,13282.9
6695.58,13258
7173.34,12910.9
7185.85,12899.8
7493.96,12899.8
7500.71,12948.6
7516.84,12995.1
7541.75,13037.6
7644.37,13176.8
7731.67,13190.6
8030.04,12973.9
7781.44,12631.7
7694.14,12617.9
7597.32,12686.7
7560.51,12719.4
7530.79,12758.7
7509.3,12803
7496.86,12850.7
7493.96,12899.8
7185.85,12899.8
7210.15,12878.2
7239.88,12838.9
7261.37,12794.6
7273.8,12747
7276.7,12697.8
7269.95,12649
7253.82,12602.5
7228.92,12560
6997.51,12241.5
6964.8,12204.7
6925.53,12175
6881.22,12153.5
6833.57,12141.1
6784.41,12138.2
6735.63,12144.9
6689.1,12161
6646.62,12185.9
6456.49,12324.1
6045.02,12172.5
6102.22,12130.4
6116.04,12043.1
5919.52,11772.6
5913.15,11777.2
5854.37,11696.3
5860.74,11691.7
5856.11,11685.3
5937.01,11626.5
Z" /> 
<path style="fill:#840000; fill-opacity:1.0; 
stroke:#840000; stroke-width:100; stroke-opacity:1; 
stroke-linecap:round; stroke-linejoin:round;fill-rule:evenodd;"
d="M 10431.2,9162.86
10422.9,9204.69
10422.9,9284.96
10438.5,9363.68
10469.2,9437.84
10500,9483.92
10461.5,9802.6
10139.3,10036.6
10102.5,10069.4
10072.8,10108.6
10051.3,10152.9
10038.9,10200.6
10036,10249.7
10042.7,10298.5
10058.9,10345
10083.8,10387.5
10535,11008.6
10567.7,11045.4
10607,11075.2
10651.3,11096.7
10698.9,11109.1
10748.1,11112
10796.9,11105.2
10843.4,11089.1
10885.9,11064.2
10898.7,11054.9
11310.9,11465
11312.4,11502.9
11319.2,11551.6
11328.2,11589.2
11344.3,11635.7
11360.5,11670.7
11385.4,11713.2
11391,11721
11395.9,11729.4
11511.6,11888.7
11518,11895.9
11523.7,11903.7
11556.5,11940.5
11584.8,11966.7
11624.1,11996.4
11657,12016.6
11701.3,12038.1
11737.5,12051.4
11785.1,12063.9
11823.2,12069.9
11872.4,12072.8
11911,12071.3
11959.7,12064.6
11997.3,12055.5
12043.8,12039.4
12078.8,12023.3
12121.3,11998.4
12129.1,11992.7
12137.5,11987.8
12312.7,11860.5
12349.5,11827.8
12349.6,11827.6
12349.8,11827.5
12375.1,11812.7
12713.3,12150.9
12722.7,12162.4
12768.2,12199.7
12820.2,12227.5
12876.6,12244.6
12920.6,12249
12920.6,12249
12935.3,12250.4
12950,12249
13587.8,12249
12472.4,13364.3
9207.64,13364.3
9207.64,12839.5
9234.95,12815.3
9276.32,12760.6
9306.23,12698.9
9323.53,12632.6
9327.57,12564.2
9318.18,12496.3
9295.72,12431.5
9261.06,12372.4
9041.22,12069.8
8997.03,12020.1
8807.26,11691.3
8822.07,11660.7
8834.5,11613.1
8837.4,11563.9
8830.66,11515.1
8814.52,11468.6
8789.62,11426.1
8558.21,11107.6
8525.5,11070.8
8486.23,11041.1
8441.92,11019.6
8394.27,11007.1
8345.11,11004.2
8296.33,11011
8249.8,11027.1
8207.32,11052
8133.94,11105.3
7668.09,10994.2
7993.53,10757.8
8030.34,10725.1
8060.06,10685.8
8081.55,10641.5
8093.99,10593.8
8096.89,10544.7
8090.14,10495.9
8074,10449.4
8055.33,10417.5
9228.16,9209.75
9260.24,9245.85
9299.51,9275.58
9343.81,9297.07
9391.46,9309.5
9440.62,9312.4
9489.41,9305.65
9535.93,9289.52
9578.42,9264.62
9885.03,9041.85
Z" /> 
<path style="fill:#840000; fill-opacity:1.0; 
stroke:#840000; stroke-width:100; stroke-opacity:1; 
stroke-linecap:round; stroke-linejoin:round;fill-rule:evenodd;"
d="M 5569.84,11412.4
5428.33,11513.8
5391.52,11546.5
5361.8,11585.8
5340.31,11630.1
5327.87,11677.8
5324.98,11726.9
5331.72,11775.7
5347.86,11822.2
5372.76,11864.7
5423.32,11932.3
5510.62,11946.1
5483.56,11965.7
3535.74,11248.3
3523.14,11184.9
3479.07,11078.5
3415.08,10982.8
3405.8,10973.5
3440.51,10966.6
3535.66,10927.2
Z" /> 
<path style="fill:#840000; fill-opacity:1.0; 
stroke:#840000; stroke-width:100; stroke-opacity:1; 
stroke-linecap:round; stroke-linejoin:round;fill-rule:evenodd;"
d="M 14036.4,6056.89
14069.1,6093.7
14108.3,6123.43
14152.6,6144.92
14200.3,6157.35
14249.4,6160.25
14298.2,6153.5
14344.8,6137.37
14387.2,6112.47
14546.1,5997.05
14546.1,6208.44
13599.4,7155.18
13560.6,7168.62
13518.1,7193.53
13040.3,7540.64
13003.5,7573.35
12973.8,7612.62
12952.3,7656.93
12939.9,7704.58
12937,7753.74
12943.7,7802.52
12959.9,7849.05
12984.8,7891.53
13216.2,8210.04
13248.9,8246.85
13288.1,8276.58
13332.5,8298.07
13380.1,8310.5
13429.3,8313.4
13478,8306.65
13524.6,8290.52
13567.1,8265.62
14044.8,7918.5
14081.6,7885.79
14111.4,7846.53
14132.8,7802.22
14145.3,7754.57
14148.2,7705.41
14141.4,7656.62
14125.3,7610.1
14100.4,7567.61
14072.1,7528.71
14670.8,6930.08
14776.9,7076.13
14809.6,7112.94
14848.8,7142.66
14893.2,7164.15
14940.8,7176.59
14944.1,7176.78
16393.2,9447.36
16355.1,9478.61
16341.1,9495.66
15399.3,10437.5
15380.6,10418.9
15313.9,10374.3
15239.7,10343.5
15161,10327.9
15080.7,10327.9
15002,10343.5
14927.9,10374.3
14861.1,10418.9
14804.4,10475.6
14759.8,10542.4
14729.1,10616.5
14713.4,10695.2
14713.4,10719.7
13782.6,11650.5
13059.2,11650.5
12866.7,11458
12965.6,11386.1
12972.8,11379.7
12980.7,11374
13017.5,11341.3
13043.7,11312.9
13073.4,11273.7
13093.6,11240.8
13115,11196.5
13128.4,11160.3
13140.8,11112.6
13146.9,11074.5
13149.8,11025.3
13148.3,10986.8
13141.5,10938
13132.5,10900.5
13116.4,10854
13100.2,10818.9
13075.3,10776.4
13069.6,10768.6
13064.7,10760.3
12949,10601
12942.6,10593.8
12936.9,10585.9
12904.2,10549.1
12875.9,10522.9
12855.9,10507.9
12692,9752.03
12828.8,9652.59
12865.6,9619.88
12895.3,9580.62
12916.8,9536.31
12929.3,9488.66
12932.2,9439.5
12925.4,9390.72
12909.3,9344.19
12884.4,9301.7
12433.1,8680.61
12400.4,8643.8
12361.2,8614.07
12316.8,8592.58
12269.2,8580.15
12220,8577.25
12171.3,8584
12124.7,8600.13
12082.2,8625.03
11775.6,8847.8
11229.5,8726.79
11237.8,8684.96
11237.8,8604.69
11222.2,8525.97
11191.4,8451.81
11160.6,8405.73
11199.2,8087.05
11521.3,7853.01
11558.1,7820.3
11587.9,7781.03
11609.4,7736.72
11621.8,7689.07
11624.7,7639.91
11617.9,7591.13
11601.8,7544.6
11576.9,7502.12
11485.8,7376.72
11740.7,7121.86
12427,7121.86
12475.7,7190.81
12508.4,7227.62
12547.6,7257.34
12591.9,7278.83
12639.6,7291.27
12688.7,7294.17
12737.5,7287.42
12784.1,7271.29
12826.5,7246.38
12973.7,7137.97
12987.5,7050.67
12791,6780.18
12440.9,7034.56
12427,7121.86
11740.7,7121.86
12207.2,6655.34
12199.4,6685.34
12196.5,6734.5
12203.2,6783.28
12219.3,6829.81
12244.2,6872.3
12294.8,6939.83
12382.1,6953.66
12701.8,6721.4
12871.9,6721.4
13068.4,6991.89
13155.7,7005.72
13304.3,6899.27
13341.1,6866.56
13370.8,6827.29
13392.3,6782.98
13404.8,6735.33
13407.7,6686.17
13400.9,6637.39
13384.8,6590.86
13359.9,6548.38
13309.3,6480.85
13222,6467.02
12871.9,6721.4
12701.8,6721.4
12732.2,6699.28
12535.7,6428.78
12448.4,6414.95
12445.5,6417.03
12492.5,6370
12616.6,6370
12813.1,6640.5
13163.2,6386.12
13177.1,6298.82
13128.5,6229.87
13095.8,6193.05
13056.5,6163.33
13012.2,6141.84
12964.5,6129.41
12915.4,6126.51
12866.6,6133.26
12820.1,6149.39
12777.6,6174.29
12630.4,6282.7
12616.6,6370
12492.5,6370
12986.9,5875.63
13904.7,5875.63
Z" /> 
<path style="fill:#840000; fill-opacity:1.0; 
stroke:#840000; stroke-width:100; stroke-opacity:1; 
stroke-linecap:round; stroke-linejoin:round;fill-rule:evenodd;"
d="M 8497.57,7389.49
8503.99,7396.71
8509.68,7404.54
8542.39,7441.35
8570.72,7467.54
8609.99,7497.27
8642.89,7517.43
8659.02,7525.25
8901.42,8186.51
8831.85,8237.06
8795.04,8269.77
8765.32,8309.03
8743.83,8353.34
8731.39,8400.99
8728.49,8450.15
8735.24,8498.93
8751.38,8545.46
8776.28,8587.95
8871.09,8718.45
7639.17,9987.05
7604.6,9985.01
7555.82,9991.76
7509.29,10007.9
7466.8,10032.8
6989.04,10379.9
6952.22,10412.6
6922.5,10451.9
6901.01,10496.2
6888.58,10543.8
6885.68,10593
6892.42,10641.8
6908.56,10688.3
6933.46,10730.8
7010.94,10837.4
5728.55,10531.5
5737.81,10485
5737.81,10404.7
5722.15,10326
5691.44,10251.8
5646.84,10185.1
5629.54,10167.8
5629.54,10046
6871.26,8804.24
6871.26,8804.24
8408.55,7266.96
Z" /> 
<path style="fill:#840000; fill-opacity:1.0; 
stroke:#840000; stroke-width:100; stroke-opacity:1; 
stroke-linecap:round; stroke-linejoin:round;fill-rule:evenodd;"
d="M 10913.8,4004.58
10970.6,4061.34
11037.3,4105.93
11111.5,4136.65
11190.2,4152.31
11214.7,4152.31
12379.2,5316.83
12388.6,5328.25
12400,5337.62
12434.1,5365.64
12486.1,5393.42
12542.5,5410.53
12600,5416.2
11129.7,6886.55
11125.7,6881.02
11092.9,6844.21
11053.7,6814.49
11009.4,6793
10961.7,6780.56
10912.6,6777.66
10863.8,6784.41
10817.3,6800.55
10774.8,6825.45
10697.9,6881.27
10128.7,6448.11
10127.4,6438.84
10118.4,6401.31
10102.3,6354.79
10086.1,6319.74
10061.2,6277.26
10055.6,6269.44
10050.7,6261.09
9934.97,6101.84
9928.55,6094.62
9922.86,6086.78
9890.15,6049.97
9861.81,6023.78
9822.55,5994.05
9789.64,5973.89
9745.33,5952.4
9709.13,5939.04
9661.48,5926.61
9623.36,5920.57
9574.21,5917.67
9535.65,5919.19
9486.86,5925.94
9449.34,5934.94
9402.81,5951.08
9367.77,5967.24
9325.29,5992.13
9317.46,5997.82
9309.11,6002.71
9133.93,6129.99
9097.12,6162.7
9096.99,6162.87
9096.79,6162.94
9054.31,6187.84
8989.32,6235.05
8732.78,6235.05
8718.09,6233.61
8703.39,6235.05
8703.39,6235.05
8659.43,6239.38
8603.03,6256.49
8592.97,6261.87
10888.4,3966.48
Z" /> 
<path style="fill:#840000; fill-opacity:1.0; 
stroke:#840000; stroke-width:100; stroke-opacity:1; 
stroke-linecap:round; stroke-linejoin:round;fill-rule:evenodd;"
d="M 11813.2,3704.07
11835.1,3701.91
12065.2,3701.91
12087.1,3704.07
12109.1,3701.91
14455.5,3701.91
15463.6,4710.08
15426.6,4715.2
15380,4731.34
15337.6,4756.24
15198.4,4858.87
15184.5,4946.17
15401.3,5244.53
15407.7,5239.9
15466.5,5320.8
15460.1,5325.43
15464.7,5331.8
15383.8,5390.58
15379.2,5384.21
15372.8,5388.84
15314,5307.94
15320.4,5303.31
15103.6,5004.94
15016.3,4991.12
14912.1,5065.7
14760.9,4914.47
14751.5,4903.05
14706,4865.66
14654,4837.88
14597.6,4820.77
14553.6,4816.44
14553.6,4816.44
14538.9,4814.99
14524.2,4816.44
12725.1,4816.44
11637.8,3729.16
11637.8,3704.69
11637.3,3701.91
11791.2,3701.91
Z" /> 
</g>
</g>
</g>
<g style="fill:#FFFFFF; fill-opacity:1.0; 
stroke:#FFFFFF; stroke-width:100; stroke-opacity:1; 
stroke-linecap:round; stroke-linejoin:round;">
</g>
<g style="fill:#FFFFFF; fill-opacity:1.0; 
stroke:#FFFFFF; stroke-width:0; stroke-opacity:1; 
stroke-linecap:round; stroke-linejoin:round;">
<circle cx="12330.3" cy="7044.83" r="78.7402" /> 
</g>
<g style="fill:#FFFFFF; fill-opacity:1.0; 
stroke:#FFFFFF; stroke-width:39.3701; stroke-opacity:1; 
stroke-linecap:round; stroke-linejoin:round;">
</g>
<g style="fill:#FFFFFF; fill-opacity:1.0; 
stroke:#FFFFFF; stroke-width:0; stroke-opacity:1; 
stroke-linecap:round; stroke-linejoin:round;">
<circle cx="15030.3" cy="4944.83" r="78.7402" /> 
</g>
<g style="fill:#FFFFFF; fill-opacity:1.0; 
stroke:#FFFFFF; stroke-width:39.3701; stroke-opacity:1; 
stroke-linecap:round; stroke-linejoin:round;">
</g>
<g style="fill:#FFFFFF; fill-opacity:1.0; 
stroke:#FFFFFF; stroke-width:0; stroke-opacity:1; 
stroke-linecap:round; stroke-linejoin:round;">
<circle cx="7330.33" cy="9244.83" r="78.7402" /> 
</g>
<g style="fill:#FFFFFF; fill-opacity:1.0; 
stroke:#FFFFFF; stroke-width:39.3701; stroke-opacity:1; 
stroke-linecap:round; stroke-linejoin:round;">
</g>
<g style="fill:#FFFFFF; fill-opacity:1.0; 
stroke:#FFFFFF; stroke-width:0; stroke-opacity:1; 
stroke-linecap:round; stroke-linejoin:round;">
<circle cx="8830.33" cy="10744.8" r="78.7402" /> 
</g>
<g style="fill:#FFFFFF; fill-opacity:1.0; 
stroke:#FFFFFF; stroke-width:39.3701; stroke-opacity:1; 
stroke-linecap:round; stroke-linejoin:round;">
</g>
<g style="fill:#FFFFFF; fill-opacity:1.0; 
stroke:#FFFFFF; stroke-width:0; stroke-opacity:1; 
stroke-linecap:round; stroke-linejoin:round;">
<circle cx="6280.33" cy="12144.8" r="78.7402" /> 
</g>
<g style="fill:#FFFFFF; fill-opacity:1.0; 
stroke:#FFFFFF; stroke-width:39.3701; stroke-opacity:1; 
stroke-linecap:round; stroke-linejoin:round;">
</g>
<g style="fill:#FFFFFF; fill-opacity:1.0; 
stroke:#FFFFFF; stroke-width:0; stroke-opacity:1; 
stroke-linecap:round; stroke-linejoin:round;">
<circle cx="10830.3" cy="5444.83" r="78.7402" /> 
</g>
<g style="fill:#FFFFFF; fill-opacity:1.0; 
stroke:#FFFFFF; stroke-width:39.3701; stroke-opacity:1; 
stroke-linecap:round; stroke-linejoin:round;">
</g>
<g style="fill:#FFFFFF; fill-opacity:1.0; 
stroke:#FFFFFF; stroke-width:0; stroke-opacity:1; 
stroke-linecap:round; stroke-linejoin:round;">
<circle cx="10830.3" cy="8644.83" r="78.7402" /> 
</g>
<g style="fill:#FFFFFF; fill-opacity:1.0; 
stroke:#FFFFFF; stroke-width:39.3701; stroke-opacity:1; 
stroke-linecap:round; stroke-linejoin:round;">
</g>
<g style="fill:#FFFFFF; fill-opacity:1.0; 
stroke:#FFFFFF; stroke-width:0; stroke-opacity:1; 
stroke-linecap:round; stroke-linejoin:round;">
<circle cx="10830.3" cy="9244.83" r="78.7402" /> 
</g>
<g style="fill:#FFFFFF; fill-opacity:1.0; 
stroke:#FFFFFF; stroke-width:39.3701; stroke-opacity:1; 
stroke-linecap:round; stroke-linejoin:round;">
</g>
<g style="fill:#FFFFFF; fill-opacity:1.0; 
stroke:#FFFFFF; stroke-width:0; stroke-opacity:1; 
stroke-linecap:round; stroke-linejoin:round;">
<circle cx="11230.3" cy="3744.83" r="78.7402" /> 
</g>
<g style="fill:#FFFFFF; fill-opacity:1.0; 
stroke:#FFFFFF; stroke-width:39.3701; stroke-opacity:1; 
stroke-linecap:round; stroke-linejoin:round;">
</g>
<g style="fill:#FFFFFF; fill-opacity:1.0; 
stroke:#FFFFFF; stroke-width:0; stroke-opacity:1; 
stroke-linecap:round; stroke-linejoin:round;">
<circle cx="15120.9" cy="10735.4" r="78.7402" /> 
</g>
<g style="fill:#FFFFFF; fill-opacity:1.0; 
stroke:#FFFFFF; stroke-width:39.3701; stroke-opacity:1; 
stroke-linecap:round; stroke-linejoin:round;">
</g>
<g style="fill:#FFFFFF; fill-opacity:1.0; 
stroke:#FFFFFF; stroke-width:0; stroke-opacity:1; 
stroke-linecap:round; stroke-linejoin:round;">
<circle cx="5330.33" cy="10444.8" r="78.7402" /> 
</g>
<g style="fill:#FFFFFF; fill-opacity:1.0; 
stroke:#FFFFFF; stroke-width:39.3701; stroke-opacity:1; 
stroke-linecap:round; stroke-linejoin:round;">
</g>
<g style="fill:#FFFFFF; fill-opacity:1.0; 
stroke:#FFFFFF; stroke-width:0; stroke-opacity:1; 
stroke-linecap:round; stroke-linejoin:round;">
<circle cx="5301.95" cy="12521.9" r="78.7402" /> 
</g>
<g style="fill:#FFFFFF; fill-opacity:1.0; 
stroke:#FFFFFF; stroke-width:39.3701; stroke-opacity:1; 
stroke-linecap:round; stroke-linejoin:round;">
</g>
<g style="fill:#FFFFFF; fill-opacity:1.0; 
stroke:#FFFFFF; stroke-width:0; stroke-opacity:1; 
stroke-linecap:round; stroke-linejoin:round;">
<circle cx="16836.8" cy="10747.2" r="196.85" /> 
</g>
<g style="fill:#FFFFFF; fill-opacity:1.0; 
stroke:#FFFFFF; stroke-width:39.3701; stroke-opacity:1; 
stroke-linecap:round; stroke-linejoin:round;">
</g>
<g style="fill:#FFFFFF; fill-opacity:1.0; 
stroke:#FFFFFF; stroke-width:0; stroke-opacity:1; 
stroke-linecap:round; stroke-linejoin:round;">
<circle cx="17145.8" cy="9796.11" r="196.85" /> 
</g>
<g style="fill:#FFFFFF; fill-opacity:1.0; 
stroke:#FFFFFF; stroke-width:39.3701; stroke-opacity:1; 
stroke-linecap:round; stroke-linejoin:round;">
</g>
<g style="fill:#FFFFFF; fill-opacity:1.0; 
stroke:#FFFFFF; stroke-width:0; stroke-opacity:1; 
stroke-linecap:round; stroke-linejoin:round;">
<circle cx="17454.9" cy="8845.06" r="196.85" /> 
</g>
<g style="fill:#FFFFFF; fill-opacity:1.0; 
stroke:#FFFFFF; stroke-width:39.3701; stroke-opacity:1; 
stroke-linecap:round; stroke-linejoin:round;">
</g>
<g style="fill:#FFFFFF; fill-opacity:1.0; 
stroke:#FFFFFF; stroke-width:0; stroke-opacity:1; 
stroke-linecap:round; stroke-linejoin:round;">
<circle cx="8083.72" cy="15653.6" r="196.85" /> 
</g>
<g style="fill:#FFFFFF; fill-opacity:1.0; 
stroke:#FFFFFF; stroke-width:39.3701; stroke-opacity:1; 
stroke-linecap:round; stroke-linejoin:round;">
</g>
<g style="fill:#FFFFFF; fill-opacity:1.0; 
stroke:#FFFFFF; stroke-width:0; stroke-opacity:1; 
stroke-linecap:round; stroke-linejoin:round;">
<circle cx="7083.72" cy="15653.6" r="196.85" /> 
</g>
<g style="fill:#FFFFFF; fill-opacity:1.0; 
stroke:#FFFFFF; stroke-width:39.3701; stroke-opacity:1; 
stroke-linecap:round; stroke-linejoin:round;">
</g>
<g style="fill:#FFFFFF; fill-opacity:1.0; 
stroke:#FFFFFF; stroke-width:0; stroke-opacity:1; 
stroke-linecap:round; stroke-linejoin:round;">
<circle cx="6083.72" cy="15653.6" r="196.85" /> 
</g>
<g style="fill:#FFFFFF; fill-opacity:1.0; 
stroke:#FFFFFF; stroke-width:39.3701; stroke-opacity:1; 
stroke-linecap:round; stroke-linejoin:round;">
</g>
<g style="fill:#FFFFFF; fill-opacity:1.0; 
stroke:#FFFFFF; stroke-width:0; stroke-opacity:1; 
stroke-linecap:round; stroke-linejoin:round;">
<circle cx="12950.1" cy="2644.83" r="196.85" /> 
</g>
<g style="fill:#FFFFFF; fill-opacity:1.0; 
stroke:#FFFFFF; stroke-width:39.3701; stroke-opacity:1; 
stroke-linecap:round; stroke-linejoin:round;">
</g>
<g style="fill:#FFFFFF; fill-opacity:1.0; 
stroke:#FFFFFF; stroke-width:0; stroke-opacity:1; 
stroke-linecap:round; stroke-linejoin:round;">
<circle cx="11950.1" cy="2644.83" r="196.85" /> 
</g>
<g style="fill:#FFFFFF; fill-opacity:1.0; 
stroke:#FFFFFF; stroke-width:39.3701; stroke-opacity:1; 
stroke-linecap:round; stroke-linejoin:round;">
</g>
<g style="fill:#FFFFFF; fill-opacity:1.0; 
stroke:#FFFFFF; stroke-width:0; stroke-opacity:1; 
stroke-linecap:round; stroke-linejoin:round;">
<circle cx="10950.1" cy="2644.83" r="196.85" /> 
</g>
<g style="fill:#FFFFFF; fill-opacity:1.0; 
stroke:#FFFFFF; stroke-width:39.3701; stroke-opacity:1; 
stroke-linecap:round; stroke-linejoin:round;">
</g>
<g style="fill:#FFFFFF; fill-opacity:1.0; 
stroke:#FFFFFF; stroke-width:0; stroke-opacity:1; 
stroke-linecap:round; stroke-linejoin:round;">
<circle cx="2960.96" cy="11355.5" r="196.85" /> 
</g>
<g style="fill:#FFFFFF; fill-opacity:1.0; 
stroke:#FFFFFF; stroke-width:39.3701; stroke-opacity:1; 
stroke-linecap:round; stroke-linejoin:round;">
</g>
<g style="fill:#FFFFFF; fill-opacity:1.0; 
stroke:#FFFFFF; stroke-width:0; stroke-opacity:1; 
stroke-linecap:round; stroke-linejoin:round;">
<circle cx="3269.98" cy="10404.4" r="196.85" /> 
</g>
<g style="fill:#FFFFFF; fill-opacity:1.0; 
stroke:#FFFFFF; stroke-width:39.3701; stroke-opacity:1; 
stroke-linecap:round; stroke-linejoin:round;">
</g>
<g style="fill:#FFFFFF; fill-opacity:1.0; 
stroke:#FFFFFF; stroke-width:0; stroke-opacity:1; 
stroke-linecap:round; stroke-linejoin:round;">
<circle cx="3578.99" cy="9453.36" r="196.85" /> 
</g>
<g style="fill:#FFFFFF; fill-opacity:1.0; 
stroke:#FFFFFF; stroke-width:39.3701; stroke-opacity:1; 
stroke-linecap:round; stroke-linejoin:round;">
</g>
<g style="fill:#000000; fill-opacity:1.0; 
stroke:#000000; stroke-width:39.3701; stroke-opacity:1; 
stroke-linecap:round; stroke-linejoin:round;">
</g>
<g style="fill:#C2C200; fill-opacity:1.0; 
stroke:#C2C200; stroke-width:39.3701; stroke-opacity:1; 
stroke-linecap:round; stroke-linejoin:round;">
</g>
<g style="fill:#C2C200; fill-opacity:1.0; 
stroke:#C2C200; stroke-width:78.7402; stroke-opacity:1; 
stroke-linecap:round; stroke-linejoin:round;">
</g>
<g style="fill:#C2C200; fill-opacity:0.0; 
stroke:#C2C200; stroke-width:78.7402; stroke-opacity:1; 
stroke-linecap:round; stroke-linejoin:round;">
<path d="M209 16637
L15957 16637
" />
<path d="M15957 16637
L20824 1660
" />
<path d="M20824 1660
L5076 1660
" />
<path d="M5076 1660
L209 16637
" />
<g >
</g>
<g >
</g>
<g >
</g>
<g >
</g>
<g >
</g>
<g >
</g>
<g >
</g>
<g >
</g>
<g >
</g>
<g >
</g>
<g >
</g>
<g >
</g>
</g> 
</svg>
