<?xml version="1.0" standalone="no"?>
 <!DOCTYPE svg PUBLIC "-//W3C//DTD SVG 1.1//EN" 
 "http://www.w3.org/Graphics/SVG/1.1/DTD/svg11.dtd"> 
<svg
  xmlns:svg="http://www.w3.org/2000/svg"
  xmlns="http://www.w3.org/2000/svg"
  xmlns:xlink="http://www.w3.org/1999/xlink"
  version="1.1"
  width="5.298440cm" height="4.742180cm" viewBox="0 0 20860 18670">
<title>SVG Picture created as penroserombus_thick_40mm-F_SilkS.svg date 2020/12/21 13:54:12 </title>
  <desc>Picture generated by PCBNEW </desc>
<g style="fill:#000000; fill-opacity:1;stroke:#000000; stroke-opacity:1;
stroke-linecap:round; stroke-linejoin:round;"
 transform="translate(0 0) scale(1 1)">
</g>
<g style="fill:#000000; fill-opacity:0.0; 
stroke:#000000; stroke-width:-0.000393701; stroke-opacity:1; 
stroke-linecap:round; stroke-linejoin:round;">
</g>
<g style="fill:#008484; fill-opacity:0.0; 
stroke:#008484; stroke-width:-0.000393701; stroke-opacity:1; 
stroke-linecap:round; stroke-linejoin:round;">
</g>
<g style="fill:#008484; fill-opacity:0.0; 
stroke:#008484; stroke-width:196.85; stroke-opacity:1; 
stroke-linecap:round; stroke-linejoin:round;">
<g transform="rotate(-162 16430.3 11844.8)">
<text x="16430.3" y="12238.5"
textLength="674.916" font-size="1049.87" lengthAdjust="spacingAndGlyphs"
text-anchor="middle" opacity="0">A</text>
</g>
<path d="M16649 11777
L16292 11662
" />
<path d="M16790 11587
L16297 12254
L16290 11424
" />
<g transform="rotate(-90 9830.33 2644.83)">
<text x="9830.33" y="3038.53"
textLength="855.831" font-size="1049.87" lengthAdjust="spacingAndGlyphs"
text-anchor="middle" opacity="0">T</text>
</g>
<path d="M9399 2869
L9399 2419
" />
<path d="M10186 2644
L9399 2644
" />
<g transform="rotate(-342 2530.33 12544.8)">
<text x="2530.33" y="12938.5"
textLength="1043.31" font-size="1049.87" lengthAdjust="spacingAndGlyphs"
text-anchor="middle" opacity="0">C</text>
</g>
<path d="M2675 12887
L2627 12911
L2509 12912
L2438 12889
L2342 12818
L2294 12724
L2282 12641
L2292 12487
L2327 12380
L2409 12249
L2468 12189
L2562 12141
L2681 12140
L2752 12163
L2848 12234
L2872 12281
" />
<g transform="rotate(-90 4930.33 15644.8)">
<text x="4930.33" y="16038.5"
textLength="1043.31" font-size="1049.87" lengthAdjust="spacingAndGlyphs"
text-anchor="middle" opacity="0">G</text>
</g>
<path d="M4536 15438
L4499 15513
L4499 15626
L4536 15738
L4611 15813
L4686 15851
L4836 15888
L4949 15888
L5099 15851
L5174 15813
L5249 15738
L5286 15626
L5286 15551
L5249 15438
L5211 15401
L4949 15401
L4949 15551
" />
</g>
<g style="fill:#008484; fill-opacity:0.0; 
stroke:#008484; stroke-width:78.7402; stroke-opacity:1; 
stroke-linecap:round; stroke-linejoin:round;">
<path d="M11627 16637.8 A11417.3 11417.3 0.0 0 0 3737.86 5779.32" />
<path d="M12040.4 16637.8 A11830.7 11830.7 0.0 0 0 3865.6 5386.17" />
<path d="M16891.1 1660.57 A3933.07 3933.07 0.0 0 0 19608.8 5401.15" />
</g>
<g style="fill:#008484; fill-opacity:0.0; 
stroke:#008484; stroke-width:47.2441; stroke-opacity:1; 
stroke-linecap:round; stroke-linejoin:round;">
<path d="M9939 10565
L9780 10681
" />
<path d="M9780 10681
L9664 10521
" />
<path d="M9664 10521
L8854 9407
" />
<path d="M8854 9407
L8934 9349
" />
<path d="M12646 8598
L12806 8482
" />
<path d="M12806 8482
L11880 7208
" />
<path d="M11880 7208
L11721 7324
" />
</g>
<g style="fill:#008484; fill-opacity:0.0; 
stroke:#008484; stroke-width:78.7402; stroke-opacity:1; 
stroke-linecap:round; stroke-linejoin:round;">
<circle cx="10227.4" cy="10794.2" r="88.0343" /> 
</g>
<g style="fill:#008484; fill-opacity:0.0; 
stroke:#008484; stroke-width:47.2441; stroke-opacity:1; 
stroke-linecap:round; stroke-linejoin:round;">
<path d="M15803 5391
L15924 5557
" />
<path d="M15335 5731
L15456 5898
" />
<path d="M8517 13039
L8683 12918
" />
<path d="M8177 12571
L8343 12450
" />
<path d="M15751 6684
L15485 6317
" />
<path d="M13426 8373
L15751 6684
" />
<path d="M12153 6621
L14478 4932
" />
<path d="M5282 11614
L7607 9924
" />
<path d="M6555 13365
L8880 11676
" />
<path d="M8880 11676
L8614 11310
" />
<path d="M16802 9158
L17798 9482
" />
<path d="M16802 9158
L16177 11083
" />
<path d="M16177 11083
L17173 11406
" />
<path d="M17798 9482
L17173 11406
" />
<path d="M18114 8508
L17952 9006
" />
<path d="M17616 8347
L18114 8508
" />
<path d="M8607 15653
L8607 16177
" />
<path d="M8607 16177
L8083 16177
" />
<path d="M7583 16177
L5560 16177
" />
<path d="M5560 15129
L5560 16177
" />
<path d="M7583 15129
L5560 15129
" />
<path d="M7583 15129
L7583 16177
" />
<path d="M13473 2644
L13473 3168
" />
<path d="M13473 3168
L12950 3168
" />
<path d="M12450 3168
L10426 3168
" />
<path d="M10426 2121
L10426 3168
" />
<path d="M12450 2121
L10426 2121
" />
<path d="M12450 2121
L12450 3168
" />
<path d="M2926 9767
L3922 10090
" />
<path d="M2926 9767
L2301 11691
" />
<path d="M2301 11691
L3297 12015
" />
<path d="M3922 10090
L3297 12015
" />
<path d="M4238 9117
L4076 9615
" />
<path d="M3740 8955
L4238 9117
" />
<path d="M9111 7405
L9276 7431
" />
<path d="M9085 7570
L9276 7431
" />
<path d="M9111 7405
L9085 7570
" />
<path d="M8632 7315
L8493 7124
" />
<path d="M9893 6740
L9001 7388
" />
<path d="M9799 6175
L9938 6366
" />
<path d="M8538 6751
L9430 6103
" />
<path d="M8554.87 6739.56 A275.591 275.591 0.0 0 0 8493.9 7124.5" />
<path d="M8632.74 7315.61 A275.591 275.591 0.0 0 0 9017.69 7376.58" />
<path d="M9877.67 6751.77 A275.591 275.591 0.0 0 0 9938.64 6366.82" />
<path d="M9799.79 6175.71 A275.591 275.591 0.0 0 0 9414.84 6114.74" />
<path d="M11553 11250
L12444 10602
" />
<path d="M12813 10674
L12952 10865
" />
<path d="M12907 11239
L12015 11887
" />
<path d="M11646 11814
L11507 11623
" />
<path d="M12125 11904
L12099 12069
" />
<path d="M12099 12069
L12290 11930
" />
<path d="M12125 11904
L12290 11930
" />
<path d="M12813.9 10674.9 A275.591 275.591 0.0 0 0 12428.9 10613.9" />
<path d="M12891.7 11250.9 A275.591 275.591 0.0 0 0 12952.7 10866" />
<path d="M11646.8 11814.8 A275.591 275.591 0.0 0 0 12031.8 11875.7" />
<path d="M11568.9 11238.7 A275.591 275.591 0.0 0 0 11508 11623.7" />
</g>
<g style="fill:#008484; fill-opacity:0.0; 
stroke:#008484; stroke-width:59.0551; stroke-opacity:1; 
stroke-linecap:round; stroke-linejoin:round;">
<g transform="rotate(54 8962.82 10058.3)">
<text x="8962.82" y="10255.2"
textLength="1455.76" font-size="524.934" lengthAdjust="spacingAndGlyphs"
text-anchor="middle" opacity="0">SW1</text>
</g>
<path d="M8525 9727
L8543 9783
L8598 9859
L8635 9878
L8661 9883
L8703 9876
L8733 9854
L8752 9817
L8756 9790
L8750 9749
L8721 9677
L8714 9636
L8718 9610
L8737 9573
L8768 9551
L8809 9544
L8835 9548
L8872 9567
L8927 9643
L8945 9699
" />
<path d="M9038 9795
L8774 10102
L9046 9997
L8862 10223
L9236 10068
" />
<path d="M9127 10587
L8995 10405
" />
<path d="M9061 10496
L9379 10265
L9312 10268
L9259 10259
L9222 10240
" />
<g transform="rotate(54 16165.4 5256.05)">
<text x="16165.4" y="5452.9"
textLength="845.426" font-size="524.934" lengthAdjust="spacingAndGlyphs"
text-anchor="middle" opacity="0">C1</text>
</g>
<path d="M16013 5285
L15986 5281
L15938 5246
L15916 5216
L15898 5160
L15907 5107
L15926 5070
L15976 5011
L16021 4978
L16093 4949
L16134 4942
L16186 4950
L16235 4985
L16257 5015
L16275 5072
L16270 5098
" />
<path d="M16203 5610
L16070 5428
" />
<path d="M16137 5519
L16455 5288
L16388 5291
L16335 5283
L16298 5263
" />
<g transform="rotate(-36 8041.56 12209.7)">
<text x="8041.56" y="12406.6"
textLength="845.426" font-size="524.934" lengthAdjust="spacingAndGlyphs"
text-anchor="middle" opacity="0">C2</text>
</g>
<path d="M8071 12362
L8066 12388
L8032 12436
L8002 12458
L7945 12476
L7893 12468
L7856 12448
L7796 12399
L7763 12353
L7734 12281
L7727 12240
L7736 12188
L7770 12139
L7801 12117
L7857 12100
L7883 12104
" />
<path d="M8005 12016
L8009 11989
L8028 11952
L8104 11897
L8145 11890
L8171 11894
L8209 11914
L8231 11944
L8249 12001
L8199 12315
L8396 12171
" />
<g transform="rotate(-36 13142.7 5538.21)">
<text x="13142.7" y="5735.06"
textLength="845.426" font-size="524.934" lengthAdjust="spacingAndGlyphs"
text-anchor="middle" opacity="0">D1</text>
</g>
<path d="M13012 5853
L12780 5534
L12856 5479
L12913 5461
L12965 5469
L13002 5489
L13062 5538
L13095 5584
L13124 5656
L13130 5697
L13122 5749
L13088 5798
L13012 5853
" />
<path d="M13497 5500
L13315 5632
" />
<path d="M13406 5566
L13175 5248
L13177 5315
L13169 5367
L13150 5405
" />
<g transform="rotate(-36 6271.25 10530.6)">
<text x="6271.25" y="10727.5"
textLength="845.426" font-size="524.934" lengthAdjust="spacingAndGlyphs"
text-anchor="middle" opacity="0">D2</text>
</g>
<path d="M6140 10845
L5909 10527
L5985 10471
L6041 10454
L6094 10462
L6131 10481
L6190 10531
L6223 10576
L6252 10648
L6259 10689
L6251 10742
L6216 10790
L6140 10845
" />
<path d="M6234 10336
L6238 10310
L6258 10273
L6334 10218
L6375 10211
L6401 10215
L6438 10235
L6460 10265
L6478 10321
L6429 10636
L6626 10492
" />
<g transform="rotate(18 17791.9 7807.88)">
<text x="17791.9" y="8004.73"
textLength="751.687" font-size="524.934" lengthAdjust="spacingAndGlyphs"
text-anchor="middle" opacity="0">J1</text>
</g>
<path d="M17733 7562
L17646 7829
L17611 7877
L17564 7901
L17505 7901
L17469 7890
" />
<path d="M17986 8058
L17772 7988
" />
<path d="M17879 8023
L18001 7649
L17948 7691
L17900 7715
L17859 7721
" />
<g transform="rotate(-90 9174.28 15653.6)">
<text x="9174.28" y="15850.4"
textLength="751.687" font-size="524.934" lengthAdjust="spacingAndGlyphs"
text-anchor="middle" opacity="0">J2</text>
</g>
<path d="M8958 15784
L9239 15784
L9296 15803
L9333 15841
L9352 15897
L9352 15934
" />
<path d="M8996 15616
L8977 15597
L8958 15559
L8958 15466
L8977 15428
L8996 15409
L9033 15391
L9071 15391
L9127 15409
L9352 15634
L9352 15391
" />
<g transform="rotate(-90 14040.7 2644.83)">
<text x="14040.7" y="2841.68"
textLength="751.687" font-size="524.934" lengthAdjust="spacingAndGlyphs"
text-anchor="middle" opacity="0">J3</text>
</g>
<path d="M13825 2776
L14106 2776
L14162 2794
L14200 2832
L14218 2888
L14218 2926
" />
<path d="M13825 2626
L13825 2382
L13975 2513
L13975 2457
L13993 2419
L14012 2401
L14050 2382
L14143 2382
L14181 2401
L14200 2419
L14218 2457
L14218 2569
L14200 2607
L14181 2626
" />
<g transform="rotate(18 3915.99 8416.18)">
<text x="3915.99" y="8613.03"
textLength="751.687" font-size="524.934" lengthAdjust="spacingAndGlyphs"
text-anchor="middle" opacity="0">J4</text>
</g>
<path d="M3857 8170
L3770 8438
L3735 8485
L3688 8509
L3629 8510
L3593 8498
" />
<path d="M4156 8405
L4074 8655
" />
<path d="M4113 8233
L3937 8472
L4168 8547
" />
<g transform="rotate(-36 8799.73 6172.34)">
<text x="8799.73" y="6369.19"
textLength="1145.39" font-size="524.934" lengthAdjust="spacingAndGlyphs"
text-anchor="middle" opacity="0">JP1</text>
</g>
<path d="M8407 6190
L8572 6418
L8590 6474
L8582 6527
L8547 6575
L8517 6597
" />
<path d="M8790 6399
L8559 6080
L8680 5992
L8721 5985
L8748 5989
L8785 6008
L8818 6054
L8825 6095
L8821 6122
L8801 6159
L8680 6247
" />
<path d="M9276 6046
L9094 6178
" />
<path d="M9185 6112
L8953 5794
L8956 5861
L8948 5913
L8928 5951
" />
<g transform="rotate(-36 11813.8 10671.5)">
<text x="11813.8" y="10868.4"
textLength="1145.39" font-size="524.934" lengthAdjust="spacingAndGlyphs"
text-anchor="middle" opacity="0">JP2</text>
</g>
<path d="M11421 10689
L11586 10917
L11604 10973
L11596 11026
L11562 11074
L11531 11096
" />
<path d="M11804 10898
L11573 10579
L11694 10491
L11736 10484
L11762 10488
L11799 10508
L11832 10553
L11839 10595
L11835 10621
L11815 10658
L11694 10746
" />
<path d="M11898 10389
L11902 10363
L11922 10326
L11997 10271
L12039 10264
L12065 10268
L12102 10287
L12124 10318
L12142 10374
L12092 10688
L12290 10545
" />
<g >
</g>
</g>
<g style="fill:#000000; fill-opacity:0.0; 
stroke:#000000; stroke-width:59.0551; stroke-opacity:1; 
stroke-linecap:round; stroke-linejoin:round;">
</g>
<g style="fill:#C2C200; fill-opacity:0.0; 
stroke:#C2C200; stroke-width:59.0551; stroke-opacity:1; 
stroke-linecap:round; stroke-linejoin:round;">
</g>
<g style="fill:#C2C200; fill-opacity:0.0; 
stroke:#C2C200; stroke-width:78.7402; stroke-opacity:1; 
stroke-linecap:round; stroke-linejoin:round;">
<path d="M209 16637
L15957 16637
" />
<path d="M15957 16637
L20824 1660
" />
<path d="M20824 1660
L5076 1660
" />
<path d="M5076 1660
L209 16637
" />
<g >
</g>
<g >
</g>
<g >
</g>
<g >
</g>
<g >
</g>
<g >
</g>
<g >
</g>
<g >
</g>
<g >
</g>
<g >
</g>
<g >
</g>
<g >
</g>
</g> 
</svg>
