<?xml version="1.0" standalone="no"?>
 <!DOCTYPE svg PUBLIC "-//W3C//DTD SVG 1.1//EN" 
 "http://www.w3.org/Graphics/SVG/1.1/DTD/svg11.dtd"> 
<svg
  xmlns:svg="http://www.w3.org/2000/svg"
  xmlns="http://www.w3.org/2000/svg"
  xmlns:xlink="http://www.w3.org/1999/xlink"
  version="1.1"
  width="7.254240cm" height="3.383280cm" viewBox="0 0 28560 13320">
<title>SVG Picture created as penroserombus_thin_40mm-F_Cu.svg date 2020/12/21 13:53:56 </title>
  <desc>Picture generated by PCBNEW </desc>
<g style="fill:#000000; fill-opacity:1;stroke:#000000; stroke-opacity:1;
stroke-linecap:round; stroke-linejoin:round;"
 transform="translate(0 0) scale(1 1)">
</g>
<g style="fill:#000000; fill-opacity:0.0; 
stroke:#000000; stroke-width:-0.000393701; stroke-opacity:1; 
stroke-linecap:round; stroke-linejoin:round;">
<g >
</g>
<g style="fill:#848400; fill-opacity:0.0; 
stroke:#848400; stroke-width:-0.000393701; stroke-opacity:1; 
stroke-linecap:round; stroke-linejoin:round;">
</g>
<g style="fill:#848400; fill-opacity:0.0; 
stroke:#848400; stroke-width:0; stroke-opacity:1; 
stroke-linecap:round; stroke-linejoin:round;">
</g>
<g style="fill:#848400; fill-opacity:1.0; 
stroke:#848400; stroke-width:0; stroke-opacity:1; 
stroke-linecap:round; stroke-linejoin:round;">
<path style="fill:#848400; fill-opacity:1.0; 
stroke:#848400; stroke-width:0; stroke-opacity:1; 
stroke-linecap:round; stroke-linejoin:round;fill-rule:evenodd;"
d="M 6520.68,7386
7062.15,6992.6
7455.55,7534.07
6914.08,7927.47
Z" /> 
<circle cx="6179.09" cy="8047.82" r="334.646" /> 
<circle cx="5370.08" cy="8635.6" r="334.646" /> 
</g>
<g >
</g>
<g style="fill:#840000; fill-opacity:1.0; 
stroke:#840000; stroke-width:0; stroke-opacity:1; 
stroke-linecap:round; stroke-linejoin:round;">
<path style="fill:#840000; fill-opacity:1.0; 
stroke:#840000; stroke-width:0; stroke-opacity:1; 
stroke-linecap:round; stroke-linejoin:round;fill-rule:evenodd;"
d="M 11612.6,7702.4
11622.2,7703.63
11631.6,7705.79
11640.8,7708.87
11649.6,7712.82
11658,7717.63
11665.8,7723.23
11673.1,7729.57
11679.7,7736.6
11685.6,7744.24
11690.8,7752.43
11695.1,7761.08
11698.5,7770.11
11780.6,8022.85
11783.1,8032.17
11784.8,8041.69
11785.4,8051.33
11785.1,8060.99
11783.9,8070.57
11781.7,8079.98
11778.7,8089.14
11774.7,8097.95
11769.9,8106.33
11764.3,8114.2
11758,8121.48
11750.9,8128.11
11743.3,8134.01
11735.1,8139.14
11726.5,8143.44
11717.4,8146.87
11361.7,8262.45
11352.4,8264.98
11342.9,8266.58
11333.2,8267.25
11323.6,8266.96
11314,8265.73
11304.6,8263.57
11295.4,8260.5
11286.6,8256.54
11278.2,8251.74
11270.4,8246.14
11263.1,8239.79
11256.5,8232.76
11250.5,8225.12
11245.4,8216.93
11241.1,8208.28
11237.7,8199.26
11155.6,7946.51
11153,7937.19
11151.4,7927.67
11150.8,7918.03
11151.1,7908.38
11152.3,7898.8
11154.4,7889.38
11157.5,7880.23
11161.5,7871.41
11166.3,7863.03
11171.9,7855.16
11178.2,7847.88
11185.3,7841.26
11192.9,7835.35
11201.1,7830.22
11209.7,7825.92
11218.8,7822.49
11574.5,7706.91
11583.8,7704.38
11593.3,7702.78
11603,7702.12
Z" /> 
<path style="fill:#840000; fill-opacity:1.0; 
stroke:#840000; stroke-width:0; stroke-opacity:1; 
stroke-linecap:round; stroke-linejoin:round;fill-rule:evenodd;"
d="M 11360.2,6925.45
11369.7,6926.68
11379.2,6928.85
11388.3,6931.92
11397.1,6935.88
11405.5,6940.68
11413.4,6946.28
11420.7,6952.63
11427.3,6959.65
11433.2,6967.3
11438.3,6975.48
11442.6,6984.13
11446.1,6993.16
11528.2,7245.9
11530.7,7255.22
11532.3,7264.75
11533,7274.39
11532.7,7284.04
11531.5,7293.62
11529.3,7303.03
11526.2,7312.19
11522.3,7321
11517.5,7329.38
11511.9,7337.25
11505.5,7344.54
11498.5,7351.16
11490.8,7357.07
11482.7,7362.19
11474,7366.49
11465,7369.93
11109.3,7485.5
11099.9,7488.03
11090.4,7489.64
11080.8,7490.3
11071.1,7490.02
11061.6,7488.79
11052.1,7486.62
11043,7483.55
11034.2,7479.59
11025.8,7474.79
11017.9,7469.19
11010.6,7462.84
11004,7455.82
10998.1,7448.17
10993,7439.99
10988.7,7431.34
10985.2,7422.31
10903.1,7169.57
10900.6,7160.25
10899,7150.72
10898.3,7141.09
10898.6,7131.43
10899.8,7121.85
10902,7112.44
10905.1,7103.28
10909,7094.47
10913.8,7086.09
10919.4,7078.22
10925.8,7070.94
10932.8,7064.31
10940.5,7058.4
10948.6,7053.28
10957.3,7048.98
10966.3,7045.55
11322,6929.97
11331.3,6927.44
11340.9,6925.83
11350.5,6925.17
Z" /> 
</g>
<g >
</g>
<g style="fill:#840000; fill-opacity:1.0; 
stroke:#840000; stroke-width:0; stroke-opacity:1; 
stroke-linecap:round; stroke-linejoin:round;">
<path style="fill:#840000; fill-opacity:1.0; 
stroke:#840000; stroke-width:0; stroke-opacity:1; 
stroke-linecap:round; stroke-linejoin:round;fill-rule:evenodd;"
d="M 17365.1,5502.4
17374.6,5503.63
17384,5505.79
17393.2,5508.87
17402,5512.82
17410.4,5517.63
17418.3,5523.23
17425.5,5529.57
17432.2,5536.6
17438.1,5544.24
17443.2,5552.43
17447.5,5561.08
17450.9,5570.11
17533.1,5822.85
17535.6,5832.17
17537.2,5841.69
17537.9,5851.33
17537.6,5860.99
17536.3,5870.57
17534.2,5879.98
17531.1,5889.14
17527.2,5897.95
17522.3,5906.33
17516.7,5914.2
17510.4,5921.48
17503.4,5928.11
17495.7,5934.01
17487.5,5939.14
17478.9,5943.44
17469.9,5946.87
17114.2,6062.45
17104.8,6064.98
17095.3,6066.58
17085.7,6067.25
17076,6066.96
17066.4,6065.73
17057,6063.57
17047.9,6060.5
17039.1,6056.54
17030.7,6051.74
17022.8,6046.14
17015.5,6039.79
17008.9,6032.76
17003,6025.12
16997.9,6016.93
16993.6,6008.28
16990.1,5999.26
16908,5746.51
16905.5,5737.19
16903.9,5727.67
16903.2,5718.03
16903.5,5708.38
16904.7,5698.8
16906.9,5689.38
16910,5680.23
16913.9,5671.41
16918.7,5663.03
16924.3,5655.16
16930.7,5647.88
16937.7,5641.26
16945.3,5635.35
16953.5,5630.22
16962.2,5625.92
16971.2,5622.49
17326.9,5506.91
17336.2,5504.38
17345.8,5502.78
17355.4,5502.12
Z" /> 
<path style="fill:#840000; fill-opacity:1.0; 
stroke:#840000; stroke-width:0; stroke-opacity:1; 
stroke-linecap:round; stroke-linejoin:round;fill-rule:evenodd;"
d="M 17112.6,4725.45
17122.2,4726.68
17131.6,4728.85
17140.8,4731.92
17149.6,4735.88
17158,4740.68
17165.8,4746.28
17173.1,4752.63
17179.7,4759.65
17185.6,4767.3
17190.8,4775.48
17195.1,4784.13
17198.5,4793.16
17280.6,5045.9
17283.1,5055.22
17284.8,5064.75
17285.4,5074.39
17285.1,5084.04
17283.9,5093.62
17281.7,5103.03
17278.7,5112.19
17274.7,5121
17269.9,5129.38
17264.3,5137.25
17258,5144.54
17250.9,5151.16
17243.3,5157.07
17235.1,5162.19
17226.5,5166.49
17217.4,5169.93
16861.7,5285.5
16852.4,5288.03
16842.9,5289.64
16833.2,5290.3
16823.6,5290.02
16814,5288.79
16804.6,5286.62
16795.4,5283.55
16786.6,5279.59
16778.2,5274.79
16770.4,5269.19
16763.1,5262.84
16756.5,5255.82
16750.5,5248.17
16745.4,5239.99
16741.1,5231.34
16737.7,5222.31
16655.6,4969.57
16653,4960.25
16651.4,4950.72
16650.8,4941.09
16651.1,4931.43
16652.3,4921.85
16654.4,4912.44
16657.5,4903.28
16661.5,4894.47
16666.3,4886.09
16671.9,4878.22
16678.2,4870.94
16685.3,4864.31
16692.9,4858.4
16701.1,4853.28
16709.7,4848.98
16718.8,4845.55
17074.5,4729.97
17083.8,4727.44
17093.3,4725.83
17103,4725.17
Z" /> 
</g>
<g >
</g>
<g style="fill:#840000; fill-opacity:1.0; 
stroke:#840000; stroke-width:0; stroke-opacity:1; 
stroke-linecap:round; stroke-linejoin:round;">
<path style="fill:#840000; fill-opacity:1.0; 
stroke:#840000; stroke-width:0; stroke-opacity:1; 
stroke-linecap:round; stroke-linejoin:round;fill-rule:evenodd;"
d="M 10427.5,8785.99
10305.9,8411.55
10867.5,8229.06
10989.2,8603.5
Z" /> 
<path style="fill:#840000; fill-opacity:1.0; 
stroke:#840000; stroke-width:0; stroke-opacity:1; 
stroke-linecap:round; stroke-linejoin:round;fill-rule:evenodd;"
d="M 10038.2,7587.8
9916.57,7213.37
10478.2,7030.88
10599.9,7405.31
Z" /> 
<path style="fill:#840000; fill-opacity:1.0; 
stroke:#840000; stroke-width:0; stroke-opacity:1; 
stroke-linecap:round; stroke-linejoin:round;fill-rule:evenodd;"
d="M 8592.83,9382.12
8471.17,9007.69
9032.82,8825.2
9154.48,9199.63
Z" /> 
<path style="fill:#840000; fill-opacity:1.0; 
stroke:#840000; stroke-width:0; stroke-opacity:1; 
stroke-linecap:round; stroke-linejoin:round;fill-rule:evenodd;"
d="M 8203.51,8183.94
8081.85,7809.51
8643.5,7627.02
8765.16,8001.45
Z" /> 
</g>
<g >
</g>
<g style="fill:#840000; fill-opacity:1.0; 
stroke:#840000; stroke-width:0; stroke-opacity:1; 
stroke-linecap:round; stroke-linejoin:round;">
<path style="fill:#840000; fill-opacity:1.0; 
stroke:#840000; stroke-width:0; stroke-opacity:1; 
stroke-linecap:round; stroke-linejoin:round;fill-rule:evenodd;"
d="M 20363.7,5143.58
20485.3,5518.01
19923.7,5700.5
19802,5326.07
Z" /> 
<path style="fill:#840000; fill-opacity:1.0; 
stroke:#840000; stroke-width:0; stroke-opacity:1; 
stroke-linecap:round; stroke-linejoin:round;fill-rule:evenodd;"
d="M 19974.4,3945.39
20096,4319.83
19534.4,4502.32
19412.7,4127.89
Z" /> 
<path style="fill:#840000; fill-opacity:1.0; 
stroke:#840000; stroke-width:0; stroke-opacity:1; 
stroke-linecap:round; stroke-linejoin:round;fill-rule:evenodd;"
d="M 18529,5739.71
18650.6,6114.14
18089,6296.63
17967.3,5922.2
Z" /> 
<path style="fill:#840000; fill-opacity:1.0; 
stroke:#840000; stroke-width:0; stroke-opacity:1; 
stroke-linecap:round; stroke-linejoin:round;fill-rule:evenodd;"
d="M 18139.7,4541.53
18261.3,4915.96
17699.7,5098.45
17578,4724.02
Z" /> 
</g>
<g >
</g>
<g style="fill:#848400; fill-opacity:1.0; 
stroke:#848400; stroke-width:0; stroke-opacity:1; 
stroke-linecap:round; stroke-linejoin:round;">
<circle cx="22653.8" cy="3019.78" r="334.646" /> 
<circle cx="21653.8" cy="3019.78" r="334.646" /> 
<path style="fill:#848400; fill-opacity:1.0; 
stroke:#848400; stroke-width:0; stroke-opacity:1; 
stroke-linecap:round; stroke-linejoin:round;fill-rule:evenodd;"
d="M 20988.5,3354.42
20319.2,3354.42
20319.2,2685.13
20988.5,2685.13
Z" /> 
</g>
<g >
</g>
<g style="fill:#848400; fill-opacity:1.0; 
stroke:#848400; stroke-width:0; stroke-opacity:1; 
stroke-linecap:round; stroke-linejoin:round;">
<path style="fill:#848400; fill-opacity:1.0; 
stroke:#848400; stroke-width:0; stroke-opacity:1; 
stroke-linecap:round; stroke-linejoin:round;fill-rule:evenodd;"
d="M 7578.74,9973.09
8248.03,9973.09
8248.03,10642.4
7578.74,10642.4
Z" /> 
<circle cx="6913.39" cy="10307.7" r="334.646" /> 
<circle cx="5913.39" cy="10307.7" r="334.646" /> 
</g>
<g >
</g>
<g style="fill:#848400; fill-opacity:1.0; 
stroke:#848400; stroke-width:0; stroke-opacity:1; 
stroke-linecap:round; stroke-linejoin:round;">
<circle cx="23197.1" cy="4691.91" r="334.646" /> 
<circle cx="22388.1" cy="5279.7" r="334.646" /> 
<path style="fill:#848400; fill-opacity:1.0; 
stroke:#848400; stroke-width:0; stroke-opacity:1; 
stroke-linecap:round; stroke-linejoin:round;fill-rule:evenodd;"
d="M 22046.5,5941.51
21505.1,6334.91
21111.7,5793.45
21653.1,5400.05
Z" /> 
</g>
<g >
</g>
<g style="fill:#840000; fill-opacity:1.0; 
stroke:#840000; stroke-width:0; stroke-opacity:1; 
stroke-linecap:round; stroke-linejoin:round;">
<path style="fill:#840000; fill-opacity:1.0; 
stroke:#840000; stroke-width:0; stroke-opacity:1; 
stroke-linecap:round; stroke-linejoin:round;fill-rule:evenodd;"
d="M 15264.1,8366.08
15446.6,8927.73
15072.1,9049.39
14889.6,8487.74
Z" /> 
<path style="fill:#840000; fill-opacity:1.0; 
stroke:#840000; stroke-width:0; stroke-opacity:1; 
stroke-linecap:round; stroke-linejoin:round;fill-rule:evenodd;"
d="M 14772.5,9146.49
14763.3,9149.48
14744.4,9153.62
14725.3,9155.89
14705.9,9156.27
14686.7,9154.75
14667.7,9151.35
14649.1,9146.11
14631.1,9139.07
14613.9,9130.3
14597.6,9119.89
14582.4,9107.93
14568.5,9094.54
14556,9079.85
14544.9,9064
14535.5,9047.14
14527.7,9029.44
14524.8,9020.26
14524.5,9020.33
14463.7,8833.12
14463.9,8833.04
14460.9,8823.86
14456.8,8804.99
14454.5,8785.8
14454.2,8766.49
14455.7,8747.23
14459.1,8728.21
14464.3,8709.62
14471.3,8691.63
14480.1,8674.42
14490.5,8658.15
14502.5,8642.98
14515.9,8629.05
14530.6,8616.51
14546.4,8605.46
14563.3,8596.02
14581,8588.28
14590.2,8585.3
14590.1,8585.07
14796,8518.16
14978.5,9079.8
14772.6,9146.72
Z" /> 
<path style="fill:#840000; fill-opacity:1.0; 
stroke:#840000; stroke-width:0; stroke-opacity:1; 
stroke-linecap:round; stroke-linejoin:round;fill-rule:evenodd;"
d="M 15357.7,8335.67
15563.6,8268.75
15563.7,8268.98
15572.9,8265.99
15591.7,8261.85
15610.9,8259.58
15630.2,8259.2
15649.5,8260.72
15668.5,8264.12
15687.1,8269.36
15705.1,8276.4
15722.3,8285.17
15738.6,8295.59
15753.7,8307.55
15767.7,8320.93
15780.2,8335.62
15791.3,8351.47
15800.7,8368.33
15808.4,8386.03
15811.4,8395.21
15811.7,8395.14
15872.5,8582.36
15872.3,8582.43
15875.2,8591.61
15879.4,8610.48
15881.7,8629.67
15882,8648.98
15880.5,8668.24
15877.1,8687.26
15871.9,8705.85
15864.8,8723.84
15856.1,8741.05
15845.7,8757.32
15833.7,8772.49
15820.3,8786.42
15805.6,8798.96
15789.8,8810.01
15772.9,8819.45
15755.2,8827.19
15746,8830.18
15746.1,8830.4
15540.2,8897.31
Z" /> 
</g>
<g >
</g>
<g style="fill:#840000; fill-opacity:1.0; 
stroke:#840000; stroke-width:0; stroke-opacity:1; 
stroke-linecap:round; stroke-linejoin:round;">
<path style="fill:#840000; fill-opacity:1.0; 
stroke:#840000; stroke-width:0; stroke-opacity:1; 
stroke-linecap:round; stroke-linejoin:round;fill-rule:evenodd;"
d="M 13457.7,3435.67
13663.6,3368.75
13663.7,3368.98
13672.9,3365.99
13691.7,3361.85
13710.9,3359.58
13730.2,3359.2
13749.5,3360.72
13768.5,3364.12
13787.1,3369.36
13805.1,3376.4
13822.3,3385.17
13838.6,3395.59
13853.7,3407.55
13867.7,3420.93
13880.2,3435.62
13891.3,3451.47
13900.7,3468.33
13908.4,3486.03
13911.4,3495.21
13911.7,3495.14
13972.5,3682.36
13972.3,3682.43
13975.2,3691.61
13979.4,3710.48
13981.7,3729.67
13982,3748.98
13980.5,3768.24
13977.1,3787.26
13971.9,3805.85
13964.8,3823.84
13956.1,3841.05
13945.7,3857.32
13933.7,3872.49
13920.3,3886.42
13905.6,3898.96
13889.8,3910.01
13872.9,3919.45
13855.2,3927.19
13846,3930.18
13846.1,3930.4
13640.2,3997.31
Z" /> 
<path style="fill:#840000; fill-opacity:1.0; 
stroke:#840000; stroke-width:0; stroke-opacity:1; 
stroke-linecap:round; stroke-linejoin:round;fill-rule:evenodd;"
d="M 12872.5,4246.49
12863.3,4249.48
12844.4,4253.62
12825.3,4255.89
12806,4256.27
12786.7,4254.75
12767.7,4251.35
12749.1,4246.11
12731.1,4239.07
12713.9,4230.3
12697.6,4219.89
12682.4,4207.93
12668.5,4194.54
12656,4179.85
12644.9,4164
12635.5,4147.14
12627.7,4129.44
12624.8,4120.26
12624.5,4120.33
12563.7,3933.12
12563.9,3933.04
12560.9,3923.86
12556.8,3904.99
12554.5,3885.8
12554.2,3866.49
12555.7,3847.23
12559.1,3828.21
12564.3,3809.62
12571.3,3791.63
12580.1,3774.42
12590.5,3758.15
12602.5,3742.98
12615.9,3729.05
12630.6,3716.51
12646.4,3705.46
12663.3,3696.02
12681,3688.28
12690.2,3685.3
12690.1,3685.07
12896,3618.16
13078.5,4179.8
12872.6,4246.72
Z" /> 
<path style="fill:#840000; fill-opacity:1.0; 
stroke:#840000; stroke-width:0; stroke-opacity:1; 
stroke-linecap:round; stroke-linejoin:round;fill-rule:evenodd;"
d="M 13364.1,3466.08
13546.6,4027.73
13172.1,4149.39
12989.6,3587.74
Z" /> 
</g>
<g >
</g>
<g style="fill:#840000; fill-opacity:1.0; 
stroke:#840000; stroke-width:0; stroke-opacity:1; 
stroke-linecap:round; stroke-linejoin:round;">
<path style="fill:#840000; fill-opacity:1.0; 
stroke:#840000; stroke-width:0; stroke-opacity:1; 
stroke-linecap:round; stroke-linejoin:round;fill-rule:evenodd;"
d="M 14535.9,4647.66
14947.8,4513.83
15185,5243.97
14773.2,5377.8
Z" /> 
<path style="fill:#840000; fill-opacity:1.0; 
stroke:#840000; stroke-width:0; stroke-opacity:1; 
stroke-linecap:round; stroke-linejoin:round;fill-rule:evenodd;"
d="M 13599.8,4951.81
14011.7,4817.98
14249,5548.12
13837.1,5681.95
Z" /> 
<path style="fill:#840000; fill-opacity:1.0; 
stroke:#840000; stroke-width:0; stroke-opacity:1; 
stroke-linecap:round; stroke-linejoin:round;fill-rule:evenodd;"
d="M 12663.8,5255.96
13075.6,5122.13
13312.9,5852.27
12901,5986.1
Z" /> 
<path style="fill:#840000; fill-opacity:1.0; 
stroke:#840000; stroke-width:0; stroke-opacity:1; 
stroke-linecap:round; stroke-linejoin:round;fill-rule:evenodd;"
d="M 15223.3,6763.2
15635.2,6629.37
15872.4,7359.51
15460.5,7493.34
Z" /> 
<path style="fill:#840000; fill-opacity:1.0; 
stroke:#840000; stroke-width:0; stroke-opacity:1; 
stroke-linecap:round; stroke-linejoin:round;fill-rule:evenodd;"
d="M 14287.2,7067.35
14699.1,6933.52
14936.3,7663.66
14524.5,7797.49
Z" /> 
<path style="fill:#840000; fill-opacity:1.0; 
stroke:#840000; stroke-width:0; stroke-opacity:1; 
stroke-linecap:round; stroke-linejoin:round;fill-rule:evenodd;"
d="M 13351.1,7371.5
13763,7237.67
14000.3,7967.81
13588.4,8101.64
Z" /> 
</g>
<g >
</g>
<g style="fill:#C2C2C2; fill-opacity:1.0; 
stroke:#C2C2C2; stroke-width:0; stroke-opacity:1; 
stroke-linecap:round; stroke-linejoin:round;">
<circle cx="24468.1" cy="3407.74" r="157.48" /> 
</g>
<g style="fill:#C2C2C2; fill-opacity:1.0; 
stroke:#C2C2C2; stroke-width:39.3701; stroke-opacity:1; 
stroke-linecap:round; stroke-linejoin:round;">
</g>
<g style="fill:#C2C2C2; fill-opacity:1.0; 
stroke:#C2C2C2; stroke-width:0; stroke-opacity:1; 
stroke-linecap:round; stroke-linejoin:round;">
<circle cx="11768.1" cy="7007.74" r="157.48" /> 
</g>
<g style="fill:#C2C2C2; fill-opacity:1.0; 
stroke:#C2C2C2; stroke-width:39.3701; stroke-opacity:1; 
stroke-linecap:round; stroke-linejoin:round;">
</g>
<g style="fill:#C2C2C2; fill-opacity:1.0; 
stroke:#C2C2C2; stroke-width:0; stroke-opacity:1; 
stroke-linecap:round; stroke-linejoin:round;">
<circle cx="18753.8" cy="5422.04" r="157.48" /> 
</g>
<g style="fill:#C2C2C2; fill-opacity:1.0; 
stroke:#C2C2C2; stroke-width:39.3701; stroke-opacity:1; 
stroke-linecap:round; stroke-linejoin:round;">
</g>
<g style="fill:#C2C2C2; fill-opacity:1.0; 
stroke:#C2C2C2; stroke-width:0; stroke-opacity:1; 
stroke-linecap:round; stroke-linejoin:round;">
<circle cx="14868.1" cy="5607.74" r="157.48" /> 
</g>
<g style="fill:#C2C2C2; fill-opacity:1.0; 
stroke:#C2C2C2; stroke-width:39.3701; stroke-opacity:1; 
stroke-linecap:round; stroke-linejoin:round;">
</g>
<g style="fill:#C2C2C2; fill-opacity:1.0; 
stroke:#C2C2C2; stroke-width:0; stroke-opacity:1; 
stroke-linecap:round; stroke-linejoin:round;">
<circle cx="15168.1" cy="6507.74" r="157.48" /> 
</g>
<g style="fill:#C2C2C2; fill-opacity:1.0; 
stroke:#C2C2C2; stroke-width:39.3701; stroke-opacity:1; 
stroke-linecap:round; stroke-linejoin:round;">
</g>
<g style="fill:#C2C2C2; fill-opacity:1.0; 
stroke:#C2C2C2; stroke-width:0; stroke-opacity:1; 
stroke-linecap:round; stroke-linejoin:round;">
<circle cx="11868.1" cy="6507.74" r="157.48" /> 
</g>
<g style="fill:#C2C2C2; fill-opacity:1.0; 
stroke:#C2C2C2; stroke-width:39.3701; stroke-opacity:1; 
stroke-linecap:round; stroke-linejoin:round;">
</g>
<g style="fill:#C2C2C2; fill-opacity:1.0; 
stroke:#C2C2C2; stroke-width:0; stroke-opacity:1; 
stroke-linecap:round; stroke-linejoin:round;">
<circle cx="12968.1" cy="7807.74" r="157.48" /> 
</g>
<g style="fill:#C2C2C2; fill-opacity:1.0; 
stroke:#C2C2C2; stroke-width:39.3701; stroke-opacity:1; 
stroke-linecap:round; stroke-linejoin:round;">
</g>
<g style="fill:#C2C2C2; fill-opacity:1.0; 
stroke:#C2C2C2; stroke-width:0; stroke-opacity:1; 
stroke-linecap:round; stroke-linejoin:round;">
<circle cx="14368.1" cy="5807.74" r="157.48" /> 
</g>
<g style="fill:#C2C2C2; fill-opacity:1.0; 
stroke:#C2C2C2; stroke-width:39.3701; stroke-opacity:1; 
stroke-linecap:round; stroke-linejoin:round;">
</g>
<g style="fill:#C2C2C2; fill-opacity:1.0; 
stroke:#C2C2C2; stroke-width:0; stroke-opacity:1; 
stroke-linecap:round; stroke-linejoin:round;">
<circle cx="15068.1" cy="7107.74" r="157.48" /> 
</g>
<g style="fill:#C2C2C2; fill-opacity:1.0; 
stroke:#C2C2C2; stroke-width:39.3701; stroke-opacity:1; 
stroke-linecap:round; stroke-linejoin:round;">
</g>
<g >
</g>
<g style="fill:#840000; fill-opacity:1.0; 
stroke:#840000; stroke-width:39.3701; stroke-opacity:1; 
stroke-linecap:round; stroke-linejoin:round;">
</g>
<g style="fill:#840000; fill-opacity:1.0; 
stroke:#840000; stroke-width:393.701; stroke-opacity:1; 
stroke-linecap:round; stroke-linejoin:round;">
</g>
<g style="fill:#840000; fill-opacity:0.0; 
stroke:#840000; stroke-width:393.701; stroke-opacity:1; 
stroke-linecap:round; stroke-linejoin:round;">
<path d="M7690 8507
L7679 8496
" />
<path d="M10647 8507
L7690 8507
" />
<path d="M17919 4819
L16968 5007
" />
<path d="M10647 8507
L11468 7984
" />
<path d="M11468 7984
L16968 5007
" />
<path d="M17929 4810
L20765 4810
" />
<path d="M17919 4819
L17929 4810
" />
<path d="M21653 3922
L21653 3019
" />
<path d="M20765 4810
L21653 3922
" />
<path d="M21918 4810
L22388 5279
" />
<path d="M20765 4810
L21918 4810
" />
<path d="M21653 4545
L21918 4810
" />
<path d="M21653 3922
L21653 4545
" />
<path d="M6638 8507
L6179 8047
" />
<path d="M7690 8507
L6638 8507
" />
<path d="M6913 8782
L6638 8507
" />
<path d="M6913 10307
L6913 8782
" />
</g>
<g style="fill:#840000; fill-opacity:0.0; 
stroke:#840000; stroke-width:98.4252; stroke-opacity:1; 
stroke-linecap:round; stroke-linejoin:round;">
<path d="M17583 5422
L17220 5784
" />
<path d="M20143 5422
L18753 5422
" />
<path d="M11215 7207
L11215 7221
" />
<path d="M18753 5422
L17583 5422
" />
<path d="M13754 3649
L14860 4945
" />
<path d="M14681 8865
L13675 7669
" />
<path d="M14860 5600
L14868 5607
" />
<path d="M14860 4945
L14860 5600
" />
<path d="M13675 7497
L13675 7669
" />
<path d="M15168 6507
L13968 7007
" />
<path d="M13968 7007
L13675 7669
" />
<path d="M11059 6507
L11868 6507
" />
<path d="M10258 7309
L11059 6507
" />
<path d="M13537 7807
L13675 7669
" />
<path d="M12968 7807
L13537 7807
" />
<path d="M8805 9110
L8812 9103
" />
<path d="M7450 9870
L8217 9103
" />
<path d="M7450 10454
L7450 9870
" />
<path d="M7135 10770
L7450 10454
" />
<path d="M6691 10770
L7135 10770
" />
<path d="M6450 10529
L6691 10770
" />
<path d="M6450 9716
L6450 10529
" />
<path d="M8217 9103
L8812 9103
" />
<path d="M5370 8635
L6450 9716
" />
<path d="M20349 4223
L19754 4223
" />
<path d="M21191 2797
L21191 3381
" />
<path d="M21875 2557
L21431 2557
" />
<path d="M21431 2557
L21191 2797
" />
<path d="M22116 2797
L21875 2557
" />
<path d="M22116 3611
L22116 2797
" />
<path d="M21191 3381
L20349 4223
" />
<path d="M23197 4691
L22116 3611
" />
<path d="M12781 3965
L12988 5554
" />
<path d="M15654 8549
L15547 7061
" />
<path d="M15547 7061
L18308 6018
" />
<path d="M14317 5858
L14368 5807
" />
<path d="M15501 7107
L15547 7061
" />
<path d="M15068 7107
L15501 7107
" />
<path d="M13399 5965
L12988 5554
" />
<path d="M14210 5965
L13399 5965
" />
<path d="M14368 5807
L14210 5965
" />
<path d="M13268 3807
L13924 5249
" />
<path d="M13268 3444
L14332 2380
" />
<path d="M13268 3807
L13268 3444
" />
<path d="M22014 2380
L20540 2380
" />
<path d="M22653 3019
L22014 2380
" />
<path d="M20540 2380
L20659 2380
" />
<path d="M14332 2380
L20540 2380
" />
<path d="M15168 8707
L14611 7365
" />
<path d="M15168 9071
L15168 8707
" />
<path d="M13291 10947
L15168 9071
" />
<path d="M6553 10947
L13291 10947
" />
<path d="M5913 10307
L6553 10947
" />
</g>
<g >
</g>
<g style="fill:#840000; fill-opacity:0.0; 
stroke:#840000; stroke-width:98.4252; stroke-opacity:1; 
stroke-linecap:round; stroke-linejoin:round;">
<g >
</g>
<g style="fill:#840000; fill-opacity:1.0; 
stroke:#840000; stroke-width:100; stroke-opacity:1; 
stroke-linecap:round; stroke-linejoin:round;">
<path style="fill:#840000; fill-opacity:1.0; 
stroke:#840000; stroke-width:100; stroke-opacity:1; 
stroke-linecap:round; stroke-linejoin:round;fill-rule:evenodd;"
d="M 15693.4,11002.6
13659.8,11002.6
15369.3,9293.15
15380.7,9283.78
15393.8,9267.82
15418.1,9238.22
15442.1,9193.32
15524.2,9166.64
15569.3,9146.91
15569.5,9146.79
15569.7,9146.78
15617.8,9136.23
15823.7,9069.31
15832.6,9065.44
15841.8,9062.45
15886.9,9042.72
15920.6,9023.86
15961,8995.7
15990.3,8970.64
16024.4,8935.14
16048.3,8904.84
16074.9,8863.36
16092.4,8828.98
16110.4,8783.12
16120.8,8745.98
16129.5,8697.5
16132.5,8659.03
16131.5,8609.79
16127,8571.47
16116.5,8523.37
16113.5,8514.17
16111.4,8504.73
16050.6,8317.51
16046.7,8308.65
16043.7,8299.45
16024,8254.34
16005.1,8220.67
15977,8180.27
15951.9,8150.92
15924.3,8124.36
15887.9,7618.62
15950,7598.43
15995.2,7578.69
16035.6,7550.53
16069.7,7515.03
16096.2,7473.56
16114.2,7427.7
16122.9,7379.22
16121.9,7329.99
16111.3,7281.88
16078.5,7180.74
17923,6483.86
17933.5,6493.91
17974.9,6520.46
18020.8,6538.41
18069.3,6547.07
18118.5,6546.1
18166.6,6535.55
18728.3,6353.06
18773.4,6333.32
18813.8,6305.16
18816.7,6302.14
21172.2,6302.14
21301.8,6482.57
21334.5,6519.38
21373.8,6549.11
21418.1,6570.6
21465.8,6583.03
21514.9,6585.93
21563.7,6579.18
21610.2,6563.05
21652.7,6538.15
21831.7,6406.59
21845.5,6319.29
21568,5937.32
21186,6214.84
21172.2,6302.14
18816.7,6302.14
18847.9,6269.67
18874.5,6228.19
18892.4,6182.33
18901.1,6133.85
18900.1,6084.62
18889.5,6036.52
18779.4,5697.53
19659.9,5697.53
19684.8,5778.13
19704.5,5823.24
19732.7,5863.65
19768.2,5897.78
19809.6,5924.33
19855.5,5942.28
19904,5950.93
19953.2,5949.97
20001.3,5939.41
20174.8,5881.78
20214.9,5803.03
20111.6,5485.04
19700,5618.78
19659.9,5697.53
18779.4,5697.53
18767.9,5662.08
18748.1,5616.97
18720,5576.56
18684.5,5542.43
18643,5515.88
18597.2,5497.93
18548.7,5489.28
18499.4,5490.24
18451.3,5500.8
17889.7,5683.29
17844.6,5703.02
17804.2,5731.18
17776,5760.44
17764.5,5726.22
17685.8,5686.09
17283.5,5816.78
17286,5824.27
17190.9,5855.17
17188.4,5847.68
16786.2,5978.38
16746.1,6057.13
16781.6,6170.49
16801.4,6215.61
16829.5,6256.01
16830.5,6256.91
15893.3,6610.97
15874.1,6551.74
15854.4,6506.62
15826.2,6466.22
15790.7,6432.09
15749.2,6405.54
15703.4,6387.59
15654.9,6378.94
15605.7,6379.9
15560.1,6389.89
15559.9,6388.88
15529.2,6314.72
15519.4,6299.99
16631.5,5698
16638.7,5730.53
16676.5,5843.15
16755.3,5883.27
17157.5,5752.58
17155.1,5745.09
17250.2,5714.19
17252.6,5721.68
17654.9,5590.98
17695,5512.23
17659.4,5398.87
17639.7,5353.75
17629.8,5339.58
17631.5,5340.23
17680,5348.89
17729.2,5347.92
17777.3,5337.37
18024.4,5257.08
19560.6,5257.08
19560.3,5257.88
19551.6,5306.36
19552.6,5355.59
19563.1,5403.69
19590.3,5483.54
19669.1,5523.67
20080.7,5389.94
20078.3,5382.45
20173.4,5351.55
20175.8,5359.03
20183.3,5356.6
20214.2,5451.71
20206.7,5454.14
20310,5772.13
20388.8,5812.25
20563,5756.92
20608.1,5737.19
20648.5,5709.03
20682.6,5673.53
20709.2,5632.05
20727.1,5586.2
20735.8,5537.72
20734.9,5492.22
21003,5562.17
20964,5590.21
20927.2,5622.93
20897.5,5662.19
20876,5706.5
20863.5,5754.15
20860.6,5803.31
20867.4,5852.09
20883.5,5898.62
20908.4,5941.1
21040,6120.11
21127.3,6133.94
21509.2,5856.42
21504.6,5850.05
21585.5,5791.27
21590.1,5797.64
21596.5,5793.01
21655.3,5873.91
21648.9,5878.54
21926.4,6260.52
22013.7,6274.34
22194.2,6144.75
22231,6112.04
22260.7,6072.77
22282.2,6028.46
22294.6,5980.81
22297.5,5931.65
22290.8,5882.87
22280.9,5854.48
22330.5,5864.34
22445.7,5864.34
22558.6,5841.87
22665,5797.8
22760.8,5733.82
22842.2,5652.39
22906.2,5556.63
22950.3,5450.23
22972.7,5337.28
22972.7,5249.65
22981.7,5235.48
23026.6,5254.09
23139.5,5276.56
23254.7,5276.56
23367.7,5254.09
23474.1,5210.02
23569.8,5146.03
23651.2,5064.6
23715.2,4968.84
23759.3,4862.44
23781.8,4749.49
23781.8,4634.33
23759.3,4521.38
23715.2,4414.98
23651.2,4319.22
23569.8,4237.79
23474.1,4173.8
23367.7,4129.73
23254.7,4107.26
23139.5,4107.26
23052.9,4124.5
22529.4,3601.02
22525.8,3590.42
22596.2,3604.42
22711.4,3604.42
22824.3,3581.96
22930.7,3537.89
23026.5,3473.9
23107.9,3392.47
23171.9,3296.71
23216,3190.31
23238.5,3077.36
23238.5,2962.2
23216,2849.24
23171.9,2742.85
23107.9,2647.09
23026.5,2565.65
22930.7,2501.67
22824.3,2457.6
22711.4,2435.13
22596.2,2435.13
22509.6,2452.37
22382.1,2324.9
27637.2,2324.9
Z" /> 
<path style="fill:#840000; fill-opacity:1.0; 
stroke:#840000; stroke-width:100; stroke-opacity:1; 
stroke-linecap:round; stroke-linejoin:round;fill-rule:evenodd;"
d="M 13066.9,3222.32
13055.5,3231.69
13046.1,3243.1
13046.1,3243.1
13018.1,3277.25
12994.1,3322.15
12912,3348.83
12866.9,3368.56
12866.7,3368.68
12866.5,3368.69
12818.4,3379.24
12612.5,3446.16
12603.6,3450.03
12594.4,3453.02
12549.3,3472.75
12515.6,3491.61
12475.2,3519.77
12445.9,3544.83
12411.7,3580.33
12387.8,3610.63
12361.3,3652.11
12343.8,3686.49
12325.8,3732.35
12315.4,3769.49
12306.7,3817.97
12303.7,3856.44
12304.6,3905.68
12309.2,3944
12319.7,3992.1
12322.7,4001.3
12324.8,4010.74
12385.6,4197.96
12389.5,4206.82
12392.5,4216.02
12412.2,4261.14
12431.1,4294.8
12459.2,4335.2
12484.3,4364.55
12519.8,4398.68
12537.8,4412.92
12615.3,5007.55
12586.1,5017.04
12541,5036.78
12500.6,5064.94
12466.5,5100.44
12439.9,5141.91
12422,5187.77
12413.3,5236.25
12414.3,5285.49
12424.9,5333.59
12662.1,6063.73
12681.8,6108.85
12710,6149.25
12745.5,6183.38
12787,6209.93
12832.8,6227.88
12881.3,6236.54
12930.5,6235.57
12978.6,6225.01
13172.9,6161.88
13177.5,6166.4
13186.8,6177.81
13198.2,6187.18
13232.4,6215.21
13284.4,6242.99
13340.8,6260.1
13384.7,6264.43
13384.7,6264.43
13399.4,6265.88
13414.1,6264.43
13707.6,6264.43
11804.6,7294.41
11797.5,7261.88
11759.6,7149.27
11680.9,7109.14
11278.7,7239.84
11281.1,7247.33
11186,7278.23
11183.5,7270.74
11176.1,7273.17
11145.2,7178.07
11152.6,7175.63
11150.2,7168.14
11245.3,7137.24
11247.8,7144.73
11650,7014.04
11690.1,6935.28
11667.7,6863.93
11675.1,6868.84
11749.2,6899.56
11828,6915.22
11908.2,6915.22
11987,6899.56
12061.1,6868.84
12127.8,6824.25
12184.6,6767.49
12229.2,6700.75
12259.9,6626.59
12275.6,6547.87
12275.6,6467.6
12259.9,6388.88
12229.2,6314.72
12184.6,6247.98
12127.8,6191.22
12061.1,6146.63
11987,6115.91
11908.2,6100.26
11828,6100.26
11749.2,6115.91
11675.1,6146.63
11608.3,6191.22
11591,6208.52
11074.5,6208.52
11059.8,6207.08
11045.1,6208.52
11045.1,6208.52
11001.2,6212.85
10944.8,6229.96
10892.8,6257.75
10847.2,6295.14
10837.9,6306.55
10329.3,6815.14
9838.94,6974.46
9793.82,6994.19
9753.42,7022.35
9719.29,7057.85
9692.74,7099.33
9674.79,7145.18
9666.14,7193.66
9667.1,7242.9
9677.66,7291
9799.32,7665.43
9819.05,7710.55
9847.21,7750.95
9882.71,7785.08
9924.18,7811.63
9970.04,7829.58
10018.5,7838.24
10067.8,7837.27
10115.9,7826.72
10677.5,7644.23
10722.6,7624.49
10763,7596.34
10774,7584.89
10776.7,7593.55
10796.5,7638.66
10824.6,7679.07
10860.1,7713.2
10901.6,7739.75
10939.5,7754.56
10937.7,7757.37
10919.2,7804.59
10517.3,8060.67
9008.54,8060.67
9015.6,8021.16
9014.63,7971.92
9004.08,7923.82
8976.86,7843.97
8898.11,7803.84
8486.51,7937.58
8488.95,7945.07
8393.84,7975.97
8391.41,7968.48
8383.92,7970.91
8353.02,7875.81
8360.51,7873.38
8257.19,7555.39
8196.54,7524.49
8352.29,7524.49
8455.61,7842.47
8867.2,7708.74
8907.33,7629.98
8882.42,7549.39
8862.68,7504.27
8834.52,7463.87
8799.02,7429.74
8757.55,7403.19
8711.69,7385.24
8663.21,7376.58
8613.98,7377.55
8565.87,7388.1
8392.42,7445.73
8352.29,7524.49
8196.54,7524.49
8178.43,7515.26
8004.23,7570.59
7959.11,7590.33
7918.71,7618.49
7884.58,7653.99
7858.03,7695.46
7840.08,7741.32
7831.42,7789.8
7832.39,7839.03
7842.94,7887.14
7870.16,7966.98
7948.91,8007.11
7889.47,8026.42
7899.64,8057.74
7773.11,8057.74
7767.12,8055.92
7679.52,8047.29
7591.93,8055.92
7585.94,8057.74
7161.02,8057.74
7240.74,7999.15
7254.57,7911.85
6977.05,7529.87
6970.68,7534.5
6924.61,7471.1
7057.95,7471.1
7335.47,7853.07
7422.77,7866.9
7603.2,7737.3
7640.01,7704.59
7669.74,7665.32
7691.23,7621.02
7703.66,7573.37
7706.56,7524.21
7699.81,7475.42
7683.68,7428.9
7658.78,7386.41
7527.23,7207.4
7439.93,7193.58
7057.95,7471.1
6924.61,7471.1
6911.9,7453.6
6918.27,7448.97
6640.75,7067
6553.45,7053.17
6373.02,7182.77
6336.21,7215.48
6306.49,7254.74
6285,7299.05
6272.56,7346.7
6269.66,7395.86
6276.41,7444.64
6286.25,7473.04
6236.68,7463.17
6121.51,7463.17
6008.56,7485.64
5902.16,7529.71
5806.41,7593.7
5724.97,7675.13
5660.99,7770.89
5616.92,7877.28
5594.45,7990.24
5594.45,8095.73
5540.61,8073.43
5427.66,8050.96
5312.5,8050.96
5199.54,8073.43
5093.14,8117.5
4997.39,8181.48
4915.95,8262.91
4851.97,8358.67
4807.9,8465.07
4785.43,8578.02
4785.43,8693.19
4807.9,8806.14
4851.97,8912.54
4915.95,9008.29
4997.39,9089.73
5093.14,9153.71
5199.54,9197.78
5312.5,9220.25
5427.66,9220.25
5514.33,9203.01
6050.17,9738.84
5970.97,9723.09
5855.8,9723.09
5742.85,9745.56
5636.45,9789.63
5540.7,9853.61
5459.26,9935.05
5395.28,10030.8
5351.21,10137.2
5328.74,10250.2
5328.74,10365.3
5351.21,10478.3
5395.28,10584.7
5459.26,10680.4
5540.7,10761.9
5636.45,10825.8
5742.85,10869.9
5855.8,10892.4
5970.97,10892.4
6057.64,10875.1
6185.12,11002.6
929.959,11002.6
6427.78,7008.22
6721.65,7008.22
6999.17,7390.19
7381.15,7112.67
7394.97,7025.37
7265.38,6844.94
7232.67,6808.13
7193.4,6778.41
7149.09,6756.92
7101.44,6744.48
7052.28,6741.58
7003.5,6748.33
6956.97,6764.47
6914.49,6789.37
6735.48,6920.92
6721.65,7008.22
6427.78,7008.22
12873.8,2324.9
13964.3,2324.9
Z" /> 
<path style="fill:#840000; fill-opacity:1.0; 
stroke:#840000; stroke-width:100; stroke-opacity:1; 
stroke-linecap:round; stroke-linejoin:round;fill-rule:evenodd;"
d="M 12576.3,7926.59
12607,8000.75
12651.6,8067.49
12708.3,8124.25
12775.1,8168.84
12849.2,8199.56
12928,8215.22
13008.2,8215.22
13087,8199.56
13161.1,8168.84
13227.8,8124.25
13245.1,8106.95
13326,8106.95
13349.5,8179.27
13369.2,8224.39
13397.4,8264.79
13432.9,8298.92
13474.3,8325.47
13520.2,8343.42
13568.7,8352.07
13617.9,8351.11
13666,8340.55
13809.6,8293.9
14203.8,8762.83
14204.6,8805.68
14209.2,8844
14219.7,8892.1
14222.7,8901.3
14224.8,8910.74
14285.6,9097.96
14289.5,9106.82
14292.5,9116.02
14312.2,9161.14
14331.1,9194.8
14359.2,9235.2
14384.3,9264.55
14419.8,9298.68
14450.1,9322.57
14476.6,9339.53
13167.8,10648.3
8498.66,10648.3
8499.24,10642.4
8498.03,10420.2
8435.53,10357.7
7963.39,10357.7
7963.39,10365.6
7863.39,10365.6
7863.39,10357.7
7855.51,10357.7
7855.51,10257.7
7863.39,10257.7
7863.39,10249.9
7963.39,10249.9
7963.39,10257.7
8435.53,10257.7
8498.03,10195.2
8499.24,9973.09
8494.41,9924.08
8480.12,9876.96
8456.9,9833.53
8425.66,9795.46
8387.6,9764.22
8344.17,9741
8297.04,9726.71
8248.03,9721.88
8025.89,9723.09
7963.39,9785.59
7963.39,9781.28
8336.99,9407.67
8353.91,9459.75
8373.65,9504.87
8401.81,9545.27
8437.31,9579.4
8478.78,9605.95
8524.64,9623.9
8573.12,9632.56
8622.35,9631.59
8670.46,9621.04
9232.1,9438.54
9277.22,9418.81
9317.62,9390.65
9351.75,9355.15
9378.3,9313.68
9396.25,9267.82
9404.91,9219.34
9403.94,9170.1
9393.39,9122
9338.92,8954.37
10242,8954.37
10272,8983.26
10313.5,9009.81
10359.4,9027.76
10407.8,9036.42
10457.1,9035.45
10505.2,9024.9
10805,8927.48
10810.3,8925.99
10811.6,8925.33
11066.8,8842.41
11111.9,8822.67
11152.3,8794.52
11186.5,8759.02
11213,8717.54
11231,8671.68
11232.2,8664.85
11540.2,8468.6
11795.1,8385.79
11857.8,8358.32
11914.1,8319.13
11961.6,8269.72
11998.5,8211.99
12001.7,8203.98
12570.2,7896.24
Z" /> 
<path style="fill:#840000; fill-opacity:1.0; 
stroke:#840000; stroke-width:100; stroke-opacity:1; 
stroke-linecap:round; stroke-linejoin:round;fill-rule:evenodd;"
d="M 20068,2685.13
20069.2,2907.28
20131.7,2969.78
20603.8,2969.78
20603.8,2961.9
20703.8,2961.9
20703.8,2969.78
20711.7,2969.78
20711.7,3069.78
20703.8,3069.78
20703.8,3077.65
20603.8,3077.65
20603.8,3069.78
20131.7,3069.78
20069.2,3132.28
20068,3354.42
20072.8,3403.43
20087.1,3450.56
20110.3,3493.99
20141.5,3532.06
20179.6,3563.3
20223,3586.51
20270.2,3600.81
20319.2,3605.63
20452.4,3604.91
20219.7,3887.52
20213.3,3867.77
20193.5,3822.65
20165.4,3782.25
20129.9,3748.12
20088.4,3721.57
20042.6,3703.62
19994.1,3694.96
19944.8,3695.93
19896.7,3706.48
19335.1,3888.97
19290,3908.71
19249.6,3936.86
19215.4,3972.36
19188.9,4013.84
19170.9,4059.7
19162.3,4108.18
19163.3,4157.41
19173.8,4205.51
19225.1,4363.38
18315.1,4363.38
18295.2,4344.25
18253.7,4317.7
18207.8,4299.75
18159.4,4291.09
18110.1,4292.06
18062,4302.62
17860.9,4367.96
17841.8,4369.84
17757.6,4395.4
17754.3,4397.15
17232.9,4500.03
17199.8,4487.07
17132.3,4475.02
17063.8,4476.36
16996.8,4491.05
16641.1,4606.63
16578.3,4634.1
16522.1,4673.29
16474.6,4722.7
16437.7,4780.42
16434.5,4788.43
15416,5339.7
15426.8,5312.16
15435.5,5263.68
15434.5,5214.45
15424,5166.35
15186.7,4436.2
15167,4391.09
15138.8,4350.68
15103.3,4316.55
15061.8,4290
15016,4272.05
14967.5,4263.4
14918.3,4264.36
14870.2,4274.92
14722.4,4322.91
14232.3,3748.27
14231.5,3709.79
14227,3671.47
14216.5,3623.37
14213.5,3614.17
14211.4,3604.73
14150.6,3417.51
14146.7,3408.65
14143.7,3399.45
14124,3354.34
14105.1,3320.67
14077,3280.27
14051.9,3250.92
14016.4,3216.79
13986.1,3192.9
13959.6,3175.94
14456.3,2679.22
20068.5,2679.22
Z" /> 
</g>
</g>
<g style="fill:#840000; fill-opacity:1.0; 
stroke:#840000; stroke-width:100; stroke-opacity:1; 
stroke-linecap:round; stroke-linejoin:round;">
<g >
<path style="fill:#840000; fill-opacity:1.0; 
stroke:#840000; stroke-width:100; stroke-opacity:1; 
stroke-linecap:round; stroke-linejoin:round;fill-rule:evenodd;"
d="M 6525.04,8438.91
6626.34,8424.36
6662.9,8376.07
6702.38,8303.45
6728.09,8337.74
6734.71,8344.96
6742.62,8350.76
6751.5,8354.9
6761.02,8357.23
6768.09,8357.74
8023.57,8357.74
8047.99,8381.22
8089.47,8407.77
8135.33,8425.72
8183.81,8434.37
8233.04,8433.41
8281.14,8422.85
8418.09,8378.36
8418.09,8684.04
8270.93,8804.45
8232.55,8804.45
8217.86,8803
8203.16,8804.45
8203.16,8804.45
8159.2,8808.78
8102.8,8825.89
8050.82,8853.67
8005.26,8891.06
7995.89,8902.48
7249.61,9648.76
7238.19,9658.13
7228.82,9669.54
7228.82,9669.55
7200.8,9703.69
7173.01,9755.67
7164.73,9782.99
7111.85,9757.8
7053.89,9740.23
6963.39,9787.99
6963.39,10257.7
6971.26,10257.7
6971.26,10357.7
6855.51,10357.7
6855.51,10257.7
6863.39,10257.7
6863.39,9787.99
6772.88,9740.23
6750,9747.16
6750,9731.01
6751.45,9716.31
6750,9701.62
6750,9701.62
6745.67,9657.66
6728.56,9601.26
6714.98,9575.84
6700.78,9549.28
6672.76,9515.13
6663.39,9503.71
6651.97,9494.35
5939.72,8782.1
5953.6,8698.86
5954.72,8693.19
5954.72,8692.09
5971.43,8591.84
6002.37,8605.12
6114.49,8628.89
6229.1,8630.32
6341.78,8609.38
6399,8589.53
6444.14,8497.69
6211.3,8177.2
6289.47,8114.67
Z" /> 
</g>
</g>
<g style="fill:#840000; fill-opacity:1.0; 
stroke:#840000; stroke-width:100; stroke-opacity:1; 
stroke-linecap:round; stroke-linejoin:round;">
<g >
<path style="fill:#840000; fill-opacity:1.0; 
stroke:#840000; stroke-width:100; stroke-opacity:1; 
stroke-linecap:round; stroke-linejoin:round;fill-rule:evenodd;"
d="M 21711.7,3069.78
21703.8,3069.78
21703.8,3539.52
21794.3,3587.29
21817.2,3580.35
21817.2,3596.51
21815.8,3611.2
21817.2,3625.89
21817.2,3625.9
21821.5,3669.86
21838.6,3726.26
21866.4,3778.24
21882.1,3797.35
21903.8,3823.8
21915.2,3833.17
22478.2,4396.13
22590.6,4733.47
22564.8,4722.4
22452.7,4698.63
22338.1,4697.19
22225.4,4718.14
22168.2,4737.98
22123.1,4829.82
22399.2,5209.86
22405.5,5205.23
22464.3,5286.13
22457.9,5290.76
22462.6,5297.13
22381.7,5355.91
22377,5349.54
22370.7,5354.16
22311.9,5273.26
22318.3,5268.63
22042.2,4888.6
21940.9,4903.16
21904.3,4951.45
21849.6,5052.14
21815.5,5161.58
21810.8,5205.88
21784.4,5185.86
21740.1,5164.36
21692.4,5151.93
21643.3,5149.03
21594.5,5155.78
21547.9,5171.91
21505.5,5196.81
21316.7,5333.96
20631.6,5155.24
20602.6,5065.95
20582.9,5020.83
20554.7,4980.43
20519.2,4946.3
20477.7,4919.75
20431.9,4901.8
20383.4,4893.14
20334.2,4894.11
20286.1,4904.66
20012.2,4993.65
19918.1,4969.11
19918.1,4725.67
20012.4,4611.13
20173.7,4558.74
20218.8,4539.01
20241.6,4523.07
20334.6,4523.07
20349.3,4524.52
20364,4523.07
20364,4523.07
20408,4518.74
20464.4,4501.63
20516.4,4473.85
20561.9,4436.45
20571.3,4425.04
21392.4,3603.95
21403.8,3594.58
21433,3559.05
21455.3,3569.71
21513.3,3587.29
21603.8,3539.52
21603.8,3069.78
21595.9,3069.78
21595.9,3057.74
21711.7,3057.74
Z" /> 
</g>
</g>
</g>
<g style="fill:#FFFFFF; fill-opacity:1.0; 
stroke:#FFFFFF; stroke-width:100; stroke-opacity:1; 
stroke-linecap:round; stroke-linejoin:round;">
</g>
<g style="fill:#FFFFFF; fill-opacity:1.0; 
stroke:#FFFFFF; stroke-width:0; stroke-opacity:1; 
stroke-linecap:round; stroke-linejoin:round;">
<circle cx="24468.1" cy="3407.74" r="78.7402" /> 
</g>
<g style="fill:#FFFFFF; fill-opacity:1.0; 
stroke:#FFFFFF; stroke-width:39.3701; stroke-opacity:1; 
stroke-linecap:round; stroke-linejoin:round;">
</g>
<g style="fill:#FFFFFF; fill-opacity:1.0; 
stroke:#FFFFFF; stroke-width:0; stroke-opacity:1; 
stroke-linecap:round; stroke-linejoin:round;">
<circle cx="11768.1" cy="7007.74" r="78.7402" /> 
</g>
<g style="fill:#FFFFFF; fill-opacity:1.0; 
stroke:#FFFFFF; stroke-width:39.3701; stroke-opacity:1; 
stroke-linecap:round; stroke-linejoin:round;">
</g>
<g style="fill:#FFFFFF; fill-opacity:1.0; 
stroke:#FFFFFF; stroke-width:0; stroke-opacity:1; 
stroke-linecap:round; stroke-linejoin:round;">
<circle cx="18753.8" cy="5422.04" r="78.7402" /> 
</g>
<g style="fill:#FFFFFF; fill-opacity:1.0; 
stroke:#FFFFFF; stroke-width:39.3701; stroke-opacity:1; 
stroke-linecap:round; stroke-linejoin:round;">
</g>
<g style="fill:#FFFFFF; fill-opacity:1.0; 
stroke:#FFFFFF; stroke-width:0; stroke-opacity:1; 
stroke-linecap:round; stroke-linejoin:round;">
<circle cx="14868.1" cy="5607.74" r="78.7402" /> 
</g>
<g style="fill:#FFFFFF; fill-opacity:1.0; 
stroke:#FFFFFF; stroke-width:39.3701; stroke-opacity:1; 
stroke-linecap:round; stroke-linejoin:round;">
</g>
<g style="fill:#FFFFFF; fill-opacity:1.0; 
stroke:#FFFFFF; stroke-width:0; stroke-opacity:1; 
stroke-linecap:round; stroke-linejoin:round;">
<circle cx="15168.1" cy="6507.74" r="78.7402" /> 
</g>
<g style="fill:#FFFFFF; fill-opacity:1.0; 
stroke:#FFFFFF; stroke-width:39.3701; stroke-opacity:1; 
stroke-linecap:round; stroke-linejoin:round;">
</g>
<g style="fill:#FFFFFF; fill-opacity:1.0; 
stroke:#FFFFFF; stroke-width:0; stroke-opacity:1; 
stroke-linecap:round; stroke-linejoin:round;">
<circle cx="11868.1" cy="6507.74" r="78.7402" /> 
</g>
<g style="fill:#FFFFFF; fill-opacity:1.0; 
stroke:#FFFFFF; stroke-width:39.3701; stroke-opacity:1; 
stroke-linecap:round; stroke-linejoin:round;">
</g>
<g style="fill:#FFFFFF; fill-opacity:1.0; 
stroke:#FFFFFF; stroke-width:0; stroke-opacity:1; 
stroke-linecap:round; stroke-linejoin:round;">
<circle cx="12968.1" cy="7807.74" r="78.7402" /> 
</g>
<g style="fill:#FFFFFF; fill-opacity:1.0; 
stroke:#FFFFFF; stroke-width:39.3701; stroke-opacity:1; 
stroke-linecap:round; stroke-linejoin:round;">
</g>
<g style="fill:#FFFFFF; fill-opacity:1.0; 
stroke:#FFFFFF; stroke-width:0; stroke-opacity:1; 
stroke-linecap:round; stroke-linejoin:round;">
<circle cx="14368.1" cy="5807.74" r="78.7402" /> 
</g>
<g style="fill:#FFFFFF; fill-opacity:1.0; 
stroke:#FFFFFF; stroke-width:39.3701; stroke-opacity:1; 
stroke-linecap:round; stroke-linejoin:round;">
</g>
<g style="fill:#FFFFFF; fill-opacity:1.0; 
stroke:#FFFFFF; stroke-width:0; stroke-opacity:1; 
stroke-linecap:round; stroke-linejoin:round;">
<circle cx="15068.1" cy="7107.74" r="78.7402" /> 
</g>
<g style="fill:#FFFFFF; fill-opacity:1.0; 
stroke:#FFFFFF; stroke-width:39.3701; stroke-opacity:1; 
stroke-linecap:round; stroke-linejoin:round;">
</g>
<g style="fill:#FFFFFF; fill-opacity:1.0; 
stroke:#FFFFFF; stroke-width:0; stroke-opacity:1; 
stroke-linecap:round; stroke-linejoin:round;">
<circle cx="6988.11" cy="7460.03" r="196.85" /> 
</g>
<g style="fill:#FFFFFF; fill-opacity:1.0; 
stroke:#FFFFFF; stroke-width:39.3701; stroke-opacity:1; 
stroke-linecap:round; stroke-linejoin:round;">
</g>
<g style="fill:#FFFFFF; fill-opacity:1.0; 
stroke:#FFFFFF; stroke-width:0; stroke-opacity:1; 
stroke-linecap:round; stroke-linejoin:round;">
<circle cx="6179.09" cy="8047.82" r="196.85" /> 
</g>
<g style="fill:#FFFFFF; fill-opacity:1.0; 
stroke:#FFFFFF; stroke-width:39.3701; stroke-opacity:1; 
stroke-linecap:round; stroke-linejoin:round;">
</g>
<g style="fill:#FFFFFF; fill-opacity:1.0; 
stroke:#FFFFFF; stroke-width:0; stroke-opacity:1; 
stroke-linecap:round; stroke-linejoin:round;">
<circle cx="5370.08" cy="8635.6" r="196.85" /> 
</g>
<g style="fill:#FFFFFF; fill-opacity:1.0; 
stroke:#FFFFFF; stroke-width:39.3701; stroke-opacity:1; 
stroke-linecap:round; stroke-linejoin:round;">
</g>
<g style="fill:#FFFFFF; fill-opacity:1.0; 
stroke:#FFFFFF; stroke-width:0; stroke-opacity:1; 
stroke-linecap:round; stroke-linejoin:round;">
<circle cx="22653.8" cy="3019.78" r="196.85" /> 
</g>
<g style="fill:#FFFFFF; fill-opacity:1.0; 
stroke:#FFFFFF; stroke-width:39.3701; stroke-opacity:1; 
stroke-linecap:round; stroke-linejoin:round;">
</g>
<g style="fill:#FFFFFF; fill-opacity:1.0; 
stroke:#FFFFFF; stroke-width:0; stroke-opacity:1; 
stroke-linecap:round; stroke-linejoin:round;">
<circle cx="21653.8" cy="3019.78" r="196.85" /> 
</g>
<g style="fill:#FFFFFF; fill-opacity:1.0; 
stroke:#FFFFFF; stroke-width:39.3701; stroke-opacity:1; 
stroke-linecap:round; stroke-linejoin:round;">
</g>
<g style="fill:#FFFFFF; fill-opacity:1.0; 
stroke:#FFFFFF; stroke-width:0; stroke-opacity:1; 
stroke-linecap:round; stroke-linejoin:round;">
<circle cx="20653.8" cy="3019.78" r="196.85" /> 
</g>
<g style="fill:#FFFFFF; fill-opacity:1.0; 
stroke:#FFFFFF; stroke-width:39.3701; stroke-opacity:1; 
stroke-linecap:round; stroke-linejoin:round;">
</g>
<g style="fill:#FFFFFF; fill-opacity:1.0; 
stroke:#FFFFFF; stroke-width:0; stroke-opacity:1; 
stroke-linecap:round; stroke-linejoin:round;">
<circle cx="7913.39" cy="10307.7" r="196.85" /> 
</g>
<g style="fill:#FFFFFF; fill-opacity:1.0; 
stroke:#FFFFFF; stroke-width:39.3701; stroke-opacity:1; 
stroke-linecap:round; stroke-linejoin:round;">
</g>
<g style="fill:#FFFFFF; fill-opacity:1.0; 
stroke:#FFFFFF; stroke-width:0; stroke-opacity:1; 
stroke-linecap:round; stroke-linejoin:round;">
<circle cx="6913.39" cy="10307.7" r="196.85" /> 
</g>
<g style="fill:#FFFFFF; fill-opacity:1.0; 
stroke:#FFFFFF; stroke-width:39.3701; stroke-opacity:1; 
stroke-linecap:round; stroke-linejoin:round;">
</g>
<g style="fill:#FFFFFF; fill-opacity:1.0; 
stroke:#FFFFFF; stroke-width:0; stroke-opacity:1; 
stroke-linecap:round; stroke-linejoin:round;">
<circle cx="5913.39" cy="10307.7" r="196.85" /> 
</g>
<g style="fill:#FFFFFF; fill-opacity:1.0; 
stroke:#FFFFFF; stroke-width:39.3701; stroke-opacity:1; 
stroke-linecap:round; stroke-linejoin:round;">
</g>
<g style="fill:#FFFFFF; fill-opacity:1.0; 
stroke:#FFFFFF; stroke-width:0; stroke-opacity:1; 
stroke-linecap:round; stroke-linejoin:round;">
<circle cx="23197.1" cy="4691.91" r="196.85" /> 
</g>
<g style="fill:#FFFFFF; fill-opacity:1.0; 
stroke:#FFFFFF; stroke-width:39.3701; stroke-opacity:1; 
stroke-linecap:round; stroke-linejoin:round;">
</g>
<g style="fill:#FFFFFF; fill-opacity:1.0; 
stroke:#FFFFFF; stroke-width:0; stroke-opacity:1; 
stroke-linecap:round; stroke-linejoin:round;">
<circle cx="22388.1" cy="5279.7" r="196.85" /> 
</g>
<g style="fill:#FFFFFF; fill-opacity:1.0; 
stroke:#FFFFFF; stroke-width:39.3701; stroke-opacity:1; 
stroke-linecap:round; stroke-linejoin:round;">
</g>
<g style="fill:#FFFFFF; fill-opacity:1.0; 
stroke:#FFFFFF; stroke-width:0; stroke-opacity:1; 
stroke-linecap:round; stroke-linejoin:round;">
<circle cx="21579.1" cy="5867.48" r="196.85" /> 
</g>
<g style="fill:#FFFFFF; fill-opacity:1.0; 
stroke:#FFFFFF; stroke-width:39.3701; stroke-opacity:1; 
stroke-linecap:round; stroke-linejoin:round;">
</g>
<g style="fill:#000000; fill-opacity:1.0; 
stroke:#000000; stroke-width:39.3701; stroke-opacity:1; 
stroke-linecap:round; stroke-linejoin:round;">
</g>
<g style="fill:#C2C200; fill-opacity:1.0; 
stroke:#C2C200; stroke-width:39.3701; stroke-opacity:1; 
stroke-linecap:round; stroke-linejoin:round;">
</g>
<g style="fill:#C2C200; fill-opacity:1.0; 
stroke:#C2C200; stroke-width:78.7402; stroke-opacity:1; 
stroke-linecap:round; stroke-linejoin:round;">
</g>
<g style="fill:#C2C200; fill-opacity:0.0; 
stroke:#C2C200; stroke-width:78.7402; stroke-opacity:1; 
stroke-linecap:round; stroke-linejoin:round;">
<path d="M28527 2035
L12779 2035
" />
<path d="M39 11291
L15787 11291
" />
<path d="M15787 11291
L28527 2035
" />
<path d="M12779 2035
L39 11291
" />
<g >
</g>
<g >
</g>
<g >
</g>
<g >
</g>
<g >
</g>
<g >
</g>
<g >
</g>
<g >
</g>
<g >
</g>
<g >
</g>
<g >
</g>
<g >
</g>
</g> 
</svg>
