<?xml version="1.0" standalone="no"?>
 <!DOCTYPE svg PUBLIC "-//W3C//DTD SVG 1.1//EN" 
 "http://www.w3.org/Graphics/SVG/1.1/DTD/svg11.dtd"> 
<svg
  xmlns:svg="http://www.w3.org/2000/svg"
  xmlns="http://www.w3.org/2000/svg"
  xmlns:xlink="http://www.w3.org/1999/xlink"
  version="1.1"
  width="7.254240cm" height="3.383280cm" viewBox="0 0 28560 13320">
<title>SVG Picture created as penroserombus_thin_40mm-F_SilkS.svg date 2020/12/21 13:53:56 </title>
  <desc>Picture generated by PCBNEW </desc>
<g style="fill:#000000; fill-opacity:1;stroke:#000000; stroke-opacity:1;
stroke-linecap:round; stroke-linejoin:round;"
 transform="translate(0 0) scale(1 1)">
</g>
<g style="fill:#000000; fill-opacity:0.0; 
stroke:#000000; stroke-width:-0.000393701; stroke-opacity:1; 
stroke-linecap:round; stroke-linejoin:round;">
</g>
<g style="fill:#008484; fill-opacity:0.0; 
stroke:#008484; stroke-width:-0.000393701; stroke-opacity:1; 
stroke-linecap:round; stroke-linejoin:round;">
</g>
<g style="fill:#008484; fill-opacity:0.0; 
stroke:#008484; stroke-width:196.85; stroke-opacity:1; 
stroke-linecap:round; stroke-linejoin:round;">
<g transform="rotate(-90 4768.09 10407.7)">
<text x="4768.09" y="10801.4"
textLength="787.402" font-size="1049.87" lengthAdjust="spacingAndGlyphs"
text-anchor="middle" opacity="0">G</text>
</g>
<path d="M4374 10201
L4336 10276
L4336 10388
L4374 10501
L4449 10576
L4524 10613
L4674 10651
L4786 10651
L4936 10613
L5011 10576
L5086 10501
L5124 10388
L5124 10313
L5086 10201
L5049 10164
L4786 10164
L4786 10313
" />
</g>
<g style="fill:#008484; fill-opacity:0.0; 
stroke:#008484; stroke-width:59.0551; stroke-opacity:1; 
stroke-linecap:round; stroke-linejoin:round;">
<path d="M9568.09 4307.74 A3934.2 3934.2 0.0 0 0 16713.9 2064.47" />
<path d="M19295.7 8752.62 A4330.84 4330.84 0.0 0 0 11456.6 11292.6" />
<path d="M18968.1 9007.74 A3915.94 3915.94 0.0 0 0 11871.5 11290.9" />
</g>
<g style="fill:#008484; fill-opacity:0.0; 
stroke:#008484; stroke-width:196.85; stroke-opacity:1; 
stroke-linecap:round; stroke-linejoin:round;">
<g transform="rotate(-306 24268.1 4007.74)">
<text x="24268.1" y="4401.44"
textLength="1043.31" font-size="1049.87" lengthAdjust="spacingAndGlyphs"
text-anchor="middle" opacity="0">C</text>
</g>
<path d="M24183 4370
L24131 4361
L24035 4292
L23990 4232
L23955 4119
L23971 4014
L24010 3940
L24109 3821
L24200 3755
L24344 3697
L24426 3683
L24531 3700
L24627 3769
L24672 3830
L24707 3943
L24699 3995
" />
<g transform="rotate(-126 4368.09 9307.74)">
<text x="4368.09" y="9701.44"
textLength="855.831" font-size="1049.87" lengthAdjust="spacingAndGlyphs"
text-anchor="middle" opacity="0">T</text>
</g>
<path d="M4151 9743
L3887 9379
" />
<path d="M4656 9098
L4019 9561
" />
<g transform="rotate(-270 23868.1 3007.74)">
<text x="23868.1" y="3401.44"
textLength="930.821" font-size="1049.87" lengthAdjust="spacingAndGlyphs"
text-anchor="middle" opacity="0">A</text>
</g>
<path d="M23736 2820
L23736 3195
" />
<path d="M23511 2745
L24299 3007
L23511 3270
" />
</g>
<g style="fill:#008484; fill-opacity:0.0; 
stroke:#008484; stroke-width:47.2441; stroke-opacity:1; 
stroke-linecap:round; stroke-linejoin:round;">
<path d="M6275 7330
L6891 8177
" />
<path d="M6275 7330
L4638 8519
" />
<path d="M4638 8519
L5254 9367
" />
<path d="M6891 8177
L5254 9367
" />
<path d="M7719 7575
L7295 7883
" />
<path d="M7411 7152
L7719 7575
" />
<path d="M11034 7587
L11098 7783
" />
<path d="M11585 7408
L11648 7604
" />
<path d="M16850 5583
L16787 5387
" />
<path d="M17401 5404
L17337 5208
" />
<path d="M7834 7620
L10567 6732
" />
<path d="M8503 9680
L11236 8792
" />
<path d="M11236 8792
L11096 8361
" />
<path d="M17330 4535
L17470 4965
" />
<path d="M20063 3647
L17330 4535
" />
<path d="M20732 5706
L17999 6594
" />
<path d="M20130 3019
L20130 2496
" />
<path d="M20130 2496
L20653 2496
" />
<path d="M21153 2496
L23177 2496
" />
<path d="M23177 3543
L23177 2496
" />
<path d="M21153 3543
L23177 3543
" />
<path d="M21153 3543
L21153 2496
" />
<path d="M7413 9784
L7413 10831
" />
<path d="M7413 9784
L5389 9784
" />
<path d="M5389 9784
L5389 10831
" />
<path d="M7413 10831
L5389 10831
" />
<path d="M8437 10831
L7913 10831
" />
<path d="M8437 10307
L8437 10831
" />
<path d="M21155 6175
L20847 5751
" />
<path d="M20847 5751
L21271 5443
" />
<path d="M21675 5149
L23312 3960
" />
<path d="M23928 4807
L23312 3960
" />
<path d="M22291 5997
L23928 4807
" />
<path d="M22291 5997
L21675 5149
" />
<path d="M15813 8911
L14765 9252
" />
<path d="M14437 9069
L14364 8844
" />
<path d="M14522 8503
L15570 8162
" />
<path d="M15899 8346
L15972 8570
" />
<path d="M15471 8112
L15547 7963
" />
<path d="M15547 7963
L15322 8036
" />
<path d="M15471 8112
L15322 8036
" />
<path d="M15795.2 8917.93 A275.591 275.591 0.0 0 0 15972.2 8570.66" />
<path d="M15899.2 8346 A275.591 275.591 0.0 0 0 15551.9 8169.06" />
<path d="M14541 8497.55 A275.591 275.591 0.0 0 0 14364 8844.81" />
<path d="M14437 9069.47 A275.591 275.591 0.0 0 0 14784.3 9246.41" />
<path d="M13571 3212
L13422 3136
" />
<path d="M13647 3063
L13422 3136
" />
<path d="M13571 3212
L13647 3063
" />
<path d="M13999 3446
L14072 3670
" />
<path d="M12622 3603
L13670 3262
" />
<path d="M12537 4169
L12464 3944
" />
<path d="M13913 4011
L12865 4352
" />
<path d="M12537 4169.47 A275.591 275.591 0.0 0 0 12884.3 4346.41" />
<path d="M12641 3597.55 A275.591 275.591 0.0 0 0 12464 3944.81" />
<path d="M13999.2 3446 A275.591 275.591 0.0 0 0 13651.9 3269.06" />
<path d="M13895.2 4017.93 A275.591 275.591 0.0 0 0 14072.2 3670.66" />
<path d="M15616 5041
L15803 4980
" />
<path d="M15803 4980
L15864 5168
" />
<path d="M15864 5168
L16289 6478
" />
<path d="M16289 6478
L16196 6509
" />
<path d="M12433 6075
L12246 6136
" />
<path d="M12246 6136
L12732 7634
" />
<path d="M12732 7634
L12920 7573
" />
</g>
<g style="fill:#008484; fill-opacity:0.0; 
stroke:#008484; stroke-width:78.7402; stroke-opacity:1; 
stroke-linecap:round; stroke-linejoin:round;">
<circle cx="15413" cy="4735.24" r="88.0343" /> 
</g>
<g style="fill:#008484; fill-opacity:0.0; 
stroke:#008484; stroke-width:59.0551; stroke-opacity:1; 
stroke-linecap:round; stroke-linejoin:round;">
<g transform="rotate(54 7870.39 6819.02)">
<text x="7870.39" y="7015.87"
textLength="930.821" font-size="524.934" lengthAdjust="spacingAndGlyphs"
text-anchor="middle" opacity="0">J3</text>
</g>
<path d="M7967 6586
L7740 6751
L7683 6769
L7631 6761
L7583 6726
L7561 6696
" />
<path d="M8055 6707
L8199 6904
L8000 6886
L8033 6932
L8040 6973
L8036 6999
L8017 7036
L7941 7091
L7899 7098
L7873 7094
L7836 7075
L7770 6984
L7763 6943
L7767 6916
" />
<g transform="rotate(72 11970.9 7391.82)">
<text x="11970.9" y="7588.67"
textLength="845.426" font-size="524.934" lengthAdjust="spacingAndGlyphs"
text-anchor="middle" opacity="0">C1</text>
</g>
<path d="M11816 7372
L11793 7360
L11758 7313
L11746 7277
L11746 7218
L11771 7170
L11800 7141
L11866 7100
L11919 7083
L11997 7077
L12038 7084
L12085 7108
L12120 7155
L12132 7191
L12132 7250
L12120 7274
" />
<path d="M11897 7741
L11827 7527
" />
<path d="M11862 7634
L12236 7512
L12171 7494
L12124 7470
L12095 7440
" />
<g transform="rotate(72 16668.1 4307.74)">
<text x="16668.1" y="4504.59"
textLength="845.426" font-size="524.934" lengthAdjust="spacingAndGlyphs"
text-anchor="middle" opacity="0">C2</text>
</g>
<path d="M16514 4288
L16490 4276
L16455 4229
L16443 4193
L16444 4134
L16468 4086
L16498 4057
L16563 4016
L16617 3999
L16694 3993
L16735 3999
L16782 4024
L16818 4071
L16829 4107
L16829 4166
L16817 4190
" />
<path d="M16863 4332
L16887 4344
L16916 4374
L16945 4463
L16939 4505
L16927 4529
L16897 4558
L16861 4570
L16802 4569
L16518 4425
L16594 4656
" />
<g transform="rotate(-18 9109.71 6895.99)">
<text x="9109.71" y="7092.84"
textLength="845.426" font-size="524.934" lengthAdjust="spacingAndGlyphs"
text-anchor="middle" opacity="0">D1</text>
</g>
<path d="M8888 7155
L8766 6780
L8855 6751
L8915 6752
L8962 6776
L8991 6806
L9032 6871
L9050 6925
L9055 7002
L9049 7043
L9025 7090
L8977 7126
L8888 7155
" />
<path d="M9458 6969
L9244 7039
" />
<path d="M9351 7004
L9230 6630
L9212 6695
L9187 6742
L9158 6771
" />
<g transform="rotate(-18 18568.1 6807.74)">
<text x="18568.1" y="7004.59"
textLength="845.426" font-size="524.934" lengthAdjust="spacingAndGlyphs"
text-anchor="middle" opacity="0">D2</text>
</g>
<path d="M18346 7066
L18225 6692
L18314 6663
L18373 6663
L18420 6688
L18450 6717
L18491 6783
L18508 6836
L18513 6914
L18507 6955
L18483 7002
L18435 7037
L18346 7066
" />
<path d="M18593 6612
L18605 6588
L18635 6559
L18724 6530
L18765 6536
L18789 6548
L18818 6578
L18830 6614
L18829 6673
L18685 6956
L18917 6881
" />
<g transform="rotate(-90 19563.3 3019.78)">
<text x="19563.3" y="3216.63"
textLength="751.687" font-size="524.934" lengthAdjust="spacingAndGlyphs"
text-anchor="middle" opacity="0">J1</text>
</g>
<path d="M19347 3151
L19628 3151
L19685 3169
L19722 3207
L19741 3263
L19741 3300
" />
<path d="M19741 2757
L19741 2982
" />
<path d="M19741 2869
L19347 2869
L19403 2907
L19441 2944
L19460 2982
" />
<g transform="rotate(-90 9003.94 10307.7)">
<text x="9003.94" y="10504.6"
textLength="751.687" font-size="524.934" lengthAdjust="spacingAndGlyphs"
text-anchor="middle" opacity="0">J2</text>
</g>
<path d="M8788 10438
L9069 10438
L9125 10457
L9163 10495
L9182 10551
L9182 10588
" />
<path d="M8825 10270
L8807 10251
L8788 10213
L8788 10120
L8807 10082
L8825 10064
L8863 10045
L8900 10045
L8957 10064
L9182 10288
L9182 10045
" />
<g transform="rotate(54 20696.8 6508.49)">
<text x="20696.8" y="6705.34"
textLength="751.687" font-size="524.934" lengthAdjust="spacingAndGlyphs"
text-anchor="middle" opacity="0">J4</text>
</g>
<path d="M20794 6275
L20566 6440
L20510 6458
L20457 6450
L20409 6416
L20387 6385
" />
<path d="M20897 6640
L20684 6795
" />
<path d="M20963 6476
L20680 6566
L20824 6763
" />
<g transform="rotate(-18 15387.1 9381.71)">
<text x="15387.1" y="9578.56"
textLength="1145.39" font-size="524.934" lengthAdjust="spacingAndGlyphs"
text-anchor="middle" opacity="0">JP1</text>
</g>
<path d="M15008 9278
L15095 9545
L15094 9604
L15070 9652
L15023 9687
L14987 9698
" />
<path d="M15308 9594
L15186 9220
L15329 9173
L15370 9180
L15394 9192
L15423 9221
L15441 9275
L15435 9316
L15422 9340
L15393 9369
L15250 9416
" />
<path d="M15878 9409
L15664 9478
" />
<path d="M15771 9443
L15650 9069
L15632 9134
L15607 9181
L15578 9211
" />
<g transform="rotate(-18 13487.1 4481.71)">
<text x="13487.1" y="4678.56"
textLength="1145.39" font-size="524.934" lengthAdjust="spacingAndGlyphs"
text-anchor="middle" opacity="0">JP2</text>
</g>
<path d="M13108 4378
L13195 4645
L13194 4704
L13170 4752
L13123 4787
L13087 4798
" />
<path d="M13408 4694
L13286 4320
L13429 4273
L13470 4280
L13494 4292
L13523 4321
L13541 4375
L13535 4416
L13522 4440
L13493 4469
L13350 4516
" />
<path d="M13654 4239
L13666 4216
L13696 4186
L13785 4157
L13827 4164
L13851 4176
L13880 4206
L13892 4241
L13891 4300
L13747 4584
L13978 4509
" />
<g transform="rotate(72 16388.3 5825.82)">
<text x="16388.3" y="6022.67"
textLength="1276.62" font-size="524.934" lengthAdjust="spacingAndGlyphs"
text-anchor="middle" opacity="0">SW1</text>
</g>
<path d="M16074 5375
L16074 5435
L16103 5524
L16132 5554
L16156 5566
L16197 5572
L16233 5560
L16263 5531
L16275 5507
L16281 5466
L16276 5389
L16282 5347
L16294 5324
L16324 5294
L16359 5283
L16401 5289
L16424 5301
L16454 5331
L16483 5420
L16482 5479
" />
<path d="M16541 5598
L16195 5809
L16486 5793
L16242 5952
L16645 5919
" />
<path d="M16381 6380
L16311 6166
" />
<path d="M16346 6273
L16720 6151
L16655 6133
L16608 6109
L16579 6079
" />
<g >
</g>
</g>
<g style="fill:#000000; fill-opacity:0.0; 
stroke:#000000; stroke-width:59.0551; stroke-opacity:1; 
stroke-linecap:round; stroke-linejoin:round;">
</g>
<g style="fill:#C2C200; fill-opacity:0.0; 
stroke:#C2C200; stroke-width:59.0551; stroke-opacity:1; 
stroke-linecap:round; stroke-linejoin:round;">
</g>
<g style="fill:#C2C200; fill-opacity:0.0; 
stroke:#C2C200; stroke-width:78.7402; stroke-opacity:1; 
stroke-linecap:round; stroke-linejoin:round;">
<path d="M28527 2035
L12779 2035
" />
<path d="M39 11291
L15787 11291
" />
<path d="M15787 11291
L28527 2035
" />
<path d="M12779 2035
L39 11291
" />
<g >
</g>
<g >
</g>
<g >
</g>
<g >
</g>
<g >
</g>
<g >
</g>
<g >
</g>
<g >
</g>
<g >
</g>
<g >
</g>
<g >
</g>
<g >
</g>
</g> 
</svg>
