M48
; DRILL file {KiCad 5.1.9} date Fri Feb 12 10:45:59 2021
; FORMAT={-:-/ absolute / inch / decimal}
; #@! TF.CreationDate,2021-02-12T10:45:59-05:00
; #@! TF.GenerationSoftware,Kicad,Pcbnew,5.1.9
; #@! TF.FileFunction,Plated,1,2,PTH
FMAT,2
INCH
T1C0.0157
T2C0.0394
%
G90
G05
T1
X5.59Y-2.805
X5.635Y-3.195
X5.74Y-2.765
X5.795Y-3.25
X5.9085Y-2.809
X6.0095Y-2.8015
X6.08Y-3.016
X6.1104Y-2.7654
X6.174Y-2.9595
X6.41Y-2.52
X6.465Y-3.0
X6.55Y-2.575
X6.615Y-2.97
T2
X5.1698Y-3.1122
X5.2507Y-3.0534
X5.2645Y-3.25
X5.3316Y-2.9946
X5.3645Y-3.25
X5.4645Y-3.25
X6.7885Y-2.5212
X6.8311Y-2.806
X6.8885Y-2.5212
X6.912Y-2.7472
X6.9885Y-2.5212
X6.9929Y-2.6884
T0
M30
