%TF.GenerationSoftware,KiCad,Pcbnew,5.1.8*%
%TF.CreationDate,2021-01-12T11:43:30-05:00*%
%TF.ProjectId,penroserombus_thin_40mm,70656e72-6f73-4657-926f-6d6275735f74,rev?*%
%TF.SameCoordinates,Original*%
%TF.FileFunction,Soldermask,Top*%
%TF.FilePolarity,Negative*%
%FSLAX46Y46*%
G04 Gerber Fmt 4.6, Leading zero omitted, Abs format (unit mm)*
G04 Created by KiCad (PCBNEW 5.1.8) date 2021-01-12 11:43:30*
%MOMM*%
%LPD*%
G01*
G04 APERTURE LIST*
%ADD10C,1.150000*%
%ADD11C,0.100000*%
%ADD12O,1.700000X1.700000*%
%ADD13R,1.700000X1.700000*%
%ADD14R,1.600000X0.850000*%
G04 APERTURE END LIST*
D10*
%TO.C,MH*%
X162687000Y-77978000D03*
%TD*%
%TO.C,MH*%
X147320000Y-68707000D03*
%TD*%
D11*
%TO.C,J3*%
G36*
X135261566Y-75128791D02*
G01*
X136636895Y-74129556D01*
X137636130Y-75504885D01*
X136260801Y-76504120D01*
X135261566Y-75128791D01*
G37*
G36*
G01*
X133894328Y-76122149D02*
X133894328Y-76122149D01*
G75*
G02*
X135081609Y-76310196I499617J-687664D01*
G01*
X135081609Y-76310196D01*
G75*
G02*
X134893562Y-77497477I-687664J-499617D01*
G01*
X134893562Y-77497477D01*
G75*
G02*
X133706281Y-77309430I-499617J687664D01*
G01*
X133706281Y-77309430D01*
G75*
G02*
X133894328Y-76122149I687664J499617D01*
G01*
G37*
G36*
G01*
X131839425Y-77615123D02*
X131839425Y-77615123D01*
G75*
G02*
X133026706Y-77803170I499617J-687664D01*
G01*
X133026706Y-77803170D01*
G75*
G02*
X132838659Y-78990451I-687664J-499617D01*
G01*
X132838659Y-78990451D01*
G75*
G02*
X131651378Y-78802404I-499617J687664D01*
G01*
X131651378Y-78802404D01*
G75*
G02*
X131839425Y-77615123I687664J499617D01*
G01*
G37*
%TD*%
%TO.C,C1*%
G36*
G01*
X164785758Y-70543694D02*
X164492192Y-69640190D01*
G75*
G02*
X164652702Y-69325172I237764J77254D01*
G01*
X165294666Y-69116586D01*
G75*
G02*
X165609684Y-69277096I77254J-237764D01*
G01*
X165903250Y-70180600D01*
G75*
G02*
X165742740Y-70495618I-237764J-77254D01*
G01*
X165100776Y-70704204D01*
G75*
G02*
X164785758Y-70543694I-77254J237764D01*
G01*
G37*
G36*
G01*
X162812316Y-71184904D02*
X162518750Y-70281400D01*
G75*
G02*
X162679260Y-69966382I237764J77254D01*
G01*
X163321224Y-69757796D01*
G75*
G02*
X163636242Y-69918306I77254J-237764D01*
G01*
X163929808Y-70821810D01*
G75*
G02*
X163769298Y-71136828I-237764J-77254D01*
G01*
X163127334Y-71345414D01*
G75*
G02*
X162812316Y-71184904I-77254J237764D01*
G01*
G37*
%TD*%
%TO.C,C2*%
G36*
G01*
X147321684Y-75246096D02*
X147615250Y-76149600D01*
G75*
G02*
X147454740Y-76464618I-237764J-77254D01*
G01*
X146812776Y-76673204D01*
G75*
G02*
X146497758Y-76512694I-77254J237764D01*
G01*
X146204192Y-75609190D01*
G75*
G02*
X146364702Y-75294172I237764J77254D01*
G01*
X147006666Y-75085586D01*
G75*
G02*
X147321684Y-75246096I77254J-237764D01*
G01*
G37*
G36*
G01*
X145348242Y-75887306D02*
X145641808Y-76790810D01*
G75*
G02*
X145481298Y-77105828I-237764J-77254D01*
G01*
X144839334Y-77314414D01*
G75*
G02*
X144524316Y-77153904I-77254J237764D01*
G01*
X144230750Y-76250400D01*
G75*
G02*
X144391260Y-75935382I237764J77254D01*
G01*
X145033224Y-75726796D01*
G75*
G02*
X145348242Y-75887306I77254J-237764D01*
G01*
G37*
%TD*%
D12*
%TO.C,J1*%
X176239724Y-64038590D03*
X173699724Y-64038590D03*
D13*
X171159724Y-64038590D03*
%TD*%
%TO.C,J2*%
X138799045Y-82550000D03*
D12*
X136259045Y-82550000D03*
X133719045Y-82550000D03*
%TD*%
%TO.C,J4*%
G36*
G01*
X178119344Y-68973468D02*
X178119344Y-68973468D01*
G75*
G02*
X176932063Y-68785421I-499617J687664D01*
G01*
X176932063Y-68785421D01*
G75*
G02*
X177120110Y-67598140I687664J499617D01*
G01*
X177120110Y-67598140D01*
G75*
G02*
X178307391Y-67786187I499617J-687664D01*
G01*
X178307391Y-67786187D01*
G75*
G02*
X178119344Y-68973468I-687664J-499617D01*
G01*
G37*
G36*
G01*
X176064441Y-70466442D02*
X176064441Y-70466442D01*
G75*
G02*
X174877160Y-70278395I-499617J687664D01*
G01*
X174877160Y-70278395D01*
G75*
G02*
X175065207Y-69091114I687664J499617D01*
G01*
X175065207Y-69091114D01*
G75*
G02*
X176252488Y-69279161I499617J-687664D01*
G01*
X176252488Y-69279161D01*
G75*
G02*
X176064441Y-70466442I-687664J-499617D01*
G01*
G37*
D11*
G36*
X174697203Y-71459800D02*
G01*
X173321874Y-72459035D01*
X172322639Y-71083706D01*
X173697968Y-70084471D01*
X174697203Y-71459800D01*
G37*
%TD*%
%TO.C,JP1*%
G36*
X157249393Y-78908921D02*
G01*
X157712918Y-80335506D01*
X156761861Y-80644523D01*
X156298336Y-79217938D01*
X157249393Y-78908921D01*
G37*
G36*
X156000831Y-80891164D02*
G01*
X155977497Y-80898745D01*
X155929570Y-80909260D01*
X155880843Y-80915028D01*
X155831784Y-80915991D01*
X155782867Y-80912142D01*
X155734564Y-80903515D01*
X155687339Y-80890197D01*
X155641647Y-80872313D01*
X155597926Y-80850036D01*
X155556601Y-80823583D01*
X155518067Y-80793204D01*
X155482696Y-80759197D01*
X155450830Y-80721885D01*
X155422773Y-80681630D01*
X155398798Y-80638818D01*
X155379134Y-80593864D01*
X155371553Y-80570531D01*
X155370980Y-80570717D01*
X155216471Y-80095188D01*
X155217044Y-80095002D01*
X155209463Y-80071669D01*
X155198948Y-80023742D01*
X155193180Y-79975014D01*
X155192217Y-79925956D01*
X155196066Y-79877039D01*
X155204693Y-79828736D01*
X155218011Y-79781510D01*
X155235895Y-79735818D01*
X155258172Y-79692098D01*
X155284625Y-79650772D01*
X155315003Y-79612239D01*
X155349011Y-79576868D01*
X155386322Y-79545001D01*
X155426578Y-79516945D01*
X155469389Y-79492970D01*
X155514344Y-79473306D01*
X155537677Y-79465724D01*
X155537491Y-79465152D01*
X156060572Y-79295192D01*
X156524098Y-80721777D01*
X156001017Y-80891736D01*
X156000831Y-80891164D01*
G37*
G36*
X157487156Y-78831667D02*
G01*
X158010237Y-78661708D01*
X158010423Y-78662280D01*
X158033757Y-78654699D01*
X158081684Y-78644184D01*
X158130411Y-78638416D01*
X158179470Y-78637453D01*
X158228387Y-78641302D01*
X158276690Y-78649929D01*
X158323915Y-78663247D01*
X158369607Y-78681131D01*
X158413328Y-78703408D01*
X158454653Y-78729861D01*
X158493187Y-78760240D01*
X158528558Y-78794247D01*
X158560424Y-78831559D01*
X158588481Y-78871814D01*
X158612456Y-78914626D01*
X158632120Y-78959580D01*
X158639701Y-78982913D01*
X158640274Y-78982727D01*
X158794783Y-79458256D01*
X158794210Y-79458442D01*
X158801791Y-79481775D01*
X158812306Y-79529702D01*
X158818074Y-79578430D01*
X158819037Y-79627488D01*
X158815188Y-79676405D01*
X158806561Y-79724708D01*
X158793243Y-79771934D01*
X158775359Y-79817626D01*
X158753082Y-79861346D01*
X158726629Y-79902672D01*
X158696251Y-79941205D01*
X158662243Y-79976576D01*
X158624932Y-80008443D01*
X158584676Y-80036499D01*
X158541865Y-80060474D01*
X158496910Y-80080138D01*
X158473577Y-80087720D01*
X158473763Y-80088292D01*
X157950682Y-80258252D01*
X157487156Y-78831667D01*
G37*
%TD*%
%TO.C,JP2*%
G36*
X152881529Y-65094945D02*
G01*
X153404610Y-64924986D01*
X153404796Y-64925558D01*
X153428130Y-64917977D01*
X153476057Y-64907462D01*
X153524784Y-64901694D01*
X153573843Y-64900731D01*
X153622760Y-64904580D01*
X153671063Y-64913207D01*
X153718288Y-64926525D01*
X153763980Y-64944409D01*
X153807701Y-64966686D01*
X153849026Y-64993139D01*
X153887560Y-65023518D01*
X153922931Y-65057525D01*
X153954797Y-65094837D01*
X153982854Y-65135092D01*
X154006829Y-65177904D01*
X154026493Y-65222858D01*
X154034074Y-65246191D01*
X154034647Y-65246005D01*
X154189156Y-65721534D01*
X154188583Y-65721720D01*
X154196164Y-65745053D01*
X154206679Y-65792980D01*
X154212447Y-65841708D01*
X154213410Y-65890766D01*
X154209561Y-65939683D01*
X154200934Y-65987986D01*
X154187616Y-66035212D01*
X154169732Y-66080904D01*
X154147455Y-66124624D01*
X154121002Y-66165950D01*
X154090624Y-66204483D01*
X154056616Y-66239854D01*
X154019305Y-66271721D01*
X153979049Y-66299777D01*
X153936238Y-66323752D01*
X153891283Y-66343416D01*
X153867950Y-66350998D01*
X153868136Y-66351570D01*
X153345055Y-66521530D01*
X152881529Y-65094945D01*
G37*
G36*
X151395204Y-67154442D02*
G01*
X151371870Y-67162023D01*
X151323943Y-67172538D01*
X151275216Y-67178306D01*
X151226157Y-67179269D01*
X151177240Y-67175420D01*
X151128937Y-67166793D01*
X151081712Y-67153475D01*
X151036020Y-67135591D01*
X150992299Y-67113314D01*
X150950974Y-67086861D01*
X150912440Y-67056482D01*
X150877069Y-67022475D01*
X150845203Y-66985163D01*
X150817146Y-66944908D01*
X150793171Y-66902096D01*
X150773507Y-66857142D01*
X150765926Y-66833809D01*
X150765353Y-66833995D01*
X150610844Y-66358466D01*
X150611417Y-66358280D01*
X150603836Y-66334947D01*
X150593321Y-66287020D01*
X150587553Y-66238292D01*
X150586590Y-66189234D01*
X150590439Y-66140317D01*
X150599066Y-66092014D01*
X150612384Y-66044788D01*
X150630268Y-65999096D01*
X150652545Y-65955376D01*
X150678998Y-65914050D01*
X150709376Y-65875517D01*
X150743384Y-65840146D01*
X150780695Y-65808279D01*
X150820951Y-65780223D01*
X150863762Y-65756248D01*
X150908717Y-65736584D01*
X150932050Y-65729002D01*
X150931864Y-65728430D01*
X151454945Y-65558470D01*
X151918471Y-66985055D01*
X151395390Y-67155014D01*
X151395204Y-67154442D01*
G37*
G36*
X152643766Y-65172199D02*
G01*
X153107291Y-66598784D01*
X152156234Y-66907801D01*
X151692709Y-65481216D01*
X152643766Y-65172199D01*
G37*
%TD*%
%TO.C,SW1*%
G36*
X155747295Y-69062402D02*
G01*
X156793458Y-68722484D01*
X157396041Y-70577044D01*
X156349878Y-70916962D01*
X155747295Y-69062402D01*
G37*
G36*
X153369654Y-69834944D02*
G01*
X154415817Y-69495026D01*
X155018400Y-71349586D01*
X153972237Y-71689504D01*
X153369654Y-69834944D01*
G37*
G36*
X150992013Y-70607487D02*
G01*
X152038176Y-70267569D01*
X152640759Y-72122129D01*
X151594596Y-72462047D01*
X150992013Y-70607487D01*
G37*
G36*
X157493241Y-74435871D02*
G01*
X158539404Y-74095953D01*
X159141987Y-75950513D01*
X158095824Y-76290431D01*
X157493241Y-74435871D01*
G37*
G36*
X155115600Y-75208414D02*
G01*
X156161763Y-74868496D01*
X156764346Y-76723056D01*
X155718183Y-77062974D01*
X155115600Y-75208414D01*
G37*
G36*
X152737959Y-75980956D02*
G01*
X153784122Y-75641038D01*
X154386705Y-77495598D01*
X153340542Y-77835516D01*
X152737959Y-75980956D01*
G37*
%TD*%
D14*
%TO.C,D1*%
X166781369Y-67555891D03*
X166781369Y-65805891D03*
X163281369Y-67555891D03*
X163281369Y-65805891D03*
%TD*%
%TO.C,D2*%
X146677400Y-80782700D03*
X146677400Y-79032700D03*
X143177400Y-80782700D03*
X143177400Y-79032700D03*
%TD*%
D11*
%TO.C,D3*%
G36*
X145287394Y-72717552D02*
G01*
X145787011Y-73405216D01*
X144492584Y-74345672D01*
X143992967Y-73658008D01*
X145287394Y-72717552D01*
G37*
G36*
X144258770Y-71301772D02*
G01*
X144758387Y-71989436D01*
X143463960Y-72929892D01*
X142964343Y-72242228D01*
X144258770Y-71301772D01*
G37*
G36*
X142455834Y-74774800D02*
G01*
X142955451Y-75462464D01*
X141661024Y-76402920D01*
X141161407Y-75715256D01*
X142455834Y-74774800D01*
G37*
G36*
X141427210Y-73359020D02*
G01*
X141926827Y-74046684D01*
X140632400Y-74987140D01*
X140132783Y-74299476D01*
X141427210Y-73359020D01*
G37*
%TD*%
%TO.C,D4*%
G36*
X168531559Y-73229570D02*
G01*
X168031942Y-72541906D01*
X169326369Y-71601450D01*
X169825986Y-72289114D01*
X168531559Y-73229570D01*
G37*
G36*
X167502935Y-71813790D02*
G01*
X167003318Y-71126126D01*
X168297745Y-70185670D01*
X168797362Y-70873334D01*
X167502935Y-71813790D01*
G37*
G36*
X165699999Y-75286818D02*
G01*
X165200382Y-74599154D01*
X166494809Y-73658698D01*
X166994426Y-74346362D01*
X165699999Y-75286818D01*
G37*
G36*
X164671375Y-73871038D02*
G01*
X164171758Y-73183374D01*
X165466185Y-72242918D01*
X165965802Y-72930582D01*
X164671375Y-73871038D01*
G37*
%TD*%
M02*
