%TF.GenerationSoftware,KiCad,Pcbnew,5.1.8*%
%TF.CreationDate,2021-01-12T11:43:30-05:00*%
%TF.ProjectId,penroserombus_thin_40mm,70656e72-6f73-4657-926f-6d6275735f74,rev?*%
%TF.SameCoordinates,Original*%
%TF.FileFunction,Copper,L2,Bot*%
%TF.FilePolarity,Positive*%
%FSLAX46Y46*%
G04 Gerber Fmt 4.6, Leading zero omitted, Abs format (unit mm)*
G04 Created by KiCad (PCBNEW 5.1.8) date 2021-01-12 11:43:30*
%MOMM*%
%LPD*%
G01*
G04 APERTURE LIST*
%TA.AperFunction,ComponentPad*%
%ADD10C,0.100000*%
%TD*%
%TA.AperFunction,ComponentPad*%
%ADD11O,1.700000X1.700000*%
%TD*%
%TA.AperFunction,ComponentPad*%
%ADD12R,1.700000X1.700000*%
%TD*%
%TA.AperFunction,ViaPad*%
%ADD13C,0.800000*%
%TD*%
%TA.AperFunction,Conductor*%
%ADD14C,0.250000*%
%TD*%
%TA.AperFunction,Conductor*%
%ADD15C,0.254000*%
%TD*%
%TA.AperFunction,Conductor*%
%ADD16C,0.100000*%
%TD*%
G04 APERTURE END LIST*
%TA.AperFunction,ComponentPad*%
D10*
%TO.P,J3,1*%
%TO.N,GND*%
G36*
X135261566Y-75128791D02*
G01*
X136636895Y-74129556D01*
X137636130Y-75504885D01*
X136260801Y-76504120D01*
X135261566Y-75128791D01*
G37*
%TD.AperFunction*%
%TO.P,J3,2*%
%TO.N,VCC*%
%TA.AperFunction,ComponentPad*%
G36*
G01*
X133894328Y-76122149D02*
X133894328Y-76122149D01*
G75*
G02*
X135081609Y-76310196I499617J-687664D01*
G01*
X135081609Y-76310196D01*
G75*
G02*
X134893562Y-77497477I-687664J-499617D01*
G01*
X134893562Y-77497477D01*
G75*
G02*
X133706281Y-77309430I-499617J687664D01*
G01*
X133706281Y-77309430D01*
G75*
G02*
X133894328Y-76122149I687664J499617D01*
G01*
G37*
%TD.AperFunction*%
%TO.P,J3,3*%
%TO.N,Net-(D3-Pad4)*%
%TA.AperFunction,ComponentPad*%
G36*
G01*
X131839425Y-77615123D02*
X131839425Y-77615123D01*
G75*
G02*
X133026706Y-77803170I499617J-687664D01*
G01*
X133026706Y-77803170D01*
G75*
G02*
X132838659Y-78990451I-687664J-499617D01*
G01*
X132838659Y-78990451D01*
G75*
G02*
X131651378Y-78802404I-499617J687664D01*
G01*
X131651378Y-78802404D01*
G75*
G02*
X131839425Y-77615123I687664J499617D01*
G01*
G37*
%TD.AperFunction*%
%TD*%
D11*
%TO.P,J1,3*%
%TO.N,Net-(D1-Pad2)*%
X176239724Y-64038590D03*
%TO.P,J1,2*%
%TO.N,VCC*%
X173699724Y-64038590D03*
D12*
%TO.P,J1,1*%
%TO.N,GND*%
X171159724Y-64038590D03*
%TD*%
%TO.P,J2,1*%
%TO.N,GND*%
X138799045Y-82550000D03*
D11*
%TO.P,J2,2*%
%TO.N,VCC*%
X136259045Y-82550000D03*
%TO.P,J2,3*%
%TO.N,Net-(D2-Pad2)*%
X133719045Y-82550000D03*
%TD*%
%TO.P,J4,3*%
%TO.N,Net-(D4-Pad4)*%
%TA.AperFunction,ComponentPad*%
G36*
G01*
X178119344Y-68973468D02*
X178119344Y-68973468D01*
G75*
G02*
X176932063Y-68785421I-499617J687664D01*
G01*
X176932063Y-68785421D01*
G75*
G02*
X177120110Y-67598140I687664J499617D01*
G01*
X177120110Y-67598140D01*
G75*
G02*
X178307391Y-67786187I499617J-687664D01*
G01*
X178307391Y-67786187D01*
G75*
G02*
X178119344Y-68973468I-687664J-499617D01*
G01*
G37*
%TD.AperFunction*%
%TO.P,J4,2*%
%TO.N,VCC*%
%TA.AperFunction,ComponentPad*%
G36*
G01*
X176064441Y-70466442D02*
X176064441Y-70466442D01*
G75*
G02*
X174877160Y-70278395I-499617J687664D01*
G01*
X174877160Y-70278395D01*
G75*
G02*
X175065207Y-69091114I687664J499617D01*
G01*
X175065207Y-69091114D01*
G75*
G02*
X176252488Y-69279161I499617J-687664D01*
G01*
X176252488Y-69279161D01*
G75*
G02*
X176064441Y-70466442I-687664J-499617D01*
G01*
G37*
%TD.AperFunction*%
%TA.AperFunction,ComponentPad*%
D10*
%TO.P,J4,1*%
%TO.N,GND*%
G36*
X174697203Y-71459800D02*
G01*
X173321874Y-72459035D01*
X172322639Y-71083706D01*
X173697968Y-70084471D01*
X174697203Y-71459800D01*
G37*
%TD.AperFunction*%
%TD*%
D13*
%TO.N,GND*%
X161798000Y-70993000D03*
X148082000Y-75438000D03*
X182372000Y-64516000D03*
X126873000Y-82677000D03*
X164846000Y-65786000D03*
X145034000Y-80772000D03*
X170561000Y-71247000D03*
X139446000Y-75184000D03*
%TO.N,Net-(D3-Pad2)*%
X154559000Y-75946000D03*
X155192259Y-72188961D03*
%TO.N,Net-(D4-Pad2)*%
X153356001Y-72048476D03*
X153435681Y-74823021D03*
%TD*%
D14*
%TO.N,Net-(D3-Pad2)*%
X154559000Y-75946000D02*
X154559000Y-72822220D01*
X154559000Y-72822220D02*
X155192259Y-72188961D01*
%TO.N,Net-(D4-Pad2)*%
X153435681Y-72128156D02*
X153356001Y-72048476D01*
X153435681Y-74823021D02*
X153435681Y-72128156D01*
%TD*%
D15*
%TO.N,GND*%
X158560230Y-84315000D02*
X121061141Y-84315000D01*
X123691765Y-82403740D01*
X132234045Y-82403740D01*
X132234045Y-82696260D01*
X132291113Y-82983158D01*
X132403055Y-83253411D01*
X132565570Y-83496632D01*
X132772413Y-83703475D01*
X133015634Y-83865990D01*
X133285887Y-83977932D01*
X133572785Y-84035000D01*
X133865305Y-84035000D01*
X134152203Y-83977932D01*
X134422456Y-83865990D01*
X134665677Y-83703475D01*
X134872520Y-83496632D01*
X134989045Y-83322240D01*
X135105570Y-83496632D01*
X135312413Y-83703475D01*
X135555634Y-83865990D01*
X135825887Y-83977932D01*
X136112785Y-84035000D01*
X136405305Y-84035000D01*
X136692203Y-83977932D01*
X136962456Y-83865990D01*
X137205677Y-83703475D01*
X137337532Y-83571620D01*
X137359543Y-83644180D01*
X137418508Y-83754494D01*
X137497860Y-83851185D01*
X137594551Y-83930537D01*
X137704865Y-83989502D01*
X137824563Y-84025812D01*
X137949045Y-84038072D01*
X138513295Y-84035000D01*
X138672045Y-83876250D01*
X138672045Y-82677000D01*
X138926045Y-82677000D01*
X138926045Y-83876250D01*
X139084795Y-84035000D01*
X139649045Y-84038072D01*
X139773527Y-84025812D01*
X139893225Y-83989502D01*
X140003539Y-83930537D01*
X140100230Y-83851185D01*
X140179582Y-83754494D01*
X140238547Y-83644180D01*
X140274857Y-83524482D01*
X140287117Y-83400000D01*
X140284045Y-82835750D01*
X140125295Y-82677000D01*
X138926045Y-82677000D01*
X138672045Y-82677000D01*
X138652045Y-82677000D01*
X138652045Y-82423000D01*
X138672045Y-82423000D01*
X138672045Y-81223750D01*
X138926045Y-81223750D01*
X138926045Y-82423000D01*
X140125295Y-82423000D01*
X140284045Y-82264250D01*
X140287117Y-81700000D01*
X140274857Y-81575518D01*
X140238547Y-81455820D01*
X140179582Y-81345506D01*
X140100230Y-81248815D01*
X140003539Y-81169463D01*
X139893225Y-81110498D01*
X139773527Y-81074188D01*
X139649045Y-81061928D01*
X139084795Y-81065000D01*
X138926045Y-81223750D01*
X138672045Y-81223750D01*
X138513295Y-81065000D01*
X137949045Y-81061928D01*
X137824563Y-81074188D01*
X137704865Y-81110498D01*
X137594551Y-81169463D01*
X137497860Y-81248815D01*
X137418508Y-81345506D01*
X137359543Y-81455820D01*
X137337532Y-81528380D01*
X137205677Y-81396525D01*
X136962456Y-81234010D01*
X136692203Y-81122068D01*
X136405305Y-81065000D01*
X136112785Y-81065000D01*
X135825887Y-81122068D01*
X135555634Y-81234010D01*
X135312413Y-81396525D01*
X135105570Y-81603368D01*
X134989045Y-81777760D01*
X134872520Y-81603368D01*
X134665677Y-81396525D01*
X134422456Y-81234010D01*
X134152203Y-81122068D01*
X133865305Y-81065000D01*
X133572785Y-81065000D01*
X133285887Y-81122068D01*
X133015634Y-81234010D01*
X132772413Y-81396525D01*
X132565570Y-81603368D01*
X132403055Y-81846589D01*
X132291113Y-82116842D01*
X132234045Y-82403740D01*
X123691765Y-82403740D01*
X129537553Y-78156527D01*
X130854042Y-78156527D01*
X130854042Y-78449047D01*
X130911110Y-78735945D01*
X131023052Y-79006198D01*
X131185567Y-79249419D01*
X131392410Y-79456262D01*
X131635631Y-79618777D01*
X131905884Y-79730719D01*
X132192782Y-79787787D01*
X132485302Y-79787787D01*
X132772200Y-79730719D01*
X133042453Y-79618777D01*
X133285674Y-79456262D01*
X133492517Y-79249419D01*
X133655032Y-79006198D01*
X133766974Y-78735945D01*
X133824042Y-78449047D01*
X133824042Y-78181104D01*
X133960787Y-78237745D01*
X134247685Y-78294813D01*
X134540205Y-78294813D01*
X134827103Y-78237745D01*
X135097356Y-78125803D01*
X135340577Y-77963288D01*
X135445040Y-77858825D01*
X161477000Y-77858825D01*
X161477000Y-78097175D01*
X161523499Y-78330944D01*
X161614712Y-78551150D01*
X161747131Y-78749330D01*
X161915670Y-78917869D01*
X162113850Y-79050288D01*
X162334056Y-79141501D01*
X162567825Y-79188000D01*
X162806175Y-79188000D01*
X163039944Y-79141501D01*
X163260150Y-79050288D01*
X163458330Y-78917869D01*
X163626869Y-78749330D01*
X163759288Y-78551150D01*
X163850501Y-78330944D01*
X163897000Y-78097175D01*
X163897000Y-77858825D01*
X163850501Y-77625056D01*
X163759288Y-77404850D01*
X163626869Y-77206670D01*
X163458330Y-77038131D01*
X163260150Y-76905712D01*
X163039944Y-76814499D01*
X162806175Y-76768000D01*
X162567825Y-76768000D01*
X162334056Y-76814499D01*
X162113850Y-76905712D01*
X161915670Y-77038131D01*
X161747131Y-77206670D01*
X161614712Y-77404850D01*
X161523499Y-77625056D01*
X161477000Y-77858825D01*
X135445040Y-77858825D01*
X135547420Y-77756445D01*
X135709935Y-77513224D01*
X135821877Y-77242971D01*
X135869366Y-77004229D01*
X135927409Y-77048166D01*
X136039954Y-77102753D01*
X136160985Y-77134336D01*
X136285851Y-77141700D01*
X136409756Y-77124562D01*
X136527936Y-77083581D01*
X136635850Y-77020331D01*
X137090532Y-76686188D01*
X137125653Y-76464446D01*
X136420752Y-75494232D01*
X136404571Y-75505988D01*
X136287560Y-75344934D01*
X136626242Y-75344934D01*
X137331143Y-76315148D01*
X137552886Y-76350269D01*
X138011179Y-76021096D01*
X138104681Y-75938009D01*
X138180176Y-75838277D01*
X138234763Y-75725732D01*
X138266346Y-75604701D01*
X138273710Y-75479835D01*
X138256572Y-75355930D01*
X138215591Y-75237750D01*
X138152341Y-75129836D01*
X137818198Y-74675154D01*
X137596456Y-74640033D01*
X136626242Y-75344934D01*
X136287560Y-75344934D01*
X136255274Y-75300497D01*
X136271454Y-75288742D01*
X135566553Y-74318528D01*
X135344810Y-74283407D01*
X134886517Y-74612580D01*
X134793015Y-74695667D01*
X134717520Y-74795399D01*
X134662933Y-74907944D01*
X134631350Y-75028975D01*
X134623986Y-75153841D01*
X134641124Y-75277746D01*
X134666131Y-75349861D01*
X134540205Y-75324813D01*
X134247685Y-75324813D01*
X133960787Y-75381881D01*
X133690534Y-75493823D01*
X133447313Y-75656338D01*
X133240470Y-75863181D01*
X133077955Y-76106402D01*
X132966013Y-76376655D01*
X132908945Y-76663553D01*
X132908945Y-76931496D01*
X132772200Y-76874855D01*
X132485302Y-76817787D01*
X132192782Y-76817787D01*
X131905884Y-76874855D01*
X131635631Y-76986797D01*
X131392410Y-77149312D01*
X131185567Y-77356155D01*
X131023052Y-77599376D01*
X130911110Y-77869629D01*
X130854042Y-78156527D01*
X129537553Y-78156527D01*
X135025597Y-74169230D01*
X135772043Y-74169230D01*
X136476944Y-75139444D01*
X137447158Y-74434543D01*
X137482279Y-74212800D01*
X137153106Y-73754507D01*
X137070019Y-73661005D01*
X136970287Y-73585510D01*
X136857742Y-73530923D01*
X136736711Y-73499340D01*
X136611845Y-73491976D01*
X136487940Y-73509114D01*
X136369760Y-73550095D01*
X136261846Y-73613345D01*
X135807164Y-73947488D01*
X135772043Y-74169230D01*
X135025597Y-74169230D01*
X138084871Y-71946537D01*
X152321001Y-71946537D01*
X152321001Y-72150415D01*
X152360775Y-72350374D01*
X152438796Y-72538732D01*
X152552064Y-72708250D01*
X152675682Y-72831868D01*
X152675681Y-74119310D01*
X152631744Y-74163247D01*
X152518476Y-74332765D01*
X152440455Y-74521123D01*
X152400681Y-74721082D01*
X152400681Y-74924960D01*
X152440455Y-75124919D01*
X152518476Y-75313277D01*
X152631744Y-75482795D01*
X152775907Y-75626958D01*
X152945425Y-75740226D01*
X153133783Y-75818247D01*
X153333742Y-75858021D01*
X153524000Y-75858021D01*
X153524000Y-76047939D01*
X153563774Y-76247898D01*
X153641795Y-76436256D01*
X153755063Y-76605774D01*
X153899226Y-76749937D01*
X154068744Y-76863205D01*
X154257102Y-76941226D01*
X154457061Y-76981000D01*
X154660939Y-76981000D01*
X154860898Y-76941226D01*
X155049256Y-76863205D01*
X155218774Y-76749937D01*
X155362937Y-76605774D01*
X155476205Y-76436256D01*
X155554226Y-76247898D01*
X155594000Y-76047939D01*
X155594000Y-75844061D01*
X155554226Y-75644102D01*
X155476205Y-75455744D01*
X155362937Y-75286226D01*
X155319000Y-75242289D01*
X155319000Y-73219028D01*
X155494157Y-73184187D01*
X155682515Y-73106166D01*
X155852033Y-72992898D01*
X155996196Y-72848735D01*
X156109464Y-72679217D01*
X156187485Y-72490859D01*
X156210373Y-72375791D01*
X172476490Y-72375791D01*
X172805663Y-72834084D01*
X172888750Y-72927586D01*
X172988482Y-73003081D01*
X173101027Y-73057668D01*
X173222058Y-73089251D01*
X173346924Y-73096615D01*
X173470829Y-73079477D01*
X173589009Y-73038496D01*
X173696923Y-72975246D01*
X174151605Y-72641103D01*
X174186726Y-72419361D01*
X173481825Y-71449147D01*
X172511611Y-72154048D01*
X172476490Y-72375791D01*
X156210373Y-72375791D01*
X156227259Y-72290900D01*
X156227259Y-72087022D01*
X156187485Y-71887063D01*
X156109464Y-71698705D01*
X155996196Y-71529187D01*
X155852033Y-71385024D01*
X155682515Y-71271756D01*
X155494157Y-71193735D01*
X155294198Y-71153961D01*
X155090320Y-71153961D01*
X154890361Y-71193735D01*
X154702003Y-71271756D01*
X154532485Y-71385024D01*
X154388322Y-71529187D01*
X154309835Y-71646651D01*
X154273206Y-71558220D01*
X154159938Y-71388702D01*
X154015775Y-71244539D01*
X153846257Y-71131271D01*
X153791902Y-71108756D01*
X171685059Y-71108756D01*
X171702197Y-71232661D01*
X171743178Y-71350841D01*
X171806428Y-71458755D01*
X172140571Y-71913437D01*
X172362313Y-71948558D01*
X173332527Y-71243657D01*
X172627626Y-70273443D01*
X172405883Y-70238322D01*
X171947590Y-70567495D01*
X171854088Y-70650582D01*
X171778593Y-70750314D01*
X171724006Y-70862859D01*
X171692423Y-70983890D01*
X171685059Y-71108756D01*
X153791902Y-71108756D01*
X153657899Y-71053250D01*
X153457940Y-71013476D01*
X153254062Y-71013476D01*
X153054103Y-71053250D01*
X152865745Y-71131271D01*
X152696227Y-71244539D01*
X152552064Y-71388702D01*
X152438796Y-71558220D01*
X152360775Y-71746578D01*
X152321001Y-71946537D01*
X138084871Y-71946537D01*
X140593179Y-70124145D01*
X172833116Y-70124145D01*
X173538017Y-71094359D01*
X173554198Y-71082603D01*
X173703495Y-71288094D01*
X173687315Y-71299849D01*
X174392216Y-72270063D01*
X174613959Y-72305184D01*
X175072252Y-71976011D01*
X175165754Y-71892924D01*
X175241249Y-71793192D01*
X175295836Y-71680647D01*
X175327419Y-71559616D01*
X175334783Y-71434750D01*
X175317645Y-71310845D01*
X175292638Y-71238730D01*
X175418564Y-71263778D01*
X175711084Y-71263778D01*
X175997982Y-71206710D01*
X176268235Y-71094768D01*
X176511456Y-70932253D01*
X176718299Y-70725410D01*
X176880814Y-70482189D01*
X176992756Y-70211936D01*
X177049824Y-69925038D01*
X177049824Y-69657095D01*
X177186569Y-69713736D01*
X177473467Y-69770804D01*
X177765987Y-69770804D01*
X178052885Y-69713736D01*
X178323138Y-69601794D01*
X178566359Y-69439279D01*
X178773202Y-69232436D01*
X178935717Y-68989215D01*
X179047659Y-68718962D01*
X179104727Y-68432064D01*
X179104727Y-68139544D01*
X179047659Y-67852646D01*
X178935717Y-67582393D01*
X178773202Y-67339172D01*
X178566359Y-67132329D01*
X178323138Y-66969814D01*
X178052885Y-66857872D01*
X177765987Y-66800804D01*
X177473467Y-66800804D01*
X177186569Y-66857872D01*
X176916316Y-66969814D01*
X176673095Y-67132329D01*
X176466252Y-67339172D01*
X176303737Y-67582393D01*
X176191795Y-67852646D01*
X176134727Y-68139544D01*
X176134727Y-68407487D01*
X175997982Y-68350846D01*
X175711084Y-68293778D01*
X175418564Y-68293778D01*
X175131666Y-68350846D01*
X174861413Y-68462788D01*
X174618192Y-68625303D01*
X174411349Y-68832146D01*
X174248834Y-69075367D01*
X174136892Y-69345620D01*
X174089403Y-69584362D01*
X174031360Y-69540425D01*
X173918815Y-69485838D01*
X173797784Y-69454255D01*
X173672918Y-69446891D01*
X173549013Y-69464029D01*
X173430833Y-69505010D01*
X173322919Y-69568260D01*
X172868237Y-69902403D01*
X172833116Y-70124145D01*
X140593179Y-70124145D01*
X142707743Y-68587825D01*
X146110000Y-68587825D01*
X146110000Y-68826175D01*
X146156499Y-69059944D01*
X146247712Y-69280150D01*
X146380131Y-69478330D01*
X146548670Y-69646869D01*
X146746850Y-69779288D01*
X146967056Y-69870501D01*
X147200825Y-69917000D01*
X147439175Y-69917000D01*
X147672944Y-69870501D01*
X147893150Y-69779288D01*
X148091330Y-69646869D01*
X148259869Y-69478330D01*
X148392288Y-69280150D01*
X148483501Y-69059944D01*
X148530000Y-68826175D01*
X148530000Y-68587825D01*
X148483501Y-68354056D01*
X148392288Y-68133850D01*
X148259869Y-67935670D01*
X148091330Y-67767131D01*
X147893150Y-67634712D01*
X147672944Y-67543499D01*
X147439175Y-67497000D01*
X147200825Y-67497000D01*
X146967056Y-67543499D01*
X146746850Y-67634712D01*
X146548670Y-67767131D01*
X146380131Y-67935670D01*
X146247712Y-68133850D01*
X146156499Y-68354056D01*
X146110000Y-68587825D01*
X142707743Y-68587825D01*
X147799304Y-64888590D01*
X169671652Y-64888590D01*
X169683912Y-65013072D01*
X169720222Y-65132770D01*
X169779187Y-65243084D01*
X169858539Y-65339775D01*
X169955230Y-65419127D01*
X170065544Y-65478092D01*
X170185242Y-65514402D01*
X170309724Y-65526662D01*
X170873974Y-65523590D01*
X171032724Y-65364840D01*
X171032724Y-64165590D01*
X169833474Y-64165590D01*
X169674724Y-64324340D01*
X169671652Y-64888590D01*
X147799304Y-64888590D01*
X150139153Y-63188590D01*
X169671652Y-63188590D01*
X169674724Y-63752840D01*
X169833474Y-63911590D01*
X171032724Y-63911590D01*
X171032724Y-62712340D01*
X171286724Y-62712340D01*
X171286724Y-63911590D01*
X171306724Y-63911590D01*
X171306724Y-64165590D01*
X171286724Y-64165590D01*
X171286724Y-65364840D01*
X171445474Y-65523590D01*
X172009724Y-65526662D01*
X172134206Y-65514402D01*
X172253904Y-65478092D01*
X172364218Y-65419127D01*
X172460909Y-65339775D01*
X172540261Y-65243084D01*
X172599226Y-65132770D01*
X172621237Y-65060210D01*
X172753092Y-65192065D01*
X172996313Y-65354580D01*
X173266566Y-65466522D01*
X173553464Y-65523590D01*
X173845984Y-65523590D01*
X174132882Y-65466522D01*
X174403135Y-65354580D01*
X174646356Y-65192065D01*
X174853199Y-64985222D01*
X174969724Y-64810830D01*
X175086249Y-64985222D01*
X175293092Y-65192065D01*
X175536313Y-65354580D01*
X175806566Y-65466522D01*
X176093464Y-65523590D01*
X176385984Y-65523590D01*
X176672882Y-65466522D01*
X176943135Y-65354580D01*
X177186356Y-65192065D01*
X177393199Y-64985222D01*
X177555714Y-64742001D01*
X177667656Y-64471748D01*
X177724724Y-64184850D01*
X177724724Y-63892330D01*
X177667656Y-63605432D01*
X177555714Y-63335179D01*
X177393199Y-63091958D01*
X177186356Y-62885115D01*
X176943135Y-62722600D01*
X176672882Y-62610658D01*
X176385984Y-62553590D01*
X176093464Y-62553590D01*
X175806566Y-62610658D01*
X175536313Y-62722600D01*
X175293092Y-62885115D01*
X175086249Y-63091958D01*
X174969724Y-63266350D01*
X174853199Y-63091958D01*
X174646356Y-62885115D01*
X174403135Y-62722600D01*
X174132882Y-62610658D01*
X173845984Y-62553590D01*
X173553464Y-62553590D01*
X173266566Y-62610658D01*
X172996313Y-62722600D01*
X172753092Y-62885115D01*
X172621237Y-63016970D01*
X172599226Y-62944410D01*
X172540261Y-62834096D01*
X172460909Y-62737405D01*
X172364218Y-62658053D01*
X172253904Y-62599088D01*
X172134206Y-62562778D01*
X172009724Y-62550518D01*
X171445474Y-62553590D01*
X171286724Y-62712340D01*
X171032724Y-62712340D01*
X170873974Y-62553590D01*
X170309724Y-62550518D01*
X170185242Y-62562778D01*
X170065544Y-62599088D01*
X169955230Y-62658053D01*
X169858539Y-62737405D01*
X169779187Y-62834096D01*
X169720222Y-62944410D01*
X169683912Y-63064108D01*
X169671652Y-63188590D01*
X150139153Y-63188590D01*
X151398542Y-62273591D01*
X188897627Y-62273591D01*
X158560230Y-84315000D01*
%TA.AperFunction,Conductor*%
D16*
G36*
X158560230Y-84315000D02*
G01*
X121061141Y-84315000D01*
X123691765Y-82403740D01*
X132234045Y-82403740D01*
X132234045Y-82696260D01*
X132291113Y-82983158D01*
X132403055Y-83253411D01*
X132565570Y-83496632D01*
X132772413Y-83703475D01*
X133015634Y-83865990D01*
X133285887Y-83977932D01*
X133572785Y-84035000D01*
X133865305Y-84035000D01*
X134152203Y-83977932D01*
X134422456Y-83865990D01*
X134665677Y-83703475D01*
X134872520Y-83496632D01*
X134989045Y-83322240D01*
X135105570Y-83496632D01*
X135312413Y-83703475D01*
X135555634Y-83865990D01*
X135825887Y-83977932D01*
X136112785Y-84035000D01*
X136405305Y-84035000D01*
X136692203Y-83977932D01*
X136962456Y-83865990D01*
X137205677Y-83703475D01*
X137337532Y-83571620D01*
X137359543Y-83644180D01*
X137418508Y-83754494D01*
X137497860Y-83851185D01*
X137594551Y-83930537D01*
X137704865Y-83989502D01*
X137824563Y-84025812D01*
X137949045Y-84038072D01*
X138513295Y-84035000D01*
X138672045Y-83876250D01*
X138672045Y-82677000D01*
X138926045Y-82677000D01*
X138926045Y-83876250D01*
X139084795Y-84035000D01*
X139649045Y-84038072D01*
X139773527Y-84025812D01*
X139893225Y-83989502D01*
X140003539Y-83930537D01*
X140100230Y-83851185D01*
X140179582Y-83754494D01*
X140238547Y-83644180D01*
X140274857Y-83524482D01*
X140287117Y-83400000D01*
X140284045Y-82835750D01*
X140125295Y-82677000D01*
X138926045Y-82677000D01*
X138672045Y-82677000D01*
X138652045Y-82677000D01*
X138652045Y-82423000D01*
X138672045Y-82423000D01*
X138672045Y-81223750D01*
X138926045Y-81223750D01*
X138926045Y-82423000D01*
X140125295Y-82423000D01*
X140284045Y-82264250D01*
X140287117Y-81700000D01*
X140274857Y-81575518D01*
X140238547Y-81455820D01*
X140179582Y-81345506D01*
X140100230Y-81248815D01*
X140003539Y-81169463D01*
X139893225Y-81110498D01*
X139773527Y-81074188D01*
X139649045Y-81061928D01*
X139084795Y-81065000D01*
X138926045Y-81223750D01*
X138672045Y-81223750D01*
X138513295Y-81065000D01*
X137949045Y-81061928D01*
X137824563Y-81074188D01*
X137704865Y-81110498D01*
X137594551Y-81169463D01*
X137497860Y-81248815D01*
X137418508Y-81345506D01*
X137359543Y-81455820D01*
X137337532Y-81528380D01*
X137205677Y-81396525D01*
X136962456Y-81234010D01*
X136692203Y-81122068D01*
X136405305Y-81065000D01*
X136112785Y-81065000D01*
X135825887Y-81122068D01*
X135555634Y-81234010D01*
X135312413Y-81396525D01*
X135105570Y-81603368D01*
X134989045Y-81777760D01*
X134872520Y-81603368D01*
X134665677Y-81396525D01*
X134422456Y-81234010D01*
X134152203Y-81122068D01*
X133865305Y-81065000D01*
X133572785Y-81065000D01*
X133285887Y-81122068D01*
X133015634Y-81234010D01*
X132772413Y-81396525D01*
X132565570Y-81603368D01*
X132403055Y-81846589D01*
X132291113Y-82116842D01*
X132234045Y-82403740D01*
X123691765Y-82403740D01*
X129537553Y-78156527D01*
X130854042Y-78156527D01*
X130854042Y-78449047D01*
X130911110Y-78735945D01*
X131023052Y-79006198D01*
X131185567Y-79249419D01*
X131392410Y-79456262D01*
X131635631Y-79618777D01*
X131905884Y-79730719D01*
X132192782Y-79787787D01*
X132485302Y-79787787D01*
X132772200Y-79730719D01*
X133042453Y-79618777D01*
X133285674Y-79456262D01*
X133492517Y-79249419D01*
X133655032Y-79006198D01*
X133766974Y-78735945D01*
X133824042Y-78449047D01*
X133824042Y-78181104D01*
X133960787Y-78237745D01*
X134247685Y-78294813D01*
X134540205Y-78294813D01*
X134827103Y-78237745D01*
X135097356Y-78125803D01*
X135340577Y-77963288D01*
X135445040Y-77858825D01*
X161477000Y-77858825D01*
X161477000Y-78097175D01*
X161523499Y-78330944D01*
X161614712Y-78551150D01*
X161747131Y-78749330D01*
X161915670Y-78917869D01*
X162113850Y-79050288D01*
X162334056Y-79141501D01*
X162567825Y-79188000D01*
X162806175Y-79188000D01*
X163039944Y-79141501D01*
X163260150Y-79050288D01*
X163458330Y-78917869D01*
X163626869Y-78749330D01*
X163759288Y-78551150D01*
X163850501Y-78330944D01*
X163897000Y-78097175D01*
X163897000Y-77858825D01*
X163850501Y-77625056D01*
X163759288Y-77404850D01*
X163626869Y-77206670D01*
X163458330Y-77038131D01*
X163260150Y-76905712D01*
X163039944Y-76814499D01*
X162806175Y-76768000D01*
X162567825Y-76768000D01*
X162334056Y-76814499D01*
X162113850Y-76905712D01*
X161915670Y-77038131D01*
X161747131Y-77206670D01*
X161614712Y-77404850D01*
X161523499Y-77625056D01*
X161477000Y-77858825D01*
X135445040Y-77858825D01*
X135547420Y-77756445D01*
X135709935Y-77513224D01*
X135821877Y-77242971D01*
X135869366Y-77004229D01*
X135927409Y-77048166D01*
X136039954Y-77102753D01*
X136160985Y-77134336D01*
X136285851Y-77141700D01*
X136409756Y-77124562D01*
X136527936Y-77083581D01*
X136635850Y-77020331D01*
X137090532Y-76686188D01*
X137125653Y-76464446D01*
X136420752Y-75494232D01*
X136404571Y-75505988D01*
X136287560Y-75344934D01*
X136626242Y-75344934D01*
X137331143Y-76315148D01*
X137552886Y-76350269D01*
X138011179Y-76021096D01*
X138104681Y-75938009D01*
X138180176Y-75838277D01*
X138234763Y-75725732D01*
X138266346Y-75604701D01*
X138273710Y-75479835D01*
X138256572Y-75355930D01*
X138215591Y-75237750D01*
X138152341Y-75129836D01*
X137818198Y-74675154D01*
X137596456Y-74640033D01*
X136626242Y-75344934D01*
X136287560Y-75344934D01*
X136255274Y-75300497D01*
X136271454Y-75288742D01*
X135566553Y-74318528D01*
X135344810Y-74283407D01*
X134886517Y-74612580D01*
X134793015Y-74695667D01*
X134717520Y-74795399D01*
X134662933Y-74907944D01*
X134631350Y-75028975D01*
X134623986Y-75153841D01*
X134641124Y-75277746D01*
X134666131Y-75349861D01*
X134540205Y-75324813D01*
X134247685Y-75324813D01*
X133960787Y-75381881D01*
X133690534Y-75493823D01*
X133447313Y-75656338D01*
X133240470Y-75863181D01*
X133077955Y-76106402D01*
X132966013Y-76376655D01*
X132908945Y-76663553D01*
X132908945Y-76931496D01*
X132772200Y-76874855D01*
X132485302Y-76817787D01*
X132192782Y-76817787D01*
X131905884Y-76874855D01*
X131635631Y-76986797D01*
X131392410Y-77149312D01*
X131185567Y-77356155D01*
X131023052Y-77599376D01*
X130911110Y-77869629D01*
X130854042Y-78156527D01*
X129537553Y-78156527D01*
X135025597Y-74169230D01*
X135772043Y-74169230D01*
X136476944Y-75139444D01*
X137447158Y-74434543D01*
X137482279Y-74212800D01*
X137153106Y-73754507D01*
X137070019Y-73661005D01*
X136970287Y-73585510D01*
X136857742Y-73530923D01*
X136736711Y-73499340D01*
X136611845Y-73491976D01*
X136487940Y-73509114D01*
X136369760Y-73550095D01*
X136261846Y-73613345D01*
X135807164Y-73947488D01*
X135772043Y-74169230D01*
X135025597Y-74169230D01*
X138084871Y-71946537D01*
X152321001Y-71946537D01*
X152321001Y-72150415D01*
X152360775Y-72350374D01*
X152438796Y-72538732D01*
X152552064Y-72708250D01*
X152675682Y-72831868D01*
X152675681Y-74119310D01*
X152631744Y-74163247D01*
X152518476Y-74332765D01*
X152440455Y-74521123D01*
X152400681Y-74721082D01*
X152400681Y-74924960D01*
X152440455Y-75124919D01*
X152518476Y-75313277D01*
X152631744Y-75482795D01*
X152775907Y-75626958D01*
X152945425Y-75740226D01*
X153133783Y-75818247D01*
X153333742Y-75858021D01*
X153524000Y-75858021D01*
X153524000Y-76047939D01*
X153563774Y-76247898D01*
X153641795Y-76436256D01*
X153755063Y-76605774D01*
X153899226Y-76749937D01*
X154068744Y-76863205D01*
X154257102Y-76941226D01*
X154457061Y-76981000D01*
X154660939Y-76981000D01*
X154860898Y-76941226D01*
X155049256Y-76863205D01*
X155218774Y-76749937D01*
X155362937Y-76605774D01*
X155476205Y-76436256D01*
X155554226Y-76247898D01*
X155594000Y-76047939D01*
X155594000Y-75844061D01*
X155554226Y-75644102D01*
X155476205Y-75455744D01*
X155362937Y-75286226D01*
X155319000Y-75242289D01*
X155319000Y-73219028D01*
X155494157Y-73184187D01*
X155682515Y-73106166D01*
X155852033Y-72992898D01*
X155996196Y-72848735D01*
X156109464Y-72679217D01*
X156187485Y-72490859D01*
X156210373Y-72375791D01*
X172476490Y-72375791D01*
X172805663Y-72834084D01*
X172888750Y-72927586D01*
X172988482Y-73003081D01*
X173101027Y-73057668D01*
X173222058Y-73089251D01*
X173346924Y-73096615D01*
X173470829Y-73079477D01*
X173589009Y-73038496D01*
X173696923Y-72975246D01*
X174151605Y-72641103D01*
X174186726Y-72419361D01*
X173481825Y-71449147D01*
X172511611Y-72154048D01*
X172476490Y-72375791D01*
X156210373Y-72375791D01*
X156227259Y-72290900D01*
X156227259Y-72087022D01*
X156187485Y-71887063D01*
X156109464Y-71698705D01*
X155996196Y-71529187D01*
X155852033Y-71385024D01*
X155682515Y-71271756D01*
X155494157Y-71193735D01*
X155294198Y-71153961D01*
X155090320Y-71153961D01*
X154890361Y-71193735D01*
X154702003Y-71271756D01*
X154532485Y-71385024D01*
X154388322Y-71529187D01*
X154309835Y-71646651D01*
X154273206Y-71558220D01*
X154159938Y-71388702D01*
X154015775Y-71244539D01*
X153846257Y-71131271D01*
X153791902Y-71108756D01*
X171685059Y-71108756D01*
X171702197Y-71232661D01*
X171743178Y-71350841D01*
X171806428Y-71458755D01*
X172140571Y-71913437D01*
X172362313Y-71948558D01*
X173332527Y-71243657D01*
X172627626Y-70273443D01*
X172405883Y-70238322D01*
X171947590Y-70567495D01*
X171854088Y-70650582D01*
X171778593Y-70750314D01*
X171724006Y-70862859D01*
X171692423Y-70983890D01*
X171685059Y-71108756D01*
X153791902Y-71108756D01*
X153657899Y-71053250D01*
X153457940Y-71013476D01*
X153254062Y-71013476D01*
X153054103Y-71053250D01*
X152865745Y-71131271D01*
X152696227Y-71244539D01*
X152552064Y-71388702D01*
X152438796Y-71558220D01*
X152360775Y-71746578D01*
X152321001Y-71946537D01*
X138084871Y-71946537D01*
X140593179Y-70124145D01*
X172833116Y-70124145D01*
X173538017Y-71094359D01*
X173554198Y-71082603D01*
X173703495Y-71288094D01*
X173687315Y-71299849D01*
X174392216Y-72270063D01*
X174613959Y-72305184D01*
X175072252Y-71976011D01*
X175165754Y-71892924D01*
X175241249Y-71793192D01*
X175295836Y-71680647D01*
X175327419Y-71559616D01*
X175334783Y-71434750D01*
X175317645Y-71310845D01*
X175292638Y-71238730D01*
X175418564Y-71263778D01*
X175711084Y-71263778D01*
X175997982Y-71206710D01*
X176268235Y-71094768D01*
X176511456Y-70932253D01*
X176718299Y-70725410D01*
X176880814Y-70482189D01*
X176992756Y-70211936D01*
X177049824Y-69925038D01*
X177049824Y-69657095D01*
X177186569Y-69713736D01*
X177473467Y-69770804D01*
X177765987Y-69770804D01*
X178052885Y-69713736D01*
X178323138Y-69601794D01*
X178566359Y-69439279D01*
X178773202Y-69232436D01*
X178935717Y-68989215D01*
X179047659Y-68718962D01*
X179104727Y-68432064D01*
X179104727Y-68139544D01*
X179047659Y-67852646D01*
X178935717Y-67582393D01*
X178773202Y-67339172D01*
X178566359Y-67132329D01*
X178323138Y-66969814D01*
X178052885Y-66857872D01*
X177765987Y-66800804D01*
X177473467Y-66800804D01*
X177186569Y-66857872D01*
X176916316Y-66969814D01*
X176673095Y-67132329D01*
X176466252Y-67339172D01*
X176303737Y-67582393D01*
X176191795Y-67852646D01*
X176134727Y-68139544D01*
X176134727Y-68407487D01*
X175997982Y-68350846D01*
X175711084Y-68293778D01*
X175418564Y-68293778D01*
X175131666Y-68350846D01*
X174861413Y-68462788D01*
X174618192Y-68625303D01*
X174411349Y-68832146D01*
X174248834Y-69075367D01*
X174136892Y-69345620D01*
X174089403Y-69584362D01*
X174031360Y-69540425D01*
X173918815Y-69485838D01*
X173797784Y-69454255D01*
X173672918Y-69446891D01*
X173549013Y-69464029D01*
X173430833Y-69505010D01*
X173322919Y-69568260D01*
X172868237Y-69902403D01*
X172833116Y-70124145D01*
X140593179Y-70124145D01*
X142707743Y-68587825D01*
X146110000Y-68587825D01*
X146110000Y-68826175D01*
X146156499Y-69059944D01*
X146247712Y-69280150D01*
X146380131Y-69478330D01*
X146548670Y-69646869D01*
X146746850Y-69779288D01*
X146967056Y-69870501D01*
X147200825Y-69917000D01*
X147439175Y-69917000D01*
X147672944Y-69870501D01*
X147893150Y-69779288D01*
X148091330Y-69646869D01*
X148259869Y-69478330D01*
X148392288Y-69280150D01*
X148483501Y-69059944D01*
X148530000Y-68826175D01*
X148530000Y-68587825D01*
X148483501Y-68354056D01*
X148392288Y-68133850D01*
X148259869Y-67935670D01*
X148091330Y-67767131D01*
X147893150Y-67634712D01*
X147672944Y-67543499D01*
X147439175Y-67497000D01*
X147200825Y-67497000D01*
X146967056Y-67543499D01*
X146746850Y-67634712D01*
X146548670Y-67767131D01*
X146380131Y-67935670D01*
X146247712Y-68133850D01*
X146156499Y-68354056D01*
X146110000Y-68587825D01*
X142707743Y-68587825D01*
X147799304Y-64888590D01*
X169671652Y-64888590D01*
X169683912Y-65013072D01*
X169720222Y-65132770D01*
X169779187Y-65243084D01*
X169858539Y-65339775D01*
X169955230Y-65419127D01*
X170065544Y-65478092D01*
X170185242Y-65514402D01*
X170309724Y-65526662D01*
X170873974Y-65523590D01*
X171032724Y-65364840D01*
X171032724Y-64165590D01*
X169833474Y-64165590D01*
X169674724Y-64324340D01*
X169671652Y-64888590D01*
X147799304Y-64888590D01*
X150139153Y-63188590D01*
X169671652Y-63188590D01*
X169674724Y-63752840D01*
X169833474Y-63911590D01*
X171032724Y-63911590D01*
X171032724Y-62712340D01*
X171286724Y-62712340D01*
X171286724Y-63911590D01*
X171306724Y-63911590D01*
X171306724Y-64165590D01*
X171286724Y-64165590D01*
X171286724Y-65364840D01*
X171445474Y-65523590D01*
X172009724Y-65526662D01*
X172134206Y-65514402D01*
X172253904Y-65478092D01*
X172364218Y-65419127D01*
X172460909Y-65339775D01*
X172540261Y-65243084D01*
X172599226Y-65132770D01*
X172621237Y-65060210D01*
X172753092Y-65192065D01*
X172996313Y-65354580D01*
X173266566Y-65466522D01*
X173553464Y-65523590D01*
X173845984Y-65523590D01*
X174132882Y-65466522D01*
X174403135Y-65354580D01*
X174646356Y-65192065D01*
X174853199Y-64985222D01*
X174969724Y-64810830D01*
X175086249Y-64985222D01*
X175293092Y-65192065D01*
X175536313Y-65354580D01*
X175806566Y-65466522D01*
X176093464Y-65523590D01*
X176385984Y-65523590D01*
X176672882Y-65466522D01*
X176943135Y-65354580D01*
X177186356Y-65192065D01*
X177393199Y-64985222D01*
X177555714Y-64742001D01*
X177667656Y-64471748D01*
X177724724Y-64184850D01*
X177724724Y-63892330D01*
X177667656Y-63605432D01*
X177555714Y-63335179D01*
X177393199Y-63091958D01*
X177186356Y-62885115D01*
X176943135Y-62722600D01*
X176672882Y-62610658D01*
X176385984Y-62553590D01*
X176093464Y-62553590D01*
X175806566Y-62610658D01*
X175536313Y-62722600D01*
X175293092Y-62885115D01*
X175086249Y-63091958D01*
X174969724Y-63266350D01*
X174853199Y-63091958D01*
X174646356Y-62885115D01*
X174403135Y-62722600D01*
X174132882Y-62610658D01*
X173845984Y-62553590D01*
X173553464Y-62553590D01*
X173266566Y-62610658D01*
X172996313Y-62722600D01*
X172753092Y-62885115D01*
X172621237Y-63016970D01*
X172599226Y-62944410D01*
X172540261Y-62834096D01*
X172460909Y-62737405D01*
X172364218Y-62658053D01*
X172253904Y-62599088D01*
X172134206Y-62562778D01*
X172009724Y-62550518D01*
X171445474Y-62553590D01*
X171286724Y-62712340D01*
X171032724Y-62712340D01*
X170873974Y-62553590D01*
X170309724Y-62550518D01*
X170185242Y-62562778D01*
X170065544Y-62599088D01*
X169955230Y-62658053D01*
X169858539Y-62737405D01*
X169779187Y-62834096D01*
X169720222Y-62944410D01*
X169683912Y-63064108D01*
X169671652Y-63188590D01*
X150139153Y-63188590D01*
X151398542Y-62273591D01*
X188897627Y-62273591D01*
X158560230Y-84315000D01*
G37*
%TD.AperFunction*%
%TD*%
M02*
