%TF.GenerationSoftware,KiCad,Pcbnew,5.1.8*%
%TF.CreationDate,2021-01-06T14:43:42-05:00*%
%TF.ProjectId,penroserombus_thin_40mm,70656e72-6f73-4657-926f-6d6275735f74,rev?*%
%TF.SameCoordinates,Original*%
%TF.FileFunction,Legend,Top*%
%TF.FilePolarity,Positive*%
%FSLAX46Y46*%
G04 Gerber Fmt 4.6, Leading zero omitted, Abs format (unit mm)*
G04 Created by KiCad (PCBNEW 5.1.8) date 2021-01-06 14:43:42*
%MOMM*%
%LPD*%
G01*
G04 APERTURE LIST*
%ADD10C,0.150000*%
%ADD11C,0.500000*%
%ADD12C,0.300000*%
%ADD13C,0.120000*%
%ADD14C,0.200000*%
%ADD15C,1.524000*%
%ADD16C,0.100000*%
%ADD17O,1.700000X1.700000*%
%ADD18R,1.700000X1.700000*%
G04 APERTURE END LIST*
D10*
X138001197Y-76046680D02*
X138588982Y-76855697D01*
X138396359Y-76995646D01*
X138252795Y-77041091D01*
X138119767Y-77020021D01*
X138025262Y-76970962D01*
X137874779Y-76844853D01*
X137790809Y-76729279D01*
X137717375Y-76547191D01*
X137699920Y-76442152D01*
X137720990Y-76309123D01*
X137808574Y-76186629D01*
X138001197Y-76046680D01*
X136845458Y-76886374D02*
X137153346Y-77310144D01*
X137247850Y-77359204D01*
X137352889Y-77341749D01*
X137506987Y-77229790D01*
X137556047Y-77135286D01*
X136873448Y-76924898D02*
X136922508Y-76830394D01*
X137115131Y-76690445D01*
X137220170Y-76672990D01*
X137314674Y-76722050D01*
X137370653Y-76799099D01*
X137388108Y-76904138D01*
X137339049Y-76998642D01*
X137146426Y-77138591D01*
X137097366Y-77233095D01*
X136967643Y-77621647D02*
X136659446Y-77845565D01*
X137047997Y-77975288D02*
X136544181Y-77281845D01*
X136449677Y-77232786D01*
X136344638Y-77250241D01*
X136267589Y-77306220D01*
X135651195Y-77754057D02*
X135959083Y-78177827D01*
X136053587Y-78226887D01*
X136158626Y-78209432D01*
X136312724Y-78097473D01*
X136361784Y-78002969D01*
X135679185Y-77792581D02*
X135728244Y-77698077D01*
X135920867Y-77558128D01*
X136025906Y-77540673D01*
X136120411Y-77589733D01*
X136176390Y-77666782D01*
X136193845Y-77771821D01*
X136144786Y-77866325D01*
X135952163Y-78006274D01*
X135903103Y-78100778D01*
X135083242Y-79402767D02*
X134929143Y-79514726D01*
X134824104Y-79532181D01*
X134691076Y-79511111D01*
X134540592Y-79385002D01*
X134344663Y-79115330D01*
X134271229Y-78933242D01*
X134292299Y-78800213D01*
X134341358Y-78705709D01*
X134495457Y-78593750D01*
X134600496Y-78576295D01*
X134733524Y-78597365D01*
X134884008Y-78723473D01*
X135079936Y-78993146D01*
X135153371Y-79175234D01*
X135132301Y-79308263D01*
X135083242Y-79402767D01*
X133847149Y-79888818D02*
X133455292Y-79349474D01*
X134193870Y-79636910D02*
X133885983Y-79213140D01*
X133791479Y-79164080D01*
X133686440Y-79181535D01*
X133570866Y-79265504D01*
X133521806Y-79360008D01*
X133511271Y-79426523D01*
X133577476Y-80084747D02*
X133269279Y-80308665D01*
X133657831Y-80438388D02*
X133154015Y-79744945D01*
X133059511Y-79695886D01*
X132954472Y-79713341D01*
X132877423Y-79769320D01*
X134255190Y-80970380D02*
X134255190Y-79970380D01*
X134493285Y-79970380D01*
X134636142Y-80018000D01*
X134731380Y-80113238D01*
X134779000Y-80208476D01*
X134826619Y-80398952D01*
X134826619Y-80541809D01*
X134779000Y-80732285D01*
X134731380Y-80827523D01*
X134636142Y-80922761D01*
X134493285Y-80970380D01*
X134255190Y-80970380D01*
X135683761Y-80970380D02*
X135683761Y-80446571D01*
X135636142Y-80351333D01*
X135540904Y-80303714D01*
X135350428Y-80303714D01*
X135255190Y-80351333D01*
X135683761Y-80922761D02*
X135588523Y-80970380D01*
X135350428Y-80970380D01*
X135255190Y-80922761D01*
X135207571Y-80827523D01*
X135207571Y-80732285D01*
X135255190Y-80637047D01*
X135350428Y-80589428D01*
X135588523Y-80589428D01*
X135683761Y-80541809D01*
X136017095Y-80303714D02*
X136398047Y-80303714D01*
X136159952Y-79970380D02*
X136159952Y-80827523D01*
X136207571Y-80922761D01*
X136302809Y-80970380D01*
X136398047Y-80970380D01*
X137159952Y-80970380D02*
X137159952Y-80446571D01*
X137112333Y-80351333D01*
X137017095Y-80303714D01*
X136826619Y-80303714D01*
X136731380Y-80351333D01*
X137159952Y-80922761D02*
X137064714Y-80970380D01*
X136826619Y-80970380D01*
X136731380Y-80922761D01*
X136683761Y-80827523D01*
X136683761Y-80732285D01*
X136731380Y-80637047D01*
X136826619Y-80589428D01*
X137064714Y-80589428D01*
X137159952Y-80541809D01*
X138398047Y-80970380D02*
X138398047Y-79970380D01*
X138874238Y-80303714D02*
X138874238Y-80970380D01*
X138874238Y-80398952D02*
X138921857Y-80351333D01*
X139017095Y-80303714D01*
X139159952Y-80303714D01*
X139255190Y-80351333D01*
X139302809Y-80446571D01*
X139302809Y-80970380D01*
X171878802Y-70511319D02*
X171291017Y-69702302D01*
X171483640Y-69562353D01*
X171627204Y-69516908D01*
X171760232Y-69537978D01*
X171854737Y-69587037D01*
X172005220Y-69713146D01*
X172089190Y-69828720D01*
X172162624Y-70010808D01*
X172180079Y-70115847D01*
X172159009Y-70248876D01*
X172071425Y-70371370D01*
X171878802Y-70511319D01*
X173034541Y-69671625D02*
X172726653Y-69247855D01*
X172632149Y-69198795D01*
X172527110Y-69216250D01*
X172373012Y-69328209D01*
X172323952Y-69422713D01*
X173006551Y-69633101D02*
X172957491Y-69727605D01*
X172764868Y-69867554D01*
X172659829Y-69885009D01*
X172565325Y-69835949D01*
X172509346Y-69758900D01*
X172491891Y-69653861D01*
X172540950Y-69559357D01*
X172733573Y-69419408D01*
X172782633Y-69324904D01*
X172912356Y-68936352D02*
X173220553Y-68712434D01*
X172832002Y-68582711D02*
X173335818Y-69276154D01*
X173430322Y-69325213D01*
X173535361Y-69307758D01*
X173612410Y-69251779D01*
X174228804Y-68803942D02*
X173920916Y-68380172D01*
X173826412Y-68331112D01*
X173721373Y-68348567D01*
X173567275Y-68460526D01*
X173518215Y-68555030D01*
X174200814Y-68765418D02*
X174151755Y-68859922D01*
X173959132Y-68999871D01*
X173854093Y-69017326D01*
X173759588Y-68968266D01*
X173703609Y-68891217D01*
X173686154Y-68786178D01*
X173735213Y-68691674D01*
X173927836Y-68551725D01*
X173976896Y-68457221D01*
X174796757Y-67155232D02*
X174950856Y-67043273D01*
X175055895Y-67025818D01*
X175188923Y-67046888D01*
X175339407Y-67172997D01*
X175535336Y-67442669D01*
X175608770Y-67624757D01*
X175587700Y-67757786D01*
X175538641Y-67852290D01*
X175384542Y-67964249D01*
X175279503Y-67981704D01*
X175146475Y-67960634D01*
X174995991Y-67834526D01*
X174800063Y-67564853D01*
X174726628Y-67382765D01*
X174747698Y-67249736D01*
X174796757Y-67155232D01*
X176032850Y-66669181D02*
X176424707Y-67208525D01*
X175686129Y-66921089D02*
X175994016Y-67344859D01*
X176088520Y-67393919D01*
X176193559Y-67376464D01*
X176309133Y-67292495D01*
X176358193Y-67197991D01*
X176368728Y-67131476D01*
X176302523Y-66473252D02*
X176610720Y-66249334D01*
X176222168Y-66119611D02*
X176725984Y-66813054D01*
X176820488Y-66862113D01*
X176925527Y-66844658D01*
X177002576Y-66788679D01*
X175243809Y-65714619D02*
X175243809Y-66714619D01*
X175005714Y-66714619D01*
X174862857Y-66667000D01*
X174767619Y-66571761D01*
X174720000Y-66476523D01*
X174672380Y-66286047D01*
X174672380Y-66143190D01*
X174720000Y-65952714D01*
X174767619Y-65857476D01*
X174862857Y-65762238D01*
X175005714Y-65714619D01*
X175243809Y-65714619D01*
X173815238Y-65714619D02*
X173815238Y-66238428D01*
X173862857Y-66333666D01*
X173958095Y-66381285D01*
X174148571Y-66381285D01*
X174243809Y-66333666D01*
X173815238Y-65762238D02*
X173910476Y-65714619D01*
X174148571Y-65714619D01*
X174243809Y-65762238D01*
X174291428Y-65857476D01*
X174291428Y-65952714D01*
X174243809Y-66047952D01*
X174148571Y-66095571D01*
X173910476Y-66095571D01*
X173815238Y-66143190D01*
X173481904Y-66381285D02*
X173100952Y-66381285D01*
X173339047Y-66714619D02*
X173339047Y-65857476D01*
X173291428Y-65762238D01*
X173196190Y-65714619D01*
X173100952Y-65714619D01*
X172339047Y-65714619D02*
X172339047Y-66238428D01*
X172386666Y-66333666D01*
X172481904Y-66381285D01*
X172672380Y-66381285D01*
X172767619Y-66333666D01*
X172339047Y-65762238D02*
X172434285Y-65714619D01*
X172672380Y-65714619D01*
X172767619Y-65762238D01*
X172815238Y-65857476D01*
X172815238Y-65952714D01*
X172767619Y-66047952D01*
X172672380Y-66095571D01*
X172434285Y-66095571D01*
X172339047Y-66143190D01*
X171100952Y-65714619D02*
X171100952Y-66714619D01*
X170624761Y-66381285D02*
X170624761Y-65714619D01*
X170624761Y-66286047D02*
X170577142Y-66333666D01*
X170481904Y-66381285D01*
X170339047Y-66381285D01*
X170243809Y-66333666D01*
X170196190Y-66238428D01*
X170196190Y-65714619D01*
D11*
X129810000Y-82280190D02*
X129714761Y-82470666D01*
X129714761Y-82756380D01*
X129810000Y-83042095D01*
X130000476Y-83232571D01*
X130190952Y-83327809D01*
X130571904Y-83423047D01*
X130857619Y-83423047D01*
X131238571Y-83327809D01*
X131429047Y-83232571D01*
X131619523Y-83042095D01*
X131714761Y-82756380D01*
X131714761Y-82565904D01*
X131619523Y-82280190D01*
X131524285Y-82184952D01*
X130857619Y-82184952D01*
X130857619Y-82565904D01*
D12*
X161152333Y-61612094D02*
G75*
G02*
X143002001Y-67309999I-9992608J73503D01*
G01*
X147798699Y-85049631D02*
G75*
G02*
X167710000Y-78600000I11000346J-369D01*
G01*
X148852554Y-85047305D02*
G75*
G02*
X166877999Y-79248001I9946491J-2695D01*
G01*
D11*
X179998997Y-67595666D02*
X179865968Y-67574596D01*
X179620981Y-67399428D01*
X179509022Y-67245330D01*
X179418132Y-66958203D01*
X179460271Y-66692145D01*
X179558390Y-66503137D01*
X179810608Y-66202169D01*
X180041756Y-66034231D01*
X180405932Y-65887362D01*
X180616010Y-65852452D01*
X180882068Y-65894591D01*
X181127056Y-66069759D01*
X181239015Y-66223858D01*
X181329904Y-66510985D01*
X181308834Y-66644014D01*
X129243811Y-81116060D02*
X128572056Y-80191469D01*
X130525967Y-79478194D02*
X128907933Y-80653764D01*
X178990666Y-63531809D02*
X178990666Y-64484190D01*
X178419238Y-63341333D02*
X180419238Y-64008000D01*
X178419238Y-64674666D01*
D13*
%TO.C,MH*%
X166406545Y-76835000D02*
G75*
G03*
X166406545Y-76835000I-3465545J0D01*
G01*
X150023545Y-69723000D02*
G75*
G03*
X150023545Y-69723000I-3465545J0D01*
G01*
%TO.C,J3*%
X137524841Y-74535084D02*
X138306595Y-75611076D01*
X138306595Y-75611076D02*
X137230602Y-76392831D01*
X136203151Y-77139318D02*
X132044803Y-80160534D01*
X130481295Y-78008549D02*
X132044803Y-80160534D01*
X134639642Y-74987333D02*
X130481295Y-78008549D01*
X134639642Y-74987333D02*
X136203151Y-77139318D01*
%TO.C,C1*%
X148125690Y-75187128D02*
X148287153Y-75684059D01*
X146727637Y-75641383D02*
X146889100Y-76138314D01*
%TO.C,C2*%
X162898363Y-70096059D02*
X162736900Y-69599128D01*
X161500310Y-70550314D02*
X161338847Y-70053383D01*
%TO.C,D1*%
X147240425Y-78700358D02*
X146885055Y-77606643D01*
X140297712Y-80956182D02*
X147240425Y-78700358D01*
X138598119Y-75725372D02*
X145540832Y-73469548D01*
%TO.C,D2*%
X171360652Y-70863221D02*
X164417939Y-73119045D01*
X169661059Y-65632411D02*
X162718346Y-67888235D01*
X162718346Y-67888235D02*
X163073716Y-68981950D01*
%TO.C,J1*%
X172429724Y-65368590D02*
X172429724Y-62708590D01*
X172429724Y-65368590D02*
X177569724Y-65368590D01*
X177569724Y-65368590D02*
X177569724Y-62708590D01*
X172429724Y-62708590D02*
X177569724Y-62708590D01*
X169829724Y-62708590D02*
X171159724Y-62708590D01*
X169829724Y-64038590D02*
X169829724Y-62708590D01*
%TO.C,J2*%
X140129045Y-82550000D02*
X140129045Y-83880000D01*
X140129045Y-83880000D02*
X138799045Y-83880000D01*
X137529045Y-83880000D02*
X132389045Y-83880000D01*
X132389045Y-81220000D02*
X132389045Y-83880000D01*
X137529045Y-81220000D02*
X132389045Y-81220000D01*
X137529045Y-81220000D02*
X137529045Y-83880000D01*
%TO.C,J4*%
X175319127Y-71601258D02*
X173755618Y-69449273D01*
X175319127Y-71601258D02*
X179477474Y-68580042D01*
X179477474Y-68580042D02*
X177913966Y-66428057D01*
X173755618Y-69449273D02*
X177913966Y-66428057D01*
X171652174Y-70977515D02*
X172728167Y-70195760D01*
X172433928Y-72053507D02*
X171652174Y-70977515D01*
%TO.C,JP1*%
X157581820Y-77207190D02*
X157203798Y-77014578D01*
X157774432Y-76829168D02*
X157203798Y-77014578D01*
X157581820Y-77207190D02*
X157774432Y-76829168D01*
X158668334Y-77800476D02*
X158853744Y-78371110D01*
X155170877Y-78200845D02*
X157833835Y-77335598D01*
X154954412Y-79638080D02*
X154769002Y-79067446D01*
X158451869Y-79237711D02*
X155788911Y-80102958D01*
X158853744Y-78371110D02*
G75*
G02*
X158404316Y-79253162I-665740J-216312D01*
G01*
X157786282Y-77351048D02*
G75*
G02*
X158668334Y-77800476I216312J-665740D01*
G01*
X154769002Y-79067446D02*
G75*
G02*
X155218430Y-78185394I665740J216312D01*
G01*
X155836464Y-80087508D02*
G75*
G02*
X154954412Y-79638080I-216312J665740D01*
G01*
%TO.C,JP2*%
X154040496Y-66558433D02*
X151377538Y-67423680D01*
X150543039Y-66958802D02*
X150357629Y-66388168D01*
X150759504Y-65521567D02*
X153422462Y-64656320D01*
X154256961Y-65121198D02*
X154442371Y-65691832D01*
X153170447Y-64527912D02*
X153363059Y-64149890D01*
X153363059Y-64149890D02*
X152792425Y-64335300D01*
X153170447Y-64527912D02*
X152792425Y-64335300D01*
X151425091Y-67408230D02*
G75*
G02*
X150543039Y-66958802I-216312J665740D01*
G01*
X150357629Y-66388168D02*
G75*
G02*
X150807057Y-65506116I665740J216312D01*
G01*
X153374909Y-64671770D02*
G75*
G02*
X154256961Y-65121198I216312J-665740D01*
G01*
X154442371Y-65691832D02*
G75*
G02*
X153992943Y-66573884I-665740J-216312D01*
G01*
D14*
%TO.C,SW1*%
X158071684Y-68395868D02*
G75*
G03*
X158071684Y-68395868I-223607J0D01*
G01*
D13*
X151040516Y-75759944D02*
X151516044Y-75605435D01*
X149804448Y-71955718D02*
X151040516Y-75759944D01*
X150279976Y-71801209D02*
X149804448Y-71955718D01*
X160075552Y-72824282D02*
X159837788Y-72901537D01*
X158993993Y-69495585D02*
X160075552Y-72824282D01*
X158839484Y-69020056D02*
X158993993Y-69495585D01*
X158363956Y-69174565D02*
X158839484Y-69020056D01*
%TO.C,MH*%
D10*
X162083857Y-79065380D02*
X162083857Y-78065380D01*
X162417190Y-78779666D01*
X162750523Y-78065380D01*
X162750523Y-79065380D01*
X163226714Y-79065380D02*
X163226714Y-78065380D01*
X163226714Y-78541571D02*
X163798142Y-78541571D01*
X163798142Y-79065380D02*
X163798142Y-78065380D01*
X145700857Y-72080380D02*
X145700857Y-71080380D01*
X146034190Y-71794666D01*
X146367523Y-71080380D01*
X146367523Y-72080380D01*
X146843714Y-72080380D02*
X146843714Y-71080380D01*
X146843714Y-71556571D02*
X147415142Y-71556571D01*
X147415142Y-72080380D02*
X147415142Y-71080380D01*
%TO.C,J3*%
X138936929Y-73097118D02*
X138359060Y-73516964D01*
X138215496Y-73562409D01*
X138082468Y-73541339D01*
X137959974Y-73453755D01*
X137903994Y-73376706D01*
X139160847Y-73405315D02*
X139524714Y-73906135D01*
X139020589Y-73860381D01*
X139104558Y-73975954D01*
X139122013Y-74080993D01*
X139111478Y-74147508D01*
X139062419Y-74242012D01*
X138869796Y-74381961D01*
X138764757Y-74399416D01*
X138698243Y-74388881D01*
X138603738Y-74339822D01*
X138435800Y-74108674D01*
X138418345Y-74003635D01*
X138428880Y-73937120D01*
%TO.C,C1*%
X148714004Y-75095425D02*
X148654000Y-75064852D01*
X148564566Y-74943702D01*
X148535136Y-74853125D01*
X148536279Y-74702545D01*
X148597426Y-74582538D01*
X148673288Y-74507819D01*
X148839726Y-74403670D01*
X148975591Y-74359525D01*
X149171460Y-74345953D01*
X149276752Y-74361811D01*
X149396759Y-74422958D01*
X149486193Y-74544108D01*
X149515623Y-74634685D01*
X149514480Y-74785265D01*
X149483907Y-74845269D01*
X148917729Y-76030624D02*
X148741148Y-75487163D01*
X148829438Y-75758893D02*
X149780495Y-75449876D01*
X149615199Y-75403445D01*
X149495192Y-75342298D01*
X149420474Y-75266436D01*
%TO.C,C2*%
X160644834Y-67261853D02*
X160584830Y-67231280D01*
X160495396Y-67110130D01*
X160465966Y-67019553D01*
X160467109Y-66868973D01*
X160528256Y-66748966D01*
X160604118Y-66674247D01*
X160770556Y-66570098D01*
X160906421Y-66525953D01*
X161102290Y-66512381D01*
X161207582Y-66528239D01*
X161327589Y-66589386D01*
X161417023Y-66710536D01*
X161446453Y-66801113D01*
X161445310Y-66951693D01*
X161414737Y-67011697D01*
X161532457Y-67374004D02*
X161592461Y-67404577D01*
X161667179Y-67480439D01*
X161740755Y-67706881D01*
X161724897Y-67812173D01*
X161694323Y-67872176D01*
X161618462Y-67946895D01*
X161527885Y-67976325D01*
X161377304Y-67975182D01*
X160657262Y-67608302D01*
X160848559Y-68197052D01*
%TO.C,D1*%
X141275536Y-74542490D02*
X140966519Y-73591434D01*
X141192961Y-73517858D01*
X141343541Y-73519001D01*
X141463548Y-73580148D01*
X141538267Y-73656010D01*
X141642415Y-73822448D01*
X141686561Y-73958314D01*
X141700133Y-74154182D01*
X141684274Y-74259474D01*
X141623128Y-74379481D01*
X141501978Y-74468915D01*
X141275536Y-74542490D01*
X142724765Y-74071607D02*
X142181304Y-74248188D01*
X142453034Y-74159898D02*
X142144017Y-73208841D01*
X142097586Y-73374137D01*
X142036439Y-73494144D01*
X141960577Y-73568862D01*
%TO.C,D2*%
X165680823Y-74064323D02*
X165371806Y-73113267D01*
X165598248Y-73039691D01*
X165748828Y-73040834D01*
X165868835Y-73101981D01*
X165943554Y-73177843D01*
X166047702Y-73344281D01*
X166091848Y-73480147D01*
X166105420Y-73676015D01*
X166089561Y-73781307D01*
X166028415Y-73901314D01*
X165907265Y-73990748D01*
X165680823Y-74064323D01*
X166307004Y-72909542D02*
X166337577Y-72849538D01*
X166413439Y-72774820D01*
X166639881Y-72701244D01*
X166745173Y-72717102D01*
X166805176Y-72747676D01*
X166879895Y-72823537D01*
X166909325Y-72914114D01*
X166908182Y-73064695D01*
X166541302Y-73784737D01*
X167130052Y-73593440D01*
%TO.C,J1*%
X167842104Y-64371923D02*
X168556390Y-64371923D01*
X168699247Y-64419542D01*
X168794485Y-64514780D01*
X168842104Y-64657637D01*
X168842104Y-64752875D01*
X168842104Y-63371923D02*
X168842104Y-63943351D01*
X168842104Y-63657637D02*
X167842104Y-63657637D01*
X167984962Y-63752875D01*
X168080200Y-63848113D01*
X168127819Y-63943351D01*
%TO.C,J2*%
X141021425Y-82883333D02*
X141735711Y-82883333D01*
X141878568Y-82930952D01*
X141973806Y-83026190D01*
X142021425Y-83169047D01*
X142021425Y-83264285D01*
X141116664Y-82454761D02*
X141069045Y-82407142D01*
X141021425Y-82311904D01*
X141021425Y-82073809D01*
X141069045Y-81978571D01*
X141116664Y-81930952D01*
X141211902Y-81883333D01*
X141307140Y-81883333D01*
X141449997Y-81930952D01*
X142021425Y-82502380D01*
X142021425Y-81883333D01*
%TO.C,J4*%
X171516048Y-72308363D02*
X170938179Y-72728209D01*
X170794615Y-72773654D01*
X170661587Y-72752584D01*
X170539093Y-72665000D01*
X170483113Y-72587951D01*
X171778182Y-73236259D02*
X171238837Y-73628116D01*
X171946430Y-72819718D02*
X171228612Y-73046941D01*
X171592479Y-73547761D01*
%TO.C,JP1*%
X156405833Y-80167877D02*
X156626559Y-80847203D01*
X156625416Y-80997783D01*
X156564269Y-81117790D01*
X156443119Y-81207224D01*
X156352543Y-81236654D01*
X157167734Y-80971783D02*
X156858717Y-80020726D01*
X157221024Y-79903005D01*
X157326316Y-79918864D01*
X157386320Y-79949437D01*
X157461038Y-80025299D01*
X157505183Y-80161164D01*
X157489325Y-80266456D01*
X157458752Y-80326459D01*
X157382890Y-80401178D01*
X157020583Y-80518899D01*
X158616963Y-80500900D02*
X158073502Y-80677481D01*
X158345232Y-80589190D02*
X158036215Y-79638134D01*
X157989784Y-79803429D01*
X157928637Y-79923436D01*
X157852776Y-79998155D01*
%TO.C,JP2*%
X151994460Y-67488599D02*
X152215186Y-68167925D01*
X152214043Y-68318505D01*
X152152896Y-68438512D01*
X152031746Y-68527946D01*
X151941170Y-68557376D01*
X152756361Y-68292505D02*
X152447344Y-67341448D01*
X152809651Y-67223727D01*
X152914943Y-67239586D01*
X152974947Y-67270159D01*
X153049665Y-67346021D01*
X153093810Y-67481886D01*
X153077952Y-67587178D01*
X153047379Y-67647181D01*
X152971517Y-67721900D01*
X152609210Y-67839621D01*
X153382542Y-67137723D02*
X153413115Y-67077719D01*
X153488977Y-67003001D01*
X153715419Y-66929425D01*
X153820711Y-66945284D01*
X153880715Y-66975857D01*
X153955433Y-67051719D01*
X153984863Y-67142295D01*
X153983720Y-67292876D01*
X153616841Y-68012918D01*
X154205590Y-67821622D01*
%TO.C,SW1*%
X159528344Y-70022937D02*
X159527201Y-70173518D01*
X159600777Y-70399960D01*
X159675495Y-70475822D01*
X159735499Y-70506395D01*
X159840791Y-70522253D01*
X159931368Y-70492823D01*
X160007229Y-70418104D01*
X160037803Y-70358101D01*
X160053661Y-70252809D01*
X160040089Y-70056940D01*
X160055947Y-69951648D01*
X160086520Y-69891645D01*
X160162382Y-69816926D01*
X160252959Y-69787496D01*
X160358251Y-69803354D01*
X160418254Y-69833927D01*
X160492973Y-69909789D01*
X160566548Y-70136231D01*
X160565405Y-70286812D01*
X160713699Y-70589115D02*
X159836218Y-71124574D01*
X160574405Y-71085001D01*
X159953939Y-71486882D01*
X160978571Y-71404307D01*
X160307101Y-72573803D02*
X160130520Y-72030342D01*
X160218811Y-72302073D02*
X161169867Y-71993056D01*
X161004572Y-71946624D01*
X160884565Y-71885478D01*
X160809846Y-71809616D01*
%TD*%
%LPC*%
D15*
%TO.C,MH*%
X162941000Y-76835000D03*
%TD*%
%TO.C,MH*%
X146558000Y-69723000D03*
%TD*%
D16*
%TO.C,J3*%
G36*
X135261566Y-75128791D02*
G01*
X136636895Y-74129556D01*
X137636130Y-75504885D01*
X136260801Y-76504120D01*
X135261566Y-75128791D01*
G37*
G36*
G01*
X133894328Y-76122149D02*
X133894328Y-76122149D01*
G75*
G02*
X135081609Y-76310196I499617J-687664D01*
G01*
X135081609Y-76310196D01*
G75*
G02*
X134893562Y-77497477I-687664J-499617D01*
G01*
X134893562Y-77497477D01*
G75*
G02*
X133706281Y-77309430I-499617J687664D01*
G01*
X133706281Y-77309430D01*
G75*
G02*
X133894328Y-76122149I687664J499617D01*
G01*
G37*
G36*
G01*
X131839425Y-77615123D02*
X131839425Y-77615123D01*
G75*
G02*
X133026706Y-77803170I499617J-687664D01*
G01*
X133026706Y-77803170D01*
G75*
G02*
X132838659Y-78990451I-687664J-499617D01*
G01*
X132838659Y-78990451D01*
G75*
G02*
X131651378Y-78802404I-499617J687664D01*
G01*
X131651378Y-78802404D01*
G75*
G02*
X131839425Y-77615123I687664J499617D01*
G01*
G37*
%TD*%
%TO.C,C1*%
G36*
G01*
X147194701Y-76237479D02*
X148098205Y-75943913D01*
G75*
G02*
X148413223Y-76104423I77254J-237764D01*
G01*
X148621809Y-76746387D01*
G75*
G02*
X148461299Y-77061405I-237764J-77254D01*
G01*
X147557795Y-77354971D01*
G75*
G02*
X147242777Y-77194461I-77254J237764D01*
G01*
X147034191Y-76552497D01*
G75*
G02*
X147194701Y-76237479I237764J77254D01*
G01*
G37*
G36*
G01*
X146553491Y-74264037D02*
X147456995Y-73970471D01*
G75*
G02*
X147772013Y-74130981I77254J-237764D01*
G01*
X147980599Y-74772945D01*
G75*
G02*
X147820089Y-75087963I-237764J-77254D01*
G01*
X146916585Y-75381529D01*
G75*
G02*
X146601567Y-75221019I-77254J237764D01*
G01*
X146392981Y-74579055D01*
G75*
G02*
X146553491Y-74264037I237764J77254D01*
G01*
G37*
%TD*%
%TO.C,C2*%
G36*
G01*
X163072509Y-71473405D02*
X162169005Y-71766971D01*
G75*
G02*
X161853987Y-71606461I-77254J237764D01*
G01*
X161645401Y-70964497D01*
G75*
G02*
X161805911Y-70649479I237764J77254D01*
G01*
X162709415Y-70355913D01*
G75*
G02*
X163024433Y-70516423I77254J-237764D01*
G01*
X163233019Y-71158387D01*
G75*
G02*
X163072509Y-71473405I-237764J-77254D01*
G01*
G37*
G36*
G01*
X162431299Y-69499963D02*
X161527795Y-69793529D01*
G75*
G02*
X161212777Y-69633019I-77254J237764D01*
G01*
X161004191Y-68991055D01*
G75*
G02*
X161164701Y-68676037I237764J77254D01*
G01*
X162068205Y-68382471D01*
G75*
G02*
X162383223Y-68542981I77254J-237764D01*
G01*
X162591809Y-69184945D01*
G75*
G02*
X162431299Y-69499963I-237764J-77254D01*
G01*
G37*
%TD*%
%TO.C,D1*%
G36*
X145185004Y-78684755D02*
G01*
X144875987Y-77733698D01*
X146302572Y-77270173D01*
X146611589Y-78221230D01*
X145185004Y-78684755D01*
G37*
G36*
X144196149Y-75641374D02*
G01*
X143887132Y-74690317D01*
X145313717Y-74226792D01*
X145622734Y-75177849D01*
X144196149Y-75641374D01*
G37*
G36*
X140524827Y-80198938D02*
G01*
X140215810Y-79247881D01*
X141642395Y-78784356D01*
X141951412Y-79735413D01*
X140524827Y-80198938D01*
G37*
G36*
X139535972Y-77155557D02*
G01*
X139226955Y-76204500D01*
X140653540Y-75740975D01*
X140962557Y-76692032D01*
X139535972Y-77155557D01*
G37*
%TD*%
%TO.C,D2*%
G36*
X170422799Y-69433036D02*
G01*
X170731816Y-70384093D01*
X169305231Y-70847618D01*
X168996214Y-69896561D01*
X170422799Y-69433036D01*
G37*
G36*
X169433944Y-66389655D02*
G01*
X169742961Y-67340712D01*
X168316376Y-67804237D01*
X168007359Y-66853180D01*
X169433944Y-66389655D01*
G37*
G36*
X165762622Y-70947219D02*
G01*
X166071639Y-71898276D01*
X164645054Y-72361801D01*
X164336037Y-71410744D01*
X165762622Y-70947219D01*
G37*
G36*
X164773767Y-67903838D02*
G01*
X165082784Y-68854895D01*
X163656199Y-69318420D01*
X163347182Y-68367363D01*
X164773767Y-67903838D01*
G37*
%TD*%
D17*
%TO.C,J1*%
X176239724Y-64038590D03*
X173699724Y-64038590D03*
D18*
X171159724Y-64038590D03*
%TD*%
%TO.C,J2*%
X138799045Y-82550000D03*
D17*
X136259045Y-82550000D03*
X133719045Y-82550000D03*
%TD*%
%TO.C,J4*%
G36*
G01*
X178119344Y-68973468D02*
X178119344Y-68973468D01*
G75*
G02*
X176932063Y-68785421I-499617J687664D01*
G01*
X176932063Y-68785421D01*
G75*
G02*
X177120110Y-67598140I687664J499617D01*
G01*
X177120110Y-67598140D01*
G75*
G02*
X178307391Y-67786187I499617J-687664D01*
G01*
X178307391Y-67786187D01*
G75*
G02*
X178119344Y-68973468I-687664J-499617D01*
G01*
G37*
G36*
G01*
X176064441Y-70466442D02*
X176064441Y-70466442D01*
G75*
G02*
X174877160Y-70278395I-499617J687664D01*
G01*
X174877160Y-70278395D01*
G75*
G02*
X175065207Y-69091114I687664J499617D01*
G01*
X175065207Y-69091114D01*
G75*
G02*
X176252488Y-69279161I499617J-687664D01*
G01*
X176252488Y-69279161D01*
G75*
G02*
X176064441Y-70466442I-687664J-499617D01*
G01*
G37*
D16*
G36*
X174697203Y-71459800D02*
G01*
X173321874Y-72459035D01*
X172322639Y-71083706D01*
X173697968Y-70084471D01*
X174697203Y-71459800D01*
G37*
%TD*%
%TO.C,JP1*%
G36*
X157055139Y-77851477D02*
G01*
X157518664Y-79278062D01*
X156567607Y-79587079D01*
X156104082Y-78160494D01*
X157055139Y-77851477D01*
G37*
G36*
X155806577Y-79833720D02*
G01*
X155783243Y-79841301D01*
X155735316Y-79851816D01*
X155686589Y-79857584D01*
X155637530Y-79858547D01*
X155588613Y-79854698D01*
X155540310Y-79846071D01*
X155493085Y-79832753D01*
X155447393Y-79814869D01*
X155403672Y-79792592D01*
X155362347Y-79766139D01*
X155323813Y-79735760D01*
X155288442Y-79701753D01*
X155256576Y-79664441D01*
X155228519Y-79624186D01*
X155204544Y-79581374D01*
X155184880Y-79536420D01*
X155177299Y-79513087D01*
X155176726Y-79513273D01*
X155022217Y-79037744D01*
X155022790Y-79037558D01*
X155015209Y-79014225D01*
X155004694Y-78966298D01*
X154998926Y-78917570D01*
X154997963Y-78868512D01*
X155001812Y-78819595D01*
X155010439Y-78771292D01*
X155023757Y-78724066D01*
X155041641Y-78678374D01*
X155063918Y-78634654D01*
X155090371Y-78593328D01*
X155120749Y-78554795D01*
X155154757Y-78519424D01*
X155192068Y-78487557D01*
X155232324Y-78459501D01*
X155275135Y-78435526D01*
X155320090Y-78415862D01*
X155343423Y-78408280D01*
X155343237Y-78407708D01*
X155866318Y-78237748D01*
X156329844Y-79664333D01*
X155806763Y-79834292D01*
X155806577Y-79833720D01*
G37*
G36*
X157292902Y-77774223D02*
G01*
X157815983Y-77604264D01*
X157816169Y-77604836D01*
X157839503Y-77597255D01*
X157887430Y-77586740D01*
X157936157Y-77580972D01*
X157985216Y-77580009D01*
X158034133Y-77583858D01*
X158082436Y-77592485D01*
X158129661Y-77605803D01*
X158175353Y-77623687D01*
X158219074Y-77645964D01*
X158260399Y-77672417D01*
X158298933Y-77702796D01*
X158334304Y-77736803D01*
X158366170Y-77774115D01*
X158394227Y-77814370D01*
X158418202Y-77857182D01*
X158437866Y-77902136D01*
X158445447Y-77925469D01*
X158446020Y-77925283D01*
X158600529Y-78400812D01*
X158599956Y-78400998D01*
X158607537Y-78424331D01*
X158618052Y-78472258D01*
X158623820Y-78520986D01*
X158624783Y-78570044D01*
X158620934Y-78618961D01*
X158612307Y-78667264D01*
X158598989Y-78714490D01*
X158581105Y-78760182D01*
X158558828Y-78803902D01*
X158532375Y-78845228D01*
X158501997Y-78883761D01*
X158467989Y-78919132D01*
X158430678Y-78950999D01*
X158390422Y-78979055D01*
X158347611Y-79003030D01*
X158302656Y-79022694D01*
X158279323Y-79030276D01*
X158279509Y-79030848D01*
X157756428Y-79200808D01*
X157292902Y-77774223D01*
G37*
%TD*%
%TO.C,JP2*%
G36*
X152881529Y-65094945D02*
G01*
X153404610Y-64924986D01*
X153404796Y-64925558D01*
X153428130Y-64917977D01*
X153476057Y-64907462D01*
X153524784Y-64901694D01*
X153573843Y-64900731D01*
X153622760Y-64904580D01*
X153671063Y-64913207D01*
X153718288Y-64926525D01*
X153763980Y-64944409D01*
X153807701Y-64966686D01*
X153849026Y-64993139D01*
X153887560Y-65023518D01*
X153922931Y-65057525D01*
X153954797Y-65094837D01*
X153982854Y-65135092D01*
X154006829Y-65177904D01*
X154026493Y-65222858D01*
X154034074Y-65246191D01*
X154034647Y-65246005D01*
X154189156Y-65721534D01*
X154188583Y-65721720D01*
X154196164Y-65745053D01*
X154206679Y-65792980D01*
X154212447Y-65841708D01*
X154213410Y-65890766D01*
X154209561Y-65939683D01*
X154200934Y-65987986D01*
X154187616Y-66035212D01*
X154169732Y-66080904D01*
X154147455Y-66124624D01*
X154121002Y-66165950D01*
X154090624Y-66204483D01*
X154056616Y-66239854D01*
X154019305Y-66271721D01*
X153979049Y-66299777D01*
X153936238Y-66323752D01*
X153891283Y-66343416D01*
X153867950Y-66350998D01*
X153868136Y-66351570D01*
X153345055Y-66521530D01*
X152881529Y-65094945D01*
G37*
G36*
X151395204Y-67154442D02*
G01*
X151371870Y-67162023D01*
X151323943Y-67172538D01*
X151275216Y-67178306D01*
X151226157Y-67179269D01*
X151177240Y-67175420D01*
X151128937Y-67166793D01*
X151081712Y-67153475D01*
X151036020Y-67135591D01*
X150992299Y-67113314D01*
X150950974Y-67086861D01*
X150912440Y-67056482D01*
X150877069Y-67022475D01*
X150845203Y-66985163D01*
X150817146Y-66944908D01*
X150793171Y-66902096D01*
X150773507Y-66857142D01*
X150765926Y-66833809D01*
X150765353Y-66833995D01*
X150610844Y-66358466D01*
X150611417Y-66358280D01*
X150603836Y-66334947D01*
X150593321Y-66287020D01*
X150587553Y-66238292D01*
X150586590Y-66189234D01*
X150590439Y-66140317D01*
X150599066Y-66092014D01*
X150612384Y-66044788D01*
X150630268Y-65999096D01*
X150652545Y-65955376D01*
X150678998Y-65914050D01*
X150709376Y-65875517D01*
X150743384Y-65840146D01*
X150780695Y-65808279D01*
X150820951Y-65780223D01*
X150863762Y-65756248D01*
X150908717Y-65736584D01*
X150932050Y-65729002D01*
X150931864Y-65728430D01*
X151454945Y-65558470D01*
X151918471Y-66985055D01*
X151395390Y-67155014D01*
X151395204Y-67154442D01*
G37*
G36*
X152643766Y-65172199D02*
G01*
X153107291Y-66598784D01*
X152156234Y-66907801D01*
X151692709Y-65481216D01*
X152643766Y-65172199D01*
G37*
%TD*%
%TO.C,SW1*%
G36*
X155620295Y-68173402D02*
G01*
X156666458Y-67833484D01*
X157269041Y-69688044D01*
X156222878Y-70027962D01*
X155620295Y-68173402D01*
G37*
G36*
X153242654Y-68945944D02*
G01*
X154288817Y-68606026D01*
X154891400Y-70460586D01*
X153845237Y-70800504D01*
X153242654Y-68945944D01*
G37*
G36*
X150865013Y-69718487D02*
G01*
X151911176Y-69378569D01*
X152513759Y-71233129D01*
X151467596Y-71573047D01*
X150865013Y-69718487D01*
G37*
G36*
X157366241Y-73546871D02*
G01*
X158412404Y-73206953D01*
X159014987Y-75061513D01*
X157968824Y-75401431D01*
X157366241Y-73546871D01*
G37*
G36*
X154988600Y-74319414D02*
G01*
X156034763Y-73979496D01*
X156637346Y-75834056D01*
X155591183Y-76173974D01*
X154988600Y-74319414D01*
G37*
G36*
X152610959Y-75091956D02*
G01*
X153657122Y-74752038D01*
X154259705Y-76606598D01*
X153213542Y-76946516D01*
X152610959Y-75091956D01*
G37*
%TD*%
M02*
