M48
; DRILL file {KiCad 5.1.8} date Tue Jan 12 11:43:45 2021
; FORMAT={-:-/ absolute / inch / decimal}
; #@! TF.CreationDate,2021-01-12T11:43:45-05:00
; #@! TF.GenerationSoftware,Kicad,Pcbnew,5.1.8
; #@! TF.FileFunction,Plated,1,2,PTH
FMAT,2
INCH
T1C0.0157
T2C0.0394
%
G90
G05
T1
X4.995Y-3.255
X5.49Y-2.96
X5.71Y-3.18
X5.83Y-2.97
X6.0376Y-2.8366
X6.0408Y-2.9458
X6.085Y-2.99
X6.1099Y-2.8421
X6.37Y-2.795
X6.49Y-2.59
X6.715Y-2.805
X7.18Y-2.54
T2
X5.2645Y-3.25
X5.3645Y-3.25
X5.4645Y-3.25
X6.7386Y-2.5212
X6.8386Y-2.5212
X6.9386Y-2.5212
X6.8311Y-2.806
X6.912Y-2.7472
X6.9929Y-2.6884
X5.2102Y-3.0828
X5.2911Y-3.024
X5.372Y-2.9652
T0
M30
