%TF.GenerationSoftware,KiCad,Pcbnew,5.1.8*%
%TF.CreationDate,2021-01-22T12:07:38-05:00*%
%TF.ProjectId,penroserombus_thin_40mm,70656e72-6f73-4657-926f-6d6275735f74,rev?*%
%TF.SameCoordinates,Original*%
%TF.FileFunction,Soldermask,Top*%
%TF.FilePolarity,Negative*%
%FSLAX46Y46*%
G04 Gerber Fmt 4.6, Leading zero omitted, Abs format (unit mm)*
G04 Created by KiCad (PCBNEW 5.1.8) date 2021-01-22 12:07:38*
%MOMM*%
%LPD*%
G01*
G04 APERTURE LIST*
%ADD10C,2.100000*%
%ADD11C,0.100000*%
%ADD12C,1.150000*%
%ADD13R,1.500000X1.000000*%
%ADD14O,1.700000X1.700000*%
%ADD15R,1.700000X1.700000*%
G04 APERTURE END LIST*
D10*
%TO.C,M2.1*%
X153602893Y-82050001D03*
%TD*%
%TO.C,M2.1*%
X156355877Y-64538590D03*
%TD*%
D11*
%TO.C,D4*%
G36*
X169698497Y-73500189D02*
G01*
X170286282Y-74309206D01*
X169072757Y-75190883D01*
X168484972Y-74381866D01*
X169698497Y-73500189D01*
G37*
G36*
X167817584Y-70911335D02*
G01*
X168405369Y-71720352D01*
X167191844Y-72602029D01*
X166604059Y-71793012D01*
X167817584Y-70911335D01*
G37*
G36*
X165734314Y-76380337D02*
G01*
X166322099Y-77189354D01*
X165108574Y-78071031D01*
X164520789Y-77262014D01*
X165734314Y-76380337D01*
G37*
G36*
X163853401Y-73791483D02*
G01*
X164441186Y-74600500D01*
X163227661Y-75482177D01*
X162639876Y-74673160D01*
X163853401Y-73791483D01*
G37*
%TD*%
%TO.C,C1*%
G36*
G01*
X147581220Y-70620256D02*
X148349787Y-70061860D01*
G75*
G02*
X148698987Y-70117168I146946J-202254D01*
G01*
X149095742Y-70663254D01*
G75*
G02*
X149040434Y-71012454I-202254J-146946D01*
G01*
X148271867Y-71570850D01*
G75*
G02*
X147922667Y-71515542I-146946J202254D01*
G01*
X147525912Y-70969456D01*
G75*
G02*
X147581220Y-70620256I202254J146946D01*
G01*
G37*
G36*
G01*
X146361566Y-68941546D02*
X147130133Y-68383150D01*
G75*
G02*
X147479333Y-68438458I146946J-202254D01*
G01*
X147876088Y-68984544D01*
G75*
G02*
X147820780Y-69333744I-202254J-146946D01*
G01*
X147052213Y-69892140D01*
G75*
G02*
X146703013Y-69836832I-146946J202254D01*
G01*
X146306258Y-69290746D01*
G75*
G02*
X146361566Y-68941546I202254J146946D01*
G01*
G37*
%TD*%
D10*
%TO.C,M2.1*%
X127168342Y-82330651D03*
%TD*%
%TO.C,M2.1*%
X182790427Y-64257940D03*
%TD*%
D12*
%TO.C,MH*%
X157439371Y-80865352D03*
%TD*%
%TO.C,MH*%
X152519399Y-65723239D03*
%TD*%
D11*
%TO.C,SW1*%
G36*
X155493295Y-69189402D02*
G01*
X156539458Y-68849484D01*
X157142041Y-70704044D01*
X156095878Y-71043962D01*
X155493295Y-69189402D01*
G37*
G36*
X153115654Y-69961944D02*
G01*
X154161817Y-69622026D01*
X154764400Y-71476586D01*
X153718237Y-71816504D01*
X153115654Y-69961944D01*
G37*
G36*
X150738013Y-70734487D02*
G01*
X151784176Y-70394569D01*
X152386759Y-72249129D01*
X151340596Y-72589047D01*
X150738013Y-70734487D01*
G37*
G36*
X157239241Y-74562871D02*
G01*
X158285404Y-74222953D01*
X158887987Y-76077513D01*
X157841824Y-76417431D01*
X157239241Y-74562871D01*
G37*
G36*
X154861600Y-75335414D02*
G01*
X155907763Y-74995496D01*
X156510346Y-76850056D01*
X155464183Y-77189974D01*
X154861600Y-75335414D01*
G37*
G36*
X152483959Y-76107956D02*
G01*
X153530122Y-75768038D01*
X154132705Y-77622598D01*
X153086542Y-77962516D01*
X152483959Y-76107956D01*
G37*
%TD*%
D13*
%TO.C,D1*%
X161116375Y-63976046D03*
X161116375Y-67176046D03*
X166016375Y-63976046D03*
X166016375Y-67176046D03*
%TD*%
%TO.C,D2*%
X143942394Y-79412545D03*
X143942394Y-82612545D03*
X148842394Y-79412545D03*
X148842394Y-82612545D03*
%TD*%
%TO.C,C4*%
G36*
G01*
X163518434Y-77616454D02*
X162749867Y-78174850D01*
G75*
G02*
X162400667Y-78119542I-146946J202254D01*
G01*
X162003912Y-77573456D01*
G75*
G02*
X162059220Y-77224256I202254J146946D01*
G01*
X162827787Y-76665860D01*
G75*
G02*
X163176987Y-76721168I146946J-202254D01*
G01*
X163573742Y-77267254D01*
G75*
G02*
X163518434Y-77616454I-202254J-146946D01*
G01*
G37*
G36*
G01*
X162298780Y-75937744D02*
X161530213Y-76496140D01*
G75*
G02*
X161181013Y-76440832I-146946J202254D01*
G01*
X160784258Y-75894746D01*
G75*
G02*
X160839566Y-75545546I202254J146946D01*
G01*
X161608133Y-74987150D01*
G75*
G02*
X161957333Y-75042458I146946J-202254D01*
G01*
X162354088Y-75588544D01*
G75*
G02*
X162298780Y-75937744I-202254J-146946D01*
G01*
G37*
%TD*%
%TO.C,C3*%
G36*
G01*
X142207000Y-80068000D02*
X141257000Y-80068000D01*
G75*
G02*
X141007000Y-79818000I0J250000D01*
G01*
X141007000Y-79143000D01*
G75*
G02*
X141257000Y-78893000I250000J0D01*
G01*
X142207000Y-78893000D01*
G75*
G02*
X142457000Y-79143000I0J-250000D01*
G01*
X142457000Y-79818000D01*
G75*
G02*
X142207000Y-80068000I-250000J0D01*
G01*
G37*
G36*
G01*
X142207000Y-82143000D02*
X141257000Y-82143000D01*
G75*
G02*
X141007000Y-81893000I0J250000D01*
G01*
X141007000Y-81218000D01*
G75*
G02*
X141257000Y-80968000I250000J0D01*
G01*
X142207000Y-80968000D01*
G75*
G02*
X142457000Y-81218000I0J-250000D01*
G01*
X142457000Y-81893000D01*
G75*
G02*
X142207000Y-82143000I-250000J0D01*
G01*
G37*
%TD*%
D11*
%TO.C,J3*%
G36*
X134235591Y-75875041D02*
G01*
X135610920Y-74875806D01*
X136610155Y-76251135D01*
X135234826Y-77250370D01*
X134235591Y-75875041D01*
G37*
G36*
G01*
X132868353Y-76868399D02*
X132868353Y-76868399D01*
G75*
G02*
X134055634Y-77056446I499617J-687664D01*
G01*
X134055634Y-77056446D01*
G75*
G02*
X133867587Y-78243727I-687664J-499617D01*
G01*
X133867587Y-78243727D01*
G75*
G02*
X132680306Y-78055680I-499617J687664D01*
G01*
X132680306Y-78055680D01*
G75*
G02*
X132868353Y-76868399I687664J499617D01*
G01*
G37*
G36*
G01*
X130813450Y-78361373D02*
X130813450Y-78361373D01*
G75*
G02*
X132000731Y-78549420I499617J-687664D01*
G01*
X132000731Y-78549420D01*
G75*
G02*
X131812684Y-79736701I-687664J-499617D01*
G01*
X131812684Y-79736701D01*
G75*
G02*
X130625403Y-79548654I-499617J687664D01*
G01*
X130625403Y-79548654D01*
G75*
G02*
X130813450Y-78361373I687664J499617D01*
G01*
G37*
%TD*%
%TO.C,C2*%
G36*
G01*
X167673000Y-64669000D02*
X168623000Y-64669000D01*
G75*
G02*
X168873000Y-64919000I0J-250000D01*
G01*
X168873000Y-65594000D01*
G75*
G02*
X168623000Y-65844000I-250000J0D01*
G01*
X167673000Y-65844000D01*
G75*
G02*
X167423000Y-65594000I0J250000D01*
G01*
X167423000Y-64919000D01*
G75*
G02*
X167673000Y-64669000I250000J0D01*
G01*
G37*
G36*
G01*
X167673000Y-66744000D02*
X168623000Y-66744000D01*
G75*
G02*
X168873000Y-66994000I0J-250000D01*
G01*
X168873000Y-67669000D01*
G75*
G02*
X168623000Y-67919000I-250000J0D01*
G01*
X167673000Y-67919000D01*
G75*
G02*
X167423000Y-67669000I0J250000D01*
G01*
X167423000Y-66994000D01*
G75*
G02*
X167673000Y-66744000I250000J0D01*
G01*
G37*
%TD*%
%TO.C,D3*%
G36*
X146105368Y-72797107D02*
G01*
X145517583Y-71988090D01*
X146731108Y-71106413D01*
X147318893Y-71915430D01*
X146105368Y-72797107D01*
G37*
G36*
X144224455Y-70208253D02*
G01*
X143636670Y-69399236D01*
X144850195Y-68517559D01*
X145437980Y-69326576D01*
X144224455Y-70208253D01*
G37*
G36*
X142141185Y-75677255D02*
G01*
X141553400Y-74868238D01*
X142766925Y-73986561D01*
X143354710Y-74795578D01*
X142141185Y-75677255D01*
G37*
G36*
X140260272Y-73088401D02*
G01*
X139672487Y-72279384D01*
X140886012Y-71397707D01*
X141473797Y-72206724D01*
X140260272Y-73088401D01*
G37*
%TD*%
D14*
%TO.C,J1*%
X177508389Y-64039267D03*
X174968389Y-64039267D03*
D15*
X172428389Y-64039267D03*
%TD*%
%TO.C,J2*%
X138799045Y-82550000D03*
D14*
X136259045Y-82550000D03*
X133719045Y-82550000D03*
%TD*%
%TO.C,J4*%
G36*
G01*
X178119344Y-68973468D02*
X178119344Y-68973468D01*
G75*
G02*
X176932063Y-68785421I-499617J687664D01*
G01*
X176932063Y-68785421D01*
G75*
G02*
X177120110Y-67598140I687664J499617D01*
G01*
X177120110Y-67598140D01*
G75*
G02*
X178307391Y-67786187I499617J-687664D01*
G01*
X178307391Y-67786187D01*
G75*
G02*
X178119344Y-68973468I-687664J-499617D01*
G01*
G37*
G36*
G01*
X176064441Y-70466442D02*
X176064441Y-70466442D01*
G75*
G02*
X174877160Y-70278395I-499617J687664D01*
G01*
X174877160Y-70278395D01*
G75*
G02*
X175065207Y-69091114I687664J499617D01*
G01*
X175065207Y-69091114D01*
G75*
G02*
X176252488Y-69279161I499617J-687664D01*
G01*
X176252488Y-69279161D01*
G75*
G02*
X176064441Y-70466442I-687664J-499617D01*
G01*
G37*
D11*
G36*
X174697203Y-71459800D02*
G01*
X173321874Y-72459035D01*
X172322639Y-71083706D01*
X173697968Y-70084471D01*
X174697203Y-71459800D01*
G37*
%TD*%
%TO.C,JP1*%
G36*
X156707766Y-77851477D02*
G01*
X157171291Y-79278062D01*
X156220234Y-79587079D01*
X155756709Y-78160494D01*
X156707766Y-77851477D01*
G37*
G36*
X155459204Y-79833720D02*
G01*
X155435870Y-79841301D01*
X155387943Y-79851816D01*
X155339216Y-79857584D01*
X155290157Y-79858547D01*
X155241240Y-79854698D01*
X155192937Y-79846071D01*
X155145712Y-79832753D01*
X155100020Y-79814869D01*
X155056299Y-79792592D01*
X155014974Y-79766139D01*
X154976440Y-79735760D01*
X154941069Y-79701753D01*
X154909203Y-79664441D01*
X154881146Y-79624186D01*
X154857171Y-79581374D01*
X154837507Y-79536420D01*
X154829926Y-79513087D01*
X154829353Y-79513273D01*
X154674844Y-79037744D01*
X154675417Y-79037558D01*
X154667836Y-79014225D01*
X154657321Y-78966298D01*
X154651553Y-78917570D01*
X154650590Y-78868512D01*
X154654439Y-78819595D01*
X154663066Y-78771292D01*
X154676384Y-78724066D01*
X154694268Y-78678374D01*
X154716545Y-78634654D01*
X154742998Y-78593328D01*
X154773376Y-78554795D01*
X154807384Y-78519424D01*
X154844695Y-78487557D01*
X154884951Y-78459501D01*
X154927762Y-78435526D01*
X154972717Y-78415862D01*
X154996050Y-78408280D01*
X154995864Y-78407708D01*
X155518945Y-78237748D01*
X155982471Y-79664333D01*
X155459390Y-79834292D01*
X155459204Y-79833720D01*
G37*
G36*
X156945529Y-77774223D02*
G01*
X157468610Y-77604264D01*
X157468796Y-77604836D01*
X157492130Y-77597255D01*
X157540057Y-77586740D01*
X157588784Y-77580972D01*
X157637843Y-77580009D01*
X157686760Y-77583858D01*
X157735063Y-77592485D01*
X157782288Y-77605803D01*
X157827980Y-77623687D01*
X157871701Y-77645964D01*
X157913026Y-77672417D01*
X157951560Y-77702796D01*
X157986931Y-77736803D01*
X158018797Y-77774115D01*
X158046854Y-77814370D01*
X158070829Y-77857182D01*
X158090493Y-77902136D01*
X158098074Y-77925469D01*
X158098647Y-77925283D01*
X158253156Y-78400812D01*
X158252583Y-78400998D01*
X158260164Y-78424331D01*
X158270679Y-78472258D01*
X158276447Y-78520986D01*
X158277410Y-78570044D01*
X158273561Y-78618961D01*
X158264934Y-78667264D01*
X158251616Y-78714490D01*
X158233732Y-78760182D01*
X158211455Y-78803902D01*
X158185002Y-78845228D01*
X158154624Y-78883761D01*
X158120616Y-78919132D01*
X158083305Y-78950999D01*
X158043049Y-78979055D01*
X158000238Y-79003030D01*
X157955283Y-79022694D01*
X157931950Y-79030276D01*
X157932136Y-79030848D01*
X157409055Y-79200808D01*
X156945529Y-77774223D01*
G37*
%TD*%
%TO.C,JP2*%
G36*
X153389529Y-66999945D02*
G01*
X153912610Y-66829986D01*
X153912796Y-66830558D01*
X153936130Y-66822977D01*
X153984057Y-66812462D01*
X154032784Y-66806694D01*
X154081843Y-66805731D01*
X154130760Y-66809580D01*
X154179063Y-66818207D01*
X154226288Y-66831525D01*
X154271980Y-66849409D01*
X154315701Y-66871686D01*
X154357026Y-66898139D01*
X154395560Y-66928518D01*
X154430931Y-66962525D01*
X154462797Y-66999837D01*
X154490854Y-67040092D01*
X154514829Y-67082904D01*
X154534493Y-67127858D01*
X154542074Y-67151191D01*
X154542647Y-67151005D01*
X154697156Y-67626534D01*
X154696583Y-67626720D01*
X154704164Y-67650053D01*
X154714679Y-67697980D01*
X154720447Y-67746708D01*
X154721410Y-67795766D01*
X154717561Y-67844683D01*
X154708934Y-67892986D01*
X154695616Y-67940212D01*
X154677732Y-67985904D01*
X154655455Y-68029624D01*
X154629002Y-68070950D01*
X154598624Y-68109483D01*
X154564616Y-68144854D01*
X154527305Y-68176721D01*
X154487049Y-68204777D01*
X154444238Y-68228752D01*
X154399283Y-68248416D01*
X154375950Y-68255998D01*
X154376136Y-68256570D01*
X153853055Y-68426530D01*
X153389529Y-66999945D01*
G37*
G36*
X151903204Y-69059442D02*
G01*
X151879870Y-69067023D01*
X151831943Y-69077538D01*
X151783216Y-69083306D01*
X151734157Y-69084269D01*
X151685240Y-69080420D01*
X151636937Y-69071793D01*
X151589712Y-69058475D01*
X151544020Y-69040591D01*
X151500299Y-69018314D01*
X151458974Y-68991861D01*
X151420440Y-68961482D01*
X151385069Y-68927475D01*
X151353203Y-68890163D01*
X151325146Y-68849908D01*
X151301171Y-68807096D01*
X151281507Y-68762142D01*
X151273926Y-68738809D01*
X151273353Y-68738995D01*
X151118844Y-68263466D01*
X151119417Y-68263280D01*
X151111836Y-68239947D01*
X151101321Y-68192020D01*
X151095553Y-68143292D01*
X151094590Y-68094234D01*
X151098439Y-68045317D01*
X151107066Y-67997014D01*
X151120384Y-67949788D01*
X151138268Y-67904096D01*
X151160545Y-67860376D01*
X151186998Y-67819050D01*
X151217376Y-67780517D01*
X151251384Y-67745146D01*
X151288695Y-67713279D01*
X151328951Y-67685223D01*
X151371762Y-67661248D01*
X151416717Y-67641584D01*
X151440050Y-67634002D01*
X151439864Y-67633430D01*
X151962945Y-67463470D01*
X152426471Y-68890055D01*
X151903390Y-69060014D01*
X151903204Y-69059442D01*
G37*
G36*
X153151766Y-67077199D02*
G01*
X153615291Y-68503784D01*
X152664234Y-68812801D01*
X152200709Y-67386216D01*
X153151766Y-67077199D01*
G37*
%TD*%
M02*
