%TF.GenerationSoftware,KiCad,Pcbnew,5.1.9*%
%TF.CreationDate,2021-01-29T13:58:11-05:00*%
%TF.ProjectId,penroserombus_thin_40mm,70656e72-6f73-4657-926f-6d6275735f74,rev?*%
%TF.SameCoordinates,Original*%
%TF.FileFunction,Legend,Top*%
%TF.FilePolarity,Positive*%
%FSLAX46Y46*%
G04 Gerber Fmt 4.6, Leading zero omitted, Abs format (unit mm)*
G04 Created by KiCad (PCBNEW 5.1.9) date 2021-01-29 13:58:11*
%MOMM*%
%LPD*%
G01*
G04 APERTURE LIST*
%ADD10C,0.150000*%
%ADD11C,0.500000*%
%ADD12C,0.300000*%
%ADD13C,0.120000*%
%ADD14C,0.200000*%
%ADD15C,3.200000*%
%ADD16C,0.100000*%
%ADD17C,1.150000*%
%ADD18R,1.500000X1.000000*%
%ADD19O,1.700000X1.700000*%
%ADD20R,1.700000X1.700000*%
G04 APERTURE END LIST*
D10*
X138001197Y-76046680D02*
X138588982Y-76855697D01*
X138396359Y-76995646D01*
X138252795Y-77041091D01*
X138119767Y-77020021D01*
X138025262Y-76970962D01*
X137874779Y-76844853D01*
X137790809Y-76729279D01*
X137717375Y-76547191D01*
X137699920Y-76442152D01*
X137720990Y-76309123D01*
X137808574Y-76186629D01*
X138001197Y-76046680D01*
X136845458Y-76886374D02*
X137153346Y-77310144D01*
X137247850Y-77359204D01*
X137352889Y-77341749D01*
X137506987Y-77229790D01*
X137556047Y-77135286D01*
X136873448Y-76924898D02*
X136922508Y-76830394D01*
X137115131Y-76690445D01*
X137220170Y-76672990D01*
X137314674Y-76722050D01*
X137370653Y-76799099D01*
X137388108Y-76904138D01*
X137339049Y-76998642D01*
X137146426Y-77138591D01*
X137097366Y-77233095D01*
X136967643Y-77621647D02*
X136659446Y-77845565D01*
X137047997Y-77975288D02*
X136544181Y-77281845D01*
X136449677Y-77232786D01*
X136344638Y-77250241D01*
X136267589Y-77306220D01*
X135651195Y-77754057D02*
X135959083Y-78177827D01*
X136053587Y-78226887D01*
X136158626Y-78209432D01*
X136312724Y-78097473D01*
X136361784Y-78002969D01*
X135679185Y-77792581D02*
X135728244Y-77698077D01*
X135920867Y-77558128D01*
X136025906Y-77540673D01*
X136120411Y-77589733D01*
X136176390Y-77666782D01*
X136193845Y-77771821D01*
X136144786Y-77866325D01*
X135952163Y-78006274D01*
X135903103Y-78100778D01*
X135083242Y-79402767D02*
X134929143Y-79514726D01*
X134824104Y-79532181D01*
X134691076Y-79511111D01*
X134540592Y-79385002D01*
X134344663Y-79115330D01*
X134271229Y-78933242D01*
X134292299Y-78800213D01*
X134341358Y-78705709D01*
X134495457Y-78593750D01*
X134600496Y-78576295D01*
X134733524Y-78597365D01*
X134884008Y-78723473D01*
X135079936Y-78993146D01*
X135153371Y-79175234D01*
X135132301Y-79308263D01*
X135083242Y-79402767D01*
X133847149Y-79888818D02*
X133455292Y-79349474D01*
X134193870Y-79636910D02*
X133885983Y-79213140D01*
X133791479Y-79164080D01*
X133686440Y-79181535D01*
X133570866Y-79265504D01*
X133521806Y-79360008D01*
X133511271Y-79426523D01*
X133577476Y-80084747D02*
X133269279Y-80308665D01*
X133657831Y-80438388D02*
X133154015Y-79744945D01*
X133059511Y-79695886D01*
X132954472Y-79713341D01*
X132877423Y-79769320D01*
X134255190Y-80970380D02*
X134255190Y-79970380D01*
X134493285Y-79970380D01*
X134636142Y-80018000D01*
X134731380Y-80113238D01*
X134779000Y-80208476D01*
X134826619Y-80398952D01*
X134826619Y-80541809D01*
X134779000Y-80732285D01*
X134731380Y-80827523D01*
X134636142Y-80922761D01*
X134493285Y-80970380D01*
X134255190Y-80970380D01*
X135683761Y-80970380D02*
X135683761Y-80446571D01*
X135636142Y-80351333D01*
X135540904Y-80303714D01*
X135350428Y-80303714D01*
X135255190Y-80351333D01*
X135683761Y-80922761D02*
X135588523Y-80970380D01*
X135350428Y-80970380D01*
X135255190Y-80922761D01*
X135207571Y-80827523D01*
X135207571Y-80732285D01*
X135255190Y-80637047D01*
X135350428Y-80589428D01*
X135588523Y-80589428D01*
X135683761Y-80541809D01*
X136017095Y-80303714D02*
X136398047Y-80303714D01*
X136159952Y-79970380D02*
X136159952Y-80827523D01*
X136207571Y-80922761D01*
X136302809Y-80970380D01*
X136398047Y-80970380D01*
X137159952Y-80970380D02*
X137159952Y-80446571D01*
X137112333Y-80351333D01*
X137017095Y-80303714D01*
X136826619Y-80303714D01*
X136731380Y-80351333D01*
X137159952Y-80922761D02*
X137064714Y-80970380D01*
X136826619Y-80970380D01*
X136731380Y-80922761D01*
X136683761Y-80827523D01*
X136683761Y-80732285D01*
X136731380Y-80637047D01*
X136826619Y-80589428D01*
X137064714Y-80589428D01*
X137159952Y-80541809D01*
X138398047Y-80970380D02*
X138398047Y-79970380D01*
X138874238Y-80303714D02*
X138874238Y-80970380D01*
X138874238Y-80398952D02*
X138921857Y-80351333D01*
X139017095Y-80303714D01*
X139159952Y-80303714D01*
X139255190Y-80351333D01*
X139302809Y-80446571D01*
X139302809Y-80970380D01*
X171878802Y-70511319D02*
X171291017Y-69702302D01*
X171483640Y-69562353D01*
X171627204Y-69516908D01*
X171760232Y-69537978D01*
X171854737Y-69587037D01*
X172005220Y-69713146D01*
X172089190Y-69828720D01*
X172162624Y-70010808D01*
X172180079Y-70115847D01*
X172159009Y-70248876D01*
X172071425Y-70371370D01*
X171878802Y-70511319D01*
X173034541Y-69671625D02*
X172726653Y-69247855D01*
X172632149Y-69198795D01*
X172527110Y-69216250D01*
X172373012Y-69328209D01*
X172323952Y-69422713D01*
X173006551Y-69633101D02*
X172957491Y-69727605D01*
X172764868Y-69867554D01*
X172659829Y-69885009D01*
X172565325Y-69835949D01*
X172509346Y-69758900D01*
X172491891Y-69653861D01*
X172540950Y-69559357D01*
X172733573Y-69419408D01*
X172782633Y-69324904D01*
X172912356Y-68936352D02*
X173220553Y-68712434D01*
X172832002Y-68582711D02*
X173335818Y-69276154D01*
X173430322Y-69325213D01*
X173535361Y-69307758D01*
X173612410Y-69251779D01*
X174228804Y-68803942D02*
X173920916Y-68380172D01*
X173826412Y-68331112D01*
X173721373Y-68348567D01*
X173567275Y-68460526D01*
X173518215Y-68555030D01*
X174200814Y-68765418D02*
X174151755Y-68859922D01*
X173959132Y-68999871D01*
X173854093Y-69017326D01*
X173759588Y-68968266D01*
X173703609Y-68891217D01*
X173686154Y-68786178D01*
X173735213Y-68691674D01*
X173927836Y-68551725D01*
X173976896Y-68457221D01*
X174796757Y-67155232D02*
X174950856Y-67043273D01*
X175055895Y-67025818D01*
X175188923Y-67046888D01*
X175339407Y-67172997D01*
X175535336Y-67442669D01*
X175608770Y-67624757D01*
X175587700Y-67757786D01*
X175538641Y-67852290D01*
X175384542Y-67964249D01*
X175279503Y-67981704D01*
X175146475Y-67960634D01*
X174995991Y-67834526D01*
X174800063Y-67564853D01*
X174726628Y-67382765D01*
X174747698Y-67249736D01*
X174796757Y-67155232D01*
X176032850Y-66669181D02*
X176424707Y-67208525D01*
X175686129Y-66921089D02*
X175994016Y-67344859D01*
X176088520Y-67393919D01*
X176193559Y-67376464D01*
X176309133Y-67292495D01*
X176358193Y-67197991D01*
X176368728Y-67131476D01*
X176302523Y-66473252D02*
X176610720Y-66249334D01*
X176222168Y-66119611D02*
X176725984Y-66813054D01*
X176820488Y-66862113D01*
X176925527Y-66844658D01*
X177002576Y-66788679D01*
X175243809Y-65714619D02*
X175243809Y-66714619D01*
X175005714Y-66714619D01*
X174862857Y-66667000D01*
X174767619Y-66571761D01*
X174720000Y-66476523D01*
X174672380Y-66286047D01*
X174672380Y-66143190D01*
X174720000Y-65952714D01*
X174767619Y-65857476D01*
X174862857Y-65762238D01*
X175005714Y-65714619D01*
X175243809Y-65714619D01*
X173815238Y-65714619D02*
X173815238Y-66238428D01*
X173862857Y-66333666D01*
X173958095Y-66381285D01*
X174148571Y-66381285D01*
X174243809Y-66333666D01*
X173815238Y-65762238D02*
X173910476Y-65714619D01*
X174148571Y-65714619D01*
X174243809Y-65762238D01*
X174291428Y-65857476D01*
X174291428Y-65952714D01*
X174243809Y-66047952D01*
X174148571Y-66095571D01*
X173910476Y-66095571D01*
X173815238Y-66143190D01*
X173481904Y-66381285D02*
X173100952Y-66381285D01*
X173339047Y-66714619D02*
X173339047Y-65857476D01*
X173291428Y-65762238D01*
X173196190Y-65714619D01*
X173100952Y-65714619D01*
X172339047Y-65714619D02*
X172339047Y-66238428D01*
X172386666Y-66333666D01*
X172481904Y-66381285D01*
X172672380Y-66381285D01*
X172767619Y-66333666D01*
X172339047Y-65762238D02*
X172434285Y-65714619D01*
X172672380Y-65714619D01*
X172767619Y-65762238D01*
X172815238Y-65857476D01*
X172815238Y-65952714D01*
X172767619Y-66047952D01*
X172672380Y-66095571D01*
X172434285Y-66095571D01*
X172339047Y-66143190D01*
X171100952Y-65714619D02*
X171100952Y-66714619D01*
X170624761Y-66381285D02*
X170624761Y-65714619D01*
X170624761Y-66286047D02*
X170577142Y-66333666D01*
X170481904Y-66381285D01*
X170339047Y-66381285D01*
X170243809Y-66333666D01*
X170196190Y-66238428D01*
X170196190Y-65714619D01*
D11*
X129810000Y-82280190D02*
X129714761Y-82470666D01*
X129714761Y-82756380D01*
X129810000Y-83042095D01*
X130000476Y-83232571D01*
X130190952Y-83327809D01*
X130571904Y-83423047D01*
X130857619Y-83423047D01*
X131238571Y-83327809D01*
X131429047Y-83232571D01*
X131619523Y-83042095D01*
X131714761Y-82756380D01*
X131714761Y-82565904D01*
X131619523Y-82280190D01*
X131524285Y-82184952D01*
X130857619Y-82184952D01*
X130857619Y-82565904D01*
D12*
X161152333Y-61612094D02*
G75*
G02*
X143002001Y-67309999I-9992608J73503D01*
G01*
X147798699Y-85049631D02*
G75*
G02*
X167710000Y-78600000I11000346J-369D01*
G01*
X148852554Y-85047305D02*
G75*
G02*
X166877999Y-79248001I9946491J-2695D01*
G01*
D11*
X179998997Y-67595666D02*
X179865968Y-67574596D01*
X179620981Y-67399428D01*
X179509022Y-67245330D01*
X179418132Y-66958203D01*
X179460271Y-66692145D01*
X179558390Y-66503137D01*
X179810608Y-66202169D01*
X180041756Y-66034231D01*
X180405932Y-65887362D01*
X180616010Y-65852452D01*
X180882068Y-65894591D01*
X181127056Y-66069759D01*
X181239015Y-66223858D01*
X181329904Y-66510985D01*
X181308834Y-66644014D01*
X127897611Y-80608060D02*
X127225856Y-79683469D01*
X129179767Y-78970194D02*
X127561733Y-80145764D01*
X179778066Y-62261809D02*
X179778066Y-63214190D01*
X179206638Y-62071333D02*
X181206638Y-62738000D01*
X179206638Y-63404666D01*
D13*
%TO.C,D4*%
X171032400Y-74570564D02*
X165126576Y-78861396D01*
X167799582Y-70120970D02*
X161893758Y-74411802D01*
X161893758Y-74411802D02*
X162569711Y-75342172D01*
%TO.C,C1*%
X148142067Y-69333621D02*
X148449188Y-69756335D01*
X146952812Y-70197665D02*
X147259933Y-70620379D01*
D14*
%TO.C,SW1*%
X157944684Y-69411868D02*
G75*
G03*
X157944684Y-69411868I-223607J0D01*
G01*
D13*
X150913516Y-76775944D02*
X151389044Y-76621435D01*
X149677448Y-72971718D02*
X150913516Y-76775944D01*
X150152976Y-72817209D02*
X149677448Y-72971718D01*
X159948552Y-73840282D02*
X159710788Y-73917537D01*
X158866993Y-70511585D02*
X159948552Y-73840282D01*
X158712484Y-70036056D02*
X158866993Y-70511585D01*
X158236956Y-70190565D02*
X158712484Y-70036056D01*
%TO.C,D1*%
X159916375Y-62826046D02*
X167216375Y-62826046D01*
X159916375Y-68326046D02*
X167216375Y-68326046D01*
X167216375Y-68326046D02*
X167216375Y-67176046D01*
%TO.C,D2*%
X142742394Y-78262545D02*
X142742394Y-79412545D01*
X150042394Y-78262545D02*
X142742394Y-78262545D01*
X150042394Y-83762545D02*
X142742394Y-83762545D01*
%TO.C,C4*%
X162927188Y-76360335D02*
X162620067Y-75937621D01*
X161737933Y-77224379D02*
X161430812Y-76801665D01*
%TO.C,C3*%
X140997000Y-80779252D02*
X140997000Y-80256748D01*
X142467000Y-80779252D02*
X142467000Y-80256748D01*
%TO.C,J3*%
X136498866Y-75281334D02*
X137280620Y-76357326D01*
X137280620Y-76357326D02*
X136204627Y-77139081D01*
X135177176Y-77885568D02*
X131018828Y-80906784D01*
X129455320Y-78754799D02*
X131018828Y-80906784D01*
X133613667Y-75733583D02*
X129455320Y-78754799D01*
X133613667Y-75733583D02*
X135177176Y-77885568D01*
%TO.C,C2*%
X167413000Y-66032748D02*
X167413000Y-66555252D01*
X168883000Y-66032748D02*
X168883000Y-66555252D01*
%TO.C,D3*%
X148065011Y-72176788D02*
X147389058Y-71246418D01*
X142159187Y-76467620D02*
X148065011Y-72176788D01*
X138926369Y-72018026D02*
X144832193Y-67727194D01*
%TO.C,J1*%
X173698389Y-65369267D02*
X173698389Y-62709267D01*
X173698389Y-65369267D02*
X178838389Y-65369267D01*
X178838389Y-65369267D02*
X178838389Y-62709267D01*
X173698389Y-62709267D02*
X178838389Y-62709267D01*
X171098389Y-62709267D02*
X172428389Y-62709267D01*
X171098389Y-64039267D02*
X171098389Y-62709267D01*
%TO.C,J2*%
X140129045Y-82550000D02*
X140129045Y-83880000D01*
X140129045Y-83880000D02*
X138799045Y-83880000D01*
X137529045Y-83880000D02*
X132389045Y-83880000D01*
X132389045Y-81220000D02*
X132389045Y-83880000D01*
X137529045Y-81220000D02*
X132389045Y-81220000D01*
X137529045Y-81220000D02*
X137529045Y-83880000D01*
%TO.C,J4*%
X175319127Y-71601258D02*
X173755618Y-69449273D01*
X175319127Y-71601258D02*
X179477474Y-68580042D01*
X179477474Y-68580042D02*
X177913966Y-66428057D01*
X173755618Y-69449273D02*
X177913966Y-66428057D01*
X171652174Y-70977515D02*
X172728167Y-70195760D01*
X172433928Y-72053507D02*
X171652174Y-70977515D01*
%TO.C,JP1*%
X157234447Y-77207190D02*
X156856425Y-77014578D01*
X157427059Y-76829168D02*
X156856425Y-77014578D01*
X157234447Y-77207190D02*
X157427059Y-76829168D01*
X158320961Y-77800476D02*
X158506371Y-78371110D01*
X154823504Y-78200845D02*
X157486462Y-77335598D01*
X154607039Y-79638080D02*
X154421629Y-79067446D01*
X158104496Y-79237711D02*
X155441538Y-80102958D01*
X158506371Y-78371110D02*
G75*
G02*
X158056943Y-79253162I-665740J-216312D01*
G01*
X157438909Y-77351048D02*
G75*
G02*
X158320961Y-77800476I216312J-665740D01*
G01*
X154421629Y-79067446D02*
G75*
G02*
X154871057Y-78185394I665740J216312D01*
G01*
X155489091Y-80087508D02*
G75*
G02*
X154607039Y-79638080I-216312J665740D01*
G01*
%TO.C,JP2*%
X154548496Y-68463433D02*
X151885538Y-69328680D01*
X151051039Y-68863802D02*
X150865629Y-68293168D01*
X151267504Y-67426567D02*
X153930462Y-66561320D01*
X154764961Y-67026198D02*
X154950371Y-67596832D01*
X153678447Y-66432912D02*
X153871059Y-66054890D01*
X153871059Y-66054890D02*
X153300425Y-66240300D01*
X153678447Y-66432912D02*
X153300425Y-66240300D01*
X151933091Y-69313230D02*
G75*
G02*
X151051039Y-68863802I-216312J665740D01*
G01*
X150865629Y-68293168D02*
G75*
G02*
X151315057Y-67411116I665740J216312D01*
G01*
X153882909Y-66576770D02*
G75*
G02*
X154764961Y-67026198I216312J-665740D01*
G01*
X154950371Y-67596832D02*
G75*
G02*
X154500943Y-68478884I-665740J-216312D01*
G01*
%TO.C,M3*%
D10*
X159593090Y-70073196D02*
X159284073Y-69122139D01*
X159821818Y-69698460D01*
X159918111Y-68916128D01*
X160227128Y-69867185D01*
X160280418Y-68798407D02*
X160869167Y-68607111D01*
X160669869Y-69072424D01*
X160805734Y-69028279D01*
X160911026Y-69044137D01*
X160971030Y-69074710D01*
X161045748Y-69150572D01*
X161119324Y-69377014D01*
X161103466Y-69482306D01*
X161072892Y-69542309D01*
X160997031Y-69617028D01*
X160725300Y-69705319D01*
X160620008Y-69689460D01*
X160560005Y-69658887D01*
X147705890Y-73921296D02*
X147396873Y-72970239D01*
X147934618Y-73546560D01*
X148030911Y-72764228D01*
X148339928Y-73715285D01*
X148393218Y-72646507D02*
X148981967Y-72455211D01*
X148782669Y-72920524D01*
X148918534Y-72876379D01*
X149023826Y-72892237D01*
X149083830Y-72922810D01*
X149158548Y-72998672D01*
X149232124Y-73225114D01*
X149216266Y-73330406D01*
X149185692Y-73390409D01*
X149109831Y-73465128D01*
X148838100Y-73553419D01*
X148732808Y-73537560D01*
X148672805Y-73506987D01*
X123691818Y-84180031D02*
X123691818Y-83180031D01*
X124025151Y-83894317D01*
X124358484Y-83180031D01*
X124358484Y-84180031D01*
X124739437Y-83180031D02*
X125358484Y-83180031D01*
X125025151Y-83560984D01*
X125168008Y-83560984D01*
X125263246Y-83608603D01*
X125310865Y-83656222D01*
X125358484Y-83751460D01*
X125358484Y-83989555D01*
X125310865Y-84084793D01*
X125263246Y-84132412D01*
X125168008Y-84180031D01*
X124882294Y-84180031D01*
X124787056Y-84132412D01*
X124739437Y-84084793D01*
X155600054Y-80512017D02*
X154600054Y-80512017D01*
X155314340Y-80178684D01*
X154600054Y-79845351D01*
X155600054Y-79845351D01*
X154600054Y-79464398D02*
X154600054Y-78845351D01*
X154981007Y-79178684D01*
X154981007Y-79035827D01*
X155028626Y-78940589D01*
X155076245Y-78892970D01*
X155171483Y-78845351D01*
X155409578Y-78845351D01*
X155504816Y-78892970D01*
X155552435Y-78940589D01*
X155600054Y-79035827D01*
X155600054Y-79321541D01*
X155552435Y-79416779D01*
X155504816Y-79464398D01*
X183250903Y-62932320D02*
X183250903Y-61932320D01*
X183584236Y-62646606D01*
X183917569Y-61932320D01*
X183917569Y-62932320D01*
X184298522Y-61932320D02*
X184917569Y-61932320D01*
X184584236Y-62313273D01*
X184727093Y-62313273D01*
X184822331Y-62360892D01*
X184869950Y-62408511D01*
X184917569Y-62503749D01*
X184917569Y-62741844D01*
X184869950Y-62837082D01*
X184822331Y-62884701D01*
X184727093Y-62932320D01*
X184441379Y-62932320D01*
X184346141Y-62884701D01*
X184298522Y-62837082D01*
X157254229Y-63401319D02*
X157254229Y-62401319D01*
X157587562Y-63115605D01*
X157920895Y-62401319D01*
X157920895Y-63401319D01*
X158301848Y-62401319D02*
X158920895Y-62401319D01*
X158587562Y-62782272D01*
X158730419Y-62782272D01*
X158825657Y-62829891D01*
X158873276Y-62877510D01*
X158920895Y-62972748D01*
X158920895Y-63210843D01*
X158873276Y-63306081D01*
X158825657Y-63353700D01*
X158730419Y-63401319D01*
X158444705Y-63401319D01*
X158349467Y-63353700D01*
X158301848Y-63306081D01*
%TO.C,D4*%
X164053924Y-72574028D02*
X163466139Y-71765011D01*
X163658762Y-71625062D01*
X163802325Y-71579617D01*
X163935354Y-71600687D01*
X164029858Y-71649746D01*
X164180342Y-71775855D01*
X164264311Y-71891429D01*
X164337746Y-72073517D01*
X164355201Y-72178556D01*
X164334131Y-72311585D01*
X164246547Y-72434079D01*
X164053924Y-72574028D01*
X164817805Y-71194990D02*
X165209662Y-71734335D01*
X164401264Y-71026742D02*
X164628488Y-71744560D01*
X165129308Y-71380693D01*
%TO.C,C1*%
X146252087Y-68204899D02*
X146241552Y-68271414D01*
X146153968Y-68393908D01*
X146076918Y-68449887D01*
X145933355Y-68495332D01*
X145800326Y-68474262D01*
X145705822Y-68425203D01*
X145555338Y-68299094D01*
X145471369Y-68183520D01*
X145397934Y-68001432D01*
X145380479Y-67896393D01*
X145401549Y-67763364D01*
X145489133Y-67640870D01*
X145566182Y-67584891D01*
X145709746Y-67539446D01*
X145776260Y-67549981D01*
X147078559Y-67722153D02*
X146616263Y-68058030D01*
X146847411Y-67890092D02*
X146259626Y-67081075D01*
X146266546Y-67252628D01*
X146245476Y-67385657D01*
X146196417Y-67480161D01*
%TO.C,MH*%
X156622857Y-82875380D02*
X156622857Y-81875380D01*
X156956190Y-82589666D01*
X157289523Y-81875380D01*
X157289523Y-82875380D01*
X157765714Y-82875380D02*
X157765714Y-81875380D01*
X157765714Y-82351571D02*
X158337142Y-82351571D01*
X158337142Y-82875380D02*
X158337142Y-81875380D01*
X151762256Y-64675619D02*
X151762256Y-63675619D01*
X152095589Y-64389905D01*
X152428922Y-63675619D01*
X152428922Y-64675619D01*
X152905113Y-64675619D02*
X152905113Y-63675619D01*
X152905113Y-64151810D02*
X153476541Y-64151810D01*
X153476541Y-64675619D02*
X153476541Y-63675619D01*
%TO.C,SW1*%
X159401344Y-71038937D02*
X159400201Y-71189518D01*
X159473777Y-71415960D01*
X159548495Y-71491822D01*
X159608499Y-71522395D01*
X159713791Y-71538253D01*
X159804368Y-71508823D01*
X159880229Y-71434104D01*
X159910803Y-71374101D01*
X159926661Y-71268809D01*
X159913089Y-71072940D01*
X159928947Y-70967648D01*
X159959520Y-70907645D01*
X160035382Y-70832926D01*
X160125959Y-70803496D01*
X160231251Y-70819354D01*
X160291254Y-70849927D01*
X160365973Y-70925789D01*
X160439548Y-71152231D01*
X160438405Y-71302812D01*
X160586699Y-71605115D02*
X159709218Y-72140574D01*
X160447405Y-72101001D01*
X159826939Y-72502882D01*
X160851571Y-72420307D01*
X160180101Y-73589803D02*
X160003520Y-73046342D01*
X160091811Y-73318073D02*
X161042867Y-73009056D01*
X160877572Y-72962624D01*
X160757565Y-72901478D01*
X160682846Y-72825616D01*
%TO.C,D1*%
X162965478Y-69562962D02*
X162965478Y-68562962D01*
X163203574Y-68562962D01*
X163346431Y-68610582D01*
X163441669Y-68705820D01*
X163489288Y-68801058D01*
X163536907Y-68991534D01*
X163536907Y-69134391D01*
X163489288Y-69324867D01*
X163441669Y-69420105D01*
X163346431Y-69515343D01*
X163203574Y-69562962D01*
X162965478Y-69562962D01*
X164489288Y-69562962D02*
X163917859Y-69562962D01*
X164203574Y-69562962D02*
X164203574Y-68562962D01*
X164108335Y-68705820D01*
X164013097Y-68801058D01*
X163917859Y-68848677D01*
%TO.C,D2*%
X145654298Y-78026798D02*
X145654298Y-77026798D01*
X145892394Y-77026798D01*
X146035251Y-77074418D01*
X146130489Y-77169656D01*
X146178108Y-77264894D01*
X146225727Y-77455370D01*
X146225727Y-77598227D01*
X146178108Y-77788703D01*
X146130489Y-77883941D01*
X146035251Y-77979179D01*
X145892394Y-78026798D01*
X145654298Y-78026798D01*
X146606679Y-77122037D02*
X146654298Y-77074418D01*
X146749536Y-77026798D01*
X146987632Y-77026798D01*
X147082870Y-77074418D01*
X147130489Y-77122037D01*
X147178108Y-77217275D01*
X147178108Y-77312513D01*
X147130489Y-77455370D01*
X146559060Y-78026798D01*
X147178108Y-78026798D01*
%TO.C,C4*%
X163651087Y-78999898D02*
X163640552Y-79066413D01*
X163552968Y-79188907D01*
X163475918Y-79244886D01*
X163332355Y-79290331D01*
X163199326Y-79269261D01*
X163104822Y-79220202D01*
X162954338Y-79094093D01*
X162870369Y-78978519D01*
X162796934Y-78796431D01*
X162779479Y-78691392D01*
X162800549Y-78558363D01*
X162888133Y-78435869D01*
X162965182Y-78379890D01*
X163108746Y-78334445D01*
X163175260Y-78344980D01*
X164008652Y-78033787D02*
X164400509Y-78573132D01*
X163592111Y-77865539D02*
X163819335Y-78583357D01*
X164320155Y-78219490D01*
%TO.C,C3*%
X141565333Y-78208142D02*
X141517714Y-78255761D01*
X141374857Y-78303380D01*
X141279619Y-78303380D01*
X141136761Y-78255761D01*
X141041523Y-78160523D01*
X140993904Y-78065285D01*
X140946285Y-77874809D01*
X140946285Y-77731952D01*
X140993904Y-77541476D01*
X141041523Y-77446238D01*
X141136761Y-77351000D01*
X141279619Y-77303380D01*
X141374857Y-77303380D01*
X141517714Y-77351000D01*
X141565333Y-77398619D01*
X141898666Y-77303380D02*
X142517714Y-77303380D01*
X142184380Y-77684333D01*
X142327238Y-77684333D01*
X142422476Y-77731952D01*
X142470095Y-77779571D01*
X142517714Y-77874809D01*
X142517714Y-78112904D01*
X142470095Y-78208142D01*
X142422476Y-78255761D01*
X142327238Y-78303380D01*
X142041523Y-78303380D01*
X141946285Y-78255761D01*
X141898666Y-78208142D01*
%TO.C,J3*%
X137910954Y-73843368D02*
X137333085Y-74263214D01*
X137189521Y-74308659D01*
X137056493Y-74287589D01*
X136933999Y-74200005D01*
X136878019Y-74122956D01*
X138134872Y-74151565D02*
X138498739Y-74652385D01*
X137994614Y-74606631D01*
X138078583Y-74722204D01*
X138096038Y-74827243D01*
X138085503Y-74893758D01*
X138036444Y-74988262D01*
X137843821Y-75128211D01*
X137738782Y-75145666D01*
X137672268Y-75135131D01*
X137577763Y-75086072D01*
X137409825Y-74854924D01*
X137392370Y-74749885D01*
X137402905Y-74683370D01*
%TO.C,C2*%
X168108333Y-69445142D02*
X168060714Y-69492761D01*
X167917857Y-69540380D01*
X167822619Y-69540380D01*
X167679761Y-69492761D01*
X167584523Y-69397523D01*
X167536904Y-69302285D01*
X167489285Y-69111809D01*
X167489285Y-68968952D01*
X167536904Y-68778476D01*
X167584523Y-68683238D01*
X167679761Y-68588000D01*
X167822619Y-68540380D01*
X167917857Y-68540380D01*
X168060714Y-68588000D01*
X168108333Y-68635619D01*
X168489285Y-68635619D02*
X168536904Y-68588000D01*
X168632142Y-68540380D01*
X168870238Y-68540380D01*
X168965476Y-68588000D01*
X169013095Y-68635619D01*
X169060714Y-68730857D01*
X169060714Y-68826095D01*
X169013095Y-68968952D01*
X168441666Y-69540380D01*
X169060714Y-69540380D01*
%TO.C,D3*%
X145290618Y-75710622D02*
X144702833Y-74901605D01*
X144895456Y-74761656D01*
X145039019Y-74716211D01*
X145172048Y-74737281D01*
X145266552Y-74786340D01*
X145417036Y-74912449D01*
X145501005Y-75028023D01*
X145574440Y-75210111D01*
X145591895Y-75315150D01*
X145570825Y-75448179D01*
X145483241Y-75570673D01*
X145290618Y-75710622D01*
X145434800Y-74369799D02*
X145935620Y-74005932D01*
X145889866Y-74510057D01*
X146005440Y-74426088D01*
X146110479Y-74408633D01*
X146176993Y-74419168D01*
X146271498Y-74468228D01*
X146411446Y-74660851D01*
X146428901Y-74765890D01*
X146418367Y-74832404D01*
X146369307Y-74926908D01*
X146138159Y-75094847D01*
X146033120Y-75112302D01*
X145966606Y-75101767D01*
%TO.C,J1*%
X169377045Y-63707010D02*
X170091331Y-63707010D01*
X170234188Y-63754629D01*
X170329426Y-63849867D01*
X170377045Y-63992724D01*
X170377045Y-64087962D01*
X170377045Y-62707010D02*
X170377045Y-63278438D01*
X170377045Y-62992724D02*
X169377045Y-62992724D01*
X169519903Y-63087962D01*
X169615141Y-63183200D01*
X169662760Y-63278438D01*
%TO.C,J2*%
X140803380Y-83645333D02*
X141517666Y-83645333D01*
X141660523Y-83692952D01*
X141755761Y-83788190D01*
X141803380Y-83931047D01*
X141803380Y-84026285D01*
X140898619Y-83216761D02*
X140851000Y-83169142D01*
X140803380Y-83073904D01*
X140803380Y-82835809D01*
X140851000Y-82740571D01*
X140898619Y-82692952D01*
X140993857Y-82645333D01*
X141089095Y-82645333D01*
X141231952Y-82692952D01*
X141803380Y-83264380D01*
X141803380Y-82645333D01*
%TO.C,J4*%
X171516048Y-72308363D02*
X170938179Y-72728209D01*
X170794615Y-72773654D01*
X170661587Y-72752584D01*
X170539093Y-72665000D01*
X170483113Y-72587951D01*
X171778182Y-73236259D02*
X171238837Y-73628116D01*
X171946430Y-72819718D02*
X171228612Y-73046941D01*
X171592479Y-73547761D01*
%TO.C,JP1*%
X158296229Y-79492697D02*
X158516955Y-80172023D01*
X158515812Y-80322603D01*
X158454665Y-80442610D01*
X158333515Y-80532044D01*
X158242939Y-80561474D01*
X159058130Y-80296603D02*
X158749113Y-79345546D01*
X159111420Y-79227825D01*
X159216712Y-79243684D01*
X159276716Y-79274257D01*
X159351434Y-79350119D01*
X159395579Y-79485984D01*
X159379721Y-79591276D01*
X159349148Y-79651279D01*
X159273286Y-79725998D01*
X158910979Y-79843719D01*
X160507359Y-79825720D02*
X159963898Y-80002301D01*
X160235628Y-79914010D02*
X159926611Y-78962954D01*
X159880180Y-79128249D01*
X159819033Y-79248256D01*
X159743172Y-79322975D01*
%TO.C,JP2*%
X155121229Y-67300697D02*
X155341955Y-67980023D01*
X155340812Y-68130603D01*
X155279665Y-68250610D01*
X155158515Y-68340044D01*
X155067939Y-68369474D01*
X155883130Y-68104603D02*
X155574113Y-67153546D01*
X155936420Y-67035825D01*
X156041712Y-67051684D01*
X156101716Y-67082257D01*
X156176434Y-67158119D01*
X156220579Y-67293984D01*
X156204721Y-67399276D01*
X156174148Y-67459279D01*
X156098286Y-67533998D01*
X155735979Y-67651719D01*
X156509311Y-66949821D02*
X156539884Y-66889817D01*
X156615746Y-66815099D01*
X156842188Y-66741523D01*
X156947480Y-66757382D01*
X157007484Y-66787955D01*
X157082202Y-66863817D01*
X157111632Y-66954393D01*
X157110489Y-67104974D01*
X156743610Y-67825016D01*
X157332359Y-67633720D01*
%TD*%
%LPC*%
D15*
%TO.C,M3*%
X162152501Y-70963609D03*
%TD*%
%TO.C,M3*%
X147806268Y-75624982D03*
%TD*%
%TO.C,M3*%
X127168342Y-82330651D03*
%TD*%
%TO.C,M3*%
X152996675Y-81700001D03*
%TD*%
%TO.C,M3*%
X182790427Y-64257940D03*
%TD*%
%TO.C,M3*%
X156962095Y-64888590D03*
%TD*%
D16*
%TO.C,D4*%
G36*
X169698497Y-73500189D02*
G01*
X170286282Y-74309206D01*
X169072757Y-75190883D01*
X168484972Y-74381866D01*
X169698497Y-73500189D01*
G37*
G36*
X167817584Y-70911335D02*
G01*
X168405369Y-71720352D01*
X167191844Y-72602029D01*
X166604059Y-71793012D01*
X167817584Y-70911335D01*
G37*
G36*
X165734314Y-76380337D02*
G01*
X166322099Y-77189354D01*
X165108574Y-78071031D01*
X164520789Y-77262014D01*
X165734314Y-76380337D01*
G37*
G36*
X163853401Y-73791483D02*
G01*
X164441186Y-74600500D01*
X163227661Y-75482177D01*
X162639876Y-74673160D01*
X163853401Y-73791483D01*
G37*
%TD*%
%TO.C,C1*%
G36*
G01*
X147581220Y-70620256D02*
X148349787Y-70061860D01*
G75*
G02*
X148698987Y-70117168I146946J-202254D01*
G01*
X149095742Y-70663254D01*
G75*
G02*
X149040434Y-71012454I-202254J-146946D01*
G01*
X148271867Y-71570850D01*
G75*
G02*
X147922667Y-71515542I-146946J202254D01*
G01*
X147525912Y-70969456D01*
G75*
G02*
X147581220Y-70620256I202254J146946D01*
G01*
G37*
G36*
G01*
X146361566Y-68941546D02*
X147130133Y-68383150D01*
G75*
G02*
X147479333Y-68438458I146946J-202254D01*
G01*
X147876088Y-68984544D01*
G75*
G02*
X147820780Y-69333744I-202254J-146946D01*
G01*
X147052213Y-69892140D01*
G75*
G02*
X146703013Y-69836832I-146946J202254D01*
G01*
X146306258Y-69290746D01*
G75*
G02*
X146361566Y-68941546I202254J146946D01*
G01*
G37*
%TD*%
D17*
%TO.C,MH*%
X157439371Y-80865352D03*
%TD*%
%TO.C,MH*%
X152519399Y-65723239D03*
%TD*%
D16*
%TO.C,SW1*%
G36*
X155493295Y-69189402D02*
G01*
X156539458Y-68849484D01*
X157142041Y-70704044D01*
X156095878Y-71043962D01*
X155493295Y-69189402D01*
G37*
G36*
X153115654Y-69961944D02*
G01*
X154161817Y-69622026D01*
X154764400Y-71476586D01*
X153718237Y-71816504D01*
X153115654Y-69961944D01*
G37*
G36*
X150738013Y-70734487D02*
G01*
X151784176Y-70394569D01*
X152386759Y-72249129D01*
X151340596Y-72589047D01*
X150738013Y-70734487D01*
G37*
G36*
X157239241Y-74562871D02*
G01*
X158285404Y-74222953D01*
X158887987Y-76077513D01*
X157841824Y-76417431D01*
X157239241Y-74562871D01*
G37*
G36*
X154861600Y-75335414D02*
G01*
X155907763Y-74995496D01*
X156510346Y-76850056D01*
X155464183Y-77189974D01*
X154861600Y-75335414D01*
G37*
G36*
X152483959Y-76107956D02*
G01*
X153530122Y-75768038D01*
X154132705Y-77622598D01*
X153086542Y-77962516D01*
X152483959Y-76107956D01*
G37*
%TD*%
D18*
%TO.C,D1*%
X161116375Y-63976046D03*
X161116375Y-67176046D03*
X166016375Y-63976046D03*
X166016375Y-67176046D03*
%TD*%
%TO.C,D2*%
X143942394Y-79412545D03*
X143942394Y-82612545D03*
X148842394Y-79412545D03*
X148842394Y-82612545D03*
%TD*%
%TO.C,C4*%
G36*
G01*
X163518434Y-77616454D02*
X162749867Y-78174850D01*
G75*
G02*
X162400667Y-78119542I-146946J202254D01*
G01*
X162003912Y-77573456D01*
G75*
G02*
X162059220Y-77224256I202254J146946D01*
G01*
X162827787Y-76665860D01*
G75*
G02*
X163176987Y-76721168I146946J-202254D01*
G01*
X163573742Y-77267254D01*
G75*
G02*
X163518434Y-77616454I-202254J-146946D01*
G01*
G37*
G36*
G01*
X162298780Y-75937744D02*
X161530213Y-76496140D01*
G75*
G02*
X161181013Y-76440832I-146946J202254D01*
G01*
X160784258Y-75894746D01*
G75*
G02*
X160839566Y-75545546I202254J146946D01*
G01*
X161608133Y-74987150D01*
G75*
G02*
X161957333Y-75042458I146946J-202254D01*
G01*
X162354088Y-75588544D01*
G75*
G02*
X162298780Y-75937744I-202254J-146946D01*
G01*
G37*
%TD*%
%TO.C,C3*%
G36*
G01*
X142207000Y-80068000D02*
X141257000Y-80068000D01*
G75*
G02*
X141007000Y-79818000I0J250000D01*
G01*
X141007000Y-79143000D01*
G75*
G02*
X141257000Y-78893000I250000J0D01*
G01*
X142207000Y-78893000D01*
G75*
G02*
X142457000Y-79143000I0J-250000D01*
G01*
X142457000Y-79818000D01*
G75*
G02*
X142207000Y-80068000I-250000J0D01*
G01*
G37*
G36*
G01*
X142207000Y-82143000D02*
X141257000Y-82143000D01*
G75*
G02*
X141007000Y-81893000I0J250000D01*
G01*
X141007000Y-81218000D01*
G75*
G02*
X141257000Y-80968000I250000J0D01*
G01*
X142207000Y-80968000D01*
G75*
G02*
X142457000Y-81218000I0J-250000D01*
G01*
X142457000Y-81893000D01*
G75*
G02*
X142207000Y-82143000I-250000J0D01*
G01*
G37*
%TD*%
D16*
%TO.C,J3*%
G36*
X134235591Y-75875041D02*
G01*
X135610920Y-74875806D01*
X136610155Y-76251135D01*
X135234826Y-77250370D01*
X134235591Y-75875041D01*
G37*
G36*
G01*
X132868353Y-76868399D02*
X132868353Y-76868399D01*
G75*
G02*
X134055634Y-77056446I499617J-687664D01*
G01*
X134055634Y-77056446D01*
G75*
G02*
X133867587Y-78243727I-687664J-499617D01*
G01*
X133867587Y-78243727D01*
G75*
G02*
X132680306Y-78055680I-499617J687664D01*
G01*
X132680306Y-78055680D01*
G75*
G02*
X132868353Y-76868399I687664J499617D01*
G01*
G37*
G36*
G01*
X130813450Y-78361373D02*
X130813450Y-78361373D01*
G75*
G02*
X132000731Y-78549420I499617J-687664D01*
G01*
X132000731Y-78549420D01*
G75*
G02*
X131812684Y-79736701I-687664J-499617D01*
G01*
X131812684Y-79736701D01*
G75*
G02*
X130625403Y-79548654I-499617J687664D01*
G01*
X130625403Y-79548654D01*
G75*
G02*
X130813450Y-78361373I687664J499617D01*
G01*
G37*
%TD*%
%TO.C,C2*%
G36*
G01*
X167673000Y-64669000D02*
X168623000Y-64669000D01*
G75*
G02*
X168873000Y-64919000I0J-250000D01*
G01*
X168873000Y-65594000D01*
G75*
G02*
X168623000Y-65844000I-250000J0D01*
G01*
X167673000Y-65844000D01*
G75*
G02*
X167423000Y-65594000I0J250000D01*
G01*
X167423000Y-64919000D01*
G75*
G02*
X167673000Y-64669000I250000J0D01*
G01*
G37*
G36*
G01*
X167673000Y-66744000D02*
X168623000Y-66744000D01*
G75*
G02*
X168873000Y-66994000I0J-250000D01*
G01*
X168873000Y-67669000D01*
G75*
G02*
X168623000Y-67919000I-250000J0D01*
G01*
X167673000Y-67919000D01*
G75*
G02*
X167423000Y-67669000I0J250000D01*
G01*
X167423000Y-66994000D01*
G75*
G02*
X167673000Y-66744000I250000J0D01*
G01*
G37*
%TD*%
%TO.C,D3*%
G36*
X146105368Y-72797107D02*
G01*
X145517583Y-71988090D01*
X146731108Y-71106413D01*
X147318893Y-71915430D01*
X146105368Y-72797107D01*
G37*
G36*
X144224455Y-70208253D02*
G01*
X143636670Y-69399236D01*
X144850195Y-68517559D01*
X145437980Y-69326576D01*
X144224455Y-70208253D01*
G37*
G36*
X142141185Y-75677255D02*
G01*
X141553400Y-74868238D01*
X142766925Y-73986561D01*
X143354710Y-74795578D01*
X142141185Y-75677255D01*
G37*
G36*
X140260272Y-73088401D02*
G01*
X139672487Y-72279384D01*
X140886012Y-71397707D01*
X141473797Y-72206724D01*
X140260272Y-73088401D01*
G37*
%TD*%
D19*
%TO.C,J1*%
X177508389Y-64039267D03*
X174968389Y-64039267D03*
D20*
X172428389Y-64039267D03*
%TD*%
%TO.C,J2*%
X138799045Y-82550000D03*
D19*
X136259045Y-82550000D03*
X133719045Y-82550000D03*
%TD*%
%TO.C,J4*%
G36*
G01*
X178119344Y-68973468D02*
X178119344Y-68973468D01*
G75*
G02*
X176932063Y-68785421I-499617J687664D01*
G01*
X176932063Y-68785421D01*
G75*
G02*
X177120110Y-67598140I687664J499617D01*
G01*
X177120110Y-67598140D01*
G75*
G02*
X178307391Y-67786187I499617J-687664D01*
G01*
X178307391Y-67786187D01*
G75*
G02*
X178119344Y-68973468I-687664J-499617D01*
G01*
G37*
G36*
G01*
X176064441Y-70466442D02*
X176064441Y-70466442D01*
G75*
G02*
X174877160Y-70278395I-499617J687664D01*
G01*
X174877160Y-70278395D01*
G75*
G02*
X175065207Y-69091114I687664J499617D01*
G01*
X175065207Y-69091114D01*
G75*
G02*
X176252488Y-69279161I499617J-687664D01*
G01*
X176252488Y-69279161D01*
G75*
G02*
X176064441Y-70466442I-687664J-499617D01*
G01*
G37*
D16*
G36*
X174697203Y-71459800D02*
G01*
X173321874Y-72459035D01*
X172322639Y-71083706D01*
X173697968Y-70084471D01*
X174697203Y-71459800D01*
G37*
%TD*%
%TO.C,JP1*%
G36*
X156707766Y-77851477D02*
G01*
X157171291Y-79278062D01*
X156220234Y-79587079D01*
X155756709Y-78160494D01*
X156707766Y-77851477D01*
G37*
G36*
X155459204Y-79833720D02*
G01*
X155435870Y-79841301D01*
X155387943Y-79851816D01*
X155339216Y-79857584D01*
X155290157Y-79858547D01*
X155241240Y-79854698D01*
X155192937Y-79846071D01*
X155145712Y-79832753D01*
X155100020Y-79814869D01*
X155056299Y-79792592D01*
X155014974Y-79766139D01*
X154976440Y-79735760D01*
X154941069Y-79701753D01*
X154909203Y-79664441D01*
X154881146Y-79624186D01*
X154857171Y-79581374D01*
X154837507Y-79536420D01*
X154829926Y-79513087D01*
X154829353Y-79513273D01*
X154674844Y-79037744D01*
X154675417Y-79037558D01*
X154667836Y-79014225D01*
X154657321Y-78966298D01*
X154651553Y-78917570D01*
X154650590Y-78868512D01*
X154654439Y-78819595D01*
X154663066Y-78771292D01*
X154676384Y-78724066D01*
X154694268Y-78678374D01*
X154716545Y-78634654D01*
X154742998Y-78593328D01*
X154773376Y-78554795D01*
X154807384Y-78519424D01*
X154844695Y-78487557D01*
X154884951Y-78459501D01*
X154927762Y-78435526D01*
X154972717Y-78415862D01*
X154996050Y-78408280D01*
X154995864Y-78407708D01*
X155518945Y-78237748D01*
X155982471Y-79664333D01*
X155459390Y-79834292D01*
X155459204Y-79833720D01*
G37*
G36*
X156945529Y-77774223D02*
G01*
X157468610Y-77604264D01*
X157468796Y-77604836D01*
X157492130Y-77597255D01*
X157540057Y-77586740D01*
X157588784Y-77580972D01*
X157637843Y-77580009D01*
X157686760Y-77583858D01*
X157735063Y-77592485D01*
X157782288Y-77605803D01*
X157827980Y-77623687D01*
X157871701Y-77645964D01*
X157913026Y-77672417D01*
X157951560Y-77702796D01*
X157986931Y-77736803D01*
X158018797Y-77774115D01*
X158046854Y-77814370D01*
X158070829Y-77857182D01*
X158090493Y-77902136D01*
X158098074Y-77925469D01*
X158098647Y-77925283D01*
X158253156Y-78400812D01*
X158252583Y-78400998D01*
X158260164Y-78424331D01*
X158270679Y-78472258D01*
X158276447Y-78520986D01*
X158277410Y-78570044D01*
X158273561Y-78618961D01*
X158264934Y-78667264D01*
X158251616Y-78714490D01*
X158233732Y-78760182D01*
X158211455Y-78803902D01*
X158185002Y-78845228D01*
X158154624Y-78883761D01*
X158120616Y-78919132D01*
X158083305Y-78950999D01*
X158043049Y-78979055D01*
X158000238Y-79003030D01*
X157955283Y-79022694D01*
X157931950Y-79030276D01*
X157932136Y-79030848D01*
X157409055Y-79200808D01*
X156945529Y-77774223D01*
G37*
%TD*%
%TO.C,JP2*%
G36*
X153389529Y-66999945D02*
G01*
X153912610Y-66829986D01*
X153912796Y-66830558D01*
X153936130Y-66822977D01*
X153984057Y-66812462D01*
X154032784Y-66806694D01*
X154081843Y-66805731D01*
X154130760Y-66809580D01*
X154179063Y-66818207D01*
X154226288Y-66831525D01*
X154271980Y-66849409D01*
X154315701Y-66871686D01*
X154357026Y-66898139D01*
X154395560Y-66928518D01*
X154430931Y-66962525D01*
X154462797Y-66999837D01*
X154490854Y-67040092D01*
X154514829Y-67082904D01*
X154534493Y-67127858D01*
X154542074Y-67151191D01*
X154542647Y-67151005D01*
X154697156Y-67626534D01*
X154696583Y-67626720D01*
X154704164Y-67650053D01*
X154714679Y-67697980D01*
X154720447Y-67746708D01*
X154721410Y-67795766D01*
X154717561Y-67844683D01*
X154708934Y-67892986D01*
X154695616Y-67940212D01*
X154677732Y-67985904D01*
X154655455Y-68029624D01*
X154629002Y-68070950D01*
X154598624Y-68109483D01*
X154564616Y-68144854D01*
X154527305Y-68176721D01*
X154487049Y-68204777D01*
X154444238Y-68228752D01*
X154399283Y-68248416D01*
X154375950Y-68255998D01*
X154376136Y-68256570D01*
X153853055Y-68426530D01*
X153389529Y-66999945D01*
G37*
G36*
X151903204Y-69059442D02*
G01*
X151879870Y-69067023D01*
X151831943Y-69077538D01*
X151783216Y-69083306D01*
X151734157Y-69084269D01*
X151685240Y-69080420D01*
X151636937Y-69071793D01*
X151589712Y-69058475D01*
X151544020Y-69040591D01*
X151500299Y-69018314D01*
X151458974Y-68991861D01*
X151420440Y-68961482D01*
X151385069Y-68927475D01*
X151353203Y-68890163D01*
X151325146Y-68849908D01*
X151301171Y-68807096D01*
X151281507Y-68762142D01*
X151273926Y-68738809D01*
X151273353Y-68738995D01*
X151118844Y-68263466D01*
X151119417Y-68263280D01*
X151111836Y-68239947D01*
X151101321Y-68192020D01*
X151095553Y-68143292D01*
X151094590Y-68094234D01*
X151098439Y-68045317D01*
X151107066Y-67997014D01*
X151120384Y-67949788D01*
X151138268Y-67904096D01*
X151160545Y-67860376D01*
X151186998Y-67819050D01*
X151217376Y-67780517D01*
X151251384Y-67745146D01*
X151288695Y-67713279D01*
X151328951Y-67685223D01*
X151371762Y-67661248D01*
X151416717Y-67641584D01*
X151440050Y-67634002D01*
X151439864Y-67633430D01*
X151962945Y-67463470D01*
X152426471Y-68890055D01*
X151903390Y-69060014D01*
X151903204Y-69059442D01*
G37*
G36*
X153151766Y-67077199D02*
G01*
X153615291Y-68503784D01*
X152664234Y-68812801D01*
X152200709Y-67386216D01*
X153151766Y-67077199D01*
G37*
%TD*%
M02*
