%FSLAX45Y45*%
G04 Gerber Fmt 4.5, Leading zero omitted, Abs format (unit mm)*
G04 Created by KiCad (PCBNEW 5.1.9) date 2021-02-12 10:46:00*
%MOMM*%
%LPD*%
G01*
G04 APERTURE LIST*
%TA.AperFunction,Profile*%
%ADD10C,0.200000*%
%TD*%
%ADD11C,0.200000*%
%ADD12C,0.300000*%
G04 APERTURE END LIST*
D10*
X19115972Y-6153859D02*
X15115972Y-6153859D01*
X11879904Y-8505000D02*
X15879904Y-8505000D01*
X15879904Y-8505000D02*
X19115972Y-6153859D01*
X15115972Y-6153859D02*
X11879904Y-8505000D01*
D11*
X14178600Y-7104700D02*
X14218600Y-7144700D01*
X14218600Y-7104700D02*
X14178600Y-7144700D01*
X14292900Y-8095300D02*
X14332900Y-8135300D01*
X14332900Y-8095300D02*
X14292900Y-8135300D01*
X14559600Y-7003100D02*
X14599600Y-7043100D01*
X14599600Y-7003100D02*
X14559600Y-7043100D01*
X14699300Y-8235000D02*
X14739300Y-8275000D01*
X14739300Y-8235000D02*
X14699300Y-8275000D01*
X14987546Y-7114904D02*
X15027546Y-7154904D01*
X15027546Y-7114904D02*
X14987546Y-7154904D01*
X15244130Y-7095810D02*
X15284130Y-7135810D01*
X15284130Y-7095810D02*
X15244130Y-7135810D01*
X15423200Y-7640640D02*
X15463200Y-7680640D01*
X15463200Y-7640640D02*
X15423200Y-7680640D01*
X15500416Y-7004116D02*
X15540416Y-7044116D01*
X15540416Y-7004116D02*
X15500416Y-7044116D01*
X15661960Y-7497130D02*
X15701960Y-7537130D01*
X15701960Y-7497130D02*
X15661960Y-7537130D01*
X16261400Y-6380800D02*
X16301400Y-6420800D01*
X16301400Y-6380800D02*
X16261400Y-6420800D01*
X16401100Y-7600000D02*
X16441100Y-7640000D01*
X16441100Y-7600000D02*
X16401100Y-7640000D01*
X16617000Y-6520500D02*
X16657000Y-6560500D01*
X16657000Y-6520500D02*
X16617000Y-6560500D01*
X16782100Y-7523800D02*
X16822100Y-7563800D01*
X16822100Y-7523800D02*
X16782100Y-7563800D01*
X13181307Y-7904904D02*
G75*
G03*
X13181307Y-7904904I-50000J0D01*
G01*
X13386797Y-7755606D02*
G75*
G03*
X13386797Y-7755606I-50000J0D01*
G01*
X13421904Y-8255000D02*
G75*
G03*
X13421904Y-8255000I-50000J0D01*
G01*
X13592287Y-7606309D02*
G75*
G03*
X13592287Y-7606309I-50000J0D01*
G01*
X13675904Y-8255000D02*
G75*
G03*
X13675904Y-8255000I-50000J0D01*
G01*
X13929904Y-8255000D02*
G75*
G03*
X13929904Y-8255000I-50000J0D01*
G01*
X17292839Y-6403927D02*
G75*
G03*
X17292839Y-6403927I-50000J0D01*
G01*
X17400992Y-7127175D02*
G75*
G03*
X17400992Y-7127175I-50000J0D01*
G01*
X17546839Y-6403927D02*
G75*
G03*
X17546839Y-6403927I-50000J0D01*
G01*
X17606482Y-6977878D02*
G75*
G03*
X17606482Y-6977878I-50000J0D01*
G01*
X17800839Y-6403927D02*
G75*
G03*
X17800839Y-6403927I-50000J0D01*
G01*
X17811973Y-6828580D02*
G75*
G03*
X17811973Y-6828580I-50000J0D01*
G01*
D12*
X12156333Y-8980714D02*
X12156333Y-8680714D01*
X12227761Y-8680714D01*
X12270619Y-8695000D01*
X12299190Y-8723572D01*
X12313476Y-8752143D01*
X12327761Y-8809286D01*
X12327761Y-8852143D01*
X12313476Y-8909286D01*
X12299190Y-8937857D01*
X12270619Y-8966429D01*
X12227761Y-8980714D01*
X12156333Y-8980714D01*
X12456333Y-8980714D02*
X12456333Y-8780714D01*
X12456333Y-8837857D02*
X12470619Y-8809286D01*
X12484904Y-8795000D01*
X12513476Y-8780714D01*
X12542047Y-8780714D01*
X12642047Y-8980714D02*
X12642047Y-8780714D01*
X12642047Y-8680714D02*
X12627761Y-8695000D01*
X12642047Y-8709286D01*
X12656333Y-8695000D01*
X12642047Y-8680714D01*
X12642047Y-8709286D01*
X12827761Y-8980714D02*
X12799190Y-8966429D01*
X12784904Y-8937857D01*
X12784904Y-8680714D01*
X12984904Y-8980714D02*
X12956333Y-8966429D01*
X12942047Y-8937857D01*
X12942047Y-8680714D01*
X13327761Y-8980714D02*
X13327761Y-8680714D01*
X13427761Y-8895000D01*
X13527761Y-8680714D01*
X13527761Y-8980714D01*
X13799190Y-8980714D02*
X13799190Y-8823572D01*
X13784904Y-8795000D01*
X13756333Y-8780714D01*
X13699190Y-8780714D01*
X13670619Y-8795000D01*
X13799190Y-8966429D02*
X13770619Y-8980714D01*
X13699190Y-8980714D01*
X13670619Y-8966429D01*
X13656333Y-8937857D01*
X13656333Y-8909286D01*
X13670619Y-8880714D01*
X13699190Y-8866429D01*
X13770619Y-8866429D01*
X13799190Y-8852143D01*
X13942047Y-8780714D02*
X13942047Y-9080714D01*
X13942047Y-8795000D02*
X13970619Y-8780714D01*
X14027761Y-8780714D01*
X14056333Y-8795000D01*
X14070619Y-8809286D01*
X14084904Y-8837857D01*
X14084904Y-8923572D01*
X14070619Y-8952143D01*
X14056333Y-8966429D01*
X14027761Y-8980714D01*
X13970619Y-8980714D01*
X13942047Y-8966429D01*
X14213476Y-8952143D02*
X14227761Y-8966429D01*
X14213476Y-8980714D01*
X14199190Y-8966429D01*
X14213476Y-8952143D01*
X14213476Y-8980714D01*
X14213476Y-8795000D02*
X14227761Y-8809286D01*
X14213476Y-8823572D01*
X14199190Y-8809286D01*
X14213476Y-8795000D01*
X14213476Y-8823572D01*
X11829904Y-9455000D02*
X11869904Y-9495000D01*
X11869904Y-9455000D02*
X11829904Y-9495000D01*
X12213476Y-9310714D02*
X12242047Y-9310714D01*
X12270619Y-9325000D01*
X12284904Y-9339286D01*
X12299190Y-9367857D01*
X12313476Y-9425000D01*
X12313476Y-9496429D01*
X12299190Y-9553572D01*
X12284904Y-9582143D01*
X12270619Y-9596429D01*
X12242047Y-9610714D01*
X12213476Y-9610714D01*
X12184904Y-9596429D01*
X12170619Y-9582143D01*
X12156333Y-9553572D01*
X12142047Y-9496429D01*
X12142047Y-9425000D01*
X12156333Y-9367857D01*
X12170619Y-9339286D01*
X12184904Y-9325000D01*
X12213476Y-9310714D01*
X12442047Y-9582143D02*
X12456333Y-9596429D01*
X12442047Y-9610714D01*
X12427761Y-9596429D01*
X12442047Y-9582143D01*
X12442047Y-9610714D01*
X12713476Y-9410714D02*
X12713476Y-9610714D01*
X12642047Y-9296429D02*
X12570619Y-9510714D01*
X12756333Y-9510714D01*
X12927761Y-9310714D02*
X12956333Y-9310714D01*
X12984904Y-9325000D01*
X12999190Y-9339286D01*
X13013476Y-9367857D01*
X13027761Y-9425000D01*
X13027761Y-9496429D01*
X13013476Y-9553572D01*
X12999190Y-9582143D01*
X12984904Y-9596429D01*
X12956333Y-9610714D01*
X12927761Y-9610714D01*
X12899190Y-9596429D01*
X12884904Y-9582143D01*
X12870619Y-9553572D01*
X12856333Y-9496429D01*
X12856333Y-9425000D01*
X12870619Y-9367857D01*
X12884904Y-9339286D01*
X12899190Y-9325000D01*
X12927761Y-9310714D01*
X13156333Y-9610714D02*
X13156333Y-9410714D01*
X13156333Y-9439286D02*
X13170619Y-9425000D01*
X13199190Y-9410714D01*
X13242047Y-9410714D01*
X13270619Y-9425000D01*
X13284904Y-9453572D01*
X13284904Y-9610714D01*
X13284904Y-9453572D02*
X13299190Y-9425000D01*
X13327761Y-9410714D01*
X13370619Y-9410714D01*
X13399190Y-9425000D01*
X13413476Y-9453572D01*
X13413476Y-9610714D01*
X13556333Y-9610714D02*
X13556333Y-9410714D01*
X13556333Y-9439286D02*
X13570619Y-9425000D01*
X13599190Y-9410714D01*
X13642047Y-9410714D01*
X13670619Y-9425000D01*
X13684904Y-9453572D01*
X13684904Y-9610714D01*
X13684904Y-9453572D02*
X13699190Y-9425000D01*
X13727761Y-9410714D01*
X13770619Y-9410714D01*
X13799190Y-9425000D01*
X13813476Y-9453572D01*
X13813476Y-9610714D01*
X14399190Y-9296429D02*
X14142047Y-9682143D01*
X14784904Y-9310714D02*
X14813476Y-9310714D01*
X14842047Y-9325000D01*
X14856333Y-9339286D01*
X14870619Y-9367857D01*
X14884904Y-9425000D01*
X14884904Y-9496429D01*
X14870619Y-9553572D01*
X14856333Y-9582143D01*
X14842047Y-9596429D01*
X14813476Y-9610714D01*
X14784904Y-9610714D01*
X14756333Y-9596429D01*
X14742047Y-9582143D01*
X14727761Y-9553572D01*
X14713476Y-9496429D01*
X14713476Y-9425000D01*
X14727761Y-9367857D01*
X14742047Y-9339286D01*
X14756333Y-9325000D01*
X14784904Y-9310714D01*
X15013476Y-9582143D02*
X15027761Y-9596429D01*
X15013476Y-9610714D01*
X14999190Y-9596429D01*
X15013476Y-9582143D01*
X15013476Y-9610714D01*
X15213476Y-9310714D02*
X15242047Y-9310714D01*
X15270619Y-9325000D01*
X15284904Y-9339286D01*
X15299190Y-9367857D01*
X15313476Y-9425000D01*
X15313476Y-9496429D01*
X15299190Y-9553572D01*
X15284904Y-9582143D01*
X15270619Y-9596429D01*
X15242047Y-9610714D01*
X15213476Y-9610714D01*
X15184904Y-9596429D01*
X15170619Y-9582143D01*
X15156333Y-9553572D01*
X15142047Y-9496429D01*
X15142047Y-9425000D01*
X15156333Y-9367857D01*
X15170619Y-9339286D01*
X15184904Y-9325000D01*
X15213476Y-9310714D01*
X15599190Y-9610714D02*
X15427761Y-9610714D01*
X15513476Y-9610714D02*
X15513476Y-9310714D01*
X15484904Y-9353572D01*
X15456333Y-9382143D01*
X15427761Y-9396429D01*
X15856333Y-9310714D02*
X15799190Y-9310714D01*
X15770619Y-9325000D01*
X15756333Y-9339286D01*
X15727761Y-9382143D01*
X15713476Y-9439286D01*
X15713476Y-9553572D01*
X15727761Y-9582143D01*
X15742047Y-9596429D01*
X15770619Y-9610714D01*
X15827761Y-9610714D01*
X15856333Y-9596429D01*
X15870619Y-9582143D01*
X15884904Y-9553572D01*
X15884904Y-9482143D01*
X15870619Y-9453572D01*
X15856333Y-9439286D01*
X15827761Y-9425000D01*
X15770619Y-9425000D01*
X15742047Y-9439286D01*
X15727761Y-9453572D01*
X15713476Y-9482143D01*
X15999190Y-9310714D02*
X15999190Y-9367857D01*
X16113476Y-9310714D02*
X16113476Y-9367857D01*
X16556333Y-9725000D02*
X16542047Y-9710714D01*
X16513476Y-9667857D01*
X16499190Y-9639286D01*
X16484904Y-9596429D01*
X16470619Y-9525000D01*
X16470619Y-9467857D01*
X16484904Y-9396429D01*
X16499190Y-9353572D01*
X16513476Y-9325000D01*
X16542047Y-9282143D01*
X16556333Y-9267857D01*
X16827762Y-9610714D02*
X16656333Y-9610714D01*
X16742047Y-9610714D02*
X16742047Y-9310714D01*
X16713476Y-9353572D01*
X16684904Y-9382143D01*
X16656333Y-9396429D01*
X16927762Y-9310714D02*
X17113476Y-9310714D01*
X17013476Y-9425000D01*
X17056333Y-9425000D01*
X17084904Y-9439286D01*
X17099190Y-9453572D01*
X17113476Y-9482143D01*
X17113476Y-9553572D01*
X17099190Y-9582143D01*
X17084904Y-9596429D01*
X17056333Y-9610714D01*
X16970619Y-9610714D01*
X16942047Y-9596429D01*
X16927762Y-9582143D01*
X17470619Y-9610714D02*
X17470619Y-9310714D01*
X17599190Y-9610714D02*
X17599190Y-9453572D01*
X17584904Y-9425000D01*
X17556333Y-9410714D01*
X17513476Y-9410714D01*
X17484904Y-9425000D01*
X17470619Y-9439286D01*
X17784904Y-9610714D02*
X17756333Y-9596429D01*
X17742047Y-9582143D01*
X17727762Y-9553572D01*
X17727762Y-9467857D01*
X17742047Y-9439286D01*
X17756333Y-9425000D01*
X17784904Y-9410714D01*
X17827762Y-9410714D01*
X17856333Y-9425000D01*
X17870619Y-9439286D01*
X17884904Y-9467857D01*
X17884904Y-9553572D01*
X17870619Y-9582143D01*
X17856333Y-9596429D01*
X17827762Y-9610714D01*
X17784904Y-9610714D01*
X18056333Y-9610714D02*
X18027762Y-9596429D01*
X18013476Y-9567857D01*
X18013476Y-9310714D01*
X18284904Y-9596429D02*
X18256333Y-9610714D01*
X18199190Y-9610714D01*
X18170619Y-9596429D01*
X18156333Y-9567857D01*
X18156333Y-9453572D01*
X18170619Y-9425000D01*
X18199190Y-9410714D01*
X18256333Y-9410714D01*
X18284904Y-9425000D01*
X18299190Y-9453572D01*
X18299190Y-9482143D01*
X18156333Y-9510714D01*
X18413476Y-9596429D02*
X18442047Y-9610714D01*
X18499190Y-9610714D01*
X18527762Y-9596429D01*
X18542047Y-9567857D01*
X18542047Y-9553572D01*
X18527762Y-9525000D01*
X18499190Y-9510714D01*
X18456333Y-9510714D01*
X18427762Y-9496429D01*
X18413476Y-9467857D01*
X18413476Y-9453572D01*
X18427762Y-9425000D01*
X18456333Y-9410714D01*
X18499190Y-9410714D01*
X18527762Y-9425000D01*
X18642047Y-9725000D02*
X18656333Y-9710714D01*
X18684904Y-9667857D01*
X18699190Y-9639286D01*
X18713476Y-9596429D01*
X18727762Y-9525000D01*
X18727762Y-9467857D01*
X18713476Y-9396429D01*
X18699190Y-9353572D01*
X18684904Y-9325000D01*
X18656333Y-9282143D01*
X18642047Y-9267857D01*
X11869904Y-9871000D02*
G75*
G03*
X11869904Y-9871000I-50000J0D01*
G01*
X12313476Y-10006714D02*
X12142047Y-10006714D01*
X12227761Y-10006714D02*
X12227761Y-9706714D01*
X12199190Y-9749572D01*
X12170619Y-9778143D01*
X12142047Y-9792429D01*
X12442047Y-9978143D02*
X12456333Y-9992429D01*
X12442047Y-10006714D01*
X12427761Y-9992429D01*
X12442047Y-9978143D01*
X12442047Y-10006714D01*
X12642047Y-9706714D02*
X12670619Y-9706714D01*
X12699190Y-9721000D01*
X12713476Y-9735286D01*
X12727761Y-9763857D01*
X12742047Y-9821000D01*
X12742047Y-9892429D01*
X12727761Y-9949572D01*
X12713476Y-9978143D01*
X12699190Y-9992429D01*
X12670619Y-10006714D01*
X12642047Y-10006714D01*
X12613476Y-9992429D01*
X12599190Y-9978143D01*
X12584904Y-9949572D01*
X12570619Y-9892429D01*
X12570619Y-9821000D01*
X12584904Y-9763857D01*
X12599190Y-9735286D01*
X12613476Y-9721000D01*
X12642047Y-9706714D01*
X12927761Y-9706714D02*
X12956333Y-9706714D01*
X12984904Y-9721000D01*
X12999190Y-9735286D01*
X13013476Y-9763857D01*
X13027761Y-9821000D01*
X13027761Y-9892429D01*
X13013476Y-9949572D01*
X12999190Y-9978143D01*
X12984904Y-9992429D01*
X12956333Y-10006714D01*
X12927761Y-10006714D01*
X12899190Y-9992429D01*
X12884904Y-9978143D01*
X12870619Y-9949572D01*
X12856333Y-9892429D01*
X12856333Y-9821000D01*
X12870619Y-9763857D01*
X12884904Y-9735286D01*
X12899190Y-9721000D01*
X12927761Y-9706714D01*
X13156333Y-10006714D02*
X13156333Y-9806714D01*
X13156333Y-9835286D02*
X13170619Y-9821000D01*
X13199190Y-9806714D01*
X13242047Y-9806714D01*
X13270619Y-9821000D01*
X13284904Y-9849572D01*
X13284904Y-10006714D01*
X13284904Y-9849572D02*
X13299190Y-9821000D01*
X13327761Y-9806714D01*
X13370619Y-9806714D01*
X13399190Y-9821000D01*
X13413476Y-9849572D01*
X13413476Y-10006714D01*
X13556333Y-10006714D02*
X13556333Y-9806714D01*
X13556333Y-9835286D02*
X13570619Y-9821000D01*
X13599190Y-9806714D01*
X13642047Y-9806714D01*
X13670619Y-9821000D01*
X13684904Y-9849572D01*
X13684904Y-10006714D01*
X13684904Y-9849572D02*
X13699190Y-9821000D01*
X13727761Y-9806714D01*
X13770619Y-9806714D01*
X13799190Y-9821000D01*
X13813476Y-9849572D01*
X13813476Y-10006714D01*
X14399190Y-9692429D02*
X14142047Y-10078143D01*
X14784904Y-9706714D02*
X14813476Y-9706714D01*
X14842047Y-9721000D01*
X14856333Y-9735286D01*
X14870619Y-9763857D01*
X14884904Y-9821000D01*
X14884904Y-9892429D01*
X14870619Y-9949572D01*
X14856333Y-9978143D01*
X14842047Y-9992429D01*
X14813476Y-10006714D01*
X14784904Y-10006714D01*
X14756333Y-9992429D01*
X14742047Y-9978143D01*
X14727761Y-9949572D01*
X14713476Y-9892429D01*
X14713476Y-9821000D01*
X14727761Y-9763857D01*
X14742047Y-9735286D01*
X14756333Y-9721000D01*
X14784904Y-9706714D01*
X15013476Y-9978143D02*
X15027761Y-9992429D01*
X15013476Y-10006714D01*
X14999190Y-9992429D01*
X15013476Y-9978143D01*
X15013476Y-10006714D01*
X15213476Y-9706714D02*
X15242047Y-9706714D01*
X15270619Y-9721000D01*
X15284904Y-9735286D01*
X15299190Y-9763857D01*
X15313476Y-9821000D01*
X15313476Y-9892429D01*
X15299190Y-9949572D01*
X15284904Y-9978143D01*
X15270619Y-9992429D01*
X15242047Y-10006714D01*
X15213476Y-10006714D01*
X15184904Y-9992429D01*
X15170619Y-9978143D01*
X15156333Y-9949572D01*
X15142047Y-9892429D01*
X15142047Y-9821000D01*
X15156333Y-9763857D01*
X15170619Y-9735286D01*
X15184904Y-9721000D01*
X15213476Y-9706714D01*
X15413476Y-9706714D02*
X15599190Y-9706714D01*
X15499190Y-9821000D01*
X15542047Y-9821000D01*
X15570619Y-9835286D01*
X15584904Y-9849572D01*
X15599190Y-9878143D01*
X15599190Y-9949572D01*
X15584904Y-9978143D01*
X15570619Y-9992429D01*
X15542047Y-10006714D01*
X15456333Y-10006714D01*
X15427761Y-9992429D01*
X15413476Y-9978143D01*
X15742047Y-10006714D02*
X15799190Y-10006714D01*
X15827761Y-9992429D01*
X15842047Y-9978143D01*
X15870619Y-9935286D01*
X15884904Y-9878143D01*
X15884904Y-9763857D01*
X15870619Y-9735286D01*
X15856333Y-9721000D01*
X15827761Y-9706714D01*
X15770619Y-9706714D01*
X15742047Y-9721000D01*
X15727761Y-9735286D01*
X15713476Y-9763857D01*
X15713476Y-9835286D01*
X15727761Y-9863857D01*
X15742047Y-9878143D01*
X15770619Y-9892429D01*
X15827761Y-9892429D01*
X15856333Y-9878143D01*
X15870619Y-9863857D01*
X15884904Y-9835286D01*
X15999190Y-9706714D02*
X15999190Y-9763857D01*
X16113476Y-9706714D02*
X16113476Y-9763857D01*
X16556333Y-10121000D02*
X16542047Y-10106714D01*
X16513476Y-10063857D01*
X16499190Y-10035286D01*
X16484904Y-9992429D01*
X16470619Y-9921000D01*
X16470619Y-9863857D01*
X16484904Y-9792429D01*
X16499190Y-9749572D01*
X16513476Y-9721000D01*
X16542047Y-9678143D01*
X16556333Y-9663857D01*
X16827762Y-10006714D02*
X16656333Y-10006714D01*
X16742047Y-10006714D02*
X16742047Y-9706714D01*
X16713476Y-9749572D01*
X16684904Y-9778143D01*
X16656333Y-9792429D01*
X16942047Y-9735286D02*
X16956333Y-9721000D01*
X16984904Y-9706714D01*
X17056333Y-9706714D01*
X17084904Y-9721000D01*
X17099190Y-9735286D01*
X17113476Y-9763857D01*
X17113476Y-9792429D01*
X17099190Y-9835286D01*
X16927762Y-10006714D01*
X17113476Y-10006714D01*
X17470619Y-10006714D02*
X17470619Y-9706714D01*
X17599190Y-10006714D02*
X17599190Y-9849572D01*
X17584904Y-9821000D01*
X17556333Y-9806714D01*
X17513476Y-9806714D01*
X17484904Y-9821000D01*
X17470619Y-9835286D01*
X17784904Y-10006714D02*
X17756333Y-9992429D01*
X17742047Y-9978143D01*
X17727762Y-9949572D01*
X17727762Y-9863857D01*
X17742047Y-9835286D01*
X17756333Y-9821000D01*
X17784904Y-9806714D01*
X17827762Y-9806714D01*
X17856333Y-9821000D01*
X17870619Y-9835286D01*
X17884904Y-9863857D01*
X17884904Y-9949572D01*
X17870619Y-9978143D01*
X17856333Y-9992429D01*
X17827762Y-10006714D01*
X17784904Y-10006714D01*
X18056333Y-10006714D02*
X18027762Y-9992429D01*
X18013476Y-9963857D01*
X18013476Y-9706714D01*
X18284904Y-9992429D02*
X18256333Y-10006714D01*
X18199190Y-10006714D01*
X18170619Y-9992429D01*
X18156333Y-9963857D01*
X18156333Y-9849572D01*
X18170619Y-9821000D01*
X18199190Y-9806714D01*
X18256333Y-9806714D01*
X18284904Y-9821000D01*
X18299190Y-9849572D01*
X18299190Y-9878143D01*
X18156333Y-9906714D01*
X18413476Y-9992429D02*
X18442047Y-10006714D01*
X18499190Y-10006714D01*
X18527762Y-9992429D01*
X18542047Y-9963857D01*
X18542047Y-9949572D01*
X18527762Y-9921000D01*
X18499190Y-9906714D01*
X18456333Y-9906714D01*
X18427762Y-9892429D01*
X18413476Y-9863857D01*
X18413476Y-9849572D01*
X18427762Y-9821000D01*
X18456333Y-9806714D01*
X18499190Y-9806714D01*
X18527762Y-9821000D01*
X18642047Y-10121000D02*
X18656333Y-10106714D01*
X18684904Y-10063857D01*
X18699190Y-10035286D01*
X18713476Y-9992429D01*
X18727762Y-9921000D01*
X18727762Y-9863857D01*
X18713476Y-9792429D01*
X18699190Y-9749572D01*
X18684904Y-9721000D01*
X18656333Y-9678143D01*
X18642047Y-9663857D01*
M02*
