%TF.GenerationSoftware,KiCad,Pcbnew,5.1.8*%
%TF.CreationDate,2021-01-17T11:33:33-05:00*%
%TF.ProjectId,penroserombus_thin_40mm,70656e72-6f73-4657-926f-6d6275735f74,rev?*%
%TF.SameCoordinates,Original*%
%TF.FileFunction,Copper,L2,Bot*%
%TF.FilePolarity,Positive*%
%FSLAX46Y46*%
G04 Gerber Fmt 4.6, Leading zero omitted, Abs format (unit mm)*
G04 Created by KiCad (PCBNEW 5.1.8) date 2021-01-17 11:33:33*
%MOMM*%
%LPD*%
G01*
G04 APERTURE LIST*
%TA.AperFunction,ComponentPad*%
%ADD10C,0.100000*%
%TD*%
%TA.AperFunction,ComponentPad*%
%ADD11O,1.700000X1.700000*%
%TD*%
%TA.AperFunction,ComponentPad*%
%ADD12R,1.700000X1.700000*%
%TD*%
%TA.AperFunction,ViaPad*%
%ADD13C,0.800000*%
%TD*%
%TA.AperFunction,Conductor*%
%ADD14C,0.250000*%
%TD*%
%TA.AperFunction,Conductor*%
%ADD15C,0.254000*%
%TD*%
%TA.AperFunction,Conductor*%
%ADD16C,0.100000*%
%TD*%
G04 APERTURE END LIST*
%TA.AperFunction,ComponentPad*%
D10*
%TO.P,J3,1*%
%TO.N,GND*%
G36*
X135261566Y-75128791D02*
G01*
X136636895Y-74129556D01*
X137636130Y-75504885D01*
X136260801Y-76504120D01*
X135261566Y-75128791D01*
G37*
%TD.AperFunction*%
%TO.P,J3,2*%
%TO.N,VCC*%
%TA.AperFunction,ComponentPad*%
G36*
G01*
X133894328Y-76122149D02*
X133894328Y-76122149D01*
G75*
G02*
X135081609Y-76310196I499617J-687664D01*
G01*
X135081609Y-76310196D01*
G75*
G02*
X134893562Y-77497477I-687664J-499617D01*
G01*
X134893562Y-77497477D01*
G75*
G02*
X133706281Y-77309430I-499617J687664D01*
G01*
X133706281Y-77309430D01*
G75*
G02*
X133894328Y-76122149I687664J499617D01*
G01*
G37*
%TD.AperFunction*%
%TO.P,J3,3*%
%TO.N,Net-(D3-Pad4)*%
%TA.AperFunction,ComponentPad*%
G36*
G01*
X131839425Y-77615123D02*
X131839425Y-77615123D01*
G75*
G02*
X133026706Y-77803170I499617J-687664D01*
G01*
X133026706Y-77803170D01*
G75*
G02*
X132838659Y-78990451I-687664J-499617D01*
G01*
X132838659Y-78990451D01*
G75*
G02*
X131651378Y-78802404I-499617J687664D01*
G01*
X131651378Y-78802404D01*
G75*
G02*
X131839425Y-77615123I687664J499617D01*
G01*
G37*
%TD.AperFunction*%
%TD*%
D11*
%TO.P,J1,3*%
%TO.N,Net-(D1-Pad2)*%
X176239724Y-64038590D03*
%TO.P,J1,2*%
%TO.N,VCC*%
X173699724Y-64038590D03*
D12*
%TO.P,J1,1*%
%TO.N,GND*%
X171159724Y-64038590D03*
%TD*%
%TO.P,J2,1*%
%TO.N,GND*%
X138799045Y-82550000D03*
D11*
%TO.P,J2,2*%
%TO.N,VCC*%
X136259045Y-82550000D03*
%TO.P,J2,3*%
%TO.N,Net-(D2-Pad2)*%
X133719045Y-82550000D03*
%TD*%
%TO.P,J4,3*%
%TO.N,Net-(D4-Pad4)*%
%TA.AperFunction,ComponentPad*%
G36*
G01*
X178119344Y-68973468D02*
X178119344Y-68973468D01*
G75*
G02*
X176932063Y-68785421I-499617J687664D01*
G01*
X176932063Y-68785421D01*
G75*
G02*
X177120110Y-67598140I687664J499617D01*
G01*
X177120110Y-67598140D01*
G75*
G02*
X178307391Y-67786187I499617J-687664D01*
G01*
X178307391Y-67786187D01*
G75*
G02*
X178119344Y-68973468I-687664J-499617D01*
G01*
G37*
%TD.AperFunction*%
%TO.P,J4,2*%
%TO.N,VCC*%
%TA.AperFunction,ComponentPad*%
G36*
G01*
X176064441Y-70466442D02*
X176064441Y-70466442D01*
G75*
G02*
X174877160Y-70278395I-499617J687664D01*
G01*
X174877160Y-70278395D01*
G75*
G02*
X175065207Y-69091114I687664J499617D01*
G01*
X175065207Y-69091114D01*
G75*
G02*
X176252488Y-69279161I499617J-687664D01*
G01*
X176252488Y-69279161D01*
G75*
G02*
X176064441Y-70466442I-687664J-499617D01*
G01*
G37*
%TD.AperFunction*%
%TA.AperFunction,ComponentPad*%
D10*
%TO.P,J4,1*%
%TO.N,GND*%
G36*
X174697203Y-71459800D02*
G01*
X173321874Y-72459035D01*
X172322639Y-71083706D01*
X173697968Y-70084471D01*
X174697203Y-71459800D01*
G37*
%TD.AperFunction*%
%TD*%
D13*
%TO.N,GND*%
X187071000Y-62738000D03*
X122682000Y-83820000D03*
X148844000Y-73406000D03*
X164211000Y-76200000D03*
X162814000Y-64008000D03*
X166370000Y-65405000D03*
X168021000Y-75438000D03*
X143129000Y-81153000D03*
X147193000Y-82550000D03*
X141986000Y-71247000D03*
X145796000Y-70231000D03*
%TO.N,Net-(D3-Pad2)*%
X151755958Y-73371857D03*
X151892000Y-75819000D03*
%TO.N,Net-(D4-Pad2)*%
X153035000Y-72263000D03*
X156597861Y-74061355D03*
%TD*%
D14*
%TO.N,Net-(D3-Pad2)*%
X151755958Y-75682958D02*
X151892000Y-75819000D01*
X151755958Y-73371857D02*
X151755958Y-75682958D01*
%TO.N,Net-(D4-Pad2)*%
X154833355Y-74061355D02*
X156597861Y-74061355D01*
X153035000Y-72263000D02*
X154833355Y-74061355D01*
%TD*%
D15*
%TO.N,GND*%
X158560230Y-84315000D02*
X121061141Y-84315000D01*
X124020785Y-82164693D01*
X125483342Y-82164693D01*
X125483342Y-82496609D01*
X125548096Y-82822147D01*
X125675114Y-83128798D01*
X125859517Y-83404776D01*
X126094217Y-83639476D01*
X126370195Y-83823879D01*
X126676846Y-83950897D01*
X127002384Y-84015651D01*
X127334300Y-84015651D01*
X127659838Y-83950897D01*
X127966489Y-83823879D01*
X128242467Y-83639476D01*
X128477167Y-83404776D01*
X128661570Y-83128798D01*
X128788588Y-82822147D01*
X128853342Y-82496609D01*
X128853342Y-82403740D01*
X132234045Y-82403740D01*
X132234045Y-82696260D01*
X132291113Y-82983158D01*
X132403055Y-83253411D01*
X132565570Y-83496632D01*
X132772413Y-83703475D01*
X133015634Y-83865990D01*
X133285887Y-83977932D01*
X133572785Y-84035000D01*
X133865305Y-84035000D01*
X134152203Y-83977932D01*
X134422456Y-83865990D01*
X134665677Y-83703475D01*
X134872520Y-83496632D01*
X134989045Y-83322240D01*
X135105570Y-83496632D01*
X135312413Y-83703475D01*
X135555634Y-83865990D01*
X135825887Y-83977932D01*
X136112785Y-84035000D01*
X136405305Y-84035000D01*
X136692203Y-83977932D01*
X136962456Y-83865990D01*
X137205677Y-83703475D01*
X137337532Y-83571620D01*
X137359543Y-83644180D01*
X137418508Y-83754494D01*
X137497860Y-83851185D01*
X137594551Y-83930537D01*
X137704865Y-83989502D01*
X137824563Y-84025812D01*
X137949045Y-84038072D01*
X138513295Y-84035000D01*
X138672045Y-83876250D01*
X138672045Y-82677000D01*
X138926045Y-82677000D01*
X138926045Y-83876250D01*
X139084795Y-84035000D01*
X139649045Y-84038072D01*
X139773527Y-84025812D01*
X139893225Y-83989502D01*
X140003539Y-83930537D01*
X140100230Y-83851185D01*
X140179582Y-83754494D01*
X140238547Y-83644180D01*
X140274857Y-83524482D01*
X140287117Y-83400000D01*
X140284045Y-82835750D01*
X140125295Y-82677000D01*
X138926045Y-82677000D01*
X138672045Y-82677000D01*
X138652045Y-82677000D01*
X138652045Y-82423000D01*
X138672045Y-82423000D01*
X138672045Y-81223750D01*
X138926045Y-81223750D01*
X138926045Y-82423000D01*
X140125295Y-82423000D01*
X140284045Y-82264250D01*
X140286114Y-81884043D01*
X151917893Y-81884043D01*
X151917893Y-82215959D01*
X151982647Y-82541497D01*
X152109665Y-82848148D01*
X152294068Y-83124126D01*
X152528768Y-83358826D01*
X152804746Y-83543229D01*
X153111397Y-83670247D01*
X153436935Y-83735001D01*
X153768851Y-83735001D01*
X154094389Y-83670247D01*
X154401040Y-83543229D01*
X154677018Y-83358826D01*
X154911718Y-83124126D01*
X155096121Y-82848148D01*
X155223139Y-82541497D01*
X155287893Y-82215959D01*
X155287893Y-81884043D01*
X155223139Y-81558505D01*
X155096121Y-81251854D01*
X154911718Y-80975876D01*
X154682019Y-80746177D01*
X156229371Y-80746177D01*
X156229371Y-80984527D01*
X156275870Y-81218296D01*
X156367083Y-81438502D01*
X156499502Y-81636682D01*
X156668041Y-81805221D01*
X156866221Y-81937640D01*
X157086427Y-82028853D01*
X157320196Y-82075352D01*
X157558546Y-82075352D01*
X157792315Y-82028853D01*
X158012521Y-81937640D01*
X158210701Y-81805221D01*
X158379240Y-81636682D01*
X158511659Y-81438502D01*
X158602872Y-81218296D01*
X158649371Y-80984527D01*
X158649371Y-80746177D01*
X158602872Y-80512408D01*
X158511659Y-80292202D01*
X158379240Y-80094022D01*
X158210701Y-79925483D01*
X158012521Y-79793064D01*
X157792315Y-79701851D01*
X157558546Y-79655352D01*
X157320196Y-79655352D01*
X157086427Y-79701851D01*
X156866221Y-79793064D01*
X156668041Y-79925483D01*
X156499502Y-80094022D01*
X156367083Y-80292202D01*
X156275870Y-80512408D01*
X156229371Y-80746177D01*
X154682019Y-80746177D01*
X154677018Y-80741176D01*
X154401040Y-80556773D01*
X154094389Y-80429755D01*
X153768851Y-80365001D01*
X153436935Y-80365001D01*
X153111397Y-80429755D01*
X152804746Y-80556773D01*
X152528768Y-80741176D01*
X152294068Y-80975876D01*
X152109665Y-81251854D01*
X151982647Y-81558505D01*
X151917893Y-81884043D01*
X140286114Y-81884043D01*
X140287117Y-81700000D01*
X140274857Y-81575518D01*
X140238547Y-81455820D01*
X140179582Y-81345506D01*
X140100230Y-81248815D01*
X140003539Y-81169463D01*
X139893225Y-81110498D01*
X139773527Y-81074188D01*
X139649045Y-81061928D01*
X139084795Y-81065000D01*
X138926045Y-81223750D01*
X138672045Y-81223750D01*
X138513295Y-81065000D01*
X137949045Y-81061928D01*
X137824563Y-81074188D01*
X137704865Y-81110498D01*
X137594551Y-81169463D01*
X137497860Y-81248815D01*
X137418508Y-81345506D01*
X137359543Y-81455820D01*
X137337532Y-81528380D01*
X137205677Y-81396525D01*
X136962456Y-81234010D01*
X136692203Y-81122068D01*
X136405305Y-81065000D01*
X136112785Y-81065000D01*
X135825887Y-81122068D01*
X135555634Y-81234010D01*
X135312413Y-81396525D01*
X135105570Y-81603368D01*
X134989045Y-81777760D01*
X134872520Y-81603368D01*
X134665677Y-81396525D01*
X134422456Y-81234010D01*
X134152203Y-81122068D01*
X133865305Y-81065000D01*
X133572785Y-81065000D01*
X133285887Y-81122068D01*
X133015634Y-81234010D01*
X132772413Y-81396525D01*
X132565570Y-81603368D01*
X132403055Y-81846589D01*
X132291113Y-82116842D01*
X132234045Y-82403740D01*
X128853342Y-82403740D01*
X128853342Y-82164693D01*
X128788588Y-81839155D01*
X128661570Y-81532504D01*
X128477167Y-81256526D01*
X128242467Y-81021826D01*
X127966489Y-80837423D01*
X127659838Y-80710405D01*
X127334300Y-80645651D01*
X127002384Y-80645651D01*
X126676846Y-80710405D01*
X126370195Y-80837423D01*
X126094217Y-81021826D01*
X125859517Y-81256526D01*
X125675114Y-81532504D01*
X125548096Y-81839155D01*
X125483342Y-82164693D01*
X124020785Y-82164693D01*
X129537552Y-78156527D01*
X130854042Y-78156527D01*
X130854042Y-78449047D01*
X130911110Y-78735945D01*
X131023052Y-79006198D01*
X131185567Y-79249419D01*
X131392410Y-79456262D01*
X131635631Y-79618777D01*
X131905884Y-79730719D01*
X132192782Y-79787787D01*
X132485302Y-79787787D01*
X132772200Y-79730719D01*
X133042453Y-79618777D01*
X133285674Y-79456262D01*
X133492517Y-79249419D01*
X133655032Y-79006198D01*
X133766974Y-78735945D01*
X133824042Y-78449047D01*
X133824042Y-78181104D01*
X133960787Y-78237745D01*
X134247685Y-78294813D01*
X134540205Y-78294813D01*
X134827103Y-78237745D01*
X135097356Y-78125803D01*
X135340577Y-77963288D01*
X135547420Y-77756445D01*
X135709935Y-77513224D01*
X135821877Y-77242971D01*
X135869366Y-77004229D01*
X135927409Y-77048166D01*
X136039954Y-77102753D01*
X136160985Y-77134336D01*
X136285851Y-77141700D01*
X136409756Y-77124562D01*
X136527936Y-77083581D01*
X136635850Y-77020331D01*
X137090532Y-76686188D01*
X137125653Y-76464446D01*
X136420752Y-75494232D01*
X136404571Y-75505988D01*
X136287560Y-75344934D01*
X136626242Y-75344934D01*
X137331143Y-76315148D01*
X137552886Y-76350269D01*
X138011179Y-76021096D01*
X138104681Y-75938009D01*
X138180176Y-75838277D01*
X138234763Y-75725732D01*
X138266346Y-75604701D01*
X138273710Y-75479835D01*
X138256572Y-75355930D01*
X138215591Y-75237750D01*
X138152341Y-75129836D01*
X137818198Y-74675154D01*
X137596456Y-74640033D01*
X136626242Y-75344934D01*
X136287560Y-75344934D01*
X136255274Y-75300497D01*
X136271454Y-75288742D01*
X135566553Y-74318528D01*
X135344810Y-74283407D01*
X134886517Y-74612580D01*
X134793015Y-74695667D01*
X134717520Y-74795399D01*
X134662933Y-74907944D01*
X134631350Y-75028975D01*
X134623986Y-75153841D01*
X134641124Y-75277746D01*
X134666131Y-75349861D01*
X134540205Y-75324813D01*
X134247685Y-75324813D01*
X133960787Y-75381881D01*
X133690534Y-75493823D01*
X133447313Y-75656338D01*
X133240470Y-75863181D01*
X133077955Y-76106402D01*
X132966013Y-76376655D01*
X132908945Y-76663553D01*
X132908945Y-76931496D01*
X132772200Y-76874855D01*
X132485302Y-76817787D01*
X132192782Y-76817787D01*
X131905884Y-76874855D01*
X131635631Y-76986797D01*
X131392410Y-77149312D01*
X131185567Y-77356155D01*
X131023052Y-77599376D01*
X130911110Y-77869629D01*
X130854042Y-78156527D01*
X129537552Y-78156527D01*
X135025596Y-74169230D01*
X135772043Y-74169230D01*
X136476944Y-75139444D01*
X137447158Y-74434543D01*
X137482279Y-74212800D01*
X137153106Y-73754507D01*
X137070019Y-73661005D01*
X136970287Y-73585510D01*
X136857742Y-73530923D01*
X136736711Y-73499340D01*
X136611845Y-73491976D01*
X136487940Y-73509114D01*
X136369760Y-73550095D01*
X136261846Y-73613345D01*
X135807164Y-73947488D01*
X135772043Y-74169230D01*
X135025596Y-74169230D01*
X136263393Y-73269918D01*
X150720958Y-73269918D01*
X150720958Y-73473796D01*
X150760732Y-73673755D01*
X150838753Y-73862113D01*
X150952021Y-74031631D01*
X150995958Y-74075568D01*
X150995959Y-75297070D01*
X150974795Y-75328744D01*
X150896774Y-75517102D01*
X150857000Y-75717061D01*
X150857000Y-75920939D01*
X150896774Y-76120898D01*
X150974795Y-76309256D01*
X151088063Y-76478774D01*
X151232226Y-76622937D01*
X151401744Y-76736205D01*
X151590102Y-76814226D01*
X151790061Y-76854000D01*
X151993939Y-76854000D01*
X152193898Y-76814226D01*
X152382256Y-76736205D01*
X152551774Y-76622937D01*
X152695937Y-76478774D01*
X152809205Y-76309256D01*
X152887226Y-76120898D01*
X152927000Y-75920939D01*
X152927000Y-75717061D01*
X152887226Y-75517102D01*
X152809205Y-75328744D01*
X152695937Y-75159226D01*
X152551774Y-75015063D01*
X152515958Y-74991132D01*
X152515958Y-74075568D01*
X152559895Y-74031631D01*
X152673163Y-73862113D01*
X152751184Y-73673755D01*
X152790958Y-73473796D01*
X152790958Y-73269918D01*
X152790920Y-73269727D01*
X152933061Y-73298000D01*
X152995199Y-73298000D01*
X154269556Y-74572358D01*
X154293354Y-74601356D01*
X154322352Y-74625154D01*
X154409078Y-74696329D01*
X154541108Y-74766901D01*
X154684369Y-74810358D01*
X154796022Y-74821355D01*
X154796031Y-74821355D01*
X154833354Y-74825031D01*
X154870677Y-74821355D01*
X155894150Y-74821355D01*
X155938087Y-74865292D01*
X156107605Y-74978560D01*
X156295963Y-75056581D01*
X156495922Y-75096355D01*
X156699800Y-75096355D01*
X156899759Y-75056581D01*
X157088117Y-74978560D01*
X157257635Y-74865292D01*
X157401798Y-74721129D01*
X157515066Y-74551611D01*
X157593087Y-74363253D01*
X157632861Y-74163294D01*
X157632861Y-73959416D01*
X157593087Y-73759457D01*
X157515066Y-73571099D01*
X157401798Y-73401581D01*
X157257635Y-73257418D01*
X157088117Y-73144150D01*
X156899759Y-73066129D01*
X156699800Y-73026355D01*
X156495922Y-73026355D01*
X156295963Y-73066129D01*
X156107605Y-73144150D01*
X155938087Y-73257418D01*
X155894150Y-73301355D01*
X155148157Y-73301355D01*
X154222593Y-72375791D01*
X172476490Y-72375791D01*
X172805663Y-72834084D01*
X172888750Y-72927586D01*
X172988482Y-73003081D01*
X173101027Y-73057668D01*
X173222058Y-73089251D01*
X173346924Y-73096615D01*
X173470829Y-73079477D01*
X173589009Y-73038496D01*
X173696923Y-72975246D01*
X174151605Y-72641103D01*
X174186726Y-72419361D01*
X173481825Y-71449147D01*
X172511611Y-72154048D01*
X172476490Y-72375791D01*
X154222593Y-72375791D01*
X154070000Y-72223199D01*
X154070000Y-72161061D01*
X154030226Y-71961102D01*
X153952205Y-71772744D01*
X153838937Y-71603226D01*
X153694774Y-71459063D01*
X153525256Y-71345795D01*
X153336898Y-71267774D01*
X153136939Y-71228000D01*
X152933061Y-71228000D01*
X152733102Y-71267774D01*
X152544744Y-71345795D01*
X152375226Y-71459063D01*
X152231063Y-71603226D01*
X152117795Y-71772744D01*
X152039774Y-71961102D01*
X152000000Y-72161061D01*
X152000000Y-72364939D01*
X152000038Y-72365130D01*
X151857897Y-72336857D01*
X151654019Y-72336857D01*
X151454060Y-72376631D01*
X151265702Y-72454652D01*
X151096184Y-72567920D01*
X150952021Y-72712083D01*
X150838753Y-72881601D01*
X150760732Y-73069959D01*
X150720958Y-73269918D01*
X136263393Y-73269918D01*
X139237977Y-71108756D01*
X171685059Y-71108756D01*
X171702197Y-71232661D01*
X171743178Y-71350841D01*
X171806428Y-71458755D01*
X172140571Y-71913437D01*
X172362313Y-71948558D01*
X173332527Y-71243657D01*
X172627626Y-70273443D01*
X172405883Y-70238322D01*
X171947590Y-70567495D01*
X171854088Y-70650582D01*
X171778593Y-70750314D01*
X171724006Y-70862859D01*
X171692423Y-70983890D01*
X171685059Y-71108756D01*
X139237977Y-71108756D01*
X140593178Y-70124145D01*
X172833116Y-70124145D01*
X173538017Y-71094359D01*
X173554198Y-71082603D01*
X173703495Y-71288094D01*
X173687315Y-71299849D01*
X174392216Y-72270063D01*
X174613959Y-72305184D01*
X175072252Y-71976011D01*
X175165754Y-71892924D01*
X175241249Y-71793192D01*
X175295836Y-71680647D01*
X175327419Y-71559616D01*
X175334783Y-71434750D01*
X175317645Y-71310845D01*
X175292638Y-71238730D01*
X175418564Y-71263778D01*
X175711084Y-71263778D01*
X175997982Y-71206710D01*
X176268235Y-71094768D01*
X176511456Y-70932253D01*
X176718299Y-70725410D01*
X176880814Y-70482189D01*
X176992756Y-70211936D01*
X177049824Y-69925038D01*
X177049824Y-69657095D01*
X177186569Y-69713736D01*
X177473467Y-69770804D01*
X177765987Y-69770804D01*
X178052885Y-69713736D01*
X178323138Y-69601794D01*
X178566359Y-69439279D01*
X178773202Y-69232436D01*
X178935717Y-68989215D01*
X179047659Y-68718962D01*
X179104727Y-68432064D01*
X179104727Y-68139544D01*
X179047659Y-67852646D01*
X178935717Y-67582393D01*
X178773202Y-67339172D01*
X178566359Y-67132329D01*
X178323138Y-66969814D01*
X178052885Y-66857872D01*
X177765987Y-66800804D01*
X177473467Y-66800804D01*
X177186569Y-66857872D01*
X176916316Y-66969814D01*
X176673095Y-67132329D01*
X176466252Y-67339172D01*
X176303737Y-67582393D01*
X176191795Y-67852646D01*
X176134727Y-68139544D01*
X176134727Y-68407487D01*
X175997982Y-68350846D01*
X175711084Y-68293778D01*
X175418564Y-68293778D01*
X175131666Y-68350846D01*
X174861413Y-68462788D01*
X174618192Y-68625303D01*
X174411349Y-68832146D01*
X174248834Y-69075367D01*
X174136892Y-69345620D01*
X174089403Y-69584362D01*
X174031360Y-69540425D01*
X173918815Y-69485838D01*
X173797784Y-69454255D01*
X173672918Y-69446891D01*
X173549013Y-69464029D01*
X173430833Y-69505010D01*
X173322919Y-69568260D01*
X172868237Y-69902403D01*
X172833116Y-70124145D01*
X140593178Y-70124145D01*
X146814538Y-65604064D01*
X151309399Y-65604064D01*
X151309399Y-65842414D01*
X151355898Y-66076183D01*
X151447111Y-66296389D01*
X151579530Y-66494569D01*
X151748069Y-66663108D01*
X151946249Y-66795527D01*
X152166455Y-66886740D01*
X152400224Y-66933239D01*
X152638574Y-66933239D01*
X152872343Y-66886740D01*
X153092549Y-66795527D01*
X153290729Y-66663108D01*
X153459268Y-66494569D01*
X153591687Y-66296389D01*
X153682900Y-66076183D01*
X153729399Y-65842414D01*
X153729399Y-65604064D01*
X153682900Y-65370295D01*
X153591687Y-65150089D01*
X153459268Y-64951909D01*
X153290729Y-64783370D01*
X153092549Y-64650951D01*
X152872343Y-64559738D01*
X152638574Y-64513239D01*
X152400224Y-64513239D01*
X152166455Y-64559738D01*
X151946249Y-64650951D01*
X151748069Y-64783370D01*
X151579530Y-64951909D01*
X151447111Y-65150089D01*
X151355898Y-65370295D01*
X151309399Y-65604064D01*
X146814538Y-65604064D01*
X148509459Y-64372632D01*
X154670877Y-64372632D01*
X154670877Y-64704548D01*
X154735631Y-65030086D01*
X154862649Y-65336737D01*
X155047052Y-65612715D01*
X155281752Y-65847415D01*
X155557730Y-66031818D01*
X155864381Y-66158836D01*
X156189919Y-66223590D01*
X156521835Y-66223590D01*
X156847373Y-66158836D01*
X157154024Y-66031818D01*
X157430002Y-65847415D01*
X157664702Y-65612715D01*
X157849105Y-65336737D01*
X157976123Y-65030086D01*
X158004268Y-64888590D01*
X169671652Y-64888590D01*
X169683912Y-65013072D01*
X169720222Y-65132770D01*
X169779187Y-65243084D01*
X169858539Y-65339775D01*
X169955230Y-65419127D01*
X170065544Y-65478092D01*
X170185242Y-65514402D01*
X170309724Y-65526662D01*
X170873974Y-65523590D01*
X171032724Y-65364840D01*
X171032724Y-64165590D01*
X169833474Y-64165590D01*
X169674724Y-64324340D01*
X169671652Y-64888590D01*
X158004268Y-64888590D01*
X158040877Y-64704548D01*
X158040877Y-64372632D01*
X157976123Y-64047094D01*
X157849105Y-63740443D01*
X157664702Y-63464465D01*
X157430002Y-63229765D01*
X157368380Y-63188590D01*
X169671652Y-63188590D01*
X169674724Y-63752840D01*
X169833474Y-63911590D01*
X171032724Y-63911590D01*
X171032724Y-62712340D01*
X171286724Y-62712340D01*
X171286724Y-63911590D01*
X171306724Y-63911590D01*
X171306724Y-64165590D01*
X171286724Y-64165590D01*
X171286724Y-65364840D01*
X171445474Y-65523590D01*
X172009724Y-65526662D01*
X172134206Y-65514402D01*
X172253904Y-65478092D01*
X172364218Y-65419127D01*
X172460909Y-65339775D01*
X172540261Y-65243084D01*
X172599226Y-65132770D01*
X172621237Y-65060210D01*
X172753092Y-65192065D01*
X172996313Y-65354580D01*
X173266566Y-65466522D01*
X173553464Y-65523590D01*
X173845984Y-65523590D01*
X174132882Y-65466522D01*
X174403135Y-65354580D01*
X174646356Y-65192065D01*
X174853199Y-64985222D01*
X174969724Y-64810830D01*
X175086249Y-64985222D01*
X175293092Y-65192065D01*
X175536313Y-65354580D01*
X175806566Y-65466522D01*
X176093464Y-65523590D01*
X176385984Y-65523590D01*
X176672882Y-65466522D01*
X176943135Y-65354580D01*
X177186356Y-65192065D01*
X177393199Y-64985222D01*
X177555714Y-64742001D01*
X177667656Y-64471748D01*
X177724724Y-64184850D01*
X177724724Y-64091982D01*
X181105427Y-64091982D01*
X181105427Y-64423898D01*
X181170181Y-64749436D01*
X181297199Y-65056087D01*
X181481602Y-65332065D01*
X181716302Y-65566765D01*
X181992280Y-65751168D01*
X182298931Y-65878186D01*
X182624469Y-65942940D01*
X182956385Y-65942940D01*
X183281923Y-65878186D01*
X183588574Y-65751168D01*
X183864552Y-65566765D01*
X184099252Y-65332065D01*
X184283655Y-65056087D01*
X184410673Y-64749436D01*
X184475427Y-64423898D01*
X184475427Y-64091982D01*
X184410673Y-63766444D01*
X184283655Y-63459793D01*
X184099252Y-63183815D01*
X183864552Y-62949115D01*
X183588574Y-62764712D01*
X183281923Y-62637694D01*
X182956385Y-62572940D01*
X182624469Y-62572940D01*
X182298931Y-62637694D01*
X181992280Y-62764712D01*
X181716302Y-62949115D01*
X181481602Y-63183815D01*
X181297199Y-63459793D01*
X181170181Y-63766444D01*
X181105427Y-64091982D01*
X177724724Y-64091982D01*
X177724724Y-63892330D01*
X177667656Y-63605432D01*
X177555714Y-63335179D01*
X177393199Y-63091958D01*
X177186356Y-62885115D01*
X176943135Y-62722600D01*
X176672882Y-62610658D01*
X176385984Y-62553590D01*
X176093464Y-62553590D01*
X175806566Y-62610658D01*
X175536313Y-62722600D01*
X175293092Y-62885115D01*
X175086249Y-63091958D01*
X174969724Y-63266350D01*
X174853199Y-63091958D01*
X174646356Y-62885115D01*
X174403135Y-62722600D01*
X174132882Y-62610658D01*
X173845984Y-62553590D01*
X173553464Y-62553590D01*
X173266566Y-62610658D01*
X172996313Y-62722600D01*
X172753092Y-62885115D01*
X172621237Y-63016970D01*
X172599226Y-62944410D01*
X172540261Y-62834096D01*
X172460909Y-62737405D01*
X172364218Y-62658053D01*
X172253904Y-62599088D01*
X172134206Y-62562778D01*
X172009724Y-62550518D01*
X171445474Y-62553590D01*
X171286724Y-62712340D01*
X171032724Y-62712340D01*
X170873974Y-62553590D01*
X170309724Y-62550518D01*
X170185242Y-62562778D01*
X170065544Y-62599088D01*
X169955230Y-62658053D01*
X169858539Y-62737405D01*
X169779187Y-62834096D01*
X169720222Y-62944410D01*
X169683912Y-63064108D01*
X169671652Y-63188590D01*
X157368380Y-63188590D01*
X157154024Y-63045362D01*
X156847373Y-62918344D01*
X156521835Y-62853590D01*
X156189919Y-62853590D01*
X155864381Y-62918344D01*
X155557730Y-63045362D01*
X155281752Y-63229765D01*
X155047052Y-63464465D01*
X154862649Y-63740443D01*
X154735631Y-64047094D01*
X154670877Y-64372632D01*
X148509459Y-64372632D01*
X151398542Y-62273591D01*
X188897627Y-62273591D01*
X158560230Y-84315000D01*
%TA.AperFunction,Conductor*%
D16*
G36*
X158560230Y-84315000D02*
G01*
X121061141Y-84315000D01*
X124020785Y-82164693D01*
X125483342Y-82164693D01*
X125483342Y-82496609D01*
X125548096Y-82822147D01*
X125675114Y-83128798D01*
X125859517Y-83404776D01*
X126094217Y-83639476D01*
X126370195Y-83823879D01*
X126676846Y-83950897D01*
X127002384Y-84015651D01*
X127334300Y-84015651D01*
X127659838Y-83950897D01*
X127966489Y-83823879D01*
X128242467Y-83639476D01*
X128477167Y-83404776D01*
X128661570Y-83128798D01*
X128788588Y-82822147D01*
X128853342Y-82496609D01*
X128853342Y-82403740D01*
X132234045Y-82403740D01*
X132234045Y-82696260D01*
X132291113Y-82983158D01*
X132403055Y-83253411D01*
X132565570Y-83496632D01*
X132772413Y-83703475D01*
X133015634Y-83865990D01*
X133285887Y-83977932D01*
X133572785Y-84035000D01*
X133865305Y-84035000D01*
X134152203Y-83977932D01*
X134422456Y-83865990D01*
X134665677Y-83703475D01*
X134872520Y-83496632D01*
X134989045Y-83322240D01*
X135105570Y-83496632D01*
X135312413Y-83703475D01*
X135555634Y-83865990D01*
X135825887Y-83977932D01*
X136112785Y-84035000D01*
X136405305Y-84035000D01*
X136692203Y-83977932D01*
X136962456Y-83865990D01*
X137205677Y-83703475D01*
X137337532Y-83571620D01*
X137359543Y-83644180D01*
X137418508Y-83754494D01*
X137497860Y-83851185D01*
X137594551Y-83930537D01*
X137704865Y-83989502D01*
X137824563Y-84025812D01*
X137949045Y-84038072D01*
X138513295Y-84035000D01*
X138672045Y-83876250D01*
X138672045Y-82677000D01*
X138926045Y-82677000D01*
X138926045Y-83876250D01*
X139084795Y-84035000D01*
X139649045Y-84038072D01*
X139773527Y-84025812D01*
X139893225Y-83989502D01*
X140003539Y-83930537D01*
X140100230Y-83851185D01*
X140179582Y-83754494D01*
X140238547Y-83644180D01*
X140274857Y-83524482D01*
X140287117Y-83400000D01*
X140284045Y-82835750D01*
X140125295Y-82677000D01*
X138926045Y-82677000D01*
X138672045Y-82677000D01*
X138652045Y-82677000D01*
X138652045Y-82423000D01*
X138672045Y-82423000D01*
X138672045Y-81223750D01*
X138926045Y-81223750D01*
X138926045Y-82423000D01*
X140125295Y-82423000D01*
X140284045Y-82264250D01*
X140286114Y-81884043D01*
X151917893Y-81884043D01*
X151917893Y-82215959D01*
X151982647Y-82541497D01*
X152109665Y-82848148D01*
X152294068Y-83124126D01*
X152528768Y-83358826D01*
X152804746Y-83543229D01*
X153111397Y-83670247D01*
X153436935Y-83735001D01*
X153768851Y-83735001D01*
X154094389Y-83670247D01*
X154401040Y-83543229D01*
X154677018Y-83358826D01*
X154911718Y-83124126D01*
X155096121Y-82848148D01*
X155223139Y-82541497D01*
X155287893Y-82215959D01*
X155287893Y-81884043D01*
X155223139Y-81558505D01*
X155096121Y-81251854D01*
X154911718Y-80975876D01*
X154682019Y-80746177D01*
X156229371Y-80746177D01*
X156229371Y-80984527D01*
X156275870Y-81218296D01*
X156367083Y-81438502D01*
X156499502Y-81636682D01*
X156668041Y-81805221D01*
X156866221Y-81937640D01*
X157086427Y-82028853D01*
X157320196Y-82075352D01*
X157558546Y-82075352D01*
X157792315Y-82028853D01*
X158012521Y-81937640D01*
X158210701Y-81805221D01*
X158379240Y-81636682D01*
X158511659Y-81438502D01*
X158602872Y-81218296D01*
X158649371Y-80984527D01*
X158649371Y-80746177D01*
X158602872Y-80512408D01*
X158511659Y-80292202D01*
X158379240Y-80094022D01*
X158210701Y-79925483D01*
X158012521Y-79793064D01*
X157792315Y-79701851D01*
X157558546Y-79655352D01*
X157320196Y-79655352D01*
X157086427Y-79701851D01*
X156866221Y-79793064D01*
X156668041Y-79925483D01*
X156499502Y-80094022D01*
X156367083Y-80292202D01*
X156275870Y-80512408D01*
X156229371Y-80746177D01*
X154682019Y-80746177D01*
X154677018Y-80741176D01*
X154401040Y-80556773D01*
X154094389Y-80429755D01*
X153768851Y-80365001D01*
X153436935Y-80365001D01*
X153111397Y-80429755D01*
X152804746Y-80556773D01*
X152528768Y-80741176D01*
X152294068Y-80975876D01*
X152109665Y-81251854D01*
X151982647Y-81558505D01*
X151917893Y-81884043D01*
X140286114Y-81884043D01*
X140287117Y-81700000D01*
X140274857Y-81575518D01*
X140238547Y-81455820D01*
X140179582Y-81345506D01*
X140100230Y-81248815D01*
X140003539Y-81169463D01*
X139893225Y-81110498D01*
X139773527Y-81074188D01*
X139649045Y-81061928D01*
X139084795Y-81065000D01*
X138926045Y-81223750D01*
X138672045Y-81223750D01*
X138513295Y-81065000D01*
X137949045Y-81061928D01*
X137824563Y-81074188D01*
X137704865Y-81110498D01*
X137594551Y-81169463D01*
X137497860Y-81248815D01*
X137418508Y-81345506D01*
X137359543Y-81455820D01*
X137337532Y-81528380D01*
X137205677Y-81396525D01*
X136962456Y-81234010D01*
X136692203Y-81122068D01*
X136405305Y-81065000D01*
X136112785Y-81065000D01*
X135825887Y-81122068D01*
X135555634Y-81234010D01*
X135312413Y-81396525D01*
X135105570Y-81603368D01*
X134989045Y-81777760D01*
X134872520Y-81603368D01*
X134665677Y-81396525D01*
X134422456Y-81234010D01*
X134152203Y-81122068D01*
X133865305Y-81065000D01*
X133572785Y-81065000D01*
X133285887Y-81122068D01*
X133015634Y-81234010D01*
X132772413Y-81396525D01*
X132565570Y-81603368D01*
X132403055Y-81846589D01*
X132291113Y-82116842D01*
X132234045Y-82403740D01*
X128853342Y-82403740D01*
X128853342Y-82164693D01*
X128788588Y-81839155D01*
X128661570Y-81532504D01*
X128477167Y-81256526D01*
X128242467Y-81021826D01*
X127966489Y-80837423D01*
X127659838Y-80710405D01*
X127334300Y-80645651D01*
X127002384Y-80645651D01*
X126676846Y-80710405D01*
X126370195Y-80837423D01*
X126094217Y-81021826D01*
X125859517Y-81256526D01*
X125675114Y-81532504D01*
X125548096Y-81839155D01*
X125483342Y-82164693D01*
X124020785Y-82164693D01*
X129537552Y-78156527D01*
X130854042Y-78156527D01*
X130854042Y-78449047D01*
X130911110Y-78735945D01*
X131023052Y-79006198D01*
X131185567Y-79249419D01*
X131392410Y-79456262D01*
X131635631Y-79618777D01*
X131905884Y-79730719D01*
X132192782Y-79787787D01*
X132485302Y-79787787D01*
X132772200Y-79730719D01*
X133042453Y-79618777D01*
X133285674Y-79456262D01*
X133492517Y-79249419D01*
X133655032Y-79006198D01*
X133766974Y-78735945D01*
X133824042Y-78449047D01*
X133824042Y-78181104D01*
X133960787Y-78237745D01*
X134247685Y-78294813D01*
X134540205Y-78294813D01*
X134827103Y-78237745D01*
X135097356Y-78125803D01*
X135340577Y-77963288D01*
X135547420Y-77756445D01*
X135709935Y-77513224D01*
X135821877Y-77242971D01*
X135869366Y-77004229D01*
X135927409Y-77048166D01*
X136039954Y-77102753D01*
X136160985Y-77134336D01*
X136285851Y-77141700D01*
X136409756Y-77124562D01*
X136527936Y-77083581D01*
X136635850Y-77020331D01*
X137090532Y-76686188D01*
X137125653Y-76464446D01*
X136420752Y-75494232D01*
X136404571Y-75505988D01*
X136287560Y-75344934D01*
X136626242Y-75344934D01*
X137331143Y-76315148D01*
X137552886Y-76350269D01*
X138011179Y-76021096D01*
X138104681Y-75938009D01*
X138180176Y-75838277D01*
X138234763Y-75725732D01*
X138266346Y-75604701D01*
X138273710Y-75479835D01*
X138256572Y-75355930D01*
X138215591Y-75237750D01*
X138152341Y-75129836D01*
X137818198Y-74675154D01*
X137596456Y-74640033D01*
X136626242Y-75344934D01*
X136287560Y-75344934D01*
X136255274Y-75300497D01*
X136271454Y-75288742D01*
X135566553Y-74318528D01*
X135344810Y-74283407D01*
X134886517Y-74612580D01*
X134793015Y-74695667D01*
X134717520Y-74795399D01*
X134662933Y-74907944D01*
X134631350Y-75028975D01*
X134623986Y-75153841D01*
X134641124Y-75277746D01*
X134666131Y-75349861D01*
X134540205Y-75324813D01*
X134247685Y-75324813D01*
X133960787Y-75381881D01*
X133690534Y-75493823D01*
X133447313Y-75656338D01*
X133240470Y-75863181D01*
X133077955Y-76106402D01*
X132966013Y-76376655D01*
X132908945Y-76663553D01*
X132908945Y-76931496D01*
X132772200Y-76874855D01*
X132485302Y-76817787D01*
X132192782Y-76817787D01*
X131905884Y-76874855D01*
X131635631Y-76986797D01*
X131392410Y-77149312D01*
X131185567Y-77356155D01*
X131023052Y-77599376D01*
X130911110Y-77869629D01*
X130854042Y-78156527D01*
X129537552Y-78156527D01*
X135025596Y-74169230D01*
X135772043Y-74169230D01*
X136476944Y-75139444D01*
X137447158Y-74434543D01*
X137482279Y-74212800D01*
X137153106Y-73754507D01*
X137070019Y-73661005D01*
X136970287Y-73585510D01*
X136857742Y-73530923D01*
X136736711Y-73499340D01*
X136611845Y-73491976D01*
X136487940Y-73509114D01*
X136369760Y-73550095D01*
X136261846Y-73613345D01*
X135807164Y-73947488D01*
X135772043Y-74169230D01*
X135025596Y-74169230D01*
X136263393Y-73269918D01*
X150720958Y-73269918D01*
X150720958Y-73473796D01*
X150760732Y-73673755D01*
X150838753Y-73862113D01*
X150952021Y-74031631D01*
X150995958Y-74075568D01*
X150995959Y-75297070D01*
X150974795Y-75328744D01*
X150896774Y-75517102D01*
X150857000Y-75717061D01*
X150857000Y-75920939D01*
X150896774Y-76120898D01*
X150974795Y-76309256D01*
X151088063Y-76478774D01*
X151232226Y-76622937D01*
X151401744Y-76736205D01*
X151590102Y-76814226D01*
X151790061Y-76854000D01*
X151993939Y-76854000D01*
X152193898Y-76814226D01*
X152382256Y-76736205D01*
X152551774Y-76622937D01*
X152695937Y-76478774D01*
X152809205Y-76309256D01*
X152887226Y-76120898D01*
X152927000Y-75920939D01*
X152927000Y-75717061D01*
X152887226Y-75517102D01*
X152809205Y-75328744D01*
X152695937Y-75159226D01*
X152551774Y-75015063D01*
X152515958Y-74991132D01*
X152515958Y-74075568D01*
X152559895Y-74031631D01*
X152673163Y-73862113D01*
X152751184Y-73673755D01*
X152790958Y-73473796D01*
X152790958Y-73269918D01*
X152790920Y-73269727D01*
X152933061Y-73298000D01*
X152995199Y-73298000D01*
X154269556Y-74572358D01*
X154293354Y-74601356D01*
X154322352Y-74625154D01*
X154409078Y-74696329D01*
X154541108Y-74766901D01*
X154684369Y-74810358D01*
X154796022Y-74821355D01*
X154796031Y-74821355D01*
X154833354Y-74825031D01*
X154870677Y-74821355D01*
X155894150Y-74821355D01*
X155938087Y-74865292D01*
X156107605Y-74978560D01*
X156295963Y-75056581D01*
X156495922Y-75096355D01*
X156699800Y-75096355D01*
X156899759Y-75056581D01*
X157088117Y-74978560D01*
X157257635Y-74865292D01*
X157401798Y-74721129D01*
X157515066Y-74551611D01*
X157593087Y-74363253D01*
X157632861Y-74163294D01*
X157632861Y-73959416D01*
X157593087Y-73759457D01*
X157515066Y-73571099D01*
X157401798Y-73401581D01*
X157257635Y-73257418D01*
X157088117Y-73144150D01*
X156899759Y-73066129D01*
X156699800Y-73026355D01*
X156495922Y-73026355D01*
X156295963Y-73066129D01*
X156107605Y-73144150D01*
X155938087Y-73257418D01*
X155894150Y-73301355D01*
X155148157Y-73301355D01*
X154222593Y-72375791D01*
X172476490Y-72375791D01*
X172805663Y-72834084D01*
X172888750Y-72927586D01*
X172988482Y-73003081D01*
X173101027Y-73057668D01*
X173222058Y-73089251D01*
X173346924Y-73096615D01*
X173470829Y-73079477D01*
X173589009Y-73038496D01*
X173696923Y-72975246D01*
X174151605Y-72641103D01*
X174186726Y-72419361D01*
X173481825Y-71449147D01*
X172511611Y-72154048D01*
X172476490Y-72375791D01*
X154222593Y-72375791D01*
X154070000Y-72223199D01*
X154070000Y-72161061D01*
X154030226Y-71961102D01*
X153952205Y-71772744D01*
X153838937Y-71603226D01*
X153694774Y-71459063D01*
X153525256Y-71345795D01*
X153336898Y-71267774D01*
X153136939Y-71228000D01*
X152933061Y-71228000D01*
X152733102Y-71267774D01*
X152544744Y-71345795D01*
X152375226Y-71459063D01*
X152231063Y-71603226D01*
X152117795Y-71772744D01*
X152039774Y-71961102D01*
X152000000Y-72161061D01*
X152000000Y-72364939D01*
X152000038Y-72365130D01*
X151857897Y-72336857D01*
X151654019Y-72336857D01*
X151454060Y-72376631D01*
X151265702Y-72454652D01*
X151096184Y-72567920D01*
X150952021Y-72712083D01*
X150838753Y-72881601D01*
X150760732Y-73069959D01*
X150720958Y-73269918D01*
X136263393Y-73269918D01*
X139237977Y-71108756D01*
X171685059Y-71108756D01*
X171702197Y-71232661D01*
X171743178Y-71350841D01*
X171806428Y-71458755D01*
X172140571Y-71913437D01*
X172362313Y-71948558D01*
X173332527Y-71243657D01*
X172627626Y-70273443D01*
X172405883Y-70238322D01*
X171947590Y-70567495D01*
X171854088Y-70650582D01*
X171778593Y-70750314D01*
X171724006Y-70862859D01*
X171692423Y-70983890D01*
X171685059Y-71108756D01*
X139237977Y-71108756D01*
X140593178Y-70124145D01*
X172833116Y-70124145D01*
X173538017Y-71094359D01*
X173554198Y-71082603D01*
X173703495Y-71288094D01*
X173687315Y-71299849D01*
X174392216Y-72270063D01*
X174613959Y-72305184D01*
X175072252Y-71976011D01*
X175165754Y-71892924D01*
X175241249Y-71793192D01*
X175295836Y-71680647D01*
X175327419Y-71559616D01*
X175334783Y-71434750D01*
X175317645Y-71310845D01*
X175292638Y-71238730D01*
X175418564Y-71263778D01*
X175711084Y-71263778D01*
X175997982Y-71206710D01*
X176268235Y-71094768D01*
X176511456Y-70932253D01*
X176718299Y-70725410D01*
X176880814Y-70482189D01*
X176992756Y-70211936D01*
X177049824Y-69925038D01*
X177049824Y-69657095D01*
X177186569Y-69713736D01*
X177473467Y-69770804D01*
X177765987Y-69770804D01*
X178052885Y-69713736D01*
X178323138Y-69601794D01*
X178566359Y-69439279D01*
X178773202Y-69232436D01*
X178935717Y-68989215D01*
X179047659Y-68718962D01*
X179104727Y-68432064D01*
X179104727Y-68139544D01*
X179047659Y-67852646D01*
X178935717Y-67582393D01*
X178773202Y-67339172D01*
X178566359Y-67132329D01*
X178323138Y-66969814D01*
X178052885Y-66857872D01*
X177765987Y-66800804D01*
X177473467Y-66800804D01*
X177186569Y-66857872D01*
X176916316Y-66969814D01*
X176673095Y-67132329D01*
X176466252Y-67339172D01*
X176303737Y-67582393D01*
X176191795Y-67852646D01*
X176134727Y-68139544D01*
X176134727Y-68407487D01*
X175997982Y-68350846D01*
X175711084Y-68293778D01*
X175418564Y-68293778D01*
X175131666Y-68350846D01*
X174861413Y-68462788D01*
X174618192Y-68625303D01*
X174411349Y-68832146D01*
X174248834Y-69075367D01*
X174136892Y-69345620D01*
X174089403Y-69584362D01*
X174031360Y-69540425D01*
X173918815Y-69485838D01*
X173797784Y-69454255D01*
X173672918Y-69446891D01*
X173549013Y-69464029D01*
X173430833Y-69505010D01*
X173322919Y-69568260D01*
X172868237Y-69902403D01*
X172833116Y-70124145D01*
X140593178Y-70124145D01*
X146814538Y-65604064D01*
X151309399Y-65604064D01*
X151309399Y-65842414D01*
X151355898Y-66076183D01*
X151447111Y-66296389D01*
X151579530Y-66494569D01*
X151748069Y-66663108D01*
X151946249Y-66795527D01*
X152166455Y-66886740D01*
X152400224Y-66933239D01*
X152638574Y-66933239D01*
X152872343Y-66886740D01*
X153092549Y-66795527D01*
X153290729Y-66663108D01*
X153459268Y-66494569D01*
X153591687Y-66296389D01*
X153682900Y-66076183D01*
X153729399Y-65842414D01*
X153729399Y-65604064D01*
X153682900Y-65370295D01*
X153591687Y-65150089D01*
X153459268Y-64951909D01*
X153290729Y-64783370D01*
X153092549Y-64650951D01*
X152872343Y-64559738D01*
X152638574Y-64513239D01*
X152400224Y-64513239D01*
X152166455Y-64559738D01*
X151946249Y-64650951D01*
X151748069Y-64783370D01*
X151579530Y-64951909D01*
X151447111Y-65150089D01*
X151355898Y-65370295D01*
X151309399Y-65604064D01*
X146814538Y-65604064D01*
X148509459Y-64372632D01*
X154670877Y-64372632D01*
X154670877Y-64704548D01*
X154735631Y-65030086D01*
X154862649Y-65336737D01*
X155047052Y-65612715D01*
X155281752Y-65847415D01*
X155557730Y-66031818D01*
X155864381Y-66158836D01*
X156189919Y-66223590D01*
X156521835Y-66223590D01*
X156847373Y-66158836D01*
X157154024Y-66031818D01*
X157430002Y-65847415D01*
X157664702Y-65612715D01*
X157849105Y-65336737D01*
X157976123Y-65030086D01*
X158004268Y-64888590D01*
X169671652Y-64888590D01*
X169683912Y-65013072D01*
X169720222Y-65132770D01*
X169779187Y-65243084D01*
X169858539Y-65339775D01*
X169955230Y-65419127D01*
X170065544Y-65478092D01*
X170185242Y-65514402D01*
X170309724Y-65526662D01*
X170873974Y-65523590D01*
X171032724Y-65364840D01*
X171032724Y-64165590D01*
X169833474Y-64165590D01*
X169674724Y-64324340D01*
X169671652Y-64888590D01*
X158004268Y-64888590D01*
X158040877Y-64704548D01*
X158040877Y-64372632D01*
X157976123Y-64047094D01*
X157849105Y-63740443D01*
X157664702Y-63464465D01*
X157430002Y-63229765D01*
X157368380Y-63188590D01*
X169671652Y-63188590D01*
X169674724Y-63752840D01*
X169833474Y-63911590D01*
X171032724Y-63911590D01*
X171032724Y-62712340D01*
X171286724Y-62712340D01*
X171286724Y-63911590D01*
X171306724Y-63911590D01*
X171306724Y-64165590D01*
X171286724Y-64165590D01*
X171286724Y-65364840D01*
X171445474Y-65523590D01*
X172009724Y-65526662D01*
X172134206Y-65514402D01*
X172253904Y-65478092D01*
X172364218Y-65419127D01*
X172460909Y-65339775D01*
X172540261Y-65243084D01*
X172599226Y-65132770D01*
X172621237Y-65060210D01*
X172753092Y-65192065D01*
X172996313Y-65354580D01*
X173266566Y-65466522D01*
X173553464Y-65523590D01*
X173845984Y-65523590D01*
X174132882Y-65466522D01*
X174403135Y-65354580D01*
X174646356Y-65192065D01*
X174853199Y-64985222D01*
X174969724Y-64810830D01*
X175086249Y-64985222D01*
X175293092Y-65192065D01*
X175536313Y-65354580D01*
X175806566Y-65466522D01*
X176093464Y-65523590D01*
X176385984Y-65523590D01*
X176672882Y-65466522D01*
X176943135Y-65354580D01*
X177186356Y-65192065D01*
X177393199Y-64985222D01*
X177555714Y-64742001D01*
X177667656Y-64471748D01*
X177724724Y-64184850D01*
X177724724Y-64091982D01*
X181105427Y-64091982D01*
X181105427Y-64423898D01*
X181170181Y-64749436D01*
X181297199Y-65056087D01*
X181481602Y-65332065D01*
X181716302Y-65566765D01*
X181992280Y-65751168D01*
X182298931Y-65878186D01*
X182624469Y-65942940D01*
X182956385Y-65942940D01*
X183281923Y-65878186D01*
X183588574Y-65751168D01*
X183864552Y-65566765D01*
X184099252Y-65332065D01*
X184283655Y-65056087D01*
X184410673Y-64749436D01*
X184475427Y-64423898D01*
X184475427Y-64091982D01*
X184410673Y-63766444D01*
X184283655Y-63459793D01*
X184099252Y-63183815D01*
X183864552Y-62949115D01*
X183588574Y-62764712D01*
X183281923Y-62637694D01*
X182956385Y-62572940D01*
X182624469Y-62572940D01*
X182298931Y-62637694D01*
X181992280Y-62764712D01*
X181716302Y-62949115D01*
X181481602Y-63183815D01*
X181297199Y-63459793D01*
X181170181Y-63766444D01*
X181105427Y-64091982D01*
X177724724Y-64091982D01*
X177724724Y-63892330D01*
X177667656Y-63605432D01*
X177555714Y-63335179D01*
X177393199Y-63091958D01*
X177186356Y-62885115D01*
X176943135Y-62722600D01*
X176672882Y-62610658D01*
X176385984Y-62553590D01*
X176093464Y-62553590D01*
X175806566Y-62610658D01*
X175536313Y-62722600D01*
X175293092Y-62885115D01*
X175086249Y-63091958D01*
X174969724Y-63266350D01*
X174853199Y-63091958D01*
X174646356Y-62885115D01*
X174403135Y-62722600D01*
X174132882Y-62610658D01*
X173845984Y-62553590D01*
X173553464Y-62553590D01*
X173266566Y-62610658D01*
X172996313Y-62722600D01*
X172753092Y-62885115D01*
X172621237Y-63016970D01*
X172599226Y-62944410D01*
X172540261Y-62834096D01*
X172460909Y-62737405D01*
X172364218Y-62658053D01*
X172253904Y-62599088D01*
X172134206Y-62562778D01*
X172009724Y-62550518D01*
X171445474Y-62553590D01*
X171286724Y-62712340D01*
X171032724Y-62712340D01*
X170873974Y-62553590D01*
X170309724Y-62550518D01*
X170185242Y-62562778D01*
X170065544Y-62599088D01*
X169955230Y-62658053D01*
X169858539Y-62737405D01*
X169779187Y-62834096D01*
X169720222Y-62944410D01*
X169683912Y-63064108D01*
X169671652Y-63188590D01*
X157368380Y-63188590D01*
X157154024Y-63045362D01*
X156847373Y-62918344D01*
X156521835Y-62853590D01*
X156189919Y-62853590D01*
X155864381Y-62918344D01*
X155557730Y-63045362D01*
X155281752Y-63229765D01*
X155047052Y-63464465D01*
X154862649Y-63740443D01*
X154735631Y-64047094D01*
X154670877Y-64372632D01*
X148509459Y-64372632D01*
X151398542Y-62273591D01*
X188897627Y-62273591D01*
X158560230Y-84315000D01*
G37*
%TD.AperFunction*%
%TD*%
M02*
