%TF.GenerationSoftware,KiCad,Pcbnew,5.1.8*%
%TF.CreationDate,2021-01-07T11:35:16-05:00*%
%TF.ProjectId,penroserombus_thin_40mm,70656e72-6f73-4657-926f-6d6275735f74,rev?*%
%TF.SameCoordinates,Original*%
%TF.FileFunction,Copper,L2,Bot*%
%TF.FilePolarity,Positive*%
%FSLAX46Y46*%
G04 Gerber Fmt 4.6, Leading zero omitted, Abs format (unit mm)*
G04 Created by KiCad (PCBNEW 5.1.8) date 2021-01-07 11:35:16*
%MOMM*%
%LPD*%
G01*
G04 APERTURE LIST*
%TA.AperFunction,WasherPad*%
%ADD10C,1.524000*%
%TD*%
%TA.AperFunction,ComponentPad*%
%ADD11C,0.100000*%
%TD*%
%TA.AperFunction,ComponentPad*%
%ADD12O,1.700000X1.700000*%
%TD*%
%TA.AperFunction,ComponentPad*%
%ADD13R,1.700000X1.700000*%
%TD*%
%TA.AperFunction,ViaPad*%
%ADD14C,0.800000*%
%TD*%
%TA.AperFunction,Conductor*%
%ADD15C,0.250000*%
%TD*%
%TA.AperFunction,Conductor*%
%ADD16C,0.254000*%
%TD*%
%TA.AperFunction,Conductor*%
%ADD17C,0.100000*%
%TD*%
G04 APERTURE END LIST*
D10*
%TO.P,MH,*%
%TO.N,*%
X162941000Y-76835000D03*
%TD*%
%TO.P,MH,*%
%TO.N,*%
X146558000Y-69723000D03*
%TD*%
%TA.AperFunction,ComponentPad*%
D11*
%TO.P,J3,1*%
%TO.N,GND*%
G36*
X135261566Y-75128791D02*
G01*
X136636895Y-74129556D01*
X137636130Y-75504885D01*
X136260801Y-76504120D01*
X135261566Y-75128791D01*
G37*
%TD.AperFunction*%
%TO.P,J3,2*%
%TO.N,VCC*%
%TA.AperFunction,ComponentPad*%
G36*
G01*
X133894328Y-76122149D02*
X133894328Y-76122149D01*
G75*
G02*
X135081609Y-76310196I499617J-687664D01*
G01*
X135081609Y-76310196D01*
G75*
G02*
X134893562Y-77497477I-687664J-499617D01*
G01*
X134893562Y-77497477D01*
G75*
G02*
X133706281Y-77309430I-499617J687664D01*
G01*
X133706281Y-77309430D01*
G75*
G02*
X133894328Y-76122149I687664J499617D01*
G01*
G37*
%TD.AperFunction*%
%TO.P,J3,3*%
%TO.N,Net-(D1-Pad4)*%
%TA.AperFunction,ComponentPad*%
G36*
G01*
X131839425Y-77615123D02*
X131839425Y-77615123D01*
G75*
G02*
X133026706Y-77803170I499617J-687664D01*
G01*
X133026706Y-77803170D01*
G75*
G02*
X132838659Y-78990451I-687664J-499617D01*
G01*
X132838659Y-78990451D01*
G75*
G02*
X131651378Y-78802404I-499617J687664D01*
G01*
X131651378Y-78802404D01*
G75*
G02*
X131839425Y-77615123I687664J499617D01*
G01*
G37*
%TD.AperFunction*%
%TD*%
D12*
%TO.P,J1,3*%
%TO.N,Net-(J1-Pad3)*%
X176239724Y-64038590D03*
%TO.P,J1,2*%
%TO.N,VCC*%
X173699724Y-64038590D03*
D13*
%TO.P,J1,1*%
%TO.N,GND*%
X171159724Y-64038590D03*
%TD*%
%TO.P,J2,1*%
%TO.N,GND*%
X138799045Y-82550000D03*
D12*
%TO.P,J2,2*%
%TO.N,VCC*%
X136259045Y-82550000D03*
%TO.P,J2,3*%
%TO.N,Net-(J2-Pad3)*%
X133719045Y-82550000D03*
%TD*%
%TO.P,J4,3*%
%TO.N,Net-(D2-Pad4)*%
%TA.AperFunction,ComponentPad*%
G36*
G01*
X178119344Y-68973468D02*
X178119344Y-68973468D01*
G75*
G02*
X176932063Y-68785421I-499617J687664D01*
G01*
X176932063Y-68785421D01*
G75*
G02*
X177120110Y-67598140I687664J499617D01*
G01*
X177120110Y-67598140D01*
G75*
G02*
X178307391Y-67786187I499617J-687664D01*
G01*
X178307391Y-67786187D01*
G75*
G02*
X178119344Y-68973468I-687664J-499617D01*
G01*
G37*
%TD.AperFunction*%
%TO.P,J4,2*%
%TO.N,VCC*%
%TA.AperFunction,ComponentPad*%
G36*
G01*
X176064441Y-70466442D02*
X176064441Y-70466442D01*
G75*
G02*
X174877160Y-70278395I-499617J687664D01*
G01*
X174877160Y-70278395D01*
G75*
G02*
X175065207Y-69091114I687664J499617D01*
G01*
X175065207Y-69091114D01*
G75*
G02*
X176252488Y-69279161I499617J-687664D01*
G01*
X176252488Y-69279161D01*
G75*
G02*
X176064441Y-70466442I-687664J-499617D01*
G01*
G37*
%TD.AperFunction*%
%TA.AperFunction,ComponentPad*%
D11*
%TO.P,J4,1*%
%TO.N,GND*%
G36*
X174697203Y-71459800D02*
G01*
X173321874Y-72459035D01*
X172322639Y-71083706D01*
X173697968Y-70084471D01*
X174697203Y-71459800D01*
G37*
%TD.AperFunction*%
%TD*%
D14*
%TO.N,GND*%
X148590000Y-74168000D03*
X166333673Y-70140327D03*
%TO.N,Net-(D1-Pad2)*%
X156464000Y-70612000D03*
X157226000Y-72898000D03*
X148844000Y-72898000D03*
X151638000Y-76200000D03*
%TO.N,Net-(D2-Pad2)*%
X155194000Y-71120000D03*
X156972000Y-74422000D03*
%TD*%
D15*
%TO.N,Net-(D1-Pad2)*%
X157226000Y-72898000D02*
X156464000Y-70612000D01*
X149315001Y-73877001D02*
X151638000Y-76200000D01*
X149315001Y-73369001D02*
X149315001Y-73877001D01*
X148844000Y-72898000D02*
X149315001Y-73369001D01*
%TO.N,Net-(D2-Pad2)*%
X155194000Y-71120000D02*
X156972000Y-74422000D01*
%TD*%
D16*
%TO.N,GND*%
X158560230Y-84315000D02*
X121061141Y-84315000D01*
X123691765Y-82403740D01*
X132234045Y-82403740D01*
X132234045Y-82696260D01*
X132291113Y-82983158D01*
X132403055Y-83253411D01*
X132565570Y-83496632D01*
X132772413Y-83703475D01*
X133015634Y-83865990D01*
X133285887Y-83977932D01*
X133572785Y-84035000D01*
X133865305Y-84035000D01*
X134152203Y-83977932D01*
X134422456Y-83865990D01*
X134665677Y-83703475D01*
X134872520Y-83496632D01*
X134989045Y-83322240D01*
X135105570Y-83496632D01*
X135312413Y-83703475D01*
X135555634Y-83865990D01*
X135825887Y-83977932D01*
X136112785Y-84035000D01*
X136405305Y-84035000D01*
X136692203Y-83977932D01*
X136962456Y-83865990D01*
X137205677Y-83703475D01*
X137337532Y-83571620D01*
X137359543Y-83644180D01*
X137418508Y-83754494D01*
X137497860Y-83851185D01*
X137594551Y-83930537D01*
X137704865Y-83989502D01*
X137824563Y-84025812D01*
X137949045Y-84038072D01*
X138513295Y-84035000D01*
X138672045Y-83876250D01*
X138672045Y-82677000D01*
X138926045Y-82677000D01*
X138926045Y-83876250D01*
X139084795Y-84035000D01*
X139649045Y-84038072D01*
X139773527Y-84025812D01*
X139893225Y-83989502D01*
X140003539Y-83930537D01*
X140100230Y-83851185D01*
X140179582Y-83754494D01*
X140238547Y-83644180D01*
X140274857Y-83524482D01*
X140287117Y-83400000D01*
X140284045Y-82835750D01*
X140125295Y-82677000D01*
X138926045Y-82677000D01*
X138672045Y-82677000D01*
X138652045Y-82677000D01*
X138652045Y-82423000D01*
X138672045Y-82423000D01*
X138672045Y-81223750D01*
X138926045Y-81223750D01*
X138926045Y-82423000D01*
X140125295Y-82423000D01*
X140284045Y-82264250D01*
X140286876Y-81744117D01*
X144315000Y-81744117D01*
X144315000Y-82085883D01*
X144381675Y-82421081D01*
X144512463Y-82736831D01*
X144702337Y-83020998D01*
X144944002Y-83262663D01*
X145228169Y-83452537D01*
X145543919Y-83583325D01*
X145879117Y-83650000D01*
X146220883Y-83650000D01*
X146556081Y-83583325D01*
X146871831Y-83452537D01*
X147155998Y-83262663D01*
X147397663Y-83020998D01*
X147587537Y-82736831D01*
X147718325Y-82421081D01*
X147785000Y-82085883D01*
X147785000Y-81744117D01*
X147718325Y-81408919D01*
X147587537Y-81093169D01*
X147397663Y-80809002D01*
X147155998Y-80567337D01*
X146871831Y-80377463D01*
X146556081Y-80246675D01*
X146220883Y-80180000D01*
X145879117Y-80180000D01*
X145543919Y-80246675D01*
X145228169Y-80377463D01*
X144944002Y-80567337D01*
X144702337Y-80809002D01*
X144512463Y-81093169D01*
X144381675Y-81408919D01*
X144315000Y-81744117D01*
X140286876Y-81744117D01*
X140287117Y-81700000D01*
X140274857Y-81575518D01*
X140238547Y-81455820D01*
X140179582Y-81345506D01*
X140100230Y-81248815D01*
X140003539Y-81169463D01*
X139893225Y-81110498D01*
X139773527Y-81074188D01*
X139649045Y-81061928D01*
X139084795Y-81065000D01*
X138926045Y-81223750D01*
X138672045Y-81223750D01*
X138513295Y-81065000D01*
X137949045Y-81061928D01*
X137824563Y-81074188D01*
X137704865Y-81110498D01*
X137594551Y-81169463D01*
X137497860Y-81248815D01*
X137418508Y-81345506D01*
X137359543Y-81455820D01*
X137337532Y-81528380D01*
X137205677Y-81396525D01*
X136962456Y-81234010D01*
X136692203Y-81122068D01*
X136405305Y-81065000D01*
X136112785Y-81065000D01*
X135825887Y-81122068D01*
X135555634Y-81234010D01*
X135312413Y-81396525D01*
X135105570Y-81603368D01*
X134989045Y-81777760D01*
X134872520Y-81603368D01*
X134665677Y-81396525D01*
X134422456Y-81234010D01*
X134152203Y-81122068D01*
X133865305Y-81065000D01*
X133572785Y-81065000D01*
X133285887Y-81122068D01*
X133015634Y-81234010D01*
X132772413Y-81396525D01*
X132565570Y-81603368D01*
X132403055Y-81846589D01*
X132291113Y-82116842D01*
X132234045Y-82403740D01*
X123691765Y-82403740D01*
X129537553Y-78156527D01*
X130854042Y-78156527D01*
X130854042Y-78449047D01*
X130911110Y-78735945D01*
X131023052Y-79006198D01*
X131185567Y-79249419D01*
X131392410Y-79456262D01*
X131635631Y-79618777D01*
X131905884Y-79730719D01*
X132192782Y-79787787D01*
X132485302Y-79787787D01*
X132772200Y-79730719D01*
X133042453Y-79618777D01*
X133285674Y-79456262D01*
X133492517Y-79249419D01*
X133655032Y-79006198D01*
X133766974Y-78735945D01*
X133824042Y-78449047D01*
X133824042Y-78181104D01*
X133960787Y-78237745D01*
X134247685Y-78294813D01*
X134540205Y-78294813D01*
X134827103Y-78237745D01*
X135097356Y-78125803D01*
X135340577Y-77963288D01*
X135547420Y-77756445D01*
X135709935Y-77513224D01*
X135821877Y-77242971D01*
X135869366Y-77004229D01*
X135927409Y-77048166D01*
X136039954Y-77102753D01*
X136160985Y-77134336D01*
X136285851Y-77141700D01*
X136409756Y-77124562D01*
X136527936Y-77083581D01*
X136635850Y-77020331D01*
X137090532Y-76686188D01*
X137125653Y-76464446D01*
X136420752Y-75494232D01*
X136404571Y-75505988D01*
X136287560Y-75344934D01*
X136626242Y-75344934D01*
X137331143Y-76315148D01*
X137552886Y-76350269D01*
X138011179Y-76021096D01*
X138104681Y-75938009D01*
X138180176Y-75838277D01*
X138234763Y-75725732D01*
X138266346Y-75604701D01*
X138273710Y-75479835D01*
X138256572Y-75355930D01*
X138215591Y-75237750D01*
X138152341Y-75129836D01*
X137818198Y-74675154D01*
X137596456Y-74640033D01*
X136626242Y-75344934D01*
X136287560Y-75344934D01*
X136255274Y-75300497D01*
X136271454Y-75288742D01*
X135566553Y-74318528D01*
X135344810Y-74283407D01*
X134886517Y-74612580D01*
X134793015Y-74695667D01*
X134717520Y-74795399D01*
X134662933Y-74907944D01*
X134631350Y-75028975D01*
X134623986Y-75153841D01*
X134641124Y-75277746D01*
X134666131Y-75349861D01*
X134540205Y-75324813D01*
X134247685Y-75324813D01*
X133960787Y-75381881D01*
X133690534Y-75493823D01*
X133447313Y-75656338D01*
X133240470Y-75863181D01*
X133077955Y-76106402D01*
X132966013Y-76376655D01*
X132908945Y-76663553D01*
X132908945Y-76931496D01*
X132772200Y-76874855D01*
X132485302Y-76817787D01*
X132192782Y-76817787D01*
X131905884Y-76874855D01*
X131635631Y-76986797D01*
X131392410Y-77149312D01*
X131185567Y-77356155D01*
X131023052Y-77599376D01*
X130911110Y-77869629D01*
X130854042Y-78156527D01*
X129537553Y-78156527D01*
X135025597Y-74169230D01*
X135772043Y-74169230D01*
X136476944Y-75139444D01*
X137447158Y-74434543D01*
X137482279Y-74212800D01*
X137153106Y-73754507D01*
X137070019Y-73661005D01*
X136970287Y-73585510D01*
X136857742Y-73530923D01*
X136736711Y-73499340D01*
X136611845Y-73491976D01*
X136487940Y-73509114D01*
X136369760Y-73550095D01*
X136261846Y-73613345D01*
X135807164Y-73947488D01*
X135772043Y-74169230D01*
X135025597Y-74169230D01*
X136915602Y-72796061D01*
X147809000Y-72796061D01*
X147809000Y-72999939D01*
X147848774Y-73199898D01*
X147926795Y-73388256D01*
X148040063Y-73557774D01*
X148184226Y-73701937D01*
X148353744Y-73815205D01*
X148542102Y-73893226D01*
X148553139Y-73895421D01*
X148555001Y-73914323D01*
X148555001Y-73914334D01*
X148565998Y-74025987D01*
X148609455Y-74169248D01*
X148680027Y-74301277D01*
X148775001Y-74417002D01*
X148803999Y-74440800D01*
X150603000Y-76239802D01*
X150603000Y-76301939D01*
X150642774Y-76501898D01*
X150720795Y-76690256D01*
X150834063Y-76859774D01*
X150978226Y-77003937D01*
X151147744Y-77117205D01*
X151336102Y-77195226D01*
X151536061Y-77235000D01*
X151739939Y-77235000D01*
X151939898Y-77195226D01*
X152128256Y-77117205D01*
X152297774Y-77003937D01*
X152441937Y-76859774D01*
X152550426Y-76697408D01*
X161544000Y-76697408D01*
X161544000Y-76972592D01*
X161597686Y-77242490D01*
X161702995Y-77496727D01*
X161855880Y-77725535D01*
X162050465Y-77920120D01*
X162279273Y-78073005D01*
X162533510Y-78178314D01*
X162803408Y-78232000D01*
X163078592Y-78232000D01*
X163348490Y-78178314D01*
X163602727Y-78073005D01*
X163831535Y-77920120D01*
X164026120Y-77725535D01*
X164179005Y-77496727D01*
X164284314Y-77242490D01*
X164338000Y-76972592D01*
X164338000Y-76697408D01*
X164284314Y-76427510D01*
X164179005Y-76173273D01*
X164026120Y-75944465D01*
X163831535Y-75749880D01*
X163602727Y-75596995D01*
X163348490Y-75491686D01*
X163078592Y-75438000D01*
X162803408Y-75438000D01*
X162533510Y-75491686D01*
X162279273Y-75596995D01*
X162050465Y-75749880D01*
X161855880Y-75944465D01*
X161702995Y-76173273D01*
X161597686Y-76427510D01*
X161544000Y-76697408D01*
X152550426Y-76697408D01*
X152555205Y-76690256D01*
X152633226Y-76501898D01*
X152673000Y-76301939D01*
X152673000Y-76098061D01*
X152633226Y-75898102D01*
X152555205Y-75709744D01*
X152441937Y-75540226D01*
X152297774Y-75396063D01*
X152128256Y-75282795D01*
X151939898Y-75204774D01*
X151739939Y-75165000D01*
X151677802Y-75165000D01*
X150075001Y-73562200D01*
X150075001Y-73406323D01*
X150078677Y-73369000D01*
X150075001Y-73331678D01*
X150075001Y-73331668D01*
X150064004Y-73220015D01*
X150020547Y-73076754D01*
X150004635Y-73046985D01*
X149949975Y-72944724D01*
X149911629Y-72898000D01*
X149879000Y-72858242D01*
X149879000Y-72796061D01*
X149839226Y-72596102D01*
X149761205Y-72407744D01*
X149647937Y-72238226D01*
X149503774Y-72094063D01*
X149334256Y-71980795D01*
X149145898Y-71902774D01*
X148945939Y-71863000D01*
X148742061Y-71863000D01*
X148542102Y-71902774D01*
X148353744Y-71980795D01*
X148184226Y-72094063D01*
X148040063Y-72238226D01*
X147926795Y-72407744D01*
X147848774Y-72596102D01*
X147809000Y-72796061D01*
X136915602Y-72796061D01*
X141334687Y-69585408D01*
X145161000Y-69585408D01*
X145161000Y-69860592D01*
X145214686Y-70130490D01*
X145319995Y-70384727D01*
X145472880Y-70613535D01*
X145667465Y-70808120D01*
X145896273Y-70961005D01*
X146150510Y-71066314D01*
X146420408Y-71120000D01*
X146695592Y-71120000D01*
X146965490Y-71066314D01*
X147081982Y-71018061D01*
X154159000Y-71018061D01*
X154159000Y-71221939D01*
X154198774Y-71421898D01*
X154276795Y-71610256D01*
X154390063Y-71779774D01*
X154534226Y-71923937D01*
X154703744Y-72037205D01*
X154859430Y-72101693D01*
X155968544Y-74161477D01*
X155937000Y-74320061D01*
X155937000Y-74523939D01*
X155976774Y-74723898D01*
X156054795Y-74912256D01*
X156168063Y-75081774D01*
X156312226Y-75225937D01*
X156481744Y-75339205D01*
X156670102Y-75417226D01*
X156870061Y-75457000D01*
X157073939Y-75457000D01*
X157273898Y-75417226D01*
X157462256Y-75339205D01*
X157631774Y-75225937D01*
X157775937Y-75081774D01*
X157889205Y-74912256D01*
X157967226Y-74723898D01*
X158007000Y-74523939D01*
X158007000Y-74320061D01*
X157967226Y-74120102D01*
X157889205Y-73931744D01*
X157781989Y-73771284D01*
X157885774Y-73701937D01*
X158029937Y-73557774D01*
X158143205Y-73388256D01*
X158221226Y-73199898D01*
X158261000Y-72999939D01*
X158261000Y-72796061D01*
X158221226Y-72596102D01*
X158143205Y-72407744D01*
X158121855Y-72375791D01*
X172476490Y-72375791D01*
X172805663Y-72834084D01*
X172888750Y-72927586D01*
X172988482Y-73003081D01*
X173101027Y-73057668D01*
X173222058Y-73089251D01*
X173346924Y-73096615D01*
X173470829Y-73079477D01*
X173589009Y-73038496D01*
X173696923Y-72975246D01*
X174151605Y-72641103D01*
X174186726Y-72419361D01*
X173481825Y-71449147D01*
X172511611Y-72154048D01*
X172476490Y-72375791D01*
X158121855Y-72375791D01*
X158029937Y-72238226D01*
X157885774Y-72094063D01*
X157722842Y-71985196D01*
X157430696Y-71108756D01*
X171685059Y-71108756D01*
X171702197Y-71232661D01*
X171743178Y-71350841D01*
X171806428Y-71458755D01*
X172140571Y-71913437D01*
X172362313Y-71948558D01*
X173332527Y-71243657D01*
X172627626Y-70273443D01*
X172405883Y-70238322D01*
X171947590Y-70567495D01*
X171854088Y-70650582D01*
X171778593Y-70750314D01*
X171724006Y-70862859D01*
X171692423Y-70983890D01*
X171685059Y-71108756D01*
X157430696Y-71108756D01*
X157407427Y-71038951D01*
X157459226Y-70913898D01*
X157499000Y-70713939D01*
X157499000Y-70510061D01*
X157459226Y-70310102D01*
X157382200Y-70124145D01*
X172833116Y-70124145D01*
X173538017Y-71094359D01*
X173554198Y-71082603D01*
X173703495Y-71288094D01*
X173687315Y-71299849D01*
X174392216Y-72270063D01*
X174613959Y-72305184D01*
X175072252Y-71976011D01*
X175165754Y-71892924D01*
X175241249Y-71793192D01*
X175295836Y-71680647D01*
X175327419Y-71559616D01*
X175334783Y-71434750D01*
X175317645Y-71310845D01*
X175292638Y-71238730D01*
X175418564Y-71263778D01*
X175711084Y-71263778D01*
X175997982Y-71206710D01*
X176268235Y-71094768D01*
X176511456Y-70932253D01*
X176718299Y-70725410D01*
X176880814Y-70482189D01*
X176992756Y-70211936D01*
X177049824Y-69925038D01*
X177049824Y-69657095D01*
X177186569Y-69713736D01*
X177473467Y-69770804D01*
X177765987Y-69770804D01*
X178052885Y-69713736D01*
X178323138Y-69601794D01*
X178566359Y-69439279D01*
X178773202Y-69232436D01*
X178935717Y-68989215D01*
X179047659Y-68718962D01*
X179104727Y-68432064D01*
X179104727Y-68139544D01*
X179047659Y-67852646D01*
X178935717Y-67582393D01*
X178773202Y-67339172D01*
X178566359Y-67132329D01*
X178323138Y-66969814D01*
X178052885Y-66857872D01*
X177765987Y-66800804D01*
X177473467Y-66800804D01*
X177186569Y-66857872D01*
X176916316Y-66969814D01*
X176673095Y-67132329D01*
X176466252Y-67339172D01*
X176303737Y-67582393D01*
X176191795Y-67852646D01*
X176134727Y-68139544D01*
X176134727Y-68407487D01*
X175997982Y-68350846D01*
X175711084Y-68293778D01*
X175418564Y-68293778D01*
X175131666Y-68350846D01*
X174861413Y-68462788D01*
X174618192Y-68625303D01*
X174411349Y-68832146D01*
X174248834Y-69075367D01*
X174136892Y-69345620D01*
X174089403Y-69584362D01*
X174031360Y-69540425D01*
X173918815Y-69485838D01*
X173797784Y-69454255D01*
X173672918Y-69446891D01*
X173549013Y-69464029D01*
X173430833Y-69505010D01*
X173322919Y-69568260D01*
X172868237Y-69902403D01*
X172833116Y-70124145D01*
X157382200Y-70124145D01*
X157381205Y-70121744D01*
X157267937Y-69952226D01*
X157123774Y-69808063D01*
X156954256Y-69694795D01*
X156765898Y-69616774D01*
X156565939Y-69577000D01*
X156362061Y-69577000D01*
X156162102Y-69616774D01*
X155973744Y-69694795D01*
X155804226Y-69808063D01*
X155660063Y-69952226D01*
X155546795Y-70121744D01*
X155538270Y-70142325D01*
X155495898Y-70124774D01*
X155295939Y-70085000D01*
X155092061Y-70085000D01*
X154892102Y-70124774D01*
X154703744Y-70202795D01*
X154534226Y-70316063D01*
X154390063Y-70460226D01*
X154276795Y-70629744D01*
X154198774Y-70818102D01*
X154159000Y-71018061D01*
X147081982Y-71018061D01*
X147219727Y-70961005D01*
X147448535Y-70808120D01*
X147643120Y-70613535D01*
X147796005Y-70384727D01*
X147901314Y-70130490D01*
X147955000Y-69860592D01*
X147955000Y-69585408D01*
X147901314Y-69315510D01*
X147796005Y-69061273D01*
X147643120Y-68832465D01*
X147448535Y-68637880D01*
X147219727Y-68484995D01*
X146965490Y-68379686D01*
X146695592Y-68326000D01*
X146420408Y-68326000D01*
X146150510Y-68379686D01*
X145896273Y-68484995D01*
X145667465Y-68637880D01*
X145472880Y-68832465D01*
X145319995Y-69061273D01*
X145214686Y-69315510D01*
X145161000Y-69585408D01*
X141334687Y-69585408D01*
X148022928Y-64726117D01*
X161587000Y-64726117D01*
X161587000Y-65067883D01*
X161653675Y-65403081D01*
X161784463Y-65718831D01*
X161974337Y-66002998D01*
X162216002Y-66244663D01*
X162500169Y-66434537D01*
X162815919Y-66565325D01*
X163151117Y-66632000D01*
X163492883Y-66632000D01*
X163828081Y-66565325D01*
X164143831Y-66434537D01*
X164427998Y-66244663D01*
X164669663Y-66002998D01*
X164859537Y-65718831D01*
X164990325Y-65403081D01*
X165057000Y-65067883D01*
X165057000Y-64888590D01*
X169671652Y-64888590D01*
X169683912Y-65013072D01*
X169720222Y-65132770D01*
X169779187Y-65243084D01*
X169858539Y-65339775D01*
X169955230Y-65419127D01*
X170065544Y-65478092D01*
X170185242Y-65514402D01*
X170309724Y-65526662D01*
X170873974Y-65523590D01*
X171032724Y-65364840D01*
X171032724Y-64165590D01*
X169833474Y-64165590D01*
X169674724Y-64324340D01*
X169671652Y-64888590D01*
X165057000Y-64888590D01*
X165057000Y-64726117D01*
X164990325Y-64390919D01*
X164859537Y-64075169D01*
X164669663Y-63791002D01*
X164427998Y-63549337D01*
X164143831Y-63359463D01*
X163828081Y-63228675D01*
X163626561Y-63188590D01*
X169671652Y-63188590D01*
X169674724Y-63752840D01*
X169833474Y-63911590D01*
X171032724Y-63911590D01*
X171032724Y-62712340D01*
X171286724Y-62712340D01*
X171286724Y-63911590D01*
X171306724Y-63911590D01*
X171306724Y-64165590D01*
X171286724Y-64165590D01*
X171286724Y-65364840D01*
X171445474Y-65523590D01*
X172009724Y-65526662D01*
X172134206Y-65514402D01*
X172253904Y-65478092D01*
X172364218Y-65419127D01*
X172460909Y-65339775D01*
X172540261Y-65243084D01*
X172599226Y-65132770D01*
X172621237Y-65060210D01*
X172753092Y-65192065D01*
X172996313Y-65354580D01*
X173266566Y-65466522D01*
X173553464Y-65523590D01*
X173845984Y-65523590D01*
X174132882Y-65466522D01*
X174403135Y-65354580D01*
X174646356Y-65192065D01*
X174853199Y-64985222D01*
X174969724Y-64810830D01*
X175086249Y-64985222D01*
X175293092Y-65192065D01*
X175536313Y-65354580D01*
X175806566Y-65466522D01*
X176093464Y-65523590D01*
X176385984Y-65523590D01*
X176672882Y-65466522D01*
X176943135Y-65354580D01*
X177186356Y-65192065D01*
X177393199Y-64985222D01*
X177555714Y-64742001D01*
X177667656Y-64471748D01*
X177724724Y-64184850D01*
X177724724Y-63892330D01*
X177667656Y-63605432D01*
X177555714Y-63335179D01*
X177393199Y-63091958D01*
X177186356Y-62885115D01*
X176943135Y-62722600D01*
X176672882Y-62610658D01*
X176385984Y-62553590D01*
X176093464Y-62553590D01*
X175806566Y-62610658D01*
X175536313Y-62722600D01*
X175293092Y-62885115D01*
X175086249Y-63091958D01*
X174969724Y-63266350D01*
X174853199Y-63091958D01*
X174646356Y-62885115D01*
X174403135Y-62722600D01*
X174132882Y-62610658D01*
X173845984Y-62553590D01*
X173553464Y-62553590D01*
X173266566Y-62610658D01*
X172996313Y-62722600D01*
X172753092Y-62885115D01*
X172621237Y-63016970D01*
X172599226Y-62944410D01*
X172540261Y-62834096D01*
X172460909Y-62737405D01*
X172364218Y-62658053D01*
X172253904Y-62599088D01*
X172134206Y-62562778D01*
X172009724Y-62550518D01*
X171445474Y-62553590D01*
X171286724Y-62712340D01*
X171032724Y-62712340D01*
X170873974Y-62553590D01*
X170309724Y-62550518D01*
X170185242Y-62562778D01*
X170065544Y-62599088D01*
X169955230Y-62658053D01*
X169858539Y-62737405D01*
X169779187Y-62834096D01*
X169720222Y-62944410D01*
X169683912Y-63064108D01*
X169671652Y-63188590D01*
X163626561Y-63188590D01*
X163492883Y-63162000D01*
X163151117Y-63162000D01*
X162815919Y-63228675D01*
X162500169Y-63359463D01*
X162216002Y-63549337D01*
X161974337Y-63791002D01*
X161784463Y-64075169D01*
X161653675Y-64390919D01*
X161587000Y-64726117D01*
X148022928Y-64726117D01*
X151398542Y-62273591D01*
X188897627Y-62273591D01*
X158560230Y-84315000D01*
%TA.AperFunction,Conductor*%
D17*
G36*
X158560230Y-84315000D02*
G01*
X121061141Y-84315000D01*
X123691765Y-82403740D01*
X132234045Y-82403740D01*
X132234045Y-82696260D01*
X132291113Y-82983158D01*
X132403055Y-83253411D01*
X132565570Y-83496632D01*
X132772413Y-83703475D01*
X133015634Y-83865990D01*
X133285887Y-83977932D01*
X133572785Y-84035000D01*
X133865305Y-84035000D01*
X134152203Y-83977932D01*
X134422456Y-83865990D01*
X134665677Y-83703475D01*
X134872520Y-83496632D01*
X134989045Y-83322240D01*
X135105570Y-83496632D01*
X135312413Y-83703475D01*
X135555634Y-83865990D01*
X135825887Y-83977932D01*
X136112785Y-84035000D01*
X136405305Y-84035000D01*
X136692203Y-83977932D01*
X136962456Y-83865990D01*
X137205677Y-83703475D01*
X137337532Y-83571620D01*
X137359543Y-83644180D01*
X137418508Y-83754494D01*
X137497860Y-83851185D01*
X137594551Y-83930537D01*
X137704865Y-83989502D01*
X137824563Y-84025812D01*
X137949045Y-84038072D01*
X138513295Y-84035000D01*
X138672045Y-83876250D01*
X138672045Y-82677000D01*
X138926045Y-82677000D01*
X138926045Y-83876250D01*
X139084795Y-84035000D01*
X139649045Y-84038072D01*
X139773527Y-84025812D01*
X139893225Y-83989502D01*
X140003539Y-83930537D01*
X140100230Y-83851185D01*
X140179582Y-83754494D01*
X140238547Y-83644180D01*
X140274857Y-83524482D01*
X140287117Y-83400000D01*
X140284045Y-82835750D01*
X140125295Y-82677000D01*
X138926045Y-82677000D01*
X138672045Y-82677000D01*
X138652045Y-82677000D01*
X138652045Y-82423000D01*
X138672045Y-82423000D01*
X138672045Y-81223750D01*
X138926045Y-81223750D01*
X138926045Y-82423000D01*
X140125295Y-82423000D01*
X140284045Y-82264250D01*
X140286876Y-81744117D01*
X144315000Y-81744117D01*
X144315000Y-82085883D01*
X144381675Y-82421081D01*
X144512463Y-82736831D01*
X144702337Y-83020998D01*
X144944002Y-83262663D01*
X145228169Y-83452537D01*
X145543919Y-83583325D01*
X145879117Y-83650000D01*
X146220883Y-83650000D01*
X146556081Y-83583325D01*
X146871831Y-83452537D01*
X147155998Y-83262663D01*
X147397663Y-83020998D01*
X147587537Y-82736831D01*
X147718325Y-82421081D01*
X147785000Y-82085883D01*
X147785000Y-81744117D01*
X147718325Y-81408919D01*
X147587537Y-81093169D01*
X147397663Y-80809002D01*
X147155998Y-80567337D01*
X146871831Y-80377463D01*
X146556081Y-80246675D01*
X146220883Y-80180000D01*
X145879117Y-80180000D01*
X145543919Y-80246675D01*
X145228169Y-80377463D01*
X144944002Y-80567337D01*
X144702337Y-80809002D01*
X144512463Y-81093169D01*
X144381675Y-81408919D01*
X144315000Y-81744117D01*
X140286876Y-81744117D01*
X140287117Y-81700000D01*
X140274857Y-81575518D01*
X140238547Y-81455820D01*
X140179582Y-81345506D01*
X140100230Y-81248815D01*
X140003539Y-81169463D01*
X139893225Y-81110498D01*
X139773527Y-81074188D01*
X139649045Y-81061928D01*
X139084795Y-81065000D01*
X138926045Y-81223750D01*
X138672045Y-81223750D01*
X138513295Y-81065000D01*
X137949045Y-81061928D01*
X137824563Y-81074188D01*
X137704865Y-81110498D01*
X137594551Y-81169463D01*
X137497860Y-81248815D01*
X137418508Y-81345506D01*
X137359543Y-81455820D01*
X137337532Y-81528380D01*
X137205677Y-81396525D01*
X136962456Y-81234010D01*
X136692203Y-81122068D01*
X136405305Y-81065000D01*
X136112785Y-81065000D01*
X135825887Y-81122068D01*
X135555634Y-81234010D01*
X135312413Y-81396525D01*
X135105570Y-81603368D01*
X134989045Y-81777760D01*
X134872520Y-81603368D01*
X134665677Y-81396525D01*
X134422456Y-81234010D01*
X134152203Y-81122068D01*
X133865305Y-81065000D01*
X133572785Y-81065000D01*
X133285887Y-81122068D01*
X133015634Y-81234010D01*
X132772413Y-81396525D01*
X132565570Y-81603368D01*
X132403055Y-81846589D01*
X132291113Y-82116842D01*
X132234045Y-82403740D01*
X123691765Y-82403740D01*
X129537553Y-78156527D01*
X130854042Y-78156527D01*
X130854042Y-78449047D01*
X130911110Y-78735945D01*
X131023052Y-79006198D01*
X131185567Y-79249419D01*
X131392410Y-79456262D01*
X131635631Y-79618777D01*
X131905884Y-79730719D01*
X132192782Y-79787787D01*
X132485302Y-79787787D01*
X132772200Y-79730719D01*
X133042453Y-79618777D01*
X133285674Y-79456262D01*
X133492517Y-79249419D01*
X133655032Y-79006198D01*
X133766974Y-78735945D01*
X133824042Y-78449047D01*
X133824042Y-78181104D01*
X133960787Y-78237745D01*
X134247685Y-78294813D01*
X134540205Y-78294813D01*
X134827103Y-78237745D01*
X135097356Y-78125803D01*
X135340577Y-77963288D01*
X135547420Y-77756445D01*
X135709935Y-77513224D01*
X135821877Y-77242971D01*
X135869366Y-77004229D01*
X135927409Y-77048166D01*
X136039954Y-77102753D01*
X136160985Y-77134336D01*
X136285851Y-77141700D01*
X136409756Y-77124562D01*
X136527936Y-77083581D01*
X136635850Y-77020331D01*
X137090532Y-76686188D01*
X137125653Y-76464446D01*
X136420752Y-75494232D01*
X136404571Y-75505988D01*
X136287560Y-75344934D01*
X136626242Y-75344934D01*
X137331143Y-76315148D01*
X137552886Y-76350269D01*
X138011179Y-76021096D01*
X138104681Y-75938009D01*
X138180176Y-75838277D01*
X138234763Y-75725732D01*
X138266346Y-75604701D01*
X138273710Y-75479835D01*
X138256572Y-75355930D01*
X138215591Y-75237750D01*
X138152341Y-75129836D01*
X137818198Y-74675154D01*
X137596456Y-74640033D01*
X136626242Y-75344934D01*
X136287560Y-75344934D01*
X136255274Y-75300497D01*
X136271454Y-75288742D01*
X135566553Y-74318528D01*
X135344810Y-74283407D01*
X134886517Y-74612580D01*
X134793015Y-74695667D01*
X134717520Y-74795399D01*
X134662933Y-74907944D01*
X134631350Y-75028975D01*
X134623986Y-75153841D01*
X134641124Y-75277746D01*
X134666131Y-75349861D01*
X134540205Y-75324813D01*
X134247685Y-75324813D01*
X133960787Y-75381881D01*
X133690534Y-75493823D01*
X133447313Y-75656338D01*
X133240470Y-75863181D01*
X133077955Y-76106402D01*
X132966013Y-76376655D01*
X132908945Y-76663553D01*
X132908945Y-76931496D01*
X132772200Y-76874855D01*
X132485302Y-76817787D01*
X132192782Y-76817787D01*
X131905884Y-76874855D01*
X131635631Y-76986797D01*
X131392410Y-77149312D01*
X131185567Y-77356155D01*
X131023052Y-77599376D01*
X130911110Y-77869629D01*
X130854042Y-78156527D01*
X129537553Y-78156527D01*
X135025597Y-74169230D01*
X135772043Y-74169230D01*
X136476944Y-75139444D01*
X137447158Y-74434543D01*
X137482279Y-74212800D01*
X137153106Y-73754507D01*
X137070019Y-73661005D01*
X136970287Y-73585510D01*
X136857742Y-73530923D01*
X136736711Y-73499340D01*
X136611845Y-73491976D01*
X136487940Y-73509114D01*
X136369760Y-73550095D01*
X136261846Y-73613345D01*
X135807164Y-73947488D01*
X135772043Y-74169230D01*
X135025597Y-74169230D01*
X136915602Y-72796061D01*
X147809000Y-72796061D01*
X147809000Y-72999939D01*
X147848774Y-73199898D01*
X147926795Y-73388256D01*
X148040063Y-73557774D01*
X148184226Y-73701937D01*
X148353744Y-73815205D01*
X148542102Y-73893226D01*
X148553139Y-73895421D01*
X148555001Y-73914323D01*
X148555001Y-73914334D01*
X148565998Y-74025987D01*
X148609455Y-74169248D01*
X148680027Y-74301277D01*
X148775001Y-74417002D01*
X148803999Y-74440800D01*
X150603000Y-76239802D01*
X150603000Y-76301939D01*
X150642774Y-76501898D01*
X150720795Y-76690256D01*
X150834063Y-76859774D01*
X150978226Y-77003937D01*
X151147744Y-77117205D01*
X151336102Y-77195226D01*
X151536061Y-77235000D01*
X151739939Y-77235000D01*
X151939898Y-77195226D01*
X152128256Y-77117205D01*
X152297774Y-77003937D01*
X152441937Y-76859774D01*
X152550426Y-76697408D01*
X161544000Y-76697408D01*
X161544000Y-76972592D01*
X161597686Y-77242490D01*
X161702995Y-77496727D01*
X161855880Y-77725535D01*
X162050465Y-77920120D01*
X162279273Y-78073005D01*
X162533510Y-78178314D01*
X162803408Y-78232000D01*
X163078592Y-78232000D01*
X163348490Y-78178314D01*
X163602727Y-78073005D01*
X163831535Y-77920120D01*
X164026120Y-77725535D01*
X164179005Y-77496727D01*
X164284314Y-77242490D01*
X164338000Y-76972592D01*
X164338000Y-76697408D01*
X164284314Y-76427510D01*
X164179005Y-76173273D01*
X164026120Y-75944465D01*
X163831535Y-75749880D01*
X163602727Y-75596995D01*
X163348490Y-75491686D01*
X163078592Y-75438000D01*
X162803408Y-75438000D01*
X162533510Y-75491686D01*
X162279273Y-75596995D01*
X162050465Y-75749880D01*
X161855880Y-75944465D01*
X161702995Y-76173273D01*
X161597686Y-76427510D01*
X161544000Y-76697408D01*
X152550426Y-76697408D01*
X152555205Y-76690256D01*
X152633226Y-76501898D01*
X152673000Y-76301939D01*
X152673000Y-76098061D01*
X152633226Y-75898102D01*
X152555205Y-75709744D01*
X152441937Y-75540226D01*
X152297774Y-75396063D01*
X152128256Y-75282795D01*
X151939898Y-75204774D01*
X151739939Y-75165000D01*
X151677802Y-75165000D01*
X150075001Y-73562200D01*
X150075001Y-73406323D01*
X150078677Y-73369000D01*
X150075001Y-73331678D01*
X150075001Y-73331668D01*
X150064004Y-73220015D01*
X150020547Y-73076754D01*
X150004635Y-73046985D01*
X149949975Y-72944724D01*
X149911629Y-72898000D01*
X149879000Y-72858242D01*
X149879000Y-72796061D01*
X149839226Y-72596102D01*
X149761205Y-72407744D01*
X149647937Y-72238226D01*
X149503774Y-72094063D01*
X149334256Y-71980795D01*
X149145898Y-71902774D01*
X148945939Y-71863000D01*
X148742061Y-71863000D01*
X148542102Y-71902774D01*
X148353744Y-71980795D01*
X148184226Y-72094063D01*
X148040063Y-72238226D01*
X147926795Y-72407744D01*
X147848774Y-72596102D01*
X147809000Y-72796061D01*
X136915602Y-72796061D01*
X141334687Y-69585408D01*
X145161000Y-69585408D01*
X145161000Y-69860592D01*
X145214686Y-70130490D01*
X145319995Y-70384727D01*
X145472880Y-70613535D01*
X145667465Y-70808120D01*
X145896273Y-70961005D01*
X146150510Y-71066314D01*
X146420408Y-71120000D01*
X146695592Y-71120000D01*
X146965490Y-71066314D01*
X147081982Y-71018061D01*
X154159000Y-71018061D01*
X154159000Y-71221939D01*
X154198774Y-71421898D01*
X154276795Y-71610256D01*
X154390063Y-71779774D01*
X154534226Y-71923937D01*
X154703744Y-72037205D01*
X154859430Y-72101693D01*
X155968544Y-74161477D01*
X155937000Y-74320061D01*
X155937000Y-74523939D01*
X155976774Y-74723898D01*
X156054795Y-74912256D01*
X156168063Y-75081774D01*
X156312226Y-75225937D01*
X156481744Y-75339205D01*
X156670102Y-75417226D01*
X156870061Y-75457000D01*
X157073939Y-75457000D01*
X157273898Y-75417226D01*
X157462256Y-75339205D01*
X157631774Y-75225937D01*
X157775937Y-75081774D01*
X157889205Y-74912256D01*
X157967226Y-74723898D01*
X158007000Y-74523939D01*
X158007000Y-74320061D01*
X157967226Y-74120102D01*
X157889205Y-73931744D01*
X157781989Y-73771284D01*
X157885774Y-73701937D01*
X158029937Y-73557774D01*
X158143205Y-73388256D01*
X158221226Y-73199898D01*
X158261000Y-72999939D01*
X158261000Y-72796061D01*
X158221226Y-72596102D01*
X158143205Y-72407744D01*
X158121855Y-72375791D01*
X172476490Y-72375791D01*
X172805663Y-72834084D01*
X172888750Y-72927586D01*
X172988482Y-73003081D01*
X173101027Y-73057668D01*
X173222058Y-73089251D01*
X173346924Y-73096615D01*
X173470829Y-73079477D01*
X173589009Y-73038496D01*
X173696923Y-72975246D01*
X174151605Y-72641103D01*
X174186726Y-72419361D01*
X173481825Y-71449147D01*
X172511611Y-72154048D01*
X172476490Y-72375791D01*
X158121855Y-72375791D01*
X158029937Y-72238226D01*
X157885774Y-72094063D01*
X157722842Y-71985196D01*
X157430696Y-71108756D01*
X171685059Y-71108756D01*
X171702197Y-71232661D01*
X171743178Y-71350841D01*
X171806428Y-71458755D01*
X172140571Y-71913437D01*
X172362313Y-71948558D01*
X173332527Y-71243657D01*
X172627626Y-70273443D01*
X172405883Y-70238322D01*
X171947590Y-70567495D01*
X171854088Y-70650582D01*
X171778593Y-70750314D01*
X171724006Y-70862859D01*
X171692423Y-70983890D01*
X171685059Y-71108756D01*
X157430696Y-71108756D01*
X157407427Y-71038951D01*
X157459226Y-70913898D01*
X157499000Y-70713939D01*
X157499000Y-70510061D01*
X157459226Y-70310102D01*
X157382200Y-70124145D01*
X172833116Y-70124145D01*
X173538017Y-71094359D01*
X173554198Y-71082603D01*
X173703495Y-71288094D01*
X173687315Y-71299849D01*
X174392216Y-72270063D01*
X174613959Y-72305184D01*
X175072252Y-71976011D01*
X175165754Y-71892924D01*
X175241249Y-71793192D01*
X175295836Y-71680647D01*
X175327419Y-71559616D01*
X175334783Y-71434750D01*
X175317645Y-71310845D01*
X175292638Y-71238730D01*
X175418564Y-71263778D01*
X175711084Y-71263778D01*
X175997982Y-71206710D01*
X176268235Y-71094768D01*
X176511456Y-70932253D01*
X176718299Y-70725410D01*
X176880814Y-70482189D01*
X176992756Y-70211936D01*
X177049824Y-69925038D01*
X177049824Y-69657095D01*
X177186569Y-69713736D01*
X177473467Y-69770804D01*
X177765987Y-69770804D01*
X178052885Y-69713736D01*
X178323138Y-69601794D01*
X178566359Y-69439279D01*
X178773202Y-69232436D01*
X178935717Y-68989215D01*
X179047659Y-68718962D01*
X179104727Y-68432064D01*
X179104727Y-68139544D01*
X179047659Y-67852646D01*
X178935717Y-67582393D01*
X178773202Y-67339172D01*
X178566359Y-67132329D01*
X178323138Y-66969814D01*
X178052885Y-66857872D01*
X177765987Y-66800804D01*
X177473467Y-66800804D01*
X177186569Y-66857872D01*
X176916316Y-66969814D01*
X176673095Y-67132329D01*
X176466252Y-67339172D01*
X176303737Y-67582393D01*
X176191795Y-67852646D01*
X176134727Y-68139544D01*
X176134727Y-68407487D01*
X175997982Y-68350846D01*
X175711084Y-68293778D01*
X175418564Y-68293778D01*
X175131666Y-68350846D01*
X174861413Y-68462788D01*
X174618192Y-68625303D01*
X174411349Y-68832146D01*
X174248834Y-69075367D01*
X174136892Y-69345620D01*
X174089403Y-69584362D01*
X174031360Y-69540425D01*
X173918815Y-69485838D01*
X173797784Y-69454255D01*
X173672918Y-69446891D01*
X173549013Y-69464029D01*
X173430833Y-69505010D01*
X173322919Y-69568260D01*
X172868237Y-69902403D01*
X172833116Y-70124145D01*
X157382200Y-70124145D01*
X157381205Y-70121744D01*
X157267937Y-69952226D01*
X157123774Y-69808063D01*
X156954256Y-69694795D01*
X156765898Y-69616774D01*
X156565939Y-69577000D01*
X156362061Y-69577000D01*
X156162102Y-69616774D01*
X155973744Y-69694795D01*
X155804226Y-69808063D01*
X155660063Y-69952226D01*
X155546795Y-70121744D01*
X155538270Y-70142325D01*
X155495898Y-70124774D01*
X155295939Y-70085000D01*
X155092061Y-70085000D01*
X154892102Y-70124774D01*
X154703744Y-70202795D01*
X154534226Y-70316063D01*
X154390063Y-70460226D01*
X154276795Y-70629744D01*
X154198774Y-70818102D01*
X154159000Y-71018061D01*
X147081982Y-71018061D01*
X147219727Y-70961005D01*
X147448535Y-70808120D01*
X147643120Y-70613535D01*
X147796005Y-70384727D01*
X147901314Y-70130490D01*
X147955000Y-69860592D01*
X147955000Y-69585408D01*
X147901314Y-69315510D01*
X147796005Y-69061273D01*
X147643120Y-68832465D01*
X147448535Y-68637880D01*
X147219727Y-68484995D01*
X146965490Y-68379686D01*
X146695592Y-68326000D01*
X146420408Y-68326000D01*
X146150510Y-68379686D01*
X145896273Y-68484995D01*
X145667465Y-68637880D01*
X145472880Y-68832465D01*
X145319995Y-69061273D01*
X145214686Y-69315510D01*
X145161000Y-69585408D01*
X141334687Y-69585408D01*
X148022928Y-64726117D01*
X161587000Y-64726117D01*
X161587000Y-65067883D01*
X161653675Y-65403081D01*
X161784463Y-65718831D01*
X161974337Y-66002998D01*
X162216002Y-66244663D01*
X162500169Y-66434537D01*
X162815919Y-66565325D01*
X163151117Y-66632000D01*
X163492883Y-66632000D01*
X163828081Y-66565325D01*
X164143831Y-66434537D01*
X164427998Y-66244663D01*
X164669663Y-66002998D01*
X164859537Y-65718831D01*
X164990325Y-65403081D01*
X165057000Y-65067883D01*
X165057000Y-64888590D01*
X169671652Y-64888590D01*
X169683912Y-65013072D01*
X169720222Y-65132770D01*
X169779187Y-65243084D01*
X169858539Y-65339775D01*
X169955230Y-65419127D01*
X170065544Y-65478092D01*
X170185242Y-65514402D01*
X170309724Y-65526662D01*
X170873974Y-65523590D01*
X171032724Y-65364840D01*
X171032724Y-64165590D01*
X169833474Y-64165590D01*
X169674724Y-64324340D01*
X169671652Y-64888590D01*
X165057000Y-64888590D01*
X165057000Y-64726117D01*
X164990325Y-64390919D01*
X164859537Y-64075169D01*
X164669663Y-63791002D01*
X164427998Y-63549337D01*
X164143831Y-63359463D01*
X163828081Y-63228675D01*
X163626561Y-63188590D01*
X169671652Y-63188590D01*
X169674724Y-63752840D01*
X169833474Y-63911590D01*
X171032724Y-63911590D01*
X171032724Y-62712340D01*
X171286724Y-62712340D01*
X171286724Y-63911590D01*
X171306724Y-63911590D01*
X171306724Y-64165590D01*
X171286724Y-64165590D01*
X171286724Y-65364840D01*
X171445474Y-65523590D01*
X172009724Y-65526662D01*
X172134206Y-65514402D01*
X172253904Y-65478092D01*
X172364218Y-65419127D01*
X172460909Y-65339775D01*
X172540261Y-65243084D01*
X172599226Y-65132770D01*
X172621237Y-65060210D01*
X172753092Y-65192065D01*
X172996313Y-65354580D01*
X173266566Y-65466522D01*
X173553464Y-65523590D01*
X173845984Y-65523590D01*
X174132882Y-65466522D01*
X174403135Y-65354580D01*
X174646356Y-65192065D01*
X174853199Y-64985222D01*
X174969724Y-64810830D01*
X175086249Y-64985222D01*
X175293092Y-65192065D01*
X175536313Y-65354580D01*
X175806566Y-65466522D01*
X176093464Y-65523590D01*
X176385984Y-65523590D01*
X176672882Y-65466522D01*
X176943135Y-65354580D01*
X177186356Y-65192065D01*
X177393199Y-64985222D01*
X177555714Y-64742001D01*
X177667656Y-64471748D01*
X177724724Y-64184850D01*
X177724724Y-63892330D01*
X177667656Y-63605432D01*
X177555714Y-63335179D01*
X177393199Y-63091958D01*
X177186356Y-62885115D01*
X176943135Y-62722600D01*
X176672882Y-62610658D01*
X176385984Y-62553590D01*
X176093464Y-62553590D01*
X175806566Y-62610658D01*
X175536313Y-62722600D01*
X175293092Y-62885115D01*
X175086249Y-63091958D01*
X174969724Y-63266350D01*
X174853199Y-63091958D01*
X174646356Y-62885115D01*
X174403135Y-62722600D01*
X174132882Y-62610658D01*
X173845984Y-62553590D01*
X173553464Y-62553590D01*
X173266566Y-62610658D01*
X172996313Y-62722600D01*
X172753092Y-62885115D01*
X172621237Y-63016970D01*
X172599226Y-62944410D01*
X172540261Y-62834096D01*
X172460909Y-62737405D01*
X172364218Y-62658053D01*
X172253904Y-62599088D01*
X172134206Y-62562778D01*
X172009724Y-62550518D01*
X171445474Y-62553590D01*
X171286724Y-62712340D01*
X171032724Y-62712340D01*
X170873974Y-62553590D01*
X170309724Y-62550518D01*
X170185242Y-62562778D01*
X170065544Y-62599088D01*
X169955230Y-62658053D01*
X169858539Y-62737405D01*
X169779187Y-62834096D01*
X169720222Y-62944410D01*
X169683912Y-63064108D01*
X169671652Y-63188590D01*
X163626561Y-63188590D01*
X163492883Y-63162000D01*
X163151117Y-63162000D01*
X162815919Y-63228675D01*
X162500169Y-63359463D01*
X162216002Y-63549337D01*
X161974337Y-63791002D01*
X161784463Y-64075169D01*
X161653675Y-64390919D01*
X161587000Y-64726117D01*
X148022928Y-64726117D01*
X151398542Y-62273591D01*
X188897627Y-62273591D01*
X158560230Y-84315000D01*
G37*
%TD.AperFunction*%
%TD*%
M02*
