%TF.GenerationSoftware,KiCad,Pcbnew,5.1.9*%
%TF.CreationDate,2021-02-12T10:45:54-05:00*%
%TF.ProjectId,penroserombus_thin_40mm,70656e72-6f73-4657-926f-6d6275735f74,rev?*%
%TF.SameCoordinates,Original*%
%TF.FileFunction,Legend,Bot*%
%TF.FilePolarity,Positive*%
%FSLAX46Y46*%
G04 Gerber Fmt 4.6, Leading zero omitted, Abs format (unit mm)*
G04 Created by KiCad (PCBNEW 5.1.9) date 2021-02-12 10:45:54*
%MOMM*%
%LPD*%
G01*
G04 APERTURE LIST*
%ADD10C,0.200000*%
%ADD11C,0.120000*%
%ADD12C,0.150000*%
%ADD13C,3.200000*%
%ADD14C,1.150000*%
%ADD15C,0.100000*%
%ADD16O,1.700000X1.700000*%
%ADD17R,1.700000X1.700000*%
G04 APERTURE END LIST*
D10*
X138609703Y-79256260D02*
X138701180Y-79306648D01*
X138736496Y-79415341D01*
X138703880Y-79546105D01*
X138591558Y-79662712D01*
X138467465Y-79743088D01*
X138207507Y-79867609D01*
X138003709Y-79933827D01*
X137720207Y-79985887D01*
X137572569Y-79993802D01*
X137413160Y-79965486D01*
X137309911Y-79878866D01*
X137286367Y-79806405D01*
X137318983Y-79675640D01*
X137375144Y-79617336D01*
X137850672Y-79462828D01*
X137897760Y-79607751D01*
X138084387Y-79026388D02*
X137133330Y-79335405D01*
X137948521Y-79070533D02*
X138004682Y-79012230D01*
X138049070Y-78917696D01*
X138013754Y-78809004D01*
X137922277Y-78758615D01*
X137774640Y-78766530D01*
X137027381Y-79009329D01*
X136803712Y-78320945D02*
X138230297Y-77857419D01*
X136871644Y-78298872D02*
X136827256Y-78393406D01*
X136874344Y-78538329D01*
X136965821Y-78588718D01*
X137045526Y-78602876D01*
X137193163Y-78594962D01*
X137600759Y-78462526D01*
X137724852Y-78382150D01*
X137781012Y-78323846D01*
X137825401Y-78229312D01*
X137778313Y-78084389D01*
X137686836Y-78034001D01*
X136482926Y-80407932D02*
X134973937Y-80617843D01*
X136318117Y-79900702D01*
X134771112Y-79762463D02*
X134726723Y-79856997D01*
X134773812Y-80001920D01*
X134865289Y-80052309D01*
X134944993Y-80066467D01*
X135092631Y-80058553D01*
X135500226Y-79926117D01*
X135624319Y-79845741D01*
X135680480Y-79787437D01*
X135724868Y-79692903D01*
X135677780Y-79547980D01*
X135586303Y-79497592D01*
X134559215Y-79110310D02*
X134514826Y-79204844D01*
X134561914Y-79349767D01*
X134653391Y-79400156D01*
X134733096Y-79414314D01*
X134880733Y-79406400D01*
X135288329Y-79273964D01*
X135412422Y-79193588D01*
X135468582Y-79135284D01*
X135512971Y-79040750D01*
X135465883Y-78895827D01*
X135374406Y-78845439D01*
X132791000Y-81827819D02*
X134217585Y-81364293D01*
X134158724Y-81183140D01*
X134055476Y-81096520D01*
X133896066Y-81068204D01*
X133748429Y-81076118D01*
X133464926Y-81128178D01*
X133261129Y-81194396D01*
X133001170Y-81318918D01*
X132877077Y-81399294D01*
X132764756Y-81515900D01*
X132732140Y-81646665D01*
X132791000Y-81827819D01*
X132437838Y-80740897D02*
X133185096Y-80498098D01*
X133332734Y-80490183D01*
X133424211Y-80540572D01*
X133471299Y-80685495D01*
X133426910Y-80780029D01*
X132505770Y-80718824D02*
X132461382Y-80813358D01*
X132520242Y-80994512D01*
X132611719Y-81044901D01*
X132759356Y-81036986D01*
X132895222Y-80992841D01*
X133019315Y-80912465D01*
X133063703Y-80817931D01*
X133004843Y-80636777D01*
X133049231Y-80542243D01*
X133306490Y-80178265D02*
X133212313Y-79888419D01*
X133746702Y-79915064D02*
X132523915Y-80312372D01*
X132376278Y-80320286D01*
X132284801Y-80269898D01*
X132261257Y-80197436D01*
X132072903Y-79617745D02*
X132820162Y-79374945D01*
X132967799Y-79367031D01*
X133059276Y-79417420D01*
X133106364Y-79562343D01*
X133061976Y-79656877D01*
X132140836Y-79595672D02*
X132096448Y-79690206D01*
X132155308Y-79871360D01*
X132246785Y-79921748D01*
X132394422Y-79913834D01*
X132530287Y-79869689D01*
X132654380Y-79789313D01*
X132698769Y-79694778D01*
X132639908Y-79513625D01*
X132684297Y-79419091D01*
X171346496Y-67530339D02*
X171255019Y-67479951D01*
X171219703Y-67371258D01*
X171252319Y-67240494D01*
X171364641Y-67123887D01*
X171488734Y-67043511D01*
X171748692Y-66918990D01*
X171952490Y-66852772D01*
X172235992Y-66800712D01*
X172383630Y-66792797D01*
X172543039Y-66821113D01*
X172646288Y-66907733D01*
X172669832Y-66980194D01*
X172637216Y-67110959D01*
X172581055Y-67169263D01*
X172105527Y-67323771D01*
X172058439Y-67178848D01*
X171871812Y-67760211D02*
X172822869Y-67451194D01*
X172007678Y-67716066D02*
X171951517Y-67774369D01*
X171907129Y-67868903D01*
X171942445Y-67977595D01*
X172033922Y-68027984D01*
X172181559Y-68020069D01*
X172928818Y-67777270D01*
X173152487Y-68465654D02*
X171725902Y-68929180D01*
X173084555Y-68487727D02*
X173128943Y-68393193D01*
X173081855Y-68248270D01*
X172990378Y-68197881D01*
X172910673Y-68183723D01*
X172763036Y-68191637D01*
X172355440Y-68324073D01*
X172231347Y-68404449D01*
X172175187Y-68462753D01*
X172130798Y-68557287D01*
X172177886Y-68702210D01*
X172269363Y-68752598D01*
X173473273Y-66378667D02*
X174982262Y-66168756D01*
X173638082Y-66885897D01*
X175185087Y-67024136D02*
X175229476Y-66929602D01*
X175182387Y-66784679D01*
X175090910Y-66734290D01*
X175011206Y-66720132D01*
X174863568Y-66728046D01*
X174455973Y-66860482D01*
X174331880Y-66940858D01*
X174275719Y-66999162D01*
X174231331Y-67093696D01*
X174278419Y-67238619D01*
X174369896Y-67289007D01*
X175396984Y-67676289D02*
X175441373Y-67581755D01*
X175394285Y-67436832D01*
X175302808Y-67386443D01*
X175223103Y-67372285D01*
X175075466Y-67380199D01*
X174667870Y-67512635D01*
X174543777Y-67593011D01*
X174487617Y-67651315D01*
X174443228Y-67745849D01*
X174490316Y-67890772D01*
X174581793Y-67941160D01*
X177165199Y-64958780D02*
X175738614Y-65422306D01*
X175797475Y-65603459D01*
X175900723Y-65690079D01*
X176060133Y-65718395D01*
X176207770Y-65710481D01*
X176491273Y-65658421D01*
X176695070Y-65592203D01*
X176955029Y-65467681D01*
X177079122Y-65387305D01*
X177191443Y-65270699D01*
X177224059Y-65139934D01*
X177165199Y-64958780D01*
X177518361Y-66045702D02*
X176771103Y-66288501D01*
X176623465Y-66296416D01*
X176531988Y-66246027D01*
X176484900Y-66101104D01*
X176529289Y-66006570D01*
X177450429Y-66067775D02*
X177494817Y-65973241D01*
X177435957Y-65792087D01*
X177344480Y-65741698D01*
X177196843Y-65749613D01*
X177060977Y-65793758D01*
X176936884Y-65874134D01*
X176892496Y-65968668D01*
X176951356Y-66149822D01*
X176906968Y-66244356D01*
X176649709Y-66608334D02*
X176743886Y-66898180D01*
X176209497Y-66871535D02*
X177432284Y-66474227D01*
X177579921Y-66466313D01*
X177671398Y-66516701D01*
X177694942Y-66589163D01*
X177883296Y-67168854D02*
X177136037Y-67411654D01*
X176988400Y-67419568D01*
X176896923Y-67369179D01*
X176849835Y-67224256D01*
X176894223Y-67129722D01*
X177815363Y-67190927D02*
X177859751Y-67096393D01*
X177800891Y-66915239D01*
X177709414Y-66864851D01*
X177561777Y-66872765D01*
X177425912Y-66916910D01*
X177301819Y-66997286D01*
X177257430Y-67091821D01*
X177316291Y-67272974D01*
X177271902Y-67367508D01*
D11*
%TO.C,M3*%
X165148787Y-63681283D02*
X166004738Y-63403168D01*
X166004738Y-63403168D02*
X166375559Y-64544436D01*
X157867640Y-77192571D02*
X158300264Y-78524050D01*
X158300264Y-78524050D02*
X159346426Y-78184131D01*
X150802554Y-68342656D02*
X151658505Y-68064541D01*
X151658505Y-68064541D02*
X152029326Y-69205809D01*
X143521407Y-81853944D02*
X143954031Y-83185423D01*
X143954031Y-83185423D02*
X145000193Y-82845504D01*
D12*
X162113336Y-68821043D02*
X161804319Y-67869986D01*
X161708026Y-68652318D01*
X161170281Y-68075998D01*
X161479298Y-69027054D01*
X160807974Y-68193718D02*
X160219225Y-68385015D01*
X160653964Y-68644316D01*
X160518099Y-68688461D01*
X160442237Y-68763180D01*
X160411664Y-68823184D01*
X160395806Y-68928475D01*
X160469381Y-69154917D01*
X160544100Y-69230779D01*
X160604103Y-69261352D01*
X160709395Y-69277211D01*
X160981126Y-69188920D01*
X161056987Y-69114202D01*
X161087561Y-69054198D01*
X147503256Y-73403203D02*
X147194239Y-72452146D01*
X147097946Y-73234478D01*
X146560201Y-72658158D01*
X146869218Y-73609214D01*
X146197894Y-72775878D02*
X145609145Y-72967175D01*
X146043884Y-73226476D01*
X145908019Y-73270621D01*
X145832157Y-73345340D01*
X145801584Y-73405344D01*
X145785726Y-73510635D01*
X145859301Y-73737077D01*
X145934020Y-73812939D01*
X145994023Y-73843512D01*
X146099315Y-73859371D01*
X146371046Y-73771080D01*
X146446907Y-73696362D01*
X146477481Y-73636358D01*
%TD*%
%LPC*%
D13*
%TO.C,M3*%
X162152501Y-70963609D03*
%TD*%
%TO.C,M3*%
X147806268Y-75624982D03*
%TD*%
%TO.C,M3*%
X127168342Y-82330651D03*
%TD*%
%TO.C,M3*%
X152996675Y-81700001D03*
%TD*%
%TO.C,M3*%
X182790427Y-64257940D03*
%TD*%
%TO.C,M3*%
X156962095Y-64888590D03*
%TD*%
D14*
%TO.C,MH*%
X157439371Y-80865352D03*
%TD*%
%TO.C,MH*%
X152519399Y-65723239D03*
%TD*%
D15*
%TO.C,J3*%
G36*
X134235591Y-75875041D02*
G01*
X135610920Y-74875806D01*
X136610155Y-76251135D01*
X135234826Y-77250370D01*
X134235591Y-75875041D01*
G37*
G36*
G01*
X132868353Y-76868399D02*
X132868353Y-76868399D01*
G75*
G02*
X134055634Y-77056446I499617J-687664D01*
G01*
X134055634Y-77056446D01*
G75*
G02*
X133867587Y-78243727I-687664J-499617D01*
G01*
X133867587Y-78243727D01*
G75*
G02*
X132680306Y-78055680I-499617J687664D01*
G01*
X132680306Y-78055680D01*
G75*
G02*
X132868353Y-76868399I687664J499617D01*
G01*
G37*
G36*
G01*
X130813450Y-78361373D02*
X130813450Y-78361373D01*
G75*
G02*
X132000731Y-78549420I499617J-687664D01*
G01*
X132000731Y-78549420D01*
G75*
G02*
X131812684Y-79736701I-687664J-499617D01*
G01*
X131812684Y-79736701D01*
G75*
G02*
X130625403Y-79548654I-499617J687664D01*
G01*
X130625403Y-79548654D01*
G75*
G02*
X130813450Y-78361373I687664J499617D01*
G01*
G37*
%TD*%
D16*
%TO.C,J1*%
X177508389Y-64039267D03*
X174968389Y-64039267D03*
D17*
X172428389Y-64039267D03*
%TD*%
%TO.C,J2*%
X138799045Y-82550000D03*
D16*
X136259045Y-82550000D03*
X133719045Y-82550000D03*
%TD*%
%TO.C,J4*%
G36*
G01*
X178119344Y-68973468D02*
X178119344Y-68973468D01*
G75*
G02*
X176932063Y-68785421I-499617J687664D01*
G01*
X176932063Y-68785421D01*
G75*
G02*
X177120110Y-67598140I687664J499617D01*
G01*
X177120110Y-67598140D01*
G75*
G02*
X178307391Y-67786187I499617J-687664D01*
G01*
X178307391Y-67786187D01*
G75*
G02*
X178119344Y-68973468I-687664J-499617D01*
G01*
G37*
G36*
G01*
X176064441Y-70466442D02*
X176064441Y-70466442D01*
G75*
G02*
X174877160Y-70278395I-499617J687664D01*
G01*
X174877160Y-70278395D01*
G75*
G02*
X175065207Y-69091114I687664J499617D01*
G01*
X175065207Y-69091114D01*
G75*
G02*
X176252488Y-69279161I499617J-687664D01*
G01*
X176252488Y-69279161D01*
G75*
G02*
X176064441Y-70466442I-687664J-499617D01*
G01*
G37*
D15*
G36*
X174697203Y-71459800D02*
G01*
X173321874Y-72459035D01*
X172322639Y-71083706D01*
X173697968Y-70084471D01*
X174697203Y-71459800D01*
G37*
%TD*%
M02*
