%TF.GenerationSoftware,KiCad,Pcbnew,5.1.8*%
%TF.CreationDate,2021-01-12T11:43:30-05:00*%
%TF.ProjectId,penroserombus_thin_40mm,70656e72-6f73-4657-926f-6d6275735f74,rev?*%
%TF.SameCoordinates,Original*%
%TF.FileFunction,Copper,L1,Top*%
%TF.FilePolarity,Positive*%
%FSLAX46Y46*%
G04 Gerber Fmt 4.6, Leading zero omitted, Abs format (unit mm)*
G04 Created by KiCad (PCBNEW 5.1.8) date 2021-01-12 11:43:30*
%MOMM*%
%LPD*%
G01*
G04 APERTURE LIST*
%TA.AperFunction,ComponentPad*%
%ADD10C,0.100000*%
%TD*%
%TA.AperFunction,ComponentPad*%
%ADD11O,1.700000X1.700000*%
%TD*%
%TA.AperFunction,ComponentPad*%
%ADD12R,1.700000X1.700000*%
%TD*%
%TA.AperFunction,SMDPad,CuDef*%
%ADD13C,0.100000*%
%TD*%
%TA.AperFunction,SMDPad,CuDef*%
%ADD14R,1.600000X0.850000*%
%TD*%
%TA.AperFunction,ViaPad*%
%ADD15C,0.800000*%
%TD*%
%TA.AperFunction,Conductor*%
%ADD16C,1.000000*%
%TD*%
%TA.AperFunction,Conductor*%
%ADD17C,1.250000*%
%TD*%
%TA.AperFunction,Conductor*%
%ADD18C,0.250000*%
%TD*%
%TA.AperFunction,Conductor*%
%ADD19C,0.254000*%
%TD*%
%TA.AperFunction,Conductor*%
%ADD20C,0.100000*%
%TD*%
G04 APERTURE END LIST*
%TA.AperFunction,ComponentPad*%
D10*
%TO.P,J3,1*%
%TO.N,GND*%
G36*
X135261566Y-75128791D02*
G01*
X136636895Y-74129556D01*
X137636130Y-75504885D01*
X136260801Y-76504120D01*
X135261566Y-75128791D01*
G37*
%TD.AperFunction*%
%TO.P,J3,2*%
%TO.N,VCC*%
%TA.AperFunction,ComponentPad*%
G36*
G01*
X133894328Y-76122149D02*
X133894328Y-76122149D01*
G75*
G02*
X135081609Y-76310196I499617J-687664D01*
G01*
X135081609Y-76310196D01*
G75*
G02*
X134893562Y-77497477I-687664J-499617D01*
G01*
X134893562Y-77497477D01*
G75*
G02*
X133706281Y-77309430I-499617J687664D01*
G01*
X133706281Y-77309430D01*
G75*
G02*
X133894328Y-76122149I687664J499617D01*
G01*
G37*
%TD.AperFunction*%
%TO.P,J3,3*%
%TO.N,Net-(D3-Pad4)*%
%TA.AperFunction,ComponentPad*%
G36*
G01*
X131839425Y-77615123D02*
X131839425Y-77615123D01*
G75*
G02*
X133026706Y-77803170I499617J-687664D01*
G01*
X133026706Y-77803170D01*
G75*
G02*
X132838659Y-78990451I-687664J-499617D01*
G01*
X132838659Y-78990451D01*
G75*
G02*
X131651378Y-78802404I-499617J687664D01*
G01*
X131651378Y-78802404D01*
G75*
G02*
X131839425Y-77615123I687664J499617D01*
G01*
G37*
%TD.AperFunction*%
%TD*%
%TO.P,C1,2*%
%TO.N,VCC*%
%TA.AperFunction,SMDPad,CuDef*%
G36*
G01*
X164785758Y-70543694D02*
X164492192Y-69640190D01*
G75*
G02*
X164652702Y-69325172I237764J77254D01*
G01*
X165294666Y-69116586D01*
G75*
G02*
X165609684Y-69277096I77254J-237764D01*
G01*
X165903250Y-70180600D01*
G75*
G02*
X165742740Y-70495618I-237764J-77254D01*
G01*
X165100776Y-70704204D01*
G75*
G02*
X164785758Y-70543694I-77254J237764D01*
G01*
G37*
%TD.AperFunction*%
%TO.P,C1,1*%
%TO.N,GND*%
%TA.AperFunction,SMDPad,CuDef*%
G36*
G01*
X162812316Y-71184904D02*
X162518750Y-70281400D01*
G75*
G02*
X162679260Y-69966382I237764J77254D01*
G01*
X163321224Y-69757796D01*
G75*
G02*
X163636242Y-69918306I77254J-237764D01*
G01*
X163929808Y-70821810D01*
G75*
G02*
X163769298Y-71136828I-237764J-77254D01*
G01*
X163127334Y-71345414D01*
G75*
G02*
X162812316Y-71184904I-77254J237764D01*
G01*
G37*
%TD.AperFunction*%
%TD*%
%TO.P,C2,1*%
%TO.N,GND*%
%TA.AperFunction,SMDPad,CuDef*%
G36*
G01*
X147321684Y-75246096D02*
X147615250Y-76149600D01*
G75*
G02*
X147454740Y-76464618I-237764J-77254D01*
G01*
X146812776Y-76673204D01*
G75*
G02*
X146497758Y-76512694I-77254J237764D01*
G01*
X146204192Y-75609190D01*
G75*
G02*
X146364702Y-75294172I237764J77254D01*
G01*
X147006666Y-75085586D01*
G75*
G02*
X147321684Y-75246096I77254J-237764D01*
G01*
G37*
%TD.AperFunction*%
%TO.P,C2,2*%
%TO.N,VCC*%
%TA.AperFunction,SMDPad,CuDef*%
G36*
G01*
X145348242Y-75887306D02*
X145641808Y-76790810D01*
G75*
G02*
X145481298Y-77105828I-237764J-77254D01*
G01*
X144839334Y-77314414D01*
G75*
G02*
X144524316Y-77153904I-77254J237764D01*
G01*
X144230750Y-76250400D01*
G75*
G02*
X144391260Y-75935382I237764J77254D01*
G01*
X145033224Y-75726796D01*
G75*
G02*
X145348242Y-75887306I77254J-237764D01*
G01*
G37*
%TD.AperFunction*%
%TD*%
D11*
%TO.P,J1,3*%
%TO.N,Net-(D1-Pad2)*%
X176239724Y-64038590D03*
%TO.P,J1,2*%
%TO.N,VCC*%
X173699724Y-64038590D03*
D12*
%TO.P,J1,1*%
%TO.N,GND*%
X171159724Y-64038590D03*
%TD*%
%TO.P,J2,1*%
%TO.N,GND*%
X138799045Y-82550000D03*
D11*
%TO.P,J2,2*%
%TO.N,VCC*%
X136259045Y-82550000D03*
%TO.P,J2,3*%
%TO.N,Net-(D2-Pad2)*%
X133719045Y-82550000D03*
%TD*%
%TO.P,J4,3*%
%TO.N,Net-(D4-Pad4)*%
%TA.AperFunction,ComponentPad*%
G36*
G01*
X178119344Y-68973468D02*
X178119344Y-68973468D01*
G75*
G02*
X176932063Y-68785421I-499617J687664D01*
G01*
X176932063Y-68785421D01*
G75*
G02*
X177120110Y-67598140I687664J499617D01*
G01*
X177120110Y-67598140D01*
G75*
G02*
X178307391Y-67786187I499617J-687664D01*
G01*
X178307391Y-67786187D01*
G75*
G02*
X178119344Y-68973468I-687664J-499617D01*
G01*
G37*
%TD.AperFunction*%
%TO.P,J4,2*%
%TO.N,VCC*%
%TA.AperFunction,ComponentPad*%
G36*
G01*
X176064441Y-70466442D02*
X176064441Y-70466442D01*
G75*
G02*
X174877160Y-70278395I-499617J687664D01*
G01*
X174877160Y-70278395D01*
G75*
G02*
X175065207Y-69091114I687664J499617D01*
G01*
X175065207Y-69091114D01*
G75*
G02*
X176252488Y-69279161I499617J-687664D01*
G01*
X176252488Y-69279161D01*
G75*
G02*
X176064441Y-70466442I-687664J-499617D01*
G01*
G37*
%TD.AperFunction*%
%TA.AperFunction,ComponentPad*%
D10*
%TO.P,J4,1*%
%TO.N,GND*%
G36*
X174697203Y-71459800D02*
G01*
X173321874Y-72459035D01*
X172322639Y-71083706D01*
X173697968Y-70084471D01*
X174697203Y-71459800D01*
G37*
%TD.AperFunction*%
%TD*%
%TA.AperFunction,SMDPad,CuDef*%
D13*
%TO.P,JP1,2*%
%TO.N,Net-(D2-Pad4)*%
G36*
X157249393Y-78908921D02*
G01*
X157712918Y-80335506D01*
X156761861Y-80644523D01*
X156298336Y-79217938D01*
X157249393Y-78908921D01*
G37*
%TD.AperFunction*%
%TA.AperFunction,SMDPad,CuDef*%
%TO.P,JP1,3*%
%TO.N,Net-(D3-Pad2)*%
G36*
X156000831Y-80891164D02*
G01*
X155977497Y-80898745D01*
X155929570Y-80909260D01*
X155880843Y-80915028D01*
X155831784Y-80915991D01*
X155782867Y-80912142D01*
X155734564Y-80903515D01*
X155687339Y-80890197D01*
X155641647Y-80872313D01*
X155597926Y-80850036D01*
X155556601Y-80823583D01*
X155518067Y-80793204D01*
X155482696Y-80759197D01*
X155450830Y-80721885D01*
X155422773Y-80681630D01*
X155398798Y-80638818D01*
X155379134Y-80593864D01*
X155371553Y-80570531D01*
X155370980Y-80570717D01*
X155216471Y-80095188D01*
X155217044Y-80095002D01*
X155209463Y-80071669D01*
X155198948Y-80023742D01*
X155193180Y-79975014D01*
X155192217Y-79925956D01*
X155196066Y-79877039D01*
X155204693Y-79828736D01*
X155218011Y-79781510D01*
X155235895Y-79735818D01*
X155258172Y-79692098D01*
X155284625Y-79650772D01*
X155315003Y-79612239D01*
X155349011Y-79576868D01*
X155386322Y-79545001D01*
X155426578Y-79516945D01*
X155469389Y-79492970D01*
X155514344Y-79473306D01*
X155537677Y-79465724D01*
X155537491Y-79465152D01*
X156060572Y-79295192D01*
X156524098Y-80721777D01*
X156001017Y-80891736D01*
X156000831Y-80891164D01*
G37*
%TD.AperFunction*%
%TA.AperFunction,SMDPad,CuDef*%
%TO.P,JP1,1*%
%TO.N,Net-(D4-Pad2)*%
G36*
X157487156Y-78831667D02*
G01*
X158010237Y-78661708D01*
X158010423Y-78662280D01*
X158033757Y-78654699D01*
X158081684Y-78644184D01*
X158130411Y-78638416D01*
X158179470Y-78637453D01*
X158228387Y-78641302D01*
X158276690Y-78649929D01*
X158323915Y-78663247D01*
X158369607Y-78681131D01*
X158413328Y-78703408D01*
X158454653Y-78729861D01*
X158493187Y-78760240D01*
X158528558Y-78794247D01*
X158560424Y-78831559D01*
X158588481Y-78871814D01*
X158612456Y-78914626D01*
X158632120Y-78959580D01*
X158639701Y-78982913D01*
X158640274Y-78982727D01*
X158794783Y-79458256D01*
X158794210Y-79458442D01*
X158801791Y-79481775D01*
X158812306Y-79529702D01*
X158818074Y-79578430D01*
X158819037Y-79627488D01*
X158815188Y-79676405D01*
X158806561Y-79724708D01*
X158793243Y-79771934D01*
X158775359Y-79817626D01*
X158753082Y-79861346D01*
X158726629Y-79902672D01*
X158696251Y-79941205D01*
X158662243Y-79976576D01*
X158624932Y-80008443D01*
X158584676Y-80036499D01*
X158541865Y-80060474D01*
X158496910Y-80080138D01*
X158473577Y-80087720D01*
X158473763Y-80088292D01*
X157950682Y-80258252D01*
X157487156Y-78831667D01*
G37*
%TD.AperFunction*%
%TD*%
%TA.AperFunction,SMDPad,CuDef*%
%TO.P,JP2,1*%
%TO.N,Net-(D3-Pad2)*%
G36*
X152881529Y-65094945D02*
G01*
X153404610Y-64924986D01*
X153404796Y-64925558D01*
X153428130Y-64917977D01*
X153476057Y-64907462D01*
X153524784Y-64901694D01*
X153573843Y-64900731D01*
X153622760Y-64904580D01*
X153671063Y-64913207D01*
X153718288Y-64926525D01*
X153763980Y-64944409D01*
X153807701Y-64966686D01*
X153849026Y-64993139D01*
X153887560Y-65023518D01*
X153922931Y-65057525D01*
X153954797Y-65094837D01*
X153982854Y-65135092D01*
X154006829Y-65177904D01*
X154026493Y-65222858D01*
X154034074Y-65246191D01*
X154034647Y-65246005D01*
X154189156Y-65721534D01*
X154188583Y-65721720D01*
X154196164Y-65745053D01*
X154206679Y-65792980D01*
X154212447Y-65841708D01*
X154213410Y-65890766D01*
X154209561Y-65939683D01*
X154200934Y-65987986D01*
X154187616Y-66035212D01*
X154169732Y-66080904D01*
X154147455Y-66124624D01*
X154121002Y-66165950D01*
X154090624Y-66204483D01*
X154056616Y-66239854D01*
X154019305Y-66271721D01*
X153979049Y-66299777D01*
X153936238Y-66323752D01*
X153891283Y-66343416D01*
X153867950Y-66350998D01*
X153868136Y-66351570D01*
X153345055Y-66521530D01*
X152881529Y-65094945D01*
G37*
%TD.AperFunction*%
%TA.AperFunction,SMDPad,CuDef*%
%TO.P,JP2,3*%
%TO.N,Net-(D4-Pad2)*%
G36*
X151395204Y-67154442D02*
G01*
X151371870Y-67162023D01*
X151323943Y-67172538D01*
X151275216Y-67178306D01*
X151226157Y-67179269D01*
X151177240Y-67175420D01*
X151128937Y-67166793D01*
X151081712Y-67153475D01*
X151036020Y-67135591D01*
X150992299Y-67113314D01*
X150950974Y-67086861D01*
X150912440Y-67056482D01*
X150877069Y-67022475D01*
X150845203Y-66985163D01*
X150817146Y-66944908D01*
X150793171Y-66902096D01*
X150773507Y-66857142D01*
X150765926Y-66833809D01*
X150765353Y-66833995D01*
X150610844Y-66358466D01*
X150611417Y-66358280D01*
X150603836Y-66334947D01*
X150593321Y-66287020D01*
X150587553Y-66238292D01*
X150586590Y-66189234D01*
X150590439Y-66140317D01*
X150599066Y-66092014D01*
X150612384Y-66044788D01*
X150630268Y-65999096D01*
X150652545Y-65955376D01*
X150678998Y-65914050D01*
X150709376Y-65875517D01*
X150743384Y-65840146D01*
X150780695Y-65808279D01*
X150820951Y-65780223D01*
X150863762Y-65756248D01*
X150908717Y-65736584D01*
X150932050Y-65729002D01*
X150931864Y-65728430D01*
X151454945Y-65558470D01*
X151918471Y-66985055D01*
X151395390Y-67155014D01*
X151395204Y-67154442D01*
G37*
%TD.AperFunction*%
%TA.AperFunction,SMDPad,CuDef*%
%TO.P,JP2,2*%
%TO.N,Net-(D1-Pad4)*%
G36*
X152643766Y-65172199D02*
G01*
X153107291Y-66598784D01*
X152156234Y-66907801D01*
X151692709Y-65481216D01*
X152643766Y-65172199D01*
G37*
%TD.AperFunction*%
%TD*%
%TA.AperFunction,SMDPad,CuDef*%
%TO.P,SW1,1*%
%TO.N,Net-(D3-Pad2)*%
G36*
X155747295Y-69062402D02*
G01*
X156793458Y-68722484D01*
X157396041Y-70577044D01*
X156349878Y-70916962D01*
X155747295Y-69062402D01*
G37*
%TD.AperFunction*%
%TA.AperFunction,SMDPad,CuDef*%
%TO.P,SW1,2*%
%TO.N,Net-(D1-Pad4)*%
G36*
X153369654Y-69834944D02*
G01*
X154415817Y-69495026D01*
X155018400Y-71349586D01*
X153972237Y-71689504D01*
X153369654Y-69834944D01*
G37*
%TD.AperFunction*%
%TA.AperFunction,SMDPad,CuDef*%
%TO.P,SW1,3*%
%TO.N,Net-(D4-Pad2)*%
G36*
X150992013Y-70607487D02*
G01*
X152038176Y-70267569D01*
X152640759Y-72122129D01*
X151594596Y-72462047D01*
X150992013Y-70607487D01*
G37*
%TD.AperFunction*%
%TA.AperFunction,SMDPad,CuDef*%
%TO.P,SW1,4*%
G36*
X157493241Y-74435871D02*
G01*
X158539404Y-74095953D01*
X159141987Y-75950513D01*
X158095824Y-76290431D01*
X157493241Y-74435871D01*
G37*
%TD.AperFunction*%
%TA.AperFunction,SMDPad,CuDef*%
%TO.P,SW1,5*%
%TO.N,Net-(D2-Pad4)*%
G36*
X155115600Y-75208414D02*
G01*
X156161763Y-74868496D01*
X156764346Y-76723056D01*
X155718183Y-77062974D01*
X155115600Y-75208414D01*
G37*
%TD.AperFunction*%
%TA.AperFunction,SMDPad,CuDef*%
%TO.P,SW1,6*%
%TO.N,Net-(D3-Pad2)*%
G36*
X152737959Y-75980956D02*
G01*
X153784122Y-75641038D01*
X154386705Y-77495598D01*
X153340542Y-77835516D01*
X152737959Y-75980956D01*
G37*
%TD.AperFunction*%
%TD*%
D14*
%TO.P,D1,1*%
%TO.N,VCC*%
X166781369Y-67555891D03*
%TO.P,D1,2*%
%TO.N,Net-(D1-Pad2)*%
X166781369Y-65805891D03*
%TO.P,D1,4*%
%TO.N,Net-(D1-Pad4)*%
X163281369Y-67555891D03*
%TO.P,D1,3*%
%TO.N,GND*%
X163281369Y-65805891D03*
%TD*%
%TO.P,D2,3*%
%TO.N,GND*%
X146677400Y-80782700D03*
%TO.P,D2,4*%
%TO.N,Net-(D2-Pad4)*%
X146677400Y-79032700D03*
%TO.P,D2,2*%
%TO.N,Net-(D2-Pad2)*%
X143177400Y-80782700D03*
%TO.P,D2,1*%
%TO.N,VCC*%
X143177400Y-79032700D03*
%TD*%
%TA.AperFunction,SMDPad,CuDef*%
D13*
%TO.P,D3,1*%
%TO.N,VCC*%
G36*
X145287394Y-72717552D02*
G01*
X145787011Y-73405216D01*
X144492584Y-74345672D01*
X143992967Y-73658008D01*
X145287394Y-72717552D01*
G37*
%TD.AperFunction*%
%TA.AperFunction,SMDPad,CuDef*%
%TO.P,D3,2*%
%TO.N,Net-(D3-Pad2)*%
G36*
X144258770Y-71301772D02*
G01*
X144758387Y-71989436D01*
X143463960Y-72929892D01*
X142964343Y-72242228D01*
X144258770Y-71301772D01*
G37*
%TD.AperFunction*%
%TA.AperFunction,SMDPad,CuDef*%
%TO.P,D3,4*%
%TO.N,Net-(D3-Pad4)*%
G36*
X142455834Y-74774800D02*
G01*
X142955451Y-75462464D01*
X141661024Y-76402920D01*
X141161407Y-75715256D01*
X142455834Y-74774800D01*
G37*
%TD.AperFunction*%
%TA.AperFunction,SMDPad,CuDef*%
%TO.P,D3,3*%
%TO.N,GND*%
G36*
X141427210Y-73359020D02*
G01*
X141926827Y-74046684D01*
X140632400Y-74987140D01*
X140132783Y-74299476D01*
X141427210Y-73359020D01*
G37*
%TD.AperFunction*%
%TD*%
%TA.AperFunction,SMDPad,CuDef*%
%TO.P,D4,3*%
%TO.N,GND*%
G36*
X168531559Y-73229570D02*
G01*
X168031942Y-72541906D01*
X169326369Y-71601450D01*
X169825986Y-72289114D01*
X168531559Y-73229570D01*
G37*
%TD.AperFunction*%
%TA.AperFunction,SMDPad,CuDef*%
%TO.P,D4,4*%
%TO.N,Net-(D4-Pad4)*%
G36*
X167502935Y-71813790D02*
G01*
X167003318Y-71126126D01*
X168297745Y-70185670D01*
X168797362Y-70873334D01*
X167502935Y-71813790D01*
G37*
%TD.AperFunction*%
%TA.AperFunction,SMDPad,CuDef*%
%TO.P,D4,2*%
%TO.N,Net-(D4-Pad2)*%
G36*
X165699999Y-75286818D02*
G01*
X165200382Y-74599154D01*
X166494809Y-73658698D01*
X166994426Y-74346362D01*
X165699999Y-75286818D01*
G37*
%TD.AperFunction*%
%TA.AperFunction,SMDPad,CuDef*%
%TO.P,D4,1*%
%TO.N,VCC*%
G36*
X164671375Y-73871038D02*
G01*
X164171758Y-73183374D01*
X165466185Y-72242918D01*
X165965802Y-72930582D01*
X164671375Y-73871038D01*
G37*
%TD.AperFunction*%
%TD*%
D15*
%TO.N,GND*%
X161798000Y-70993000D03*
X148082000Y-75438000D03*
X182372000Y-64516000D03*
X126873000Y-82677000D03*
X164846000Y-65786000D03*
X145034000Y-80772000D03*
X170561000Y-71247000D03*
X139446000Y-75184000D03*
%TO.N,Net-(D3-Pad2)*%
X154559000Y-75946000D03*
X155192259Y-72188961D03*
%TO.N,Net-(D4-Pad2)*%
X153356001Y-72048476D03*
X153435681Y-74823021D03*
%TD*%
D16*
%TO.N,VCC*%
X134393945Y-76809813D02*
X143177400Y-79032700D01*
X166781369Y-67555891D02*
X175564824Y-69778778D01*
X134393945Y-76809813D02*
X136259045Y-82550000D01*
X138574264Y-79032700D02*
X143177400Y-79032700D01*
X136259045Y-81347919D02*
X138574264Y-79032700D01*
X136259045Y-82550000D02*
X136259045Y-81347919D01*
X171384504Y-67555891D02*
X166781369Y-67555891D01*
X173699724Y-65240671D02*
X171384504Y-67555891D01*
X173699724Y-64038590D02*
X173699724Y-65240671D01*
X173699724Y-64038590D02*
X175564824Y-69778778D01*
D17*
X166781369Y-67555891D02*
X165197721Y-69910395D01*
X165068780Y-73056978D02*
X165197721Y-69910395D01*
X144936279Y-76520605D02*
X144889989Y-73531612D01*
X143177400Y-79032700D02*
X144936279Y-76520605D01*
D16*
X155207833Y-73288908D02*
X154884673Y-73612068D01*
X144970445Y-73612068D02*
X144889989Y-73531612D01*
X165068780Y-73056978D02*
X155207833Y-73288908D01*
X154884673Y-73612068D02*
X144970445Y-73612068D01*
D18*
%TO.N,GND*%
X145927399Y-80032699D02*
X146677400Y-80782700D01*
X138799045Y-82550000D02*
X141316346Y-80032699D01*
X145519301Y-80032699D02*
X145927399Y-80032699D01*
X141316346Y-80032699D02*
X145519301Y-80032699D01*
X173509921Y-71271753D02*
X168928964Y-72415510D01*
%TO.N,Net-(D1-Pad2)*%
X169723671Y-62863589D02*
X166781369Y-65805891D01*
X175064723Y-62863589D02*
X169723671Y-62863589D01*
X176239724Y-64038590D02*
X175064723Y-62863589D01*
%TO.N,Net-(D1-Pad4)*%
X152400000Y-66040000D02*
X154194027Y-70592265D01*
X152400000Y-65116838D02*
X152400000Y-66040000D01*
X152941237Y-64575601D02*
X152400000Y-65116838D01*
X160301079Y-64575601D02*
X152941237Y-64575601D01*
X163281369Y-67555891D02*
X160301079Y-64575601D01*
%TO.N,Net-(D2-Pad4)*%
X157005627Y-79776722D02*
X155939973Y-75965735D01*
X157005627Y-80699884D02*
X157005627Y-79776722D01*
X156464390Y-81241121D02*
X157005627Y-80699884D01*
X148885821Y-81241121D02*
X156464390Y-81241121D01*
X146677400Y-79032700D02*
X148885821Y-81241121D01*
%TO.N,Net-(D2-Pad2)*%
X140235099Y-83725001D02*
X143177400Y-80782700D01*
X134894046Y-83725001D02*
X140235099Y-83725001D01*
X133719045Y-82550000D02*
X134894046Y-83725001D01*
%TO.N,Net-(D3-Pad4)*%
X142631165Y-75016124D02*
X142058429Y-75588860D01*
X142631165Y-74103340D02*
X142631165Y-75016124D01*
X141561835Y-73034010D02*
X142631165Y-74103340D01*
X132339042Y-77100706D02*
X136405738Y-73034010D01*
X136405738Y-73034010D02*
X141561835Y-73034010D01*
X132339042Y-78302787D02*
X132339042Y-77100706D01*
%TO.N,Net-(D3-Pad2)*%
X155769254Y-80178444D02*
X153562332Y-76738277D01*
X153636373Y-65638278D02*
X156571668Y-69819723D01*
X154354609Y-75946000D02*
X153562332Y-76738277D01*
X154559000Y-75946000D02*
X154354609Y-75946000D01*
X150601832Y-72115832D02*
X150622000Y-72136000D01*
X143861365Y-72115832D02*
X150601832Y-72115832D01*
X154542943Y-72787057D02*
X155194000Y-72136000D01*
X151459971Y-72787057D02*
X154542943Y-72787057D01*
X143861365Y-72115832D02*
X150788746Y-72115832D01*
X156571668Y-69819723D02*
X156571668Y-70809552D01*
X150788746Y-72115832D02*
X151459971Y-72787057D01*
X156571668Y-70809552D02*
X155192259Y-72188961D01*
%TO.N,Net-(D4-Pad2)*%
X158072806Y-74422000D02*
X158190614Y-74304192D01*
X158242000Y-79375000D02*
X158317614Y-75193192D01*
X151163627Y-66441722D02*
X151816386Y-71364808D01*
X166097404Y-74472758D02*
X158317614Y-75193192D01*
X151816386Y-71364808D02*
X152672333Y-71364808D01*
X157561501Y-74437079D02*
X153821623Y-74437079D01*
X152672333Y-71364808D02*
X153356001Y-72048476D01*
X153821623Y-74437079D02*
X153435681Y-74823021D01*
X158317614Y-75193192D02*
X157561501Y-74437079D01*
%TO.N,Net-(D4-Pad4)*%
X167327604Y-72485250D02*
X167327604Y-71572466D01*
X168396934Y-73554580D02*
X167327604Y-72485250D01*
X173553032Y-73554580D02*
X168396934Y-73554580D01*
X167327604Y-71572466D02*
X167900340Y-70999730D01*
X177619727Y-69487885D02*
X173553032Y-73554580D01*
X177619727Y-68285804D02*
X177619727Y-69487885D01*
%TD*%
D19*
%TO.N,GND*%
X131828040Y-76536907D02*
X131799042Y-76560705D01*
X131775244Y-76589703D01*
X131775243Y-76589704D01*
X131704068Y-76676430D01*
X131633496Y-76808460D01*
X131622825Y-76843640D01*
X131590040Y-76951720D01*
X131583130Y-77021877D01*
X131392410Y-77149312D01*
X131185567Y-77356155D01*
X131023052Y-77599376D01*
X130911110Y-77869629D01*
X130854042Y-78156527D01*
X130854042Y-78449047D01*
X130911110Y-78735945D01*
X131023052Y-79006198D01*
X131185567Y-79249419D01*
X131392410Y-79456262D01*
X131635631Y-79618777D01*
X131905884Y-79730719D01*
X132192782Y-79787787D01*
X132485302Y-79787787D01*
X132772200Y-79730719D01*
X133042453Y-79618777D01*
X133285674Y-79456262D01*
X133492517Y-79249419D01*
X133655032Y-79006198D01*
X133766974Y-78735945D01*
X133789530Y-78622550D01*
X134702964Y-81433812D01*
X134665677Y-81396525D01*
X134422456Y-81234010D01*
X134152203Y-81122068D01*
X133865305Y-81065000D01*
X133572785Y-81065000D01*
X133285887Y-81122068D01*
X133015634Y-81234010D01*
X132772413Y-81396525D01*
X132565570Y-81603368D01*
X132403055Y-81846589D01*
X132291113Y-82116842D01*
X132234045Y-82403740D01*
X132234045Y-82696260D01*
X132291113Y-82983158D01*
X132403055Y-83253411D01*
X132565570Y-83496632D01*
X132772413Y-83703475D01*
X133015634Y-83865990D01*
X133285887Y-83977932D01*
X133572785Y-84035000D01*
X133865305Y-84035000D01*
X134085453Y-83991210D01*
X134330247Y-84236004D01*
X134354045Y-84265002D01*
X134414968Y-84315000D01*
X121061141Y-84315000D01*
X131990828Y-76374118D01*
X131828040Y-76536907D01*
%TA.AperFunction,Conductor*%
D20*
G36*
X131828040Y-76536907D02*
G01*
X131799042Y-76560705D01*
X131775244Y-76589703D01*
X131775243Y-76589704D01*
X131704068Y-76676430D01*
X131633496Y-76808460D01*
X131622825Y-76843640D01*
X131590040Y-76951720D01*
X131583130Y-77021877D01*
X131392410Y-77149312D01*
X131185567Y-77356155D01*
X131023052Y-77599376D01*
X130911110Y-77869629D01*
X130854042Y-78156527D01*
X130854042Y-78449047D01*
X130911110Y-78735945D01*
X131023052Y-79006198D01*
X131185567Y-79249419D01*
X131392410Y-79456262D01*
X131635631Y-79618777D01*
X131905884Y-79730719D01*
X132192782Y-79787787D01*
X132485302Y-79787787D01*
X132772200Y-79730719D01*
X133042453Y-79618777D01*
X133285674Y-79456262D01*
X133492517Y-79249419D01*
X133655032Y-79006198D01*
X133766974Y-78735945D01*
X133789530Y-78622550D01*
X134702964Y-81433812D01*
X134665677Y-81396525D01*
X134422456Y-81234010D01*
X134152203Y-81122068D01*
X133865305Y-81065000D01*
X133572785Y-81065000D01*
X133285887Y-81122068D01*
X133015634Y-81234010D01*
X132772413Y-81396525D01*
X132565570Y-81603368D01*
X132403055Y-81846589D01*
X132291113Y-82116842D01*
X132234045Y-82403740D01*
X132234045Y-82696260D01*
X132291113Y-82983158D01*
X132403055Y-83253411D01*
X132565570Y-83496632D01*
X132772413Y-83703475D01*
X133015634Y-83865990D01*
X133285887Y-83977932D01*
X133572785Y-84035000D01*
X133865305Y-84035000D01*
X134085453Y-83991210D01*
X134330247Y-84236004D01*
X134354045Y-84265002D01*
X134414968Y-84315000D01*
X121061141Y-84315000D01*
X131990828Y-76374118D01*
X131828040Y-76536907D01*
G37*
%TD.AperFunction*%
D19*
X166423857Y-71393261D02*
X166487107Y-71501175D01*
X166567604Y-71611970D01*
X166567604Y-72447928D01*
X166563928Y-72485250D01*
X166567604Y-72522572D01*
X166567604Y-72522582D01*
X166578601Y-72634235D01*
X166616868Y-72760386D01*
X166622058Y-72777496D01*
X166692630Y-72909526D01*
X166715968Y-72937963D01*
X166787603Y-73025251D01*
X166816606Y-73049054D01*
X167833135Y-74065583D01*
X167856933Y-74094581D01*
X167885931Y-74118379D01*
X167972657Y-74189554D01*
X168104687Y-74260126D01*
X168247948Y-74303583D01*
X168359601Y-74314580D01*
X168359611Y-74314580D01*
X168396934Y-74318256D01*
X168434256Y-74314580D01*
X172324628Y-74314580D01*
X158560230Y-84315000D01*
X140714177Y-84315000D01*
X140775100Y-84265002D01*
X140798903Y-84235998D01*
X143189130Y-81845772D01*
X143977400Y-81845772D01*
X144101882Y-81833512D01*
X144221580Y-81797202D01*
X144331894Y-81738237D01*
X144428585Y-81658885D01*
X144507937Y-81562194D01*
X144566902Y-81451880D01*
X144603212Y-81332182D01*
X144615472Y-81207700D01*
X145239328Y-81207700D01*
X145251588Y-81332182D01*
X145287898Y-81451880D01*
X145346863Y-81562194D01*
X145426215Y-81658885D01*
X145522906Y-81738237D01*
X145633220Y-81797202D01*
X145752918Y-81833512D01*
X145877400Y-81845772D01*
X146391650Y-81842700D01*
X146550400Y-81683950D01*
X146550400Y-80909700D01*
X145401150Y-80909700D01*
X145242400Y-81068450D01*
X145239328Y-81207700D01*
X144615472Y-81207700D01*
X144615472Y-80357700D01*
X144603212Y-80233218D01*
X144566902Y-80113520D01*
X144507937Y-80003206D01*
X144429558Y-79907700D01*
X144507937Y-79812194D01*
X144566902Y-79701880D01*
X144603212Y-79582182D01*
X144615472Y-79457700D01*
X144615472Y-79175627D01*
X145628387Y-77728944D01*
X145678472Y-77712671D01*
X145837975Y-77642903D01*
X145980800Y-77543359D01*
X146101462Y-77417864D01*
X146195322Y-77271240D01*
X146198413Y-77263342D01*
X146285334Y-77318985D01*
X146401814Y-77364574D01*
X146524950Y-77386564D01*
X146650010Y-77384108D01*
X146772188Y-77357301D01*
X147058220Y-77261133D01*
X147160143Y-77061097D01*
X146828182Y-76039424D01*
X146809160Y-76045605D01*
X146781650Y-75960934D01*
X147069750Y-75960934D01*
X147401712Y-76982606D01*
X147601749Y-77084530D01*
X147889679Y-76994206D01*
X148004280Y-76944079D01*
X148106899Y-76872557D01*
X148193593Y-76782389D01*
X148261030Y-76677042D01*
X148306619Y-76560562D01*
X148328610Y-76437426D01*
X148326154Y-76312366D01*
X148299347Y-76190188D01*
X148160689Y-75773386D01*
X147960653Y-75671462D01*
X147069750Y-75960934D01*
X146781650Y-75960934D01*
X146730671Y-75804036D01*
X146749692Y-75797856D01*
X146743511Y-75778834D01*
X146985080Y-75700345D01*
X146991260Y-75719366D01*
X147882162Y-75429894D01*
X147984086Y-75229857D01*
X147851272Y-74811156D01*
X147823239Y-74747068D01*
X152400681Y-74747068D01*
X152400681Y-74924960D01*
X152440455Y-75124919D01*
X152518476Y-75313277D01*
X152555854Y-75369217D01*
X152540784Y-75374113D01*
X152426183Y-75424241D01*
X152323564Y-75495762D01*
X152236870Y-75585929D01*
X152169433Y-75691277D01*
X152123843Y-75807757D01*
X152101854Y-75930893D01*
X152104310Y-76055953D01*
X152131116Y-76178131D01*
X152733699Y-78032691D01*
X152783826Y-78147291D01*
X152855348Y-78249910D01*
X152945515Y-78336604D01*
X153050863Y-78404042D01*
X153167343Y-78449632D01*
X153290479Y-78471621D01*
X153415539Y-78469165D01*
X153537717Y-78442359D01*
X153715523Y-78384587D01*
X154577094Y-79727611D01*
X154563681Y-79802722D01*
X154555991Y-79900437D01*
X154558447Y-80025497D01*
X154569968Y-80122834D01*
X154596776Y-80245015D01*
X154604365Y-80268369D01*
X154609629Y-80292363D01*
X154670960Y-80481121D01*
X149200623Y-80481121D01*
X148115472Y-79395971D01*
X148115472Y-78607700D01*
X148103212Y-78483218D01*
X148066902Y-78363520D01*
X148007937Y-78253206D01*
X147928585Y-78156515D01*
X147831894Y-78077163D01*
X147721580Y-78018198D01*
X147601882Y-77981888D01*
X147477400Y-77969628D01*
X145877400Y-77969628D01*
X145752918Y-77981888D01*
X145633220Y-78018198D01*
X145522906Y-78077163D01*
X145426215Y-78156515D01*
X145346863Y-78253206D01*
X145287898Y-78363520D01*
X145251588Y-78483218D01*
X145239328Y-78607700D01*
X145239328Y-79457700D01*
X145251588Y-79582182D01*
X145287898Y-79701880D01*
X145346863Y-79812194D01*
X145425242Y-79907700D01*
X145346863Y-80003206D01*
X145287898Y-80113520D01*
X145251588Y-80233218D01*
X145239328Y-80357700D01*
X145242400Y-80496950D01*
X145401150Y-80655700D01*
X146550400Y-80655700D01*
X146550400Y-80635700D01*
X146804400Y-80635700D01*
X146804400Y-80655700D01*
X146824400Y-80655700D01*
X146824400Y-80909700D01*
X146804400Y-80909700D01*
X146804400Y-81683950D01*
X146963150Y-81842700D01*
X147477400Y-81845772D01*
X147601882Y-81833512D01*
X147721580Y-81797202D01*
X147831894Y-81738237D01*
X147928585Y-81658885D01*
X148007937Y-81562194D01*
X148051184Y-81481286D01*
X148322022Y-81752124D01*
X148345820Y-81781122D01*
X148374818Y-81804920D01*
X148461544Y-81876095D01*
X148593574Y-81946667D01*
X148736835Y-81990124D01*
X148848488Y-82001121D01*
X148848498Y-82001121D01*
X148885821Y-82004797D01*
X148923144Y-82001121D01*
X156427068Y-82001121D01*
X156464390Y-82004797D01*
X156501712Y-82001121D01*
X156501723Y-82001121D01*
X156613376Y-81990124D01*
X156756637Y-81946667D01*
X156888666Y-81876095D01*
X157004391Y-81781122D01*
X157028193Y-81752119D01*
X157516630Y-81263682D01*
X157545628Y-81239885D01*
X157640601Y-81124160D01*
X157701566Y-81010103D01*
X157910093Y-80942349D01*
X158024693Y-80892221D01*
X158025137Y-80891912D01*
X158025680Y-80891901D01*
X158147858Y-80865094D01*
X158670939Y-80695134D01*
X158693448Y-80685289D01*
X158716798Y-80677702D01*
X158831405Y-80627573D01*
X158916924Y-80579680D01*
X159019542Y-80508159D01*
X159094075Y-80444502D01*
X159180770Y-80354334D01*
X159241452Y-80277359D01*
X159308888Y-80172015D01*
X159353387Y-80084682D01*
X159398978Y-79968198D01*
X159425584Y-79873860D01*
X159447573Y-79750722D01*
X159455263Y-79653007D01*
X159452807Y-79527947D01*
X159441286Y-79430610D01*
X159414478Y-79308429D01*
X159406889Y-79285075D01*
X159401625Y-79261081D01*
X159247116Y-78785552D01*
X159237273Y-78763048D01*
X159229680Y-78739680D01*
X159179554Y-78625085D01*
X159131661Y-78539566D01*
X159060144Y-78436952D01*
X159019936Y-78389874D01*
X159029538Y-77858825D01*
X161477000Y-77858825D01*
X161477000Y-78097175D01*
X161523499Y-78330944D01*
X161614712Y-78551150D01*
X161747131Y-78749330D01*
X161915670Y-78917869D01*
X162113850Y-79050288D01*
X162334056Y-79141501D01*
X162567825Y-79188000D01*
X162806175Y-79188000D01*
X163039944Y-79141501D01*
X163260150Y-79050288D01*
X163458330Y-78917869D01*
X163626869Y-78749330D01*
X163759288Y-78551150D01*
X163850501Y-78330944D01*
X163897000Y-78097175D01*
X163897000Y-77858825D01*
X163850501Y-77625056D01*
X163759288Y-77404850D01*
X163626869Y-77206670D01*
X163458330Y-77038131D01*
X163260150Y-76905712D01*
X163039944Y-76814499D01*
X162806175Y-76768000D01*
X162567825Y-76768000D01*
X162334056Y-76814499D01*
X162113850Y-76905712D01*
X161915670Y-77038131D01*
X161747131Y-77206670D01*
X161614712Y-77404850D01*
X161523499Y-77625056D01*
X161477000Y-77858825D01*
X159029538Y-77858825D01*
X159051380Y-76650862D01*
X159339162Y-76557356D01*
X159453763Y-76507228D01*
X159556382Y-76435707D01*
X159643076Y-76345540D01*
X159710513Y-76240192D01*
X159756103Y-76123712D01*
X159778092Y-76000576D01*
X159775636Y-75875516D01*
X159764005Y-75822502D01*
X164951482Y-75342125D01*
X165183788Y-75661867D01*
X165266875Y-75755369D01*
X165366607Y-75830864D01*
X165479151Y-75885452D01*
X165600182Y-75917034D01*
X165725050Y-75924398D01*
X165848954Y-75907260D01*
X165967134Y-75866279D01*
X166075048Y-75803029D01*
X167369475Y-74862573D01*
X167462977Y-74779486D01*
X167538472Y-74679754D01*
X167593060Y-74567210D01*
X167624642Y-74446179D01*
X167632006Y-74321311D01*
X167614868Y-74197407D01*
X167573887Y-74079227D01*
X167510637Y-73971313D01*
X167011020Y-73283649D01*
X166927933Y-73190147D01*
X166828201Y-73114652D01*
X166715657Y-73060064D01*
X166596108Y-73028869D01*
X166603382Y-72905531D01*
X166586244Y-72781627D01*
X166545263Y-72663447D01*
X166482013Y-72555533D01*
X166357413Y-72384036D01*
X166400744Y-71326609D01*
X166423857Y-71393261D01*
%TA.AperFunction,Conductor*%
D20*
G36*
X166423857Y-71393261D02*
G01*
X166487107Y-71501175D01*
X166567604Y-71611970D01*
X166567604Y-72447928D01*
X166563928Y-72485250D01*
X166567604Y-72522572D01*
X166567604Y-72522582D01*
X166578601Y-72634235D01*
X166616868Y-72760386D01*
X166622058Y-72777496D01*
X166692630Y-72909526D01*
X166715968Y-72937963D01*
X166787603Y-73025251D01*
X166816606Y-73049054D01*
X167833135Y-74065583D01*
X167856933Y-74094581D01*
X167885931Y-74118379D01*
X167972657Y-74189554D01*
X168104687Y-74260126D01*
X168247948Y-74303583D01*
X168359601Y-74314580D01*
X168359611Y-74314580D01*
X168396934Y-74318256D01*
X168434256Y-74314580D01*
X172324628Y-74314580D01*
X158560230Y-84315000D01*
X140714177Y-84315000D01*
X140775100Y-84265002D01*
X140798903Y-84235998D01*
X143189130Y-81845772D01*
X143977400Y-81845772D01*
X144101882Y-81833512D01*
X144221580Y-81797202D01*
X144331894Y-81738237D01*
X144428585Y-81658885D01*
X144507937Y-81562194D01*
X144566902Y-81451880D01*
X144603212Y-81332182D01*
X144615472Y-81207700D01*
X145239328Y-81207700D01*
X145251588Y-81332182D01*
X145287898Y-81451880D01*
X145346863Y-81562194D01*
X145426215Y-81658885D01*
X145522906Y-81738237D01*
X145633220Y-81797202D01*
X145752918Y-81833512D01*
X145877400Y-81845772D01*
X146391650Y-81842700D01*
X146550400Y-81683950D01*
X146550400Y-80909700D01*
X145401150Y-80909700D01*
X145242400Y-81068450D01*
X145239328Y-81207700D01*
X144615472Y-81207700D01*
X144615472Y-80357700D01*
X144603212Y-80233218D01*
X144566902Y-80113520D01*
X144507937Y-80003206D01*
X144429558Y-79907700D01*
X144507937Y-79812194D01*
X144566902Y-79701880D01*
X144603212Y-79582182D01*
X144615472Y-79457700D01*
X144615472Y-79175627D01*
X145628387Y-77728944D01*
X145678472Y-77712671D01*
X145837975Y-77642903D01*
X145980800Y-77543359D01*
X146101462Y-77417864D01*
X146195322Y-77271240D01*
X146198413Y-77263342D01*
X146285334Y-77318985D01*
X146401814Y-77364574D01*
X146524950Y-77386564D01*
X146650010Y-77384108D01*
X146772188Y-77357301D01*
X147058220Y-77261133D01*
X147160143Y-77061097D01*
X146828182Y-76039424D01*
X146809160Y-76045605D01*
X146781650Y-75960934D01*
X147069750Y-75960934D01*
X147401712Y-76982606D01*
X147601749Y-77084530D01*
X147889679Y-76994206D01*
X148004280Y-76944079D01*
X148106899Y-76872557D01*
X148193593Y-76782389D01*
X148261030Y-76677042D01*
X148306619Y-76560562D01*
X148328610Y-76437426D01*
X148326154Y-76312366D01*
X148299347Y-76190188D01*
X148160689Y-75773386D01*
X147960653Y-75671462D01*
X147069750Y-75960934D01*
X146781650Y-75960934D01*
X146730671Y-75804036D01*
X146749692Y-75797856D01*
X146743511Y-75778834D01*
X146985080Y-75700345D01*
X146991260Y-75719366D01*
X147882162Y-75429894D01*
X147984086Y-75229857D01*
X147851272Y-74811156D01*
X147823239Y-74747068D01*
X152400681Y-74747068D01*
X152400681Y-74924960D01*
X152440455Y-75124919D01*
X152518476Y-75313277D01*
X152555854Y-75369217D01*
X152540784Y-75374113D01*
X152426183Y-75424241D01*
X152323564Y-75495762D01*
X152236870Y-75585929D01*
X152169433Y-75691277D01*
X152123843Y-75807757D01*
X152101854Y-75930893D01*
X152104310Y-76055953D01*
X152131116Y-76178131D01*
X152733699Y-78032691D01*
X152783826Y-78147291D01*
X152855348Y-78249910D01*
X152945515Y-78336604D01*
X153050863Y-78404042D01*
X153167343Y-78449632D01*
X153290479Y-78471621D01*
X153415539Y-78469165D01*
X153537717Y-78442359D01*
X153715523Y-78384587D01*
X154577094Y-79727611D01*
X154563681Y-79802722D01*
X154555991Y-79900437D01*
X154558447Y-80025497D01*
X154569968Y-80122834D01*
X154596776Y-80245015D01*
X154604365Y-80268369D01*
X154609629Y-80292363D01*
X154670960Y-80481121D01*
X149200623Y-80481121D01*
X148115472Y-79395971D01*
X148115472Y-78607700D01*
X148103212Y-78483218D01*
X148066902Y-78363520D01*
X148007937Y-78253206D01*
X147928585Y-78156515D01*
X147831894Y-78077163D01*
X147721580Y-78018198D01*
X147601882Y-77981888D01*
X147477400Y-77969628D01*
X145877400Y-77969628D01*
X145752918Y-77981888D01*
X145633220Y-78018198D01*
X145522906Y-78077163D01*
X145426215Y-78156515D01*
X145346863Y-78253206D01*
X145287898Y-78363520D01*
X145251588Y-78483218D01*
X145239328Y-78607700D01*
X145239328Y-79457700D01*
X145251588Y-79582182D01*
X145287898Y-79701880D01*
X145346863Y-79812194D01*
X145425242Y-79907700D01*
X145346863Y-80003206D01*
X145287898Y-80113520D01*
X145251588Y-80233218D01*
X145239328Y-80357700D01*
X145242400Y-80496950D01*
X145401150Y-80655700D01*
X146550400Y-80655700D01*
X146550400Y-80635700D01*
X146804400Y-80635700D01*
X146804400Y-80655700D01*
X146824400Y-80655700D01*
X146824400Y-80909700D01*
X146804400Y-80909700D01*
X146804400Y-81683950D01*
X146963150Y-81842700D01*
X147477400Y-81845772D01*
X147601882Y-81833512D01*
X147721580Y-81797202D01*
X147831894Y-81738237D01*
X147928585Y-81658885D01*
X148007937Y-81562194D01*
X148051184Y-81481286D01*
X148322022Y-81752124D01*
X148345820Y-81781122D01*
X148374818Y-81804920D01*
X148461544Y-81876095D01*
X148593574Y-81946667D01*
X148736835Y-81990124D01*
X148848488Y-82001121D01*
X148848498Y-82001121D01*
X148885821Y-82004797D01*
X148923144Y-82001121D01*
X156427068Y-82001121D01*
X156464390Y-82004797D01*
X156501712Y-82001121D01*
X156501723Y-82001121D01*
X156613376Y-81990124D01*
X156756637Y-81946667D01*
X156888666Y-81876095D01*
X157004391Y-81781122D01*
X157028193Y-81752119D01*
X157516630Y-81263682D01*
X157545628Y-81239885D01*
X157640601Y-81124160D01*
X157701566Y-81010103D01*
X157910093Y-80942349D01*
X158024693Y-80892221D01*
X158025137Y-80891912D01*
X158025680Y-80891901D01*
X158147858Y-80865094D01*
X158670939Y-80695134D01*
X158693448Y-80685289D01*
X158716798Y-80677702D01*
X158831405Y-80627573D01*
X158916924Y-80579680D01*
X159019542Y-80508159D01*
X159094075Y-80444502D01*
X159180770Y-80354334D01*
X159241452Y-80277359D01*
X159308888Y-80172015D01*
X159353387Y-80084682D01*
X159398978Y-79968198D01*
X159425584Y-79873860D01*
X159447573Y-79750722D01*
X159455263Y-79653007D01*
X159452807Y-79527947D01*
X159441286Y-79430610D01*
X159414478Y-79308429D01*
X159406889Y-79285075D01*
X159401625Y-79261081D01*
X159247116Y-78785552D01*
X159237273Y-78763048D01*
X159229680Y-78739680D01*
X159179554Y-78625085D01*
X159131661Y-78539566D01*
X159060144Y-78436952D01*
X159019936Y-78389874D01*
X159029538Y-77858825D01*
X161477000Y-77858825D01*
X161477000Y-78097175D01*
X161523499Y-78330944D01*
X161614712Y-78551150D01*
X161747131Y-78749330D01*
X161915670Y-78917869D01*
X162113850Y-79050288D01*
X162334056Y-79141501D01*
X162567825Y-79188000D01*
X162806175Y-79188000D01*
X163039944Y-79141501D01*
X163260150Y-79050288D01*
X163458330Y-78917869D01*
X163626869Y-78749330D01*
X163759288Y-78551150D01*
X163850501Y-78330944D01*
X163897000Y-78097175D01*
X163897000Y-77858825D01*
X163850501Y-77625056D01*
X163759288Y-77404850D01*
X163626869Y-77206670D01*
X163458330Y-77038131D01*
X163260150Y-76905712D01*
X163039944Y-76814499D01*
X162806175Y-76768000D01*
X162567825Y-76768000D01*
X162334056Y-76814499D01*
X162113850Y-76905712D01*
X161915670Y-77038131D01*
X161747131Y-77206670D01*
X161614712Y-77404850D01*
X161523499Y-77625056D01*
X161477000Y-77858825D01*
X159029538Y-77858825D01*
X159051380Y-76650862D01*
X159339162Y-76557356D01*
X159453763Y-76507228D01*
X159556382Y-76435707D01*
X159643076Y-76345540D01*
X159710513Y-76240192D01*
X159756103Y-76123712D01*
X159778092Y-76000576D01*
X159775636Y-75875516D01*
X159764005Y-75822502D01*
X164951482Y-75342125D01*
X165183788Y-75661867D01*
X165266875Y-75755369D01*
X165366607Y-75830864D01*
X165479151Y-75885452D01*
X165600182Y-75917034D01*
X165725050Y-75924398D01*
X165848954Y-75907260D01*
X165967134Y-75866279D01*
X166075048Y-75803029D01*
X167369475Y-74862573D01*
X167462977Y-74779486D01*
X167538472Y-74679754D01*
X167593060Y-74567210D01*
X167624642Y-74446179D01*
X167632006Y-74321311D01*
X167614868Y-74197407D01*
X167573887Y-74079227D01*
X167510637Y-73971313D01*
X167011020Y-73283649D01*
X166927933Y-73190147D01*
X166828201Y-73114652D01*
X166715657Y-73060064D01*
X166596108Y-73028869D01*
X166603382Y-72905531D01*
X166586244Y-72781627D01*
X166545263Y-72663447D01*
X166482013Y-72555533D01*
X166357413Y-72384036D01*
X166400744Y-71326609D01*
X166423857Y-71393261D01*
G37*
%TD.AperFunction*%
D19*
X141751588Y-80233218D02*
X141739328Y-80357700D01*
X141739328Y-81145970D01*
X140166797Y-82718502D01*
X140125295Y-82677000D01*
X138926045Y-82677000D01*
X138926045Y-82697000D01*
X138672045Y-82697000D01*
X138672045Y-82677000D01*
X138652045Y-82677000D01*
X138652045Y-82423000D01*
X138672045Y-82423000D01*
X138672045Y-81223750D01*
X138926045Y-81223750D01*
X138926045Y-82423000D01*
X140125295Y-82423000D01*
X140284045Y-82264250D01*
X140287117Y-81700000D01*
X140274857Y-81575518D01*
X140238547Y-81455820D01*
X140179582Y-81345506D01*
X140100230Y-81248815D01*
X140003539Y-81169463D01*
X139893225Y-81110498D01*
X139773527Y-81074188D01*
X139649045Y-81061928D01*
X139084795Y-81065000D01*
X138926045Y-81223750D01*
X138672045Y-81223750D01*
X138513295Y-81065000D01*
X138149078Y-81063017D01*
X139044396Y-80167700D01*
X141771463Y-80167700D01*
X141751588Y-80233218D01*
%TA.AperFunction,Conductor*%
D20*
G36*
X141751588Y-80233218D02*
G01*
X141739328Y-80357700D01*
X141739328Y-81145970D01*
X140166797Y-82718502D01*
X140125295Y-82677000D01*
X138926045Y-82677000D01*
X138926045Y-82697000D01*
X138672045Y-82697000D01*
X138672045Y-82677000D01*
X138652045Y-82677000D01*
X138652045Y-82423000D01*
X138672045Y-82423000D01*
X138672045Y-81223750D01*
X138926045Y-81223750D01*
X138926045Y-82423000D01*
X140125295Y-82423000D01*
X140284045Y-82264250D01*
X140287117Y-81700000D01*
X140274857Y-81575518D01*
X140238547Y-81455820D01*
X140179582Y-81345506D01*
X140100230Y-81248815D01*
X140003539Y-81169463D01*
X139893225Y-81110498D01*
X139773527Y-81074188D01*
X139649045Y-81061928D01*
X139084795Y-81065000D01*
X138926045Y-81223750D01*
X138672045Y-81223750D01*
X138513295Y-81065000D01*
X138149078Y-81063017D01*
X139044396Y-80167700D01*
X141771463Y-80167700D01*
X141751588Y-80233218D01*
G37*
%TD.AperFunction*%
D19*
X169212667Y-62299790D02*
X169212663Y-62299794D01*
X169183670Y-62323588D01*
X169159876Y-62352581D01*
X166769640Y-64742819D01*
X165981369Y-64742819D01*
X165856887Y-64755079D01*
X165737189Y-64791389D01*
X165626875Y-64850354D01*
X165530184Y-64929706D01*
X165450832Y-65026397D01*
X165391867Y-65136711D01*
X165355557Y-65256409D01*
X165343297Y-65380891D01*
X165343297Y-66230891D01*
X165355557Y-66355373D01*
X165391867Y-66475071D01*
X165450832Y-66585385D01*
X165529211Y-66680891D01*
X165450832Y-66776397D01*
X165391867Y-66886711D01*
X165355557Y-67006409D01*
X165343297Y-67130891D01*
X165343297Y-67436323D01*
X164488144Y-68707732D01*
X164455528Y-68718329D01*
X164296025Y-68788097D01*
X164153200Y-68887641D01*
X164032538Y-69013136D01*
X163938678Y-69159760D01*
X163935587Y-69167658D01*
X163848666Y-69112015D01*
X163732186Y-69066426D01*
X163609050Y-69044436D01*
X163483990Y-69046892D01*
X163361812Y-69073699D01*
X163075780Y-69169867D01*
X162973857Y-69369903D01*
X163305818Y-70391576D01*
X163324840Y-70385395D01*
X163403329Y-70626964D01*
X163384308Y-70633144D01*
X163716270Y-71654816D01*
X163862135Y-71729138D01*
X163853074Y-71950258D01*
X163282558Y-71963676D01*
X163372778Y-71933343D01*
X163474701Y-71733307D01*
X163142740Y-70711634D01*
X162251838Y-71001106D01*
X162149914Y-71201143D01*
X162282728Y-71619844D01*
X162332855Y-71734444D01*
X162404377Y-71837064D01*
X162494545Y-71923757D01*
X162582621Y-71980139D01*
X156328792Y-72127229D01*
X157082671Y-71373351D01*
X157111669Y-71349553D01*
X157121967Y-71337005D01*
X157593216Y-71183887D01*
X157707817Y-71133759D01*
X157810436Y-71062238D01*
X157897130Y-70972071D01*
X157964567Y-70866723D01*
X158010157Y-70750243D01*
X158032146Y-70627107D01*
X158029690Y-70502047D01*
X158002884Y-70379869D01*
X157877370Y-69993574D01*
X161805390Y-69993574D01*
X161807846Y-70118634D01*
X161834653Y-70240812D01*
X161973311Y-70657614D01*
X162173347Y-70759538D01*
X163064250Y-70470066D01*
X162732288Y-69448394D01*
X162532251Y-69346470D01*
X162244321Y-69436794D01*
X162129720Y-69486921D01*
X162027101Y-69558443D01*
X161940407Y-69648611D01*
X161872970Y-69753958D01*
X161827381Y-69870438D01*
X161805390Y-69993574D01*
X157877370Y-69993574D01*
X157400301Y-68525309D01*
X157350174Y-68410709D01*
X157278652Y-68308090D01*
X157188485Y-68221396D01*
X157083137Y-68153958D01*
X156966657Y-68108368D01*
X156843521Y-68086379D01*
X156718461Y-68088835D01*
X156596283Y-68115641D01*
X156358282Y-68192972D01*
X154839257Y-66029061D01*
X154841946Y-66014000D01*
X154849636Y-65916285D01*
X154847180Y-65791225D01*
X154835659Y-65693888D01*
X154808851Y-65571707D01*
X154801262Y-65548353D01*
X154795998Y-65524359D01*
X154734667Y-65335601D01*
X159986278Y-65335601D01*
X161843297Y-67192621D01*
X161843297Y-67980891D01*
X161855557Y-68105373D01*
X161891867Y-68225071D01*
X161950832Y-68335385D01*
X162030184Y-68432076D01*
X162126875Y-68511428D01*
X162237189Y-68570393D01*
X162356887Y-68606703D01*
X162481369Y-68618963D01*
X164081369Y-68618963D01*
X164205851Y-68606703D01*
X164325549Y-68570393D01*
X164435863Y-68511428D01*
X164532554Y-68432076D01*
X164611906Y-68335385D01*
X164670871Y-68225071D01*
X164707181Y-68105373D01*
X164719441Y-67980891D01*
X164719441Y-67130891D01*
X164707181Y-67006409D01*
X164670871Y-66886711D01*
X164611906Y-66776397D01*
X164533527Y-66680891D01*
X164611906Y-66585385D01*
X164670871Y-66475071D01*
X164707181Y-66355373D01*
X164719441Y-66230891D01*
X164716369Y-66091641D01*
X164557619Y-65932891D01*
X163408369Y-65932891D01*
X163408369Y-65952891D01*
X163154369Y-65952891D01*
X163154369Y-65932891D01*
X163134369Y-65932891D01*
X163134369Y-65678891D01*
X163154369Y-65678891D01*
X163154369Y-64904641D01*
X163408369Y-64904641D01*
X163408369Y-65678891D01*
X164557619Y-65678891D01*
X164716369Y-65520141D01*
X164719441Y-65380891D01*
X164707181Y-65256409D01*
X164670871Y-65136711D01*
X164611906Y-65026397D01*
X164532554Y-64929706D01*
X164435863Y-64850354D01*
X164325549Y-64791389D01*
X164205851Y-64755079D01*
X164081369Y-64742819D01*
X163567119Y-64745891D01*
X163408369Y-64904641D01*
X163154369Y-64904641D01*
X162995619Y-64745891D01*
X162481369Y-64742819D01*
X162356887Y-64755079D01*
X162237189Y-64791389D01*
X162126875Y-64850354D01*
X162030184Y-64929706D01*
X161950832Y-65026397D01*
X161907585Y-65107305D01*
X160864883Y-64064604D01*
X160841080Y-64035600D01*
X160725355Y-63940627D01*
X160593326Y-63870055D01*
X160450065Y-63826598D01*
X160338412Y-63815601D01*
X160338401Y-63815601D01*
X160301079Y-63811925D01*
X160263757Y-63815601D01*
X152978562Y-63815601D01*
X152941237Y-63811925D01*
X152903912Y-63815601D01*
X152903904Y-63815601D01*
X152792251Y-63826598D01*
X152648990Y-63870055D01*
X152516961Y-63940627D01*
X152401236Y-64035600D01*
X152377437Y-64064599D01*
X151889002Y-64553035D01*
X151859999Y-64576837D01*
X151819901Y-64625697D01*
X151765026Y-64692562D01*
X151706388Y-64802266D01*
X151704061Y-64806618D01*
X151495534Y-64874373D01*
X151380934Y-64924501D01*
X151380490Y-64924810D01*
X151379947Y-64924821D01*
X151257769Y-64951628D01*
X150734688Y-65121588D01*
X150712179Y-65131433D01*
X150688829Y-65139020D01*
X150574222Y-65189149D01*
X150488703Y-65237042D01*
X150386085Y-65308563D01*
X150311552Y-65372220D01*
X150224857Y-65462388D01*
X150164175Y-65539363D01*
X150096739Y-65644707D01*
X150052240Y-65732040D01*
X150006649Y-65848524D01*
X149980043Y-65942862D01*
X149958054Y-66066000D01*
X149950364Y-66163715D01*
X149952820Y-66288775D01*
X149964341Y-66386112D01*
X149991149Y-66508293D01*
X149998738Y-66531647D01*
X150004002Y-66555641D01*
X150158511Y-67031170D01*
X150168354Y-67053674D01*
X150175947Y-67077042D01*
X150226073Y-67191637D01*
X150273966Y-67277156D01*
X150345483Y-67379770D01*
X150409139Y-67454303D01*
X150499311Y-67541002D01*
X150547799Y-67579227D01*
X150865801Y-69977587D01*
X150794838Y-70000644D01*
X150680237Y-70050772D01*
X150577618Y-70122293D01*
X150490924Y-70212460D01*
X150423487Y-70317808D01*
X150377897Y-70434288D01*
X150355908Y-70557424D01*
X150358364Y-70682484D01*
X150385170Y-70804662D01*
X150564256Y-71355832D01*
X145086747Y-71355832D01*
X144774981Y-70926723D01*
X144691894Y-70833221D01*
X144592162Y-70757726D01*
X144479618Y-70703138D01*
X144358587Y-70671556D01*
X144233719Y-70664192D01*
X144109815Y-70681330D01*
X143991635Y-70722311D01*
X143883721Y-70785561D01*
X142589294Y-71726017D01*
X142495792Y-71809104D01*
X142420297Y-71908836D01*
X142365709Y-72021380D01*
X142334127Y-72142411D01*
X142326763Y-72267279D01*
X142343901Y-72391183D01*
X142384882Y-72509363D01*
X142448132Y-72617277D01*
X142947749Y-73304941D01*
X143030836Y-73398443D01*
X143130568Y-73473938D01*
X143243112Y-73528526D01*
X143362661Y-73559721D01*
X143355387Y-73683059D01*
X143372525Y-73806963D01*
X143413506Y-73925143D01*
X143476756Y-74033057D01*
X143641107Y-74259267D01*
X143664988Y-75801263D01*
X143613785Y-75932087D01*
X143583180Y-76103468D01*
X143586100Y-76252147D01*
X142567133Y-77707472D01*
X137390986Y-76397511D01*
X137331146Y-76315149D01*
X137552886Y-76350269D01*
X138011179Y-76021096D01*
X138104681Y-75938009D01*
X138180176Y-75838277D01*
X138234763Y-75725732D01*
X138266346Y-75604701D01*
X138273710Y-75479835D01*
X138256572Y-75355930D01*
X138215591Y-75237750D01*
X138152341Y-75129836D01*
X137818198Y-74675154D01*
X137596456Y-74640033D01*
X136626242Y-75344934D01*
X136637998Y-75361115D01*
X136432507Y-75510412D01*
X136420752Y-75494232D01*
X136404571Y-75505988D01*
X136255274Y-75300497D01*
X136271454Y-75288742D01*
X136259698Y-75272561D01*
X136465189Y-75123264D01*
X136476944Y-75139444D01*
X137447158Y-74434543D01*
X137482279Y-74212800D01*
X137181479Y-73794010D01*
X139745641Y-73794010D01*
X139664232Y-73866352D01*
X139588736Y-73966084D01*
X139534149Y-74078629D01*
X139502566Y-74199660D01*
X139495203Y-74324526D01*
X139512340Y-74448431D01*
X139553321Y-74566611D01*
X139616572Y-74674525D01*
X139700906Y-74785375D01*
X139922648Y-74820496D01*
X140852411Y-74144984D01*
X140840655Y-74128803D01*
X141046146Y-73979506D01*
X141057901Y-73995686D01*
X141074082Y-73983930D01*
X141223379Y-74189421D01*
X141207199Y-74201176D01*
X141218955Y-74217357D01*
X141013464Y-74366654D01*
X141001709Y-74350474D01*
X140071946Y-75025986D01*
X140036825Y-75247728D01*
X140116189Y-75362190D01*
X140199276Y-75455692D01*
X140299008Y-75531187D01*
X140411553Y-75585774D01*
X140531101Y-75616970D01*
X140523827Y-75740307D01*
X140540965Y-75864211D01*
X140581946Y-75982391D01*
X140645196Y-76090305D01*
X141144813Y-76777969D01*
X141227900Y-76871471D01*
X141327632Y-76946966D01*
X141440176Y-77001554D01*
X141561207Y-77033136D01*
X141686075Y-77040500D01*
X141809979Y-77023362D01*
X141928159Y-76982381D01*
X142036073Y-76919131D01*
X143330500Y-75978675D01*
X143424002Y-75895588D01*
X143499497Y-75795856D01*
X143554085Y-75683312D01*
X143585667Y-75562281D01*
X143593031Y-75437413D01*
X143575893Y-75313509D01*
X143534912Y-75195329D01*
X143471662Y-75087415D01*
X143391165Y-74976620D01*
X143391165Y-74140662D01*
X143394841Y-74103340D01*
X143391165Y-74066017D01*
X143391165Y-74066007D01*
X143380168Y-73954354D01*
X143336711Y-73811093D01*
X143324379Y-73788021D01*
X143266139Y-73679063D01*
X143194964Y-73592337D01*
X143171166Y-73563339D01*
X143142169Y-73539542D01*
X142125639Y-72523012D01*
X142101836Y-72494009D01*
X141986111Y-72399036D01*
X141854082Y-72328464D01*
X141710821Y-72285007D01*
X141599168Y-72274010D01*
X141599157Y-72274010D01*
X141561835Y-72270334D01*
X141524513Y-72274010D01*
X137634144Y-72274010D01*
X142707743Y-68587825D01*
X146110000Y-68587825D01*
X146110000Y-68826175D01*
X146156499Y-69059944D01*
X146247712Y-69280150D01*
X146380131Y-69478330D01*
X146548670Y-69646869D01*
X146746850Y-69779288D01*
X146967056Y-69870501D01*
X147200825Y-69917000D01*
X147439175Y-69917000D01*
X147672944Y-69870501D01*
X147893150Y-69779288D01*
X148091330Y-69646869D01*
X148259869Y-69478330D01*
X148392288Y-69280150D01*
X148483501Y-69059944D01*
X148530000Y-68826175D01*
X148530000Y-68587825D01*
X148483501Y-68354056D01*
X148392288Y-68133850D01*
X148259869Y-67935670D01*
X148091330Y-67767131D01*
X147893150Y-67634712D01*
X147672944Y-67543499D01*
X147439175Y-67497000D01*
X147200825Y-67497000D01*
X146967056Y-67543499D01*
X146746850Y-67634712D01*
X146548670Y-67767131D01*
X146380131Y-67935670D01*
X146247712Y-68133850D01*
X146156499Y-68354056D01*
X146110000Y-68587825D01*
X142707743Y-68587825D01*
X151398542Y-62273591D01*
X169244591Y-62273591D01*
X169212667Y-62299790D01*
%TA.AperFunction,Conductor*%
D20*
G36*
X169212667Y-62299790D02*
G01*
X169212663Y-62299794D01*
X169183670Y-62323588D01*
X169159876Y-62352581D01*
X166769640Y-64742819D01*
X165981369Y-64742819D01*
X165856887Y-64755079D01*
X165737189Y-64791389D01*
X165626875Y-64850354D01*
X165530184Y-64929706D01*
X165450832Y-65026397D01*
X165391867Y-65136711D01*
X165355557Y-65256409D01*
X165343297Y-65380891D01*
X165343297Y-66230891D01*
X165355557Y-66355373D01*
X165391867Y-66475071D01*
X165450832Y-66585385D01*
X165529211Y-66680891D01*
X165450832Y-66776397D01*
X165391867Y-66886711D01*
X165355557Y-67006409D01*
X165343297Y-67130891D01*
X165343297Y-67436323D01*
X164488144Y-68707732D01*
X164455528Y-68718329D01*
X164296025Y-68788097D01*
X164153200Y-68887641D01*
X164032538Y-69013136D01*
X163938678Y-69159760D01*
X163935587Y-69167658D01*
X163848666Y-69112015D01*
X163732186Y-69066426D01*
X163609050Y-69044436D01*
X163483990Y-69046892D01*
X163361812Y-69073699D01*
X163075780Y-69169867D01*
X162973857Y-69369903D01*
X163305818Y-70391576D01*
X163324840Y-70385395D01*
X163403329Y-70626964D01*
X163384308Y-70633144D01*
X163716270Y-71654816D01*
X163862135Y-71729138D01*
X163853074Y-71950258D01*
X163282558Y-71963676D01*
X163372778Y-71933343D01*
X163474701Y-71733307D01*
X163142740Y-70711634D01*
X162251838Y-71001106D01*
X162149914Y-71201143D01*
X162282728Y-71619844D01*
X162332855Y-71734444D01*
X162404377Y-71837064D01*
X162494545Y-71923757D01*
X162582621Y-71980139D01*
X156328792Y-72127229D01*
X157082671Y-71373351D01*
X157111669Y-71349553D01*
X157121967Y-71337005D01*
X157593216Y-71183887D01*
X157707817Y-71133759D01*
X157810436Y-71062238D01*
X157897130Y-70972071D01*
X157964567Y-70866723D01*
X158010157Y-70750243D01*
X158032146Y-70627107D01*
X158029690Y-70502047D01*
X158002884Y-70379869D01*
X157877370Y-69993574D01*
X161805390Y-69993574D01*
X161807846Y-70118634D01*
X161834653Y-70240812D01*
X161973311Y-70657614D01*
X162173347Y-70759538D01*
X163064250Y-70470066D01*
X162732288Y-69448394D01*
X162532251Y-69346470D01*
X162244321Y-69436794D01*
X162129720Y-69486921D01*
X162027101Y-69558443D01*
X161940407Y-69648611D01*
X161872970Y-69753958D01*
X161827381Y-69870438D01*
X161805390Y-69993574D01*
X157877370Y-69993574D01*
X157400301Y-68525309D01*
X157350174Y-68410709D01*
X157278652Y-68308090D01*
X157188485Y-68221396D01*
X157083137Y-68153958D01*
X156966657Y-68108368D01*
X156843521Y-68086379D01*
X156718461Y-68088835D01*
X156596283Y-68115641D01*
X156358282Y-68192972D01*
X154839257Y-66029061D01*
X154841946Y-66014000D01*
X154849636Y-65916285D01*
X154847180Y-65791225D01*
X154835659Y-65693888D01*
X154808851Y-65571707D01*
X154801262Y-65548353D01*
X154795998Y-65524359D01*
X154734667Y-65335601D01*
X159986278Y-65335601D01*
X161843297Y-67192621D01*
X161843297Y-67980891D01*
X161855557Y-68105373D01*
X161891867Y-68225071D01*
X161950832Y-68335385D01*
X162030184Y-68432076D01*
X162126875Y-68511428D01*
X162237189Y-68570393D01*
X162356887Y-68606703D01*
X162481369Y-68618963D01*
X164081369Y-68618963D01*
X164205851Y-68606703D01*
X164325549Y-68570393D01*
X164435863Y-68511428D01*
X164532554Y-68432076D01*
X164611906Y-68335385D01*
X164670871Y-68225071D01*
X164707181Y-68105373D01*
X164719441Y-67980891D01*
X164719441Y-67130891D01*
X164707181Y-67006409D01*
X164670871Y-66886711D01*
X164611906Y-66776397D01*
X164533527Y-66680891D01*
X164611906Y-66585385D01*
X164670871Y-66475071D01*
X164707181Y-66355373D01*
X164719441Y-66230891D01*
X164716369Y-66091641D01*
X164557619Y-65932891D01*
X163408369Y-65932891D01*
X163408369Y-65952891D01*
X163154369Y-65952891D01*
X163154369Y-65932891D01*
X163134369Y-65932891D01*
X163134369Y-65678891D01*
X163154369Y-65678891D01*
X163154369Y-64904641D01*
X163408369Y-64904641D01*
X163408369Y-65678891D01*
X164557619Y-65678891D01*
X164716369Y-65520141D01*
X164719441Y-65380891D01*
X164707181Y-65256409D01*
X164670871Y-65136711D01*
X164611906Y-65026397D01*
X164532554Y-64929706D01*
X164435863Y-64850354D01*
X164325549Y-64791389D01*
X164205851Y-64755079D01*
X164081369Y-64742819D01*
X163567119Y-64745891D01*
X163408369Y-64904641D01*
X163154369Y-64904641D01*
X162995619Y-64745891D01*
X162481369Y-64742819D01*
X162356887Y-64755079D01*
X162237189Y-64791389D01*
X162126875Y-64850354D01*
X162030184Y-64929706D01*
X161950832Y-65026397D01*
X161907585Y-65107305D01*
X160864883Y-64064604D01*
X160841080Y-64035600D01*
X160725355Y-63940627D01*
X160593326Y-63870055D01*
X160450065Y-63826598D01*
X160338412Y-63815601D01*
X160338401Y-63815601D01*
X160301079Y-63811925D01*
X160263757Y-63815601D01*
X152978562Y-63815601D01*
X152941237Y-63811925D01*
X152903912Y-63815601D01*
X152903904Y-63815601D01*
X152792251Y-63826598D01*
X152648990Y-63870055D01*
X152516961Y-63940627D01*
X152401236Y-64035600D01*
X152377437Y-64064599D01*
X151889002Y-64553035D01*
X151859999Y-64576837D01*
X151819901Y-64625697D01*
X151765026Y-64692562D01*
X151706388Y-64802266D01*
X151704061Y-64806618D01*
X151495534Y-64874373D01*
X151380934Y-64924501D01*
X151380490Y-64924810D01*
X151379947Y-64924821D01*
X151257769Y-64951628D01*
X150734688Y-65121588D01*
X150712179Y-65131433D01*
X150688829Y-65139020D01*
X150574222Y-65189149D01*
X150488703Y-65237042D01*
X150386085Y-65308563D01*
X150311552Y-65372220D01*
X150224857Y-65462388D01*
X150164175Y-65539363D01*
X150096739Y-65644707D01*
X150052240Y-65732040D01*
X150006649Y-65848524D01*
X149980043Y-65942862D01*
X149958054Y-66066000D01*
X149950364Y-66163715D01*
X149952820Y-66288775D01*
X149964341Y-66386112D01*
X149991149Y-66508293D01*
X149998738Y-66531647D01*
X150004002Y-66555641D01*
X150158511Y-67031170D01*
X150168354Y-67053674D01*
X150175947Y-67077042D01*
X150226073Y-67191637D01*
X150273966Y-67277156D01*
X150345483Y-67379770D01*
X150409139Y-67454303D01*
X150499311Y-67541002D01*
X150547799Y-67579227D01*
X150865801Y-69977587D01*
X150794838Y-70000644D01*
X150680237Y-70050772D01*
X150577618Y-70122293D01*
X150490924Y-70212460D01*
X150423487Y-70317808D01*
X150377897Y-70434288D01*
X150355908Y-70557424D01*
X150358364Y-70682484D01*
X150385170Y-70804662D01*
X150564256Y-71355832D01*
X145086747Y-71355832D01*
X144774981Y-70926723D01*
X144691894Y-70833221D01*
X144592162Y-70757726D01*
X144479618Y-70703138D01*
X144358587Y-70671556D01*
X144233719Y-70664192D01*
X144109815Y-70681330D01*
X143991635Y-70722311D01*
X143883721Y-70785561D01*
X142589294Y-71726017D01*
X142495792Y-71809104D01*
X142420297Y-71908836D01*
X142365709Y-72021380D01*
X142334127Y-72142411D01*
X142326763Y-72267279D01*
X142343901Y-72391183D01*
X142384882Y-72509363D01*
X142448132Y-72617277D01*
X142947749Y-73304941D01*
X143030836Y-73398443D01*
X143130568Y-73473938D01*
X143243112Y-73528526D01*
X143362661Y-73559721D01*
X143355387Y-73683059D01*
X143372525Y-73806963D01*
X143413506Y-73925143D01*
X143476756Y-74033057D01*
X143641107Y-74259267D01*
X143664988Y-75801263D01*
X143613785Y-75932087D01*
X143583180Y-76103468D01*
X143586100Y-76252147D01*
X142567133Y-77707472D01*
X137390986Y-76397511D01*
X137331146Y-76315149D01*
X137552886Y-76350269D01*
X138011179Y-76021096D01*
X138104681Y-75938009D01*
X138180176Y-75838277D01*
X138234763Y-75725732D01*
X138266346Y-75604701D01*
X138273710Y-75479835D01*
X138256572Y-75355930D01*
X138215591Y-75237750D01*
X138152341Y-75129836D01*
X137818198Y-74675154D01*
X137596456Y-74640033D01*
X136626242Y-75344934D01*
X136637998Y-75361115D01*
X136432507Y-75510412D01*
X136420752Y-75494232D01*
X136404571Y-75505988D01*
X136255274Y-75300497D01*
X136271454Y-75288742D01*
X136259698Y-75272561D01*
X136465189Y-75123264D01*
X136476944Y-75139444D01*
X137447158Y-74434543D01*
X137482279Y-74212800D01*
X137181479Y-73794010D01*
X139745641Y-73794010D01*
X139664232Y-73866352D01*
X139588736Y-73966084D01*
X139534149Y-74078629D01*
X139502566Y-74199660D01*
X139495203Y-74324526D01*
X139512340Y-74448431D01*
X139553321Y-74566611D01*
X139616572Y-74674525D01*
X139700906Y-74785375D01*
X139922648Y-74820496D01*
X140852411Y-74144984D01*
X140840655Y-74128803D01*
X141046146Y-73979506D01*
X141057901Y-73995686D01*
X141074082Y-73983930D01*
X141223379Y-74189421D01*
X141207199Y-74201176D01*
X141218955Y-74217357D01*
X141013464Y-74366654D01*
X141001709Y-74350474D01*
X140071946Y-75025986D01*
X140036825Y-75247728D01*
X140116189Y-75362190D01*
X140199276Y-75455692D01*
X140299008Y-75531187D01*
X140411553Y-75585774D01*
X140531101Y-75616970D01*
X140523827Y-75740307D01*
X140540965Y-75864211D01*
X140581946Y-75982391D01*
X140645196Y-76090305D01*
X141144813Y-76777969D01*
X141227900Y-76871471D01*
X141327632Y-76946966D01*
X141440176Y-77001554D01*
X141561207Y-77033136D01*
X141686075Y-77040500D01*
X141809979Y-77023362D01*
X141928159Y-76982381D01*
X142036073Y-76919131D01*
X143330500Y-75978675D01*
X143424002Y-75895588D01*
X143499497Y-75795856D01*
X143554085Y-75683312D01*
X143585667Y-75562281D01*
X143593031Y-75437413D01*
X143575893Y-75313509D01*
X143534912Y-75195329D01*
X143471662Y-75087415D01*
X143391165Y-74976620D01*
X143391165Y-74140662D01*
X143394841Y-74103340D01*
X143391165Y-74066017D01*
X143391165Y-74066007D01*
X143380168Y-73954354D01*
X143336711Y-73811093D01*
X143324379Y-73788021D01*
X143266139Y-73679063D01*
X143194964Y-73592337D01*
X143171166Y-73563339D01*
X143142169Y-73539542D01*
X142125639Y-72523012D01*
X142101836Y-72494009D01*
X141986111Y-72399036D01*
X141854082Y-72328464D01*
X141710821Y-72285007D01*
X141599168Y-72274010D01*
X141599157Y-72274010D01*
X141561835Y-72270334D01*
X141524513Y-72274010D01*
X137634144Y-72274010D01*
X142707743Y-68587825D01*
X146110000Y-68587825D01*
X146110000Y-68826175D01*
X146156499Y-69059944D01*
X146247712Y-69280150D01*
X146380131Y-69478330D01*
X146548670Y-69646869D01*
X146746850Y-69779288D01*
X146967056Y-69870501D01*
X147200825Y-69917000D01*
X147439175Y-69917000D01*
X147672944Y-69870501D01*
X147893150Y-69779288D01*
X148091330Y-69646869D01*
X148259869Y-69478330D01*
X148392288Y-69280150D01*
X148483501Y-69059944D01*
X148530000Y-68826175D01*
X148530000Y-68587825D01*
X148483501Y-68354056D01*
X148392288Y-68133850D01*
X148259869Y-67935670D01*
X148091330Y-67767131D01*
X147893150Y-67634712D01*
X147672944Y-67543499D01*
X147439175Y-67497000D01*
X147200825Y-67497000D01*
X146967056Y-67543499D01*
X146746850Y-67634712D01*
X146548670Y-67767131D01*
X146380131Y-67935670D01*
X146247712Y-68133850D01*
X146156499Y-68354056D01*
X146110000Y-68587825D01*
X142707743Y-68587825D01*
X151398542Y-62273591D01*
X169244591Y-62273591D01*
X169212667Y-62299790D01*
G37*
%TD.AperFunction*%
D19*
X172567783Y-70191080D02*
X172627623Y-70273442D01*
X172405883Y-70238322D01*
X171947590Y-70567495D01*
X171854088Y-70650582D01*
X171778593Y-70750314D01*
X171724006Y-70862859D01*
X171692423Y-70983890D01*
X171685059Y-71108756D01*
X171702197Y-71232661D01*
X171743178Y-71350841D01*
X171806428Y-71458755D01*
X172140571Y-71913437D01*
X172362313Y-71948558D01*
X173332527Y-71243657D01*
X173320771Y-71227476D01*
X173526262Y-71078179D01*
X173538017Y-71094359D01*
X173554198Y-71082603D01*
X173703495Y-71288094D01*
X173687315Y-71299849D01*
X173699071Y-71316030D01*
X173493580Y-71465327D01*
X173481825Y-71449147D01*
X172511611Y-72154048D01*
X172476490Y-72375791D01*
X172777289Y-72794580D01*
X170213128Y-72794580D01*
X170294537Y-72722238D01*
X170370033Y-72622506D01*
X170424620Y-72509961D01*
X170456203Y-72388930D01*
X170463566Y-72264064D01*
X170446429Y-72140159D01*
X170405448Y-72021979D01*
X170342197Y-71914065D01*
X170257863Y-71803215D01*
X170036121Y-71768094D01*
X169106358Y-72443606D01*
X169118114Y-72459787D01*
X168912623Y-72609084D01*
X168900868Y-72592904D01*
X168884687Y-72604660D01*
X168735390Y-72399169D01*
X168751570Y-72387414D01*
X168739814Y-72371233D01*
X168945305Y-72221936D01*
X168957060Y-72238116D01*
X169886823Y-71562604D01*
X169921944Y-71340862D01*
X169842580Y-71226400D01*
X169759493Y-71132898D01*
X169659761Y-71057403D01*
X169547216Y-71002816D01*
X169427668Y-70971620D01*
X169434942Y-70848283D01*
X169417804Y-70724379D01*
X169376823Y-70606199D01*
X169313573Y-70498285D01*
X168813956Y-69810621D01*
X168730869Y-69717119D01*
X168631137Y-69641624D01*
X168518593Y-69587036D01*
X168397562Y-69555454D01*
X168272694Y-69548090D01*
X168148790Y-69565228D01*
X168030610Y-69606209D01*
X167922696Y-69669459D01*
X166628269Y-70609915D01*
X166534767Y-70693002D01*
X166459272Y-70792734D01*
X166419239Y-70875269D01*
X166426052Y-70709006D01*
X166456764Y-70661030D01*
X166520215Y-70498913D01*
X166550820Y-70327532D01*
X166547553Y-70161153D01*
X167406056Y-68884767D01*
X172567783Y-70191080D01*
%TA.AperFunction,Conductor*%
D20*
G36*
X172567783Y-70191080D02*
G01*
X172627623Y-70273442D01*
X172405883Y-70238322D01*
X171947590Y-70567495D01*
X171854088Y-70650582D01*
X171778593Y-70750314D01*
X171724006Y-70862859D01*
X171692423Y-70983890D01*
X171685059Y-71108756D01*
X171702197Y-71232661D01*
X171743178Y-71350841D01*
X171806428Y-71458755D01*
X172140571Y-71913437D01*
X172362313Y-71948558D01*
X173332527Y-71243657D01*
X173320771Y-71227476D01*
X173526262Y-71078179D01*
X173538017Y-71094359D01*
X173554198Y-71082603D01*
X173703495Y-71288094D01*
X173687315Y-71299849D01*
X173699071Y-71316030D01*
X173493580Y-71465327D01*
X173481825Y-71449147D01*
X172511611Y-72154048D01*
X172476490Y-72375791D01*
X172777289Y-72794580D01*
X170213128Y-72794580D01*
X170294537Y-72722238D01*
X170370033Y-72622506D01*
X170424620Y-72509961D01*
X170456203Y-72388930D01*
X170463566Y-72264064D01*
X170446429Y-72140159D01*
X170405448Y-72021979D01*
X170342197Y-71914065D01*
X170257863Y-71803215D01*
X170036121Y-71768094D01*
X169106358Y-72443606D01*
X169118114Y-72459787D01*
X168912623Y-72609084D01*
X168900868Y-72592904D01*
X168884687Y-72604660D01*
X168735390Y-72399169D01*
X168751570Y-72387414D01*
X168739814Y-72371233D01*
X168945305Y-72221936D01*
X168957060Y-72238116D01*
X169886823Y-71562604D01*
X169921944Y-71340862D01*
X169842580Y-71226400D01*
X169759493Y-71132898D01*
X169659761Y-71057403D01*
X169547216Y-71002816D01*
X169427668Y-70971620D01*
X169434942Y-70848283D01*
X169417804Y-70724379D01*
X169376823Y-70606199D01*
X169313573Y-70498285D01*
X168813956Y-69810621D01*
X168730869Y-69717119D01*
X168631137Y-69641624D01*
X168518593Y-69587036D01*
X168397562Y-69555454D01*
X168272694Y-69548090D01*
X168148790Y-69565228D01*
X168030610Y-69606209D01*
X167922696Y-69669459D01*
X166628269Y-70609915D01*
X166534767Y-70693002D01*
X166459272Y-70792734D01*
X166419239Y-70875269D01*
X166426052Y-70709006D01*
X166456764Y-70661030D01*
X166520215Y-70498913D01*
X166550820Y-70327532D01*
X166547553Y-70161153D01*
X167406056Y-68884767D01*
X172567783Y-70191080D01*
G37*
%TD.AperFunction*%
D19*
X177967942Y-70214472D02*
X178130730Y-70051684D01*
X178159728Y-70027886D01*
X178254701Y-69912161D01*
X178325273Y-69780132D01*
X178368730Y-69636871D01*
X178375640Y-69566713D01*
X178566359Y-69439279D01*
X178773202Y-69232436D01*
X178935717Y-68989215D01*
X179047659Y-68718962D01*
X179104727Y-68432064D01*
X179104727Y-68139544D01*
X179047659Y-67852646D01*
X178935717Y-67582393D01*
X178773202Y-67339172D01*
X178566359Y-67132329D01*
X178323138Y-66969814D01*
X178052885Y-66857872D01*
X177765987Y-66800804D01*
X177473467Y-66800804D01*
X177186569Y-66857872D01*
X176916316Y-66969814D01*
X176673095Y-67132329D01*
X176466252Y-67339172D01*
X176303737Y-67582393D01*
X176191795Y-67852646D01*
X176169239Y-67966041D01*
X175255804Y-65154777D01*
X175293092Y-65192065D01*
X175536313Y-65354580D01*
X175806566Y-65466522D01*
X176093464Y-65523590D01*
X176385984Y-65523590D01*
X176672882Y-65466522D01*
X176943135Y-65354580D01*
X177186356Y-65192065D01*
X177393199Y-64985222D01*
X177555714Y-64742001D01*
X177667656Y-64471748D01*
X177724724Y-64184850D01*
X177724724Y-63892330D01*
X177667656Y-63605432D01*
X177555714Y-63335179D01*
X177393199Y-63091958D01*
X177186356Y-62885115D01*
X176943135Y-62722600D01*
X176672882Y-62610658D01*
X176385984Y-62553590D01*
X176093464Y-62553590D01*
X175873316Y-62597381D01*
X175628527Y-62352592D01*
X175604724Y-62323588D01*
X175543802Y-62273591D01*
X188897627Y-62273591D01*
X177967942Y-70214472D01*
%TA.AperFunction,Conductor*%
D20*
G36*
X177967942Y-70214472D02*
G01*
X178130730Y-70051684D01*
X178159728Y-70027886D01*
X178254701Y-69912161D01*
X178325273Y-69780132D01*
X178368730Y-69636871D01*
X178375640Y-69566713D01*
X178566359Y-69439279D01*
X178773202Y-69232436D01*
X178935717Y-68989215D01*
X179047659Y-68718962D01*
X179104727Y-68432064D01*
X179104727Y-68139544D01*
X179047659Y-67852646D01*
X178935717Y-67582393D01*
X178773202Y-67339172D01*
X178566359Y-67132329D01*
X178323138Y-66969814D01*
X178052885Y-66857872D01*
X177765987Y-66800804D01*
X177473467Y-66800804D01*
X177186569Y-66857872D01*
X176916316Y-66969814D01*
X176673095Y-67132329D01*
X176466252Y-67339172D01*
X176303737Y-67582393D01*
X176191795Y-67852646D01*
X176169239Y-67966041D01*
X175255804Y-65154777D01*
X175293092Y-65192065D01*
X175536313Y-65354580D01*
X175806566Y-65466522D01*
X176093464Y-65523590D01*
X176385984Y-65523590D01*
X176672882Y-65466522D01*
X176943135Y-65354580D01*
X177186356Y-65192065D01*
X177393199Y-64985222D01*
X177555714Y-64742001D01*
X177667656Y-64471748D01*
X177724724Y-64184850D01*
X177724724Y-63892330D01*
X177667656Y-63605432D01*
X177555714Y-63335179D01*
X177393199Y-63091958D01*
X177186356Y-62885115D01*
X176943135Y-62722600D01*
X176672882Y-62610658D01*
X176385984Y-62553590D01*
X176093464Y-62553590D01*
X175873316Y-62597381D01*
X175628527Y-62352592D01*
X175604724Y-62323588D01*
X175543802Y-62273591D01*
X188897627Y-62273591D01*
X177967942Y-70214472D01*
G37*
%TD.AperFunction*%
D19*
X169833474Y-63911590D02*
X171032724Y-63911590D01*
X171032724Y-63891590D01*
X171286724Y-63891590D01*
X171286724Y-63911590D01*
X171306724Y-63911590D01*
X171306724Y-64165590D01*
X171286724Y-64165590D01*
X171286724Y-65364840D01*
X171445474Y-65523590D01*
X171809690Y-65525573D01*
X171237352Y-66097912D01*
X170534397Y-66420891D01*
X168187306Y-66420891D01*
X168207181Y-66355373D01*
X168219441Y-66230891D01*
X168219441Y-65442621D01*
X168773472Y-64888590D01*
X169671652Y-64888590D01*
X169683912Y-65013072D01*
X169720222Y-65132770D01*
X169779187Y-65243084D01*
X169858539Y-65339775D01*
X169955230Y-65419127D01*
X170065544Y-65478092D01*
X170185242Y-65514402D01*
X170309724Y-65526662D01*
X170873974Y-65523590D01*
X171032724Y-65364840D01*
X171032724Y-64165590D01*
X169833474Y-64165590D01*
X169674724Y-64324340D01*
X169671652Y-64888590D01*
X168773472Y-64888590D01*
X169791973Y-63870089D01*
X169833474Y-63911590D01*
%TA.AperFunction,Conductor*%
D20*
G36*
X169833474Y-63911590D02*
G01*
X171032724Y-63911590D01*
X171032724Y-63891590D01*
X171286724Y-63891590D01*
X171286724Y-63911590D01*
X171306724Y-63911590D01*
X171306724Y-64165590D01*
X171286724Y-64165590D01*
X171286724Y-65364840D01*
X171445474Y-65523590D01*
X171809690Y-65525573D01*
X171237352Y-66097912D01*
X170534397Y-66420891D01*
X168187306Y-66420891D01*
X168207181Y-66355373D01*
X168219441Y-66230891D01*
X168219441Y-65442621D01*
X168773472Y-64888590D01*
X169671652Y-64888590D01*
X169683912Y-65013072D01*
X169720222Y-65132770D01*
X169779187Y-65243084D01*
X169858539Y-65339775D01*
X169955230Y-65419127D01*
X170065544Y-65478092D01*
X170185242Y-65514402D01*
X170309724Y-65526662D01*
X170873974Y-65523590D01*
X171032724Y-65364840D01*
X171032724Y-64165590D01*
X169833474Y-64165590D01*
X169674724Y-64324340D01*
X169671652Y-64888590D01*
X168773472Y-64888590D01*
X169791973Y-63870089D01*
X169833474Y-63911590D01*
G37*
%TD.AperFunction*%
%TD*%
D19*
%TO.N,VCC*%
X175426737Y-69764886D02*
X169626273Y-67676719D01*
X173918617Y-65704562D01*
X175426737Y-69764886D01*
%TA.AperFunction,Conductor*%
D20*
G36*
X175426737Y-69764886D02*
G01*
X169626273Y-67676719D01*
X173918617Y-65704562D01*
X175426737Y-69764886D01*
G37*
%TD.AperFunction*%
%TD*%
D19*
%TO.N,VCC*%
X139997336Y-78431475D02*
X136214931Y-80953078D01*
X135183365Y-77629146D01*
X139997336Y-78431475D01*
%TA.AperFunction,Conductor*%
D20*
G36*
X139997336Y-78431475D02*
G01*
X136214931Y-80953078D01*
X135183365Y-77629146D01*
X139997336Y-78431475D01*
G37*
%TD.AperFunction*%
%TD*%
M02*
