%TF.GenerationSoftware,KiCad,Pcbnew,5.1.8*%
%TF.CreationDate,2021-01-07T11:35:16-05:00*%
%TF.ProjectId,penroserombus_thin_40mm,70656e72-6f73-4657-926f-6d6275735f74,rev?*%
%TF.SameCoordinates,Original*%
%TF.FileFunction,Soldermask,Top*%
%TF.FilePolarity,Negative*%
%FSLAX46Y46*%
G04 Gerber Fmt 4.6, Leading zero omitted, Abs format (unit mm)*
G04 Created by KiCad (PCBNEW 5.1.8) date 2021-01-07 11:35:16*
%MOMM*%
%LPD*%
G01*
G04 APERTURE LIST*
%ADD10C,2.200000*%
%ADD11C,1.524000*%
%ADD12C,0.100000*%
%ADD13O,1.700000X1.700000*%
%ADD14R,1.700000X1.700000*%
G04 APERTURE END LIST*
D10*
%TO.C,M2*%
X146050000Y-81915000D03*
%TD*%
%TO.C,M2*%
X163322000Y-64897000D03*
%TD*%
D11*
%TO.C,MH*%
X162941000Y-76835000D03*
%TD*%
%TO.C,MH*%
X146558000Y-69723000D03*
%TD*%
D12*
%TO.C,J3*%
G36*
X135261566Y-75128791D02*
G01*
X136636895Y-74129556D01*
X137636130Y-75504885D01*
X136260801Y-76504120D01*
X135261566Y-75128791D01*
G37*
G36*
G01*
X133894328Y-76122149D02*
X133894328Y-76122149D01*
G75*
G02*
X135081609Y-76310196I499617J-687664D01*
G01*
X135081609Y-76310196D01*
G75*
G02*
X134893562Y-77497477I-687664J-499617D01*
G01*
X134893562Y-77497477D01*
G75*
G02*
X133706281Y-77309430I-499617J687664D01*
G01*
X133706281Y-77309430D01*
G75*
G02*
X133894328Y-76122149I687664J499617D01*
G01*
G37*
G36*
G01*
X131839425Y-77615123D02*
X131839425Y-77615123D01*
G75*
G02*
X133026706Y-77803170I499617J-687664D01*
G01*
X133026706Y-77803170D01*
G75*
G02*
X132838659Y-78990451I-687664J-499617D01*
G01*
X132838659Y-78990451D01*
G75*
G02*
X131651378Y-78802404I-499617J687664D01*
G01*
X131651378Y-78802404D01*
G75*
G02*
X131839425Y-77615123I687664J499617D01*
G01*
G37*
%TD*%
%TO.C,C1*%
G36*
G01*
X147194701Y-76237479D02*
X148098205Y-75943913D01*
G75*
G02*
X148413223Y-76104423I77254J-237764D01*
G01*
X148621809Y-76746387D01*
G75*
G02*
X148461299Y-77061405I-237764J-77254D01*
G01*
X147557795Y-77354971D01*
G75*
G02*
X147242777Y-77194461I-77254J237764D01*
G01*
X147034191Y-76552497D01*
G75*
G02*
X147194701Y-76237479I237764J77254D01*
G01*
G37*
G36*
G01*
X146553491Y-74264037D02*
X147456995Y-73970471D01*
G75*
G02*
X147772013Y-74130981I77254J-237764D01*
G01*
X147980599Y-74772945D01*
G75*
G02*
X147820089Y-75087963I-237764J-77254D01*
G01*
X146916585Y-75381529D01*
G75*
G02*
X146601567Y-75221019I-77254J237764D01*
G01*
X146392981Y-74579055D01*
G75*
G02*
X146553491Y-74264037I237764J77254D01*
G01*
G37*
%TD*%
%TO.C,C2*%
G36*
G01*
X163072509Y-71473405D02*
X162169005Y-71766971D01*
G75*
G02*
X161853987Y-71606461I-77254J237764D01*
G01*
X161645401Y-70964497D01*
G75*
G02*
X161805911Y-70649479I237764J77254D01*
G01*
X162709415Y-70355913D01*
G75*
G02*
X163024433Y-70516423I77254J-237764D01*
G01*
X163233019Y-71158387D01*
G75*
G02*
X163072509Y-71473405I-237764J-77254D01*
G01*
G37*
G36*
G01*
X162431299Y-69499963D02*
X161527795Y-69793529D01*
G75*
G02*
X161212777Y-69633019I-77254J237764D01*
G01*
X161004191Y-68991055D01*
G75*
G02*
X161164701Y-68676037I237764J77254D01*
G01*
X162068205Y-68382471D01*
G75*
G02*
X162383223Y-68542981I77254J-237764D01*
G01*
X162591809Y-69184945D01*
G75*
G02*
X162431299Y-69499963I-237764J-77254D01*
G01*
G37*
%TD*%
%TO.C,D1*%
G36*
X145185004Y-78684755D02*
G01*
X144875987Y-77733698D01*
X146302572Y-77270173D01*
X146611589Y-78221230D01*
X145185004Y-78684755D01*
G37*
G36*
X144196149Y-75641374D02*
G01*
X143887132Y-74690317D01*
X145313717Y-74226792D01*
X145622734Y-75177849D01*
X144196149Y-75641374D01*
G37*
G36*
X140524827Y-80198938D02*
G01*
X140215810Y-79247881D01*
X141642395Y-78784356D01*
X141951412Y-79735413D01*
X140524827Y-80198938D01*
G37*
G36*
X139535972Y-77155557D02*
G01*
X139226955Y-76204500D01*
X140653540Y-75740975D01*
X140962557Y-76692032D01*
X139535972Y-77155557D01*
G37*
%TD*%
%TO.C,D2*%
G36*
X170422799Y-69433036D02*
G01*
X170731816Y-70384093D01*
X169305231Y-70847618D01*
X168996214Y-69896561D01*
X170422799Y-69433036D01*
G37*
G36*
X169433944Y-66389655D02*
G01*
X169742961Y-67340712D01*
X168316376Y-67804237D01*
X168007359Y-66853180D01*
X169433944Y-66389655D01*
G37*
G36*
X165762622Y-70947219D02*
G01*
X166071639Y-71898276D01*
X164645054Y-72361801D01*
X164336037Y-71410744D01*
X165762622Y-70947219D01*
G37*
G36*
X164773767Y-67903838D02*
G01*
X165082784Y-68854895D01*
X163656199Y-69318420D01*
X163347182Y-68367363D01*
X164773767Y-67903838D01*
G37*
%TD*%
D13*
%TO.C,J1*%
X176239724Y-64038590D03*
X173699724Y-64038590D03*
D14*
X171159724Y-64038590D03*
%TD*%
%TO.C,J2*%
X138799045Y-82550000D03*
D13*
X136259045Y-82550000D03*
X133719045Y-82550000D03*
%TD*%
%TO.C,J4*%
G36*
G01*
X178119344Y-68973468D02*
X178119344Y-68973468D01*
G75*
G02*
X176932063Y-68785421I-499617J687664D01*
G01*
X176932063Y-68785421D01*
G75*
G02*
X177120110Y-67598140I687664J499617D01*
G01*
X177120110Y-67598140D01*
G75*
G02*
X178307391Y-67786187I499617J-687664D01*
G01*
X178307391Y-67786187D01*
G75*
G02*
X178119344Y-68973468I-687664J-499617D01*
G01*
G37*
G36*
G01*
X176064441Y-70466442D02*
X176064441Y-70466442D01*
G75*
G02*
X174877160Y-70278395I-499617J687664D01*
G01*
X174877160Y-70278395D01*
G75*
G02*
X175065207Y-69091114I687664J499617D01*
G01*
X175065207Y-69091114D01*
G75*
G02*
X176252488Y-69279161I499617J-687664D01*
G01*
X176252488Y-69279161D01*
G75*
G02*
X176064441Y-70466442I-687664J-499617D01*
G01*
G37*
D12*
G36*
X174697203Y-71459800D02*
G01*
X173321874Y-72459035D01*
X172322639Y-71083706D01*
X173697968Y-70084471D01*
X174697203Y-71459800D01*
G37*
%TD*%
%TO.C,JP1*%
G36*
X157055139Y-77851477D02*
G01*
X157518664Y-79278062D01*
X156567607Y-79587079D01*
X156104082Y-78160494D01*
X157055139Y-77851477D01*
G37*
G36*
X155806577Y-79833720D02*
G01*
X155783243Y-79841301D01*
X155735316Y-79851816D01*
X155686589Y-79857584D01*
X155637530Y-79858547D01*
X155588613Y-79854698D01*
X155540310Y-79846071D01*
X155493085Y-79832753D01*
X155447393Y-79814869D01*
X155403672Y-79792592D01*
X155362347Y-79766139D01*
X155323813Y-79735760D01*
X155288442Y-79701753D01*
X155256576Y-79664441D01*
X155228519Y-79624186D01*
X155204544Y-79581374D01*
X155184880Y-79536420D01*
X155177299Y-79513087D01*
X155176726Y-79513273D01*
X155022217Y-79037744D01*
X155022790Y-79037558D01*
X155015209Y-79014225D01*
X155004694Y-78966298D01*
X154998926Y-78917570D01*
X154997963Y-78868512D01*
X155001812Y-78819595D01*
X155010439Y-78771292D01*
X155023757Y-78724066D01*
X155041641Y-78678374D01*
X155063918Y-78634654D01*
X155090371Y-78593328D01*
X155120749Y-78554795D01*
X155154757Y-78519424D01*
X155192068Y-78487557D01*
X155232324Y-78459501D01*
X155275135Y-78435526D01*
X155320090Y-78415862D01*
X155343423Y-78408280D01*
X155343237Y-78407708D01*
X155866318Y-78237748D01*
X156329844Y-79664333D01*
X155806763Y-79834292D01*
X155806577Y-79833720D01*
G37*
G36*
X157292902Y-77774223D02*
G01*
X157815983Y-77604264D01*
X157816169Y-77604836D01*
X157839503Y-77597255D01*
X157887430Y-77586740D01*
X157936157Y-77580972D01*
X157985216Y-77580009D01*
X158034133Y-77583858D01*
X158082436Y-77592485D01*
X158129661Y-77605803D01*
X158175353Y-77623687D01*
X158219074Y-77645964D01*
X158260399Y-77672417D01*
X158298933Y-77702796D01*
X158334304Y-77736803D01*
X158366170Y-77774115D01*
X158394227Y-77814370D01*
X158418202Y-77857182D01*
X158437866Y-77902136D01*
X158445447Y-77925469D01*
X158446020Y-77925283D01*
X158600529Y-78400812D01*
X158599956Y-78400998D01*
X158607537Y-78424331D01*
X158618052Y-78472258D01*
X158623820Y-78520986D01*
X158624783Y-78570044D01*
X158620934Y-78618961D01*
X158612307Y-78667264D01*
X158598989Y-78714490D01*
X158581105Y-78760182D01*
X158558828Y-78803902D01*
X158532375Y-78845228D01*
X158501997Y-78883761D01*
X158467989Y-78919132D01*
X158430678Y-78950999D01*
X158390422Y-78979055D01*
X158347611Y-79003030D01*
X158302656Y-79022694D01*
X158279323Y-79030276D01*
X158279509Y-79030848D01*
X157756428Y-79200808D01*
X157292902Y-77774223D01*
G37*
%TD*%
%TO.C,JP2*%
G36*
X152881529Y-65094945D02*
G01*
X153404610Y-64924986D01*
X153404796Y-64925558D01*
X153428130Y-64917977D01*
X153476057Y-64907462D01*
X153524784Y-64901694D01*
X153573843Y-64900731D01*
X153622760Y-64904580D01*
X153671063Y-64913207D01*
X153718288Y-64926525D01*
X153763980Y-64944409D01*
X153807701Y-64966686D01*
X153849026Y-64993139D01*
X153887560Y-65023518D01*
X153922931Y-65057525D01*
X153954797Y-65094837D01*
X153982854Y-65135092D01*
X154006829Y-65177904D01*
X154026493Y-65222858D01*
X154034074Y-65246191D01*
X154034647Y-65246005D01*
X154189156Y-65721534D01*
X154188583Y-65721720D01*
X154196164Y-65745053D01*
X154206679Y-65792980D01*
X154212447Y-65841708D01*
X154213410Y-65890766D01*
X154209561Y-65939683D01*
X154200934Y-65987986D01*
X154187616Y-66035212D01*
X154169732Y-66080904D01*
X154147455Y-66124624D01*
X154121002Y-66165950D01*
X154090624Y-66204483D01*
X154056616Y-66239854D01*
X154019305Y-66271721D01*
X153979049Y-66299777D01*
X153936238Y-66323752D01*
X153891283Y-66343416D01*
X153867950Y-66350998D01*
X153868136Y-66351570D01*
X153345055Y-66521530D01*
X152881529Y-65094945D01*
G37*
G36*
X151395204Y-67154442D02*
G01*
X151371870Y-67162023D01*
X151323943Y-67172538D01*
X151275216Y-67178306D01*
X151226157Y-67179269D01*
X151177240Y-67175420D01*
X151128937Y-67166793D01*
X151081712Y-67153475D01*
X151036020Y-67135591D01*
X150992299Y-67113314D01*
X150950974Y-67086861D01*
X150912440Y-67056482D01*
X150877069Y-67022475D01*
X150845203Y-66985163D01*
X150817146Y-66944908D01*
X150793171Y-66902096D01*
X150773507Y-66857142D01*
X150765926Y-66833809D01*
X150765353Y-66833995D01*
X150610844Y-66358466D01*
X150611417Y-66358280D01*
X150603836Y-66334947D01*
X150593321Y-66287020D01*
X150587553Y-66238292D01*
X150586590Y-66189234D01*
X150590439Y-66140317D01*
X150599066Y-66092014D01*
X150612384Y-66044788D01*
X150630268Y-65999096D01*
X150652545Y-65955376D01*
X150678998Y-65914050D01*
X150709376Y-65875517D01*
X150743384Y-65840146D01*
X150780695Y-65808279D01*
X150820951Y-65780223D01*
X150863762Y-65756248D01*
X150908717Y-65736584D01*
X150932050Y-65729002D01*
X150931864Y-65728430D01*
X151454945Y-65558470D01*
X151918471Y-66985055D01*
X151395390Y-67155014D01*
X151395204Y-67154442D01*
G37*
G36*
X152643766Y-65172199D02*
G01*
X153107291Y-66598784D01*
X152156234Y-66907801D01*
X151692709Y-65481216D01*
X152643766Y-65172199D01*
G37*
%TD*%
%TO.C,SW1*%
G36*
X155620295Y-68173402D02*
G01*
X156666458Y-67833484D01*
X157269041Y-69688044D01*
X156222878Y-70027962D01*
X155620295Y-68173402D01*
G37*
G36*
X153242654Y-68945944D02*
G01*
X154288817Y-68606026D01*
X154891400Y-70460586D01*
X153845237Y-70800504D01*
X153242654Y-68945944D01*
G37*
G36*
X150865013Y-69718487D02*
G01*
X151911176Y-69378569D01*
X152513759Y-71233129D01*
X151467596Y-71573047D01*
X150865013Y-69718487D01*
G37*
G36*
X157366241Y-73546871D02*
G01*
X158412404Y-73206953D01*
X159014987Y-75061513D01*
X157968824Y-75401431D01*
X157366241Y-73546871D01*
G37*
G36*
X154988600Y-74319414D02*
G01*
X156034763Y-73979496D01*
X156637346Y-75834056D01*
X155591183Y-76173974D01*
X154988600Y-74319414D01*
G37*
G36*
X152610959Y-75091956D02*
G01*
X153657122Y-74752038D01*
X154259705Y-76606598D01*
X153213542Y-76946516D01*
X152610959Y-75091956D01*
G37*
%TD*%
M02*
