%TF.GenerationSoftware,KiCad,Pcbnew,5.1.8*%
%TF.CreationDate,2021-01-12T21:39:11-05:00*%
%TF.ProjectId,penroserombus_thin_40mm,70656e72-6f73-4657-926f-6d6275735f74,rev?*%
%TF.SameCoordinates,Original*%
%TF.FileFunction,Paste,Top*%
%TF.FilePolarity,Positive*%
%FSLAX46Y46*%
G04 Gerber Fmt 4.6, Leading zero omitted, Abs format (unit mm)*
G04 Created by KiCad (PCBNEW 5.1.8) date 2021-01-12 21:39:11*
%MOMM*%
%LPD*%
G01*
G04 APERTURE LIST*
%ADD10C,0.100000*%
%ADD11R,1.500000X1.000000*%
G04 APERTURE END LIST*
D10*
%TO.C,D4*%
G36*
X169698497Y-73500189D02*
G01*
X170286282Y-74309206D01*
X169072757Y-75190883D01*
X168484972Y-74381866D01*
X169698497Y-73500189D01*
G37*
G36*
X167817584Y-70911335D02*
G01*
X168405369Y-71720352D01*
X167191844Y-72602029D01*
X166604059Y-71793012D01*
X167817584Y-70911335D01*
G37*
G36*
X165734314Y-76380337D02*
G01*
X166322099Y-77189354D01*
X165108574Y-78071031D01*
X164520789Y-77262014D01*
X165734314Y-76380337D01*
G37*
G36*
X163853401Y-73791483D02*
G01*
X164441186Y-74600500D01*
X163227661Y-75482177D01*
X162639876Y-74673160D01*
X163853401Y-73791483D01*
G37*
%TD*%
%TO.C,C1*%
G36*
G01*
X147581220Y-70620256D02*
X148349787Y-70061860D01*
G75*
G02*
X148698987Y-70117168I146946J-202254D01*
G01*
X149095742Y-70663254D01*
G75*
G02*
X149040434Y-71012454I-202254J-146946D01*
G01*
X148271867Y-71570850D01*
G75*
G02*
X147922667Y-71515542I-146946J202254D01*
G01*
X147525912Y-70969456D01*
G75*
G02*
X147581220Y-70620256I202254J146946D01*
G01*
G37*
G36*
G01*
X146361566Y-68941546D02*
X147130133Y-68383150D01*
G75*
G02*
X147479333Y-68438458I146946J-202254D01*
G01*
X147876088Y-68984544D01*
G75*
G02*
X147820780Y-69333744I-202254J-146946D01*
G01*
X147052213Y-69892140D01*
G75*
G02*
X146703013Y-69836832I-146946J202254D01*
G01*
X146306258Y-69290746D01*
G75*
G02*
X146361566Y-68941546I202254J146946D01*
G01*
G37*
%TD*%
%TO.C,SW1*%
G36*
X155493295Y-69189402D02*
G01*
X156539458Y-68849484D01*
X157142041Y-70704044D01*
X156095878Y-71043962D01*
X155493295Y-69189402D01*
G37*
G36*
X153115654Y-69961944D02*
G01*
X154161817Y-69622026D01*
X154764400Y-71476586D01*
X153718237Y-71816504D01*
X153115654Y-69961944D01*
G37*
G36*
X150738013Y-70734487D02*
G01*
X151784176Y-70394569D01*
X152386759Y-72249129D01*
X151340596Y-72589047D01*
X150738013Y-70734487D01*
G37*
G36*
X157239241Y-74562871D02*
G01*
X158285404Y-74222953D01*
X158887987Y-76077513D01*
X157841824Y-76417431D01*
X157239241Y-74562871D01*
G37*
G36*
X154861600Y-75335414D02*
G01*
X155907763Y-74995496D01*
X156510346Y-76850056D01*
X155464183Y-77189974D01*
X154861600Y-75335414D01*
G37*
G36*
X152483959Y-76107956D02*
G01*
X153530122Y-75768038D01*
X154132705Y-77622598D01*
X153086542Y-77962516D01*
X152483959Y-76107956D01*
G37*
%TD*%
D11*
%TO.C,D1*%
X161116375Y-63976046D03*
X161116375Y-67176046D03*
X166016375Y-63976046D03*
X166016375Y-67176046D03*
%TD*%
%TO.C,D2*%
X143942394Y-79412545D03*
X143942394Y-82612545D03*
X148842394Y-79412545D03*
X148842394Y-82612545D03*
%TD*%
%TO.C,C4*%
G36*
G01*
X163518434Y-77616454D02*
X162749867Y-78174850D01*
G75*
G02*
X162400667Y-78119542I-146946J202254D01*
G01*
X162003912Y-77573456D01*
G75*
G02*
X162059220Y-77224256I202254J146946D01*
G01*
X162827787Y-76665860D01*
G75*
G02*
X163176987Y-76721168I146946J-202254D01*
G01*
X163573742Y-77267254D01*
G75*
G02*
X163518434Y-77616454I-202254J-146946D01*
G01*
G37*
G36*
G01*
X162298780Y-75937744D02*
X161530213Y-76496140D01*
G75*
G02*
X161181013Y-76440832I-146946J202254D01*
G01*
X160784258Y-75894746D01*
G75*
G02*
X160839566Y-75545546I202254J146946D01*
G01*
X161608133Y-74987150D01*
G75*
G02*
X161957333Y-75042458I146946J-202254D01*
G01*
X162354088Y-75588544D01*
G75*
G02*
X162298780Y-75937744I-202254J-146946D01*
G01*
G37*
%TD*%
%TO.C,C3*%
G36*
G01*
X142207000Y-80068000D02*
X141257000Y-80068000D01*
G75*
G02*
X141007000Y-79818000I0J250000D01*
G01*
X141007000Y-79143000D01*
G75*
G02*
X141257000Y-78893000I250000J0D01*
G01*
X142207000Y-78893000D01*
G75*
G02*
X142457000Y-79143000I0J-250000D01*
G01*
X142457000Y-79818000D01*
G75*
G02*
X142207000Y-80068000I-250000J0D01*
G01*
G37*
G36*
G01*
X142207000Y-82143000D02*
X141257000Y-82143000D01*
G75*
G02*
X141007000Y-81893000I0J250000D01*
G01*
X141007000Y-81218000D01*
G75*
G02*
X141257000Y-80968000I250000J0D01*
G01*
X142207000Y-80968000D01*
G75*
G02*
X142457000Y-81218000I0J-250000D01*
G01*
X142457000Y-81893000D01*
G75*
G02*
X142207000Y-82143000I-250000J0D01*
G01*
G37*
%TD*%
%TO.C,C2*%
G36*
G01*
X167673000Y-64669000D02*
X168623000Y-64669000D01*
G75*
G02*
X168873000Y-64919000I0J-250000D01*
G01*
X168873000Y-65594000D01*
G75*
G02*
X168623000Y-65844000I-250000J0D01*
G01*
X167673000Y-65844000D01*
G75*
G02*
X167423000Y-65594000I0J250000D01*
G01*
X167423000Y-64919000D01*
G75*
G02*
X167673000Y-64669000I250000J0D01*
G01*
G37*
G36*
G01*
X167673000Y-66744000D02*
X168623000Y-66744000D01*
G75*
G02*
X168873000Y-66994000I0J-250000D01*
G01*
X168873000Y-67669000D01*
G75*
G02*
X168623000Y-67919000I-250000J0D01*
G01*
X167673000Y-67919000D01*
G75*
G02*
X167423000Y-67669000I0J250000D01*
G01*
X167423000Y-66994000D01*
G75*
G02*
X167673000Y-66744000I250000J0D01*
G01*
G37*
%TD*%
D10*
%TO.C,D3*%
G36*
X146105368Y-72797107D02*
G01*
X145517583Y-71988090D01*
X146731108Y-71106413D01*
X147318893Y-71915430D01*
X146105368Y-72797107D01*
G37*
G36*
X144224455Y-70208253D02*
G01*
X143636670Y-69399236D01*
X144850195Y-68517559D01*
X145437980Y-69326576D01*
X144224455Y-70208253D01*
G37*
G36*
X142141185Y-75677255D02*
G01*
X141553400Y-74868238D01*
X142766925Y-73986561D01*
X143354710Y-74795578D01*
X142141185Y-75677255D01*
G37*
G36*
X140260272Y-73088401D02*
G01*
X139672487Y-72279384D01*
X140886012Y-71397707D01*
X141473797Y-72206724D01*
X140260272Y-73088401D01*
G37*
%TD*%
M02*
