M48
; DRILL file {KiCad 5.1.8} date Wed Jan  6 14:43:46 2021
; FORMAT={-:-/ absolute / inch / decimal}
; #@! TF.CreationDate,2021-01-06T14:43:46-05:00
; #@! TF.GenerationSoftware,Kicad,Pcbnew,5.1.8
; #@! TF.FileFunction,Plated,1,2,PTH
FMAT,2
INCH
T1C0.0157
T2C0.0394
%
G90
G05
T1
X5.85Y-2.92
X5.86Y-2.87
X5.97Y-3.0
X6.11Y-2.8
X6.16Y-2.78
X6.18Y-2.93
X6.19Y-2.87
X6.5486Y-2.7614
T2
X6.7386Y-2.5212
X6.8386Y-2.5212
X6.9386Y-2.5212
X6.8311Y-2.806
X6.912Y-2.7472
X6.9929Y-2.6884
X5.2102Y-3.0828
X5.2911Y-3.024
X5.372Y-2.9652
X5.2645Y-3.25
X5.3645Y-3.25
X5.4645Y-3.25
T0
M30
