%FSLAX45Y45*%
G04 Gerber Fmt 4.5, Leading zero omitted, Abs format (unit mm)*
G04 Created by KiCad (PCBNEW 5.1.9) date 2021-02-12 10:46:00*
%MOMM*%
%LPD*%
G01*
G04 APERTURE LIST*
%TA.AperFunction,Profile*%
%ADD10C,0.200000*%
%TD*%
%ADD11C,0.200000*%
%ADD12C,0.300000*%
G04 APERTURE END LIST*
D10*
X19115972Y-6153859D02*
X15115972Y-6153859D01*
X11879904Y-8505000D02*
X15879904Y-8505000D01*
X15879904Y-8505000D02*
X19115972Y-6153859D01*
X15115972Y-6153859D02*
X11879904Y-8505000D01*
D11*
X15194440Y-6514824D02*
X15309440Y-6629824D01*
X15309440Y-6514824D02*
X15194440Y-6629824D01*
X15686437Y-8029035D02*
X15801437Y-8144035D01*
X15801437Y-8029035D02*
X15686437Y-8144035D01*
X12876834Y-8233065D02*
G75*
G03*
X12876834Y-8233065I-160000J0D01*
G01*
X14940627Y-7562498D02*
G75*
G03*
X14940627Y-7562498I-160000J0D01*
G01*
X15459667Y-8170000D02*
G75*
G03*
X15459667Y-8170000I-160000J0D01*
G01*
X15856209Y-6488859D02*
G75*
G03*
X15856209Y-6488859I-160000J0D01*
G01*
X16375250Y-7096361D02*
G75*
G03*
X16375250Y-7096361I-160000J0D01*
G01*
X18439043Y-6425794D02*
G75*
G03*
X18439043Y-6425794I-160000J0D01*
G01*
D12*
X12156333Y-8980714D02*
X12156333Y-8680714D01*
X12227761Y-8680714D01*
X12270619Y-8695000D01*
X12299190Y-8723572D01*
X12313476Y-8752143D01*
X12327761Y-8809286D01*
X12327761Y-8852143D01*
X12313476Y-8909286D01*
X12299190Y-8937857D01*
X12270619Y-8966429D01*
X12227761Y-8980714D01*
X12156333Y-8980714D01*
X12456333Y-8980714D02*
X12456333Y-8780714D01*
X12456333Y-8837857D02*
X12470619Y-8809286D01*
X12484904Y-8795000D01*
X12513476Y-8780714D01*
X12542047Y-8780714D01*
X12642047Y-8980714D02*
X12642047Y-8780714D01*
X12642047Y-8680714D02*
X12627761Y-8695000D01*
X12642047Y-8709286D01*
X12656333Y-8695000D01*
X12642047Y-8680714D01*
X12642047Y-8709286D01*
X12827761Y-8980714D02*
X12799190Y-8966429D01*
X12784904Y-8937857D01*
X12784904Y-8680714D01*
X12984904Y-8980714D02*
X12956333Y-8966429D01*
X12942047Y-8937857D01*
X12942047Y-8680714D01*
X13327761Y-8980714D02*
X13327761Y-8680714D01*
X13427761Y-8895000D01*
X13527761Y-8680714D01*
X13527761Y-8980714D01*
X13799190Y-8980714D02*
X13799190Y-8823572D01*
X13784904Y-8795000D01*
X13756333Y-8780714D01*
X13699190Y-8780714D01*
X13670619Y-8795000D01*
X13799190Y-8966429D02*
X13770619Y-8980714D01*
X13699190Y-8980714D01*
X13670619Y-8966429D01*
X13656333Y-8937857D01*
X13656333Y-8909286D01*
X13670619Y-8880714D01*
X13699190Y-8866429D01*
X13770619Y-8866429D01*
X13799190Y-8852143D01*
X13942047Y-8780714D02*
X13942047Y-9080714D01*
X13942047Y-8795000D02*
X13970619Y-8780714D01*
X14027761Y-8780714D01*
X14056333Y-8795000D01*
X14070619Y-8809286D01*
X14084904Y-8837857D01*
X14084904Y-8923572D01*
X14070619Y-8952143D01*
X14056333Y-8966429D01*
X14027761Y-8980714D01*
X13970619Y-8980714D01*
X13942047Y-8966429D01*
X14213476Y-8952143D02*
X14227761Y-8966429D01*
X14213476Y-8980714D01*
X14199190Y-8966429D01*
X14213476Y-8952143D01*
X14213476Y-8980714D01*
X14213476Y-8795000D02*
X14227761Y-8809286D01*
X14213476Y-8823572D01*
X14199190Y-8809286D01*
X14213476Y-8795000D01*
X14213476Y-8823572D01*
X11754904Y-9417500D02*
X11869904Y-9532500D01*
X11869904Y-9417500D02*
X11754904Y-9532500D01*
X12313476Y-9610714D02*
X12142047Y-9610714D01*
X12227761Y-9610714D02*
X12227761Y-9310714D01*
X12199190Y-9353572D01*
X12170619Y-9382143D01*
X12142047Y-9396429D01*
X12442047Y-9582143D02*
X12456333Y-9596429D01*
X12442047Y-9610714D01*
X12427761Y-9596429D01*
X12442047Y-9582143D01*
X12442047Y-9610714D01*
X12742047Y-9610714D02*
X12570619Y-9610714D01*
X12656333Y-9610714D02*
X12656333Y-9310714D01*
X12627761Y-9353572D01*
X12599190Y-9382143D01*
X12570619Y-9396429D01*
X13013476Y-9310714D02*
X12870619Y-9310714D01*
X12856333Y-9453572D01*
X12870619Y-9439286D01*
X12899190Y-9425000D01*
X12970619Y-9425000D01*
X12999190Y-9439286D01*
X13013476Y-9453572D01*
X13027761Y-9482143D01*
X13027761Y-9553572D01*
X13013476Y-9582143D01*
X12999190Y-9596429D01*
X12970619Y-9610714D01*
X12899190Y-9610714D01*
X12870619Y-9596429D01*
X12856333Y-9582143D01*
X13156333Y-9610714D02*
X13156333Y-9410714D01*
X13156333Y-9439286D02*
X13170619Y-9425000D01*
X13199190Y-9410714D01*
X13242047Y-9410714D01*
X13270619Y-9425000D01*
X13284904Y-9453572D01*
X13284904Y-9610714D01*
X13284904Y-9453572D02*
X13299190Y-9425000D01*
X13327761Y-9410714D01*
X13370619Y-9410714D01*
X13399190Y-9425000D01*
X13413476Y-9453572D01*
X13413476Y-9610714D01*
X13556333Y-9610714D02*
X13556333Y-9410714D01*
X13556333Y-9439286D02*
X13570619Y-9425000D01*
X13599190Y-9410714D01*
X13642047Y-9410714D01*
X13670619Y-9425000D01*
X13684904Y-9453572D01*
X13684904Y-9610714D01*
X13684904Y-9453572D02*
X13699190Y-9425000D01*
X13727761Y-9410714D01*
X13770619Y-9410714D01*
X13799190Y-9425000D01*
X13813476Y-9453572D01*
X13813476Y-9610714D01*
X14399190Y-9296429D02*
X14142047Y-9682143D01*
X14784904Y-9310714D02*
X14813476Y-9310714D01*
X14842047Y-9325000D01*
X14856333Y-9339286D01*
X14870619Y-9367857D01*
X14884904Y-9425000D01*
X14884904Y-9496429D01*
X14870619Y-9553572D01*
X14856333Y-9582143D01*
X14842047Y-9596429D01*
X14813476Y-9610714D01*
X14784904Y-9610714D01*
X14756333Y-9596429D01*
X14742047Y-9582143D01*
X14727761Y-9553572D01*
X14713476Y-9496429D01*
X14713476Y-9425000D01*
X14727761Y-9367857D01*
X14742047Y-9339286D01*
X14756333Y-9325000D01*
X14784904Y-9310714D01*
X15013476Y-9582143D02*
X15027761Y-9596429D01*
X15013476Y-9610714D01*
X14999190Y-9596429D01*
X15013476Y-9582143D01*
X15013476Y-9610714D01*
X15213476Y-9310714D02*
X15242047Y-9310714D01*
X15270619Y-9325000D01*
X15284904Y-9339286D01*
X15299190Y-9367857D01*
X15313476Y-9425000D01*
X15313476Y-9496429D01*
X15299190Y-9553572D01*
X15284904Y-9582143D01*
X15270619Y-9596429D01*
X15242047Y-9610714D01*
X15213476Y-9610714D01*
X15184904Y-9596429D01*
X15170619Y-9582143D01*
X15156333Y-9553572D01*
X15142047Y-9496429D01*
X15142047Y-9425000D01*
X15156333Y-9367857D01*
X15170619Y-9339286D01*
X15184904Y-9325000D01*
X15213476Y-9310714D01*
X15570619Y-9410714D02*
X15570619Y-9610714D01*
X15499190Y-9296429D02*
X15427761Y-9510714D01*
X15613476Y-9510714D01*
X15870619Y-9310714D02*
X15727761Y-9310714D01*
X15713476Y-9453572D01*
X15727761Y-9439286D01*
X15756333Y-9425000D01*
X15827761Y-9425000D01*
X15856333Y-9439286D01*
X15870619Y-9453572D01*
X15884904Y-9482143D01*
X15884904Y-9553572D01*
X15870619Y-9582143D01*
X15856333Y-9596429D01*
X15827761Y-9610714D01*
X15756333Y-9610714D01*
X15727761Y-9596429D01*
X15713476Y-9582143D01*
X15999190Y-9310714D02*
X15999190Y-9367857D01*
X16113476Y-9310714D02*
X16113476Y-9367857D01*
X16556333Y-9725000D02*
X16542047Y-9710714D01*
X16513476Y-9667857D01*
X16499190Y-9639286D01*
X16484904Y-9596429D01*
X16470619Y-9525000D01*
X16470619Y-9467857D01*
X16484904Y-9396429D01*
X16499190Y-9353572D01*
X16513476Y-9325000D01*
X16542047Y-9282143D01*
X16556333Y-9267857D01*
X16656333Y-9339286D02*
X16670619Y-9325000D01*
X16699190Y-9310714D01*
X16770619Y-9310714D01*
X16799190Y-9325000D01*
X16813476Y-9339286D01*
X16827762Y-9367857D01*
X16827762Y-9396429D01*
X16813476Y-9439286D01*
X16642047Y-9610714D01*
X16827762Y-9610714D01*
X17184904Y-9610714D02*
X17184904Y-9310714D01*
X17313476Y-9610714D02*
X17313476Y-9453572D01*
X17299190Y-9425000D01*
X17270619Y-9410714D01*
X17227762Y-9410714D01*
X17199190Y-9425000D01*
X17184904Y-9439286D01*
X17499190Y-9610714D02*
X17470619Y-9596429D01*
X17456333Y-9582143D01*
X17442047Y-9553572D01*
X17442047Y-9467857D01*
X17456333Y-9439286D01*
X17470619Y-9425000D01*
X17499190Y-9410714D01*
X17542047Y-9410714D01*
X17570619Y-9425000D01*
X17584904Y-9439286D01*
X17599190Y-9467857D01*
X17599190Y-9553572D01*
X17584904Y-9582143D01*
X17570619Y-9596429D01*
X17542047Y-9610714D01*
X17499190Y-9610714D01*
X17770619Y-9610714D02*
X17742047Y-9596429D01*
X17727762Y-9567857D01*
X17727762Y-9310714D01*
X17999190Y-9596429D02*
X17970619Y-9610714D01*
X17913476Y-9610714D01*
X17884904Y-9596429D01*
X17870619Y-9567857D01*
X17870619Y-9453572D01*
X17884904Y-9425000D01*
X17913476Y-9410714D01*
X17970619Y-9410714D01*
X17999190Y-9425000D01*
X18013476Y-9453572D01*
X18013476Y-9482143D01*
X17870619Y-9510714D01*
X18127762Y-9596429D02*
X18156333Y-9610714D01*
X18213476Y-9610714D01*
X18242047Y-9596429D01*
X18256333Y-9567857D01*
X18256333Y-9553572D01*
X18242047Y-9525000D01*
X18213476Y-9510714D01*
X18170619Y-9510714D01*
X18142047Y-9496429D01*
X18127762Y-9467857D01*
X18127762Y-9453572D01*
X18142047Y-9425000D01*
X18170619Y-9410714D01*
X18213476Y-9410714D01*
X18242047Y-9425000D01*
X18356333Y-9725000D02*
X18370619Y-9710714D01*
X18399190Y-9667857D01*
X18413476Y-9639286D01*
X18427762Y-9596429D01*
X18442047Y-9525000D01*
X18442047Y-9467857D01*
X18427762Y-9396429D01*
X18413476Y-9353572D01*
X18399190Y-9325000D01*
X18370619Y-9282143D01*
X18356333Y-9267857D01*
X18899190Y-9725000D02*
X18884904Y-9710714D01*
X18856333Y-9667857D01*
X18842047Y-9639286D01*
X18827762Y-9596429D01*
X18813476Y-9525000D01*
X18813476Y-9467857D01*
X18827762Y-9396429D01*
X18842047Y-9353572D01*
X18856333Y-9325000D01*
X18884904Y-9282143D01*
X18899190Y-9267857D01*
X19013476Y-9410714D02*
X19013476Y-9610714D01*
X19013476Y-9439286D02*
X19027762Y-9425000D01*
X19056333Y-9410714D01*
X19099190Y-9410714D01*
X19127762Y-9425000D01*
X19142047Y-9453572D01*
X19142047Y-9610714D01*
X19327762Y-9610714D02*
X19299190Y-9596429D01*
X19284904Y-9582143D01*
X19270619Y-9553572D01*
X19270619Y-9467857D01*
X19284904Y-9439286D01*
X19299190Y-9425000D01*
X19327762Y-9410714D01*
X19370619Y-9410714D01*
X19399190Y-9425000D01*
X19413476Y-9439286D01*
X19427762Y-9467857D01*
X19427762Y-9553572D01*
X19413476Y-9582143D01*
X19399190Y-9596429D01*
X19370619Y-9610714D01*
X19327762Y-9610714D01*
X19513476Y-9410714D02*
X19627762Y-9410714D01*
X19556333Y-9310714D02*
X19556333Y-9567857D01*
X19570619Y-9596429D01*
X19599190Y-9610714D01*
X19627762Y-9610714D01*
X19956333Y-9410714D02*
X19956333Y-9710714D01*
X19956333Y-9425000D02*
X19984904Y-9410714D01*
X20042047Y-9410714D01*
X20070619Y-9425000D01*
X20084904Y-9439286D01*
X20099190Y-9467857D01*
X20099190Y-9553572D01*
X20084904Y-9582143D01*
X20070619Y-9596429D01*
X20042047Y-9610714D01*
X19984904Y-9610714D01*
X19956333Y-9596429D01*
X20270619Y-9610714D02*
X20242047Y-9596429D01*
X20227762Y-9567857D01*
X20227762Y-9310714D01*
X20513476Y-9610714D02*
X20513476Y-9453572D01*
X20499190Y-9425000D01*
X20470619Y-9410714D01*
X20413476Y-9410714D01*
X20384904Y-9425000D01*
X20513476Y-9596429D02*
X20484904Y-9610714D01*
X20413476Y-9610714D01*
X20384904Y-9596429D01*
X20370619Y-9567857D01*
X20370619Y-9539286D01*
X20384904Y-9510714D01*
X20413476Y-9496429D01*
X20484904Y-9496429D01*
X20513476Y-9482143D01*
X20613476Y-9410714D02*
X20727762Y-9410714D01*
X20656333Y-9310714D02*
X20656333Y-9567857D01*
X20670619Y-9596429D01*
X20699190Y-9610714D01*
X20727762Y-9610714D01*
X20942047Y-9596429D02*
X20913476Y-9610714D01*
X20856333Y-9610714D01*
X20827762Y-9596429D01*
X20813476Y-9567857D01*
X20813476Y-9453572D01*
X20827762Y-9425000D01*
X20856333Y-9410714D01*
X20913476Y-9410714D01*
X20942047Y-9425000D01*
X20956333Y-9453572D01*
X20956333Y-9482143D01*
X20813476Y-9510714D01*
X21213476Y-9610714D02*
X21213476Y-9310714D01*
X21213476Y-9596429D02*
X21184904Y-9610714D01*
X21127762Y-9610714D01*
X21099190Y-9596429D01*
X21084904Y-9582143D01*
X21070619Y-9553572D01*
X21070619Y-9467857D01*
X21084904Y-9439286D01*
X21099190Y-9425000D01*
X21127762Y-9410714D01*
X21184904Y-9410714D01*
X21213476Y-9425000D01*
X21327762Y-9725000D02*
X21342047Y-9710714D01*
X21370619Y-9667857D01*
X21384904Y-9639286D01*
X21399190Y-9596429D01*
X21413476Y-9525000D01*
X21413476Y-9467857D01*
X21399190Y-9396429D01*
X21384904Y-9353572D01*
X21370619Y-9325000D01*
X21342047Y-9282143D01*
X21327762Y-9267857D01*
X11869904Y-9871000D02*
G75*
G03*
X11869904Y-9871000I-160000J0D01*
G01*
X12127761Y-9706714D02*
X12313476Y-9706714D01*
X12213476Y-9821000D01*
X12256333Y-9821000D01*
X12284904Y-9835286D01*
X12299190Y-9849572D01*
X12313476Y-9878143D01*
X12313476Y-9949572D01*
X12299190Y-9978143D01*
X12284904Y-9992429D01*
X12256333Y-10006714D01*
X12170619Y-10006714D01*
X12142047Y-9992429D01*
X12127761Y-9978143D01*
X12442047Y-9978143D02*
X12456333Y-9992429D01*
X12442047Y-10006714D01*
X12427761Y-9992429D01*
X12442047Y-9978143D01*
X12442047Y-10006714D01*
X12570619Y-9735286D02*
X12584904Y-9721000D01*
X12613476Y-9706714D01*
X12684904Y-9706714D01*
X12713476Y-9721000D01*
X12727761Y-9735286D01*
X12742047Y-9763857D01*
X12742047Y-9792429D01*
X12727761Y-9835286D01*
X12556333Y-10006714D01*
X12742047Y-10006714D01*
X12927761Y-9706714D02*
X12956333Y-9706714D01*
X12984904Y-9721000D01*
X12999190Y-9735286D01*
X13013476Y-9763857D01*
X13027761Y-9821000D01*
X13027761Y-9892429D01*
X13013476Y-9949572D01*
X12999190Y-9978143D01*
X12984904Y-9992429D01*
X12956333Y-10006714D01*
X12927761Y-10006714D01*
X12899190Y-9992429D01*
X12884904Y-9978143D01*
X12870619Y-9949572D01*
X12856333Y-9892429D01*
X12856333Y-9821000D01*
X12870619Y-9763857D01*
X12884904Y-9735286D01*
X12899190Y-9721000D01*
X12927761Y-9706714D01*
X13156333Y-10006714D02*
X13156333Y-9806714D01*
X13156333Y-9835286D02*
X13170619Y-9821000D01*
X13199190Y-9806714D01*
X13242047Y-9806714D01*
X13270619Y-9821000D01*
X13284904Y-9849572D01*
X13284904Y-10006714D01*
X13284904Y-9849572D02*
X13299190Y-9821000D01*
X13327761Y-9806714D01*
X13370619Y-9806714D01*
X13399190Y-9821000D01*
X13413476Y-9849572D01*
X13413476Y-10006714D01*
X13556333Y-10006714D02*
X13556333Y-9806714D01*
X13556333Y-9835286D02*
X13570619Y-9821000D01*
X13599190Y-9806714D01*
X13642047Y-9806714D01*
X13670619Y-9821000D01*
X13684904Y-9849572D01*
X13684904Y-10006714D01*
X13684904Y-9849572D02*
X13699190Y-9821000D01*
X13727761Y-9806714D01*
X13770619Y-9806714D01*
X13799190Y-9821000D01*
X13813476Y-9849572D01*
X13813476Y-10006714D01*
X14399190Y-9692429D02*
X14142047Y-10078143D01*
X14784904Y-9706714D02*
X14813476Y-9706714D01*
X14842047Y-9721000D01*
X14856333Y-9735286D01*
X14870619Y-9763857D01*
X14884904Y-9821000D01*
X14884904Y-9892429D01*
X14870619Y-9949572D01*
X14856333Y-9978143D01*
X14842047Y-9992429D01*
X14813476Y-10006714D01*
X14784904Y-10006714D01*
X14756333Y-9992429D01*
X14742047Y-9978143D01*
X14727761Y-9949572D01*
X14713476Y-9892429D01*
X14713476Y-9821000D01*
X14727761Y-9763857D01*
X14742047Y-9735286D01*
X14756333Y-9721000D01*
X14784904Y-9706714D01*
X15013476Y-9978143D02*
X15027761Y-9992429D01*
X15013476Y-10006714D01*
X14999190Y-9992429D01*
X15013476Y-9978143D01*
X15013476Y-10006714D01*
X15313476Y-10006714D02*
X15142047Y-10006714D01*
X15227761Y-10006714D02*
X15227761Y-9706714D01*
X15199190Y-9749572D01*
X15170619Y-9778143D01*
X15142047Y-9792429D01*
X15427761Y-9735286D02*
X15442047Y-9721000D01*
X15470619Y-9706714D01*
X15542047Y-9706714D01*
X15570619Y-9721000D01*
X15584904Y-9735286D01*
X15599190Y-9763857D01*
X15599190Y-9792429D01*
X15584904Y-9835286D01*
X15413476Y-10006714D01*
X15599190Y-10006714D01*
X15856333Y-9706714D02*
X15799190Y-9706714D01*
X15770619Y-9721000D01*
X15756333Y-9735286D01*
X15727761Y-9778143D01*
X15713476Y-9835286D01*
X15713476Y-9949572D01*
X15727761Y-9978143D01*
X15742047Y-9992429D01*
X15770619Y-10006714D01*
X15827761Y-10006714D01*
X15856333Y-9992429D01*
X15870619Y-9978143D01*
X15884904Y-9949572D01*
X15884904Y-9878143D01*
X15870619Y-9849572D01*
X15856333Y-9835286D01*
X15827761Y-9821000D01*
X15770619Y-9821000D01*
X15742047Y-9835286D01*
X15727761Y-9849572D01*
X15713476Y-9878143D01*
X15999190Y-9706714D02*
X15999190Y-9763857D01*
X16113476Y-9706714D02*
X16113476Y-9763857D01*
X16556333Y-10121000D02*
X16542047Y-10106714D01*
X16513476Y-10063857D01*
X16499190Y-10035286D01*
X16484904Y-9992429D01*
X16470619Y-9921000D01*
X16470619Y-9863857D01*
X16484904Y-9792429D01*
X16499190Y-9749572D01*
X16513476Y-9721000D01*
X16542047Y-9678143D01*
X16556333Y-9663857D01*
X16799190Y-9706714D02*
X16742047Y-9706714D01*
X16713476Y-9721000D01*
X16699190Y-9735286D01*
X16670619Y-9778143D01*
X16656333Y-9835286D01*
X16656333Y-9949572D01*
X16670619Y-9978143D01*
X16684904Y-9992429D01*
X16713476Y-10006714D01*
X16770619Y-10006714D01*
X16799190Y-9992429D01*
X16813476Y-9978143D01*
X16827762Y-9949572D01*
X16827762Y-9878143D01*
X16813476Y-9849572D01*
X16799190Y-9835286D01*
X16770619Y-9821000D01*
X16713476Y-9821000D01*
X16684904Y-9835286D01*
X16670619Y-9849572D01*
X16656333Y-9878143D01*
X17184904Y-10006714D02*
X17184904Y-9706714D01*
X17313476Y-10006714D02*
X17313476Y-9849572D01*
X17299190Y-9821000D01*
X17270619Y-9806714D01*
X17227762Y-9806714D01*
X17199190Y-9821000D01*
X17184904Y-9835286D01*
X17499190Y-10006714D02*
X17470619Y-9992429D01*
X17456333Y-9978143D01*
X17442047Y-9949572D01*
X17442047Y-9863857D01*
X17456333Y-9835286D01*
X17470619Y-9821000D01*
X17499190Y-9806714D01*
X17542047Y-9806714D01*
X17570619Y-9821000D01*
X17584904Y-9835286D01*
X17599190Y-9863857D01*
X17599190Y-9949572D01*
X17584904Y-9978143D01*
X17570619Y-9992429D01*
X17542047Y-10006714D01*
X17499190Y-10006714D01*
X17770619Y-10006714D02*
X17742047Y-9992429D01*
X17727762Y-9963857D01*
X17727762Y-9706714D01*
X17999190Y-9992429D02*
X17970619Y-10006714D01*
X17913476Y-10006714D01*
X17884904Y-9992429D01*
X17870619Y-9963857D01*
X17870619Y-9849572D01*
X17884904Y-9821000D01*
X17913476Y-9806714D01*
X17970619Y-9806714D01*
X17999190Y-9821000D01*
X18013476Y-9849572D01*
X18013476Y-9878143D01*
X17870619Y-9906714D01*
X18127762Y-9992429D02*
X18156333Y-10006714D01*
X18213476Y-10006714D01*
X18242047Y-9992429D01*
X18256333Y-9963857D01*
X18256333Y-9949572D01*
X18242047Y-9921000D01*
X18213476Y-9906714D01*
X18170619Y-9906714D01*
X18142047Y-9892429D01*
X18127762Y-9863857D01*
X18127762Y-9849572D01*
X18142047Y-9821000D01*
X18170619Y-9806714D01*
X18213476Y-9806714D01*
X18242047Y-9821000D01*
X18356333Y-10121000D02*
X18370619Y-10106714D01*
X18399190Y-10063857D01*
X18413476Y-10035286D01*
X18427762Y-9992429D01*
X18442047Y-9921000D01*
X18442047Y-9863857D01*
X18427762Y-9792429D01*
X18413476Y-9749572D01*
X18399190Y-9721000D01*
X18370619Y-9678143D01*
X18356333Y-9663857D01*
X18899190Y-10121000D02*
X18884904Y-10106714D01*
X18856333Y-10063857D01*
X18842047Y-10035286D01*
X18827762Y-9992429D01*
X18813476Y-9921000D01*
X18813476Y-9863857D01*
X18827762Y-9792429D01*
X18842047Y-9749572D01*
X18856333Y-9721000D01*
X18884904Y-9678143D01*
X18899190Y-9663857D01*
X19013476Y-9806714D02*
X19013476Y-10006714D01*
X19013476Y-9835286D02*
X19027762Y-9821000D01*
X19056333Y-9806714D01*
X19099190Y-9806714D01*
X19127762Y-9821000D01*
X19142047Y-9849572D01*
X19142047Y-10006714D01*
X19327762Y-10006714D02*
X19299190Y-9992429D01*
X19284904Y-9978143D01*
X19270619Y-9949572D01*
X19270619Y-9863857D01*
X19284904Y-9835286D01*
X19299190Y-9821000D01*
X19327762Y-9806714D01*
X19370619Y-9806714D01*
X19399190Y-9821000D01*
X19413476Y-9835286D01*
X19427762Y-9863857D01*
X19427762Y-9949572D01*
X19413476Y-9978143D01*
X19399190Y-9992429D01*
X19370619Y-10006714D01*
X19327762Y-10006714D01*
X19513476Y-9806714D02*
X19627762Y-9806714D01*
X19556333Y-9706714D02*
X19556333Y-9963857D01*
X19570619Y-9992429D01*
X19599190Y-10006714D01*
X19627762Y-10006714D01*
X19956333Y-9806714D02*
X19956333Y-10106714D01*
X19956333Y-9821000D02*
X19984904Y-9806714D01*
X20042047Y-9806714D01*
X20070619Y-9821000D01*
X20084904Y-9835286D01*
X20099190Y-9863857D01*
X20099190Y-9949572D01*
X20084904Y-9978143D01*
X20070619Y-9992429D01*
X20042047Y-10006714D01*
X19984904Y-10006714D01*
X19956333Y-9992429D01*
X20270619Y-10006714D02*
X20242047Y-9992429D01*
X20227762Y-9963857D01*
X20227762Y-9706714D01*
X20513476Y-10006714D02*
X20513476Y-9849572D01*
X20499190Y-9821000D01*
X20470619Y-9806714D01*
X20413476Y-9806714D01*
X20384904Y-9821000D01*
X20513476Y-9992429D02*
X20484904Y-10006714D01*
X20413476Y-10006714D01*
X20384904Y-9992429D01*
X20370619Y-9963857D01*
X20370619Y-9935286D01*
X20384904Y-9906714D01*
X20413476Y-9892429D01*
X20484904Y-9892429D01*
X20513476Y-9878143D01*
X20613476Y-9806714D02*
X20727762Y-9806714D01*
X20656333Y-9706714D02*
X20656333Y-9963857D01*
X20670619Y-9992429D01*
X20699190Y-10006714D01*
X20727762Y-10006714D01*
X20942047Y-9992429D02*
X20913476Y-10006714D01*
X20856333Y-10006714D01*
X20827762Y-9992429D01*
X20813476Y-9963857D01*
X20813476Y-9849572D01*
X20827762Y-9821000D01*
X20856333Y-9806714D01*
X20913476Y-9806714D01*
X20942047Y-9821000D01*
X20956333Y-9849572D01*
X20956333Y-9878143D01*
X20813476Y-9906714D01*
X21213476Y-10006714D02*
X21213476Y-9706714D01*
X21213476Y-9992429D02*
X21184904Y-10006714D01*
X21127762Y-10006714D01*
X21099190Y-9992429D01*
X21084904Y-9978143D01*
X21070619Y-9949572D01*
X21070619Y-9863857D01*
X21084904Y-9835286D01*
X21099190Y-9821000D01*
X21127762Y-9806714D01*
X21184904Y-9806714D01*
X21213476Y-9821000D01*
X21327762Y-10121000D02*
X21342047Y-10106714D01*
X21370619Y-10063857D01*
X21384904Y-10035286D01*
X21399190Y-9992429D01*
X21413476Y-9921000D01*
X21413476Y-9863857D01*
X21399190Y-9792429D01*
X21384904Y-9749572D01*
X21370619Y-9721000D01*
X21342047Y-9678143D01*
X21327762Y-9663857D01*
M02*
