%TF.GenerationSoftware,KiCad,Pcbnew,5.1.8*%
%TF.CreationDate,2021-01-12T11:15:40-05:00*%
%TF.ProjectId,penroserombus_thick_40mm,70656e72-6f73-4657-926f-6d6275735f74,rev?*%
%TF.SameCoordinates,Original*%
%TF.FileFunction,Soldermask,Top*%
%TF.FilePolarity,Negative*%
%FSLAX46Y46*%
G04 Gerber Fmt 4.6, Leading zero omitted, Abs format (unit mm)*
G04 Created by KiCad (PCBNEW 5.1.8) date 2021-01-12 11:15:40*
%MOMM*%
%LPD*%
G01*
G04 APERTURE LIST*
%ADD10C,1.150000*%
%ADD11R,1.600000X0.850000*%
%ADD12C,0.100000*%
%ADD13R,1.700000X1.700000*%
%ADD14O,1.700000X1.700000*%
G04 APERTURE END LIST*
D10*
%TO.C,MH*%
X156210000Y-108077000D03*
%TD*%
%TO.C,MH*%
X137033000Y-81153000D03*
%TD*%
D11*
%TO.C,D3*%
X151462300Y-84111000D03*
X151462300Y-85861000D03*
X154962300Y-84111000D03*
X154962300Y-85861000D03*
%TD*%
D12*
%TO.C,SW1*%
G36*
X149208099Y-91198574D02*
G01*
X148318180Y-91845137D01*
X147171999Y-90267554D01*
X148061918Y-89620991D01*
X149208099Y-91198574D01*
G37*
G36*
X147185557Y-92668037D02*
G01*
X146295638Y-93314600D01*
X145149457Y-91737017D01*
X146039376Y-91090454D01*
X147185557Y-92668037D01*
G37*
G36*
X145163014Y-94137500D02*
G01*
X144273095Y-94784063D01*
X143126914Y-93206480D01*
X144016833Y-92559917D01*
X145163014Y-94137500D01*
G37*
G36*
X152529086Y-95769520D02*
G01*
X151639167Y-96416083D01*
X150492986Y-94838500D01*
X151382905Y-94191937D01*
X152529086Y-95769520D01*
G37*
G36*
X150506543Y-97238983D02*
G01*
X149616624Y-97885546D01*
X148470443Y-96307963D01*
X149360362Y-95661400D01*
X150506543Y-97238983D01*
G37*
G36*
X148484001Y-98708446D02*
G01*
X147594082Y-99355009D01*
X146447901Y-97777426D01*
X147337820Y-97130863D01*
X148484001Y-98708446D01*
G37*
%TD*%
%TO.C,C1*%
G36*
G01*
X156817808Y-95548190D02*
X156524242Y-96451694D01*
G75*
G02*
X156209224Y-96612204I-237764J77254D01*
G01*
X155567260Y-96403618D01*
G75*
G02*
X155406750Y-96088600I77254J237764D01*
G01*
X155700316Y-95185096D01*
G75*
G02*
X156015334Y-95024586I237764J-77254D01*
G01*
X156657298Y-95233172D01*
G75*
G02*
X156817808Y-95548190I-77254J-237764D01*
G01*
G37*
G36*
G01*
X158791250Y-96189400D02*
X158497684Y-97092904D01*
G75*
G02*
X158182666Y-97253414I-237764J77254D01*
G01*
X157540702Y-97044828D01*
G75*
G02*
X157380192Y-96729810I77254J237764D01*
G01*
X157673758Y-95826306D01*
G75*
G02*
X157988776Y-95665796I237764J-77254D01*
G01*
X158630740Y-95874382D01*
G75*
G02*
X158791250Y-96189400I-77254J-237764D01*
G01*
G37*
%TD*%
%TO.C,C2*%
G36*
G01*
X137127000Y-106781000D02*
X136177000Y-106781000D01*
G75*
G02*
X135927000Y-106531000I0J250000D01*
G01*
X135927000Y-105856000D01*
G75*
G02*
X136177000Y-105606000I250000J0D01*
G01*
X137127000Y-105606000D01*
G75*
G02*
X137377000Y-105856000I0J-250000D01*
G01*
X137377000Y-106531000D01*
G75*
G02*
X137127000Y-106781000I-250000J0D01*
G01*
G37*
G36*
G01*
X137127000Y-104706000D02*
X136177000Y-104706000D01*
G75*
G02*
X135927000Y-104456000I0J250000D01*
G01*
X135927000Y-103781000D01*
G75*
G02*
X136177000Y-103531000I250000J0D01*
G01*
X137127000Y-103531000D01*
G75*
G02*
X137377000Y-103781000I0J-250000D01*
G01*
X137377000Y-104456000D01*
G75*
G02*
X137127000Y-104706000I-250000J0D01*
G01*
G37*
%TD*%
%TO.C,J1*%
G36*
G01*
X162276114Y-98803290D02*
X162276114Y-98803290D01*
G75*
G02*
X163347176Y-98257556I808398J-262664D01*
G01*
X163347176Y-98257556D01*
G75*
G02*
X163892910Y-99328618I-262664J-808398D01*
G01*
X163892910Y-99328618D01*
G75*
G02*
X162821848Y-99874352I-808398J262664D01*
G01*
X162821848Y-99874352D01*
G75*
G02*
X162276114Y-98803290I262664J808398D01*
G01*
G37*
G36*
G01*
X163061017Y-96387607D02*
X163061017Y-96387607D01*
G75*
G02*
X164132079Y-95841873I808398J-262664D01*
G01*
X164132079Y-95841873D01*
G75*
G02*
X164677813Y-96912935I-262664J-808398D01*
G01*
X164677813Y-96912935D01*
G75*
G02*
X163606751Y-97458669I-808398J262664D01*
G01*
X163606751Y-97458669D01*
G75*
G02*
X163061017Y-96387607I262664J808398D01*
G01*
G37*
G36*
X163583256Y-94780321D02*
G01*
X164108584Y-93163525D01*
X165725380Y-93688853D01*
X165200052Y-95305649D01*
X163583256Y-94780321D01*
G37*
%TD*%
D13*
%TO.C,J2*%
X140851620Y-111528260D03*
D14*
X138311620Y-111528260D03*
X135771620Y-111528260D03*
%TD*%
D13*
%TO.C,J3*%
X153212300Y-78486000D03*
D14*
X150672300Y-78486000D03*
X148132300Y-78486000D03*
%TD*%
%TO.C,J4*%
G36*
G01*
X127031397Y-100348375D02*
X127031397Y-100348375D01*
G75*
G02*
X128102459Y-99802641I808398J-262664D01*
G01*
X128102459Y-99802641D01*
G75*
G02*
X128648193Y-100873703I-262664J-808398D01*
G01*
X128648193Y-100873703D01*
G75*
G02*
X127577131Y-101419437I-808398J262664D01*
G01*
X127577131Y-101419437D01*
G75*
G02*
X127031397Y-100348375I262664J808398D01*
G01*
G37*
G36*
G01*
X127816300Y-97932692D02*
X127816300Y-97932692D01*
G75*
G02*
X128887362Y-97386958I808398J-262664D01*
G01*
X128887362Y-97386958D01*
G75*
G02*
X129433096Y-98458020I-262664J-808398D01*
G01*
X129433096Y-98458020D01*
G75*
G02*
X128362034Y-99003754I-808398J262664D01*
G01*
X128362034Y-99003754D01*
G75*
G02*
X127816300Y-97932692I262664J808398D01*
G01*
G37*
D12*
G36*
X128338539Y-96325406D02*
G01*
X128863867Y-94708610D01*
X130480663Y-95233938D01*
X129955335Y-96850734D01*
X128338539Y-96325406D01*
G37*
%TD*%
%TO.C,JP1*%
G36*
X143764608Y-89802776D02*
G01*
X142882931Y-88589251D01*
X143691948Y-88001466D01*
X144573625Y-89214991D01*
X143764608Y-89802776D01*
G37*
G36*
X144339515Y-87531724D02*
G01*
X144359363Y-87517304D01*
X144401696Y-87492493D01*
X144446256Y-87471950D01*
X144492616Y-87455874D01*
X144540328Y-87444419D01*
X144588932Y-87437697D01*
X144637962Y-87435769D01*
X144686944Y-87438658D01*
X144735409Y-87446335D01*
X144782886Y-87458723D01*
X144828921Y-87475707D01*
X144873070Y-87497120D01*
X144914907Y-87522758D01*
X144954030Y-87552373D01*
X144990061Y-87585681D01*
X145022654Y-87622359D01*
X145037075Y-87642207D01*
X145037562Y-87641853D01*
X145331455Y-88046362D01*
X145330968Y-88046715D01*
X145345389Y-88066564D01*
X145370199Y-88108896D01*
X145390743Y-88153456D01*
X145406818Y-88199816D01*
X145418274Y-88247528D01*
X145424995Y-88296133D01*
X145426923Y-88345163D01*
X145424034Y-88394145D01*
X145416358Y-88442610D01*
X145403969Y-88490087D01*
X145386985Y-88536122D01*
X145365572Y-88580270D01*
X145339934Y-88622107D01*
X145310319Y-88661230D01*
X145277011Y-88697261D01*
X145240334Y-88729855D01*
X145220485Y-88744276D01*
X145220839Y-88744763D01*
X144775880Y-89068045D01*
X143894202Y-87854519D01*
X144339161Y-87531237D01*
X144339515Y-87531724D01*
G37*
G36*
X143562354Y-89949723D02*
G01*
X143117395Y-90273005D01*
X143117041Y-90272518D01*
X143097193Y-90286938D01*
X143054860Y-90311749D01*
X143010300Y-90332292D01*
X142963940Y-90348368D01*
X142916228Y-90359823D01*
X142867624Y-90366545D01*
X142818594Y-90368473D01*
X142769612Y-90365584D01*
X142721147Y-90357907D01*
X142673670Y-90345519D01*
X142627635Y-90328535D01*
X142583486Y-90307122D01*
X142541649Y-90281484D01*
X142502526Y-90251869D01*
X142466495Y-90218561D01*
X142433902Y-90181883D01*
X142419481Y-90162035D01*
X142418994Y-90162389D01*
X142125101Y-89757880D01*
X142125588Y-89757527D01*
X142111167Y-89737678D01*
X142086357Y-89695346D01*
X142065813Y-89650786D01*
X142049738Y-89604426D01*
X142038282Y-89556714D01*
X142031561Y-89508109D01*
X142029633Y-89459079D01*
X142032522Y-89410097D01*
X142040198Y-89361632D01*
X142052587Y-89314155D01*
X142069571Y-89268120D01*
X142090984Y-89223972D01*
X142116622Y-89182135D01*
X142146237Y-89143012D01*
X142179545Y-89106981D01*
X142216222Y-89074387D01*
X142236071Y-89059966D01*
X142235717Y-89059479D01*
X142680676Y-88736197D01*
X143562354Y-89949723D01*
G37*
%TD*%
%TO.C,JP2*%
G36*
X151218076Y-101377602D02*
G01*
X150773117Y-101700884D01*
X150772763Y-101700397D01*
X150752915Y-101714817D01*
X150710582Y-101739628D01*
X150666022Y-101760171D01*
X150619662Y-101776247D01*
X150571950Y-101787702D01*
X150523346Y-101794424D01*
X150474316Y-101796352D01*
X150425334Y-101793463D01*
X150376869Y-101785786D01*
X150329392Y-101773398D01*
X150283357Y-101756414D01*
X150239208Y-101735001D01*
X150197371Y-101709363D01*
X150158248Y-101679748D01*
X150122217Y-101646440D01*
X150089624Y-101609762D01*
X150075203Y-101589914D01*
X150074716Y-101590268D01*
X149780823Y-101185759D01*
X149781310Y-101185406D01*
X149766889Y-101165557D01*
X149742079Y-101123225D01*
X149721535Y-101078665D01*
X149705460Y-101032305D01*
X149694004Y-100984593D01*
X149687283Y-100935988D01*
X149685355Y-100886958D01*
X149688244Y-100837976D01*
X149695920Y-100789511D01*
X149708309Y-100742034D01*
X149725293Y-100695999D01*
X149746706Y-100651851D01*
X149772344Y-100610014D01*
X149801959Y-100570891D01*
X149835267Y-100534860D01*
X149871944Y-100502266D01*
X149891793Y-100487845D01*
X149891439Y-100487358D01*
X150336398Y-100164076D01*
X151218076Y-101377602D01*
G37*
G36*
X151995237Y-98959603D02*
G01*
X152015085Y-98945183D01*
X152057418Y-98920372D01*
X152101978Y-98899829D01*
X152148338Y-98883753D01*
X152196050Y-98872298D01*
X152244654Y-98865576D01*
X152293684Y-98863648D01*
X152342666Y-98866537D01*
X152391131Y-98874214D01*
X152438608Y-98886602D01*
X152484643Y-98903586D01*
X152528792Y-98924999D01*
X152570629Y-98950637D01*
X152609752Y-98980252D01*
X152645783Y-99013560D01*
X152678376Y-99050238D01*
X152692797Y-99070086D01*
X152693284Y-99069732D01*
X152987177Y-99474241D01*
X152986690Y-99474594D01*
X153001111Y-99494443D01*
X153025921Y-99536775D01*
X153046465Y-99581335D01*
X153062540Y-99627695D01*
X153073996Y-99675407D01*
X153080717Y-99724012D01*
X153082645Y-99773042D01*
X153079756Y-99822024D01*
X153072080Y-99870489D01*
X153059691Y-99917966D01*
X153042707Y-99964001D01*
X153021294Y-100008149D01*
X152995656Y-100049986D01*
X152966041Y-100089109D01*
X152932733Y-100125140D01*
X152896056Y-100157734D01*
X152876207Y-100172155D01*
X152876561Y-100172642D01*
X152431602Y-100495924D01*
X151549924Y-99282398D01*
X151994883Y-98959116D01*
X151995237Y-98959603D01*
G37*
G36*
X151420330Y-101230655D02*
G01*
X150538653Y-100017130D01*
X151347670Y-99429345D01*
X152229347Y-100642870D01*
X151420330Y-101230655D01*
G37*
%TD*%
%TO.C,C3*%
G36*
G01*
X149319000Y-84513000D02*
X148369000Y-84513000D01*
G75*
G02*
X148119000Y-84263000I0J250000D01*
G01*
X148119000Y-83588000D01*
G75*
G02*
X148369000Y-83338000I250000J0D01*
G01*
X149319000Y-83338000D01*
G75*
G02*
X149569000Y-83588000I0J-250000D01*
G01*
X149569000Y-84263000D01*
G75*
G02*
X149319000Y-84513000I-250000J0D01*
G01*
G37*
G36*
G01*
X149319000Y-86588000D02*
X148369000Y-86588000D01*
G75*
G02*
X148119000Y-86338000I0J250000D01*
G01*
X148119000Y-85663000D01*
G75*
G02*
X148369000Y-85413000I250000J0D01*
G01*
X149319000Y-85413000D01*
G75*
G02*
X149569000Y-85663000I0J-250000D01*
G01*
X149569000Y-86338000D01*
G75*
G02*
X149319000Y-86588000I-250000J0D01*
G01*
G37*
%TD*%
%TO.C,C4*%
G36*
G01*
X135213750Y-93675600D02*
X135507316Y-92772096D01*
G75*
G02*
X135822334Y-92611586I237764J-77254D01*
G01*
X136464298Y-92820172D01*
G75*
G02*
X136624808Y-93135190I-77254J-237764D01*
G01*
X136331242Y-94038694D01*
G75*
G02*
X136016224Y-94199204I-237764J77254D01*
G01*
X135374260Y-93990618D01*
G75*
G02*
X135213750Y-93675600I77254J237764D01*
G01*
G37*
G36*
G01*
X137187192Y-94316810D02*
X137480758Y-93413306D01*
G75*
G02*
X137795776Y-93252796I237764J-77254D01*
G01*
X138437740Y-93461382D01*
G75*
G02*
X138598250Y-93776400I-77254J-237764D01*
G01*
X138304684Y-94679904D01*
G75*
G02*
X137989666Y-94840414I-237764J77254D01*
G01*
X137347702Y-94631828D01*
G75*
G02*
X137187192Y-94316810I77254J237764D01*
G01*
G37*
%TD*%
%TO.C,D1*%
G36*
X157256482Y-94512114D02*
G01*
X156448084Y-94249450D01*
X156942512Y-92727760D01*
X157750910Y-92990424D01*
X157256482Y-94512114D01*
G37*
G36*
X158920831Y-95052894D02*
G01*
X158112433Y-94790230D01*
X158606861Y-93268540D01*
X159415259Y-93531204D01*
X158920831Y-95052894D01*
G37*
G36*
X158338041Y-91183416D02*
G01*
X157529643Y-90920752D01*
X158024071Y-89399062D01*
X158832469Y-89661726D01*
X158338041Y-91183416D01*
G37*
G36*
X160002390Y-91724196D02*
G01*
X159193992Y-91461532D01*
X159688420Y-89939842D01*
X160496818Y-90202506D01*
X160002390Y-91724196D01*
G37*
%TD*%
D11*
%TO.C,D2*%
X142601620Y-105903260D03*
X142601620Y-104153260D03*
X139101620Y-105903260D03*
X139101620Y-104153260D03*
%TD*%
D12*
%TO.C,D4*%
G36*
X134061529Y-98290064D02*
G01*
X134869927Y-98552728D01*
X134375499Y-100074418D01*
X133567101Y-99811754D01*
X134061529Y-98290064D01*
G37*
G36*
X135725878Y-98830844D02*
G01*
X136534276Y-99093508D01*
X136039848Y-100615198D01*
X135231450Y-100352534D01*
X135725878Y-98830844D01*
G37*
G36*
X135143088Y-94961366D02*
G01*
X135951486Y-95224030D01*
X135457058Y-96745720D01*
X134648660Y-96483056D01*
X135143088Y-94961366D01*
G37*
G36*
X136807437Y-95502146D02*
G01*
X137615835Y-95764810D01*
X137121407Y-97286500D01*
X136313009Y-97023836D01*
X136807437Y-95502146D01*
G37*
%TD*%
M02*
