%TF.GenerationSoftware,KiCad,Pcbnew,5.1.8*%
%TF.CreationDate,2021-01-07T11:34:50-05:00*%
%TF.ProjectId,penroserombus_thick_40mm,70656e72-6f73-4657-926f-6d6275735f74,rev?*%
%TF.SameCoordinates,Original*%
%TF.FileFunction,Paste,Top*%
%TF.FilePolarity,Positive*%
%FSLAX46Y46*%
G04 Gerber Fmt 4.6, Leading zero omitted, Abs format (unit mm)*
G04 Created by KiCad (PCBNEW 5.1.8) date 2021-01-07 11:34:50*
%MOMM*%
%LPD*%
G01*
G04 APERTURE LIST*
%ADD10C,0.100000*%
G04 APERTURE END LIST*
D10*
%TO.C,SW1*%
G36*
X149208099Y-91198574D02*
G01*
X148318180Y-91845137D01*
X147171999Y-90267554D01*
X148061918Y-89620991D01*
X149208099Y-91198574D01*
G37*
G36*
X147185557Y-92668037D02*
G01*
X146295638Y-93314600D01*
X145149457Y-91737017D01*
X146039376Y-91090454D01*
X147185557Y-92668037D01*
G37*
G36*
X145163014Y-94137500D02*
G01*
X144273095Y-94784063D01*
X143126914Y-93206480D01*
X144016833Y-92559917D01*
X145163014Y-94137500D01*
G37*
G36*
X152529086Y-95769520D02*
G01*
X151639167Y-96416083D01*
X150492986Y-94838500D01*
X151382905Y-94191937D01*
X152529086Y-95769520D01*
G37*
G36*
X150506543Y-97238983D02*
G01*
X149616624Y-97885546D01*
X148470443Y-96307963D01*
X149360362Y-95661400D01*
X150506543Y-97238983D01*
G37*
G36*
X148484001Y-98708446D02*
G01*
X147594082Y-99355009D01*
X146447901Y-97777426D01*
X147337820Y-97130863D01*
X148484001Y-98708446D01*
G37*
%TD*%
%TO.C,C1*%
G36*
G01*
X159900220Y-86749256D02*
X160668787Y-86190860D01*
G75*
G02*
X161017987Y-86246168I146946J-202254D01*
G01*
X161414742Y-86792254D01*
G75*
G02*
X161359434Y-87141454I-202254J-146946D01*
G01*
X160590867Y-87699850D01*
G75*
G02*
X160241667Y-87644542I-146946J202254D01*
G01*
X159844912Y-87098456D01*
G75*
G02*
X159900220Y-86749256I202254J146946D01*
G01*
G37*
G36*
G01*
X158680566Y-85070546D02*
X159449133Y-84512150D01*
G75*
G02*
X159798333Y-84567458I146946J-202254D01*
G01*
X160195088Y-85113544D01*
G75*
G02*
X160139780Y-85462744I-202254J-146946D01*
G01*
X159371213Y-86021140D01*
G75*
G02*
X159022013Y-85965832I-146946J202254D01*
G01*
X158625258Y-85419746D01*
G75*
G02*
X158680566Y-85070546I202254J146946D01*
G01*
G37*
%TD*%
%TO.C,C2*%
G36*
G01*
X140696546Y-105479434D02*
X140138150Y-104710867D01*
G75*
G02*
X140193458Y-104361667I202254J146946D01*
G01*
X140739544Y-103964912D01*
G75*
G02*
X141088744Y-104020220I146946J-202254D01*
G01*
X141647140Y-104788787D01*
G75*
G02*
X141591832Y-105137987I-202254J-146946D01*
G01*
X141045746Y-105534742D01*
G75*
G02*
X140696546Y-105479434I-146946J202254D01*
G01*
G37*
G36*
G01*
X142375256Y-104259780D02*
X141816860Y-103491213D01*
G75*
G02*
X141872168Y-103142013I202254J146946D01*
G01*
X142418254Y-102745258D01*
G75*
G02*
X142767454Y-102800566I146946J-202254D01*
G01*
X143325850Y-103569133D01*
G75*
G02*
X143270542Y-103918333I-202254J-146946D01*
G01*
X142724456Y-104315088D01*
G75*
G02*
X142375256Y-104259780I-146946J202254D01*
G01*
G37*
%TD*%
%TO.C,D1*%
G36*
X158368418Y-89366454D02*
G01*
X157780633Y-88557437D01*
X158994158Y-87675760D01*
X159581943Y-88484777D01*
X158368418Y-89366454D01*
G37*
G36*
X156487505Y-86777600D02*
G01*
X155899720Y-85968583D01*
X157113245Y-85086906D01*
X157701030Y-85895923D01*
X156487505Y-86777600D01*
G37*
G36*
X154404235Y-92246602D02*
G01*
X153816450Y-91437585D01*
X155029975Y-90555908D01*
X155617760Y-91364925D01*
X154404235Y-92246602D01*
G37*
G36*
X152523322Y-89657748D02*
G01*
X151935537Y-88848731D01*
X153149062Y-87967054D01*
X153736847Y-88776071D01*
X152523322Y-89657748D01*
G37*
%TD*%
%TO.C,D2*%
G36*
X135069762Y-102338501D02*
G01*
X134481977Y-101529484D01*
X135695502Y-100647807D01*
X136283287Y-101456824D01*
X135069762Y-102338501D01*
G37*
G36*
X136950675Y-104927355D02*
G01*
X136362890Y-104118338D01*
X137576415Y-103236661D01*
X138164200Y-104045678D01*
X136950675Y-104927355D01*
G37*
G36*
X139033945Y-99458353D02*
G01*
X138446160Y-98649336D01*
X139659685Y-97767659D01*
X140247470Y-98576676D01*
X139033945Y-99458353D01*
G37*
G36*
X140914858Y-102047207D02*
G01*
X140327073Y-101238190D01*
X141540598Y-100356513D01*
X142128383Y-101165530D01*
X140914858Y-102047207D01*
G37*
%TD*%
M02*
