%TF.GenerationSoftware,KiCad,Pcbnew,5.1.9*%
%TF.CreationDate,2021-01-25T14:02:54-05:00*%
%TF.ProjectId,penroserombus_thick_40mm,70656e72-6f73-4657-926f-6d6275735f74,rev?*%
%TF.SameCoordinates,Original*%
%TF.FileFunction,Legend,Bot*%
%TF.FilePolarity,Positive*%
%FSLAX46Y46*%
G04 Gerber Fmt 4.6, Leading zero omitted, Abs format (unit mm)*
G04 Created by KiCad (PCBNEW 5.1.9) date 2021-01-25 14:02:54*
%MOMM*%
%LPD*%
G01*
G04 APERTURE LIST*
%ADD10C,0.375000*%
%ADD11C,3.200000*%
%ADD12C,1.150000*%
%ADD13C,0.100000*%
%ADD14R,1.700000X1.700000*%
%ADD15O,1.700000X1.700000*%
G04 APERTURE END LIST*
D10*
X133786654Y-96493631D02*
X133944592Y-96469843D01*
X134148390Y-96536061D01*
X134330115Y-96670212D01*
X134421835Y-96850222D01*
X134445623Y-97008160D01*
X134425265Y-97301963D01*
X134359047Y-97505761D01*
X134202823Y-97755419D01*
X134090746Y-97869211D01*
X133910735Y-97960931D01*
X133684865Y-97962646D01*
X133548999Y-97918501D01*
X133367274Y-97784350D01*
X133321414Y-97694345D01*
X133475923Y-97218817D01*
X133747653Y-97307107D01*
X132974892Y-96680500D02*
X132665875Y-97631556D01*
X132930747Y-96816365D02*
X132884887Y-96726360D01*
X132771095Y-96614282D01*
X132567297Y-96548064D01*
X132409359Y-96571851D01*
X132297281Y-96685644D01*
X132054482Y-97432903D01*
X130763762Y-97013522D02*
X131227288Y-95586938D01*
X130785835Y-96945590D02*
X130899628Y-97057668D01*
X131171358Y-97145958D01*
X131329296Y-97122171D01*
X131419301Y-97076311D01*
X131531379Y-96962518D01*
X131663815Y-96554923D01*
X131640028Y-96396985D01*
X131594168Y-96306980D01*
X131480375Y-96194902D01*
X131208645Y-96106611D01*
X131050707Y-96130398D01*
X133608951Y-99120875D02*
X132669897Y-100392951D01*
X132657894Y-98811858D01*
X131129519Y-99817348D02*
X131243312Y-99929426D01*
X131515042Y-100017716D01*
X131672980Y-99993929D01*
X131762986Y-99948069D01*
X131875063Y-99834276D01*
X132007499Y-99426681D01*
X131983712Y-99268743D01*
X131937852Y-99178738D01*
X131824059Y-99066660D01*
X131552329Y-98978369D01*
X131394391Y-99002156D01*
X129906732Y-99420040D02*
X130020525Y-99532118D01*
X130292256Y-99620409D01*
X130450193Y-99596621D01*
X130540199Y-99550761D01*
X130652277Y-99436969D01*
X130784712Y-99029373D01*
X130760925Y-98871435D01*
X130715065Y-98781430D01*
X130601272Y-98669352D01*
X130329542Y-98581062D01*
X130171604Y-98604849D01*
X133285312Y-103353000D02*
X133748837Y-101926415D01*
X133409174Y-101816052D01*
X133183304Y-101817766D01*
X133003293Y-101909486D01*
X132891215Y-102023279D01*
X132734992Y-102272937D01*
X132668774Y-102476734D01*
X132648416Y-102770537D01*
X132672203Y-102928475D01*
X132763923Y-103108486D01*
X132945649Y-103242636D01*
X133285312Y-103353000D01*
X131247333Y-102690820D02*
X131490132Y-101943562D01*
X131602210Y-101829769D01*
X131760148Y-101805982D01*
X132031879Y-101894272D01*
X132145671Y-102006350D01*
X131269406Y-102622888D02*
X131383199Y-102734966D01*
X131722862Y-102845329D01*
X131880799Y-102821541D01*
X131992877Y-102707749D01*
X132037023Y-102571884D01*
X132013235Y-102413946D01*
X131899443Y-102301868D01*
X131559780Y-102191505D01*
X131445987Y-102079427D01*
X131080822Y-101585255D02*
X130537361Y-101408674D01*
X131031533Y-101043509D02*
X130634225Y-102266296D01*
X130522147Y-102380089D01*
X130364209Y-102403876D01*
X130228344Y-102359731D01*
X129141422Y-102006568D02*
X129384222Y-101259310D01*
X129496299Y-101145517D01*
X129654237Y-101121730D01*
X129925968Y-101210020D01*
X130039760Y-101322098D01*
X129163495Y-101938636D02*
X129277288Y-102050714D01*
X129616951Y-102161077D01*
X129774889Y-102137290D01*
X129886966Y-102023497D01*
X129931112Y-101887632D01*
X129907324Y-101729694D01*
X129793532Y-101617616D01*
X129453869Y-101507253D01*
X129340076Y-101395175D01*
X162512790Y-92703899D02*
X162670728Y-92680112D01*
X162874526Y-92746330D01*
X163056251Y-92880480D01*
X163147971Y-93060491D01*
X163171759Y-93218428D01*
X163151401Y-93512232D01*
X163085183Y-93716029D01*
X162928960Y-93965687D01*
X162816882Y-94079480D01*
X162636871Y-94171200D01*
X162411001Y-94172914D01*
X162275135Y-94128769D01*
X162093410Y-93994618D01*
X162047550Y-93904613D01*
X162202059Y-93429085D01*
X162473789Y-93517376D01*
X161701029Y-92890768D02*
X161392012Y-93841825D01*
X161656883Y-93026633D02*
X161611023Y-92936628D01*
X161497231Y-92824550D01*
X161293433Y-92758332D01*
X161135495Y-92782120D01*
X161023417Y-92895912D01*
X160780618Y-93643171D01*
X159489899Y-93223791D02*
X159953424Y-91797206D01*
X159511971Y-93155858D02*
X159625764Y-93267936D01*
X159897494Y-93356227D01*
X160055432Y-93332439D01*
X160145437Y-93286579D01*
X160257515Y-93172787D01*
X160389951Y-92765191D01*
X160366164Y-92607253D01*
X160320304Y-92517248D01*
X160206511Y-92405170D01*
X159934781Y-92316879D01*
X159776843Y-92340667D01*
X162674750Y-95441506D02*
X161735696Y-96713583D01*
X161723693Y-95132489D01*
X160195319Y-96137979D02*
X160309111Y-96250057D01*
X160580842Y-96338348D01*
X160738779Y-96314560D01*
X160828785Y-96268700D01*
X160940863Y-96154908D01*
X161073298Y-95747312D01*
X161049511Y-95589374D01*
X161003651Y-95499369D01*
X160889859Y-95387291D01*
X160618128Y-95299001D01*
X160460190Y-95322788D01*
X158972532Y-95740672D02*
X159086324Y-95852750D01*
X159358055Y-95941040D01*
X159515992Y-95917253D01*
X159605998Y-95871393D01*
X159718076Y-95757600D01*
X159850511Y-95350005D01*
X159826724Y-95192067D01*
X159780864Y-95102061D01*
X159667072Y-94989984D01*
X159395341Y-94901693D01*
X159237403Y-94925480D01*
X161196256Y-99298396D02*
X161659782Y-97871811D01*
X161320119Y-97761448D01*
X161094248Y-97763163D01*
X160914238Y-97854883D01*
X160802160Y-97968675D01*
X160645937Y-98218333D01*
X160579719Y-98422131D01*
X160559361Y-98715934D01*
X160583148Y-98873872D01*
X160674868Y-99053882D01*
X160856593Y-99188033D01*
X161196256Y-99298396D01*
X159158278Y-98636217D02*
X159401077Y-97888958D01*
X159513155Y-97775166D01*
X159671093Y-97751378D01*
X159942823Y-97839669D01*
X160056616Y-97951747D01*
X159180351Y-98568284D02*
X159294143Y-98680362D01*
X159633806Y-98790725D01*
X159791744Y-98766938D01*
X159903822Y-98653146D01*
X159947967Y-98517280D01*
X159924180Y-98359342D01*
X159810387Y-98247265D01*
X159470724Y-98136901D01*
X159356932Y-98024823D01*
X158991767Y-97530652D02*
X158448306Y-97354071D01*
X158942477Y-96988906D02*
X158545170Y-98211693D01*
X158433092Y-98325485D01*
X158275154Y-98349273D01*
X158139289Y-98305127D01*
X157052367Y-97951965D02*
X157295166Y-97204706D01*
X157407244Y-97090914D01*
X157565182Y-97067126D01*
X157836912Y-97155417D01*
X157950705Y-97267495D01*
X157074440Y-97884032D02*
X157188232Y-97996110D01*
X157527895Y-98106473D01*
X157685833Y-98082686D01*
X157797911Y-97968894D01*
X157842057Y-97833028D01*
X157818269Y-97675091D01*
X157704477Y-97563013D01*
X157364814Y-97452649D01*
X157251021Y-97340572D01*
X141652600Y-109154192D02*
X141724028Y-109297050D01*
X141724028Y-109511335D01*
X141652600Y-109725621D01*
X141509742Y-109868478D01*
X141366885Y-109939907D01*
X141081171Y-110011335D01*
X140866885Y-110011335D01*
X140581171Y-109939907D01*
X140438314Y-109868478D01*
X140295457Y-109725621D01*
X140224028Y-109511335D01*
X140224028Y-109368478D01*
X140295457Y-109154192D01*
X140366885Y-109082764D01*
X140866885Y-109082764D01*
X140866885Y-109368478D01*
X141224028Y-108439907D02*
X140224028Y-108439907D01*
X141081171Y-108439907D02*
X141152600Y-108368478D01*
X141224028Y-108225621D01*
X141224028Y-108011335D01*
X141152600Y-107868478D01*
X141009742Y-107797050D01*
X140224028Y-107797050D01*
X140224028Y-106439907D02*
X141724028Y-106439907D01*
X140295457Y-106439907D02*
X140224028Y-106582764D01*
X140224028Y-106868478D01*
X140295457Y-107011335D01*
X140366885Y-107082764D01*
X140509742Y-107154192D01*
X140938314Y-107154192D01*
X141081171Y-107082764D01*
X141152600Y-107011335D01*
X141224028Y-106868478D01*
X141224028Y-106582764D01*
X141152600Y-106439907D01*
X139099028Y-110154192D02*
X137599028Y-109654192D01*
X139099028Y-109154192D01*
X137670457Y-108011335D02*
X137599028Y-108154192D01*
X137599028Y-108439907D01*
X137670457Y-108582764D01*
X137741885Y-108654192D01*
X137884742Y-108725621D01*
X138313314Y-108725621D01*
X138456171Y-108654192D01*
X138527600Y-108582764D01*
X138599028Y-108439907D01*
X138599028Y-108154192D01*
X138527600Y-108011335D01*
X137670457Y-106725621D02*
X137599028Y-106868478D01*
X137599028Y-107154192D01*
X137670457Y-107297050D01*
X137741885Y-107368478D01*
X137884742Y-107439907D01*
X138313314Y-107439907D01*
X138456171Y-107368478D01*
X138527600Y-107297050D01*
X138599028Y-107154192D01*
X138599028Y-106868478D01*
X138527600Y-106725621D01*
X134974028Y-109939907D02*
X136474028Y-109939907D01*
X136474028Y-109582764D01*
X136402600Y-109368478D01*
X136259742Y-109225621D01*
X136116885Y-109154192D01*
X135831171Y-109082764D01*
X135616885Y-109082764D01*
X135331171Y-109154192D01*
X135188314Y-109225621D01*
X135045457Y-109368478D01*
X134974028Y-109582764D01*
X134974028Y-109939907D01*
X134974028Y-107797050D02*
X135759742Y-107797050D01*
X135902600Y-107868478D01*
X135974028Y-108011335D01*
X135974028Y-108297050D01*
X135902600Y-108439907D01*
X135045457Y-107797050D02*
X134974028Y-107939907D01*
X134974028Y-108297050D01*
X135045457Y-108439907D01*
X135188314Y-108511335D01*
X135331171Y-108511335D01*
X135474028Y-108439907D01*
X135545457Y-108297050D01*
X135545457Y-107939907D01*
X135616885Y-107797050D01*
X135974028Y-107297050D02*
X135974028Y-106725621D01*
X136474028Y-107082764D02*
X135188314Y-107082764D01*
X135045457Y-107011335D01*
X134974028Y-106868478D01*
X134974028Y-106725621D01*
X134974028Y-105582764D02*
X135759742Y-105582764D01*
X135902600Y-105654192D01*
X135974028Y-105797050D01*
X135974028Y-106082764D01*
X135902600Y-106225621D01*
X135045457Y-105582764D02*
X134974028Y-105725621D01*
X134974028Y-106082764D01*
X135045457Y-106225621D01*
X135188314Y-106297050D01*
X135331171Y-106297050D01*
X135474028Y-106225621D01*
X135545457Y-106082764D01*
X135545457Y-105725621D01*
X135616885Y-105582764D01*
X154124000Y-82766378D02*
X154195428Y-82909235D01*
X154195428Y-83123521D01*
X154124000Y-83337807D01*
X153981142Y-83480664D01*
X153838285Y-83552092D01*
X153552571Y-83623521D01*
X153338285Y-83623521D01*
X153052571Y-83552092D01*
X152909714Y-83480664D01*
X152766857Y-83337807D01*
X152695428Y-83123521D01*
X152695428Y-82980664D01*
X152766857Y-82766378D01*
X152838285Y-82694950D01*
X153338285Y-82694950D01*
X153338285Y-82980664D01*
X153695428Y-82052092D02*
X152695428Y-82052092D01*
X153552571Y-82052092D02*
X153624000Y-81980664D01*
X153695428Y-81837807D01*
X153695428Y-81623521D01*
X153624000Y-81480664D01*
X153481142Y-81409235D01*
X152695428Y-81409235D01*
X152695428Y-80052092D02*
X154195428Y-80052092D01*
X152766857Y-80052092D02*
X152695428Y-80194950D01*
X152695428Y-80480664D01*
X152766857Y-80623521D01*
X152838285Y-80694950D01*
X152981142Y-80766378D01*
X153409714Y-80766378D01*
X153552571Y-80694950D01*
X153624000Y-80623521D01*
X153695428Y-80480664D01*
X153695428Y-80194950D01*
X153624000Y-80052092D01*
X151570428Y-83409235D02*
X150070428Y-82909235D01*
X151570428Y-82409235D01*
X150141857Y-81266378D02*
X150070428Y-81409235D01*
X150070428Y-81694950D01*
X150141857Y-81837807D01*
X150213285Y-81909235D01*
X150356142Y-81980664D01*
X150784714Y-81980664D01*
X150927571Y-81909235D01*
X150999000Y-81837807D01*
X151070428Y-81694950D01*
X151070428Y-81409235D01*
X150999000Y-81266378D01*
X150141857Y-79980664D02*
X150070428Y-80123521D01*
X150070428Y-80409235D01*
X150141857Y-80552092D01*
X150213285Y-80623521D01*
X150356142Y-80694950D01*
X150784714Y-80694950D01*
X150927571Y-80623521D01*
X150999000Y-80552092D01*
X151070428Y-80409235D01*
X151070428Y-80123521D01*
X150999000Y-79980664D01*
X147445428Y-84409235D02*
X148945428Y-84409235D01*
X148945428Y-84052092D01*
X148874000Y-83837807D01*
X148731142Y-83694950D01*
X148588285Y-83623521D01*
X148302571Y-83552092D01*
X148088285Y-83552092D01*
X147802571Y-83623521D01*
X147659714Y-83694950D01*
X147516857Y-83837807D01*
X147445428Y-84052092D01*
X147445428Y-84409235D01*
X147445428Y-82266378D02*
X148231142Y-82266378D01*
X148374000Y-82337807D01*
X148445428Y-82480664D01*
X148445428Y-82766378D01*
X148374000Y-82909235D01*
X147516857Y-82266378D02*
X147445428Y-82409235D01*
X147445428Y-82766378D01*
X147516857Y-82909235D01*
X147659714Y-82980664D01*
X147802571Y-82980664D01*
X147945428Y-82909235D01*
X148016857Y-82766378D01*
X148016857Y-82409235D01*
X148088285Y-82266378D01*
X148445428Y-81766378D02*
X148445428Y-81194950D01*
X148945428Y-81552092D02*
X147659714Y-81552092D01*
X147516857Y-81480664D01*
X147445428Y-81337807D01*
X147445428Y-81194950D01*
X147445428Y-80052092D02*
X148231142Y-80052092D01*
X148374000Y-80123521D01*
X148445428Y-80266378D01*
X148445428Y-80552092D01*
X148374000Y-80694950D01*
X147516857Y-80052092D02*
X147445428Y-80194950D01*
X147445428Y-80552092D01*
X147516857Y-80694950D01*
X147659714Y-80766378D01*
X147802571Y-80766378D01*
X147945428Y-80694950D01*
X148016857Y-80552092D01*
X148016857Y-80194950D01*
X148088285Y-80052092D01*
%LPC*%
D11*
%TO.C,M3*%
X125705721Y-110501549D03*
%TD*%
%TO.C,M3*%
X153057392Y-109528261D03*
%TD*%
%TO.C,M3*%
X141006528Y-80485999D03*
%TD*%
%TO.C,M3*%
X168358198Y-79512711D03*
%TD*%
D12*
%TO.C,MH*%
X157324909Y-109174159D03*
%TD*%
%TO.C,MH*%
X136739011Y-80840101D03*
%TD*%
%TO.C,J1*%
G36*
G01*
X161883431Y-100009654D02*
X161883431Y-100009654D01*
G75*
G02*
X162954493Y-99463920I808398J-262664D01*
G01*
X162954493Y-99463920D01*
G75*
G02*
X163500227Y-100534982I-262664J-808398D01*
G01*
X163500227Y-100534982D01*
G75*
G02*
X162429165Y-101080716I-808398J262664D01*
G01*
X162429165Y-101080716D01*
G75*
G02*
X161883431Y-100009654I262664J808398D01*
G01*
G37*
G36*
G01*
X162668334Y-97593971D02*
X162668334Y-97593971D01*
G75*
G02*
X163739396Y-97048237I808398J-262664D01*
G01*
X163739396Y-97048237D01*
G75*
G02*
X164285130Y-98119299I-262664J-808398D01*
G01*
X164285130Y-98119299D01*
G75*
G02*
X163214068Y-98665033I-808398J262664D01*
G01*
X163214068Y-98665033D01*
G75*
G02*
X162668334Y-97593971I262664J808398D01*
G01*
G37*
D13*
G36*
X163190573Y-95986685D02*
G01*
X163715901Y-94369889D01*
X165332697Y-94895217D01*
X164807369Y-96512013D01*
X163190573Y-95986685D01*
G37*
%TD*%
D14*
%TO.C,J2*%
X140851620Y-111528260D03*
D15*
X138311620Y-111528260D03*
X135771620Y-111528260D03*
%TD*%
D14*
%TO.C,J3*%
X151943635Y-78486676D03*
D15*
X149403635Y-78486676D03*
X146863635Y-78486676D03*
%TD*%
%TO.C,J4*%
G36*
G01*
X127031397Y-100348375D02*
X127031397Y-100348375D01*
G75*
G02*
X128102459Y-99802641I808398J-262664D01*
G01*
X128102459Y-99802641D01*
G75*
G02*
X128648193Y-100873703I-262664J-808398D01*
G01*
X128648193Y-100873703D01*
G75*
G02*
X127577131Y-101419437I-808398J262664D01*
G01*
X127577131Y-101419437D01*
G75*
G02*
X127031397Y-100348375I262664J808398D01*
G01*
G37*
G36*
G01*
X127816300Y-97932692D02*
X127816300Y-97932692D01*
G75*
G02*
X128887362Y-97386958I808398J-262664D01*
G01*
X128887362Y-97386958D01*
G75*
G02*
X129433096Y-98458020I-262664J-808398D01*
G01*
X129433096Y-98458020D01*
G75*
G02*
X128362034Y-99003754I-808398J262664D01*
G01*
X128362034Y-99003754D01*
G75*
G02*
X127816300Y-97932692I262664J808398D01*
G01*
G37*
D13*
G36*
X128338539Y-96325406D02*
G01*
X128863867Y-94708610D01*
X130480663Y-95233938D01*
X129955335Y-96850734D01*
X128338539Y-96325406D01*
G37*
%TD*%
M02*
