%TF.GenerationSoftware,KiCad,Pcbnew,5.1.9*%
%TF.CreationDate,2021-02-12T10:51:01-05:00*%
%TF.ProjectId,penroserombus_thick_40mm,70656e72-6f73-4657-926f-6d6275735f74,rev?*%
%TF.SameCoordinates,Original*%
%TF.FileFunction,Paste,Top*%
%TF.FilePolarity,Positive*%
%FSLAX46Y46*%
G04 Gerber Fmt 4.6, Leading zero omitted, Abs format (unit mm)*
G04 Created by KiCad (PCBNEW 5.1.9) date 2021-02-12 10:51:01*
%MOMM*%
%LPD*%
G01*
G04 APERTURE LIST*
%ADD10C,0.100000*%
%ADD11R,1.500000X1.000000*%
G04 APERTURE END LIST*
%TO.C,C4*%
G36*
G01*
X135931250Y-99745400D02*
X135637684Y-100648904D01*
G75*
G02*
X135322666Y-100809414I-237764J77254D01*
G01*
X134680702Y-100600828D01*
G75*
G02*
X134520192Y-100285810I77254J237764D01*
G01*
X134813758Y-99382306D01*
G75*
G02*
X135128776Y-99221796I237764J-77254D01*
G01*
X135770740Y-99430382D01*
G75*
G02*
X135931250Y-99745400I-77254J-237764D01*
G01*
G37*
G36*
G01*
X133957808Y-99104190D02*
X133664242Y-100007694D01*
G75*
G02*
X133349224Y-100168204I-237764J77254D01*
G01*
X132707260Y-99959618D01*
G75*
G02*
X132546750Y-99644600I77254J237764D01*
G01*
X132840316Y-98741096D01*
G75*
G02*
X133155334Y-98580586I237764J-77254D01*
G01*
X133797298Y-98789172D01*
G75*
G02*
X133957808Y-99104190I-77254J-237764D01*
G01*
G37*
%TD*%
%TO.C,C2*%
G36*
G01*
X139921000Y-106273000D02*
X138971000Y-106273000D01*
G75*
G02*
X138721000Y-106023000I0J250000D01*
G01*
X138721000Y-105348000D01*
G75*
G02*
X138971000Y-105098000I250000J0D01*
G01*
X139921000Y-105098000D01*
G75*
G02*
X140171000Y-105348000I0J-250000D01*
G01*
X140171000Y-106023000D01*
G75*
G02*
X139921000Y-106273000I-250000J0D01*
G01*
G37*
G36*
G01*
X139921000Y-104198000D02*
X138971000Y-104198000D01*
G75*
G02*
X138721000Y-103948000I0J250000D01*
G01*
X138721000Y-103273000D01*
G75*
G02*
X138971000Y-103023000I250000J0D01*
G01*
X139921000Y-103023000D01*
G75*
G02*
X140171000Y-103273000I0J-250000D01*
G01*
X140171000Y-103948000D01*
G75*
G02*
X139921000Y-104198000I-250000J0D01*
G01*
G37*
%TD*%
D10*
%TO.C,SW1*%
G36*
X149208099Y-91198574D02*
G01*
X148318180Y-91845137D01*
X147171999Y-90267554D01*
X148061918Y-89620991D01*
X149208099Y-91198574D01*
G37*
G36*
X147185557Y-92668037D02*
G01*
X146295638Y-93314600D01*
X145149457Y-91737017D01*
X146039376Y-91090454D01*
X147185557Y-92668037D01*
G37*
G36*
X145163014Y-94137500D02*
G01*
X144273095Y-94784063D01*
X143126914Y-93206480D01*
X144016833Y-92559917D01*
X145163014Y-94137500D01*
G37*
G36*
X152529086Y-95769520D02*
G01*
X151639167Y-96416083D01*
X150492986Y-94838500D01*
X151382905Y-94191937D01*
X152529086Y-95769520D01*
G37*
G36*
X150506543Y-97238983D02*
G01*
X149616624Y-97885546D01*
X148470443Y-96307963D01*
X149360362Y-95661400D01*
X150506543Y-97238983D01*
G37*
G36*
X148484001Y-98708446D02*
G01*
X147594082Y-99355009D01*
X146447901Y-97777426D01*
X147337820Y-97130863D01*
X148484001Y-98708446D01*
G37*
%TD*%
%TO.C,C1*%
G36*
G01*
X155420808Y-98977190D02*
X155127242Y-99880694D01*
G75*
G02*
X154812224Y-100041204I-237764J77254D01*
G01*
X154170260Y-99832618D01*
G75*
G02*
X154009750Y-99517600I77254J237764D01*
G01*
X154303316Y-98614096D01*
G75*
G02*
X154618334Y-98453586I237764J-77254D01*
G01*
X155260298Y-98662172D01*
G75*
G02*
X155420808Y-98977190I-77254J-237764D01*
G01*
G37*
G36*
G01*
X157394250Y-99618400D02*
X157100684Y-100521904D01*
G75*
G02*
X156785666Y-100682414I-237764J77254D01*
G01*
X156143702Y-100473828D01*
G75*
G02*
X155983192Y-100158810I77254J237764D01*
G01*
X156276758Y-99255306D01*
G75*
G02*
X156591776Y-99094796I237764J-77254D01*
G01*
X157233740Y-99303382D01*
G75*
G02*
X157394250Y-99618400I-77254J-237764D01*
G01*
G37*
%TD*%
%TO.C,C3*%
G36*
G01*
X145763000Y-83751000D02*
X144813000Y-83751000D01*
G75*
G02*
X144563000Y-83501000I0J250000D01*
G01*
X144563000Y-82826000D01*
G75*
G02*
X144813000Y-82576000I250000J0D01*
G01*
X145763000Y-82576000D01*
G75*
G02*
X146013000Y-82826000I0J-250000D01*
G01*
X146013000Y-83501000D01*
G75*
G02*
X145763000Y-83751000I-250000J0D01*
G01*
G37*
G36*
G01*
X145763000Y-85826000D02*
X144813000Y-85826000D01*
G75*
G02*
X144563000Y-85576000I0J250000D01*
G01*
X144563000Y-84901000D01*
G75*
G02*
X144813000Y-84651000I250000J0D01*
G01*
X145763000Y-84651000D01*
G75*
G02*
X146013000Y-84901000I0J-250000D01*
G01*
X146013000Y-85576000D01*
G75*
G02*
X145763000Y-85826000I-250000J0D01*
G01*
G37*
%TD*%
%TO.C,D1*%
G36*
X159772641Y-92628233D02*
G01*
X160723698Y-92937250D01*
X160260173Y-94363835D01*
X159309116Y-94054818D01*
X159772641Y-92628233D01*
G37*
G36*
X156729260Y-91639378D02*
G01*
X157680317Y-91948395D01*
X157216792Y-93374980D01*
X156265735Y-93065963D01*
X156729260Y-91639378D01*
G37*
G36*
X158258458Y-97288410D02*
G01*
X159209515Y-97597427D01*
X158745990Y-99024012D01*
X157794933Y-98714995D01*
X158258458Y-97288410D01*
G37*
G36*
X155215077Y-96299555D02*
G01*
X156166134Y-96608572D01*
X155702609Y-98035157D01*
X154751552Y-97726140D01*
X155215077Y-96299555D01*
G37*
%TD*%
D11*
%TO.C,D2*%
X141582407Y-103689119D03*
X141582407Y-106889119D03*
X146482407Y-103689119D03*
X146482407Y-106889119D03*
%TD*%
%TO.C,D3*%
X147581513Y-83125141D03*
X147581513Y-86325141D03*
X152481513Y-83125141D03*
X152481513Y-86325141D03*
%TD*%
D10*
%TO.C,D4*%
G36*
X138361310Y-92628233D02*
G01*
X139312367Y-92937250D01*
X138848842Y-94363835D01*
X137897785Y-94054818D01*
X138361310Y-92628233D01*
G37*
G36*
X135317929Y-91639378D02*
G01*
X136268986Y-91948395D01*
X135805461Y-93374980D01*
X134854404Y-93065963D01*
X135317929Y-91639378D01*
G37*
G36*
X136847127Y-97288410D02*
G01*
X137798184Y-97597427D01*
X137334659Y-99024012D01*
X136383602Y-98714995D01*
X136847127Y-97288410D01*
G37*
G36*
X133803746Y-96299555D02*
G01*
X134754803Y-96608572D01*
X134291278Y-98035157D01*
X133340221Y-97726140D01*
X133803746Y-96299555D01*
G37*
%TD*%
M02*
