M48
; DRILL file {KiCad 5.1.9} date Fri Feb 19 09:07:45 2021
; FORMAT={-:-/ absolute / inch / decimal}
; #@! TF.CreationDate,2021-02-19T09:07:45-05:00
; #@! TF.GenerationSoftware,Kicad,Pcbnew,5.1.9
; #@! TF.FileFunction,Plated,1,2,PTH
FMAT,2
INCH
T1C0.0157
T2C0.0394
%
G90
G05
T1
X5.33Y-3.88
X5.44Y-3.74
X5.5164Y-3.6074
X5.5446Y-3.5726
X5.56Y-4.15
X5.6488Y-3.4438
X5.6752Y-3.4112
X5.705Y-4.21
X5.76Y-3.71
X5.79Y-3.345
X5.855Y-3.73
X5.9647Y-3.3843
X6.175Y-3.865
X6.28Y-3.74
T2
X5.0331Y-3.9611
X5.064Y-3.866
X5.0949Y-3.7709
X5.3453Y-4.3909
X5.4453Y-4.3909
X5.5453Y-4.3909
X5.782Y-3.09
X5.882Y-3.09
X5.982Y-3.09
X6.4052Y-3.9477
X6.4361Y-3.8526
X6.467Y-3.7575
T0
M30
