%TF.GenerationSoftware,KiCad,Pcbnew,5.1.8*%
%TF.CreationDate,2021-01-22T17:00:31-05:00*%
%TF.ProjectId,penroserombus_thick_40mm,70656e72-6f73-4657-926f-6d6275735f74,rev?*%
%TF.SameCoordinates,Original*%
%TF.FileFunction,Legend,Top*%
%TF.FilePolarity,Positive*%
%FSLAX46Y46*%
G04 Gerber Fmt 4.6, Leading zero omitted, Abs format (unit mm)*
G04 Created by KiCad (PCBNEW 5.1.8) date 2021-01-22 17:00:31*
%MOMM*%
%LPD*%
G01*
G04 APERTURE LIST*
%ADD10C,0.150000*%
%ADD11C,0.500000*%
%ADD12C,0.300000*%
%ADD13C,0.120000*%
%ADD14C,0.200000*%
%ADD15C,2.100000*%
%ADD16C,1.150000*%
%ADD17C,0.100000*%
%ADD18R,1.700000X1.700000*%
%ADD19O,1.700000X1.700000*%
%ADD20R,1.500000X1.000000*%
G04 APERTURE END LIST*
D10*
X160940339Y-98806078D02*
X159989283Y-98497061D01*
X160062858Y-98270619D01*
X160152292Y-98149469D01*
X160272299Y-98088323D01*
X160377591Y-98072464D01*
X160573460Y-98086036D01*
X160709325Y-98130182D01*
X160875763Y-98234330D01*
X160951625Y-98309049D01*
X161012772Y-98429056D01*
X161013915Y-98579636D01*
X160940339Y-98806078D01*
X161381792Y-97447426D02*
X160883620Y-97285560D01*
X160778328Y-97301418D01*
X160703609Y-97377280D01*
X160644749Y-97558434D01*
X160660607Y-97663726D01*
X161336504Y-97432711D02*
X161352362Y-97538003D01*
X161278787Y-97764445D01*
X161204068Y-97840307D01*
X161098776Y-97856165D01*
X161008199Y-97826735D01*
X160932337Y-97752016D01*
X160916479Y-97646724D01*
X160990055Y-97420282D01*
X160974197Y-97314990D01*
X160850760Y-96924396D02*
X160968481Y-96562089D01*
X160577887Y-96685525D02*
X161393078Y-96950397D01*
X161498370Y-96934539D01*
X161573088Y-96858677D01*
X161602519Y-96768100D01*
X161837960Y-96043486D02*
X161339788Y-95881620D01*
X161234496Y-95897478D01*
X161159777Y-95973340D01*
X161100917Y-96154493D01*
X161116775Y-96259785D01*
X161792672Y-96028771D02*
X161808530Y-96134062D01*
X161734954Y-96360504D01*
X161660236Y-96436366D01*
X161554944Y-96452224D01*
X161464367Y-96422794D01*
X161388505Y-96348076D01*
X161372647Y-96242784D01*
X161446223Y-96016342D01*
X161430364Y-95911050D01*
X162220553Y-94865987D02*
X161269496Y-94556970D01*
X161733666Y-94207092D02*
X162367704Y-94413103D01*
X161824243Y-94236522D02*
X161793669Y-94176518D01*
X161777811Y-94071227D01*
X161821956Y-93935361D01*
X161896675Y-93859500D01*
X162001967Y-93843641D01*
X162500139Y-94005507D01*
X131463241Y-95849460D02*
X132414297Y-96158477D01*
X132340722Y-96384919D01*
X132251288Y-96506069D01*
X132131281Y-96567216D01*
X132025989Y-96583074D01*
X131830121Y-96569502D01*
X131694255Y-96525356D01*
X131527817Y-96421208D01*
X131451955Y-96346489D01*
X131390808Y-96226482D01*
X131389665Y-96075902D01*
X131463241Y-95849460D01*
X131021788Y-97208112D02*
X131519960Y-97369978D01*
X131625252Y-97354120D01*
X131699971Y-97278258D01*
X131758831Y-97097104D01*
X131742973Y-96991812D01*
X131067076Y-97222827D02*
X131051218Y-97117535D01*
X131124794Y-96891093D01*
X131199512Y-96815231D01*
X131304804Y-96799373D01*
X131395381Y-96828803D01*
X131471243Y-96903522D01*
X131487101Y-97008814D01*
X131413525Y-97235256D01*
X131429384Y-97340548D01*
X131552820Y-97731142D02*
X131435099Y-98093449D01*
X131825694Y-97970013D02*
X131010502Y-97705141D01*
X130905210Y-97720999D01*
X130830492Y-97796861D01*
X130801062Y-97887438D01*
X130565620Y-98612052D02*
X131063792Y-98773919D01*
X131169084Y-98758060D01*
X131243803Y-98682199D01*
X131302663Y-98501045D01*
X131286805Y-98395753D01*
X130610908Y-98626768D02*
X130595050Y-98521476D01*
X130668626Y-98295034D01*
X130743344Y-98219172D01*
X130848636Y-98203314D01*
X130939213Y-98232744D01*
X131015075Y-98307462D01*
X131030933Y-98412754D01*
X130957357Y-98639196D01*
X130973216Y-98744488D01*
X131075224Y-100279722D02*
X131016363Y-100460875D01*
X130941645Y-100536737D01*
X130821638Y-100597884D01*
X130625769Y-100584312D01*
X130308750Y-100481306D01*
X130142312Y-100377157D01*
X130081165Y-100257150D01*
X130065307Y-100151858D01*
X130124167Y-99970705D01*
X130198886Y-99894843D01*
X130318893Y-99833696D01*
X130514761Y-99847268D01*
X130831780Y-99950274D01*
X130998219Y-100054423D01*
X131059365Y-100174430D01*
X131075224Y-100279722D01*
X130360897Y-101399503D02*
X129726860Y-101193492D01*
X130493333Y-100991907D02*
X129995161Y-100830041D01*
X129889869Y-100845899D01*
X129815150Y-100921761D01*
X129771005Y-101057626D01*
X129786863Y-101162918D01*
X129817436Y-101222922D01*
X130257892Y-101716522D02*
X130140171Y-102078829D01*
X130530765Y-101955393D02*
X129715574Y-101690521D01*
X129610282Y-101706379D01*
X129535563Y-101782241D01*
X129506133Y-101872818D01*
X153717238Y-80573619D02*
X153717238Y-81573619D01*
X153479142Y-81573619D01*
X153336285Y-81526000D01*
X153241047Y-81430761D01*
X153193428Y-81335523D01*
X153145809Y-81145047D01*
X153145809Y-81002190D01*
X153193428Y-80811714D01*
X153241047Y-80716476D01*
X153336285Y-80621238D01*
X153479142Y-80573619D01*
X153717238Y-80573619D01*
X152288666Y-80573619D02*
X152288666Y-81097428D01*
X152336285Y-81192666D01*
X152431523Y-81240285D01*
X152622000Y-81240285D01*
X152717238Y-81192666D01*
X152288666Y-80621238D02*
X152383904Y-80573619D01*
X152622000Y-80573619D01*
X152717238Y-80621238D01*
X152764857Y-80716476D01*
X152764857Y-80811714D01*
X152717238Y-80906952D01*
X152622000Y-80954571D01*
X152383904Y-80954571D01*
X152288666Y-81002190D01*
X151955333Y-81240285D02*
X151574380Y-81240285D01*
X151812476Y-81573619D02*
X151812476Y-80716476D01*
X151764857Y-80621238D01*
X151669619Y-80573619D01*
X151574380Y-80573619D01*
X150812476Y-80573619D02*
X150812476Y-81097428D01*
X150860095Y-81192666D01*
X150955333Y-81240285D01*
X151145809Y-81240285D01*
X151241047Y-81192666D01*
X150812476Y-80621238D02*
X150907714Y-80573619D01*
X151145809Y-80573619D01*
X151241047Y-80621238D01*
X151288666Y-80716476D01*
X151288666Y-80811714D01*
X151241047Y-80906952D01*
X151145809Y-80954571D01*
X150907714Y-80954571D01*
X150812476Y-81002190D01*
X149383904Y-81573619D02*
X149193428Y-81573619D01*
X149098190Y-81526000D01*
X149002952Y-81430761D01*
X148955333Y-81240285D01*
X148955333Y-80906952D01*
X149002952Y-80716476D01*
X149098190Y-80621238D01*
X149193428Y-80573619D01*
X149383904Y-80573619D01*
X149479142Y-80621238D01*
X149574380Y-80716476D01*
X149622000Y-80906952D01*
X149622000Y-81240285D01*
X149574380Y-81430761D01*
X149479142Y-81526000D01*
X149383904Y-81573619D01*
X148098190Y-81240285D02*
X148098190Y-80573619D01*
X148526761Y-81240285D02*
X148526761Y-80716476D01*
X148479142Y-80621238D01*
X148383904Y-80573619D01*
X148241047Y-80573619D01*
X148145809Y-80621238D01*
X148098190Y-80668857D01*
X147764857Y-81240285D02*
X147383904Y-81240285D01*
X147622000Y-81573619D02*
X147622000Y-80716476D01*
X147574380Y-80621238D01*
X147479142Y-80573619D01*
X147383904Y-80573619D01*
X135779190Y-109672380D02*
X135779190Y-108672380D01*
X136017285Y-108672380D01*
X136160142Y-108720000D01*
X136255380Y-108815238D01*
X136303000Y-108910476D01*
X136350619Y-109100952D01*
X136350619Y-109243809D01*
X136303000Y-109434285D01*
X136255380Y-109529523D01*
X136160142Y-109624761D01*
X136017285Y-109672380D01*
X135779190Y-109672380D01*
X137207761Y-109672380D02*
X137207761Y-109148571D01*
X137160142Y-109053333D01*
X137064904Y-109005714D01*
X136874428Y-109005714D01*
X136779190Y-109053333D01*
X137207761Y-109624761D02*
X137112523Y-109672380D01*
X136874428Y-109672380D01*
X136779190Y-109624761D01*
X136731571Y-109529523D01*
X136731571Y-109434285D01*
X136779190Y-109339047D01*
X136874428Y-109291428D01*
X137112523Y-109291428D01*
X137207761Y-109243809D01*
X137541095Y-109005714D02*
X137922047Y-109005714D01*
X137683952Y-108672380D02*
X137683952Y-109529523D01*
X137731571Y-109624761D01*
X137826809Y-109672380D01*
X137922047Y-109672380D01*
X138683952Y-109672380D02*
X138683952Y-109148571D01*
X138636333Y-109053333D01*
X138541095Y-109005714D01*
X138350619Y-109005714D01*
X138255380Y-109053333D01*
X138683952Y-109624761D02*
X138588714Y-109672380D01*
X138350619Y-109672380D01*
X138255380Y-109624761D01*
X138207761Y-109529523D01*
X138207761Y-109434285D01*
X138255380Y-109339047D01*
X138350619Y-109291428D01*
X138588714Y-109291428D01*
X138683952Y-109243809D01*
X139922047Y-109672380D02*
X139922047Y-108672380D01*
X140398238Y-109005714D02*
X140398238Y-109672380D01*
X140398238Y-109100952D02*
X140445857Y-109053333D01*
X140541095Y-109005714D01*
X140683952Y-109005714D01*
X140779190Y-109053333D01*
X140826809Y-109148571D01*
X140826809Y-109672380D01*
D11*
X162430089Y-102623932D02*
X161524321Y-102329630D01*
X162787824Y-102139331D02*
X161535752Y-103835433D01*
X161519749Y-101727308D01*
X143100561Y-78981228D02*
X143100561Y-77838371D01*
X145100561Y-78409800D02*
X143100561Y-78409800D01*
X126631977Y-102507377D02*
X126751984Y-102446231D01*
X127053144Y-102443944D01*
X127234298Y-102502805D01*
X127476598Y-102681672D01*
X127598891Y-102921686D01*
X127630608Y-103132270D01*
X127603464Y-103524007D01*
X127515173Y-103795738D01*
X127306876Y-104128615D01*
X127157439Y-104280338D01*
X126917425Y-104402631D01*
X126616264Y-104404918D01*
X126435110Y-104346057D01*
X126192810Y-104167190D01*
X126131663Y-104047183D01*
X131842000Y-110982190D02*
X131746761Y-111172666D01*
X131746761Y-111458380D01*
X131842000Y-111744095D01*
X132032476Y-111934571D01*
X132222952Y-112029809D01*
X132603904Y-112125047D01*
X132889619Y-112125047D01*
X133270571Y-112029809D01*
X133461047Y-111934571D01*
X133651523Y-111744095D01*
X133746761Y-111458380D01*
X133746761Y-111267904D01*
X133651523Y-110982190D01*
X133556285Y-110886952D01*
X132889619Y-110886952D01*
X132889619Y-111267904D01*
D12*
X129813113Y-86447621D02*
G75*
G02*
X149851620Y-114028260I-8961493J-27580639D01*
G01*
X130137581Y-85449012D02*
G75*
G02*
X150901620Y-114028260I-9285961J-28579248D01*
G01*
X170125219Y-85487055D02*
G75*
G02*
X163222299Y-75986000I3087080J9501055D01*
G01*
D13*
%TO.C,C4*%
X134714593Y-99076705D02*
X134217662Y-98915242D01*
X134260338Y-100474758D02*
X133763407Y-100313295D01*
%TO.C,C2*%
X138711000Y-104909252D02*
X138711000Y-104386748D01*
X140181000Y-104909252D02*
X140181000Y-104386748D01*
D14*
%TO.C,SW1*%
X146520116Y-99185290D02*
G75*
G03*
X146520116Y-99185290I-223607J0D01*
G01*
D13*
X150495260Y-90077986D02*
X150090752Y-90371879D01*
X152846401Y-93314054D02*
X150495260Y-90077986D01*
X152441893Y-93607947D02*
X152846401Y-93314054D01*
X142809599Y-95661946D02*
X143011853Y-95515000D01*
X144866847Y-98493505D02*
X142809599Y-95661946D01*
X145160740Y-98898014D02*
X144866847Y-98493505D01*
X145565248Y-98604121D02*
X145160740Y-98898014D01*
%TO.C,C1*%
X156177593Y-98949705D02*
X155680662Y-98788242D01*
X155723338Y-100347758D02*
X155226407Y-100186295D01*
%TO.C,J1*%
X164672628Y-94176046D02*
X165937533Y-94587038D01*
X165937533Y-94587038D02*
X165526540Y-95851944D01*
X165134089Y-97059785D02*
X163545741Y-101948216D01*
X161015931Y-101126231D02*
X163545741Y-101948216D01*
X162604278Y-96237800D02*
X161015931Y-101126231D01*
X162604278Y-96237800D02*
X165134089Y-97059785D01*
%TO.C,J2*%
X139581620Y-110198260D02*
X139581620Y-112858260D01*
X139581620Y-110198260D02*
X134441620Y-110198260D01*
X134441620Y-110198260D02*
X134441620Y-112858260D01*
X139581620Y-112858260D02*
X134441620Y-112858260D01*
X142181620Y-112858260D02*
X140851620Y-112858260D01*
X142181620Y-111528260D02*
X142181620Y-112858260D01*
%TO.C,J3*%
X150673635Y-77156676D02*
X150673635Y-79816676D01*
X150673635Y-77156676D02*
X145533635Y-77156676D01*
X145533635Y-77156676D02*
X145533635Y-79816676D01*
X150673635Y-79816676D02*
X145533635Y-79816676D01*
X153273635Y-79816676D02*
X151943635Y-79816676D01*
X153273635Y-78486676D02*
X153273635Y-79816676D01*
%TO.C,J4*%
X129820594Y-94514767D02*
X131085499Y-94925759D01*
X131085499Y-94925759D02*
X130674506Y-96190665D01*
X130282055Y-97398506D02*
X128693707Y-102286937D01*
X126163897Y-101464952D02*
X128693707Y-102286937D01*
X127752244Y-96576521D02*
X126163897Y-101464952D01*
X127752244Y-96576521D02*
X130282055Y-97398506D01*
%TO.C,JP1*%
X142896869Y-90109803D02*
X145162117Y-88464005D01*
X146099427Y-88648256D02*
X146452098Y-89133666D01*
X146337687Y-90082039D02*
X144072439Y-91727837D01*
X143135129Y-91543586D02*
X142782458Y-91058176D01*
X144351800Y-91772084D02*
X144285430Y-92191124D01*
X144285430Y-92191124D02*
X144770841Y-91838453D01*
X144351800Y-91772084D02*
X144770841Y-91838453D01*
X142782457Y-91058175D02*
G75*
G02*
X142937320Y-90080414I566312J411449D01*
G01*
X144112891Y-91698448D02*
G75*
G02*
X143135129Y-91543586I-411450J566312D01*
G01*
X146452099Y-89133667D02*
G75*
G02*
X146297236Y-90111428I-566312J-411449D01*
G01*
X145121665Y-88493394D02*
G75*
G02*
X146099427Y-88648256I411450J-566312D01*
G01*
%TO.C,JP2*%
X150864522Y-100634563D02*
X151283563Y-100700932D01*
X150798152Y-101053603D02*
X151283563Y-100700932D01*
X150864522Y-100634563D02*
X150798152Y-101053603D01*
X149647851Y-100406065D02*
X149295180Y-99920655D01*
X152850409Y-98944518D02*
X150585161Y-100590316D01*
X152612149Y-97510735D02*
X152964820Y-97996145D01*
X149409591Y-98972282D02*
X151674839Y-97326484D01*
X151634387Y-97355873D02*
G75*
G02*
X152612149Y-97510735I411450J-566312D01*
G01*
X152964821Y-97996146D02*
G75*
G02*
X152809958Y-98973907I-566312J-411449D01*
G01*
X150625613Y-100560927D02*
G75*
G02*
X149647851Y-100406065I-411450J566312D01*
G01*
X149295179Y-99920654D02*
G75*
G02*
X149450042Y-98942893I566312J411449D01*
G01*
%TO.C,C3*%
X144553000Y-84462252D02*
X144553000Y-83939748D01*
X146023000Y-84462252D02*
X146023000Y-83939748D01*
%TO.C,D1*%
X161480942Y-92710135D02*
X159225118Y-99652848D01*
X156250132Y-91010542D02*
X153994308Y-97953255D01*
X153994308Y-97953255D02*
X155088023Y-98308624D01*
%TO.C,D2*%
X140382407Y-102539119D02*
X140382407Y-103689119D01*
X147682407Y-102539119D02*
X140382407Y-102539119D01*
X147682407Y-108039119D02*
X140382407Y-108039119D01*
%TO.C,D3*%
X146381513Y-81975141D02*
X146381513Y-83125141D01*
X153681513Y-81975141D02*
X146381513Y-81975141D01*
X153681513Y-87475141D02*
X146381513Y-87475141D01*
%TO.C,D4*%
X140069611Y-92710135D02*
X137813787Y-99652848D01*
X134838801Y-91010542D02*
X132582977Y-97953255D01*
X132582977Y-97953255D02*
X133676692Y-98308624D01*
%TO.C,M2.1*%
D10*
X139482718Y-77738379D02*
X139482718Y-76738379D01*
X139816051Y-77452665D01*
X140149385Y-76738379D01*
X140149385Y-77738379D01*
X140577956Y-76833618D02*
X140625575Y-76785999D01*
X140720813Y-76738379D01*
X140958908Y-76738379D01*
X141054147Y-76785999D01*
X141101766Y-76833618D01*
X141149385Y-76928856D01*
X141149385Y-77024094D01*
X141101766Y-77166951D01*
X140530337Y-77738379D01*
X141149385Y-77738379D01*
X141577956Y-77643141D02*
X141625575Y-77690760D01*
X141577956Y-77738379D01*
X141530337Y-77690760D01*
X141577956Y-77643141D01*
X141577956Y-77738379D01*
X142577956Y-77738379D02*
X142006528Y-77738379D01*
X142292242Y-77738379D02*
X142292242Y-76738379D01*
X142197004Y-76881237D01*
X142101766Y-76976475D01*
X142006528Y-77024094D01*
X167259190Y-83510380D02*
X167259190Y-82510380D01*
X167592523Y-83224666D01*
X167925857Y-82510380D01*
X167925857Y-83510380D01*
X168354428Y-82605619D02*
X168402047Y-82558000D01*
X168497285Y-82510380D01*
X168735380Y-82510380D01*
X168830619Y-82558000D01*
X168878238Y-82605619D01*
X168925857Y-82700857D01*
X168925857Y-82796095D01*
X168878238Y-82938952D01*
X168306809Y-83510380D01*
X168925857Y-83510380D01*
X169354428Y-83415142D02*
X169402047Y-83462761D01*
X169354428Y-83510380D01*
X169306809Y-83462761D01*
X169354428Y-83415142D01*
X169354428Y-83510380D01*
X170354428Y-83510380D02*
X169783000Y-83510380D01*
X170068714Y-83510380D02*
X170068714Y-82510380D01*
X169973476Y-82653238D01*
X169878238Y-82748476D01*
X169783000Y-82796095D01*
X151533582Y-106780641D02*
X151533582Y-105780641D01*
X151866915Y-106494927D01*
X152200249Y-105780641D01*
X152200249Y-106780641D01*
X152628820Y-105875880D02*
X152676439Y-105828261D01*
X152771677Y-105780641D01*
X153009772Y-105780641D01*
X153105011Y-105828261D01*
X153152630Y-105875880D01*
X153200249Y-105971118D01*
X153200249Y-106066356D01*
X153152630Y-106209213D01*
X152581201Y-106780641D01*
X153200249Y-106780641D01*
X153628820Y-106685403D02*
X153676439Y-106733022D01*
X153628820Y-106780641D01*
X153581201Y-106733022D01*
X153628820Y-106685403D01*
X153628820Y-106780641D01*
X154628820Y-106780641D02*
X154057392Y-106780641D01*
X154343106Y-106780641D02*
X154343106Y-105780641D01*
X154247868Y-105923499D01*
X154152630Y-106018737D01*
X154057392Y-106066356D01*
%TO.C,MH*%
X156567766Y-108126539D02*
X156567766Y-107126539D01*
X156901099Y-107840825D01*
X157234432Y-107126539D01*
X157234432Y-108126539D01*
X157710623Y-108126539D02*
X157710623Y-107126539D01*
X157710623Y-107602730D02*
X158282051Y-107602730D01*
X158282051Y-108126539D02*
X158282051Y-107126539D01*
X135981868Y-79792481D02*
X135981868Y-78792481D01*
X136315201Y-79506767D01*
X136648534Y-78792481D01*
X136648534Y-79792481D01*
X137124725Y-79792481D02*
X137124725Y-78792481D01*
X137124725Y-79268672D02*
X137696153Y-79268672D01*
X137696153Y-79792481D02*
X137696153Y-78792481D01*
%TO.C,M2.1*%
X124181911Y-107753929D02*
X124181911Y-106753929D01*
X124515244Y-107468215D01*
X124848578Y-106753929D01*
X124848578Y-107753929D01*
X125277149Y-106849168D02*
X125324768Y-106801549D01*
X125420006Y-106753929D01*
X125658101Y-106753929D01*
X125753340Y-106801549D01*
X125800959Y-106849168D01*
X125848578Y-106944406D01*
X125848578Y-107039644D01*
X125800959Y-107182501D01*
X125229530Y-107753929D01*
X125848578Y-107753929D01*
X126277149Y-107658691D02*
X126324768Y-107706310D01*
X126277149Y-107753929D01*
X126229530Y-107706310D01*
X126277149Y-107658691D01*
X126277149Y-107753929D01*
X127277149Y-107753929D02*
X126705721Y-107753929D01*
X126991435Y-107753929D02*
X126991435Y-106753929D01*
X126896197Y-106896787D01*
X126800959Y-106992025D01*
X126705721Y-107039644D01*
%TO.C,C4*%
X133450978Y-101580935D02*
X133390974Y-101611508D01*
X133240394Y-101612651D01*
X133149817Y-101583221D01*
X133028667Y-101493787D01*
X132967521Y-101373780D01*
X132951662Y-101268488D01*
X132965234Y-101072620D01*
X133009380Y-100936754D01*
X133113528Y-100770316D01*
X133188247Y-100694454D01*
X133308254Y-100633308D01*
X133458834Y-100632164D01*
X133549411Y-100661595D01*
X133670561Y-100751028D01*
X133701134Y-100811032D01*
X134442750Y-101302346D02*
X134236739Y-101936383D01*
X134334029Y-100866463D02*
X133886861Y-101472213D01*
X134475610Y-101663510D01*
%TO.C,C2*%
X137898142Y-105576666D02*
X137945761Y-105624285D01*
X137993380Y-105767142D01*
X137993380Y-105862380D01*
X137945761Y-106005238D01*
X137850523Y-106100476D01*
X137755285Y-106148095D01*
X137564809Y-106195714D01*
X137421952Y-106195714D01*
X137231476Y-106148095D01*
X137136238Y-106100476D01*
X137041000Y-106005238D01*
X136993380Y-105862380D01*
X136993380Y-105767142D01*
X137041000Y-105624285D01*
X137088619Y-105576666D01*
X137088619Y-105195714D02*
X137041000Y-105148095D01*
X136993380Y-105052857D01*
X136993380Y-104814761D01*
X137041000Y-104719523D01*
X137088619Y-104671904D01*
X137183857Y-104624285D01*
X137279095Y-104624285D01*
X137421952Y-104671904D01*
X137993380Y-105243333D01*
X137993380Y-104624285D01*
%TO.C,SW1*%
X142144827Y-96949223D02*
X142190271Y-97092787D01*
X142330220Y-97285410D01*
X142424724Y-97334469D01*
X142491239Y-97345004D01*
X142596278Y-97327549D01*
X142673327Y-97271570D01*
X142722386Y-97177066D01*
X142732921Y-97110551D01*
X142715466Y-97005512D01*
X142642032Y-96823424D01*
X142624577Y-96718385D01*
X142635112Y-96651871D01*
X142684171Y-96557366D01*
X142761220Y-96501387D01*
X142866259Y-96483932D01*
X142932774Y-96494467D01*
X143027278Y-96543526D01*
X143167227Y-96736149D01*
X143212672Y-96879713D01*
X143447125Y-97121396D02*
X142778057Y-97901804D01*
X143467885Y-97636056D01*
X143001975Y-98210001D01*
X143950941Y-97814839D01*
X143673729Y-99134592D02*
X143337852Y-98672296D01*
X143505791Y-98903444D02*
X144314808Y-98315659D01*
X144143254Y-98322579D01*
X144010225Y-98301509D01*
X143915721Y-98252450D01*
%TO.C,C1*%
X154913978Y-101453935D02*
X154853974Y-101484508D01*
X154703394Y-101485651D01*
X154612817Y-101456221D01*
X154491667Y-101366787D01*
X154430521Y-101246780D01*
X154414662Y-101141488D01*
X154428234Y-100945620D01*
X154472380Y-100809754D01*
X154576528Y-100643316D01*
X154651247Y-100567454D01*
X154771254Y-100506308D01*
X154921834Y-100505164D01*
X155012411Y-100534595D01*
X155133561Y-100624028D01*
X155164134Y-100684032D01*
X155790316Y-101838813D02*
X155246855Y-101662232D01*
X155518585Y-101750523D02*
X155827602Y-100799466D01*
X155692880Y-100905901D01*
X155572873Y-100967048D01*
X155467581Y-100982906D01*
%TO.C,J1*%
X164969816Y-92182701D02*
X164749090Y-92862027D01*
X164659656Y-92983177D01*
X164539649Y-93044324D01*
X164389069Y-93045467D01*
X164298492Y-93016037D01*
X165611856Y-93442775D02*
X165068395Y-93266194D01*
X165340125Y-93354484D02*
X165649142Y-92403428D01*
X165514420Y-92509863D01*
X165394413Y-92571009D01*
X165289121Y-92586867D01*
%TO.C,J2*%
X143074000Y-111861593D02*
X143788286Y-111861593D01*
X143931143Y-111909212D01*
X144026381Y-112004450D01*
X144074000Y-112147307D01*
X144074000Y-112242545D01*
X143169239Y-111433021D02*
X143121620Y-111385402D01*
X143074000Y-111290164D01*
X143074000Y-111052069D01*
X143121620Y-110956831D01*
X143169239Y-110909212D01*
X143264477Y-110861593D01*
X143359715Y-110861593D01*
X143502572Y-110909212D01*
X144074000Y-111480640D01*
X144074000Y-110861593D01*
%TO.C,J3*%
X154166015Y-78820009D02*
X154880301Y-78820009D01*
X155023158Y-78867628D01*
X155118396Y-78962866D01*
X155166015Y-79105723D01*
X155166015Y-79200961D01*
X154166015Y-78439056D02*
X154166015Y-77820009D01*
X154546968Y-78153342D01*
X154546968Y-78010485D01*
X154594587Y-77915247D01*
X154642206Y-77867628D01*
X154737444Y-77820009D01*
X154975539Y-77820009D01*
X155070777Y-77867628D01*
X155118396Y-77915247D01*
X155166015Y-78010485D01*
X155166015Y-78296199D01*
X155118396Y-78391437D01*
X155070777Y-78439056D01*
%TO.C,J4*%
X130117782Y-92521422D02*
X129897056Y-93200748D01*
X129807622Y-93321898D01*
X129687615Y-93383045D01*
X129537035Y-93384188D01*
X129446458Y-93354758D01*
X130875256Y-93118028D02*
X130669245Y-93752065D01*
X130766535Y-92682145D02*
X130319367Y-93287896D01*
X130908116Y-93479192D01*
%TO.C,JP1*%
X142563201Y-88686477D02*
X142983048Y-89264347D01*
X143028493Y-89407910D01*
X143007423Y-89540939D01*
X142919839Y-89663433D01*
X142842790Y-89719413D01*
X143536233Y-89215597D02*
X142948447Y-88406580D01*
X143256644Y-88182661D01*
X143361683Y-88165207D01*
X143428198Y-88175741D01*
X143522702Y-88224801D01*
X143606671Y-88340375D01*
X143624126Y-88445414D01*
X143613591Y-88511928D01*
X143564532Y-88606432D01*
X143256335Y-88830350D01*
X144769021Y-88319924D02*
X144306725Y-88655801D01*
X144537873Y-88487863D02*
X143950088Y-87678846D01*
X143957008Y-87850399D01*
X143935938Y-87983428D01*
X143886878Y-88077932D01*
%TO.C,JP2*%
X151378536Y-100351387D02*
X151798383Y-100929257D01*
X151843828Y-101072820D01*
X151822758Y-101205849D01*
X151735174Y-101328343D01*
X151658125Y-101384323D01*
X152351568Y-100880507D02*
X151763782Y-100071490D01*
X152071979Y-99847571D01*
X152177018Y-99830117D01*
X152243533Y-99840651D01*
X152338037Y-99889711D01*
X152422006Y-100005285D01*
X152439461Y-100110324D01*
X152428926Y-100176838D01*
X152379867Y-100271342D01*
X152071670Y-100495260D01*
X152590254Y-99588743D02*
X152600789Y-99522229D01*
X152649849Y-99427725D01*
X152842472Y-99287776D01*
X152947511Y-99270321D01*
X153014025Y-99280856D01*
X153108529Y-99329915D01*
X153164509Y-99406965D01*
X153209954Y-99550528D01*
X153083535Y-100348701D01*
X153584356Y-99984834D01*
%TO.C,C3*%
X143965142Y-84367666D02*
X144012761Y-84415285D01*
X144060380Y-84558142D01*
X144060380Y-84653380D01*
X144012761Y-84796238D01*
X143917523Y-84891476D01*
X143822285Y-84939095D01*
X143631809Y-84986714D01*
X143488952Y-84986714D01*
X143298476Y-84939095D01*
X143203238Y-84891476D01*
X143108000Y-84796238D01*
X143060380Y-84653380D01*
X143060380Y-84558142D01*
X143108000Y-84415285D01*
X143155619Y-84367666D01*
X143060380Y-84034333D02*
X143060380Y-83415285D01*
X143441333Y-83748619D01*
X143441333Y-83605761D01*
X143488952Y-83510523D01*
X143536571Y-83462904D01*
X143631809Y-83415285D01*
X143869904Y-83415285D01*
X143965142Y-83462904D01*
X144012761Y-83510523D01*
X144060380Y-83605761D01*
X144060380Y-83891476D01*
X144012761Y-83986714D01*
X143965142Y-84034333D01*
%TO.C,D1*%
X159333155Y-91773763D02*
X158382099Y-91464746D01*
X158455674Y-91238304D01*
X158545108Y-91117154D01*
X158665115Y-91056007D01*
X158770407Y-91040149D01*
X158966276Y-91053721D01*
X159102141Y-91097866D01*
X159268579Y-91202015D01*
X159344441Y-91276734D01*
X159405588Y-91396741D01*
X159406731Y-91547321D01*
X159333155Y-91773763D01*
X159804038Y-90324534D02*
X159627457Y-90867995D01*
X159715748Y-90596265D02*
X158764691Y-90287248D01*
X158871126Y-90421970D01*
X158932273Y-90541977D01*
X158948131Y-90647269D01*
%TO.C,D2*%
X144809691Y-109425239D02*
X144809691Y-108425239D01*
X145047787Y-108425239D01*
X145190644Y-108472859D01*
X145285882Y-108568097D01*
X145333501Y-108663335D01*
X145381120Y-108853811D01*
X145381120Y-108996668D01*
X145333501Y-109187144D01*
X145285882Y-109282382D01*
X145190644Y-109377620D01*
X145047787Y-109425239D01*
X144809691Y-109425239D01*
X145762072Y-108520478D02*
X145809691Y-108472859D01*
X145904929Y-108425239D01*
X146143025Y-108425239D01*
X146238263Y-108472859D01*
X146285882Y-108520478D01*
X146333501Y-108615716D01*
X146333501Y-108710954D01*
X146285882Y-108853811D01*
X145714453Y-109425239D01*
X146333501Y-109425239D01*
%TO.C,D3*%
X149293417Y-88677521D02*
X149293417Y-87677521D01*
X149531513Y-87677521D01*
X149674370Y-87725141D01*
X149769608Y-87820379D01*
X149817227Y-87915617D01*
X149864846Y-88106093D01*
X149864846Y-88248950D01*
X149817227Y-88439426D01*
X149769608Y-88534664D01*
X149674370Y-88629902D01*
X149531513Y-88677521D01*
X149293417Y-88677521D01*
X150198179Y-87677521D02*
X150817227Y-87677521D01*
X150483893Y-88058474D01*
X150626751Y-88058474D01*
X150721989Y-88106093D01*
X150769608Y-88153712D01*
X150817227Y-88248950D01*
X150817227Y-88487045D01*
X150769608Y-88582283D01*
X150721989Y-88629902D01*
X150626751Y-88677521D01*
X150341036Y-88677521D01*
X150245798Y-88629902D01*
X150198179Y-88582283D01*
%TO.C,D4*%
X140001981Y-97699176D02*
X139050925Y-97390159D01*
X139124500Y-97163717D01*
X139213934Y-97042567D01*
X139333941Y-96981420D01*
X139439233Y-96965562D01*
X139635102Y-96979134D01*
X139770967Y-97023279D01*
X139937405Y-97127428D01*
X140013267Y-97202147D01*
X140074414Y-97322154D01*
X140075557Y-97472734D01*
X140001981Y-97699176D01*
X139809397Y-96134513D02*
X140443434Y-96340524D01*
X139373514Y-96243234D02*
X139979264Y-96690402D01*
X140170561Y-96101653D01*
%TD*%
%LPC*%
D15*
%TO.C,M2.1*%
X141006528Y-80485999D03*
%TD*%
%TO.C,M2.1*%
X168358198Y-79512711D03*
%TD*%
%TO.C,M2.1*%
X153057392Y-109528261D03*
%TD*%
D16*
%TO.C,MH*%
X157324909Y-109174159D03*
%TD*%
%TO.C,MH*%
X136739011Y-80840101D03*
%TD*%
D15*
%TO.C,M2.1*%
X125705721Y-110501549D03*
%TD*%
%TO.C,C4*%
G36*
G01*
X135931250Y-99745400D02*
X135637684Y-100648904D01*
G75*
G02*
X135322666Y-100809414I-237764J77254D01*
G01*
X134680702Y-100600828D01*
G75*
G02*
X134520192Y-100285810I77254J237764D01*
G01*
X134813758Y-99382306D01*
G75*
G02*
X135128776Y-99221796I237764J-77254D01*
G01*
X135770740Y-99430382D01*
G75*
G02*
X135931250Y-99745400I-77254J-237764D01*
G01*
G37*
G36*
G01*
X133957808Y-99104190D02*
X133664242Y-100007694D01*
G75*
G02*
X133349224Y-100168204I-237764J77254D01*
G01*
X132707260Y-99959618D01*
G75*
G02*
X132546750Y-99644600I77254J237764D01*
G01*
X132840316Y-98741096D01*
G75*
G02*
X133155334Y-98580586I237764J-77254D01*
G01*
X133797298Y-98789172D01*
G75*
G02*
X133957808Y-99104190I-77254J-237764D01*
G01*
G37*
%TD*%
%TO.C,C2*%
G36*
G01*
X139921000Y-106273000D02*
X138971000Y-106273000D01*
G75*
G02*
X138721000Y-106023000I0J250000D01*
G01*
X138721000Y-105348000D01*
G75*
G02*
X138971000Y-105098000I250000J0D01*
G01*
X139921000Y-105098000D01*
G75*
G02*
X140171000Y-105348000I0J-250000D01*
G01*
X140171000Y-106023000D01*
G75*
G02*
X139921000Y-106273000I-250000J0D01*
G01*
G37*
G36*
G01*
X139921000Y-104198000D02*
X138971000Y-104198000D01*
G75*
G02*
X138721000Y-103948000I0J250000D01*
G01*
X138721000Y-103273000D01*
G75*
G02*
X138971000Y-103023000I250000J0D01*
G01*
X139921000Y-103023000D01*
G75*
G02*
X140171000Y-103273000I0J-250000D01*
G01*
X140171000Y-103948000D01*
G75*
G02*
X139921000Y-104198000I-250000J0D01*
G01*
G37*
%TD*%
D17*
%TO.C,SW1*%
G36*
X149208099Y-91198574D02*
G01*
X148318180Y-91845137D01*
X147171999Y-90267554D01*
X148061918Y-89620991D01*
X149208099Y-91198574D01*
G37*
G36*
X147185557Y-92668037D02*
G01*
X146295638Y-93314600D01*
X145149457Y-91737017D01*
X146039376Y-91090454D01*
X147185557Y-92668037D01*
G37*
G36*
X145163014Y-94137500D02*
G01*
X144273095Y-94784063D01*
X143126914Y-93206480D01*
X144016833Y-92559917D01*
X145163014Y-94137500D01*
G37*
G36*
X152529086Y-95769520D02*
G01*
X151639167Y-96416083D01*
X150492986Y-94838500D01*
X151382905Y-94191937D01*
X152529086Y-95769520D01*
G37*
G36*
X150506543Y-97238983D02*
G01*
X149616624Y-97885546D01*
X148470443Y-96307963D01*
X149360362Y-95661400D01*
X150506543Y-97238983D01*
G37*
G36*
X148484001Y-98708446D02*
G01*
X147594082Y-99355009D01*
X146447901Y-97777426D01*
X147337820Y-97130863D01*
X148484001Y-98708446D01*
G37*
%TD*%
%TO.C,C1*%
G36*
G01*
X155420808Y-98977190D02*
X155127242Y-99880694D01*
G75*
G02*
X154812224Y-100041204I-237764J77254D01*
G01*
X154170260Y-99832618D01*
G75*
G02*
X154009750Y-99517600I77254J237764D01*
G01*
X154303316Y-98614096D01*
G75*
G02*
X154618334Y-98453586I237764J-77254D01*
G01*
X155260298Y-98662172D01*
G75*
G02*
X155420808Y-98977190I-77254J-237764D01*
G01*
G37*
G36*
G01*
X157394250Y-99618400D02*
X157100684Y-100521904D01*
G75*
G02*
X156785666Y-100682414I-237764J77254D01*
G01*
X156143702Y-100473828D01*
G75*
G02*
X155983192Y-100158810I77254J237764D01*
G01*
X156276758Y-99255306D01*
G75*
G02*
X156591776Y-99094796I237764J-77254D01*
G01*
X157233740Y-99303382D01*
G75*
G02*
X157394250Y-99618400I-77254J-237764D01*
G01*
G37*
%TD*%
%TO.C,J1*%
G36*
G01*
X161883431Y-100009654D02*
X161883431Y-100009654D01*
G75*
G02*
X162954493Y-99463920I808398J-262664D01*
G01*
X162954493Y-99463920D01*
G75*
G02*
X163500227Y-100534982I-262664J-808398D01*
G01*
X163500227Y-100534982D01*
G75*
G02*
X162429165Y-101080716I-808398J262664D01*
G01*
X162429165Y-101080716D01*
G75*
G02*
X161883431Y-100009654I262664J808398D01*
G01*
G37*
G36*
G01*
X162668334Y-97593971D02*
X162668334Y-97593971D01*
G75*
G02*
X163739396Y-97048237I808398J-262664D01*
G01*
X163739396Y-97048237D01*
G75*
G02*
X164285130Y-98119299I-262664J-808398D01*
G01*
X164285130Y-98119299D01*
G75*
G02*
X163214068Y-98665033I-808398J262664D01*
G01*
X163214068Y-98665033D01*
G75*
G02*
X162668334Y-97593971I262664J808398D01*
G01*
G37*
G36*
X163190573Y-95986685D02*
G01*
X163715901Y-94369889D01*
X165332697Y-94895217D01*
X164807369Y-96512013D01*
X163190573Y-95986685D01*
G37*
%TD*%
D18*
%TO.C,J2*%
X140851620Y-111528260D03*
D19*
X138311620Y-111528260D03*
X135771620Y-111528260D03*
%TD*%
D18*
%TO.C,J3*%
X151943635Y-78486676D03*
D19*
X149403635Y-78486676D03*
X146863635Y-78486676D03*
%TD*%
%TO.C,J4*%
G36*
G01*
X127031397Y-100348375D02*
X127031397Y-100348375D01*
G75*
G02*
X128102459Y-99802641I808398J-262664D01*
G01*
X128102459Y-99802641D01*
G75*
G02*
X128648193Y-100873703I-262664J-808398D01*
G01*
X128648193Y-100873703D01*
G75*
G02*
X127577131Y-101419437I-808398J262664D01*
G01*
X127577131Y-101419437D01*
G75*
G02*
X127031397Y-100348375I262664J808398D01*
G01*
G37*
G36*
G01*
X127816300Y-97932692D02*
X127816300Y-97932692D01*
G75*
G02*
X128887362Y-97386958I808398J-262664D01*
G01*
X128887362Y-97386958D01*
G75*
G02*
X129433096Y-98458020I-262664J-808398D01*
G01*
X129433096Y-98458020D01*
G75*
G02*
X128362034Y-99003754I-808398J262664D01*
G01*
X128362034Y-99003754D01*
G75*
G02*
X127816300Y-97932692I262664J808398D01*
G01*
G37*
D17*
G36*
X128338539Y-96325406D02*
G01*
X128863867Y-94708610D01*
X130480663Y-95233938D01*
X129955335Y-96850734D01*
X128338539Y-96325406D01*
G37*
%TD*%
%TO.C,JP1*%
G36*
X144653608Y-90996576D02*
G01*
X143771931Y-89783051D01*
X144580948Y-89195266D01*
X145462625Y-90408791D01*
X144653608Y-90996576D01*
G37*
G36*
X145228515Y-88725524D02*
G01*
X145248363Y-88711104D01*
X145290696Y-88686293D01*
X145335256Y-88665750D01*
X145381616Y-88649674D01*
X145429328Y-88638219D01*
X145477932Y-88631497D01*
X145526962Y-88629569D01*
X145575944Y-88632458D01*
X145624409Y-88640135D01*
X145671886Y-88652523D01*
X145717921Y-88669507D01*
X145762070Y-88690920D01*
X145803907Y-88716558D01*
X145843030Y-88746173D01*
X145879061Y-88779481D01*
X145911654Y-88816159D01*
X145926075Y-88836007D01*
X145926562Y-88835653D01*
X146220455Y-89240162D01*
X146219968Y-89240515D01*
X146234389Y-89260364D01*
X146259199Y-89302696D01*
X146279743Y-89347256D01*
X146295818Y-89393616D01*
X146307274Y-89441328D01*
X146313995Y-89489933D01*
X146315923Y-89538963D01*
X146313034Y-89587945D01*
X146305358Y-89636410D01*
X146292969Y-89683887D01*
X146275985Y-89729922D01*
X146254572Y-89774070D01*
X146228934Y-89815907D01*
X146199319Y-89855030D01*
X146166011Y-89891061D01*
X146129334Y-89923655D01*
X146109485Y-89938076D01*
X146109839Y-89938563D01*
X145664880Y-90261845D01*
X144783202Y-89048319D01*
X145228161Y-88725037D01*
X145228515Y-88725524D01*
G37*
G36*
X144451354Y-91143523D02*
G01*
X144006395Y-91466805D01*
X144006041Y-91466318D01*
X143986193Y-91480738D01*
X143943860Y-91505549D01*
X143899300Y-91526092D01*
X143852940Y-91542168D01*
X143805228Y-91553623D01*
X143756624Y-91560345D01*
X143707594Y-91562273D01*
X143658612Y-91559384D01*
X143610147Y-91551707D01*
X143562670Y-91539319D01*
X143516635Y-91522335D01*
X143472486Y-91500922D01*
X143430649Y-91475284D01*
X143391526Y-91445669D01*
X143355495Y-91412361D01*
X143322902Y-91375683D01*
X143308481Y-91355835D01*
X143307994Y-91356189D01*
X143014101Y-90951680D01*
X143014588Y-90951327D01*
X143000167Y-90931478D01*
X142975357Y-90889146D01*
X142954813Y-90844586D01*
X142938738Y-90798226D01*
X142927282Y-90750514D01*
X142920561Y-90701909D01*
X142918633Y-90652879D01*
X142921522Y-90603897D01*
X142929198Y-90555432D01*
X142941587Y-90507955D01*
X142958571Y-90461920D01*
X142979984Y-90417772D01*
X143005622Y-90375935D01*
X143035237Y-90336812D01*
X143068545Y-90300781D01*
X143105222Y-90268187D01*
X143125071Y-90253766D01*
X143124717Y-90253279D01*
X143569676Y-89929997D01*
X144451354Y-91143523D01*
G37*
%TD*%
%TO.C,JP2*%
G36*
X150964076Y-100006002D02*
G01*
X150519117Y-100329284D01*
X150518763Y-100328797D01*
X150498915Y-100343217D01*
X150456582Y-100368028D01*
X150412022Y-100388571D01*
X150365662Y-100404647D01*
X150317950Y-100416102D01*
X150269346Y-100422824D01*
X150220316Y-100424752D01*
X150171334Y-100421863D01*
X150122869Y-100414186D01*
X150075392Y-100401798D01*
X150029357Y-100384814D01*
X149985208Y-100363401D01*
X149943371Y-100337763D01*
X149904248Y-100308148D01*
X149868217Y-100274840D01*
X149835624Y-100238162D01*
X149821203Y-100218314D01*
X149820716Y-100218668D01*
X149526823Y-99814159D01*
X149527310Y-99813806D01*
X149512889Y-99793957D01*
X149488079Y-99751625D01*
X149467535Y-99707065D01*
X149451460Y-99660705D01*
X149440004Y-99612993D01*
X149433283Y-99564388D01*
X149431355Y-99515358D01*
X149434244Y-99466376D01*
X149441920Y-99417911D01*
X149454309Y-99370434D01*
X149471293Y-99324399D01*
X149492706Y-99280251D01*
X149518344Y-99238414D01*
X149547959Y-99199291D01*
X149581267Y-99163260D01*
X149617944Y-99130666D01*
X149637793Y-99116245D01*
X149637439Y-99115758D01*
X150082398Y-98792476D01*
X150964076Y-100006002D01*
G37*
G36*
X151741237Y-97588003D02*
G01*
X151761085Y-97573583D01*
X151803418Y-97548772D01*
X151847978Y-97528229D01*
X151894338Y-97512153D01*
X151942050Y-97500698D01*
X151990654Y-97493976D01*
X152039684Y-97492048D01*
X152088666Y-97494937D01*
X152137131Y-97502614D01*
X152184608Y-97515002D01*
X152230643Y-97531986D01*
X152274792Y-97553399D01*
X152316629Y-97579037D01*
X152355752Y-97608652D01*
X152391783Y-97641960D01*
X152424376Y-97678638D01*
X152438797Y-97698486D01*
X152439284Y-97698132D01*
X152733177Y-98102641D01*
X152732690Y-98102994D01*
X152747111Y-98122843D01*
X152771921Y-98165175D01*
X152792465Y-98209735D01*
X152808540Y-98256095D01*
X152819996Y-98303807D01*
X152826717Y-98352412D01*
X152828645Y-98401442D01*
X152825756Y-98450424D01*
X152818080Y-98498889D01*
X152805691Y-98546366D01*
X152788707Y-98592401D01*
X152767294Y-98636549D01*
X152741656Y-98678386D01*
X152712041Y-98717509D01*
X152678733Y-98753540D01*
X152642056Y-98786134D01*
X152622207Y-98800555D01*
X152622561Y-98801042D01*
X152177602Y-99124324D01*
X151295924Y-97910798D01*
X151740883Y-97587516D01*
X151741237Y-97588003D01*
G37*
G36*
X151166330Y-99859055D02*
G01*
X150284653Y-98645530D01*
X151093670Y-98057745D01*
X151975347Y-99271270D01*
X151166330Y-99859055D01*
G37*
%TD*%
%TO.C,C3*%
G36*
G01*
X145763000Y-83751000D02*
X144813000Y-83751000D01*
G75*
G02*
X144563000Y-83501000I0J250000D01*
G01*
X144563000Y-82826000D01*
G75*
G02*
X144813000Y-82576000I250000J0D01*
G01*
X145763000Y-82576000D01*
G75*
G02*
X146013000Y-82826000I0J-250000D01*
G01*
X146013000Y-83501000D01*
G75*
G02*
X145763000Y-83751000I-250000J0D01*
G01*
G37*
G36*
G01*
X145763000Y-85826000D02*
X144813000Y-85826000D01*
G75*
G02*
X144563000Y-85576000I0J250000D01*
G01*
X144563000Y-84901000D01*
G75*
G02*
X144813000Y-84651000I250000J0D01*
G01*
X145763000Y-84651000D01*
G75*
G02*
X146013000Y-84901000I0J-250000D01*
G01*
X146013000Y-85576000D01*
G75*
G02*
X145763000Y-85826000I-250000J0D01*
G01*
G37*
%TD*%
%TO.C,D1*%
G36*
X159772641Y-92628233D02*
G01*
X160723698Y-92937250D01*
X160260173Y-94363835D01*
X159309116Y-94054818D01*
X159772641Y-92628233D01*
G37*
G36*
X156729260Y-91639378D02*
G01*
X157680317Y-91948395D01*
X157216792Y-93374980D01*
X156265735Y-93065963D01*
X156729260Y-91639378D01*
G37*
G36*
X158258458Y-97288410D02*
G01*
X159209515Y-97597427D01*
X158745990Y-99024012D01*
X157794933Y-98714995D01*
X158258458Y-97288410D01*
G37*
G36*
X155215077Y-96299555D02*
G01*
X156166134Y-96608572D01*
X155702609Y-98035157D01*
X154751552Y-97726140D01*
X155215077Y-96299555D01*
G37*
%TD*%
D20*
%TO.C,D2*%
X141582407Y-103689119D03*
X141582407Y-106889119D03*
X146482407Y-103689119D03*
X146482407Y-106889119D03*
%TD*%
%TO.C,D3*%
X147581513Y-83125141D03*
X147581513Y-86325141D03*
X152481513Y-83125141D03*
X152481513Y-86325141D03*
%TD*%
D17*
%TO.C,D4*%
G36*
X138361310Y-92628233D02*
G01*
X139312367Y-92937250D01*
X138848842Y-94363835D01*
X137897785Y-94054818D01*
X138361310Y-92628233D01*
G37*
G36*
X135317929Y-91639378D02*
G01*
X136268986Y-91948395D01*
X135805461Y-93374980D01*
X134854404Y-93065963D01*
X135317929Y-91639378D01*
G37*
G36*
X136847127Y-97288410D02*
G01*
X137798184Y-97597427D01*
X137334659Y-99024012D01*
X136383602Y-98714995D01*
X136847127Y-97288410D01*
G37*
G36*
X133803746Y-96299555D02*
G01*
X134754803Y-96608572D01*
X134291278Y-98035157D01*
X133340221Y-97726140D01*
X133803746Y-96299555D01*
G37*
%TD*%
M02*
