%TF.GenerationSoftware,KiCad,Pcbnew,5.1.8*%
%TF.CreationDate,2021-01-12T21:38:57-05:00*%
%TF.ProjectId,penroserombus_thick_40mm,70656e72-6f73-4657-926f-6d6275735f74,rev?*%
%TF.SameCoordinates,Original*%
%TF.FileFunction,Copper,L1,Top*%
%TF.FilePolarity,Positive*%
%FSLAX46Y46*%
G04 Gerber Fmt 4.6, Leading zero omitted, Abs format (unit mm)*
G04 Created by KiCad (PCBNEW 5.1.8) date 2021-01-12 21:38:57*
%MOMM*%
%LPD*%
G01*
G04 APERTURE LIST*
%TA.AperFunction,SMDPad,CuDef*%
%ADD10C,0.100000*%
%TD*%
%TA.AperFunction,ComponentPad*%
%ADD11C,0.100000*%
%TD*%
%TA.AperFunction,ComponentPad*%
%ADD12R,1.700000X1.700000*%
%TD*%
%TA.AperFunction,ComponentPad*%
%ADD13O,1.700000X1.700000*%
%TD*%
%TA.AperFunction,SMDPad,CuDef*%
%ADD14R,1.500000X1.000000*%
%TD*%
%TA.AperFunction,ViaPad*%
%ADD15C,0.800000*%
%TD*%
%TA.AperFunction,Conductor*%
%ADD16C,1.000000*%
%TD*%
%TA.AperFunction,Conductor*%
%ADD17C,0.250000*%
%TD*%
%TA.AperFunction,Conductor*%
%ADD18C,0.254000*%
%TD*%
%TA.AperFunction,Conductor*%
%ADD19C,0.100000*%
%TD*%
G04 APERTURE END LIST*
%TO.P,C4,1*%
%TO.N,GND*%
%TA.AperFunction,SMDPad,CuDef*%
G36*
G01*
X135975750Y-93421600D02*
X136269316Y-92518096D01*
G75*
G02*
X136584334Y-92357586I237764J-77254D01*
G01*
X137226298Y-92566172D01*
G75*
G02*
X137386808Y-92881190I-77254J-237764D01*
G01*
X137093242Y-93784694D01*
G75*
G02*
X136778224Y-93945204I-237764J77254D01*
G01*
X136136260Y-93736618D01*
G75*
G02*
X135975750Y-93421600I77254J237764D01*
G01*
G37*
%TD.AperFunction*%
%TO.P,C4,2*%
%TO.N,VCC*%
%TA.AperFunction,SMDPad,CuDef*%
G36*
G01*
X137949192Y-94062810D02*
X138242758Y-93159306D01*
G75*
G02*
X138557776Y-92998796I237764J-77254D01*
G01*
X139199740Y-93207382D01*
G75*
G02*
X139360250Y-93522400I-77254J-237764D01*
G01*
X139066684Y-94425904D01*
G75*
G02*
X138751666Y-94586414I-237764J77254D01*
G01*
X138109702Y-94377828D01*
G75*
G02*
X137949192Y-94062810I77254J237764D01*
G01*
G37*
%TD.AperFunction*%
%TD*%
%TO.P,C2,1*%
%TO.N,GND*%
%TA.AperFunction,SMDPad,CuDef*%
G36*
G01*
X136746000Y-106167500D02*
X135796000Y-106167500D01*
G75*
G02*
X135546000Y-105917500I0J250000D01*
G01*
X135546000Y-105242500D01*
G75*
G02*
X135796000Y-104992500I250000J0D01*
G01*
X136746000Y-104992500D01*
G75*
G02*
X136996000Y-105242500I0J-250000D01*
G01*
X136996000Y-105917500D01*
G75*
G02*
X136746000Y-106167500I-250000J0D01*
G01*
G37*
%TD.AperFunction*%
%TO.P,C2,2*%
%TO.N,VCC*%
%TA.AperFunction,SMDPad,CuDef*%
G36*
G01*
X136746000Y-104092500D02*
X135796000Y-104092500D01*
G75*
G02*
X135546000Y-103842500I0J250000D01*
G01*
X135546000Y-103167500D01*
G75*
G02*
X135796000Y-102917500I250000J0D01*
G01*
X136746000Y-102917500D01*
G75*
G02*
X136996000Y-103167500I0J-250000D01*
G01*
X136996000Y-103842500D01*
G75*
G02*
X136746000Y-104092500I-250000J0D01*
G01*
G37*
%TD.AperFunction*%
%TD*%
%TA.AperFunction,SMDPad,CuDef*%
D10*
%TO.P,SW1,6*%
%TO.N,Net-(D3-Pad2)*%
G36*
X149208099Y-91198574D02*
G01*
X148318180Y-91845137D01*
X147171999Y-90267554D01*
X148061918Y-89620991D01*
X149208099Y-91198574D01*
G37*
%TD.AperFunction*%
%TA.AperFunction,SMDPad,CuDef*%
%TO.P,SW1,5*%
%TO.N,Net-(D2-Pad4)*%
G36*
X147185557Y-92668037D02*
G01*
X146295638Y-93314600D01*
X145149457Y-91737017D01*
X146039376Y-91090454D01*
X147185557Y-92668037D01*
G37*
%TD.AperFunction*%
%TA.AperFunction,SMDPad,CuDef*%
%TO.P,SW1,4*%
%TO.N,Net-(D4-Pad2)*%
G36*
X145163014Y-94137500D02*
G01*
X144273095Y-94784063D01*
X143126914Y-93206480D01*
X144016833Y-92559917D01*
X145163014Y-94137500D01*
G37*
%TD.AperFunction*%
%TA.AperFunction,SMDPad,CuDef*%
%TO.P,SW1,3*%
G36*
X152529086Y-95769520D02*
G01*
X151639167Y-96416083D01*
X150492986Y-94838500D01*
X151382905Y-94191937D01*
X152529086Y-95769520D01*
G37*
%TD.AperFunction*%
%TA.AperFunction,SMDPad,CuDef*%
%TO.P,SW1,2*%
%TO.N,Net-(D1-Pad4)*%
G36*
X150506543Y-97238983D02*
G01*
X149616624Y-97885546D01*
X148470443Y-96307963D01*
X149360362Y-95661400D01*
X150506543Y-97238983D01*
G37*
%TD.AperFunction*%
%TA.AperFunction,SMDPad,CuDef*%
%TO.P,SW1,1*%
%TO.N,Net-(D3-Pad2)*%
G36*
X148484001Y-98708446D02*
G01*
X147594082Y-99355009D01*
X146447901Y-97777426D01*
X147337820Y-97130863D01*
X148484001Y-98708446D01*
G37*
%TD.AperFunction*%
%TD*%
%TO.P,C1,2*%
%TO.N,VCC*%
%TA.AperFunction,SMDPad,CuDef*%
G36*
G01*
X156182808Y-95802190D02*
X155889242Y-96705694D01*
G75*
G02*
X155574224Y-96866204I-237764J77254D01*
G01*
X154932260Y-96657618D01*
G75*
G02*
X154771750Y-96342600I77254J237764D01*
G01*
X155065316Y-95439096D01*
G75*
G02*
X155380334Y-95278586I237764J-77254D01*
G01*
X156022298Y-95487172D01*
G75*
G02*
X156182808Y-95802190I-77254J-237764D01*
G01*
G37*
%TD.AperFunction*%
%TO.P,C1,1*%
%TO.N,GND*%
%TA.AperFunction,SMDPad,CuDef*%
G36*
G01*
X158156250Y-96443400D02*
X157862684Y-97346904D01*
G75*
G02*
X157547666Y-97507414I-237764J77254D01*
G01*
X156905702Y-97298828D01*
G75*
G02*
X156745192Y-96983810I77254J237764D01*
G01*
X157038758Y-96080306D01*
G75*
G02*
X157353776Y-95919796I237764J-77254D01*
G01*
X157995740Y-96128382D01*
G75*
G02*
X158156250Y-96443400I-77254J-237764D01*
G01*
G37*
%TD.AperFunction*%
%TD*%
%TO.P,J1,3*%
%TO.N,Net-(D1-Pad2)*%
%TA.AperFunction,ComponentPad*%
G36*
G01*
X162276114Y-98803290D02*
X162276114Y-98803290D01*
G75*
G02*
X163347176Y-98257556I808398J-262664D01*
G01*
X163347176Y-98257556D01*
G75*
G02*
X163892910Y-99328618I-262664J-808398D01*
G01*
X163892910Y-99328618D01*
G75*
G02*
X162821848Y-99874352I-808398J262664D01*
G01*
X162821848Y-99874352D01*
G75*
G02*
X162276114Y-98803290I262664J808398D01*
G01*
G37*
%TD.AperFunction*%
%TO.P,J1,2*%
%TO.N,VCC*%
%TA.AperFunction,ComponentPad*%
G36*
G01*
X163061017Y-96387607D02*
X163061017Y-96387607D01*
G75*
G02*
X164132079Y-95841873I808398J-262664D01*
G01*
X164132079Y-95841873D01*
G75*
G02*
X164677813Y-96912935I-262664J-808398D01*
G01*
X164677813Y-96912935D01*
G75*
G02*
X163606751Y-97458669I-808398J262664D01*
G01*
X163606751Y-97458669D01*
G75*
G02*
X163061017Y-96387607I262664J808398D01*
G01*
G37*
%TD.AperFunction*%
%TA.AperFunction,ComponentPad*%
D11*
%TO.P,J1,1*%
%TO.N,GND*%
G36*
X163583256Y-94780321D02*
G01*
X164108584Y-93163525D01*
X165725380Y-93688853D01*
X165200052Y-95305649D01*
X163583256Y-94780321D01*
G37*
%TD.AperFunction*%
%TD*%
D12*
%TO.P,J2,1*%
%TO.N,GND*%
X140851620Y-111528260D03*
D13*
%TO.P,J2,2*%
%TO.N,VCC*%
X138311620Y-111528260D03*
%TO.P,J2,3*%
%TO.N,Net-(D2-Pad2)*%
X135771620Y-111528260D03*
%TD*%
D12*
%TO.P,J3,1*%
%TO.N,GND*%
X153212300Y-78486000D03*
D13*
%TO.P,J3,2*%
%TO.N,VCC*%
X150672300Y-78486000D03*
%TO.P,J3,3*%
%TO.N,Net-(D3-Pad4)*%
X148132300Y-78486000D03*
%TD*%
%TO.P,J4,3*%
%TO.N,Net-(D4-Pad4)*%
%TA.AperFunction,ComponentPad*%
G36*
G01*
X127031397Y-100348375D02*
X127031397Y-100348375D01*
G75*
G02*
X128102459Y-99802641I808398J-262664D01*
G01*
X128102459Y-99802641D01*
G75*
G02*
X128648193Y-100873703I-262664J-808398D01*
G01*
X128648193Y-100873703D01*
G75*
G02*
X127577131Y-101419437I-808398J262664D01*
G01*
X127577131Y-101419437D01*
G75*
G02*
X127031397Y-100348375I262664J808398D01*
G01*
G37*
%TD.AperFunction*%
%TO.P,J4,2*%
%TO.N,VCC*%
%TA.AperFunction,ComponentPad*%
G36*
G01*
X127816300Y-97932692D02*
X127816300Y-97932692D01*
G75*
G02*
X128887362Y-97386958I808398J-262664D01*
G01*
X128887362Y-97386958D01*
G75*
G02*
X129433096Y-98458020I-262664J-808398D01*
G01*
X129433096Y-98458020D01*
G75*
G02*
X128362034Y-99003754I-808398J262664D01*
G01*
X128362034Y-99003754D01*
G75*
G02*
X127816300Y-97932692I262664J808398D01*
G01*
G37*
%TD.AperFunction*%
%TA.AperFunction,ComponentPad*%
D11*
%TO.P,J4,1*%
%TO.N,GND*%
G36*
X128338539Y-96325406D02*
G01*
X128863867Y-94708610D01*
X130480663Y-95233938D01*
X129955335Y-96850734D01*
X128338539Y-96325406D01*
G37*
%TD.AperFunction*%
%TD*%
%TA.AperFunction,SMDPad,CuDef*%
D10*
%TO.P,JP1,2*%
%TO.N,Net-(D2-Pad4)*%
G36*
X143764608Y-89802776D02*
G01*
X142882931Y-88589251D01*
X143691948Y-88001466D01*
X144573625Y-89214991D01*
X143764608Y-89802776D01*
G37*
%TD.AperFunction*%
%TA.AperFunction,SMDPad,CuDef*%
%TO.P,JP1,3*%
%TO.N,Net-(D3-Pad2)*%
G36*
X144339515Y-87531724D02*
G01*
X144359363Y-87517304D01*
X144401696Y-87492493D01*
X144446256Y-87471950D01*
X144492616Y-87455874D01*
X144540328Y-87444419D01*
X144588932Y-87437697D01*
X144637962Y-87435769D01*
X144686944Y-87438658D01*
X144735409Y-87446335D01*
X144782886Y-87458723D01*
X144828921Y-87475707D01*
X144873070Y-87497120D01*
X144914907Y-87522758D01*
X144954030Y-87552373D01*
X144990061Y-87585681D01*
X145022654Y-87622359D01*
X145037075Y-87642207D01*
X145037562Y-87641853D01*
X145331455Y-88046362D01*
X145330968Y-88046715D01*
X145345389Y-88066564D01*
X145370199Y-88108896D01*
X145390743Y-88153456D01*
X145406818Y-88199816D01*
X145418274Y-88247528D01*
X145424995Y-88296133D01*
X145426923Y-88345163D01*
X145424034Y-88394145D01*
X145416358Y-88442610D01*
X145403969Y-88490087D01*
X145386985Y-88536122D01*
X145365572Y-88580270D01*
X145339934Y-88622107D01*
X145310319Y-88661230D01*
X145277011Y-88697261D01*
X145240334Y-88729855D01*
X145220485Y-88744276D01*
X145220839Y-88744763D01*
X144775880Y-89068045D01*
X143894202Y-87854519D01*
X144339161Y-87531237D01*
X144339515Y-87531724D01*
G37*
%TD.AperFunction*%
%TA.AperFunction,SMDPad,CuDef*%
%TO.P,JP1,1*%
%TO.N,Net-(D4-Pad2)*%
G36*
X143562354Y-89949723D02*
G01*
X143117395Y-90273005D01*
X143117041Y-90272518D01*
X143097193Y-90286938D01*
X143054860Y-90311749D01*
X143010300Y-90332292D01*
X142963940Y-90348368D01*
X142916228Y-90359823D01*
X142867624Y-90366545D01*
X142818594Y-90368473D01*
X142769612Y-90365584D01*
X142721147Y-90357907D01*
X142673670Y-90345519D01*
X142627635Y-90328535D01*
X142583486Y-90307122D01*
X142541649Y-90281484D01*
X142502526Y-90251869D01*
X142466495Y-90218561D01*
X142433902Y-90181883D01*
X142419481Y-90162035D01*
X142418994Y-90162389D01*
X142125101Y-89757880D01*
X142125588Y-89757527D01*
X142111167Y-89737678D01*
X142086357Y-89695346D01*
X142065813Y-89650786D01*
X142049738Y-89604426D01*
X142038282Y-89556714D01*
X142031561Y-89508109D01*
X142029633Y-89459079D01*
X142032522Y-89410097D01*
X142040198Y-89361632D01*
X142052587Y-89314155D01*
X142069571Y-89268120D01*
X142090984Y-89223972D01*
X142116622Y-89182135D01*
X142146237Y-89143012D01*
X142179545Y-89106981D01*
X142216222Y-89074387D01*
X142236071Y-89059966D01*
X142235717Y-89059479D01*
X142680676Y-88736197D01*
X143562354Y-89949723D01*
G37*
%TD.AperFunction*%
%TD*%
%TA.AperFunction,SMDPad,CuDef*%
%TO.P,JP2,1*%
%TO.N,Net-(D3-Pad2)*%
G36*
X151218076Y-101377602D02*
G01*
X150773117Y-101700884D01*
X150772763Y-101700397D01*
X150752915Y-101714817D01*
X150710582Y-101739628D01*
X150666022Y-101760171D01*
X150619662Y-101776247D01*
X150571950Y-101787702D01*
X150523346Y-101794424D01*
X150474316Y-101796352D01*
X150425334Y-101793463D01*
X150376869Y-101785786D01*
X150329392Y-101773398D01*
X150283357Y-101756414D01*
X150239208Y-101735001D01*
X150197371Y-101709363D01*
X150158248Y-101679748D01*
X150122217Y-101646440D01*
X150089624Y-101609762D01*
X150075203Y-101589914D01*
X150074716Y-101590268D01*
X149780823Y-101185759D01*
X149781310Y-101185406D01*
X149766889Y-101165557D01*
X149742079Y-101123225D01*
X149721535Y-101078665D01*
X149705460Y-101032305D01*
X149694004Y-100984593D01*
X149687283Y-100935988D01*
X149685355Y-100886958D01*
X149688244Y-100837976D01*
X149695920Y-100789511D01*
X149708309Y-100742034D01*
X149725293Y-100695999D01*
X149746706Y-100651851D01*
X149772344Y-100610014D01*
X149801959Y-100570891D01*
X149835267Y-100534860D01*
X149871944Y-100502266D01*
X149891793Y-100487845D01*
X149891439Y-100487358D01*
X150336398Y-100164076D01*
X151218076Y-101377602D01*
G37*
%TD.AperFunction*%
%TA.AperFunction,SMDPad,CuDef*%
%TO.P,JP2,3*%
%TO.N,Net-(D4-Pad2)*%
G36*
X151995237Y-98959603D02*
G01*
X152015085Y-98945183D01*
X152057418Y-98920372D01*
X152101978Y-98899829D01*
X152148338Y-98883753D01*
X152196050Y-98872298D01*
X152244654Y-98865576D01*
X152293684Y-98863648D01*
X152342666Y-98866537D01*
X152391131Y-98874214D01*
X152438608Y-98886602D01*
X152484643Y-98903586D01*
X152528792Y-98924999D01*
X152570629Y-98950637D01*
X152609752Y-98980252D01*
X152645783Y-99013560D01*
X152678376Y-99050238D01*
X152692797Y-99070086D01*
X152693284Y-99069732D01*
X152987177Y-99474241D01*
X152986690Y-99474594D01*
X153001111Y-99494443D01*
X153025921Y-99536775D01*
X153046465Y-99581335D01*
X153062540Y-99627695D01*
X153073996Y-99675407D01*
X153080717Y-99724012D01*
X153082645Y-99773042D01*
X153079756Y-99822024D01*
X153072080Y-99870489D01*
X153059691Y-99917966D01*
X153042707Y-99964001D01*
X153021294Y-100008149D01*
X152995656Y-100049986D01*
X152966041Y-100089109D01*
X152932733Y-100125140D01*
X152896056Y-100157734D01*
X152876207Y-100172155D01*
X152876561Y-100172642D01*
X152431602Y-100495924D01*
X151549924Y-99282398D01*
X151994883Y-98959116D01*
X151995237Y-98959603D01*
G37*
%TD.AperFunction*%
%TA.AperFunction,SMDPad,CuDef*%
%TO.P,JP2,2*%
%TO.N,Net-(D1-Pad4)*%
G36*
X151420330Y-101230655D02*
G01*
X150538653Y-100017130D01*
X151347670Y-99429345D01*
X152229347Y-100642870D01*
X151420330Y-101230655D01*
G37*
%TD.AperFunction*%
%TD*%
%TO.P,C3,2*%
%TO.N,VCC*%
%TA.AperFunction,SMDPad,CuDef*%
G36*
G01*
X148811000Y-84005000D02*
X147861000Y-84005000D01*
G75*
G02*
X147611000Y-83755000I0J250000D01*
G01*
X147611000Y-83080000D01*
G75*
G02*
X147861000Y-82830000I250000J0D01*
G01*
X148811000Y-82830000D01*
G75*
G02*
X149061000Y-83080000I0J-250000D01*
G01*
X149061000Y-83755000D01*
G75*
G02*
X148811000Y-84005000I-250000J0D01*
G01*
G37*
%TD.AperFunction*%
%TO.P,C3,1*%
%TO.N,GND*%
%TA.AperFunction,SMDPad,CuDef*%
G36*
G01*
X148811000Y-86080000D02*
X147861000Y-86080000D01*
G75*
G02*
X147611000Y-85830000I0J250000D01*
G01*
X147611000Y-85155000D01*
G75*
G02*
X147861000Y-84905000I250000J0D01*
G01*
X148811000Y-84905000D01*
G75*
G02*
X149061000Y-85155000I0J-250000D01*
G01*
X149061000Y-85830000D01*
G75*
G02*
X148811000Y-86080000I-250000J0D01*
G01*
G37*
%TD.AperFunction*%
%TD*%
%TA.AperFunction,SMDPad,CuDef*%
%TO.P,D1,3*%
%TO.N,GND*%
G36*
X160507467Y-89522516D02*
G01*
X161458524Y-89831533D01*
X160994999Y-91258118D01*
X160043942Y-90949101D01*
X160507467Y-89522516D01*
G37*
%TD.AperFunction*%
%TA.AperFunction,SMDPad,CuDef*%
%TO.P,D1,4*%
%TO.N,Net-(D1-Pad4)*%
G36*
X157464086Y-88533661D02*
G01*
X158415143Y-88842678D01*
X157951618Y-90269263D01*
X157000561Y-89960246D01*
X157464086Y-88533661D01*
G37*
%TD.AperFunction*%
%TA.AperFunction,SMDPad,CuDef*%
%TO.P,D1,2*%
%TO.N,Net-(D1-Pad2)*%
G36*
X158993284Y-94182693D02*
G01*
X159944341Y-94491710D01*
X159480816Y-95918295D01*
X158529759Y-95609278D01*
X158993284Y-94182693D01*
G37*
%TD.AperFunction*%
%TA.AperFunction,SMDPad,CuDef*%
%TO.P,D1,1*%
%TO.N,VCC*%
G36*
X155949903Y-93193838D02*
G01*
X156900960Y-93502855D01*
X156437435Y-94929440D01*
X155486378Y-94620423D01*
X155949903Y-93193838D01*
G37*
%TD.AperFunction*%
%TD*%
D14*
%TO.P,D2,1*%
%TO.N,VCC*%
X138401620Y-103428260D03*
%TO.P,D2,2*%
%TO.N,Net-(D2-Pad2)*%
X138401620Y-106628260D03*
%TO.P,D2,4*%
%TO.N,Net-(D2-Pad4)*%
X143301620Y-103428260D03*
%TO.P,D2,3*%
%TO.N,GND*%
X143301620Y-106628260D03*
%TD*%
%TO.P,D3,1*%
%TO.N,VCC*%
X150762300Y-83386000D03*
%TO.P,D3,2*%
%TO.N,Net-(D3-Pad2)*%
X150762300Y-86586000D03*
%TO.P,D3,4*%
%TO.N,Net-(D3-Pad4)*%
X155662300Y-83386000D03*
%TO.P,D3,3*%
%TO.N,GND*%
X155662300Y-86586000D03*
%TD*%
%TA.AperFunction,SMDPad,CuDef*%
D10*
%TO.P,D4,3*%
%TO.N,GND*%
G36*
X133556452Y-100491744D02*
G01*
X132605395Y-100182727D01*
X133068920Y-98756142D01*
X134019977Y-99065159D01*
X133556452Y-100491744D01*
G37*
%TD.AperFunction*%
%TA.AperFunction,SMDPad,CuDef*%
%TO.P,D4,4*%
%TO.N,Net-(D4-Pad4)*%
G36*
X136599833Y-101480599D02*
G01*
X135648776Y-101171582D01*
X136112301Y-99744997D01*
X137063358Y-100054014D01*
X136599833Y-101480599D01*
G37*
%TD.AperFunction*%
%TA.AperFunction,SMDPad,CuDef*%
%TO.P,D4,2*%
%TO.N,Net-(D4-Pad2)*%
G36*
X135070635Y-95831567D02*
G01*
X134119578Y-95522550D01*
X134583103Y-94095965D01*
X135534160Y-94404982D01*
X135070635Y-95831567D01*
G37*
%TD.AperFunction*%
%TA.AperFunction,SMDPad,CuDef*%
%TO.P,D4,1*%
%TO.N,VCC*%
G36*
X138114016Y-96820422D02*
G01*
X137162959Y-96511405D01*
X137626484Y-95084820D01*
X138577541Y-95393837D01*
X138114016Y-96820422D01*
G37*
%TD.AperFunction*%
%TD*%
D15*
%TO.N,GND*%
X148336000Y-86741000D03*
X140589000Y-98679000D03*
X154305000Y-86614000D03*
X136271000Y-107061000D03*
X158496000Y-97155000D03*
X133858000Y-98044000D03*
X135255000Y-92710000D03*
X141859000Y-106553000D03*
X146050000Y-100965000D03*
X156464000Y-91694000D03*
X160274000Y-92075000D03*
%TO.N,Net-(D4-Pad2)*%
X148717000Y-94742000D03*
X146304000Y-94234000D03*
%TD*%
D16*
%TO.N,VCC*%
X138311620Y-111108258D02*
X138311620Y-111528260D01*
X155477279Y-96072395D02*
X156193669Y-94061639D01*
X150730800Y-83417500D02*
X150762300Y-83386000D01*
X148336000Y-83417500D02*
X150730800Y-83417500D01*
X159115153Y-91140155D02*
X156193669Y-94061639D01*
X159115153Y-88552723D02*
X159115153Y-91140155D01*
X138324880Y-103505000D02*
X138401620Y-103428260D01*
X136271000Y-103505000D02*
X138324880Y-103505000D01*
X155477279Y-99205778D02*
X150054796Y-104628261D01*
X155477279Y-96072395D02*
X155477279Y-99205778D01*
X161169679Y-88552723D02*
X159115153Y-88552723D01*
X162883246Y-95664102D02*
X162883246Y-90266290D01*
X162883246Y-90266290D02*
X161169679Y-88552723D01*
X163869415Y-96650271D02*
X162883246Y-95664102D01*
X150762300Y-78576000D02*
X150672300Y-78486000D01*
X150762300Y-83386000D02*
X150762300Y-78576000D01*
X138401620Y-103428260D02*
X137870250Y-95952621D01*
X137870250Y-95952621D02*
X138654721Y-93792605D01*
X130683000Y-97536000D02*
X128624698Y-98195356D01*
X140424738Y-103428260D02*
X141624739Y-104628261D01*
X138401620Y-103428260D02*
X140424738Y-103428260D01*
X148336000Y-83417500D02*
X142919498Y-83417500D01*
X159115153Y-87528851D02*
X159115153Y-88552723D01*
X151962301Y-84586001D02*
X156172303Y-84586001D01*
X156172303Y-84586001D02*
X159115153Y-87528851D01*
X150762300Y-83386000D02*
X151962301Y-84586001D01*
X137870250Y-95952621D02*
X133731000Y-96943999D01*
X133731000Y-96943999D02*
X130683000Y-97536000D01*
X144799739Y-107640143D02*
X144799739Y-104628261D01*
X144611621Y-107828261D02*
X144799739Y-107640143D01*
X140809538Y-107828261D02*
X144611621Y-107828261D01*
X138311620Y-110326179D02*
X140809538Y-107828261D01*
X138311620Y-111528260D02*
X138311620Y-110326179D01*
X144799739Y-104628261D02*
X141624739Y-104628261D01*
X150054796Y-104628261D02*
X144799739Y-104628261D01*
X133419568Y-96632567D02*
X133731000Y-96943999D01*
X133419568Y-94269535D02*
X133419568Y-96632567D01*
X133424999Y-94264104D02*
X133419568Y-94269535D01*
X133424999Y-92911999D02*
X133424999Y-94264104D01*
X142919498Y-83417500D02*
X133424999Y-92911999D01*
D17*
%TO.N,GND*%
X142253360Y-105580000D02*
X143301620Y-106628260D01*
X136271000Y-105580000D02*
X142253360Y-105580000D01*
X155634300Y-86614000D02*
X155662300Y-86586000D01*
X154305000Y-86614000D02*
X155634300Y-86614000D01*
X151503802Y-85492500D02*
X152273000Y-86261698D01*
X148336000Y-85492500D02*
X151503802Y-85492500D01*
X152273000Y-86741000D02*
X151892000Y-87122000D01*
X152273000Y-86261698D02*
X152273000Y-86741000D01*
X151892000Y-87122000D02*
X151892000Y-88646000D01*
%TO.N,Net-(D1-Pad2)*%
X163084512Y-99065954D02*
X159237050Y-95050494D01*
%TO.N,Net-(D1-Pad4)*%
X149488493Y-96773473D02*
X151384000Y-100330000D01*
X157707852Y-89401462D02*
X153406811Y-93702503D01*
X153406811Y-93702503D02*
X153406811Y-100109506D01*
X151920940Y-100866940D02*
X151384000Y-100330000D01*
X152649377Y-100866940D02*
X151920940Y-100866940D01*
X153406811Y-100109506D02*
X152649377Y-100866940D01*
%TO.N,Net-(D2-Pad4)*%
X143728278Y-88902121D02*
X146167507Y-92202527D01*
X146167507Y-92202527D02*
X147309980Y-93345000D01*
X147309980Y-93345000D02*
X147309980Y-96001980D01*
X143301620Y-100010340D02*
X147309980Y-96001980D01*
X143301620Y-103428260D02*
X143301620Y-100010340D01*
%TO.N,Net-(D2-Pad2)*%
X135771620Y-111528260D02*
X138401620Y-106628260D01*
%TO.N,Net-(D3-Pad2)*%
X144780000Y-88138000D02*
X148190049Y-90733064D01*
X147465951Y-98242936D02*
X150332278Y-101094121D01*
X148190049Y-90733064D02*
X147796293Y-91126820D01*
X147796293Y-91126820D02*
X147796293Y-97912594D01*
X147796293Y-97912594D02*
X147465951Y-98242936D01*
X150762300Y-88160813D02*
X148190049Y-90733064D01*
X150762300Y-86586000D02*
X150762300Y-88160813D01*
%TO.N,Net-(D3-Pad4)*%
X154125000Y-83386000D02*
X155662300Y-83386000D01*
X151847301Y-81108301D02*
X154125000Y-83386000D01*
X151847301Y-77921999D02*
X151847301Y-81108301D01*
X151236301Y-77310999D02*
X151847301Y-77921999D01*
X149307301Y-77310999D02*
X151236301Y-77310999D01*
X148132300Y-78486000D02*
X149307301Y-77310999D01*
%TO.N,Net-(D4-Pad4)*%
X135507827Y-101461038D02*
X136356067Y-100612798D01*
X128689794Y-101461038D02*
X135507827Y-101461038D01*
X127839795Y-100611039D02*
X128689794Y-101461038D01*
%TO.N,Net-(D4-Pad2)*%
X142676556Y-89666242D02*
X144144964Y-93671990D01*
X151511036Y-95304010D02*
X152435722Y-99565879D01*
X148717000Y-94742000D02*
X151511036Y-95304010D01*
X144144964Y-93671990D02*
X146304000Y-94234000D01*
X134826869Y-94963766D02*
X136906000Y-95123000D01*
X136906000Y-95123000D02*
X137287000Y-94488000D01*
X137287000Y-94488000D02*
X138303000Y-92202000D01*
X138303000Y-92202000D02*
X142676556Y-89666242D01*
%TD*%
D18*
%TO.N,GND*%
X148767300Y-76770998D02*
X148743502Y-76799996D01*
X148498708Y-77044790D01*
X148278560Y-77001000D01*
X147986040Y-77001000D01*
X147699142Y-77058068D01*
X147428889Y-77170010D01*
X147185668Y-77332525D01*
X146978825Y-77539368D01*
X146816310Y-77782589D01*
X146704368Y-78052842D01*
X146647300Y-78339740D01*
X146647300Y-78632260D01*
X146704368Y-78919158D01*
X146816310Y-79189411D01*
X146978825Y-79432632D01*
X147185668Y-79639475D01*
X147428889Y-79801990D01*
X147699142Y-79913932D01*
X147986040Y-79971000D01*
X148278560Y-79971000D01*
X148565458Y-79913932D01*
X148835711Y-79801990D01*
X149078932Y-79639475D01*
X149285775Y-79432632D01*
X149402300Y-79258240D01*
X149518825Y-79432632D01*
X149627301Y-79541108D01*
X149627300Y-82282500D01*
X149193827Y-82282500D01*
X149150850Y-82259528D01*
X148984254Y-82208992D01*
X148811000Y-82191928D01*
X147861000Y-82191928D01*
X147687746Y-82208992D01*
X147521150Y-82259528D01*
X147478173Y-82282500D01*
X142975239Y-82282500D01*
X142919497Y-82277010D01*
X142863755Y-82282500D01*
X142863746Y-82282500D01*
X142696999Y-82298923D01*
X142483051Y-82363824D01*
X142285875Y-82469216D01*
X142113049Y-82611051D01*
X142077509Y-82654357D01*
X132661864Y-92070003D01*
X132618550Y-92105550D01*
X132476715Y-92278376D01*
X132398559Y-92424598D01*
X132371323Y-92475553D01*
X132306422Y-92689501D01*
X132284508Y-92911999D01*
X132289999Y-92967750D01*
X132289999Y-94158641D01*
X132279077Y-94269535D01*
X132284568Y-94325287D01*
X132284569Y-96068724D01*
X130668538Y-96382599D01*
X130631695Y-96310290D01*
X129491140Y-95939701D01*
X129484960Y-95958722D01*
X129243391Y-95880233D01*
X129249572Y-95861211D01*
X128747670Y-95698133D01*
X129569630Y-95698133D01*
X130710185Y-96068722D01*
X130910222Y-95966798D01*
X131087506Y-95431113D01*
X131114313Y-95308936D01*
X131116769Y-95183876D01*
X131094779Y-95060740D01*
X131049190Y-94944260D01*
X130981752Y-94838912D01*
X130895059Y-94748744D01*
X130792439Y-94677223D01*
X130677839Y-94627096D01*
X130140256Y-94455655D01*
X129940219Y-94557578D01*
X129569630Y-95698133D01*
X128747670Y-95698133D01*
X128109017Y-95490622D01*
X127908980Y-95592546D01*
X127731696Y-96128231D01*
X127704889Y-96250408D01*
X127702433Y-96375468D01*
X127724423Y-96498604D01*
X127770012Y-96615084D01*
X127837450Y-96720432D01*
X127924143Y-96810600D01*
X127984965Y-96852990D01*
X127921287Y-96879366D01*
X127678066Y-97041881D01*
X127471223Y-97248724D01*
X127308708Y-97491945D01*
X127196766Y-97762198D01*
X127139698Y-98049096D01*
X127139698Y-98341616D01*
X127196766Y-98628514D01*
X127308708Y-98898767D01*
X127471223Y-99141988D01*
X127494804Y-99165569D01*
X127406637Y-99183107D01*
X127136384Y-99295049D01*
X126893163Y-99457564D01*
X126686320Y-99664407D01*
X126523805Y-99907628D01*
X126411863Y-100177881D01*
X126354795Y-100464779D01*
X126354795Y-100757299D01*
X126411863Y-101044197D01*
X126523805Y-101314450D01*
X126686320Y-101557671D01*
X126893163Y-101764514D01*
X127136384Y-101927029D01*
X127406637Y-102038971D01*
X127693535Y-102096039D01*
X127986055Y-102096039D01*
X128211023Y-102051290D01*
X128265517Y-102096012D01*
X128304229Y-102116704D01*
X128397547Y-102166584D01*
X128540808Y-102210041D01*
X128652461Y-102221038D01*
X128652470Y-102221038D01*
X128689793Y-102224714D01*
X128727116Y-102221038D01*
X135470505Y-102221038D01*
X135507827Y-102224714D01*
X135545149Y-102221038D01*
X135545160Y-102221038D01*
X135656813Y-102210041D01*
X135800074Y-102166584D01*
X135932103Y-102096012D01*
X136047828Y-102001039D01*
X136066545Y-101978232D01*
X136402658Y-102087442D01*
X136524836Y-102114248D01*
X136649896Y-102116704D01*
X136773032Y-102094715D01*
X136889512Y-102049125D01*
X136994860Y-101981688D01*
X137085027Y-101894993D01*
X137148317Y-101804183D01*
X137188536Y-102370000D01*
X137128827Y-102370000D01*
X137085850Y-102347028D01*
X136919254Y-102296492D01*
X136746000Y-102279428D01*
X135796000Y-102279428D01*
X135622746Y-102296492D01*
X135456150Y-102347028D01*
X135302614Y-102429095D01*
X135168038Y-102539538D01*
X135057595Y-102674114D01*
X134975528Y-102827650D01*
X134924992Y-102994246D01*
X134907928Y-103167500D01*
X134907928Y-103842500D01*
X134924992Y-104015754D01*
X134975528Y-104182350D01*
X135057595Y-104335886D01*
X135168038Y-104470462D01*
X135174594Y-104475842D01*
X135094815Y-104541315D01*
X135015463Y-104638006D01*
X134956498Y-104748320D01*
X134920188Y-104868018D01*
X134907928Y-104992500D01*
X134911000Y-105294250D01*
X135069750Y-105453000D01*
X136144000Y-105453000D01*
X136144000Y-105433000D01*
X136398000Y-105433000D01*
X136398000Y-105453000D01*
X136418000Y-105453000D01*
X136418000Y-105707000D01*
X136398000Y-105707000D01*
X136398000Y-106643750D01*
X136556750Y-106802500D01*
X136996000Y-106805572D01*
X137013548Y-106803844D01*
X137013548Y-107128260D01*
X137025808Y-107252742D01*
X137062118Y-107372440D01*
X137100799Y-107444806D01*
X135706119Y-110043260D01*
X135625360Y-110043260D01*
X135338462Y-110100328D01*
X135068209Y-110212270D01*
X134824988Y-110374785D01*
X134618145Y-110581628D01*
X134455630Y-110824849D01*
X134343688Y-111095102D01*
X134286620Y-111382000D01*
X134286620Y-111674520D01*
X134343688Y-111961418D01*
X134455630Y-112231671D01*
X134618145Y-112474892D01*
X134824988Y-112681735D01*
X135068209Y-112844250D01*
X135338462Y-112956192D01*
X135625360Y-113013260D01*
X135917880Y-113013260D01*
X136204778Y-112956192D01*
X136475031Y-112844250D01*
X136718252Y-112681735D01*
X136925095Y-112474892D01*
X137041620Y-112300500D01*
X137158145Y-112474892D01*
X137364988Y-112681735D01*
X137608209Y-112844250D01*
X137878462Y-112956192D01*
X138165360Y-113013260D01*
X138457880Y-113013260D01*
X138744778Y-112956192D01*
X139015031Y-112844250D01*
X139258252Y-112681735D01*
X139390107Y-112549880D01*
X139412118Y-112622440D01*
X139471083Y-112732754D01*
X139550435Y-112829445D01*
X139647126Y-112908797D01*
X139757440Y-112967762D01*
X139877138Y-113004072D01*
X140001620Y-113016332D01*
X140565870Y-113013260D01*
X140724620Y-112854510D01*
X140724620Y-111655260D01*
X140978620Y-111655260D01*
X140978620Y-112854510D01*
X141137370Y-113013260D01*
X141701620Y-113016332D01*
X141826102Y-113004072D01*
X141945800Y-112967762D01*
X142056114Y-112908797D01*
X142152805Y-112829445D01*
X142232157Y-112732754D01*
X142291122Y-112622440D01*
X142327432Y-112502742D01*
X142339692Y-112378260D01*
X142336620Y-111814010D01*
X142177870Y-111655260D01*
X140978620Y-111655260D01*
X140724620Y-111655260D01*
X140704620Y-111655260D01*
X140704620Y-111401260D01*
X140724620Y-111401260D01*
X140724620Y-110202010D01*
X140978620Y-110202010D01*
X140978620Y-111401260D01*
X142177870Y-111401260D01*
X142336620Y-111242510D01*
X142339692Y-110678260D01*
X142327432Y-110553778D01*
X142291122Y-110434080D01*
X142232157Y-110323766D01*
X142152805Y-110227075D01*
X142056114Y-110147723D01*
X141945800Y-110088758D01*
X141826102Y-110052448D01*
X141701620Y-110040188D01*
X141137370Y-110043260D01*
X140978620Y-110202010D01*
X140724620Y-110202010D01*
X140565870Y-110043260D01*
X140201654Y-110041277D01*
X140880628Y-109362303D01*
X151372392Y-109362303D01*
X151372392Y-109694219D01*
X151437146Y-110019757D01*
X151564164Y-110326408D01*
X151748567Y-110602386D01*
X151983267Y-110837086D01*
X152259245Y-111021489D01*
X152565896Y-111148507D01*
X152891434Y-111213261D01*
X153223350Y-111213261D01*
X153548888Y-111148507D01*
X153855539Y-111021489D01*
X154131517Y-110837086D01*
X154366217Y-110602386D01*
X154550620Y-110326408D01*
X154677638Y-110019757D01*
X154742392Y-109694219D01*
X154742392Y-109362303D01*
X154681263Y-109054984D01*
X156114909Y-109054984D01*
X156114909Y-109293334D01*
X156161408Y-109527103D01*
X156252621Y-109747309D01*
X156385040Y-109945489D01*
X156553579Y-110114028D01*
X156751759Y-110246447D01*
X156971965Y-110337660D01*
X157205734Y-110384159D01*
X157444084Y-110384159D01*
X157677853Y-110337660D01*
X157898059Y-110246447D01*
X158096239Y-110114028D01*
X158264778Y-109945489D01*
X158397197Y-109747309D01*
X158488410Y-109527103D01*
X158534909Y-109293334D01*
X158534909Y-109054984D01*
X158488410Y-108821215D01*
X158397197Y-108601009D01*
X158264778Y-108402829D01*
X158096239Y-108234290D01*
X157898059Y-108101871D01*
X157677853Y-108010658D01*
X157444084Y-107964159D01*
X157205734Y-107964159D01*
X156971965Y-108010658D01*
X156751759Y-108101871D01*
X156553579Y-108234290D01*
X156385040Y-108402829D01*
X156252621Y-108601009D01*
X156161408Y-108821215D01*
X156114909Y-109054984D01*
X154681263Y-109054984D01*
X154677638Y-109036765D01*
X154550620Y-108730114D01*
X154366217Y-108454136D01*
X154131517Y-108219436D01*
X153855539Y-108035033D01*
X153548888Y-107908015D01*
X153223350Y-107843261D01*
X152891434Y-107843261D01*
X152565896Y-107908015D01*
X152259245Y-108035033D01*
X151983267Y-108219436D01*
X151748567Y-108454136D01*
X151564164Y-108730114D01*
X151437146Y-109036765D01*
X151372392Y-109362303D01*
X140880628Y-109362303D01*
X141279671Y-108963261D01*
X144555870Y-108963261D01*
X144611621Y-108968752D01*
X144667372Y-108963261D01*
X144667373Y-108963261D01*
X144834120Y-108946838D01*
X145048068Y-108881937D01*
X145245244Y-108776545D01*
X145418070Y-108634710D01*
X145453617Y-108591396D01*
X145562874Y-108482139D01*
X145606188Y-108446592D01*
X145748023Y-108273766D01*
X145853415Y-108076590D01*
X145918316Y-107862642D01*
X145934739Y-107695895D01*
X145934739Y-107695894D01*
X145940230Y-107640144D01*
X145934739Y-107584392D01*
X145934739Y-105763261D01*
X149999045Y-105763261D01*
X150054796Y-105768752D01*
X150110547Y-105763261D01*
X150110548Y-105763261D01*
X150277295Y-105746838D01*
X150491243Y-105681937D01*
X150688419Y-105576545D01*
X150861245Y-105434710D01*
X150896792Y-105391396D01*
X156240420Y-100047769D01*
X156283728Y-100012227D01*
X156425563Y-99839401D01*
X156530955Y-99642225D01*
X156595856Y-99428277D01*
X156612279Y-99261530D01*
X156617770Y-99205779D01*
X156612279Y-99150027D01*
X156612279Y-97872810D01*
X156758693Y-97918740D01*
X156804682Y-97895307D01*
X157200299Y-97895307D01*
X157302222Y-98095343D01*
X157588254Y-98191511D01*
X157710432Y-98218318D01*
X157835492Y-98220774D01*
X157958628Y-98198784D01*
X158075108Y-98153195D01*
X158180455Y-98085757D01*
X158270623Y-97999064D01*
X158342145Y-97896444D01*
X158392272Y-97781844D01*
X158525086Y-97363143D01*
X158423162Y-97163106D01*
X157532260Y-96873634D01*
X157200299Y-97895307D01*
X156804682Y-97895307D01*
X156958730Y-97816816D01*
X157290692Y-96795144D01*
X157271671Y-96788964D01*
X157350160Y-96547395D01*
X157369182Y-96553576D01*
X157701143Y-95531903D01*
X157599220Y-95331867D01*
X157313188Y-95235699D01*
X157191010Y-95208892D01*
X157065950Y-95206436D01*
X157004568Y-95217398D01*
X157044278Y-95126615D01*
X157193701Y-94666738D01*
X159878294Y-91982146D01*
X159921602Y-91946604D01*
X160063437Y-91773778D01*
X160168829Y-91576602D01*
X160174988Y-91556298D01*
X160251517Y-91517305D01*
X160591204Y-90471856D01*
X160572183Y-90465676D01*
X160650672Y-90224107D01*
X160669694Y-90230288D01*
X160675874Y-90211267D01*
X160917443Y-90289756D01*
X160911262Y-90308778D01*
X160930283Y-90314958D01*
X160851794Y-90556527D01*
X160832772Y-90550346D01*
X160493085Y-91595795D01*
X160595009Y-91795832D01*
X160797823Y-91864960D01*
X160920001Y-91891768D01*
X161045061Y-91894223D01*
X161168197Y-91872233D01*
X161284677Y-91826644D01*
X161390025Y-91759207D01*
X161480192Y-91672513D01*
X161551714Y-91569894D01*
X161601841Y-91455293D01*
X161742381Y-91012816D01*
X161640458Y-90812781D01*
X161748247Y-90847804D01*
X161748246Y-95608350D01*
X161742755Y-95664102D01*
X161748246Y-95719853D01*
X161764669Y-95886600D01*
X161829570Y-96100548D01*
X161934962Y-96297725D01*
X162076797Y-96470551D01*
X162120110Y-96506097D01*
X162384415Y-96770403D01*
X162384415Y-96796531D01*
X162441483Y-97083429D01*
X162553425Y-97353682D01*
X162684737Y-97550204D01*
X160397204Y-95162788D01*
X160551184Y-94688885D01*
X160577990Y-94566707D01*
X160580446Y-94441647D01*
X160558457Y-94318511D01*
X160512867Y-94202031D01*
X160445430Y-94096683D01*
X160358736Y-94006516D01*
X160256116Y-93934995D01*
X160141516Y-93884867D01*
X159190459Y-93575850D01*
X159068281Y-93549044D01*
X158943221Y-93546588D01*
X158820085Y-93568577D01*
X158703605Y-93614167D01*
X158598257Y-93681604D01*
X158508090Y-93768299D01*
X158436569Y-93870918D01*
X158386441Y-93985518D01*
X157922916Y-95412103D01*
X157896110Y-95534281D01*
X157893654Y-95659341D01*
X157905413Y-95725189D01*
X157610750Y-96632066D01*
X158501653Y-96921538D01*
X158701689Y-96819614D01*
X158840347Y-96402812D01*
X158844793Y-96382548D01*
X159283641Y-96525138D01*
X159405819Y-96551944D01*
X159530879Y-96554400D01*
X159611657Y-96539975D01*
X161649762Y-98667074D01*
X161599512Y-98919694D01*
X161599512Y-99212214D01*
X161656580Y-99499112D01*
X161768522Y-99769365D01*
X161931037Y-100012586D01*
X162137880Y-100219429D01*
X162381101Y-100381944D01*
X162651354Y-100493886D01*
X162938252Y-100550954D01*
X163230772Y-100550954D01*
X163517670Y-100493886D01*
X163787923Y-100381944D01*
X164031144Y-100219429D01*
X164237987Y-100012586D01*
X164400502Y-99769365D01*
X164512444Y-99499112D01*
X164569512Y-99212214D01*
X164569512Y-98919694D01*
X164512444Y-98632796D01*
X164400502Y-98362543D01*
X164237987Y-98119322D01*
X164214406Y-98095741D01*
X164302573Y-98078203D01*
X164572826Y-97966261D01*
X164816047Y-97803746D01*
X165022890Y-97596903D01*
X165185405Y-97353682D01*
X165297347Y-97083429D01*
X165354415Y-96796531D01*
X165354415Y-96504011D01*
X165297347Y-96217113D01*
X165185405Y-95946860D01*
X165181088Y-95940399D01*
X165250114Y-95941755D01*
X165373250Y-95919765D01*
X165489730Y-95874176D01*
X165595078Y-95806738D01*
X165685246Y-95720045D01*
X165756767Y-95617425D01*
X165806894Y-95502825D01*
X165978335Y-94965242D01*
X165876412Y-94765205D01*
X164735857Y-94394616D01*
X164729677Y-94413637D01*
X164488108Y-94335148D01*
X164494289Y-94316126D01*
X164475268Y-94309946D01*
X164526246Y-94153048D01*
X164814347Y-94153048D01*
X165954902Y-94523637D01*
X166154939Y-94421713D01*
X166332223Y-93886028D01*
X166359030Y-93763851D01*
X166361486Y-93638791D01*
X166339496Y-93515655D01*
X166293907Y-93399175D01*
X166226469Y-93293827D01*
X166139776Y-93203659D01*
X166037156Y-93132138D01*
X165922556Y-93082011D01*
X165384973Y-92910570D01*
X165184936Y-93012493D01*
X164814347Y-94153048D01*
X164526246Y-94153048D01*
X164553757Y-94068377D01*
X164572779Y-94074558D01*
X164943368Y-92934003D01*
X164841444Y-92733966D01*
X164305759Y-92556682D01*
X164183582Y-92529875D01*
X164058522Y-92527419D01*
X164018246Y-92534612D01*
X164018246Y-90322042D01*
X164023737Y-90266290D01*
X164001823Y-90043791D01*
X163936922Y-89829843D01*
X163831530Y-89632667D01*
X163725235Y-89503146D01*
X163725233Y-89503144D01*
X163689695Y-89459841D01*
X163646392Y-89424303D01*
X162011674Y-87789587D01*
X161976128Y-87746274D01*
X161803302Y-87604439D01*
X161606126Y-87499047D01*
X161392178Y-87434146D01*
X161225431Y-87417723D01*
X161225430Y-87417723D01*
X161169679Y-87412232D01*
X161113928Y-87417723D01*
X160244699Y-87417723D01*
X160233730Y-87306352D01*
X160168829Y-87092404D01*
X160063437Y-86895228D01*
X159921602Y-86722402D01*
X159878294Y-86686860D01*
X157050372Y-83858939D01*
X157050372Y-82886000D01*
X157038112Y-82761518D01*
X157001802Y-82641820D01*
X156942837Y-82531506D01*
X156863485Y-82434815D01*
X156766794Y-82355463D01*
X156656480Y-82296498D01*
X156536782Y-82260188D01*
X156412300Y-82247928D01*
X154912300Y-82247928D01*
X154787818Y-82260188D01*
X154668120Y-82296498D01*
X154557806Y-82355463D01*
X154461115Y-82434815D01*
X154381763Y-82531506D01*
X154369065Y-82555263D01*
X152607301Y-80793500D01*
X152607301Y-79972738D01*
X152926550Y-79971000D01*
X153085300Y-79812250D01*
X153085300Y-78613000D01*
X153339300Y-78613000D01*
X153339300Y-79812250D01*
X153498050Y-79971000D01*
X154062300Y-79974072D01*
X154186782Y-79961812D01*
X154306480Y-79925502D01*
X154416794Y-79866537D01*
X154513485Y-79787185D01*
X154592837Y-79690494D01*
X154651802Y-79580180D01*
X154688112Y-79460482D01*
X154699312Y-79346753D01*
X166673198Y-79346753D01*
X166673198Y-79678669D01*
X166737952Y-80004207D01*
X166864970Y-80310858D01*
X167049373Y-80586836D01*
X167284073Y-80821536D01*
X167560051Y-81005939D01*
X167866702Y-81132957D01*
X168192240Y-81197711D01*
X168524156Y-81197711D01*
X168849694Y-81132957D01*
X169156345Y-81005939D01*
X169432323Y-80821536D01*
X169667023Y-80586836D01*
X169851426Y-80310858D01*
X169978444Y-80004207D01*
X170043198Y-79678669D01*
X170043198Y-79346753D01*
X169978444Y-79021215D01*
X169851426Y-78714564D01*
X169667023Y-78438586D01*
X169432323Y-78203886D01*
X169156345Y-78019483D01*
X168849694Y-77892465D01*
X168524156Y-77827711D01*
X168192240Y-77827711D01*
X167866702Y-77892465D01*
X167560051Y-78019483D01*
X167284073Y-78203886D01*
X167049373Y-78438586D01*
X166864970Y-78714564D01*
X166737952Y-79021215D01*
X166673198Y-79346753D01*
X154699312Y-79346753D01*
X154700372Y-79336000D01*
X154697300Y-78771750D01*
X154538550Y-78613000D01*
X153339300Y-78613000D01*
X153085300Y-78613000D01*
X153065300Y-78613000D01*
X153065300Y-78359000D01*
X153085300Y-78359000D01*
X153085300Y-77159750D01*
X153339300Y-77159750D01*
X153339300Y-78359000D01*
X154538550Y-78359000D01*
X154697300Y-78200250D01*
X154700372Y-77636000D01*
X154688112Y-77511518D01*
X154651802Y-77391820D01*
X154592837Y-77281506D01*
X154513485Y-77184815D01*
X154416794Y-77105463D01*
X154306480Y-77046498D01*
X154186782Y-77010188D01*
X154062300Y-76997928D01*
X153498050Y-77001000D01*
X153339300Y-77159750D01*
X153085300Y-77159750D01*
X152926550Y-77001000D01*
X152362300Y-76997928D01*
X152237818Y-77010188D01*
X152118120Y-77046498D01*
X152071514Y-77071410D01*
X151800104Y-76800001D01*
X151776302Y-76770998D01*
X151715379Y-76721000D01*
X172200658Y-76721000D01*
X160317611Y-113293260D01*
X121863260Y-113293260D01*
X122824265Y-110335591D01*
X124020721Y-110335591D01*
X124020721Y-110667507D01*
X124085475Y-110993045D01*
X124212493Y-111299696D01*
X124396896Y-111575674D01*
X124631596Y-111810374D01*
X124907574Y-111994777D01*
X125214225Y-112121795D01*
X125539763Y-112186549D01*
X125871679Y-112186549D01*
X126197217Y-112121795D01*
X126503868Y-111994777D01*
X126779846Y-111810374D01*
X127014546Y-111575674D01*
X127198949Y-111299696D01*
X127325967Y-110993045D01*
X127390721Y-110667507D01*
X127390721Y-110335591D01*
X127325967Y-110010053D01*
X127198949Y-109703402D01*
X127014546Y-109427424D01*
X126779846Y-109192724D01*
X126503868Y-109008321D01*
X126197217Y-108881303D01*
X125871679Y-108816549D01*
X125539763Y-108816549D01*
X125214225Y-108881303D01*
X124907574Y-109008321D01*
X124631596Y-109192724D01*
X124396896Y-109427424D01*
X124212493Y-109703402D01*
X124085475Y-110010053D01*
X124020721Y-110335591D01*
X122824265Y-110335591D01*
X124178559Y-106167500D01*
X134907928Y-106167500D01*
X134920188Y-106291982D01*
X134956498Y-106411680D01*
X135015463Y-106521994D01*
X135094815Y-106618685D01*
X135191506Y-106698037D01*
X135301820Y-106757002D01*
X135421518Y-106793312D01*
X135546000Y-106805572D01*
X135985250Y-106802500D01*
X136144000Y-106643750D01*
X136144000Y-105707000D01*
X135069750Y-105707000D01*
X134911000Y-105865750D01*
X134907928Y-106167500D01*
X124178559Y-106167500D01*
X127791174Y-95049017D01*
X128085584Y-95049017D01*
X128187507Y-95249054D01*
X129328062Y-95619643D01*
X129698651Y-94479088D01*
X129596727Y-94279051D01*
X129061042Y-94101767D01*
X128938865Y-94074960D01*
X128813805Y-94072504D01*
X128690669Y-94094494D01*
X128574189Y-94140083D01*
X128468841Y-94207521D01*
X128378673Y-94294214D01*
X128307152Y-94396834D01*
X128257025Y-94511434D01*
X128085584Y-95049017D01*
X127791174Y-95049017D01*
X132446653Y-80720926D01*
X135529011Y-80720926D01*
X135529011Y-80959276D01*
X135575510Y-81193045D01*
X135666723Y-81413251D01*
X135799142Y-81611431D01*
X135967681Y-81779970D01*
X136165861Y-81912389D01*
X136386067Y-82003602D01*
X136619836Y-82050101D01*
X136858186Y-82050101D01*
X137091955Y-82003602D01*
X137312161Y-81912389D01*
X137510341Y-81779970D01*
X137678880Y-81611431D01*
X137811299Y-81413251D01*
X137902512Y-81193045D01*
X137949011Y-80959276D01*
X137949011Y-80720926D01*
X137902512Y-80487157D01*
X137833290Y-80320041D01*
X139321528Y-80320041D01*
X139321528Y-80651957D01*
X139386282Y-80977495D01*
X139513300Y-81284146D01*
X139697703Y-81560124D01*
X139932403Y-81794824D01*
X140208381Y-81979227D01*
X140515032Y-82106245D01*
X140840570Y-82170999D01*
X141172486Y-82170999D01*
X141498024Y-82106245D01*
X141804675Y-81979227D01*
X142080653Y-81794824D01*
X142315353Y-81560124D01*
X142499756Y-81284146D01*
X142626774Y-80977495D01*
X142691528Y-80651957D01*
X142691528Y-80320041D01*
X142626774Y-79994503D01*
X142499756Y-79687852D01*
X142315353Y-79411874D01*
X142080653Y-79177174D01*
X141804675Y-78992771D01*
X141498024Y-78865753D01*
X141172486Y-78800999D01*
X140840570Y-78800999D01*
X140515032Y-78865753D01*
X140208381Y-78992771D01*
X139932403Y-79177174D01*
X139697703Y-79411874D01*
X139513300Y-79687852D01*
X139386282Y-79994503D01*
X139321528Y-80320041D01*
X137833290Y-80320041D01*
X137811299Y-80266951D01*
X137678880Y-80068771D01*
X137510341Y-79900232D01*
X137312161Y-79767813D01*
X137091955Y-79676600D01*
X136858186Y-79630101D01*
X136619836Y-79630101D01*
X136386067Y-79676600D01*
X136165861Y-79767813D01*
X135967681Y-79900232D01*
X135799142Y-80068771D01*
X135666723Y-80266951D01*
X135575510Y-80487157D01*
X135529011Y-80720926D01*
X132446653Y-80720926D01*
X133746309Y-76721000D01*
X148828223Y-76721000D01*
X148767300Y-76770998D01*
%TA.AperFunction,Conductor*%
D19*
G36*
X148767300Y-76770998D02*
G01*
X148743502Y-76799996D01*
X148498708Y-77044790D01*
X148278560Y-77001000D01*
X147986040Y-77001000D01*
X147699142Y-77058068D01*
X147428889Y-77170010D01*
X147185668Y-77332525D01*
X146978825Y-77539368D01*
X146816310Y-77782589D01*
X146704368Y-78052842D01*
X146647300Y-78339740D01*
X146647300Y-78632260D01*
X146704368Y-78919158D01*
X146816310Y-79189411D01*
X146978825Y-79432632D01*
X147185668Y-79639475D01*
X147428889Y-79801990D01*
X147699142Y-79913932D01*
X147986040Y-79971000D01*
X148278560Y-79971000D01*
X148565458Y-79913932D01*
X148835711Y-79801990D01*
X149078932Y-79639475D01*
X149285775Y-79432632D01*
X149402300Y-79258240D01*
X149518825Y-79432632D01*
X149627301Y-79541108D01*
X149627300Y-82282500D01*
X149193827Y-82282500D01*
X149150850Y-82259528D01*
X148984254Y-82208992D01*
X148811000Y-82191928D01*
X147861000Y-82191928D01*
X147687746Y-82208992D01*
X147521150Y-82259528D01*
X147478173Y-82282500D01*
X142975239Y-82282500D01*
X142919497Y-82277010D01*
X142863755Y-82282500D01*
X142863746Y-82282500D01*
X142696999Y-82298923D01*
X142483051Y-82363824D01*
X142285875Y-82469216D01*
X142113049Y-82611051D01*
X142077509Y-82654357D01*
X132661864Y-92070003D01*
X132618550Y-92105550D01*
X132476715Y-92278376D01*
X132398559Y-92424598D01*
X132371323Y-92475553D01*
X132306422Y-92689501D01*
X132284508Y-92911999D01*
X132289999Y-92967750D01*
X132289999Y-94158641D01*
X132279077Y-94269535D01*
X132284568Y-94325287D01*
X132284569Y-96068724D01*
X130668538Y-96382599D01*
X130631695Y-96310290D01*
X129491140Y-95939701D01*
X129484960Y-95958722D01*
X129243391Y-95880233D01*
X129249572Y-95861211D01*
X128747670Y-95698133D01*
X129569630Y-95698133D01*
X130710185Y-96068722D01*
X130910222Y-95966798D01*
X131087506Y-95431113D01*
X131114313Y-95308936D01*
X131116769Y-95183876D01*
X131094779Y-95060740D01*
X131049190Y-94944260D01*
X130981752Y-94838912D01*
X130895059Y-94748744D01*
X130792439Y-94677223D01*
X130677839Y-94627096D01*
X130140256Y-94455655D01*
X129940219Y-94557578D01*
X129569630Y-95698133D01*
X128747670Y-95698133D01*
X128109017Y-95490622D01*
X127908980Y-95592546D01*
X127731696Y-96128231D01*
X127704889Y-96250408D01*
X127702433Y-96375468D01*
X127724423Y-96498604D01*
X127770012Y-96615084D01*
X127837450Y-96720432D01*
X127924143Y-96810600D01*
X127984965Y-96852990D01*
X127921287Y-96879366D01*
X127678066Y-97041881D01*
X127471223Y-97248724D01*
X127308708Y-97491945D01*
X127196766Y-97762198D01*
X127139698Y-98049096D01*
X127139698Y-98341616D01*
X127196766Y-98628514D01*
X127308708Y-98898767D01*
X127471223Y-99141988D01*
X127494804Y-99165569D01*
X127406637Y-99183107D01*
X127136384Y-99295049D01*
X126893163Y-99457564D01*
X126686320Y-99664407D01*
X126523805Y-99907628D01*
X126411863Y-100177881D01*
X126354795Y-100464779D01*
X126354795Y-100757299D01*
X126411863Y-101044197D01*
X126523805Y-101314450D01*
X126686320Y-101557671D01*
X126893163Y-101764514D01*
X127136384Y-101927029D01*
X127406637Y-102038971D01*
X127693535Y-102096039D01*
X127986055Y-102096039D01*
X128211023Y-102051290D01*
X128265517Y-102096012D01*
X128304229Y-102116704D01*
X128397547Y-102166584D01*
X128540808Y-102210041D01*
X128652461Y-102221038D01*
X128652470Y-102221038D01*
X128689793Y-102224714D01*
X128727116Y-102221038D01*
X135470505Y-102221038D01*
X135507827Y-102224714D01*
X135545149Y-102221038D01*
X135545160Y-102221038D01*
X135656813Y-102210041D01*
X135800074Y-102166584D01*
X135932103Y-102096012D01*
X136047828Y-102001039D01*
X136066545Y-101978232D01*
X136402658Y-102087442D01*
X136524836Y-102114248D01*
X136649896Y-102116704D01*
X136773032Y-102094715D01*
X136889512Y-102049125D01*
X136994860Y-101981688D01*
X137085027Y-101894993D01*
X137148317Y-101804183D01*
X137188536Y-102370000D01*
X137128827Y-102370000D01*
X137085850Y-102347028D01*
X136919254Y-102296492D01*
X136746000Y-102279428D01*
X135796000Y-102279428D01*
X135622746Y-102296492D01*
X135456150Y-102347028D01*
X135302614Y-102429095D01*
X135168038Y-102539538D01*
X135057595Y-102674114D01*
X134975528Y-102827650D01*
X134924992Y-102994246D01*
X134907928Y-103167500D01*
X134907928Y-103842500D01*
X134924992Y-104015754D01*
X134975528Y-104182350D01*
X135057595Y-104335886D01*
X135168038Y-104470462D01*
X135174594Y-104475842D01*
X135094815Y-104541315D01*
X135015463Y-104638006D01*
X134956498Y-104748320D01*
X134920188Y-104868018D01*
X134907928Y-104992500D01*
X134911000Y-105294250D01*
X135069750Y-105453000D01*
X136144000Y-105453000D01*
X136144000Y-105433000D01*
X136398000Y-105433000D01*
X136398000Y-105453000D01*
X136418000Y-105453000D01*
X136418000Y-105707000D01*
X136398000Y-105707000D01*
X136398000Y-106643750D01*
X136556750Y-106802500D01*
X136996000Y-106805572D01*
X137013548Y-106803844D01*
X137013548Y-107128260D01*
X137025808Y-107252742D01*
X137062118Y-107372440D01*
X137100799Y-107444806D01*
X135706119Y-110043260D01*
X135625360Y-110043260D01*
X135338462Y-110100328D01*
X135068209Y-110212270D01*
X134824988Y-110374785D01*
X134618145Y-110581628D01*
X134455630Y-110824849D01*
X134343688Y-111095102D01*
X134286620Y-111382000D01*
X134286620Y-111674520D01*
X134343688Y-111961418D01*
X134455630Y-112231671D01*
X134618145Y-112474892D01*
X134824988Y-112681735D01*
X135068209Y-112844250D01*
X135338462Y-112956192D01*
X135625360Y-113013260D01*
X135917880Y-113013260D01*
X136204778Y-112956192D01*
X136475031Y-112844250D01*
X136718252Y-112681735D01*
X136925095Y-112474892D01*
X137041620Y-112300500D01*
X137158145Y-112474892D01*
X137364988Y-112681735D01*
X137608209Y-112844250D01*
X137878462Y-112956192D01*
X138165360Y-113013260D01*
X138457880Y-113013260D01*
X138744778Y-112956192D01*
X139015031Y-112844250D01*
X139258252Y-112681735D01*
X139390107Y-112549880D01*
X139412118Y-112622440D01*
X139471083Y-112732754D01*
X139550435Y-112829445D01*
X139647126Y-112908797D01*
X139757440Y-112967762D01*
X139877138Y-113004072D01*
X140001620Y-113016332D01*
X140565870Y-113013260D01*
X140724620Y-112854510D01*
X140724620Y-111655260D01*
X140978620Y-111655260D01*
X140978620Y-112854510D01*
X141137370Y-113013260D01*
X141701620Y-113016332D01*
X141826102Y-113004072D01*
X141945800Y-112967762D01*
X142056114Y-112908797D01*
X142152805Y-112829445D01*
X142232157Y-112732754D01*
X142291122Y-112622440D01*
X142327432Y-112502742D01*
X142339692Y-112378260D01*
X142336620Y-111814010D01*
X142177870Y-111655260D01*
X140978620Y-111655260D01*
X140724620Y-111655260D01*
X140704620Y-111655260D01*
X140704620Y-111401260D01*
X140724620Y-111401260D01*
X140724620Y-110202010D01*
X140978620Y-110202010D01*
X140978620Y-111401260D01*
X142177870Y-111401260D01*
X142336620Y-111242510D01*
X142339692Y-110678260D01*
X142327432Y-110553778D01*
X142291122Y-110434080D01*
X142232157Y-110323766D01*
X142152805Y-110227075D01*
X142056114Y-110147723D01*
X141945800Y-110088758D01*
X141826102Y-110052448D01*
X141701620Y-110040188D01*
X141137370Y-110043260D01*
X140978620Y-110202010D01*
X140724620Y-110202010D01*
X140565870Y-110043260D01*
X140201654Y-110041277D01*
X140880628Y-109362303D01*
X151372392Y-109362303D01*
X151372392Y-109694219D01*
X151437146Y-110019757D01*
X151564164Y-110326408D01*
X151748567Y-110602386D01*
X151983267Y-110837086D01*
X152259245Y-111021489D01*
X152565896Y-111148507D01*
X152891434Y-111213261D01*
X153223350Y-111213261D01*
X153548888Y-111148507D01*
X153855539Y-111021489D01*
X154131517Y-110837086D01*
X154366217Y-110602386D01*
X154550620Y-110326408D01*
X154677638Y-110019757D01*
X154742392Y-109694219D01*
X154742392Y-109362303D01*
X154681263Y-109054984D01*
X156114909Y-109054984D01*
X156114909Y-109293334D01*
X156161408Y-109527103D01*
X156252621Y-109747309D01*
X156385040Y-109945489D01*
X156553579Y-110114028D01*
X156751759Y-110246447D01*
X156971965Y-110337660D01*
X157205734Y-110384159D01*
X157444084Y-110384159D01*
X157677853Y-110337660D01*
X157898059Y-110246447D01*
X158096239Y-110114028D01*
X158264778Y-109945489D01*
X158397197Y-109747309D01*
X158488410Y-109527103D01*
X158534909Y-109293334D01*
X158534909Y-109054984D01*
X158488410Y-108821215D01*
X158397197Y-108601009D01*
X158264778Y-108402829D01*
X158096239Y-108234290D01*
X157898059Y-108101871D01*
X157677853Y-108010658D01*
X157444084Y-107964159D01*
X157205734Y-107964159D01*
X156971965Y-108010658D01*
X156751759Y-108101871D01*
X156553579Y-108234290D01*
X156385040Y-108402829D01*
X156252621Y-108601009D01*
X156161408Y-108821215D01*
X156114909Y-109054984D01*
X154681263Y-109054984D01*
X154677638Y-109036765D01*
X154550620Y-108730114D01*
X154366217Y-108454136D01*
X154131517Y-108219436D01*
X153855539Y-108035033D01*
X153548888Y-107908015D01*
X153223350Y-107843261D01*
X152891434Y-107843261D01*
X152565896Y-107908015D01*
X152259245Y-108035033D01*
X151983267Y-108219436D01*
X151748567Y-108454136D01*
X151564164Y-108730114D01*
X151437146Y-109036765D01*
X151372392Y-109362303D01*
X140880628Y-109362303D01*
X141279671Y-108963261D01*
X144555870Y-108963261D01*
X144611621Y-108968752D01*
X144667372Y-108963261D01*
X144667373Y-108963261D01*
X144834120Y-108946838D01*
X145048068Y-108881937D01*
X145245244Y-108776545D01*
X145418070Y-108634710D01*
X145453617Y-108591396D01*
X145562874Y-108482139D01*
X145606188Y-108446592D01*
X145748023Y-108273766D01*
X145853415Y-108076590D01*
X145918316Y-107862642D01*
X145934739Y-107695895D01*
X145934739Y-107695894D01*
X145940230Y-107640144D01*
X145934739Y-107584392D01*
X145934739Y-105763261D01*
X149999045Y-105763261D01*
X150054796Y-105768752D01*
X150110547Y-105763261D01*
X150110548Y-105763261D01*
X150277295Y-105746838D01*
X150491243Y-105681937D01*
X150688419Y-105576545D01*
X150861245Y-105434710D01*
X150896792Y-105391396D01*
X156240420Y-100047769D01*
X156283728Y-100012227D01*
X156425563Y-99839401D01*
X156530955Y-99642225D01*
X156595856Y-99428277D01*
X156612279Y-99261530D01*
X156617770Y-99205779D01*
X156612279Y-99150027D01*
X156612279Y-97872810D01*
X156758693Y-97918740D01*
X156804682Y-97895307D01*
X157200299Y-97895307D01*
X157302222Y-98095343D01*
X157588254Y-98191511D01*
X157710432Y-98218318D01*
X157835492Y-98220774D01*
X157958628Y-98198784D01*
X158075108Y-98153195D01*
X158180455Y-98085757D01*
X158270623Y-97999064D01*
X158342145Y-97896444D01*
X158392272Y-97781844D01*
X158525086Y-97363143D01*
X158423162Y-97163106D01*
X157532260Y-96873634D01*
X157200299Y-97895307D01*
X156804682Y-97895307D01*
X156958730Y-97816816D01*
X157290692Y-96795144D01*
X157271671Y-96788964D01*
X157350160Y-96547395D01*
X157369182Y-96553576D01*
X157701143Y-95531903D01*
X157599220Y-95331867D01*
X157313188Y-95235699D01*
X157191010Y-95208892D01*
X157065950Y-95206436D01*
X157004568Y-95217398D01*
X157044278Y-95126615D01*
X157193701Y-94666738D01*
X159878294Y-91982146D01*
X159921602Y-91946604D01*
X160063437Y-91773778D01*
X160168829Y-91576602D01*
X160174988Y-91556298D01*
X160251517Y-91517305D01*
X160591204Y-90471856D01*
X160572183Y-90465676D01*
X160650672Y-90224107D01*
X160669694Y-90230288D01*
X160675874Y-90211267D01*
X160917443Y-90289756D01*
X160911262Y-90308778D01*
X160930283Y-90314958D01*
X160851794Y-90556527D01*
X160832772Y-90550346D01*
X160493085Y-91595795D01*
X160595009Y-91795832D01*
X160797823Y-91864960D01*
X160920001Y-91891768D01*
X161045061Y-91894223D01*
X161168197Y-91872233D01*
X161284677Y-91826644D01*
X161390025Y-91759207D01*
X161480192Y-91672513D01*
X161551714Y-91569894D01*
X161601841Y-91455293D01*
X161742381Y-91012816D01*
X161640458Y-90812781D01*
X161748247Y-90847804D01*
X161748246Y-95608350D01*
X161742755Y-95664102D01*
X161748246Y-95719853D01*
X161764669Y-95886600D01*
X161829570Y-96100548D01*
X161934962Y-96297725D01*
X162076797Y-96470551D01*
X162120110Y-96506097D01*
X162384415Y-96770403D01*
X162384415Y-96796531D01*
X162441483Y-97083429D01*
X162553425Y-97353682D01*
X162684737Y-97550204D01*
X160397204Y-95162788D01*
X160551184Y-94688885D01*
X160577990Y-94566707D01*
X160580446Y-94441647D01*
X160558457Y-94318511D01*
X160512867Y-94202031D01*
X160445430Y-94096683D01*
X160358736Y-94006516D01*
X160256116Y-93934995D01*
X160141516Y-93884867D01*
X159190459Y-93575850D01*
X159068281Y-93549044D01*
X158943221Y-93546588D01*
X158820085Y-93568577D01*
X158703605Y-93614167D01*
X158598257Y-93681604D01*
X158508090Y-93768299D01*
X158436569Y-93870918D01*
X158386441Y-93985518D01*
X157922916Y-95412103D01*
X157896110Y-95534281D01*
X157893654Y-95659341D01*
X157905413Y-95725189D01*
X157610750Y-96632066D01*
X158501653Y-96921538D01*
X158701689Y-96819614D01*
X158840347Y-96402812D01*
X158844793Y-96382548D01*
X159283641Y-96525138D01*
X159405819Y-96551944D01*
X159530879Y-96554400D01*
X159611657Y-96539975D01*
X161649762Y-98667074D01*
X161599512Y-98919694D01*
X161599512Y-99212214D01*
X161656580Y-99499112D01*
X161768522Y-99769365D01*
X161931037Y-100012586D01*
X162137880Y-100219429D01*
X162381101Y-100381944D01*
X162651354Y-100493886D01*
X162938252Y-100550954D01*
X163230772Y-100550954D01*
X163517670Y-100493886D01*
X163787923Y-100381944D01*
X164031144Y-100219429D01*
X164237987Y-100012586D01*
X164400502Y-99769365D01*
X164512444Y-99499112D01*
X164569512Y-99212214D01*
X164569512Y-98919694D01*
X164512444Y-98632796D01*
X164400502Y-98362543D01*
X164237987Y-98119322D01*
X164214406Y-98095741D01*
X164302573Y-98078203D01*
X164572826Y-97966261D01*
X164816047Y-97803746D01*
X165022890Y-97596903D01*
X165185405Y-97353682D01*
X165297347Y-97083429D01*
X165354415Y-96796531D01*
X165354415Y-96504011D01*
X165297347Y-96217113D01*
X165185405Y-95946860D01*
X165181088Y-95940399D01*
X165250114Y-95941755D01*
X165373250Y-95919765D01*
X165489730Y-95874176D01*
X165595078Y-95806738D01*
X165685246Y-95720045D01*
X165756767Y-95617425D01*
X165806894Y-95502825D01*
X165978335Y-94965242D01*
X165876412Y-94765205D01*
X164735857Y-94394616D01*
X164729677Y-94413637D01*
X164488108Y-94335148D01*
X164494289Y-94316126D01*
X164475268Y-94309946D01*
X164526246Y-94153048D01*
X164814347Y-94153048D01*
X165954902Y-94523637D01*
X166154939Y-94421713D01*
X166332223Y-93886028D01*
X166359030Y-93763851D01*
X166361486Y-93638791D01*
X166339496Y-93515655D01*
X166293907Y-93399175D01*
X166226469Y-93293827D01*
X166139776Y-93203659D01*
X166037156Y-93132138D01*
X165922556Y-93082011D01*
X165384973Y-92910570D01*
X165184936Y-93012493D01*
X164814347Y-94153048D01*
X164526246Y-94153048D01*
X164553757Y-94068377D01*
X164572779Y-94074558D01*
X164943368Y-92934003D01*
X164841444Y-92733966D01*
X164305759Y-92556682D01*
X164183582Y-92529875D01*
X164058522Y-92527419D01*
X164018246Y-92534612D01*
X164018246Y-90322042D01*
X164023737Y-90266290D01*
X164001823Y-90043791D01*
X163936922Y-89829843D01*
X163831530Y-89632667D01*
X163725235Y-89503146D01*
X163725233Y-89503144D01*
X163689695Y-89459841D01*
X163646392Y-89424303D01*
X162011674Y-87789587D01*
X161976128Y-87746274D01*
X161803302Y-87604439D01*
X161606126Y-87499047D01*
X161392178Y-87434146D01*
X161225431Y-87417723D01*
X161225430Y-87417723D01*
X161169679Y-87412232D01*
X161113928Y-87417723D01*
X160244699Y-87417723D01*
X160233730Y-87306352D01*
X160168829Y-87092404D01*
X160063437Y-86895228D01*
X159921602Y-86722402D01*
X159878294Y-86686860D01*
X157050372Y-83858939D01*
X157050372Y-82886000D01*
X157038112Y-82761518D01*
X157001802Y-82641820D01*
X156942837Y-82531506D01*
X156863485Y-82434815D01*
X156766794Y-82355463D01*
X156656480Y-82296498D01*
X156536782Y-82260188D01*
X156412300Y-82247928D01*
X154912300Y-82247928D01*
X154787818Y-82260188D01*
X154668120Y-82296498D01*
X154557806Y-82355463D01*
X154461115Y-82434815D01*
X154381763Y-82531506D01*
X154369065Y-82555263D01*
X152607301Y-80793500D01*
X152607301Y-79972738D01*
X152926550Y-79971000D01*
X153085300Y-79812250D01*
X153085300Y-78613000D01*
X153339300Y-78613000D01*
X153339300Y-79812250D01*
X153498050Y-79971000D01*
X154062300Y-79974072D01*
X154186782Y-79961812D01*
X154306480Y-79925502D01*
X154416794Y-79866537D01*
X154513485Y-79787185D01*
X154592837Y-79690494D01*
X154651802Y-79580180D01*
X154688112Y-79460482D01*
X154699312Y-79346753D01*
X166673198Y-79346753D01*
X166673198Y-79678669D01*
X166737952Y-80004207D01*
X166864970Y-80310858D01*
X167049373Y-80586836D01*
X167284073Y-80821536D01*
X167560051Y-81005939D01*
X167866702Y-81132957D01*
X168192240Y-81197711D01*
X168524156Y-81197711D01*
X168849694Y-81132957D01*
X169156345Y-81005939D01*
X169432323Y-80821536D01*
X169667023Y-80586836D01*
X169851426Y-80310858D01*
X169978444Y-80004207D01*
X170043198Y-79678669D01*
X170043198Y-79346753D01*
X169978444Y-79021215D01*
X169851426Y-78714564D01*
X169667023Y-78438586D01*
X169432323Y-78203886D01*
X169156345Y-78019483D01*
X168849694Y-77892465D01*
X168524156Y-77827711D01*
X168192240Y-77827711D01*
X167866702Y-77892465D01*
X167560051Y-78019483D01*
X167284073Y-78203886D01*
X167049373Y-78438586D01*
X166864970Y-78714564D01*
X166737952Y-79021215D01*
X166673198Y-79346753D01*
X154699312Y-79346753D01*
X154700372Y-79336000D01*
X154697300Y-78771750D01*
X154538550Y-78613000D01*
X153339300Y-78613000D01*
X153085300Y-78613000D01*
X153065300Y-78613000D01*
X153065300Y-78359000D01*
X153085300Y-78359000D01*
X153085300Y-77159750D01*
X153339300Y-77159750D01*
X153339300Y-78359000D01*
X154538550Y-78359000D01*
X154697300Y-78200250D01*
X154700372Y-77636000D01*
X154688112Y-77511518D01*
X154651802Y-77391820D01*
X154592837Y-77281506D01*
X154513485Y-77184815D01*
X154416794Y-77105463D01*
X154306480Y-77046498D01*
X154186782Y-77010188D01*
X154062300Y-76997928D01*
X153498050Y-77001000D01*
X153339300Y-77159750D01*
X153085300Y-77159750D01*
X152926550Y-77001000D01*
X152362300Y-76997928D01*
X152237818Y-77010188D01*
X152118120Y-77046498D01*
X152071514Y-77071410D01*
X151800104Y-76800001D01*
X151776302Y-76770998D01*
X151715379Y-76721000D01*
X172200658Y-76721000D01*
X160317611Y-113293260D01*
X121863260Y-113293260D01*
X122824265Y-110335591D01*
X124020721Y-110335591D01*
X124020721Y-110667507D01*
X124085475Y-110993045D01*
X124212493Y-111299696D01*
X124396896Y-111575674D01*
X124631596Y-111810374D01*
X124907574Y-111994777D01*
X125214225Y-112121795D01*
X125539763Y-112186549D01*
X125871679Y-112186549D01*
X126197217Y-112121795D01*
X126503868Y-111994777D01*
X126779846Y-111810374D01*
X127014546Y-111575674D01*
X127198949Y-111299696D01*
X127325967Y-110993045D01*
X127390721Y-110667507D01*
X127390721Y-110335591D01*
X127325967Y-110010053D01*
X127198949Y-109703402D01*
X127014546Y-109427424D01*
X126779846Y-109192724D01*
X126503868Y-109008321D01*
X126197217Y-108881303D01*
X125871679Y-108816549D01*
X125539763Y-108816549D01*
X125214225Y-108881303D01*
X124907574Y-109008321D01*
X124631596Y-109192724D01*
X124396896Y-109427424D01*
X124212493Y-109703402D01*
X124085475Y-110010053D01*
X124020721Y-110335591D01*
X122824265Y-110335591D01*
X124178559Y-106167500D01*
X134907928Y-106167500D01*
X134920188Y-106291982D01*
X134956498Y-106411680D01*
X135015463Y-106521994D01*
X135094815Y-106618685D01*
X135191506Y-106698037D01*
X135301820Y-106757002D01*
X135421518Y-106793312D01*
X135546000Y-106805572D01*
X135985250Y-106802500D01*
X136144000Y-106643750D01*
X136144000Y-105707000D01*
X135069750Y-105707000D01*
X134911000Y-105865750D01*
X134907928Y-106167500D01*
X124178559Y-106167500D01*
X127791174Y-95049017D01*
X128085584Y-95049017D01*
X128187507Y-95249054D01*
X129328062Y-95619643D01*
X129698651Y-94479088D01*
X129596727Y-94279051D01*
X129061042Y-94101767D01*
X128938865Y-94074960D01*
X128813805Y-94072504D01*
X128690669Y-94094494D01*
X128574189Y-94140083D01*
X128468841Y-94207521D01*
X128378673Y-94294214D01*
X128307152Y-94396834D01*
X128257025Y-94511434D01*
X128085584Y-95049017D01*
X127791174Y-95049017D01*
X132446653Y-80720926D01*
X135529011Y-80720926D01*
X135529011Y-80959276D01*
X135575510Y-81193045D01*
X135666723Y-81413251D01*
X135799142Y-81611431D01*
X135967681Y-81779970D01*
X136165861Y-81912389D01*
X136386067Y-82003602D01*
X136619836Y-82050101D01*
X136858186Y-82050101D01*
X137091955Y-82003602D01*
X137312161Y-81912389D01*
X137510341Y-81779970D01*
X137678880Y-81611431D01*
X137811299Y-81413251D01*
X137902512Y-81193045D01*
X137949011Y-80959276D01*
X137949011Y-80720926D01*
X137902512Y-80487157D01*
X137833290Y-80320041D01*
X139321528Y-80320041D01*
X139321528Y-80651957D01*
X139386282Y-80977495D01*
X139513300Y-81284146D01*
X139697703Y-81560124D01*
X139932403Y-81794824D01*
X140208381Y-81979227D01*
X140515032Y-82106245D01*
X140840570Y-82170999D01*
X141172486Y-82170999D01*
X141498024Y-82106245D01*
X141804675Y-81979227D01*
X142080653Y-81794824D01*
X142315353Y-81560124D01*
X142499756Y-81284146D01*
X142626774Y-80977495D01*
X142691528Y-80651957D01*
X142691528Y-80320041D01*
X142626774Y-79994503D01*
X142499756Y-79687852D01*
X142315353Y-79411874D01*
X142080653Y-79177174D01*
X141804675Y-78992771D01*
X141498024Y-78865753D01*
X141172486Y-78800999D01*
X140840570Y-78800999D01*
X140515032Y-78865753D01*
X140208381Y-78992771D01*
X139932403Y-79177174D01*
X139697703Y-79411874D01*
X139513300Y-79687852D01*
X139386282Y-79994503D01*
X139321528Y-80320041D01*
X137833290Y-80320041D01*
X137811299Y-80266951D01*
X137678880Y-80068771D01*
X137510341Y-79900232D01*
X137312161Y-79767813D01*
X137091955Y-79676600D01*
X136858186Y-79630101D01*
X136619836Y-79630101D01*
X136386067Y-79676600D01*
X136165861Y-79767813D01*
X135967681Y-79900232D01*
X135799142Y-80068771D01*
X135666723Y-80266951D01*
X135575510Y-80487157D01*
X135529011Y-80720926D01*
X132446653Y-80720926D01*
X133746309Y-76721000D01*
X148828223Y-76721000D01*
X148767300Y-76770998D01*
G37*
%TD.AperFunction*%
D18*
X140782752Y-105391407D02*
X140818290Y-105434710D01*
X140861593Y-105470248D01*
X140861595Y-105470250D01*
X140991116Y-105576545D01*
X141188292Y-105681937D01*
X141402240Y-105746838D01*
X141624739Y-105768752D01*
X141680491Y-105763261D01*
X142029704Y-105763261D01*
X142021083Y-105773766D01*
X141962118Y-105884080D01*
X141925808Y-106003778D01*
X141913548Y-106128260D01*
X141916620Y-106342510D01*
X142075370Y-106501260D01*
X143174620Y-106501260D01*
X143174620Y-106481260D01*
X143428620Y-106481260D01*
X143428620Y-106501260D01*
X143448620Y-106501260D01*
X143448620Y-106693261D01*
X140865290Y-106693261D01*
X140809538Y-106687770D01*
X140587039Y-106709684D01*
X140373091Y-106774585D01*
X140175915Y-106879977D01*
X140046394Y-106986272D01*
X140046392Y-106986274D01*
X140003089Y-107021812D01*
X139967551Y-107065115D01*
X139776347Y-107256319D01*
X139777432Y-107252742D01*
X139789692Y-107128260D01*
X139789692Y-106128260D01*
X139777432Y-106003778D01*
X139741122Y-105884080D01*
X139682157Y-105773766D01*
X139602805Y-105677075D01*
X139506114Y-105597723D01*
X139395800Y-105538758D01*
X139276102Y-105502448D01*
X139151620Y-105490188D01*
X137651620Y-105490188D01*
X137631000Y-105492219D01*
X137631000Y-105452998D01*
X137472252Y-105452998D01*
X137631000Y-105294250D01*
X137634072Y-104992500D01*
X137621812Y-104868018D01*
X137585502Y-104748320D01*
X137527603Y-104640000D01*
X138269129Y-104640000D01*
X138324880Y-104645491D01*
X138380631Y-104640000D01*
X138380632Y-104640000D01*
X138547379Y-104623577D01*
X138736089Y-104566332D01*
X139151620Y-104566332D01*
X139182812Y-104563260D01*
X139954606Y-104563260D01*
X140782752Y-105391407D01*
%TA.AperFunction,Conductor*%
D19*
G36*
X140782752Y-105391407D02*
G01*
X140818290Y-105434710D01*
X140861593Y-105470248D01*
X140861595Y-105470250D01*
X140991116Y-105576545D01*
X141188292Y-105681937D01*
X141402240Y-105746838D01*
X141624739Y-105768752D01*
X141680491Y-105763261D01*
X142029704Y-105763261D01*
X142021083Y-105773766D01*
X141962118Y-105884080D01*
X141925808Y-106003778D01*
X141913548Y-106128260D01*
X141916620Y-106342510D01*
X142075370Y-106501260D01*
X143174620Y-106501260D01*
X143174620Y-106481260D01*
X143428620Y-106481260D01*
X143428620Y-106501260D01*
X143448620Y-106501260D01*
X143448620Y-106693261D01*
X140865290Y-106693261D01*
X140809538Y-106687770D01*
X140587039Y-106709684D01*
X140373091Y-106774585D01*
X140175915Y-106879977D01*
X140046394Y-106986272D01*
X140046392Y-106986274D01*
X140003089Y-107021812D01*
X139967551Y-107065115D01*
X139776347Y-107256319D01*
X139777432Y-107252742D01*
X139789692Y-107128260D01*
X139789692Y-106128260D01*
X139777432Y-106003778D01*
X139741122Y-105884080D01*
X139682157Y-105773766D01*
X139602805Y-105677075D01*
X139506114Y-105597723D01*
X139395800Y-105538758D01*
X139276102Y-105502448D01*
X139151620Y-105490188D01*
X137651620Y-105490188D01*
X137631000Y-105492219D01*
X137631000Y-105452998D01*
X137472252Y-105452998D01*
X137631000Y-105294250D01*
X137634072Y-104992500D01*
X137621812Y-104868018D01*
X137585502Y-104748320D01*
X137527603Y-104640000D01*
X138269129Y-104640000D01*
X138324880Y-104645491D01*
X138380631Y-104640000D01*
X138380632Y-104640000D01*
X138547379Y-104623577D01*
X138736089Y-104566332D01*
X139151620Y-104566332D01*
X139182812Y-104563260D01*
X139954606Y-104563260D01*
X140782752Y-105391407D01*
G37*
%TD.AperFunction*%
D18*
X147077871Y-99730058D02*
X147160958Y-99823559D01*
X147260690Y-99899055D01*
X147373234Y-99953642D01*
X147494265Y-99985225D01*
X147619132Y-99992589D01*
X147743036Y-99975451D01*
X147861217Y-99934470D01*
X147969131Y-99871220D01*
X148001546Y-99847669D01*
X149048690Y-100889281D01*
X149052467Y-100985423D01*
X149069605Y-101109330D01*
X149092487Y-101204639D01*
X149133469Y-101322819D01*
X149174505Y-101411832D01*
X149237750Y-101519738D01*
X149252188Y-101539610D01*
X149264612Y-101560808D01*
X149558505Y-101965317D01*
X149574803Y-101983654D01*
X149589257Y-102003548D01*
X149672347Y-102097053D01*
X149744322Y-102163586D01*
X149844052Y-102239080D01*
X149927625Y-102290294D01*
X150040170Y-102344882D01*
X150132130Y-102378808D01*
X150253163Y-102410391D01*
X150349972Y-102425724D01*
X150474837Y-102433088D01*
X150572780Y-102429240D01*
X150660870Y-102417056D01*
X149584665Y-103493261D01*
X144855491Y-103493261D01*
X144799739Y-103487770D01*
X144743988Y-103493261D01*
X144689692Y-103493261D01*
X144689692Y-102928260D01*
X144677432Y-102803778D01*
X144641122Y-102684080D01*
X144582157Y-102573766D01*
X144502805Y-102477075D01*
X144406114Y-102397723D01*
X144295800Y-102338758D01*
X144176102Y-102302448D01*
X144061620Y-102291173D01*
X144061620Y-100325141D01*
X146059025Y-98327737D01*
X147077871Y-99730058D01*
%TA.AperFunction,Conductor*%
D19*
G36*
X147077871Y-99730058D02*
G01*
X147160958Y-99823559D01*
X147260690Y-99899055D01*
X147373234Y-99953642D01*
X147494265Y-99985225D01*
X147619132Y-99992589D01*
X147743036Y-99975451D01*
X147861217Y-99934470D01*
X147969131Y-99871220D01*
X148001546Y-99847669D01*
X149048690Y-100889281D01*
X149052467Y-100985423D01*
X149069605Y-101109330D01*
X149092487Y-101204639D01*
X149133469Y-101322819D01*
X149174505Y-101411832D01*
X149237750Y-101519738D01*
X149252188Y-101539610D01*
X149264612Y-101560808D01*
X149558505Y-101965317D01*
X149574803Y-101983654D01*
X149589257Y-102003548D01*
X149672347Y-102097053D01*
X149744322Y-102163586D01*
X149844052Y-102239080D01*
X149927625Y-102290294D01*
X150040170Y-102344882D01*
X150132130Y-102378808D01*
X150253163Y-102410391D01*
X150349972Y-102425724D01*
X150474837Y-102433088D01*
X150572780Y-102429240D01*
X150660870Y-102417056D01*
X149584665Y-103493261D01*
X144855491Y-103493261D01*
X144799739Y-103487770D01*
X144743988Y-103493261D01*
X144689692Y-103493261D01*
X144689692Y-102928260D01*
X144677432Y-102803778D01*
X144641122Y-102684080D01*
X144582157Y-102573766D01*
X144502805Y-102477075D01*
X144406114Y-102397723D01*
X144295800Y-102338758D01*
X144176102Y-102302448D01*
X144061620Y-102291173D01*
X144061620Y-100325141D01*
X146059025Y-98327737D01*
X147077871Y-99730058D01*
G37*
%TD.AperFunction*%
D18*
X142271903Y-90862415D02*
X142312874Y-90882287D01*
X142928573Y-92561884D01*
X142751865Y-92690269D01*
X142658363Y-92773356D01*
X142582868Y-92873088D01*
X142528280Y-92985632D01*
X142496698Y-93106664D01*
X142489334Y-93231531D01*
X142506472Y-93355435D01*
X142547453Y-93473615D01*
X142610703Y-93581529D01*
X143756884Y-95159112D01*
X143839971Y-95252613D01*
X143939703Y-95328109D01*
X144052247Y-95382696D01*
X144173278Y-95414279D01*
X144298145Y-95421643D01*
X144422049Y-95404505D01*
X144540230Y-95363524D01*
X144648144Y-95300274D01*
X145369611Y-94776099D01*
X145432347Y-94792429D01*
X145500063Y-94893774D01*
X145644226Y-95037937D01*
X145813744Y-95151205D01*
X146002102Y-95229226D01*
X146202061Y-95269000D01*
X146405939Y-95269000D01*
X146549981Y-95240349D01*
X146549981Y-95687177D01*
X142790618Y-99446541D01*
X142761620Y-99470339D01*
X142737822Y-99499337D01*
X142737821Y-99499338D01*
X142666646Y-99586064D01*
X142596074Y-99718094D01*
X142565994Y-99817260D01*
X142552618Y-99861354D01*
X142545417Y-99934470D01*
X142537944Y-100010340D01*
X142541621Y-100047672D01*
X142541620Y-102291173D01*
X142427138Y-102302448D01*
X142307440Y-102338758D01*
X142197126Y-102397723D01*
X142100435Y-102477075D01*
X142021083Y-102573766D01*
X141962118Y-102684080D01*
X141925808Y-102803778D01*
X141913548Y-102928260D01*
X141913548Y-103311938D01*
X141266733Y-102665124D01*
X141231187Y-102621811D01*
X141058361Y-102479976D01*
X140861185Y-102374584D01*
X140647237Y-102309683D01*
X140480490Y-102293260D01*
X140480489Y-102293260D01*
X140424738Y-102287769D01*
X140368987Y-102293260D01*
X139458807Y-102293260D01*
X139019517Y-96113057D01*
X139422212Y-95004251D01*
X139504215Y-94925406D01*
X139603759Y-94782581D01*
X139673527Y-94623079D01*
X139967093Y-93719575D01*
X140004402Y-93549527D01*
X140007820Y-93375468D01*
X139977215Y-93204086D01*
X139913764Y-93041969D01*
X139819903Y-92895345D01*
X139699242Y-92769850D01*
X139556416Y-92670306D01*
X139396914Y-92600539D01*
X139226383Y-92545130D01*
X142202261Y-90819738D01*
X142271903Y-90862415D01*
%TA.AperFunction,Conductor*%
D19*
G36*
X142271903Y-90862415D02*
G01*
X142312874Y-90882287D01*
X142928573Y-92561884D01*
X142751865Y-92690269D01*
X142658363Y-92773356D01*
X142582868Y-92873088D01*
X142528280Y-92985632D01*
X142496698Y-93106664D01*
X142489334Y-93231531D01*
X142506472Y-93355435D01*
X142547453Y-93473615D01*
X142610703Y-93581529D01*
X143756884Y-95159112D01*
X143839971Y-95252613D01*
X143939703Y-95328109D01*
X144052247Y-95382696D01*
X144173278Y-95414279D01*
X144298145Y-95421643D01*
X144422049Y-95404505D01*
X144540230Y-95363524D01*
X144648144Y-95300274D01*
X145369611Y-94776099D01*
X145432347Y-94792429D01*
X145500063Y-94893774D01*
X145644226Y-95037937D01*
X145813744Y-95151205D01*
X146002102Y-95229226D01*
X146202061Y-95269000D01*
X146405939Y-95269000D01*
X146549981Y-95240349D01*
X146549981Y-95687177D01*
X142790618Y-99446541D01*
X142761620Y-99470339D01*
X142737822Y-99499337D01*
X142737821Y-99499338D01*
X142666646Y-99586064D01*
X142596074Y-99718094D01*
X142565994Y-99817260D01*
X142552618Y-99861354D01*
X142545417Y-99934470D01*
X142537944Y-100010340D01*
X142541621Y-100047672D01*
X142541620Y-102291173D01*
X142427138Y-102302448D01*
X142307440Y-102338758D01*
X142197126Y-102397723D01*
X142100435Y-102477075D01*
X142021083Y-102573766D01*
X141962118Y-102684080D01*
X141925808Y-102803778D01*
X141913548Y-102928260D01*
X141913548Y-103311938D01*
X141266733Y-102665124D01*
X141231187Y-102621811D01*
X141058361Y-102479976D01*
X140861185Y-102374584D01*
X140647237Y-102309683D01*
X140480490Y-102293260D01*
X140480489Y-102293260D01*
X140424738Y-102287769D01*
X140368987Y-102293260D01*
X139458807Y-102293260D01*
X139019517Y-96113057D01*
X139422212Y-95004251D01*
X139504215Y-94925406D01*
X139603759Y-94782581D01*
X139673527Y-94623079D01*
X139967093Y-93719575D01*
X140004402Y-93549527D01*
X140007820Y-93375468D01*
X139977215Y-93204086D01*
X139913764Y-93041969D01*
X139819903Y-92895345D01*
X139699242Y-92769850D01*
X139556416Y-92670306D01*
X139396914Y-92600539D01*
X139226383Y-92545130D01*
X142202261Y-90819738D01*
X142271903Y-90862415D01*
G37*
%TD.AperFunction*%
D18*
X136974167Y-99354125D02*
X136309476Y-99138154D01*
X136187298Y-99111348D01*
X136062238Y-99108892D01*
X135939102Y-99130881D01*
X135822622Y-99176471D01*
X135717274Y-99243908D01*
X135627107Y-99330603D01*
X135555586Y-99433222D01*
X135505458Y-99547822D01*
X135130756Y-100701038D01*
X134157993Y-100701038D01*
X134163294Y-100688919D01*
X134303834Y-100246442D01*
X134201910Y-100046405D01*
X133394225Y-99783972D01*
X133388045Y-99802993D01*
X133146476Y-99724504D01*
X133152657Y-99705482D01*
X132650755Y-99542404D01*
X133472715Y-99542404D01*
X134280400Y-99804837D01*
X134480437Y-99702913D01*
X134626820Y-99262334D01*
X134653627Y-99140156D01*
X134656082Y-99015096D01*
X134634092Y-98891960D01*
X134588503Y-98775481D01*
X134521066Y-98670133D01*
X134434372Y-98579965D01*
X134331753Y-98508444D01*
X134217152Y-98458317D01*
X134012439Y-98395031D01*
X133812402Y-98496955D01*
X133472715Y-99542404D01*
X132650755Y-99542404D01*
X132344972Y-99443049D01*
X132144935Y-99544973D01*
X131998552Y-99985552D01*
X131971745Y-100107730D01*
X131969290Y-100232790D01*
X131991280Y-100355926D01*
X132036869Y-100472405D01*
X132104306Y-100577753D01*
X132191000Y-100667921D01*
X132238517Y-100701038D01*
X129324795Y-100701038D01*
X129324795Y-100464779D01*
X129267727Y-100177881D01*
X129155785Y-99907628D01*
X128993270Y-99664407D01*
X128969689Y-99640826D01*
X129057856Y-99623288D01*
X129328109Y-99511346D01*
X129571330Y-99348831D01*
X129778173Y-99141988D01*
X129883866Y-98983807D01*
X130965313Y-98637377D01*
X132608110Y-98318303D01*
X132583727Y-98341747D01*
X132512205Y-98444366D01*
X132462078Y-98558967D01*
X132321538Y-99001444D01*
X132423462Y-99201481D01*
X133231147Y-99463914D01*
X133570834Y-98418465D01*
X133468910Y-98218428D01*
X133343105Y-98175548D01*
X133895202Y-98068317D01*
X133953498Y-98062575D01*
X134028164Y-98039925D01*
X136833003Y-97368148D01*
X136974167Y-99354125D01*
%TA.AperFunction,Conductor*%
D19*
G36*
X136974167Y-99354125D02*
G01*
X136309476Y-99138154D01*
X136187298Y-99111348D01*
X136062238Y-99108892D01*
X135939102Y-99130881D01*
X135822622Y-99176471D01*
X135717274Y-99243908D01*
X135627107Y-99330603D01*
X135555586Y-99433222D01*
X135505458Y-99547822D01*
X135130756Y-100701038D01*
X134157993Y-100701038D01*
X134163294Y-100688919D01*
X134303834Y-100246442D01*
X134201910Y-100046405D01*
X133394225Y-99783972D01*
X133388045Y-99802993D01*
X133146476Y-99724504D01*
X133152657Y-99705482D01*
X132650755Y-99542404D01*
X133472715Y-99542404D01*
X134280400Y-99804837D01*
X134480437Y-99702913D01*
X134626820Y-99262334D01*
X134653627Y-99140156D01*
X134656082Y-99015096D01*
X134634092Y-98891960D01*
X134588503Y-98775481D01*
X134521066Y-98670133D01*
X134434372Y-98579965D01*
X134331753Y-98508444D01*
X134217152Y-98458317D01*
X134012439Y-98395031D01*
X133812402Y-98496955D01*
X133472715Y-99542404D01*
X132650755Y-99542404D01*
X132344972Y-99443049D01*
X132144935Y-99544973D01*
X131998552Y-99985552D01*
X131971745Y-100107730D01*
X131969290Y-100232790D01*
X131991280Y-100355926D01*
X132036869Y-100472405D01*
X132104306Y-100577753D01*
X132191000Y-100667921D01*
X132238517Y-100701038D01*
X129324795Y-100701038D01*
X129324795Y-100464779D01*
X129267727Y-100177881D01*
X129155785Y-99907628D01*
X128993270Y-99664407D01*
X128969689Y-99640826D01*
X129057856Y-99623288D01*
X129328109Y-99511346D01*
X129571330Y-99348831D01*
X129778173Y-99141988D01*
X129883866Y-98983807D01*
X130965313Y-98637377D01*
X132608110Y-98318303D01*
X132583727Y-98341747D01*
X132512205Y-98444366D01*
X132462078Y-98558967D01*
X132321538Y-99001444D01*
X132423462Y-99201481D01*
X133231147Y-99463914D01*
X133570834Y-98418465D01*
X133468910Y-98218428D01*
X133343105Y-98175548D01*
X133895202Y-98068317D01*
X133953498Y-98062575D01*
X134028164Y-98039925D01*
X136833003Y-97368148D01*
X136974167Y-99354125D01*
G37*
%TD.AperFunction*%
D18*
X157754443Y-90876106D02*
X157770539Y-90879637D01*
X156078277Y-92571900D01*
X156024900Y-92560189D01*
X155899840Y-92557733D01*
X155776704Y-92579722D01*
X155660224Y-92625312D01*
X155554876Y-92692749D01*
X155464709Y-92779444D01*
X155393188Y-92882063D01*
X155343060Y-92996663D01*
X155082438Y-93798776D01*
X154701105Y-94869098D01*
X154627785Y-94939594D01*
X154528241Y-95082419D01*
X154458473Y-95241921D01*
X154166811Y-96139565D01*
X154166811Y-94017304D01*
X157417492Y-90766624D01*
X157754443Y-90876106D01*
%TA.AperFunction,Conductor*%
D19*
G36*
X157754443Y-90876106D02*
G01*
X157770539Y-90879637D01*
X156078277Y-92571900D01*
X156024900Y-92560189D01*
X155899840Y-92557733D01*
X155776704Y-92579722D01*
X155660224Y-92625312D01*
X155554876Y-92692749D01*
X155464709Y-92779444D01*
X155393188Y-92882063D01*
X155343060Y-92996663D01*
X155082438Y-93798776D01*
X154701105Y-94869098D01*
X154627785Y-94939594D01*
X154528241Y-95082419D01*
X154458473Y-95241921D01*
X154166811Y-96139565D01*
X154166811Y-94017304D01*
X157417492Y-90766624D01*
X157754443Y-90876106D01*
G37*
%TD.AperFunction*%
D18*
X154381763Y-85731506D02*
X154322798Y-85841820D01*
X154286488Y-85961518D01*
X154274228Y-86086000D01*
X154277300Y-86300250D01*
X154436050Y-86459000D01*
X155535300Y-86459000D01*
X155535300Y-86439000D01*
X155789300Y-86439000D01*
X155789300Y-86459000D01*
X155809300Y-86459000D01*
X155809300Y-86713000D01*
X155789300Y-86713000D01*
X155789300Y-87562250D01*
X155948050Y-87721000D01*
X156412300Y-87724072D01*
X156536782Y-87711812D01*
X156656480Y-87675502D01*
X156766794Y-87616537D01*
X156863485Y-87537185D01*
X156942837Y-87440494D01*
X157001802Y-87330180D01*
X157038112Y-87210482D01*
X157050372Y-87086000D01*
X157050128Y-87068957D01*
X157980153Y-87998983D01*
X157980153Y-88030432D01*
X157661261Y-87926818D01*
X157539083Y-87900012D01*
X157414023Y-87897556D01*
X157290887Y-87919545D01*
X157174407Y-87965135D01*
X157069059Y-88032572D01*
X156978892Y-88119267D01*
X156907371Y-88221886D01*
X156857243Y-88336486D01*
X156452570Y-89581942D01*
X152895814Y-93138699D01*
X152866810Y-93162502D01*
X152811682Y-93229677D01*
X152771837Y-93278227D01*
X152701266Y-93410256D01*
X152701265Y-93410257D01*
X152657808Y-93553518D01*
X152646811Y-93665171D01*
X152646811Y-93665181D01*
X152643135Y-93702503D01*
X152646811Y-93739826D01*
X152646811Y-94846002D01*
X151899116Y-93816888D01*
X151816029Y-93723387D01*
X151716297Y-93647891D01*
X151603753Y-93593304D01*
X151482722Y-93561721D01*
X151357855Y-93554357D01*
X151233951Y-93571495D01*
X151115770Y-93612476D01*
X151007856Y-93675726D01*
X150197400Y-94264555D01*
X149556647Y-94135670D01*
X149520937Y-94082226D01*
X149376774Y-93938063D01*
X149207256Y-93824795D01*
X149018898Y-93746774D01*
X148818939Y-93707000D01*
X148615061Y-93707000D01*
X148556293Y-93718690D01*
X148556293Y-92434662D01*
X148585315Y-92424598D01*
X148693229Y-92361348D01*
X149583148Y-91714785D01*
X149676650Y-91631698D01*
X149752145Y-91531966D01*
X149806733Y-91419422D01*
X149838315Y-91298390D01*
X149845679Y-91173523D01*
X149828541Y-91049619D01*
X149787560Y-90931439D01*
X149724310Y-90823525D01*
X149492899Y-90505015D01*
X151273303Y-88724612D01*
X151302301Y-88700814D01*
X151397274Y-88585089D01*
X151467846Y-88453060D01*
X151511303Y-88309799D01*
X151522300Y-88198146D01*
X151522300Y-88198137D01*
X151525976Y-88160814D01*
X151522300Y-88123491D01*
X151522300Y-87723087D01*
X151636782Y-87711812D01*
X151756480Y-87675502D01*
X151866794Y-87616537D01*
X151963485Y-87537185D01*
X152042837Y-87440494D01*
X152101802Y-87330180D01*
X152138112Y-87210482D01*
X152150372Y-87086000D01*
X154274228Y-87086000D01*
X154286488Y-87210482D01*
X154322798Y-87330180D01*
X154381763Y-87440494D01*
X154461115Y-87537185D01*
X154557806Y-87616537D01*
X154668120Y-87675502D01*
X154787818Y-87711812D01*
X154912300Y-87724072D01*
X155376550Y-87721000D01*
X155535300Y-87562250D01*
X155535300Y-86713000D01*
X154436050Y-86713000D01*
X154277300Y-86871750D01*
X154274228Y-87086000D01*
X152150372Y-87086000D01*
X152150372Y-86086000D01*
X152138112Y-85961518D01*
X152101802Y-85841820D01*
X152042837Y-85731506D01*
X152034216Y-85721001D01*
X154390384Y-85721001D01*
X154381763Y-85731506D01*
%TA.AperFunction,Conductor*%
D19*
G36*
X154381763Y-85731506D02*
G01*
X154322798Y-85841820D01*
X154286488Y-85961518D01*
X154274228Y-86086000D01*
X154277300Y-86300250D01*
X154436050Y-86459000D01*
X155535300Y-86459000D01*
X155535300Y-86439000D01*
X155789300Y-86439000D01*
X155789300Y-86459000D01*
X155809300Y-86459000D01*
X155809300Y-86713000D01*
X155789300Y-86713000D01*
X155789300Y-87562250D01*
X155948050Y-87721000D01*
X156412300Y-87724072D01*
X156536782Y-87711812D01*
X156656480Y-87675502D01*
X156766794Y-87616537D01*
X156863485Y-87537185D01*
X156942837Y-87440494D01*
X157001802Y-87330180D01*
X157038112Y-87210482D01*
X157050372Y-87086000D01*
X157050128Y-87068957D01*
X157980153Y-87998983D01*
X157980153Y-88030432D01*
X157661261Y-87926818D01*
X157539083Y-87900012D01*
X157414023Y-87897556D01*
X157290887Y-87919545D01*
X157174407Y-87965135D01*
X157069059Y-88032572D01*
X156978892Y-88119267D01*
X156907371Y-88221886D01*
X156857243Y-88336486D01*
X156452570Y-89581942D01*
X152895814Y-93138699D01*
X152866810Y-93162502D01*
X152811682Y-93229677D01*
X152771837Y-93278227D01*
X152701266Y-93410256D01*
X152701265Y-93410257D01*
X152657808Y-93553518D01*
X152646811Y-93665171D01*
X152646811Y-93665181D01*
X152643135Y-93702503D01*
X152646811Y-93739826D01*
X152646811Y-94846002D01*
X151899116Y-93816888D01*
X151816029Y-93723387D01*
X151716297Y-93647891D01*
X151603753Y-93593304D01*
X151482722Y-93561721D01*
X151357855Y-93554357D01*
X151233951Y-93571495D01*
X151115770Y-93612476D01*
X151007856Y-93675726D01*
X150197400Y-94264555D01*
X149556647Y-94135670D01*
X149520937Y-94082226D01*
X149376774Y-93938063D01*
X149207256Y-93824795D01*
X149018898Y-93746774D01*
X148818939Y-93707000D01*
X148615061Y-93707000D01*
X148556293Y-93718690D01*
X148556293Y-92434662D01*
X148585315Y-92424598D01*
X148693229Y-92361348D01*
X149583148Y-91714785D01*
X149676650Y-91631698D01*
X149752145Y-91531966D01*
X149806733Y-91419422D01*
X149838315Y-91298390D01*
X149845679Y-91173523D01*
X149828541Y-91049619D01*
X149787560Y-90931439D01*
X149724310Y-90823525D01*
X149492899Y-90505015D01*
X151273303Y-88724612D01*
X151302301Y-88700814D01*
X151397274Y-88585089D01*
X151467846Y-88453060D01*
X151511303Y-88309799D01*
X151522300Y-88198146D01*
X151522300Y-88198137D01*
X151525976Y-88160814D01*
X151522300Y-88123491D01*
X151522300Y-87723087D01*
X151636782Y-87711812D01*
X151756480Y-87675502D01*
X151866794Y-87616537D01*
X151963485Y-87537185D01*
X152042837Y-87440494D01*
X152101802Y-87330180D01*
X152138112Y-87210482D01*
X152150372Y-87086000D01*
X154274228Y-87086000D01*
X154286488Y-87210482D01*
X154322798Y-87330180D01*
X154381763Y-87440494D01*
X154461115Y-87537185D01*
X154557806Y-87616537D01*
X154668120Y-87675502D01*
X154787818Y-87711812D01*
X154912300Y-87724072D01*
X155376550Y-87721000D01*
X155535300Y-87562250D01*
X155535300Y-86713000D01*
X154436050Y-86713000D01*
X154277300Y-86871750D01*
X154274228Y-87086000D01*
X152150372Y-87086000D01*
X152150372Y-86086000D01*
X152138112Y-85961518D01*
X152101802Y-85841820D01*
X152042837Y-85731506D01*
X152034216Y-85721001D01*
X154390384Y-85721001D01*
X154381763Y-85731506D01*
G37*
%TD.AperFunction*%
D18*
X147021498Y-84660820D02*
X146985188Y-84780518D01*
X146972928Y-84905000D01*
X146976000Y-85206750D01*
X147134750Y-85365500D01*
X148209000Y-85365500D01*
X148209000Y-85345500D01*
X148463000Y-85345500D01*
X148463000Y-85365500D01*
X149537250Y-85365500D01*
X149696000Y-85206750D01*
X149699072Y-84905000D01*
X149686812Y-84780518D01*
X149650502Y-84660820D01*
X149592603Y-84552500D01*
X150323668Y-84552500D01*
X151120314Y-85349147D01*
X151155852Y-85392450D01*
X151199155Y-85427988D01*
X151199157Y-85427990D01*
X151223452Y-85447928D01*
X150012300Y-85447928D01*
X149887818Y-85460188D01*
X149768120Y-85496498D01*
X149657806Y-85555463D01*
X149561115Y-85634815D01*
X149557261Y-85639511D01*
X149537250Y-85619500D01*
X148463000Y-85619500D01*
X148463000Y-86556250D01*
X148621750Y-86715000D01*
X149061000Y-86718072D01*
X149185482Y-86705812D01*
X149305180Y-86669502D01*
X149374228Y-86632594D01*
X149374228Y-87086000D01*
X149386488Y-87210482D01*
X149422798Y-87330180D01*
X149481763Y-87440494D01*
X149561115Y-87537185D01*
X149657806Y-87616537D01*
X149768120Y-87675502D01*
X149887818Y-87711812D01*
X150002301Y-87723087D01*
X150002301Y-87846010D01*
X148588330Y-89259982D01*
X148578129Y-89245942D01*
X148495042Y-89152441D01*
X148395310Y-89076945D01*
X148282766Y-89022358D01*
X148161735Y-88990775D01*
X148036868Y-88983411D01*
X147912964Y-89000549D01*
X147794783Y-89041530D01*
X147686869Y-89104780D01*
X147491702Y-89246577D01*
X146045930Y-88146338D01*
X146042673Y-88122791D01*
X146019791Y-88027482D01*
X145978809Y-87909302D01*
X145937773Y-87820289D01*
X145874528Y-87712383D01*
X145860090Y-87692511D01*
X145847666Y-87671313D01*
X145553773Y-87266804D01*
X145537475Y-87248467D01*
X145523021Y-87228573D01*
X145439931Y-87135068D01*
X145367956Y-87068535D01*
X145268226Y-86993041D01*
X145184653Y-86941827D01*
X145072108Y-86887239D01*
X144980148Y-86853313D01*
X144859115Y-86821730D01*
X144762306Y-86806397D01*
X144637441Y-86799033D01*
X144539498Y-86802881D01*
X144415590Y-86820019D01*
X144320281Y-86842901D01*
X144202098Y-86883885D01*
X144113086Y-86924921D01*
X144005189Y-86988159D01*
X143985311Y-87002600D01*
X143964111Y-87015026D01*
X143519152Y-87338308D01*
X143425651Y-87421395D01*
X143425323Y-87421828D01*
X143424813Y-87422005D01*
X143316899Y-87485255D01*
X142507882Y-88073040D01*
X142414380Y-88156127D01*
X142414054Y-88156558D01*
X142413541Y-88156736D01*
X142305626Y-88219986D01*
X141860667Y-88543268D01*
X141842291Y-88559596D01*
X141822431Y-88574025D01*
X141728929Y-88657114D01*
X141662396Y-88729090D01*
X141586905Y-88828816D01*
X141535691Y-88912389D01*
X141481104Y-89024932D01*
X141447178Y-89116891D01*
X141415594Y-89237927D01*
X141400261Y-89334737D01*
X141392897Y-89459602D01*
X141395678Y-89530384D01*
X137941540Y-91533070D01*
X137895068Y-91556405D01*
X137847430Y-91593506D01*
X137798423Y-91628760D01*
X137788473Y-91639422D01*
X137776956Y-91648392D01*
X137737462Y-91694086D01*
X137696284Y-91738213D01*
X137688603Y-91750616D01*
X137679061Y-91761656D01*
X137649239Y-91814179D01*
X137617463Y-91865489D01*
X137599240Y-91914176D01*
X137559080Y-92004537D01*
X137373307Y-91946260D01*
X137173270Y-92048184D01*
X136841308Y-93069856D01*
X136860329Y-93076036D01*
X136781840Y-93317605D01*
X136762818Y-93311424D01*
X136756638Y-93330445D01*
X136515069Y-93251956D01*
X136521250Y-93232934D01*
X135630347Y-92943462D01*
X135430311Y-93045386D01*
X135291653Y-93462188D01*
X135264846Y-93584366D01*
X135263632Y-93646173D01*
X134780278Y-93489122D01*
X134658100Y-93462316D01*
X134559999Y-93460389D01*
X134559999Y-93382130D01*
X135684330Y-92257799D01*
X135606914Y-92501857D01*
X135708838Y-92701894D01*
X136599740Y-92991366D01*
X136931701Y-91969693D01*
X136829778Y-91769657D01*
X136543746Y-91673489D01*
X136421568Y-91646682D01*
X136297876Y-91644253D01*
X141862129Y-86080000D01*
X146972928Y-86080000D01*
X146985188Y-86204482D01*
X147021498Y-86324180D01*
X147080463Y-86434494D01*
X147159815Y-86531185D01*
X147256506Y-86610537D01*
X147366820Y-86669502D01*
X147486518Y-86705812D01*
X147611000Y-86718072D01*
X148050250Y-86715000D01*
X148209000Y-86556250D01*
X148209000Y-85619500D01*
X147134750Y-85619500D01*
X146976000Y-85778250D01*
X146972928Y-86080000D01*
X141862129Y-86080000D01*
X143389630Y-84552500D01*
X147079397Y-84552500D01*
X147021498Y-84660820D01*
%TA.AperFunction,Conductor*%
D19*
G36*
X147021498Y-84660820D02*
G01*
X146985188Y-84780518D01*
X146972928Y-84905000D01*
X146976000Y-85206750D01*
X147134750Y-85365500D01*
X148209000Y-85365500D01*
X148209000Y-85345500D01*
X148463000Y-85345500D01*
X148463000Y-85365500D01*
X149537250Y-85365500D01*
X149696000Y-85206750D01*
X149699072Y-84905000D01*
X149686812Y-84780518D01*
X149650502Y-84660820D01*
X149592603Y-84552500D01*
X150323668Y-84552500D01*
X151120314Y-85349147D01*
X151155852Y-85392450D01*
X151199155Y-85427988D01*
X151199157Y-85427990D01*
X151223452Y-85447928D01*
X150012300Y-85447928D01*
X149887818Y-85460188D01*
X149768120Y-85496498D01*
X149657806Y-85555463D01*
X149561115Y-85634815D01*
X149557261Y-85639511D01*
X149537250Y-85619500D01*
X148463000Y-85619500D01*
X148463000Y-86556250D01*
X148621750Y-86715000D01*
X149061000Y-86718072D01*
X149185482Y-86705812D01*
X149305180Y-86669502D01*
X149374228Y-86632594D01*
X149374228Y-87086000D01*
X149386488Y-87210482D01*
X149422798Y-87330180D01*
X149481763Y-87440494D01*
X149561115Y-87537185D01*
X149657806Y-87616537D01*
X149768120Y-87675502D01*
X149887818Y-87711812D01*
X150002301Y-87723087D01*
X150002301Y-87846010D01*
X148588330Y-89259982D01*
X148578129Y-89245942D01*
X148495042Y-89152441D01*
X148395310Y-89076945D01*
X148282766Y-89022358D01*
X148161735Y-88990775D01*
X148036868Y-88983411D01*
X147912964Y-89000549D01*
X147794783Y-89041530D01*
X147686869Y-89104780D01*
X147491702Y-89246577D01*
X146045930Y-88146338D01*
X146042673Y-88122791D01*
X146019791Y-88027482D01*
X145978809Y-87909302D01*
X145937773Y-87820289D01*
X145874528Y-87712383D01*
X145860090Y-87692511D01*
X145847666Y-87671313D01*
X145553773Y-87266804D01*
X145537475Y-87248467D01*
X145523021Y-87228573D01*
X145439931Y-87135068D01*
X145367956Y-87068535D01*
X145268226Y-86993041D01*
X145184653Y-86941827D01*
X145072108Y-86887239D01*
X144980148Y-86853313D01*
X144859115Y-86821730D01*
X144762306Y-86806397D01*
X144637441Y-86799033D01*
X144539498Y-86802881D01*
X144415590Y-86820019D01*
X144320281Y-86842901D01*
X144202098Y-86883885D01*
X144113086Y-86924921D01*
X144005189Y-86988159D01*
X143985311Y-87002600D01*
X143964111Y-87015026D01*
X143519152Y-87338308D01*
X143425651Y-87421395D01*
X143425323Y-87421828D01*
X143424813Y-87422005D01*
X143316899Y-87485255D01*
X142507882Y-88073040D01*
X142414380Y-88156127D01*
X142414054Y-88156558D01*
X142413541Y-88156736D01*
X142305626Y-88219986D01*
X141860667Y-88543268D01*
X141842291Y-88559596D01*
X141822431Y-88574025D01*
X141728929Y-88657114D01*
X141662396Y-88729090D01*
X141586905Y-88828816D01*
X141535691Y-88912389D01*
X141481104Y-89024932D01*
X141447178Y-89116891D01*
X141415594Y-89237927D01*
X141400261Y-89334737D01*
X141392897Y-89459602D01*
X141395678Y-89530384D01*
X137941540Y-91533070D01*
X137895068Y-91556405D01*
X137847430Y-91593506D01*
X137798423Y-91628760D01*
X137788473Y-91639422D01*
X137776956Y-91648392D01*
X137737462Y-91694086D01*
X137696284Y-91738213D01*
X137688603Y-91750616D01*
X137679061Y-91761656D01*
X137649239Y-91814179D01*
X137617463Y-91865489D01*
X137599240Y-91914176D01*
X137559080Y-92004537D01*
X137373307Y-91946260D01*
X137173270Y-92048184D01*
X136841308Y-93069856D01*
X136860329Y-93076036D01*
X136781840Y-93317605D01*
X136762818Y-93311424D01*
X136756638Y-93330445D01*
X136515069Y-93251956D01*
X136521250Y-93232934D01*
X135630347Y-92943462D01*
X135430311Y-93045386D01*
X135291653Y-93462188D01*
X135264846Y-93584366D01*
X135263632Y-93646173D01*
X134780278Y-93489122D01*
X134658100Y-93462316D01*
X134559999Y-93460389D01*
X134559999Y-93382130D01*
X135684330Y-92257799D01*
X135606914Y-92501857D01*
X135708838Y-92701894D01*
X136599740Y-92991366D01*
X136931701Y-91969693D01*
X136829778Y-91769657D01*
X136543746Y-91673489D01*
X136421568Y-91646682D01*
X136297876Y-91644253D01*
X141862129Y-86080000D01*
X146972928Y-86080000D01*
X146985188Y-86204482D01*
X147021498Y-86324180D01*
X147080463Y-86434494D01*
X147159815Y-86531185D01*
X147256506Y-86610537D01*
X147366820Y-86669502D01*
X147486518Y-86705812D01*
X147611000Y-86718072D01*
X148050250Y-86715000D01*
X148209000Y-86556250D01*
X148209000Y-85619500D01*
X147134750Y-85619500D01*
X146976000Y-85778250D01*
X146972928Y-86080000D01*
X141862129Y-86080000D01*
X143389630Y-84552500D01*
X147079397Y-84552500D01*
X147021498Y-84660820D01*
G37*
%TD.AperFunction*%
%TD*%
M02*
