M48
; DRILL file {KiCad 5.1.8} date Fri Jan  1 10:03:02 2021
; FORMAT={-:-/ absolute / inch / decimal}
; #@! TF.CreationDate,2021-01-01T10:03:02-05:00
; #@! TF.GenerationSoftware,Kicad,Pcbnew,5.1.8
; #@! TF.FileFunction,Plated,1,2,PTH
FMAT,2
INCH
T1C0.0157
T2C0.0394
%
G90
G05
T1
X5.2672Y-4.0777
X5.27Y-3.87
X5.365Y-4.04
X5.47Y-3.75
X5.62Y-3.9
X5.82Y-3.69
X5.82Y-3.75
X6.06Y-3.56
X6.115Y-3.475
X6.2491Y-3.8991
T2
X5.832Y-3.09
X5.932Y-3.09
X6.032Y-3.09
X5.0331Y-3.9611
X5.064Y-3.866
X5.0949Y-3.7709
X5.3453Y-4.3909
X5.4453Y-4.3909
X5.5453Y-4.3909
X6.4207Y-3.9002
X6.4516Y-3.8051
X6.4825Y-3.71
T0
M30
