%TF.GenerationSoftware,KiCad,Pcbnew,5.1.9*%
%TF.CreationDate,2021-01-25T14:02:53-05:00*%
%TF.ProjectId,penroserombus_thick_40mm,70656e72-6f73-4657-926f-6d6275735f74,rev?*%
%TF.SameCoordinates,Original*%
%TF.FileFunction,Copper,L2,Bot*%
%TF.FilePolarity,Positive*%
%FSLAX46Y46*%
G04 Gerber Fmt 4.6, Leading zero omitted, Abs format (unit mm)*
G04 Created by KiCad (PCBNEW 5.1.9) date 2021-01-25 14:02:53*
%MOMM*%
%LPD*%
G01*
G04 APERTURE LIST*
%TA.AperFunction,ComponentPad*%
%ADD10C,0.100000*%
%TD*%
%TA.AperFunction,ComponentPad*%
%ADD11R,1.700000X1.700000*%
%TD*%
%TA.AperFunction,ComponentPad*%
%ADD12O,1.700000X1.700000*%
%TD*%
%TA.AperFunction,ViaPad*%
%ADD13C,0.800000*%
%TD*%
%TA.AperFunction,Conductor*%
%ADD14C,0.250000*%
%TD*%
%TA.AperFunction,Conductor*%
%ADD15C,0.254000*%
%TD*%
%TA.AperFunction,Conductor*%
%ADD16C,0.100000*%
%TD*%
G04 APERTURE END LIST*
%TO.P,J1,3*%
%TO.N,Net-(D1-Pad2)*%
%TA.AperFunction,ComponentPad*%
G36*
G01*
X161883431Y-100009654D02*
X161883431Y-100009654D01*
G75*
G02*
X162954493Y-99463920I808398J-262664D01*
G01*
X162954493Y-99463920D01*
G75*
G02*
X163500227Y-100534982I-262664J-808398D01*
G01*
X163500227Y-100534982D01*
G75*
G02*
X162429165Y-101080716I-808398J262664D01*
G01*
X162429165Y-101080716D01*
G75*
G02*
X161883431Y-100009654I262664J808398D01*
G01*
G37*
%TD.AperFunction*%
%TO.P,J1,2*%
%TO.N,VCC*%
%TA.AperFunction,ComponentPad*%
G36*
G01*
X162668334Y-97593971D02*
X162668334Y-97593971D01*
G75*
G02*
X163739396Y-97048237I808398J-262664D01*
G01*
X163739396Y-97048237D01*
G75*
G02*
X164285130Y-98119299I-262664J-808398D01*
G01*
X164285130Y-98119299D01*
G75*
G02*
X163214068Y-98665033I-808398J262664D01*
G01*
X163214068Y-98665033D01*
G75*
G02*
X162668334Y-97593971I262664J808398D01*
G01*
G37*
%TD.AperFunction*%
%TA.AperFunction,ComponentPad*%
D10*
%TO.P,J1,1*%
%TO.N,GND*%
G36*
X163190573Y-95986685D02*
G01*
X163715901Y-94369889D01*
X165332697Y-94895217D01*
X164807369Y-96512013D01*
X163190573Y-95986685D01*
G37*
%TD.AperFunction*%
%TD*%
D11*
%TO.P,J2,1*%
%TO.N,GND*%
X140851620Y-111528260D03*
D12*
%TO.P,J2,2*%
%TO.N,VCC*%
X138311620Y-111528260D03*
%TO.P,J2,3*%
%TO.N,Net-(D2-Pad2)*%
X135771620Y-111528260D03*
%TD*%
D11*
%TO.P,J3,1*%
%TO.N,GND*%
X151943635Y-78486676D03*
D12*
%TO.P,J3,2*%
%TO.N,VCC*%
X149403635Y-78486676D03*
%TO.P,J3,3*%
%TO.N,Net-(D3-Pad4)*%
X146863635Y-78486676D03*
%TD*%
%TO.P,J4,3*%
%TO.N,Net-(D4-Pad4)*%
%TA.AperFunction,ComponentPad*%
G36*
G01*
X127031397Y-100348375D02*
X127031397Y-100348375D01*
G75*
G02*
X128102459Y-99802641I808398J-262664D01*
G01*
X128102459Y-99802641D01*
G75*
G02*
X128648193Y-100873703I-262664J-808398D01*
G01*
X128648193Y-100873703D01*
G75*
G02*
X127577131Y-101419437I-808398J262664D01*
G01*
X127577131Y-101419437D01*
G75*
G02*
X127031397Y-100348375I262664J808398D01*
G01*
G37*
%TD.AperFunction*%
%TO.P,J4,2*%
%TO.N,VCC*%
%TA.AperFunction,ComponentPad*%
G36*
G01*
X127816300Y-97932692D02*
X127816300Y-97932692D01*
G75*
G02*
X128887362Y-97386958I808398J-262664D01*
G01*
X128887362Y-97386958D01*
G75*
G02*
X129433096Y-98458020I-262664J-808398D01*
G01*
X129433096Y-98458020D01*
G75*
G02*
X128362034Y-99003754I-808398J262664D01*
G01*
X128362034Y-99003754D01*
G75*
G02*
X127816300Y-97932692I262664J808398D01*
G01*
G37*
%TD.AperFunction*%
%TA.AperFunction,ComponentPad*%
D10*
%TO.P,J4,1*%
%TO.N,GND*%
G36*
X128338539Y-96325406D02*
G01*
X128863867Y-94708610D01*
X130480663Y-95233938D01*
X129955335Y-96850734D01*
X128338539Y-96325406D01*
G37*
%TD.AperFunction*%
%TD*%
D13*
%TO.N,GND*%
X141224000Y-105410000D03*
X138176000Y-94996000D03*
X135382000Y-98552000D03*
X144907000Y-106934000D03*
X129159000Y-107315000D03*
X159512000Y-94996000D03*
X156845000Y-98171000D03*
X147066000Y-84963000D03*
X150876000Y-86360000D03*
X148005800Y-101600000D03*
%TO.N,Net-(D4-Pad2)*%
X148717000Y-94742000D03*
X146304000Y-94234000D03*
%TD*%
D14*
%TO.N,Net-(D4-Pad2)*%
X146304000Y-94234000D02*
X148717000Y-94742000D01*
%TD*%
D15*
%TO.N,GND*%
X160317611Y-113293260D02*
X121863260Y-113293260D01*
X122841865Y-110281421D01*
X123470721Y-110281421D01*
X123470721Y-110721677D01*
X123556611Y-111153474D01*
X123725090Y-111560218D01*
X123969683Y-111926278D01*
X124280992Y-112237587D01*
X124647052Y-112482180D01*
X125053796Y-112650659D01*
X125485593Y-112736549D01*
X125925849Y-112736549D01*
X126357646Y-112650659D01*
X126764390Y-112482180D01*
X127130450Y-112237587D01*
X127441759Y-111926278D01*
X127686352Y-111560218D01*
X127760172Y-111382000D01*
X134286620Y-111382000D01*
X134286620Y-111674520D01*
X134343688Y-111961418D01*
X134455630Y-112231671D01*
X134618145Y-112474892D01*
X134824988Y-112681735D01*
X135068209Y-112844250D01*
X135338462Y-112956192D01*
X135625360Y-113013260D01*
X135917880Y-113013260D01*
X136204778Y-112956192D01*
X136475031Y-112844250D01*
X136718252Y-112681735D01*
X136925095Y-112474892D01*
X137041620Y-112300500D01*
X137158145Y-112474892D01*
X137364988Y-112681735D01*
X137608209Y-112844250D01*
X137878462Y-112956192D01*
X138165360Y-113013260D01*
X138457880Y-113013260D01*
X138744778Y-112956192D01*
X139015031Y-112844250D01*
X139258252Y-112681735D01*
X139390107Y-112549880D01*
X139412118Y-112622440D01*
X139471083Y-112732754D01*
X139550435Y-112829445D01*
X139647126Y-112908797D01*
X139757440Y-112967762D01*
X139877138Y-113004072D01*
X140001620Y-113016332D01*
X140565870Y-113013260D01*
X140724620Y-112854510D01*
X140724620Y-111655260D01*
X140978620Y-111655260D01*
X140978620Y-112854510D01*
X141137370Y-113013260D01*
X141701620Y-113016332D01*
X141826102Y-113004072D01*
X141945800Y-112967762D01*
X142056114Y-112908797D01*
X142152805Y-112829445D01*
X142232157Y-112732754D01*
X142291122Y-112622440D01*
X142327432Y-112502742D01*
X142339692Y-112378260D01*
X142336620Y-111814010D01*
X142177870Y-111655260D01*
X140978620Y-111655260D01*
X140724620Y-111655260D01*
X140704620Y-111655260D01*
X140704620Y-111401260D01*
X140724620Y-111401260D01*
X140724620Y-110202010D01*
X140978620Y-110202010D01*
X140978620Y-111401260D01*
X142177870Y-111401260D01*
X142336620Y-111242510D01*
X142339692Y-110678260D01*
X142327432Y-110553778D01*
X142291122Y-110434080D01*
X142232157Y-110323766D01*
X142152805Y-110227075D01*
X142056114Y-110147723D01*
X141945800Y-110088758D01*
X141826102Y-110052448D01*
X141701620Y-110040188D01*
X141137370Y-110043260D01*
X140978620Y-110202010D01*
X140724620Y-110202010D01*
X140565870Y-110043260D01*
X140001620Y-110040188D01*
X139877138Y-110052448D01*
X139757440Y-110088758D01*
X139647126Y-110147723D01*
X139550435Y-110227075D01*
X139471083Y-110323766D01*
X139412118Y-110434080D01*
X139390107Y-110506640D01*
X139258252Y-110374785D01*
X139015031Y-110212270D01*
X138744778Y-110100328D01*
X138457880Y-110043260D01*
X138165360Y-110043260D01*
X137878462Y-110100328D01*
X137608209Y-110212270D01*
X137364988Y-110374785D01*
X137158145Y-110581628D01*
X137041620Y-110756020D01*
X136925095Y-110581628D01*
X136718252Y-110374785D01*
X136475031Y-110212270D01*
X136204778Y-110100328D01*
X135917880Y-110043260D01*
X135625360Y-110043260D01*
X135338462Y-110100328D01*
X135068209Y-110212270D01*
X134824988Y-110374785D01*
X134618145Y-110581628D01*
X134455630Y-110824849D01*
X134343688Y-111095102D01*
X134286620Y-111382000D01*
X127760172Y-111382000D01*
X127854831Y-111153474D01*
X127940721Y-110721677D01*
X127940721Y-110281421D01*
X127854831Y-109849624D01*
X127686352Y-109442880D01*
X127596318Y-109308133D01*
X150822392Y-109308133D01*
X150822392Y-109748389D01*
X150908282Y-110180186D01*
X151076761Y-110586930D01*
X151321354Y-110952990D01*
X151632663Y-111264299D01*
X151998723Y-111508892D01*
X152405467Y-111677371D01*
X152837264Y-111763261D01*
X153277520Y-111763261D01*
X153709317Y-111677371D01*
X154116061Y-111508892D01*
X154482121Y-111264299D01*
X154793430Y-110952990D01*
X155038023Y-110586930D01*
X155206502Y-110180186D01*
X155292392Y-109748389D01*
X155292392Y-109308133D01*
X155242038Y-109054984D01*
X156114909Y-109054984D01*
X156114909Y-109293334D01*
X156161408Y-109527103D01*
X156252621Y-109747309D01*
X156385040Y-109945489D01*
X156553579Y-110114028D01*
X156751759Y-110246447D01*
X156971965Y-110337660D01*
X157205734Y-110384159D01*
X157444084Y-110384159D01*
X157677853Y-110337660D01*
X157898059Y-110246447D01*
X158096239Y-110114028D01*
X158264778Y-109945489D01*
X158397197Y-109747309D01*
X158488410Y-109527103D01*
X158534909Y-109293334D01*
X158534909Y-109054984D01*
X158488410Y-108821215D01*
X158397197Y-108601009D01*
X158264778Y-108402829D01*
X158096239Y-108234290D01*
X157898059Y-108101871D01*
X157677853Y-108010658D01*
X157444084Y-107964159D01*
X157205734Y-107964159D01*
X156971965Y-108010658D01*
X156751759Y-108101871D01*
X156553579Y-108234290D01*
X156385040Y-108402829D01*
X156252621Y-108601009D01*
X156161408Y-108821215D01*
X156114909Y-109054984D01*
X155242038Y-109054984D01*
X155206502Y-108876336D01*
X155038023Y-108469592D01*
X154793430Y-108103532D01*
X154482121Y-107792223D01*
X154116061Y-107547630D01*
X153709317Y-107379151D01*
X153277520Y-107293261D01*
X152837264Y-107293261D01*
X152405467Y-107379151D01*
X151998723Y-107547630D01*
X151632663Y-107792223D01*
X151321354Y-108103532D01*
X151076761Y-108469592D01*
X150908282Y-108876336D01*
X150822392Y-109308133D01*
X127596318Y-109308133D01*
X127441759Y-109076820D01*
X127130450Y-108765511D01*
X126764390Y-108520918D01*
X126357646Y-108352439D01*
X125925849Y-108266549D01*
X125485593Y-108266549D01*
X125053796Y-108352439D01*
X124647052Y-108520918D01*
X124280992Y-108765511D01*
X123969683Y-109076820D01*
X123725090Y-109442880D01*
X123556611Y-109849624D01*
X123470721Y-110281421D01*
X122841865Y-110281421D01*
X126031485Y-100464779D01*
X126354795Y-100464779D01*
X126354795Y-100757299D01*
X126411863Y-101044197D01*
X126523805Y-101314450D01*
X126686320Y-101557671D01*
X126893163Y-101764514D01*
X127136384Y-101927029D01*
X127406637Y-102038971D01*
X127693535Y-102096039D01*
X127986055Y-102096039D01*
X128272953Y-102038971D01*
X128543206Y-101927029D01*
X128786427Y-101764514D01*
X128993270Y-101557671D01*
X129155785Y-101314450D01*
X129267727Y-101044197D01*
X129324795Y-100757299D01*
X129324795Y-100464779D01*
X129267727Y-100177881D01*
X129246262Y-100126058D01*
X161206829Y-100126058D01*
X161206829Y-100418578D01*
X161263897Y-100705476D01*
X161375839Y-100975729D01*
X161538354Y-101218950D01*
X161745197Y-101425793D01*
X161988418Y-101588308D01*
X162258671Y-101700250D01*
X162545569Y-101757318D01*
X162838089Y-101757318D01*
X163124987Y-101700250D01*
X163395240Y-101588308D01*
X163638461Y-101425793D01*
X163845304Y-101218950D01*
X164007819Y-100975729D01*
X164119761Y-100705476D01*
X164176829Y-100418578D01*
X164176829Y-100126058D01*
X164119761Y-99839160D01*
X164007819Y-99568907D01*
X163845304Y-99325686D01*
X163821723Y-99302105D01*
X163909890Y-99284567D01*
X164180143Y-99172625D01*
X164423364Y-99010110D01*
X164630207Y-98803267D01*
X164792722Y-98560046D01*
X164904664Y-98289793D01*
X164961732Y-98002895D01*
X164961732Y-97710375D01*
X164904664Y-97423477D01*
X164792722Y-97153224D01*
X164788405Y-97146763D01*
X164857431Y-97148119D01*
X164980567Y-97126129D01*
X165097047Y-97080540D01*
X165202395Y-97013102D01*
X165292563Y-96926409D01*
X165364084Y-96823789D01*
X165414211Y-96709189D01*
X165585652Y-96171606D01*
X165483729Y-95971569D01*
X164343174Y-95600980D01*
X164336994Y-95620001D01*
X164095425Y-95541512D01*
X164101606Y-95522490D01*
X163599704Y-95359412D01*
X164421664Y-95359412D01*
X165562219Y-95730001D01*
X165762256Y-95628077D01*
X165939540Y-95092392D01*
X165966347Y-94970215D01*
X165968803Y-94845155D01*
X165946813Y-94722019D01*
X165901224Y-94605539D01*
X165833786Y-94500191D01*
X165747093Y-94410023D01*
X165644473Y-94338502D01*
X165529873Y-94288375D01*
X164992290Y-94116934D01*
X164792253Y-94218857D01*
X164421664Y-95359412D01*
X163599704Y-95359412D01*
X162961051Y-95151901D01*
X162761014Y-95253825D01*
X162583730Y-95789510D01*
X162556923Y-95911687D01*
X162554467Y-96036747D01*
X162576457Y-96159883D01*
X162622046Y-96276363D01*
X162689484Y-96381711D01*
X162776177Y-96471879D01*
X162836999Y-96514269D01*
X162773321Y-96540645D01*
X162530100Y-96703160D01*
X162323257Y-96910003D01*
X162160742Y-97153224D01*
X162048800Y-97423477D01*
X161991732Y-97710375D01*
X161991732Y-98002895D01*
X162048800Y-98289793D01*
X162160742Y-98560046D01*
X162323257Y-98803267D01*
X162346838Y-98826848D01*
X162258671Y-98844386D01*
X161988418Y-98956328D01*
X161745197Y-99118843D01*
X161538354Y-99325686D01*
X161375839Y-99568907D01*
X161263897Y-99839160D01*
X161206829Y-100126058D01*
X129246262Y-100126058D01*
X129155785Y-99907628D01*
X128993270Y-99664407D01*
X128969689Y-99640826D01*
X129057856Y-99623288D01*
X129328109Y-99511346D01*
X129571330Y-99348831D01*
X129778173Y-99141988D01*
X129940688Y-98898767D01*
X130052630Y-98628514D01*
X130109698Y-98341616D01*
X130109698Y-98049096D01*
X130052630Y-97762198D01*
X129940688Y-97491945D01*
X129936371Y-97485484D01*
X130005397Y-97486840D01*
X130128533Y-97464850D01*
X130245013Y-97419261D01*
X130350361Y-97351823D01*
X130440529Y-97265130D01*
X130512050Y-97162510D01*
X130562177Y-97047910D01*
X130733618Y-96510327D01*
X130631695Y-96310290D01*
X129491140Y-95939701D01*
X129484960Y-95958722D01*
X129243391Y-95880233D01*
X129249572Y-95861211D01*
X128747670Y-95698133D01*
X129569630Y-95698133D01*
X130710185Y-96068722D01*
X130910222Y-95966798D01*
X131087506Y-95431113D01*
X131114313Y-95308936D01*
X131116769Y-95183876D01*
X131094779Y-95060740D01*
X131049190Y-94944260D01*
X130981752Y-94838912D01*
X130895059Y-94748744D01*
X130792439Y-94677223D01*
X130677839Y-94627096D01*
X130140256Y-94455655D01*
X129940219Y-94557578D01*
X129569630Y-95698133D01*
X128747670Y-95698133D01*
X128109017Y-95490622D01*
X127908980Y-95592546D01*
X127731696Y-96128231D01*
X127704889Y-96250408D01*
X127702433Y-96375468D01*
X127724423Y-96498604D01*
X127770012Y-96615084D01*
X127837450Y-96720432D01*
X127924143Y-96810600D01*
X127984965Y-96852990D01*
X127921287Y-96879366D01*
X127678066Y-97041881D01*
X127471223Y-97248724D01*
X127308708Y-97491945D01*
X127196766Y-97762198D01*
X127139698Y-98049096D01*
X127139698Y-98341616D01*
X127196766Y-98628514D01*
X127308708Y-98898767D01*
X127471223Y-99141988D01*
X127494804Y-99165569D01*
X127406637Y-99183107D01*
X127136384Y-99295049D01*
X126893163Y-99457564D01*
X126686320Y-99664407D01*
X126523805Y-99907628D01*
X126411863Y-100177881D01*
X126354795Y-100464779D01*
X126031485Y-100464779D01*
X127791173Y-95049017D01*
X128085584Y-95049017D01*
X128187507Y-95249054D01*
X129328062Y-95619643D01*
X129698651Y-94479088D01*
X129596727Y-94279051D01*
X129152579Y-94132061D01*
X145269000Y-94132061D01*
X145269000Y-94335939D01*
X145308774Y-94535898D01*
X145386795Y-94724256D01*
X145500063Y-94893774D01*
X145644226Y-95037937D01*
X145813744Y-95151205D01*
X146002102Y-95229226D01*
X146202061Y-95269000D01*
X146405939Y-95269000D01*
X146605898Y-95229226D01*
X146794256Y-95151205D01*
X146836744Y-95122815D01*
X147872346Y-95340837D01*
X147913063Y-95401774D01*
X148057226Y-95545937D01*
X148226744Y-95659205D01*
X148415102Y-95737226D01*
X148615061Y-95777000D01*
X148818939Y-95777000D01*
X149018898Y-95737226D01*
X149207256Y-95659205D01*
X149376774Y-95545937D01*
X149520937Y-95401774D01*
X149634205Y-95232256D01*
X149712226Y-95043898D01*
X149752000Y-94843939D01*
X149752000Y-94710296D01*
X162937618Y-94710296D01*
X163039541Y-94910333D01*
X164180096Y-95280922D01*
X164550685Y-94140367D01*
X164448761Y-93940330D01*
X163913076Y-93763046D01*
X163790899Y-93736239D01*
X163665839Y-93733783D01*
X163542703Y-93755773D01*
X163426223Y-93801362D01*
X163320875Y-93868800D01*
X163230707Y-93955493D01*
X163159186Y-94058113D01*
X163109059Y-94172713D01*
X162937618Y-94710296D01*
X149752000Y-94710296D01*
X149752000Y-94640061D01*
X149712226Y-94440102D01*
X149634205Y-94251744D01*
X149520937Y-94082226D01*
X149376774Y-93938063D01*
X149207256Y-93824795D01*
X149018898Y-93746774D01*
X148818939Y-93707000D01*
X148615061Y-93707000D01*
X148415102Y-93746774D01*
X148226744Y-93824795D01*
X148184256Y-93853185D01*
X147148654Y-93635163D01*
X147107937Y-93574226D01*
X146963774Y-93430063D01*
X146794256Y-93316795D01*
X146605898Y-93238774D01*
X146405939Y-93199000D01*
X146202061Y-93199000D01*
X146002102Y-93238774D01*
X145813744Y-93316795D01*
X145644226Y-93430063D01*
X145500063Y-93574226D01*
X145386795Y-93743744D01*
X145308774Y-93932102D01*
X145269000Y-94132061D01*
X129152579Y-94132061D01*
X129061042Y-94101767D01*
X128938865Y-94074960D01*
X128813805Y-94072504D01*
X128690669Y-94094494D01*
X128574189Y-94140083D01*
X128468841Y-94207521D01*
X128378673Y-94294214D01*
X128307152Y-94396834D01*
X128257025Y-94511434D01*
X128085584Y-95049017D01*
X127791173Y-95049017D01*
X132446653Y-80720926D01*
X135529011Y-80720926D01*
X135529011Y-80959276D01*
X135575510Y-81193045D01*
X135666723Y-81413251D01*
X135799142Y-81611431D01*
X135967681Y-81779970D01*
X136165861Y-81912389D01*
X136386067Y-82003602D01*
X136619836Y-82050101D01*
X136858186Y-82050101D01*
X137091955Y-82003602D01*
X137312161Y-81912389D01*
X137510341Y-81779970D01*
X137678880Y-81611431D01*
X137811299Y-81413251D01*
X137902512Y-81193045D01*
X137949011Y-80959276D01*
X137949011Y-80720926D01*
X137902512Y-80487157D01*
X137811299Y-80266951D01*
X137810578Y-80265871D01*
X138771528Y-80265871D01*
X138771528Y-80706127D01*
X138857418Y-81137924D01*
X139025897Y-81544668D01*
X139270490Y-81910728D01*
X139581799Y-82222037D01*
X139947859Y-82466630D01*
X140354603Y-82635109D01*
X140786400Y-82720999D01*
X141226656Y-82720999D01*
X141658453Y-82635109D01*
X142065197Y-82466630D01*
X142431257Y-82222037D01*
X142742566Y-81910728D01*
X142987159Y-81544668D01*
X143155638Y-81137924D01*
X143241528Y-80706127D01*
X143241528Y-80265871D01*
X143155638Y-79834074D01*
X142987159Y-79427330D01*
X142742566Y-79061270D01*
X142431257Y-78749961D01*
X142065197Y-78505368D01*
X141666968Y-78340416D01*
X145378635Y-78340416D01*
X145378635Y-78632936D01*
X145435703Y-78919834D01*
X145547645Y-79190087D01*
X145710160Y-79433308D01*
X145917003Y-79640151D01*
X146160224Y-79802666D01*
X146430477Y-79914608D01*
X146717375Y-79971676D01*
X147009895Y-79971676D01*
X147296793Y-79914608D01*
X147567046Y-79802666D01*
X147810267Y-79640151D01*
X148017110Y-79433308D01*
X148133635Y-79258916D01*
X148250160Y-79433308D01*
X148457003Y-79640151D01*
X148700224Y-79802666D01*
X148970477Y-79914608D01*
X149257375Y-79971676D01*
X149549895Y-79971676D01*
X149836793Y-79914608D01*
X150107046Y-79802666D01*
X150350267Y-79640151D01*
X150482122Y-79508296D01*
X150504133Y-79580856D01*
X150563098Y-79691170D01*
X150642450Y-79787861D01*
X150739141Y-79867213D01*
X150849455Y-79926178D01*
X150969153Y-79962488D01*
X151093635Y-79974748D01*
X151657885Y-79971676D01*
X151816635Y-79812926D01*
X151816635Y-78613676D01*
X152070635Y-78613676D01*
X152070635Y-79812926D01*
X152229385Y-79971676D01*
X152793635Y-79974748D01*
X152918117Y-79962488D01*
X153037815Y-79926178D01*
X153148129Y-79867213D01*
X153244820Y-79787861D01*
X153324172Y-79691170D01*
X153383137Y-79580856D01*
X153419447Y-79461158D01*
X153431707Y-79336676D01*
X153431467Y-79292583D01*
X166123198Y-79292583D01*
X166123198Y-79732839D01*
X166209088Y-80164636D01*
X166377567Y-80571380D01*
X166622160Y-80937440D01*
X166933469Y-81248749D01*
X167299529Y-81493342D01*
X167706273Y-81661821D01*
X168138070Y-81747711D01*
X168578326Y-81747711D01*
X169010123Y-81661821D01*
X169416867Y-81493342D01*
X169782927Y-81248749D01*
X170094236Y-80937440D01*
X170338829Y-80571380D01*
X170507308Y-80164636D01*
X170593198Y-79732839D01*
X170593198Y-79292583D01*
X170507308Y-78860786D01*
X170338829Y-78454042D01*
X170094236Y-78087982D01*
X169782927Y-77776673D01*
X169416867Y-77532080D01*
X169010123Y-77363601D01*
X168578326Y-77277711D01*
X168138070Y-77277711D01*
X167706273Y-77363601D01*
X167299529Y-77532080D01*
X166933469Y-77776673D01*
X166622160Y-78087982D01*
X166377567Y-78454042D01*
X166209088Y-78860786D01*
X166123198Y-79292583D01*
X153431467Y-79292583D01*
X153428635Y-78772426D01*
X153269885Y-78613676D01*
X152070635Y-78613676D01*
X151816635Y-78613676D01*
X151796635Y-78613676D01*
X151796635Y-78359676D01*
X151816635Y-78359676D01*
X151816635Y-77160426D01*
X152070635Y-77160426D01*
X152070635Y-78359676D01*
X153269885Y-78359676D01*
X153428635Y-78200926D01*
X153431707Y-77636676D01*
X153419447Y-77512194D01*
X153383137Y-77392496D01*
X153324172Y-77282182D01*
X153244820Y-77185491D01*
X153148129Y-77106139D01*
X153037815Y-77047174D01*
X152918117Y-77010864D01*
X152793635Y-76998604D01*
X152229385Y-77001676D01*
X152070635Y-77160426D01*
X151816635Y-77160426D01*
X151657885Y-77001676D01*
X151093635Y-76998604D01*
X150969153Y-77010864D01*
X150849455Y-77047174D01*
X150739141Y-77106139D01*
X150642450Y-77185491D01*
X150563098Y-77282182D01*
X150504133Y-77392496D01*
X150482122Y-77465056D01*
X150350267Y-77333201D01*
X150107046Y-77170686D01*
X149836793Y-77058744D01*
X149549895Y-77001676D01*
X149257375Y-77001676D01*
X148970477Y-77058744D01*
X148700224Y-77170686D01*
X148457003Y-77333201D01*
X148250160Y-77540044D01*
X148133635Y-77714436D01*
X148017110Y-77540044D01*
X147810267Y-77333201D01*
X147567046Y-77170686D01*
X147296793Y-77058744D01*
X147009895Y-77001676D01*
X146717375Y-77001676D01*
X146430477Y-77058744D01*
X146160224Y-77170686D01*
X145917003Y-77333201D01*
X145710160Y-77540044D01*
X145547645Y-77783265D01*
X145435703Y-78053518D01*
X145378635Y-78340416D01*
X141666968Y-78340416D01*
X141658453Y-78336889D01*
X141226656Y-78250999D01*
X140786400Y-78250999D01*
X140354603Y-78336889D01*
X139947859Y-78505368D01*
X139581799Y-78749961D01*
X139270490Y-79061270D01*
X139025897Y-79427330D01*
X138857418Y-79834074D01*
X138771528Y-80265871D01*
X137810578Y-80265871D01*
X137678880Y-80068771D01*
X137510341Y-79900232D01*
X137312161Y-79767813D01*
X137091955Y-79676600D01*
X136858186Y-79630101D01*
X136619836Y-79630101D01*
X136386067Y-79676600D01*
X136165861Y-79767813D01*
X135967681Y-79900232D01*
X135799142Y-80068771D01*
X135666723Y-80266951D01*
X135575510Y-80487157D01*
X135529011Y-80720926D01*
X132446653Y-80720926D01*
X133746309Y-76721000D01*
X172200658Y-76721000D01*
X160317611Y-113293260D01*
%TA.AperFunction,Conductor*%
D16*
G36*
X160317611Y-113293260D02*
G01*
X121863260Y-113293260D01*
X122841865Y-110281421D01*
X123470721Y-110281421D01*
X123470721Y-110721677D01*
X123556611Y-111153474D01*
X123725090Y-111560218D01*
X123969683Y-111926278D01*
X124280992Y-112237587D01*
X124647052Y-112482180D01*
X125053796Y-112650659D01*
X125485593Y-112736549D01*
X125925849Y-112736549D01*
X126357646Y-112650659D01*
X126764390Y-112482180D01*
X127130450Y-112237587D01*
X127441759Y-111926278D01*
X127686352Y-111560218D01*
X127760172Y-111382000D01*
X134286620Y-111382000D01*
X134286620Y-111674520D01*
X134343688Y-111961418D01*
X134455630Y-112231671D01*
X134618145Y-112474892D01*
X134824988Y-112681735D01*
X135068209Y-112844250D01*
X135338462Y-112956192D01*
X135625360Y-113013260D01*
X135917880Y-113013260D01*
X136204778Y-112956192D01*
X136475031Y-112844250D01*
X136718252Y-112681735D01*
X136925095Y-112474892D01*
X137041620Y-112300500D01*
X137158145Y-112474892D01*
X137364988Y-112681735D01*
X137608209Y-112844250D01*
X137878462Y-112956192D01*
X138165360Y-113013260D01*
X138457880Y-113013260D01*
X138744778Y-112956192D01*
X139015031Y-112844250D01*
X139258252Y-112681735D01*
X139390107Y-112549880D01*
X139412118Y-112622440D01*
X139471083Y-112732754D01*
X139550435Y-112829445D01*
X139647126Y-112908797D01*
X139757440Y-112967762D01*
X139877138Y-113004072D01*
X140001620Y-113016332D01*
X140565870Y-113013260D01*
X140724620Y-112854510D01*
X140724620Y-111655260D01*
X140978620Y-111655260D01*
X140978620Y-112854510D01*
X141137370Y-113013260D01*
X141701620Y-113016332D01*
X141826102Y-113004072D01*
X141945800Y-112967762D01*
X142056114Y-112908797D01*
X142152805Y-112829445D01*
X142232157Y-112732754D01*
X142291122Y-112622440D01*
X142327432Y-112502742D01*
X142339692Y-112378260D01*
X142336620Y-111814010D01*
X142177870Y-111655260D01*
X140978620Y-111655260D01*
X140724620Y-111655260D01*
X140704620Y-111655260D01*
X140704620Y-111401260D01*
X140724620Y-111401260D01*
X140724620Y-110202010D01*
X140978620Y-110202010D01*
X140978620Y-111401260D01*
X142177870Y-111401260D01*
X142336620Y-111242510D01*
X142339692Y-110678260D01*
X142327432Y-110553778D01*
X142291122Y-110434080D01*
X142232157Y-110323766D01*
X142152805Y-110227075D01*
X142056114Y-110147723D01*
X141945800Y-110088758D01*
X141826102Y-110052448D01*
X141701620Y-110040188D01*
X141137370Y-110043260D01*
X140978620Y-110202010D01*
X140724620Y-110202010D01*
X140565870Y-110043260D01*
X140001620Y-110040188D01*
X139877138Y-110052448D01*
X139757440Y-110088758D01*
X139647126Y-110147723D01*
X139550435Y-110227075D01*
X139471083Y-110323766D01*
X139412118Y-110434080D01*
X139390107Y-110506640D01*
X139258252Y-110374785D01*
X139015031Y-110212270D01*
X138744778Y-110100328D01*
X138457880Y-110043260D01*
X138165360Y-110043260D01*
X137878462Y-110100328D01*
X137608209Y-110212270D01*
X137364988Y-110374785D01*
X137158145Y-110581628D01*
X137041620Y-110756020D01*
X136925095Y-110581628D01*
X136718252Y-110374785D01*
X136475031Y-110212270D01*
X136204778Y-110100328D01*
X135917880Y-110043260D01*
X135625360Y-110043260D01*
X135338462Y-110100328D01*
X135068209Y-110212270D01*
X134824988Y-110374785D01*
X134618145Y-110581628D01*
X134455630Y-110824849D01*
X134343688Y-111095102D01*
X134286620Y-111382000D01*
X127760172Y-111382000D01*
X127854831Y-111153474D01*
X127940721Y-110721677D01*
X127940721Y-110281421D01*
X127854831Y-109849624D01*
X127686352Y-109442880D01*
X127596318Y-109308133D01*
X150822392Y-109308133D01*
X150822392Y-109748389D01*
X150908282Y-110180186D01*
X151076761Y-110586930D01*
X151321354Y-110952990D01*
X151632663Y-111264299D01*
X151998723Y-111508892D01*
X152405467Y-111677371D01*
X152837264Y-111763261D01*
X153277520Y-111763261D01*
X153709317Y-111677371D01*
X154116061Y-111508892D01*
X154482121Y-111264299D01*
X154793430Y-110952990D01*
X155038023Y-110586930D01*
X155206502Y-110180186D01*
X155292392Y-109748389D01*
X155292392Y-109308133D01*
X155242038Y-109054984D01*
X156114909Y-109054984D01*
X156114909Y-109293334D01*
X156161408Y-109527103D01*
X156252621Y-109747309D01*
X156385040Y-109945489D01*
X156553579Y-110114028D01*
X156751759Y-110246447D01*
X156971965Y-110337660D01*
X157205734Y-110384159D01*
X157444084Y-110384159D01*
X157677853Y-110337660D01*
X157898059Y-110246447D01*
X158096239Y-110114028D01*
X158264778Y-109945489D01*
X158397197Y-109747309D01*
X158488410Y-109527103D01*
X158534909Y-109293334D01*
X158534909Y-109054984D01*
X158488410Y-108821215D01*
X158397197Y-108601009D01*
X158264778Y-108402829D01*
X158096239Y-108234290D01*
X157898059Y-108101871D01*
X157677853Y-108010658D01*
X157444084Y-107964159D01*
X157205734Y-107964159D01*
X156971965Y-108010658D01*
X156751759Y-108101871D01*
X156553579Y-108234290D01*
X156385040Y-108402829D01*
X156252621Y-108601009D01*
X156161408Y-108821215D01*
X156114909Y-109054984D01*
X155242038Y-109054984D01*
X155206502Y-108876336D01*
X155038023Y-108469592D01*
X154793430Y-108103532D01*
X154482121Y-107792223D01*
X154116061Y-107547630D01*
X153709317Y-107379151D01*
X153277520Y-107293261D01*
X152837264Y-107293261D01*
X152405467Y-107379151D01*
X151998723Y-107547630D01*
X151632663Y-107792223D01*
X151321354Y-108103532D01*
X151076761Y-108469592D01*
X150908282Y-108876336D01*
X150822392Y-109308133D01*
X127596318Y-109308133D01*
X127441759Y-109076820D01*
X127130450Y-108765511D01*
X126764390Y-108520918D01*
X126357646Y-108352439D01*
X125925849Y-108266549D01*
X125485593Y-108266549D01*
X125053796Y-108352439D01*
X124647052Y-108520918D01*
X124280992Y-108765511D01*
X123969683Y-109076820D01*
X123725090Y-109442880D01*
X123556611Y-109849624D01*
X123470721Y-110281421D01*
X122841865Y-110281421D01*
X126031485Y-100464779D01*
X126354795Y-100464779D01*
X126354795Y-100757299D01*
X126411863Y-101044197D01*
X126523805Y-101314450D01*
X126686320Y-101557671D01*
X126893163Y-101764514D01*
X127136384Y-101927029D01*
X127406637Y-102038971D01*
X127693535Y-102096039D01*
X127986055Y-102096039D01*
X128272953Y-102038971D01*
X128543206Y-101927029D01*
X128786427Y-101764514D01*
X128993270Y-101557671D01*
X129155785Y-101314450D01*
X129267727Y-101044197D01*
X129324795Y-100757299D01*
X129324795Y-100464779D01*
X129267727Y-100177881D01*
X129246262Y-100126058D01*
X161206829Y-100126058D01*
X161206829Y-100418578D01*
X161263897Y-100705476D01*
X161375839Y-100975729D01*
X161538354Y-101218950D01*
X161745197Y-101425793D01*
X161988418Y-101588308D01*
X162258671Y-101700250D01*
X162545569Y-101757318D01*
X162838089Y-101757318D01*
X163124987Y-101700250D01*
X163395240Y-101588308D01*
X163638461Y-101425793D01*
X163845304Y-101218950D01*
X164007819Y-100975729D01*
X164119761Y-100705476D01*
X164176829Y-100418578D01*
X164176829Y-100126058D01*
X164119761Y-99839160D01*
X164007819Y-99568907D01*
X163845304Y-99325686D01*
X163821723Y-99302105D01*
X163909890Y-99284567D01*
X164180143Y-99172625D01*
X164423364Y-99010110D01*
X164630207Y-98803267D01*
X164792722Y-98560046D01*
X164904664Y-98289793D01*
X164961732Y-98002895D01*
X164961732Y-97710375D01*
X164904664Y-97423477D01*
X164792722Y-97153224D01*
X164788405Y-97146763D01*
X164857431Y-97148119D01*
X164980567Y-97126129D01*
X165097047Y-97080540D01*
X165202395Y-97013102D01*
X165292563Y-96926409D01*
X165364084Y-96823789D01*
X165414211Y-96709189D01*
X165585652Y-96171606D01*
X165483729Y-95971569D01*
X164343174Y-95600980D01*
X164336994Y-95620001D01*
X164095425Y-95541512D01*
X164101606Y-95522490D01*
X163599704Y-95359412D01*
X164421664Y-95359412D01*
X165562219Y-95730001D01*
X165762256Y-95628077D01*
X165939540Y-95092392D01*
X165966347Y-94970215D01*
X165968803Y-94845155D01*
X165946813Y-94722019D01*
X165901224Y-94605539D01*
X165833786Y-94500191D01*
X165747093Y-94410023D01*
X165644473Y-94338502D01*
X165529873Y-94288375D01*
X164992290Y-94116934D01*
X164792253Y-94218857D01*
X164421664Y-95359412D01*
X163599704Y-95359412D01*
X162961051Y-95151901D01*
X162761014Y-95253825D01*
X162583730Y-95789510D01*
X162556923Y-95911687D01*
X162554467Y-96036747D01*
X162576457Y-96159883D01*
X162622046Y-96276363D01*
X162689484Y-96381711D01*
X162776177Y-96471879D01*
X162836999Y-96514269D01*
X162773321Y-96540645D01*
X162530100Y-96703160D01*
X162323257Y-96910003D01*
X162160742Y-97153224D01*
X162048800Y-97423477D01*
X161991732Y-97710375D01*
X161991732Y-98002895D01*
X162048800Y-98289793D01*
X162160742Y-98560046D01*
X162323257Y-98803267D01*
X162346838Y-98826848D01*
X162258671Y-98844386D01*
X161988418Y-98956328D01*
X161745197Y-99118843D01*
X161538354Y-99325686D01*
X161375839Y-99568907D01*
X161263897Y-99839160D01*
X161206829Y-100126058D01*
X129246262Y-100126058D01*
X129155785Y-99907628D01*
X128993270Y-99664407D01*
X128969689Y-99640826D01*
X129057856Y-99623288D01*
X129328109Y-99511346D01*
X129571330Y-99348831D01*
X129778173Y-99141988D01*
X129940688Y-98898767D01*
X130052630Y-98628514D01*
X130109698Y-98341616D01*
X130109698Y-98049096D01*
X130052630Y-97762198D01*
X129940688Y-97491945D01*
X129936371Y-97485484D01*
X130005397Y-97486840D01*
X130128533Y-97464850D01*
X130245013Y-97419261D01*
X130350361Y-97351823D01*
X130440529Y-97265130D01*
X130512050Y-97162510D01*
X130562177Y-97047910D01*
X130733618Y-96510327D01*
X130631695Y-96310290D01*
X129491140Y-95939701D01*
X129484960Y-95958722D01*
X129243391Y-95880233D01*
X129249572Y-95861211D01*
X128747670Y-95698133D01*
X129569630Y-95698133D01*
X130710185Y-96068722D01*
X130910222Y-95966798D01*
X131087506Y-95431113D01*
X131114313Y-95308936D01*
X131116769Y-95183876D01*
X131094779Y-95060740D01*
X131049190Y-94944260D01*
X130981752Y-94838912D01*
X130895059Y-94748744D01*
X130792439Y-94677223D01*
X130677839Y-94627096D01*
X130140256Y-94455655D01*
X129940219Y-94557578D01*
X129569630Y-95698133D01*
X128747670Y-95698133D01*
X128109017Y-95490622D01*
X127908980Y-95592546D01*
X127731696Y-96128231D01*
X127704889Y-96250408D01*
X127702433Y-96375468D01*
X127724423Y-96498604D01*
X127770012Y-96615084D01*
X127837450Y-96720432D01*
X127924143Y-96810600D01*
X127984965Y-96852990D01*
X127921287Y-96879366D01*
X127678066Y-97041881D01*
X127471223Y-97248724D01*
X127308708Y-97491945D01*
X127196766Y-97762198D01*
X127139698Y-98049096D01*
X127139698Y-98341616D01*
X127196766Y-98628514D01*
X127308708Y-98898767D01*
X127471223Y-99141988D01*
X127494804Y-99165569D01*
X127406637Y-99183107D01*
X127136384Y-99295049D01*
X126893163Y-99457564D01*
X126686320Y-99664407D01*
X126523805Y-99907628D01*
X126411863Y-100177881D01*
X126354795Y-100464779D01*
X126031485Y-100464779D01*
X127791173Y-95049017D01*
X128085584Y-95049017D01*
X128187507Y-95249054D01*
X129328062Y-95619643D01*
X129698651Y-94479088D01*
X129596727Y-94279051D01*
X129152579Y-94132061D01*
X145269000Y-94132061D01*
X145269000Y-94335939D01*
X145308774Y-94535898D01*
X145386795Y-94724256D01*
X145500063Y-94893774D01*
X145644226Y-95037937D01*
X145813744Y-95151205D01*
X146002102Y-95229226D01*
X146202061Y-95269000D01*
X146405939Y-95269000D01*
X146605898Y-95229226D01*
X146794256Y-95151205D01*
X146836744Y-95122815D01*
X147872346Y-95340837D01*
X147913063Y-95401774D01*
X148057226Y-95545937D01*
X148226744Y-95659205D01*
X148415102Y-95737226D01*
X148615061Y-95777000D01*
X148818939Y-95777000D01*
X149018898Y-95737226D01*
X149207256Y-95659205D01*
X149376774Y-95545937D01*
X149520937Y-95401774D01*
X149634205Y-95232256D01*
X149712226Y-95043898D01*
X149752000Y-94843939D01*
X149752000Y-94710296D01*
X162937618Y-94710296D01*
X163039541Y-94910333D01*
X164180096Y-95280922D01*
X164550685Y-94140367D01*
X164448761Y-93940330D01*
X163913076Y-93763046D01*
X163790899Y-93736239D01*
X163665839Y-93733783D01*
X163542703Y-93755773D01*
X163426223Y-93801362D01*
X163320875Y-93868800D01*
X163230707Y-93955493D01*
X163159186Y-94058113D01*
X163109059Y-94172713D01*
X162937618Y-94710296D01*
X149752000Y-94710296D01*
X149752000Y-94640061D01*
X149712226Y-94440102D01*
X149634205Y-94251744D01*
X149520937Y-94082226D01*
X149376774Y-93938063D01*
X149207256Y-93824795D01*
X149018898Y-93746774D01*
X148818939Y-93707000D01*
X148615061Y-93707000D01*
X148415102Y-93746774D01*
X148226744Y-93824795D01*
X148184256Y-93853185D01*
X147148654Y-93635163D01*
X147107937Y-93574226D01*
X146963774Y-93430063D01*
X146794256Y-93316795D01*
X146605898Y-93238774D01*
X146405939Y-93199000D01*
X146202061Y-93199000D01*
X146002102Y-93238774D01*
X145813744Y-93316795D01*
X145644226Y-93430063D01*
X145500063Y-93574226D01*
X145386795Y-93743744D01*
X145308774Y-93932102D01*
X145269000Y-94132061D01*
X129152579Y-94132061D01*
X129061042Y-94101767D01*
X128938865Y-94074960D01*
X128813805Y-94072504D01*
X128690669Y-94094494D01*
X128574189Y-94140083D01*
X128468841Y-94207521D01*
X128378673Y-94294214D01*
X128307152Y-94396834D01*
X128257025Y-94511434D01*
X128085584Y-95049017D01*
X127791173Y-95049017D01*
X132446653Y-80720926D01*
X135529011Y-80720926D01*
X135529011Y-80959276D01*
X135575510Y-81193045D01*
X135666723Y-81413251D01*
X135799142Y-81611431D01*
X135967681Y-81779970D01*
X136165861Y-81912389D01*
X136386067Y-82003602D01*
X136619836Y-82050101D01*
X136858186Y-82050101D01*
X137091955Y-82003602D01*
X137312161Y-81912389D01*
X137510341Y-81779970D01*
X137678880Y-81611431D01*
X137811299Y-81413251D01*
X137902512Y-81193045D01*
X137949011Y-80959276D01*
X137949011Y-80720926D01*
X137902512Y-80487157D01*
X137811299Y-80266951D01*
X137810578Y-80265871D01*
X138771528Y-80265871D01*
X138771528Y-80706127D01*
X138857418Y-81137924D01*
X139025897Y-81544668D01*
X139270490Y-81910728D01*
X139581799Y-82222037D01*
X139947859Y-82466630D01*
X140354603Y-82635109D01*
X140786400Y-82720999D01*
X141226656Y-82720999D01*
X141658453Y-82635109D01*
X142065197Y-82466630D01*
X142431257Y-82222037D01*
X142742566Y-81910728D01*
X142987159Y-81544668D01*
X143155638Y-81137924D01*
X143241528Y-80706127D01*
X143241528Y-80265871D01*
X143155638Y-79834074D01*
X142987159Y-79427330D01*
X142742566Y-79061270D01*
X142431257Y-78749961D01*
X142065197Y-78505368D01*
X141666968Y-78340416D01*
X145378635Y-78340416D01*
X145378635Y-78632936D01*
X145435703Y-78919834D01*
X145547645Y-79190087D01*
X145710160Y-79433308D01*
X145917003Y-79640151D01*
X146160224Y-79802666D01*
X146430477Y-79914608D01*
X146717375Y-79971676D01*
X147009895Y-79971676D01*
X147296793Y-79914608D01*
X147567046Y-79802666D01*
X147810267Y-79640151D01*
X148017110Y-79433308D01*
X148133635Y-79258916D01*
X148250160Y-79433308D01*
X148457003Y-79640151D01*
X148700224Y-79802666D01*
X148970477Y-79914608D01*
X149257375Y-79971676D01*
X149549895Y-79971676D01*
X149836793Y-79914608D01*
X150107046Y-79802666D01*
X150350267Y-79640151D01*
X150482122Y-79508296D01*
X150504133Y-79580856D01*
X150563098Y-79691170D01*
X150642450Y-79787861D01*
X150739141Y-79867213D01*
X150849455Y-79926178D01*
X150969153Y-79962488D01*
X151093635Y-79974748D01*
X151657885Y-79971676D01*
X151816635Y-79812926D01*
X151816635Y-78613676D01*
X152070635Y-78613676D01*
X152070635Y-79812926D01*
X152229385Y-79971676D01*
X152793635Y-79974748D01*
X152918117Y-79962488D01*
X153037815Y-79926178D01*
X153148129Y-79867213D01*
X153244820Y-79787861D01*
X153324172Y-79691170D01*
X153383137Y-79580856D01*
X153419447Y-79461158D01*
X153431707Y-79336676D01*
X153431467Y-79292583D01*
X166123198Y-79292583D01*
X166123198Y-79732839D01*
X166209088Y-80164636D01*
X166377567Y-80571380D01*
X166622160Y-80937440D01*
X166933469Y-81248749D01*
X167299529Y-81493342D01*
X167706273Y-81661821D01*
X168138070Y-81747711D01*
X168578326Y-81747711D01*
X169010123Y-81661821D01*
X169416867Y-81493342D01*
X169782927Y-81248749D01*
X170094236Y-80937440D01*
X170338829Y-80571380D01*
X170507308Y-80164636D01*
X170593198Y-79732839D01*
X170593198Y-79292583D01*
X170507308Y-78860786D01*
X170338829Y-78454042D01*
X170094236Y-78087982D01*
X169782927Y-77776673D01*
X169416867Y-77532080D01*
X169010123Y-77363601D01*
X168578326Y-77277711D01*
X168138070Y-77277711D01*
X167706273Y-77363601D01*
X167299529Y-77532080D01*
X166933469Y-77776673D01*
X166622160Y-78087982D01*
X166377567Y-78454042D01*
X166209088Y-78860786D01*
X166123198Y-79292583D01*
X153431467Y-79292583D01*
X153428635Y-78772426D01*
X153269885Y-78613676D01*
X152070635Y-78613676D01*
X151816635Y-78613676D01*
X151796635Y-78613676D01*
X151796635Y-78359676D01*
X151816635Y-78359676D01*
X151816635Y-77160426D01*
X152070635Y-77160426D01*
X152070635Y-78359676D01*
X153269885Y-78359676D01*
X153428635Y-78200926D01*
X153431707Y-77636676D01*
X153419447Y-77512194D01*
X153383137Y-77392496D01*
X153324172Y-77282182D01*
X153244820Y-77185491D01*
X153148129Y-77106139D01*
X153037815Y-77047174D01*
X152918117Y-77010864D01*
X152793635Y-76998604D01*
X152229385Y-77001676D01*
X152070635Y-77160426D01*
X151816635Y-77160426D01*
X151657885Y-77001676D01*
X151093635Y-76998604D01*
X150969153Y-77010864D01*
X150849455Y-77047174D01*
X150739141Y-77106139D01*
X150642450Y-77185491D01*
X150563098Y-77282182D01*
X150504133Y-77392496D01*
X150482122Y-77465056D01*
X150350267Y-77333201D01*
X150107046Y-77170686D01*
X149836793Y-77058744D01*
X149549895Y-77001676D01*
X149257375Y-77001676D01*
X148970477Y-77058744D01*
X148700224Y-77170686D01*
X148457003Y-77333201D01*
X148250160Y-77540044D01*
X148133635Y-77714436D01*
X148017110Y-77540044D01*
X147810267Y-77333201D01*
X147567046Y-77170686D01*
X147296793Y-77058744D01*
X147009895Y-77001676D01*
X146717375Y-77001676D01*
X146430477Y-77058744D01*
X146160224Y-77170686D01*
X145917003Y-77333201D01*
X145710160Y-77540044D01*
X145547645Y-77783265D01*
X145435703Y-78053518D01*
X145378635Y-78340416D01*
X141666968Y-78340416D01*
X141658453Y-78336889D01*
X141226656Y-78250999D01*
X140786400Y-78250999D01*
X140354603Y-78336889D01*
X139947859Y-78505368D01*
X139581799Y-78749961D01*
X139270490Y-79061270D01*
X139025897Y-79427330D01*
X138857418Y-79834074D01*
X138771528Y-80265871D01*
X137810578Y-80265871D01*
X137678880Y-80068771D01*
X137510341Y-79900232D01*
X137312161Y-79767813D01*
X137091955Y-79676600D01*
X136858186Y-79630101D01*
X136619836Y-79630101D01*
X136386067Y-79676600D01*
X136165861Y-79767813D01*
X135967681Y-79900232D01*
X135799142Y-80068771D01*
X135666723Y-80266951D01*
X135575510Y-80487157D01*
X135529011Y-80720926D01*
X132446653Y-80720926D01*
X133746309Y-76721000D01*
X172200658Y-76721000D01*
X160317611Y-113293260D01*
G37*
%TD.AperFunction*%
%TD*%
M02*
