%TF.GenerationSoftware,KiCad,Pcbnew,5.1.8*%
%TF.CreationDate,2021-01-12T11:15:40-05:00*%
%TF.ProjectId,penroserombus_thick_40mm,70656e72-6f73-4657-926f-6d6275735f74,rev?*%
%TF.SameCoordinates,Original*%
%TF.FileFunction,Legend,Bot*%
%TF.FilePolarity,Positive*%
%FSLAX46Y46*%
G04 Gerber Fmt 4.6, Leading zero omitted, Abs format (unit mm)*
G04 Created by KiCad (PCBNEW 5.1.8) date 2021-01-12 11:15:40*
%MOMM*%
%LPD*%
G01*
G04 APERTURE LIST*
%ADD10C,1.150000*%
%ADD11C,0.100000*%
%ADD12R,1.700000X1.700000*%
%ADD13O,1.700000X1.700000*%
G04 APERTURE END LIST*
%LPC*%
D10*
%TO.C,MH*%
X156210000Y-108077000D03*
%TD*%
%TO.C,MH*%
X137033000Y-81153000D03*
%TD*%
%TO.C,J1*%
G36*
G01*
X162276114Y-98803290D02*
X162276114Y-98803290D01*
G75*
G02*
X163347176Y-98257556I808398J-262664D01*
G01*
X163347176Y-98257556D01*
G75*
G02*
X163892910Y-99328618I-262664J-808398D01*
G01*
X163892910Y-99328618D01*
G75*
G02*
X162821848Y-99874352I-808398J262664D01*
G01*
X162821848Y-99874352D01*
G75*
G02*
X162276114Y-98803290I262664J808398D01*
G01*
G37*
G36*
G01*
X163061017Y-96387607D02*
X163061017Y-96387607D01*
G75*
G02*
X164132079Y-95841873I808398J-262664D01*
G01*
X164132079Y-95841873D01*
G75*
G02*
X164677813Y-96912935I-262664J-808398D01*
G01*
X164677813Y-96912935D01*
G75*
G02*
X163606751Y-97458669I-808398J262664D01*
G01*
X163606751Y-97458669D01*
G75*
G02*
X163061017Y-96387607I262664J808398D01*
G01*
G37*
D11*
G36*
X163583256Y-94780321D02*
G01*
X164108584Y-93163525D01*
X165725380Y-93688853D01*
X165200052Y-95305649D01*
X163583256Y-94780321D01*
G37*
%TD*%
D12*
%TO.C,J2*%
X140851620Y-111528260D03*
D13*
X138311620Y-111528260D03*
X135771620Y-111528260D03*
%TD*%
D12*
%TO.C,J3*%
X153212300Y-78486000D03*
D13*
X150672300Y-78486000D03*
X148132300Y-78486000D03*
%TD*%
%TO.C,J4*%
G36*
G01*
X127031397Y-100348375D02*
X127031397Y-100348375D01*
G75*
G02*
X128102459Y-99802641I808398J-262664D01*
G01*
X128102459Y-99802641D01*
G75*
G02*
X128648193Y-100873703I-262664J-808398D01*
G01*
X128648193Y-100873703D01*
G75*
G02*
X127577131Y-101419437I-808398J262664D01*
G01*
X127577131Y-101419437D01*
G75*
G02*
X127031397Y-100348375I262664J808398D01*
G01*
G37*
G36*
G01*
X127816300Y-97932692D02*
X127816300Y-97932692D01*
G75*
G02*
X128887362Y-97386958I808398J-262664D01*
G01*
X128887362Y-97386958D01*
G75*
G02*
X129433096Y-98458020I-262664J-808398D01*
G01*
X129433096Y-98458020D01*
G75*
G02*
X128362034Y-99003754I-808398J262664D01*
G01*
X128362034Y-99003754D01*
G75*
G02*
X127816300Y-97932692I262664J808398D01*
G01*
G37*
D11*
G36*
X128338539Y-96325406D02*
G01*
X128863867Y-94708610D01*
X130480663Y-95233938D01*
X129955335Y-96850734D01*
X128338539Y-96325406D01*
G37*
%TD*%
M02*
