M48
; DRILL file {KiCad 5.1.8} date Wed Jan 13 18:35:21 2021
; FORMAT={-:-/ absolute / inch / decimal}
; #@! TF.CreationDate,2021-01-13T18:35:21-05:00
; #@! TF.GenerationSoftware,Kicad,Pcbnew,5.1.8
; #@! TF.FileFunction,Plated,1,2,PTH
FMAT,2
INCH
T1C0.0157
T2C0.0394
%
G90
G05
T1
X5.085Y-4.225
X5.3Y-3.975
X5.365Y-4.215
X5.41Y-3.83
X5.585Y-4.195
X5.75Y-3.975
X5.76Y-3.71
X5.84Y-3.415
X5.855Y-3.73
X6.075Y-3.41
X6.08Y-3.71
X6.24Y-3.825
X6.31Y-3.625
T2
X5.0331Y-3.9611
X5.064Y-3.866
X5.0949Y-3.7709
X5.3453Y-4.3909
X5.4453Y-4.3909
X5.5453Y-4.3909
X6.4207Y-3.9002
X6.4516Y-3.8051
X6.4825Y-3.71
X5.832Y-3.09
X5.932Y-3.09
X6.032Y-3.09
T0
M30
