M48
; DRILL file {KiCad 5.1.8} date Thu Jan 14 17:17:20 2021
; FORMAT={-:-/ absolute / inch / decimal}
; #@! TF.CreationDate,2021-01-14T17:17:20-05:00
; #@! TF.GenerationSoftware,Kicad,Pcbnew,5.1.8
; #@! TF.FileFunction,Plated,1,2,PTH
FMAT,2
INCH
T1C0.0157
T2C0.0394
%
G90
G05
T1
X5.085Y-4.225
X5.33Y-3.88
X5.44Y-3.74
X5.535Y-3.885
X5.56Y-4.15
X5.705Y-4.21
X5.76Y-3.71
X5.79Y-3.345
X5.855Y-3.73
X5.94Y-3.4
X6.045Y-4.005
X6.175Y-3.865
X6.28Y-3.74
T2
X5.832Y-3.09
X5.932Y-3.09
X6.032Y-3.09
X6.4207Y-3.9002
X6.4516Y-3.8051
X6.4825Y-3.71
X5.0331Y-3.9611
X5.064Y-3.866
X5.0949Y-3.7709
X5.3453Y-4.3909
X5.4453Y-4.3909
X5.5453Y-4.3909
T0
M30
