%TF.GenerationSoftware,KiCad,Pcbnew,5.1.8*%
%TF.CreationDate,2021-01-12T21:38:57-05:00*%
%TF.ProjectId,penroserombus_thick_40mm,70656e72-6f73-4657-926f-6d6275735f74,rev?*%
%TF.SameCoordinates,Original*%
%TF.FileFunction,Legend,Top*%
%TF.FilePolarity,Positive*%
%FSLAX46Y46*%
G04 Gerber Fmt 4.6, Leading zero omitted, Abs format (unit mm)*
G04 Created by KiCad (PCBNEW 5.1.8) date 2021-01-12 21:38:57*
%MOMM*%
%LPD*%
G01*
G04 APERTURE LIST*
%ADD10C,0.150000*%
%ADD11C,0.500000*%
%ADD12C,0.300000*%
%ADD13C,0.120000*%
%ADD14C,0.200000*%
%ADD15C,2.100000*%
%ADD16C,1.150000*%
%ADD17C,0.100000*%
%ADD18R,1.700000X1.700000*%
%ADD19O,1.700000X1.700000*%
%ADD20R,1.500000X1.000000*%
G04 APERTURE END LIST*
D10*
X160940339Y-98806078D02*
X159989283Y-98497061D01*
X160062858Y-98270619D01*
X160152292Y-98149469D01*
X160272299Y-98088323D01*
X160377591Y-98072464D01*
X160573460Y-98086036D01*
X160709325Y-98130182D01*
X160875763Y-98234330D01*
X160951625Y-98309049D01*
X161012772Y-98429056D01*
X161013915Y-98579636D01*
X160940339Y-98806078D01*
X161381792Y-97447426D02*
X160883620Y-97285560D01*
X160778328Y-97301418D01*
X160703609Y-97377280D01*
X160644749Y-97558434D01*
X160660607Y-97663726D01*
X161336504Y-97432711D02*
X161352362Y-97538003D01*
X161278787Y-97764445D01*
X161204068Y-97840307D01*
X161098776Y-97856165D01*
X161008199Y-97826735D01*
X160932337Y-97752016D01*
X160916479Y-97646724D01*
X160990055Y-97420282D01*
X160974197Y-97314990D01*
X160850760Y-96924396D02*
X160968481Y-96562089D01*
X160577887Y-96685525D02*
X161393078Y-96950397D01*
X161498370Y-96934539D01*
X161573088Y-96858677D01*
X161602519Y-96768100D01*
X161837960Y-96043486D02*
X161339788Y-95881620D01*
X161234496Y-95897478D01*
X161159777Y-95973340D01*
X161100917Y-96154493D01*
X161116775Y-96259785D01*
X161792672Y-96028771D02*
X161808530Y-96134062D01*
X161734954Y-96360504D01*
X161660236Y-96436366D01*
X161554944Y-96452224D01*
X161464367Y-96422794D01*
X161388505Y-96348076D01*
X161372647Y-96242784D01*
X161446223Y-96016342D01*
X161430364Y-95911050D01*
X162220553Y-94865987D02*
X161269496Y-94556970D01*
X161733666Y-94207092D02*
X162367704Y-94413103D01*
X161824243Y-94236522D02*
X161793669Y-94176518D01*
X161777811Y-94071227D01*
X161821956Y-93935361D01*
X161896675Y-93859500D01*
X162001967Y-93843641D01*
X162500139Y-94005507D01*
X131463241Y-95849460D02*
X132414297Y-96158477D01*
X132340722Y-96384919D01*
X132251288Y-96506069D01*
X132131281Y-96567216D01*
X132025989Y-96583074D01*
X131830121Y-96569502D01*
X131694255Y-96525356D01*
X131527817Y-96421208D01*
X131451955Y-96346489D01*
X131390808Y-96226482D01*
X131389665Y-96075902D01*
X131463241Y-95849460D01*
X131021788Y-97208112D02*
X131519960Y-97369978D01*
X131625252Y-97354120D01*
X131699971Y-97278258D01*
X131758831Y-97097104D01*
X131742973Y-96991812D01*
X131067076Y-97222827D02*
X131051218Y-97117535D01*
X131124794Y-96891093D01*
X131199512Y-96815231D01*
X131304804Y-96799373D01*
X131395381Y-96828803D01*
X131471243Y-96903522D01*
X131487101Y-97008814D01*
X131413525Y-97235256D01*
X131429384Y-97340548D01*
X131552820Y-97731142D02*
X131435099Y-98093449D01*
X131825694Y-97970013D02*
X131010502Y-97705141D01*
X130905210Y-97720999D01*
X130830492Y-97796861D01*
X130801062Y-97887438D01*
X130565620Y-98612052D02*
X131063792Y-98773919D01*
X131169084Y-98758060D01*
X131243803Y-98682199D01*
X131302663Y-98501045D01*
X131286805Y-98395753D01*
X130610908Y-98626768D02*
X130595050Y-98521476D01*
X130668626Y-98295034D01*
X130743344Y-98219172D01*
X130848636Y-98203314D01*
X130939213Y-98232744D01*
X131015075Y-98307462D01*
X131030933Y-98412754D01*
X130957357Y-98639196D01*
X130973216Y-98744488D01*
X131075224Y-100279722D02*
X131016363Y-100460875D01*
X130941645Y-100536737D01*
X130821638Y-100597884D01*
X130625769Y-100584312D01*
X130308750Y-100481306D01*
X130142312Y-100377157D01*
X130081165Y-100257150D01*
X130065307Y-100151858D01*
X130124167Y-99970705D01*
X130198886Y-99894843D01*
X130318893Y-99833696D01*
X130514761Y-99847268D01*
X130831780Y-99950274D01*
X130998219Y-100054423D01*
X131059365Y-100174430D01*
X131075224Y-100279722D01*
X130360897Y-101399503D02*
X129726860Y-101193492D01*
X130493333Y-100991907D02*
X129995161Y-100830041D01*
X129889869Y-100845899D01*
X129815150Y-100921761D01*
X129771005Y-101057626D01*
X129786863Y-101162918D01*
X129817436Y-101222922D01*
X130257892Y-101716522D02*
X130140171Y-102078829D01*
X130530765Y-101955393D02*
X129715574Y-101690521D01*
X129610282Y-101706379D01*
X129535563Y-101782241D01*
X129506133Y-101872818D01*
X153717238Y-80573619D02*
X153717238Y-81573619D01*
X153479142Y-81573619D01*
X153336285Y-81526000D01*
X153241047Y-81430761D01*
X153193428Y-81335523D01*
X153145809Y-81145047D01*
X153145809Y-81002190D01*
X153193428Y-80811714D01*
X153241047Y-80716476D01*
X153336285Y-80621238D01*
X153479142Y-80573619D01*
X153717238Y-80573619D01*
X152288666Y-80573619D02*
X152288666Y-81097428D01*
X152336285Y-81192666D01*
X152431523Y-81240285D01*
X152622000Y-81240285D01*
X152717238Y-81192666D01*
X152288666Y-80621238D02*
X152383904Y-80573619D01*
X152622000Y-80573619D01*
X152717238Y-80621238D01*
X152764857Y-80716476D01*
X152764857Y-80811714D01*
X152717238Y-80906952D01*
X152622000Y-80954571D01*
X152383904Y-80954571D01*
X152288666Y-81002190D01*
X151955333Y-81240285D02*
X151574380Y-81240285D01*
X151812476Y-81573619D02*
X151812476Y-80716476D01*
X151764857Y-80621238D01*
X151669619Y-80573619D01*
X151574380Y-80573619D01*
X150812476Y-80573619D02*
X150812476Y-81097428D01*
X150860095Y-81192666D01*
X150955333Y-81240285D01*
X151145809Y-81240285D01*
X151241047Y-81192666D01*
X150812476Y-80621238D02*
X150907714Y-80573619D01*
X151145809Y-80573619D01*
X151241047Y-80621238D01*
X151288666Y-80716476D01*
X151288666Y-80811714D01*
X151241047Y-80906952D01*
X151145809Y-80954571D01*
X150907714Y-80954571D01*
X150812476Y-81002190D01*
X149383904Y-81573619D02*
X149193428Y-81573619D01*
X149098190Y-81526000D01*
X149002952Y-81430761D01*
X148955333Y-81240285D01*
X148955333Y-80906952D01*
X149002952Y-80716476D01*
X149098190Y-80621238D01*
X149193428Y-80573619D01*
X149383904Y-80573619D01*
X149479142Y-80621238D01*
X149574380Y-80716476D01*
X149622000Y-80906952D01*
X149622000Y-81240285D01*
X149574380Y-81430761D01*
X149479142Y-81526000D01*
X149383904Y-81573619D01*
X148098190Y-81240285D02*
X148098190Y-80573619D01*
X148526761Y-81240285D02*
X148526761Y-80716476D01*
X148479142Y-80621238D01*
X148383904Y-80573619D01*
X148241047Y-80573619D01*
X148145809Y-80621238D01*
X148098190Y-80668857D01*
X147764857Y-81240285D02*
X147383904Y-81240285D01*
X147622000Y-81573619D02*
X147622000Y-80716476D01*
X147574380Y-80621238D01*
X147479142Y-80573619D01*
X147383904Y-80573619D01*
X135779190Y-109672380D02*
X135779190Y-108672380D01*
X136017285Y-108672380D01*
X136160142Y-108720000D01*
X136255380Y-108815238D01*
X136303000Y-108910476D01*
X136350619Y-109100952D01*
X136350619Y-109243809D01*
X136303000Y-109434285D01*
X136255380Y-109529523D01*
X136160142Y-109624761D01*
X136017285Y-109672380D01*
X135779190Y-109672380D01*
X137207761Y-109672380D02*
X137207761Y-109148571D01*
X137160142Y-109053333D01*
X137064904Y-109005714D01*
X136874428Y-109005714D01*
X136779190Y-109053333D01*
X137207761Y-109624761D02*
X137112523Y-109672380D01*
X136874428Y-109672380D01*
X136779190Y-109624761D01*
X136731571Y-109529523D01*
X136731571Y-109434285D01*
X136779190Y-109339047D01*
X136874428Y-109291428D01*
X137112523Y-109291428D01*
X137207761Y-109243809D01*
X137541095Y-109005714D02*
X137922047Y-109005714D01*
X137683952Y-108672380D02*
X137683952Y-109529523D01*
X137731571Y-109624761D01*
X137826809Y-109672380D01*
X137922047Y-109672380D01*
X138683952Y-109672380D02*
X138683952Y-109148571D01*
X138636333Y-109053333D01*
X138541095Y-109005714D01*
X138350619Y-109005714D01*
X138255380Y-109053333D01*
X138683952Y-109624761D02*
X138588714Y-109672380D01*
X138350619Y-109672380D01*
X138255380Y-109624761D01*
X138207761Y-109529523D01*
X138207761Y-109434285D01*
X138255380Y-109339047D01*
X138350619Y-109291428D01*
X138588714Y-109291428D01*
X138683952Y-109243809D01*
X139922047Y-109672380D02*
X139922047Y-108672380D01*
X140398238Y-109005714D02*
X140398238Y-109672380D01*
X140398238Y-109100952D02*
X140445857Y-109053333D01*
X140541095Y-109005714D01*
X140683952Y-109005714D01*
X140779190Y-109053333D01*
X140826809Y-109148571D01*
X140826809Y-109672380D01*
D11*
X162607889Y-101684132D02*
X161702121Y-101389830D01*
X162965624Y-101199531D02*
X161713552Y-102895633D01*
X161697549Y-100787508D01*
X144192761Y-79057428D02*
X144192761Y-77914571D01*
X146192761Y-78486000D02*
X144192761Y-78486000D01*
X126631977Y-102507377D02*
X126751984Y-102446231D01*
X127053144Y-102443944D01*
X127234298Y-102502805D01*
X127476598Y-102681672D01*
X127598891Y-102921686D01*
X127630608Y-103132270D01*
X127603464Y-103524007D01*
X127515173Y-103795738D01*
X127306876Y-104128615D01*
X127157439Y-104280338D01*
X126917425Y-104402631D01*
X126616264Y-104404918D01*
X126435110Y-104346057D01*
X126192810Y-104167190D01*
X126131663Y-104047183D01*
X131842000Y-110982190D02*
X131746761Y-111172666D01*
X131746761Y-111458380D01*
X131842000Y-111744095D01*
X132032476Y-111934571D01*
X132222952Y-112029809D01*
X132603904Y-112125047D01*
X132889619Y-112125047D01*
X133270571Y-112029809D01*
X133461047Y-111934571D01*
X133651523Y-111744095D01*
X133746761Y-111458380D01*
X133746761Y-111267904D01*
X133651523Y-110982190D01*
X133556285Y-110886952D01*
X132889619Y-110886952D01*
X132889619Y-111267904D01*
D12*
X129813113Y-86447621D02*
G75*
G02*
X149851620Y-114028260I-8961493J-27580639D01*
G01*
X130137581Y-85449012D02*
G75*
G02*
X150901620Y-114028260I-9285961J-28579248D01*
G01*
X170125219Y-85487055D02*
G75*
G02*
X163222299Y-75986000I3087080J9501055D01*
G01*
D13*
%TO.C,C4*%
X137192407Y-94090295D02*
X137689338Y-94251758D01*
X137646662Y-92692242D02*
X138143593Y-92853705D01*
%TO.C,C2*%
X135536000Y-104803752D02*
X135536000Y-104281248D01*
X137006000Y-104803752D02*
X137006000Y-104281248D01*
D14*
%TO.C,SW1*%
X146520116Y-99185290D02*
G75*
G03*
X146520116Y-99185290I-223607J0D01*
G01*
D13*
X150495260Y-90077986D02*
X150090752Y-90371879D01*
X152846401Y-93314054D02*
X150495260Y-90077986D01*
X152441893Y-93607947D02*
X152846401Y-93314054D01*
X142809599Y-95661946D02*
X143011853Y-95515000D01*
X144866847Y-98493505D02*
X142809599Y-95661946D01*
X145160740Y-98898014D02*
X144866847Y-98493505D01*
X145565248Y-98604121D02*
X145160740Y-98898014D01*
%TO.C,C1*%
X156939593Y-95774705D02*
X156442662Y-95613242D01*
X156485338Y-97172758D02*
X155988407Y-97011295D01*
%TO.C,J1*%
X165065311Y-92969682D02*
X166330216Y-93380674D01*
X166330216Y-93380674D02*
X165919223Y-94645580D01*
X165526772Y-95853421D02*
X163938424Y-100741852D01*
X161408614Y-99919867D02*
X163938424Y-100741852D01*
X162996961Y-95031436D02*
X161408614Y-99919867D01*
X162996961Y-95031436D02*
X165526772Y-95853421D01*
%TO.C,J2*%
X139581620Y-110198260D02*
X139581620Y-112858260D01*
X139581620Y-110198260D02*
X134441620Y-110198260D01*
X134441620Y-110198260D02*
X134441620Y-112858260D01*
X139581620Y-112858260D02*
X134441620Y-112858260D01*
X142181620Y-112858260D02*
X140851620Y-112858260D01*
X142181620Y-111528260D02*
X142181620Y-112858260D01*
%TO.C,J3*%
X151942300Y-77156000D02*
X151942300Y-79816000D01*
X151942300Y-77156000D02*
X146802300Y-77156000D01*
X146802300Y-77156000D02*
X146802300Y-79816000D01*
X151942300Y-79816000D02*
X146802300Y-79816000D01*
X154542300Y-79816000D02*
X153212300Y-79816000D01*
X154542300Y-78486000D02*
X154542300Y-79816000D01*
%TO.C,J4*%
X129820594Y-94514767D02*
X131085499Y-94925759D01*
X131085499Y-94925759D02*
X130674506Y-96190665D01*
X130282055Y-97398506D02*
X128693707Y-102286937D01*
X126163897Y-101464952D02*
X128693707Y-102286937D01*
X127752244Y-96576521D02*
X126163897Y-101464952D01*
X127752244Y-96576521D02*
X130282055Y-97398506D01*
%TO.C,JP1*%
X142007869Y-88916003D02*
X144273117Y-87270205D01*
X145210427Y-87454456D02*
X145563098Y-87939866D01*
X145448687Y-88888239D02*
X143183439Y-90534037D01*
X142246129Y-90349786D02*
X141893458Y-89864376D01*
X143462800Y-90578284D02*
X143396430Y-90997324D01*
X143396430Y-90997324D02*
X143881841Y-90644653D01*
X143462800Y-90578284D02*
X143881841Y-90644653D01*
X141893457Y-89864375D02*
G75*
G02*
X142048320Y-88886614I566312J411449D01*
G01*
X143223891Y-90504648D02*
G75*
G02*
X142246129Y-90349786I-411450J566312D01*
G01*
X145563099Y-87939867D02*
G75*
G02*
X145408236Y-88917628I-566312J-411449D01*
G01*
X144232665Y-87299594D02*
G75*
G02*
X145210427Y-87454456I411450J-566312D01*
G01*
%TO.C,JP2*%
X151118522Y-102006163D02*
X151537563Y-102072532D01*
X151052152Y-102425203D02*
X151537563Y-102072532D01*
X151118522Y-102006163D02*
X151052152Y-102425203D01*
X149901851Y-101777665D02*
X149549180Y-101292255D01*
X153104409Y-100316118D02*
X150839161Y-101961916D01*
X152866149Y-98882335D02*
X153218820Y-99367745D01*
X149663591Y-100343882D02*
X151928839Y-98698084D01*
X151888387Y-98727473D02*
G75*
G02*
X152866149Y-98882335I411450J-566312D01*
G01*
X153218821Y-99367746D02*
G75*
G02*
X153063958Y-100345507I-566312J-411449D01*
G01*
X150879613Y-101932527D02*
G75*
G02*
X149901851Y-101777665I-411450J566312D01*
G01*
X149549179Y-101292254D02*
G75*
G02*
X149704042Y-100314493I566312J411449D01*
G01*
%TO.C,C3*%
X147601000Y-84716252D02*
X147601000Y-84193748D01*
X149071000Y-84716252D02*
X149071000Y-84193748D01*
%TO.C,D1*%
X162215768Y-89604418D02*
X159959944Y-96547131D01*
X156984958Y-87904825D02*
X154729134Y-94847538D01*
X154729134Y-94847538D02*
X155822849Y-95202907D01*
%TO.C,D2*%
X137201620Y-102278260D02*
X137201620Y-103428260D01*
X144501620Y-102278260D02*
X137201620Y-102278260D01*
X144501620Y-107778260D02*
X137201620Y-107778260D01*
%TO.C,D3*%
X149562300Y-82236000D02*
X149562300Y-83386000D01*
X156862300Y-82236000D02*
X149562300Y-82236000D01*
X156862300Y-87736000D02*
X149562300Y-87736000D01*
%TO.C,D4*%
X131848151Y-100409842D02*
X134103975Y-93467129D01*
X137078961Y-102109435D02*
X139334785Y-95166722D01*
X139334785Y-95166722D02*
X138241070Y-94811353D01*
%TO.C,M2.1*%
D10*
X139482718Y-77738379D02*
X139482718Y-76738379D01*
X139816051Y-77452665D01*
X140149385Y-76738379D01*
X140149385Y-77738379D01*
X140577956Y-76833618D02*
X140625575Y-76785999D01*
X140720813Y-76738379D01*
X140958908Y-76738379D01*
X141054147Y-76785999D01*
X141101766Y-76833618D01*
X141149385Y-76928856D01*
X141149385Y-77024094D01*
X141101766Y-77166951D01*
X140530337Y-77738379D01*
X141149385Y-77738379D01*
X141577956Y-77643141D02*
X141625575Y-77690760D01*
X141577956Y-77738379D01*
X141530337Y-77690760D01*
X141577956Y-77643141D01*
X141577956Y-77738379D01*
X142577956Y-77738379D02*
X142006528Y-77738379D01*
X142292242Y-77738379D02*
X142292242Y-76738379D01*
X142197004Y-76881237D01*
X142101766Y-76976475D01*
X142006528Y-77024094D01*
X167259190Y-83510380D02*
X167259190Y-82510380D01*
X167592523Y-83224666D01*
X167925857Y-82510380D01*
X167925857Y-83510380D01*
X168354428Y-82605619D02*
X168402047Y-82558000D01*
X168497285Y-82510380D01*
X168735380Y-82510380D01*
X168830619Y-82558000D01*
X168878238Y-82605619D01*
X168925857Y-82700857D01*
X168925857Y-82796095D01*
X168878238Y-82938952D01*
X168306809Y-83510380D01*
X168925857Y-83510380D01*
X169354428Y-83415142D02*
X169402047Y-83462761D01*
X169354428Y-83510380D01*
X169306809Y-83462761D01*
X169354428Y-83415142D01*
X169354428Y-83510380D01*
X170354428Y-83510380D02*
X169783000Y-83510380D01*
X170068714Y-83510380D02*
X170068714Y-82510380D01*
X169973476Y-82653238D01*
X169878238Y-82748476D01*
X169783000Y-82796095D01*
X151533582Y-106780641D02*
X151533582Y-105780641D01*
X151866915Y-106494927D01*
X152200249Y-105780641D01*
X152200249Y-106780641D01*
X152628820Y-105875880D02*
X152676439Y-105828261D01*
X152771677Y-105780641D01*
X153009772Y-105780641D01*
X153105011Y-105828261D01*
X153152630Y-105875880D01*
X153200249Y-105971118D01*
X153200249Y-106066356D01*
X153152630Y-106209213D01*
X152581201Y-106780641D01*
X153200249Y-106780641D01*
X153628820Y-106685403D02*
X153676439Y-106733022D01*
X153628820Y-106780641D01*
X153581201Y-106733022D01*
X153628820Y-106685403D01*
X153628820Y-106780641D01*
X154628820Y-106780641D02*
X154057392Y-106780641D01*
X154343106Y-106780641D02*
X154343106Y-105780641D01*
X154247868Y-105923499D01*
X154152630Y-106018737D01*
X154057392Y-106066356D01*
%TO.C,MH*%
X156567766Y-108126539D02*
X156567766Y-107126539D01*
X156901099Y-107840825D01*
X157234432Y-107126539D01*
X157234432Y-108126539D01*
X157710623Y-108126539D02*
X157710623Y-107126539D01*
X157710623Y-107602730D02*
X158282051Y-107602730D01*
X158282051Y-108126539D02*
X158282051Y-107126539D01*
X135981868Y-79792481D02*
X135981868Y-78792481D01*
X136315201Y-79506767D01*
X136648534Y-78792481D01*
X136648534Y-79792481D01*
X137124725Y-79792481D02*
X137124725Y-78792481D01*
X137124725Y-79268672D02*
X137696153Y-79268672D01*
X137696153Y-79792481D02*
X137696153Y-78792481D01*
%TO.C,M2.1*%
X124181911Y-107753929D02*
X124181911Y-106753929D01*
X124515244Y-107468215D01*
X124848578Y-106753929D01*
X124848578Y-107753929D01*
X125277149Y-106849168D02*
X125324768Y-106801549D01*
X125420006Y-106753929D01*
X125658101Y-106753929D01*
X125753340Y-106801549D01*
X125800959Y-106849168D01*
X125848578Y-106944406D01*
X125848578Y-107039644D01*
X125800959Y-107182501D01*
X125229530Y-107753929D01*
X125848578Y-107753929D01*
X126277149Y-107658691D02*
X126324768Y-107706310D01*
X126277149Y-107753929D01*
X126229530Y-107706310D01*
X126277149Y-107658691D01*
X126277149Y-107753929D01*
X127277149Y-107753929D02*
X126705721Y-107753929D01*
X126991435Y-107753929D02*
X126991435Y-106753929D01*
X126896197Y-106896787D01*
X126800959Y-106992025D01*
X126705721Y-107039644D01*
%TO.C,C4*%
X137918276Y-92162385D02*
X137858272Y-92192958D01*
X137707692Y-92194101D01*
X137617115Y-92164671D01*
X137495965Y-92075237D01*
X137434819Y-91955230D01*
X137418960Y-91849938D01*
X137432532Y-91654070D01*
X137476678Y-91518204D01*
X137580826Y-91351766D01*
X137655545Y-91275904D01*
X137775552Y-91214758D01*
X137926132Y-91213614D01*
X138016709Y-91243045D01*
X138137859Y-91332478D01*
X138168432Y-91392482D01*
X138910048Y-91883796D02*
X138704037Y-92517833D01*
X138801327Y-91447913D02*
X138354159Y-92053663D01*
X138942908Y-92244960D01*
%TO.C,C2*%
X134723142Y-105471166D02*
X134770761Y-105518785D01*
X134818380Y-105661642D01*
X134818380Y-105756880D01*
X134770761Y-105899738D01*
X134675523Y-105994976D01*
X134580285Y-106042595D01*
X134389809Y-106090214D01*
X134246952Y-106090214D01*
X134056476Y-106042595D01*
X133961238Y-105994976D01*
X133866000Y-105899738D01*
X133818380Y-105756880D01*
X133818380Y-105661642D01*
X133866000Y-105518785D01*
X133913619Y-105471166D01*
X133913619Y-105090214D02*
X133866000Y-105042595D01*
X133818380Y-104947357D01*
X133818380Y-104709261D01*
X133866000Y-104614023D01*
X133913619Y-104566404D01*
X134008857Y-104518785D01*
X134104095Y-104518785D01*
X134246952Y-104566404D01*
X134818380Y-105137833D01*
X134818380Y-104518785D01*
%TO.C,SW1*%
X142144827Y-96949223D02*
X142190271Y-97092787D01*
X142330220Y-97285410D01*
X142424724Y-97334469D01*
X142491239Y-97345004D01*
X142596278Y-97327549D01*
X142673327Y-97271570D01*
X142722386Y-97177066D01*
X142732921Y-97110551D01*
X142715466Y-97005512D01*
X142642032Y-96823424D01*
X142624577Y-96718385D01*
X142635112Y-96651871D01*
X142684171Y-96557366D01*
X142761220Y-96501387D01*
X142866259Y-96483932D01*
X142932774Y-96494467D01*
X143027278Y-96543526D01*
X143167227Y-96736149D01*
X143212672Y-96879713D01*
X143447125Y-97121396D02*
X142778057Y-97901804D01*
X143467885Y-97636056D01*
X143001975Y-98210001D01*
X143950941Y-97814839D01*
X143673729Y-99134592D02*
X143337852Y-98672296D01*
X143505791Y-98903444D02*
X144314808Y-98315659D01*
X144143254Y-98322579D01*
X144010225Y-98301509D01*
X143915721Y-98252450D01*
%TO.C,C1*%
X155675978Y-98278935D02*
X155615974Y-98309508D01*
X155465394Y-98310651D01*
X155374817Y-98281221D01*
X155253667Y-98191787D01*
X155192521Y-98071780D01*
X155176662Y-97966488D01*
X155190234Y-97770620D01*
X155234380Y-97634754D01*
X155338528Y-97468316D01*
X155413247Y-97392454D01*
X155533254Y-97331308D01*
X155683834Y-97330164D01*
X155774411Y-97359595D01*
X155895561Y-97449028D01*
X155926134Y-97509032D01*
X156552316Y-98663813D02*
X156008855Y-98487232D01*
X156280585Y-98575523D02*
X156589602Y-97624466D01*
X156454880Y-97730901D01*
X156334873Y-97792048D01*
X156229581Y-97807906D01*
%TO.C,J1*%
X165362499Y-90976337D02*
X165141773Y-91655663D01*
X165052339Y-91776813D01*
X164932332Y-91837960D01*
X164781752Y-91839103D01*
X164691175Y-91809673D01*
X166004539Y-92236411D02*
X165461078Y-92059830D01*
X165732808Y-92148120D02*
X166041825Y-91197064D01*
X165907103Y-91303499D01*
X165787096Y-91364645D01*
X165681804Y-91380503D01*
%TO.C,J2*%
X143074000Y-111861593D02*
X143788286Y-111861593D01*
X143931143Y-111909212D01*
X144026381Y-112004450D01*
X144074000Y-112147307D01*
X144074000Y-112242545D01*
X143169239Y-111433021D02*
X143121620Y-111385402D01*
X143074000Y-111290164D01*
X143074000Y-111052069D01*
X143121620Y-110956831D01*
X143169239Y-110909212D01*
X143264477Y-110861593D01*
X143359715Y-110861593D01*
X143502572Y-110909212D01*
X144074000Y-111480640D01*
X144074000Y-110861593D01*
%TO.C,J3*%
X155434680Y-78819333D02*
X156148966Y-78819333D01*
X156291823Y-78866952D01*
X156387061Y-78962190D01*
X156434680Y-79105047D01*
X156434680Y-79200285D01*
X155434680Y-78438380D02*
X155434680Y-77819333D01*
X155815633Y-78152666D01*
X155815633Y-78009809D01*
X155863252Y-77914571D01*
X155910871Y-77866952D01*
X156006109Y-77819333D01*
X156244204Y-77819333D01*
X156339442Y-77866952D01*
X156387061Y-77914571D01*
X156434680Y-78009809D01*
X156434680Y-78295523D01*
X156387061Y-78390761D01*
X156339442Y-78438380D01*
%TO.C,J4*%
X130117782Y-92521422D02*
X129897056Y-93200748D01*
X129807622Y-93321898D01*
X129687615Y-93383045D01*
X129537035Y-93384188D01*
X129446458Y-93354758D01*
X130875256Y-93118028D02*
X130669245Y-93752065D01*
X130766535Y-92682145D02*
X130319367Y-93287896D01*
X130908116Y-93479192D01*
%TO.C,JP1*%
X141674201Y-87492677D02*
X142094048Y-88070547D01*
X142139493Y-88214110D01*
X142118423Y-88347139D01*
X142030839Y-88469633D01*
X141953790Y-88525613D01*
X142647233Y-88021797D02*
X142059447Y-87212780D01*
X142367644Y-86988861D01*
X142472683Y-86971407D01*
X142539198Y-86981941D01*
X142633702Y-87031001D01*
X142717671Y-87146575D01*
X142735126Y-87251614D01*
X142724591Y-87318128D01*
X142675532Y-87412632D01*
X142367335Y-87636550D01*
X143880021Y-87126124D02*
X143417725Y-87462001D01*
X143648873Y-87294063D02*
X143061088Y-86485046D01*
X143068008Y-86656599D01*
X143046938Y-86789628D01*
X142997878Y-86884132D01*
%TO.C,JP2*%
X149329923Y-98920556D02*
X149749770Y-99498426D01*
X149795215Y-99641989D01*
X149774145Y-99775018D01*
X149686561Y-99897512D01*
X149609512Y-99953492D01*
X150302955Y-99449676D02*
X149715169Y-98640659D01*
X150023366Y-98416740D01*
X150128405Y-98399286D01*
X150194920Y-98409820D01*
X150289424Y-98458880D01*
X150373393Y-98574454D01*
X150390848Y-98679493D01*
X150380313Y-98746007D01*
X150331254Y-98840511D01*
X150023057Y-99064429D01*
X150541641Y-98157912D02*
X150552176Y-98091398D01*
X150601236Y-97996894D01*
X150793859Y-97856945D01*
X150898898Y-97839490D01*
X150965412Y-97850025D01*
X151059916Y-97899084D01*
X151115896Y-97976134D01*
X151161341Y-98119697D01*
X151034922Y-98917870D01*
X151535743Y-98554003D01*
%TO.C,C3*%
X147013142Y-84621666D02*
X147060761Y-84669285D01*
X147108380Y-84812142D01*
X147108380Y-84907380D01*
X147060761Y-85050238D01*
X146965523Y-85145476D01*
X146870285Y-85193095D01*
X146679809Y-85240714D01*
X146536952Y-85240714D01*
X146346476Y-85193095D01*
X146251238Y-85145476D01*
X146156000Y-85050238D01*
X146108380Y-84907380D01*
X146108380Y-84812142D01*
X146156000Y-84669285D01*
X146203619Y-84621666D01*
X146108380Y-84288333D02*
X146108380Y-83669285D01*
X146489333Y-84002619D01*
X146489333Y-83859761D01*
X146536952Y-83764523D01*
X146584571Y-83716904D01*
X146679809Y-83669285D01*
X146917904Y-83669285D01*
X147013142Y-83716904D01*
X147060761Y-83764523D01*
X147108380Y-83859761D01*
X147108380Y-84145476D01*
X147060761Y-84240714D01*
X147013142Y-84288333D01*
%TO.C,D1*%
X162003304Y-94149300D02*
X161052248Y-93840283D01*
X161125823Y-93613841D01*
X161215257Y-93492691D01*
X161335264Y-93431544D01*
X161440556Y-93415686D01*
X161636425Y-93429258D01*
X161772290Y-93473403D01*
X161938728Y-93577552D01*
X162014590Y-93652271D01*
X162075737Y-93772278D01*
X162076880Y-93922858D01*
X162003304Y-94149300D01*
X162474187Y-92700071D02*
X162297606Y-93243532D01*
X162385897Y-92971802D02*
X161434840Y-92662785D01*
X161541275Y-92797507D01*
X161602422Y-92917514D01*
X161618280Y-93022806D01*
%TO.C,D2*%
X140113524Y-108980640D02*
X140113524Y-107980640D01*
X140351620Y-107980640D01*
X140494477Y-108028260D01*
X140589715Y-108123498D01*
X140637334Y-108218736D01*
X140684953Y-108409212D01*
X140684953Y-108552069D01*
X140637334Y-108742545D01*
X140589715Y-108837783D01*
X140494477Y-108933021D01*
X140351620Y-108980640D01*
X140113524Y-108980640D01*
X141065905Y-108075879D02*
X141113524Y-108028260D01*
X141208762Y-107980640D01*
X141446858Y-107980640D01*
X141542096Y-108028260D01*
X141589715Y-108075879D01*
X141637334Y-108171117D01*
X141637334Y-108266355D01*
X141589715Y-108409212D01*
X141018286Y-108980640D01*
X141637334Y-108980640D01*
%TO.C,D3*%
X152474204Y-88938380D02*
X152474204Y-87938380D01*
X152712300Y-87938380D01*
X152855157Y-87986000D01*
X152950395Y-88081238D01*
X152998014Y-88176476D01*
X153045633Y-88366952D01*
X153045633Y-88509809D01*
X152998014Y-88700285D01*
X152950395Y-88795523D01*
X152855157Y-88890761D01*
X152712300Y-88938380D01*
X152474204Y-88938380D01*
X153378966Y-87938380D02*
X153998014Y-87938380D01*
X153664680Y-88319333D01*
X153807538Y-88319333D01*
X153902776Y-88366952D01*
X153950395Y-88414571D01*
X153998014Y-88509809D01*
X153998014Y-88747904D01*
X153950395Y-88843142D01*
X153902776Y-88890761D01*
X153807538Y-88938380D01*
X153521823Y-88938380D01*
X153426585Y-88890761D01*
X153378966Y-88843142D01*
%TO.C,D4*%
X139394155Y-99393763D02*
X138443099Y-99084746D01*
X138516674Y-98858304D01*
X138606108Y-98737154D01*
X138726115Y-98676007D01*
X138831407Y-98660149D01*
X139027276Y-98673721D01*
X139163141Y-98717866D01*
X139329579Y-98822015D01*
X139405441Y-98896734D01*
X139466588Y-99016741D01*
X139467731Y-99167321D01*
X139394155Y-99393763D01*
X139201571Y-97829100D02*
X139835608Y-98035111D01*
X138765688Y-97937821D02*
X139371438Y-98384989D01*
X139562735Y-97796240D01*
%TD*%
%LPC*%
D15*
%TO.C,M2.1*%
X141006528Y-80485999D03*
%TD*%
%TO.C,M2.1*%
X168358198Y-79512711D03*
%TD*%
%TO.C,M2.1*%
X153057392Y-109528261D03*
%TD*%
D16*
%TO.C,MH*%
X157324909Y-109174159D03*
%TD*%
%TO.C,MH*%
X136739011Y-80840101D03*
%TD*%
D15*
%TO.C,M2.1*%
X125705721Y-110501549D03*
%TD*%
%TO.C,C4*%
G36*
G01*
X135975750Y-93421600D02*
X136269316Y-92518096D01*
G75*
G02*
X136584334Y-92357586I237764J-77254D01*
G01*
X137226298Y-92566172D01*
G75*
G02*
X137386808Y-92881190I-77254J-237764D01*
G01*
X137093242Y-93784694D01*
G75*
G02*
X136778224Y-93945204I-237764J77254D01*
G01*
X136136260Y-93736618D01*
G75*
G02*
X135975750Y-93421600I77254J237764D01*
G01*
G37*
G36*
G01*
X137949192Y-94062810D02*
X138242758Y-93159306D01*
G75*
G02*
X138557776Y-92998796I237764J-77254D01*
G01*
X139199740Y-93207382D01*
G75*
G02*
X139360250Y-93522400I-77254J-237764D01*
G01*
X139066684Y-94425904D01*
G75*
G02*
X138751666Y-94586414I-237764J77254D01*
G01*
X138109702Y-94377828D01*
G75*
G02*
X137949192Y-94062810I77254J237764D01*
G01*
G37*
%TD*%
%TO.C,C2*%
G36*
G01*
X136746000Y-106167500D02*
X135796000Y-106167500D01*
G75*
G02*
X135546000Y-105917500I0J250000D01*
G01*
X135546000Y-105242500D01*
G75*
G02*
X135796000Y-104992500I250000J0D01*
G01*
X136746000Y-104992500D01*
G75*
G02*
X136996000Y-105242500I0J-250000D01*
G01*
X136996000Y-105917500D01*
G75*
G02*
X136746000Y-106167500I-250000J0D01*
G01*
G37*
G36*
G01*
X136746000Y-104092500D02*
X135796000Y-104092500D01*
G75*
G02*
X135546000Y-103842500I0J250000D01*
G01*
X135546000Y-103167500D01*
G75*
G02*
X135796000Y-102917500I250000J0D01*
G01*
X136746000Y-102917500D01*
G75*
G02*
X136996000Y-103167500I0J-250000D01*
G01*
X136996000Y-103842500D01*
G75*
G02*
X136746000Y-104092500I-250000J0D01*
G01*
G37*
%TD*%
D17*
%TO.C,SW1*%
G36*
X149208099Y-91198574D02*
G01*
X148318180Y-91845137D01*
X147171999Y-90267554D01*
X148061918Y-89620991D01*
X149208099Y-91198574D01*
G37*
G36*
X147185557Y-92668037D02*
G01*
X146295638Y-93314600D01*
X145149457Y-91737017D01*
X146039376Y-91090454D01*
X147185557Y-92668037D01*
G37*
G36*
X145163014Y-94137500D02*
G01*
X144273095Y-94784063D01*
X143126914Y-93206480D01*
X144016833Y-92559917D01*
X145163014Y-94137500D01*
G37*
G36*
X152529086Y-95769520D02*
G01*
X151639167Y-96416083D01*
X150492986Y-94838500D01*
X151382905Y-94191937D01*
X152529086Y-95769520D01*
G37*
G36*
X150506543Y-97238983D02*
G01*
X149616624Y-97885546D01*
X148470443Y-96307963D01*
X149360362Y-95661400D01*
X150506543Y-97238983D01*
G37*
G36*
X148484001Y-98708446D02*
G01*
X147594082Y-99355009D01*
X146447901Y-97777426D01*
X147337820Y-97130863D01*
X148484001Y-98708446D01*
G37*
%TD*%
%TO.C,C1*%
G36*
G01*
X156182808Y-95802190D02*
X155889242Y-96705694D01*
G75*
G02*
X155574224Y-96866204I-237764J77254D01*
G01*
X154932260Y-96657618D01*
G75*
G02*
X154771750Y-96342600I77254J237764D01*
G01*
X155065316Y-95439096D01*
G75*
G02*
X155380334Y-95278586I237764J-77254D01*
G01*
X156022298Y-95487172D01*
G75*
G02*
X156182808Y-95802190I-77254J-237764D01*
G01*
G37*
G36*
G01*
X158156250Y-96443400D02*
X157862684Y-97346904D01*
G75*
G02*
X157547666Y-97507414I-237764J77254D01*
G01*
X156905702Y-97298828D01*
G75*
G02*
X156745192Y-96983810I77254J237764D01*
G01*
X157038758Y-96080306D01*
G75*
G02*
X157353776Y-95919796I237764J-77254D01*
G01*
X157995740Y-96128382D01*
G75*
G02*
X158156250Y-96443400I-77254J-237764D01*
G01*
G37*
%TD*%
%TO.C,J1*%
G36*
G01*
X162276114Y-98803290D02*
X162276114Y-98803290D01*
G75*
G02*
X163347176Y-98257556I808398J-262664D01*
G01*
X163347176Y-98257556D01*
G75*
G02*
X163892910Y-99328618I-262664J-808398D01*
G01*
X163892910Y-99328618D01*
G75*
G02*
X162821848Y-99874352I-808398J262664D01*
G01*
X162821848Y-99874352D01*
G75*
G02*
X162276114Y-98803290I262664J808398D01*
G01*
G37*
G36*
G01*
X163061017Y-96387607D02*
X163061017Y-96387607D01*
G75*
G02*
X164132079Y-95841873I808398J-262664D01*
G01*
X164132079Y-95841873D01*
G75*
G02*
X164677813Y-96912935I-262664J-808398D01*
G01*
X164677813Y-96912935D01*
G75*
G02*
X163606751Y-97458669I-808398J262664D01*
G01*
X163606751Y-97458669D01*
G75*
G02*
X163061017Y-96387607I262664J808398D01*
G01*
G37*
G36*
X163583256Y-94780321D02*
G01*
X164108584Y-93163525D01*
X165725380Y-93688853D01*
X165200052Y-95305649D01*
X163583256Y-94780321D01*
G37*
%TD*%
D18*
%TO.C,J2*%
X140851620Y-111528260D03*
D19*
X138311620Y-111528260D03*
X135771620Y-111528260D03*
%TD*%
D18*
%TO.C,J3*%
X153212300Y-78486000D03*
D19*
X150672300Y-78486000D03*
X148132300Y-78486000D03*
%TD*%
%TO.C,J4*%
G36*
G01*
X127031397Y-100348375D02*
X127031397Y-100348375D01*
G75*
G02*
X128102459Y-99802641I808398J-262664D01*
G01*
X128102459Y-99802641D01*
G75*
G02*
X128648193Y-100873703I-262664J-808398D01*
G01*
X128648193Y-100873703D01*
G75*
G02*
X127577131Y-101419437I-808398J262664D01*
G01*
X127577131Y-101419437D01*
G75*
G02*
X127031397Y-100348375I262664J808398D01*
G01*
G37*
G36*
G01*
X127816300Y-97932692D02*
X127816300Y-97932692D01*
G75*
G02*
X128887362Y-97386958I808398J-262664D01*
G01*
X128887362Y-97386958D01*
G75*
G02*
X129433096Y-98458020I-262664J-808398D01*
G01*
X129433096Y-98458020D01*
G75*
G02*
X128362034Y-99003754I-808398J262664D01*
G01*
X128362034Y-99003754D01*
G75*
G02*
X127816300Y-97932692I262664J808398D01*
G01*
G37*
D17*
G36*
X128338539Y-96325406D02*
G01*
X128863867Y-94708610D01*
X130480663Y-95233938D01*
X129955335Y-96850734D01*
X128338539Y-96325406D01*
G37*
%TD*%
%TO.C,JP1*%
G36*
X143764608Y-89802776D02*
G01*
X142882931Y-88589251D01*
X143691948Y-88001466D01*
X144573625Y-89214991D01*
X143764608Y-89802776D01*
G37*
G36*
X144339515Y-87531724D02*
G01*
X144359363Y-87517304D01*
X144401696Y-87492493D01*
X144446256Y-87471950D01*
X144492616Y-87455874D01*
X144540328Y-87444419D01*
X144588932Y-87437697D01*
X144637962Y-87435769D01*
X144686944Y-87438658D01*
X144735409Y-87446335D01*
X144782886Y-87458723D01*
X144828921Y-87475707D01*
X144873070Y-87497120D01*
X144914907Y-87522758D01*
X144954030Y-87552373D01*
X144990061Y-87585681D01*
X145022654Y-87622359D01*
X145037075Y-87642207D01*
X145037562Y-87641853D01*
X145331455Y-88046362D01*
X145330968Y-88046715D01*
X145345389Y-88066564D01*
X145370199Y-88108896D01*
X145390743Y-88153456D01*
X145406818Y-88199816D01*
X145418274Y-88247528D01*
X145424995Y-88296133D01*
X145426923Y-88345163D01*
X145424034Y-88394145D01*
X145416358Y-88442610D01*
X145403969Y-88490087D01*
X145386985Y-88536122D01*
X145365572Y-88580270D01*
X145339934Y-88622107D01*
X145310319Y-88661230D01*
X145277011Y-88697261D01*
X145240334Y-88729855D01*
X145220485Y-88744276D01*
X145220839Y-88744763D01*
X144775880Y-89068045D01*
X143894202Y-87854519D01*
X144339161Y-87531237D01*
X144339515Y-87531724D01*
G37*
G36*
X143562354Y-89949723D02*
G01*
X143117395Y-90273005D01*
X143117041Y-90272518D01*
X143097193Y-90286938D01*
X143054860Y-90311749D01*
X143010300Y-90332292D01*
X142963940Y-90348368D01*
X142916228Y-90359823D01*
X142867624Y-90366545D01*
X142818594Y-90368473D01*
X142769612Y-90365584D01*
X142721147Y-90357907D01*
X142673670Y-90345519D01*
X142627635Y-90328535D01*
X142583486Y-90307122D01*
X142541649Y-90281484D01*
X142502526Y-90251869D01*
X142466495Y-90218561D01*
X142433902Y-90181883D01*
X142419481Y-90162035D01*
X142418994Y-90162389D01*
X142125101Y-89757880D01*
X142125588Y-89757527D01*
X142111167Y-89737678D01*
X142086357Y-89695346D01*
X142065813Y-89650786D01*
X142049738Y-89604426D01*
X142038282Y-89556714D01*
X142031561Y-89508109D01*
X142029633Y-89459079D01*
X142032522Y-89410097D01*
X142040198Y-89361632D01*
X142052587Y-89314155D01*
X142069571Y-89268120D01*
X142090984Y-89223972D01*
X142116622Y-89182135D01*
X142146237Y-89143012D01*
X142179545Y-89106981D01*
X142216222Y-89074387D01*
X142236071Y-89059966D01*
X142235717Y-89059479D01*
X142680676Y-88736197D01*
X143562354Y-89949723D01*
G37*
%TD*%
%TO.C,JP2*%
G36*
X151218076Y-101377602D02*
G01*
X150773117Y-101700884D01*
X150772763Y-101700397D01*
X150752915Y-101714817D01*
X150710582Y-101739628D01*
X150666022Y-101760171D01*
X150619662Y-101776247D01*
X150571950Y-101787702D01*
X150523346Y-101794424D01*
X150474316Y-101796352D01*
X150425334Y-101793463D01*
X150376869Y-101785786D01*
X150329392Y-101773398D01*
X150283357Y-101756414D01*
X150239208Y-101735001D01*
X150197371Y-101709363D01*
X150158248Y-101679748D01*
X150122217Y-101646440D01*
X150089624Y-101609762D01*
X150075203Y-101589914D01*
X150074716Y-101590268D01*
X149780823Y-101185759D01*
X149781310Y-101185406D01*
X149766889Y-101165557D01*
X149742079Y-101123225D01*
X149721535Y-101078665D01*
X149705460Y-101032305D01*
X149694004Y-100984593D01*
X149687283Y-100935988D01*
X149685355Y-100886958D01*
X149688244Y-100837976D01*
X149695920Y-100789511D01*
X149708309Y-100742034D01*
X149725293Y-100695999D01*
X149746706Y-100651851D01*
X149772344Y-100610014D01*
X149801959Y-100570891D01*
X149835267Y-100534860D01*
X149871944Y-100502266D01*
X149891793Y-100487845D01*
X149891439Y-100487358D01*
X150336398Y-100164076D01*
X151218076Y-101377602D01*
G37*
G36*
X151995237Y-98959603D02*
G01*
X152015085Y-98945183D01*
X152057418Y-98920372D01*
X152101978Y-98899829D01*
X152148338Y-98883753D01*
X152196050Y-98872298D01*
X152244654Y-98865576D01*
X152293684Y-98863648D01*
X152342666Y-98866537D01*
X152391131Y-98874214D01*
X152438608Y-98886602D01*
X152484643Y-98903586D01*
X152528792Y-98924999D01*
X152570629Y-98950637D01*
X152609752Y-98980252D01*
X152645783Y-99013560D01*
X152678376Y-99050238D01*
X152692797Y-99070086D01*
X152693284Y-99069732D01*
X152987177Y-99474241D01*
X152986690Y-99474594D01*
X153001111Y-99494443D01*
X153025921Y-99536775D01*
X153046465Y-99581335D01*
X153062540Y-99627695D01*
X153073996Y-99675407D01*
X153080717Y-99724012D01*
X153082645Y-99773042D01*
X153079756Y-99822024D01*
X153072080Y-99870489D01*
X153059691Y-99917966D01*
X153042707Y-99964001D01*
X153021294Y-100008149D01*
X152995656Y-100049986D01*
X152966041Y-100089109D01*
X152932733Y-100125140D01*
X152896056Y-100157734D01*
X152876207Y-100172155D01*
X152876561Y-100172642D01*
X152431602Y-100495924D01*
X151549924Y-99282398D01*
X151994883Y-98959116D01*
X151995237Y-98959603D01*
G37*
G36*
X151420330Y-101230655D02*
G01*
X150538653Y-100017130D01*
X151347670Y-99429345D01*
X152229347Y-100642870D01*
X151420330Y-101230655D01*
G37*
%TD*%
%TO.C,C3*%
G36*
G01*
X148811000Y-84005000D02*
X147861000Y-84005000D01*
G75*
G02*
X147611000Y-83755000I0J250000D01*
G01*
X147611000Y-83080000D01*
G75*
G02*
X147861000Y-82830000I250000J0D01*
G01*
X148811000Y-82830000D01*
G75*
G02*
X149061000Y-83080000I0J-250000D01*
G01*
X149061000Y-83755000D01*
G75*
G02*
X148811000Y-84005000I-250000J0D01*
G01*
G37*
G36*
G01*
X148811000Y-86080000D02*
X147861000Y-86080000D01*
G75*
G02*
X147611000Y-85830000I0J250000D01*
G01*
X147611000Y-85155000D01*
G75*
G02*
X147861000Y-84905000I250000J0D01*
G01*
X148811000Y-84905000D01*
G75*
G02*
X149061000Y-85155000I0J-250000D01*
G01*
X149061000Y-85830000D01*
G75*
G02*
X148811000Y-86080000I-250000J0D01*
G01*
G37*
%TD*%
%TO.C,D1*%
G36*
X160507467Y-89522516D02*
G01*
X161458524Y-89831533D01*
X160994999Y-91258118D01*
X160043942Y-90949101D01*
X160507467Y-89522516D01*
G37*
G36*
X157464086Y-88533661D02*
G01*
X158415143Y-88842678D01*
X157951618Y-90269263D01*
X157000561Y-89960246D01*
X157464086Y-88533661D01*
G37*
G36*
X158993284Y-94182693D02*
G01*
X159944341Y-94491710D01*
X159480816Y-95918295D01*
X158529759Y-95609278D01*
X158993284Y-94182693D01*
G37*
G36*
X155949903Y-93193838D02*
G01*
X156900960Y-93502855D01*
X156437435Y-94929440D01*
X155486378Y-94620423D01*
X155949903Y-93193838D01*
G37*
%TD*%
D20*
%TO.C,D2*%
X138401620Y-103428260D03*
X138401620Y-106628260D03*
X143301620Y-103428260D03*
X143301620Y-106628260D03*
%TD*%
%TO.C,D3*%
X150762300Y-83386000D03*
X150762300Y-86586000D03*
X155662300Y-83386000D03*
X155662300Y-86586000D03*
%TD*%
D17*
%TO.C,D4*%
G36*
X133556452Y-100491744D02*
G01*
X132605395Y-100182727D01*
X133068920Y-98756142D01*
X134019977Y-99065159D01*
X133556452Y-100491744D01*
G37*
G36*
X136599833Y-101480599D02*
G01*
X135648776Y-101171582D01*
X136112301Y-99744997D01*
X137063358Y-100054014D01*
X136599833Y-101480599D01*
G37*
G36*
X135070635Y-95831567D02*
G01*
X134119578Y-95522550D01*
X134583103Y-94095965D01*
X135534160Y-94404982D01*
X135070635Y-95831567D01*
G37*
G36*
X138114016Y-96820422D02*
G01*
X137162959Y-96511405D01*
X137626484Y-95084820D01*
X138577541Y-95393837D01*
X138114016Y-96820422D01*
G37*
%TD*%
M02*
