%TF.GenerationSoftware,KiCad,Pcbnew,5.1.9*%
%TF.CreationDate,2021-01-25T14:02:54-05:00*%
%TF.ProjectId,penroserombus_thick_40mm,70656e72-6f73-4657-926f-6d6275735f74,rev?*%
%TF.SameCoordinates,Original*%
%TF.FileFunction,Soldermask,Top*%
%TF.FilePolarity,Negative*%
%FSLAX46Y46*%
G04 Gerber Fmt 4.6, Leading zero omitted, Abs format (unit mm)*
G04 Created by KiCad (PCBNEW 5.1.9) date 2021-01-25 14:02:54*
%MOMM*%
%LPD*%
G01*
G04 APERTURE LIST*
%ADD10C,3.200000*%
%ADD11C,1.150000*%
%ADD12C,0.100000*%
%ADD13R,1.700000X1.700000*%
%ADD14O,1.700000X1.700000*%
%ADD15R,1.500000X1.000000*%
G04 APERTURE END LIST*
D10*
%TO.C,M3*%
X125705721Y-110501549D03*
%TD*%
%TO.C,M3*%
X153057392Y-109528261D03*
%TD*%
%TO.C,M3*%
X141006528Y-80485999D03*
%TD*%
%TO.C,M3*%
X168358198Y-79512711D03*
%TD*%
D11*
%TO.C,MH*%
X157324909Y-109174159D03*
%TD*%
%TO.C,MH*%
X136739011Y-80840101D03*
%TD*%
%TO.C,C4*%
G36*
G01*
X135931250Y-99745400D02*
X135637684Y-100648904D01*
G75*
G02*
X135322666Y-100809414I-237764J77254D01*
G01*
X134680702Y-100600828D01*
G75*
G02*
X134520192Y-100285810I77254J237764D01*
G01*
X134813758Y-99382306D01*
G75*
G02*
X135128776Y-99221796I237764J-77254D01*
G01*
X135770740Y-99430382D01*
G75*
G02*
X135931250Y-99745400I-77254J-237764D01*
G01*
G37*
G36*
G01*
X133957808Y-99104190D02*
X133664242Y-100007694D01*
G75*
G02*
X133349224Y-100168204I-237764J77254D01*
G01*
X132707260Y-99959618D01*
G75*
G02*
X132546750Y-99644600I77254J237764D01*
G01*
X132840316Y-98741096D01*
G75*
G02*
X133155334Y-98580586I237764J-77254D01*
G01*
X133797298Y-98789172D01*
G75*
G02*
X133957808Y-99104190I-77254J-237764D01*
G01*
G37*
%TD*%
%TO.C,C2*%
G36*
G01*
X139921000Y-106273000D02*
X138971000Y-106273000D01*
G75*
G02*
X138721000Y-106023000I0J250000D01*
G01*
X138721000Y-105348000D01*
G75*
G02*
X138971000Y-105098000I250000J0D01*
G01*
X139921000Y-105098000D01*
G75*
G02*
X140171000Y-105348000I0J-250000D01*
G01*
X140171000Y-106023000D01*
G75*
G02*
X139921000Y-106273000I-250000J0D01*
G01*
G37*
G36*
G01*
X139921000Y-104198000D02*
X138971000Y-104198000D01*
G75*
G02*
X138721000Y-103948000I0J250000D01*
G01*
X138721000Y-103273000D01*
G75*
G02*
X138971000Y-103023000I250000J0D01*
G01*
X139921000Y-103023000D01*
G75*
G02*
X140171000Y-103273000I0J-250000D01*
G01*
X140171000Y-103948000D01*
G75*
G02*
X139921000Y-104198000I-250000J0D01*
G01*
G37*
%TD*%
D12*
%TO.C,SW1*%
G36*
X149208099Y-91198574D02*
G01*
X148318180Y-91845137D01*
X147171999Y-90267554D01*
X148061918Y-89620991D01*
X149208099Y-91198574D01*
G37*
G36*
X147185557Y-92668037D02*
G01*
X146295638Y-93314600D01*
X145149457Y-91737017D01*
X146039376Y-91090454D01*
X147185557Y-92668037D01*
G37*
G36*
X145163014Y-94137500D02*
G01*
X144273095Y-94784063D01*
X143126914Y-93206480D01*
X144016833Y-92559917D01*
X145163014Y-94137500D01*
G37*
G36*
X152529086Y-95769520D02*
G01*
X151639167Y-96416083D01*
X150492986Y-94838500D01*
X151382905Y-94191937D01*
X152529086Y-95769520D01*
G37*
G36*
X150506543Y-97238983D02*
G01*
X149616624Y-97885546D01*
X148470443Y-96307963D01*
X149360362Y-95661400D01*
X150506543Y-97238983D01*
G37*
G36*
X148484001Y-98708446D02*
G01*
X147594082Y-99355009D01*
X146447901Y-97777426D01*
X147337820Y-97130863D01*
X148484001Y-98708446D01*
G37*
%TD*%
%TO.C,C1*%
G36*
G01*
X155420808Y-98977190D02*
X155127242Y-99880694D01*
G75*
G02*
X154812224Y-100041204I-237764J77254D01*
G01*
X154170260Y-99832618D01*
G75*
G02*
X154009750Y-99517600I77254J237764D01*
G01*
X154303316Y-98614096D01*
G75*
G02*
X154618334Y-98453586I237764J-77254D01*
G01*
X155260298Y-98662172D01*
G75*
G02*
X155420808Y-98977190I-77254J-237764D01*
G01*
G37*
G36*
G01*
X157394250Y-99618400D02*
X157100684Y-100521904D01*
G75*
G02*
X156785666Y-100682414I-237764J77254D01*
G01*
X156143702Y-100473828D01*
G75*
G02*
X155983192Y-100158810I77254J237764D01*
G01*
X156276758Y-99255306D01*
G75*
G02*
X156591776Y-99094796I237764J-77254D01*
G01*
X157233740Y-99303382D01*
G75*
G02*
X157394250Y-99618400I-77254J-237764D01*
G01*
G37*
%TD*%
%TO.C,J1*%
G36*
G01*
X161883431Y-100009654D02*
X161883431Y-100009654D01*
G75*
G02*
X162954493Y-99463920I808398J-262664D01*
G01*
X162954493Y-99463920D01*
G75*
G02*
X163500227Y-100534982I-262664J-808398D01*
G01*
X163500227Y-100534982D01*
G75*
G02*
X162429165Y-101080716I-808398J262664D01*
G01*
X162429165Y-101080716D01*
G75*
G02*
X161883431Y-100009654I262664J808398D01*
G01*
G37*
G36*
G01*
X162668334Y-97593971D02*
X162668334Y-97593971D01*
G75*
G02*
X163739396Y-97048237I808398J-262664D01*
G01*
X163739396Y-97048237D01*
G75*
G02*
X164285130Y-98119299I-262664J-808398D01*
G01*
X164285130Y-98119299D01*
G75*
G02*
X163214068Y-98665033I-808398J262664D01*
G01*
X163214068Y-98665033D01*
G75*
G02*
X162668334Y-97593971I262664J808398D01*
G01*
G37*
G36*
X163190573Y-95986685D02*
G01*
X163715901Y-94369889D01*
X165332697Y-94895217D01*
X164807369Y-96512013D01*
X163190573Y-95986685D01*
G37*
%TD*%
D13*
%TO.C,J2*%
X140851620Y-111528260D03*
D14*
X138311620Y-111528260D03*
X135771620Y-111528260D03*
%TD*%
D13*
%TO.C,J3*%
X151943635Y-78486676D03*
D14*
X149403635Y-78486676D03*
X146863635Y-78486676D03*
%TD*%
%TO.C,J4*%
G36*
G01*
X127031397Y-100348375D02*
X127031397Y-100348375D01*
G75*
G02*
X128102459Y-99802641I808398J-262664D01*
G01*
X128102459Y-99802641D01*
G75*
G02*
X128648193Y-100873703I-262664J-808398D01*
G01*
X128648193Y-100873703D01*
G75*
G02*
X127577131Y-101419437I-808398J262664D01*
G01*
X127577131Y-101419437D01*
G75*
G02*
X127031397Y-100348375I262664J808398D01*
G01*
G37*
G36*
G01*
X127816300Y-97932692D02*
X127816300Y-97932692D01*
G75*
G02*
X128887362Y-97386958I808398J-262664D01*
G01*
X128887362Y-97386958D01*
G75*
G02*
X129433096Y-98458020I-262664J-808398D01*
G01*
X129433096Y-98458020D01*
G75*
G02*
X128362034Y-99003754I-808398J262664D01*
G01*
X128362034Y-99003754D01*
G75*
G02*
X127816300Y-97932692I262664J808398D01*
G01*
G37*
D12*
G36*
X128338539Y-96325406D02*
G01*
X128863867Y-94708610D01*
X130480663Y-95233938D01*
X129955335Y-96850734D01*
X128338539Y-96325406D01*
G37*
%TD*%
%TO.C,JP1*%
G36*
X144653608Y-90996576D02*
G01*
X143771931Y-89783051D01*
X144580948Y-89195266D01*
X145462625Y-90408791D01*
X144653608Y-90996576D01*
G37*
G36*
X145228515Y-88725524D02*
G01*
X145248363Y-88711104D01*
X145290696Y-88686293D01*
X145335256Y-88665750D01*
X145381616Y-88649674D01*
X145429328Y-88638219D01*
X145477932Y-88631497D01*
X145526962Y-88629569D01*
X145575944Y-88632458D01*
X145624409Y-88640135D01*
X145671886Y-88652523D01*
X145717921Y-88669507D01*
X145762070Y-88690920D01*
X145803907Y-88716558D01*
X145843030Y-88746173D01*
X145879061Y-88779481D01*
X145911654Y-88816159D01*
X145926075Y-88836007D01*
X145926562Y-88835653D01*
X146220455Y-89240162D01*
X146219968Y-89240515D01*
X146234389Y-89260364D01*
X146259199Y-89302696D01*
X146279743Y-89347256D01*
X146295818Y-89393616D01*
X146307274Y-89441328D01*
X146313995Y-89489933D01*
X146315923Y-89538963D01*
X146313034Y-89587945D01*
X146305358Y-89636410D01*
X146292969Y-89683887D01*
X146275985Y-89729922D01*
X146254572Y-89774070D01*
X146228934Y-89815907D01*
X146199319Y-89855030D01*
X146166011Y-89891061D01*
X146129334Y-89923655D01*
X146109485Y-89938076D01*
X146109839Y-89938563D01*
X145664880Y-90261845D01*
X144783202Y-89048319D01*
X145228161Y-88725037D01*
X145228515Y-88725524D01*
G37*
G36*
X144451354Y-91143523D02*
G01*
X144006395Y-91466805D01*
X144006041Y-91466318D01*
X143986193Y-91480738D01*
X143943860Y-91505549D01*
X143899300Y-91526092D01*
X143852940Y-91542168D01*
X143805228Y-91553623D01*
X143756624Y-91560345D01*
X143707594Y-91562273D01*
X143658612Y-91559384D01*
X143610147Y-91551707D01*
X143562670Y-91539319D01*
X143516635Y-91522335D01*
X143472486Y-91500922D01*
X143430649Y-91475284D01*
X143391526Y-91445669D01*
X143355495Y-91412361D01*
X143322902Y-91375683D01*
X143308481Y-91355835D01*
X143307994Y-91356189D01*
X143014101Y-90951680D01*
X143014588Y-90951327D01*
X143000167Y-90931478D01*
X142975357Y-90889146D01*
X142954813Y-90844586D01*
X142938738Y-90798226D01*
X142927282Y-90750514D01*
X142920561Y-90701909D01*
X142918633Y-90652879D01*
X142921522Y-90603897D01*
X142929198Y-90555432D01*
X142941587Y-90507955D01*
X142958571Y-90461920D01*
X142979984Y-90417772D01*
X143005622Y-90375935D01*
X143035237Y-90336812D01*
X143068545Y-90300781D01*
X143105222Y-90268187D01*
X143125071Y-90253766D01*
X143124717Y-90253279D01*
X143569676Y-89929997D01*
X144451354Y-91143523D01*
G37*
%TD*%
%TO.C,JP2*%
G36*
X150964076Y-100006002D02*
G01*
X150519117Y-100329284D01*
X150518763Y-100328797D01*
X150498915Y-100343217D01*
X150456582Y-100368028D01*
X150412022Y-100388571D01*
X150365662Y-100404647D01*
X150317950Y-100416102D01*
X150269346Y-100422824D01*
X150220316Y-100424752D01*
X150171334Y-100421863D01*
X150122869Y-100414186D01*
X150075392Y-100401798D01*
X150029357Y-100384814D01*
X149985208Y-100363401D01*
X149943371Y-100337763D01*
X149904248Y-100308148D01*
X149868217Y-100274840D01*
X149835624Y-100238162D01*
X149821203Y-100218314D01*
X149820716Y-100218668D01*
X149526823Y-99814159D01*
X149527310Y-99813806D01*
X149512889Y-99793957D01*
X149488079Y-99751625D01*
X149467535Y-99707065D01*
X149451460Y-99660705D01*
X149440004Y-99612993D01*
X149433283Y-99564388D01*
X149431355Y-99515358D01*
X149434244Y-99466376D01*
X149441920Y-99417911D01*
X149454309Y-99370434D01*
X149471293Y-99324399D01*
X149492706Y-99280251D01*
X149518344Y-99238414D01*
X149547959Y-99199291D01*
X149581267Y-99163260D01*
X149617944Y-99130666D01*
X149637793Y-99116245D01*
X149637439Y-99115758D01*
X150082398Y-98792476D01*
X150964076Y-100006002D01*
G37*
G36*
X151741237Y-97588003D02*
G01*
X151761085Y-97573583D01*
X151803418Y-97548772D01*
X151847978Y-97528229D01*
X151894338Y-97512153D01*
X151942050Y-97500698D01*
X151990654Y-97493976D01*
X152039684Y-97492048D01*
X152088666Y-97494937D01*
X152137131Y-97502614D01*
X152184608Y-97515002D01*
X152230643Y-97531986D01*
X152274792Y-97553399D01*
X152316629Y-97579037D01*
X152355752Y-97608652D01*
X152391783Y-97641960D01*
X152424376Y-97678638D01*
X152438797Y-97698486D01*
X152439284Y-97698132D01*
X152733177Y-98102641D01*
X152732690Y-98102994D01*
X152747111Y-98122843D01*
X152771921Y-98165175D01*
X152792465Y-98209735D01*
X152808540Y-98256095D01*
X152819996Y-98303807D01*
X152826717Y-98352412D01*
X152828645Y-98401442D01*
X152825756Y-98450424D01*
X152818080Y-98498889D01*
X152805691Y-98546366D01*
X152788707Y-98592401D01*
X152767294Y-98636549D01*
X152741656Y-98678386D01*
X152712041Y-98717509D01*
X152678733Y-98753540D01*
X152642056Y-98786134D01*
X152622207Y-98800555D01*
X152622561Y-98801042D01*
X152177602Y-99124324D01*
X151295924Y-97910798D01*
X151740883Y-97587516D01*
X151741237Y-97588003D01*
G37*
G36*
X151166330Y-99859055D02*
G01*
X150284653Y-98645530D01*
X151093670Y-98057745D01*
X151975347Y-99271270D01*
X151166330Y-99859055D01*
G37*
%TD*%
%TO.C,C3*%
G36*
G01*
X145763000Y-83751000D02*
X144813000Y-83751000D01*
G75*
G02*
X144563000Y-83501000I0J250000D01*
G01*
X144563000Y-82826000D01*
G75*
G02*
X144813000Y-82576000I250000J0D01*
G01*
X145763000Y-82576000D01*
G75*
G02*
X146013000Y-82826000I0J-250000D01*
G01*
X146013000Y-83501000D01*
G75*
G02*
X145763000Y-83751000I-250000J0D01*
G01*
G37*
G36*
G01*
X145763000Y-85826000D02*
X144813000Y-85826000D01*
G75*
G02*
X144563000Y-85576000I0J250000D01*
G01*
X144563000Y-84901000D01*
G75*
G02*
X144813000Y-84651000I250000J0D01*
G01*
X145763000Y-84651000D01*
G75*
G02*
X146013000Y-84901000I0J-250000D01*
G01*
X146013000Y-85576000D01*
G75*
G02*
X145763000Y-85826000I-250000J0D01*
G01*
G37*
%TD*%
%TO.C,D1*%
G36*
X159772641Y-92628233D02*
G01*
X160723698Y-92937250D01*
X160260173Y-94363835D01*
X159309116Y-94054818D01*
X159772641Y-92628233D01*
G37*
G36*
X156729260Y-91639378D02*
G01*
X157680317Y-91948395D01*
X157216792Y-93374980D01*
X156265735Y-93065963D01*
X156729260Y-91639378D01*
G37*
G36*
X158258458Y-97288410D02*
G01*
X159209515Y-97597427D01*
X158745990Y-99024012D01*
X157794933Y-98714995D01*
X158258458Y-97288410D01*
G37*
G36*
X155215077Y-96299555D02*
G01*
X156166134Y-96608572D01*
X155702609Y-98035157D01*
X154751552Y-97726140D01*
X155215077Y-96299555D01*
G37*
%TD*%
D15*
%TO.C,D2*%
X141582407Y-103689119D03*
X141582407Y-106889119D03*
X146482407Y-103689119D03*
X146482407Y-106889119D03*
%TD*%
%TO.C,D3*%
X147581513Y-83125141D03*
X147581513Y-86325141D03*
X152481513Y-83125141D03*
X152481513Y-86325141D03*
%TD*%
D12*
%TO.C,D4*%
G36*
X138361310Y-92628233D02*
G01*
X139312367Y-92937250D01*
X138848842Y-94363835D01*
X137897785Y-94054818D01*
X138361310Y-92628233D01*
G37*
G36*
X135317929Y-91639378D02*
G01*
X136268986Y-91948395D01*
X135805461Y-93374980D01*
X134854404Y-93065963D01*
X135317929Y-91639378D01*
G37*
G36*
X136847127Y-97288410D02*
G01*
X137798184Y-97597427D01*
X137334659Y-99024012D01*
X136383602Y-98714995D01*
X136847127Y-97288410D01*
G37*
G36*
X133803746Y-96299555D02*
G01*
X134754803Y-96608572D01*
X134291278Y-98035157D01*
X133340221Y-97726140D01*
X133803746Y-96299555D01*
G37*
%TD*%
M02*
