%TF.GenerationSoftware,KiCad,Pcbnew,5.1.8*%
%TF.CreationDate,2021-01-01T10:02:38-05:00*%
%TF.ProjectId,penroserombus_thick_40mm,70656e72-6f73-4657-926f-6d6275735f74,rev?*%
%TF.SameCoordinates,Original*%
%TF.FileFunction,Copper,L1,Top*%
%TF.FilePolarity,Positive*%
%FSLAX46Y46*%
G04 Gerber Fmt 4.6, Leading zero omitted, Abs format (unit mm)*
G04 Created by KiCad (PCBNEW 5.1.8) date 2021-01-01 10:02:38*
%MOMM*%
%LPD*%
G01*
G04 APERTURE LIST*
%TA.AperFunction,WasherPad*%
%ADD10C,1.524000*%
%TD*%
%TA.AperFunction,SMDPad,CuDef*%
%ADD11C,0.100000*%
%TD*%
%TA.AperFunction,ComponentPad*%
%ADD12C,0.100000*%
%TD*%
%TA.AperFunction,ComponentPad*%
%ADD13R,1.700000X1.700000*%
%TD*%
%TA.AperFunction,ComponentPad*%
%ADD14O,1.700000X1.700000*%
%TD*%
%TA.AperFunction,ViaPad*%
%ADD15C,0.800000*%
%TD*%
%TA.AperFunction,Conductor*%
%ADD16C,1.000000*%
%TD*%
%TA.AperFunction,Conductor*%
%ADD17C,0.250000*%
%TD*%
%TA.AperFunction,Conductor*%
%ADD18C,0.500000*%
%TD*%
%TA.AperFunction,Conductor*%
%ADD19C,0.254000*%
%TD*%
%TA.AperFunction,Conductor*%
%ADD20C,0.100000*%
%TD*%
G04 APERTURE END LIST*
D10*
%TO.P,MH,*%
%TO.N,*%
X156845000Y-108966000D03*
%TD*%
%TO.P,MH,*%
%TO.N,*%
X137414000Y-81407000D03*
%TD*%
%TA.AperFunction,SMDPad,CuDef*%
D11*
%TO.P,SW1,6*%
%TO.N,Net-(D1-Pad2)*%
G36*
X149208099Y-91198574D02*
G01*
X148318180Y-91845137D01*
X147171999Y-90267554D01*
X148061918Y-89620991D01*
X149208099Y-91198574D01*
G37*
%TD.AperFunction*%
%TA.AperFunction,SMDPad,CuDef*%
%TO.P,SW1,5*%
%TO.N,Net-(J2-Pad3)*%
G36*
X147185557Y-92668037D02*
G01*
X146295638Y-93314600D01*
X145149457Y-91737017D01*
X146039376Y-91090454D01*
X147185557Y-92668037D01*
G37*
%TD.AperFunction*%
%TA.AperFunction,SMDPad,CuDef*%
%TO.P,SW1,4*%
%TO.N,Net-(D2-Pad2)*%
G36*
X145163014Y-94137500D02*
G01*
X144273095Y-94784063D01*
X143126914Y-93206480D01*
X144016833Y-92559917D01*
X145163014Y-94137500D01*
G37*
%TD.AperFunction*%
%TA.AperFunction,SMDPad,CuDef*%
%TO.P,SW1,3*%
G36*
X152529086Y-95769520D02*
G01*
X151639167Y-96416083D01*
X150492986Y-94838500D01*
X151382905Y-94191937D01*
X152529086Y-95769520D01*
G37*
%TD.AperFunction*%
%TA.AperFunction,SMDPad,CuDef*%
%TO.P,SW1,2*%
%TO.N,Net-(J1-Pad3)*%
G36*
X150506543Y-97238983D02*
G01*
X149616624Y-97885546D01*
X148470443Y-96307963D01*
X149360362Y-95661400D01*
X150506543Y-97238983D01*
G37*
%TD.AperFunction*%
%TA.AperFunction,SMDPad,CuDef*%
%TO.P,SW1,1*%
%TO.N,Net-(D1-Pad2)*%
G36*
X148484001Y-98708446D02*
G01*
X147594082Y-99355009D01*
X146447901Y-97777426D01*
X147337820Y-97130863D01*
X148484001Y-98708446D01*
G37*
%TD.AperFunction*%
%TD*%
%TO.P,C1,2*%
%TO.N,VCC*%
%TA.AperFunction,SMDPad,CuDef*%
G36*
G01*
X159900220Y-86749256D02*
X160668787Y-86190860D01*
G75*
G02*
X161017987Y-86246168I146946J-202254D01*
G01*
X161414742Y-86792254D01*
G75*
G02*
X161359434Y-87141454I-202254J-146946D01*
G01*
X160590867Y-87699850D01*
G75*
G02*
X160241667Y-87644542I-146946J202254D01*
G01*
X159844912Y-87098456D01*
G75*
G02*
X159900220Y-86749256I202254J146946D01*
G01*
G37*
%TD.AperFunction*%
%TO.P,C1,1*%
%TO.N,GND*%
%TA.AperFunction,SMDPad,CuDef*%
G36*
G01*
X158680566Y-85070546D02*
X159449133Y-84512150D01*
G75*
G02*
X159798333Y-84567458I146946J-202254D01*
G01*
X160195088Y-85113544D01*
G75*
G02*
X160139780Y-85462744I-202254J-146946D01*
G01*
X159371213Y-86021140D01*
G75*
G02*
X159022013Y-85965832I-146946J202254D01*
G01*
X158625258Y-85419746D01*
G75*
G02*
X158680566Y-85070546I202254J146946D01*
G01*
G37*
%TD.AperFunction*%
%TD*%
%TO.P,C2,1*%
%TO.N,GND*%
%TA.AperFunction,SMDPad,CuDef*%
G36*
G01*
X140696546Y-105479434D02*
X140138150Y-104710867D01*
G75*
G02*
X140193458Y-104361667I202254J146946D01*
G01*
X140739544Y-103964912D01*
G75*
G02*
X141088744Y-104020220I146946J-202254D01*
G01*
X141647140Y-104788787D01*
G75*
G02*
X141591832Y-105137987I-202254J-146946D01*
G01*
X141045746Y-105534742D01*
G75*
G02*
X140696546Y-105479434I-146946J202254D01*
G01*
G37*
%TD.AperFunction*%
%TO.P,C2,2*%
%TO.N,VCC*%
%TA.AperFunction,SMDPad,CuDef*%
G36*
G01*
X142375256Y-104259780D02*
X141816860Y-103491213D01*
G75*
G02*
X141872168Y-103142013I202254J146946D01*
G01*
X142418254Y-102745258D01*
G75*
G02*
X142767454Y-102800566I146946J-202254D01*
G01*
X143325850Y-103569133D01*
G75*
G02*
X143270542Y-103918333I-202254J-146946D01*
G01*
X142724456Y-104315088D01*
G75*
G02*
X142375256Y-104259780I-146946J202254D01*
G01*
G37*
%TD.AperFunction*%
%TD*%
%TA.AperFunction,SMDPad,CuDef*%
%TO.P,D1,1*%
%TO.N,VCC*%
G36*
X158368418Y-89366454D02*
G01*
X157780633Y-88557437D01*
X158994158Y-87675760D01*
X159581943Y-88484777D01*
X158368418Y-89366454D01*
G37*
%TD.AperFunction*%
%TA.AperFunction,SMDPad,CuDef*%
%TO.P,D1,2*%
%TO.N,Net-(D1-Pad2)*%
G36*
X156487505Y-86777600D02*
G01*
X155899720Y-85968583D01*
X157113245Y-85086906D01*
X157701030Y-85895923D01*
X156487505Y-86777600D01*
G37*
%TD.AperFunction*%
%TA.AperFunction,SMDPad,CuDef*%
%TO.P,D1,4*%
%TO.N,Net-(D1-Pad4)*%
G36*
X154404235Y-92246602D02*
G01*
X153816450Y-91437585D01*
X155029975Y-90555908D01*
X155617760Y-91364925D01*
X154404235Y-92246602D01*
G37*
%TD.AperFunction*%
%TA.AperFunction,SMDPad,CuDef*%
%TO.P,D1,3*%
%TO.N,GND*%
G36*
X152523322Y-89657748D02*
G01*
X151935537Y-88848731D01*
X153149062Y-87967054D01*
X153736847Y-88776071D01*
X152523322Y-89657748D01*
G37*
%TD.AperFunction*%
%TD*%
%TA.AperFunction,SMDPad,CuDef*%
%TO.P,D2,3*%
%TO.N,GND*%
G36*
X135069762Y-102338501D02*
G01*
X134481977Y-101529484D01*
X135695502Y-100647807D01*
X136283287Y-101456824D01*
X135069762Y-102338501D01*
G37*
%TD.AperFunction*%
%TA.AperFunction,SMDPad,CuDef*%
%TO.P,D2,4*%
%TO.N,Net-(D2-Pad4)*%
G36*
X136950675Y-104927355D02*
G01*
X136362890Y-104118338D01*
X137576415Y-103236661D01*
X138164200Y-104045678D01*
X136950675Y-104927355D01*
G37*
%TD.AperFunction*%
%TA.AperFunction,SMDPad,CuDef*%
%TO.P,D2,2*%
%TO.N,Net-(D2-Pad2)*%
G36*
X139033945Y-99458353D02*
G01*
X138446160Y-98649336D01*
X139659685Y-97767659D01*
X140247470Y-98576676D01*
X139033945Y-99458353D01*
G37*
%TD.AperFunction*%
%TA.AperFunction,SMDPad,CuDef*%
%TO.P,D2,1*%
%TO.N,VCC*%
G36*
X140914858Y-102047207D02*
G01*
X140327073Y-101238190D01*
X141540598Y-100356513D01*
X142128383Y-101165530D01*
X140914858Y-102047207D01*
G37*
%TD.AperFunction*%
%TD*%
%TO.P,J1,3*%
%TO.N,Net-(J1-Pad3)*%
%TA.AperFunction,ComponentPad*%
G36*
G01*
X162276114Y-98803290D02*
X162276114Y-98803290D01*
G75*
G02*
X163347176Y-98257556I808398J-262664D01*
G01*
X163347176Y-98257556D01*
G75*
G02*
X163892910Y-99328618I-262664J-808398D01*
G01*
X163892910Y-99328618D01*
G75*
G02*
X162821848Y-99874352I-808398J262664D01*
G01*
X162821848Y-99874352D01*
G75*
G02*
X162276114Y-98803290I262664J808398D01*
G01*
G37*
%TD.AperFunction*%
%TO.P,J1,2*%
%TO.N,VCC*%
%TA.AperFunction,ComponentPad*%
G36*
G01*
X163061017Y-96387607D02*
X163061017Y-96387607D01*
G75*
G02*
X164132079Y-95841873I808398J-262664D01*
G01*
X164132079Y-95841873D01*
G75*
G02*
X164677813Y-96912935I-262664J-808398D01*
G01*
X164677813Y-96912935D01*
G75*
G02*
X163606751Y-97458669I-808398J262664D01*
G01*
X163606751Y-97458669D01*
G75*
G02*
X163061017Y-96387607I262664J808398D01*
G01*
G37*
%TD.AperFunction*%
%TA.AperFunction,ComponentPad*%
D12*
%TO.P,J1,1*%
%TO.N,GND*%
G36*
X163583256Y-94780321D02*
G01*
X164108584Y-93163525D01*
X165725380Y-93688853D01*
X165200052Y-95305649D01*
X163583256Y-94780321D01*
G37*
%TD.AperFunction*%
%TD*%
D13*
%TO.P,J2,1*%
%TO.N,GND*%
X140851620Y-111528260D03*
D14*
%TO.P,J2,2*%
%TO.N,VCC*%
X138311620Y-111528260D03*
%TO.P,J2,3*%
%TO.N,Net-(J2-Pad3)*%
X135771620Y-111528260D03*
%TD*%
D13*
%TO.P,J3,1*%
%TO.N,GND*%
X153212300Y-78486000D03*
D14*
%TO.P,J3,2*%
%TO.N,VCC*%
X150672300Y-78486000D03*
%TO.P,J3,3*%
%TO.N,Net-(D1-Pad4)*%
X148132300Y-78486000D03*
%TD*%
%TO.P,J4,3*%
%TO.N,Net-(D2-Pad4)*%
%TA.AperFunction,ComponentPad*%
G36*
G01*
X127031397Y-100348375D02*
X127031397Y-100348375D01*
G75*
G02*
X128102459Y-99802641I808398J-262664D01*
G01*
X128102459Y-99802641D01*
G75*
G02*
X128648193Y-100873703I-262664J-808398D01*
G01*
X128648193Y-100873703D01*
G75*
G02*
X127577131Y-101419437I-808398J262664D01*
G01*
X127577131Y-101419437D01*
G75*
G02*
X127031397Y-100348375I262664J808398D01*
G01*
G37*
%TD.AperFunction*%
%TO.P,J4,2*%
%TO.N,VCC*%
%TA.AperFunction,ComponentPad*%
G36*
G01*
X127816300Y-97932692D02*
X127816300Y-97932692D01*
G75*
G02*
X128887362Y-97386958I808398J-262664D01*
G01*
X128887362Y-97386958D01*
G75*
G02*
X129433096Y-98458020I-262664J-808398D01*
G01*
X129433096Y-98458020D01*
G75*
G02*
X128362034Y-99003754I-808398J262664D01*
G01*
X128362034Y-99003754D01*
G75*
G02*
X127816300Y-97932692I262664J808398D01*
G01*
G37*
%TD.AperFunction*%
%TA.AperFunction,ComponentPad*%
D12*
%TO.P,J4,1*%
%TO.N,GND*%
G36*
X128338539Y-96325406D02*
G01*
X128863867Y-94708610D01*
X130480663Y-95233938D01*
X129955335Y-96850734D01*
X128338539Y-96325406D01*
G37*
%TD.AperFunction*%
%TD*%
%TA.AperFunction,SMDPad,CuDef*%
D11*
%TO.P,JP1,2*%
%TO.N,Net-(J2-Pad3)*%
G36*
X143764608Y-89802776D02*
G01*
X142882931Y-88589251D01*
X143691948Y-88001466D01*
X144573625Y-89214991D01*
X143764608Y-89802776D01*
G37*
%TD.AperFunction*%
%TA.AperFunction,SMDPad,CuDef*%
%TO.P,JP1,3*%
%TO.N,Net-(D1-Pad2)*%
G36*
X144339515Y-87531724D02*
G01*
X144359363Y-87517304D01*
X144401696Y-87492493D01*
X144446256Y-87471950D01*
X144492616Y-87455874D01*
X144540328Y-87444419D01*
X144588932Y-87437697D01*
X144637962Y-87435769D01*
X144686944Y-87438658D01*
X144735409Y-87446335D01*
X144782886Y-87458723D01*
X144828921Y-87475707D01*
X144873070Y-87497120D01*
X144914907Y-87522758D01*
X144954030Y-87552373D01*
X144990061Y-87585681D01*
X145022654Y-87622359D01*
X145037075Y-87642207D01*
X145037562Y-87641853D01*
X145331455Y-88046362D01*
X145330968Y-88046715D01*
X145345389Y-88066564D01*
X145370199Y-88108896D01*
X145390743Y-88153456D01*
X145406818Y-88199816D01*
X145418274Y-88247528D01*
X145424995Y-88296133D01*
X145426923Y-88345163D01*
X145424034Y-88394145D01*
X145416358Y-88442610D01*
X145403969Y-88490087D01*
X145386985Y-88536122D01*
X145365572Y-88580270D01*
X145339934Y-88622107D01*
X145310319Y-88661230D01*
X145277011Y-88697261D01*
X145240334Y-88729855D01*
X145220485Y-88744276D01*
X145220839Y-88744763D01*
X144775880Y-89068045D01*
X143894202Y-87854519D01*
X144339161Y-87531237D01*
X144339515Y-87531724D01*
G37*
%TD.AperFunction*%
%TA.AperFunction,SMDPad,CuDef*%
%TO.P,JP1,1*%
%TO.N,Net-(D2-Pad2)*%
G36*
X143562354Y-89949723D02*
G01*
X143117395Y-90273005D01*
X143117041Y-90272518D01*
X143097193Y-90286938D01*
X143054860Y-90311749D01*
X143010300Y-90332292D01*
X142963940Y-90348368D01*
X142916228Y-90359823D01*
X142867624Y-90366545D01*
X142818594Y-90368473D01*
X142769612Y-90365584D01*
X142721147Y-90357907D01*
X142673670Y-90345519D01*
X142627635Y-90328535D01*
X142583486Y-90307122D01*
X142541649Y-90281484D01*
X142502526Y-90251869D01*
X142466495Y-90218561D01*
X142433902Y-90181883D01*
X142419481Y-90162035D01*
X142418994Y-90162389D01*
X142125101Y-89757880D01*
X142125588Y-89757527D01*
X142111167Y-89737678D01*
X142086357Y-89695346D01*
X142065813Y-89650786D01*
X142049738Y-89604426D01*
X142038282Y-89556714D01*
X142031561Y-89508109D01*
X142029633Y-89459079D01*
X142032522Y-89410097D01*
X142040198Y-89361632D01*
X142052587Y-89314155D01*
X142069571Y-89268120D01*
X142090984Y-89223972D01*
X142116622Y-89182135D01*
X142146237Y-89143012D01*
X142179545Y-89106981D01*
X142216222Y-89074387D01*
X142236071Y-89059966D01*
X142235717Y-89059479D01*
X142680676Y-88736197D01*
X143562354Y-89949723D01*
G37*
%TD.AperFunction*%
%TD*%
%TA.AperFunction,SMDPad,CuDef*%
%TO.P,JP2,1*%
%TO.N,Net-(D1-Pad2)*%
G36*
X151218076Y-101377602D02*
G01*
X150773117Y-101700884D01*
X150772763Y-101700397D01*
X150752915Y-101714817D01*
X150710582Y-101739628D01*
X150666022Y-101760171D01*
X150619662Y-101776247D01*
X150571950Y-101787702D01*
X150523346Y-101794424D01*
X150474316Y-101796352D01*
X150425334Y-101793463D01*
X150376869Y-101785786D01*
X150329392Y-101773398D01*
X150283357Y-101756414D01*
X150239208Y-101735001D01*
X150197371Y-101709363D01*
X150158248Y-101679748D01*
X150122217Y-101646440D01*
X150089624Y-101609762D01*
X150075203Y-101589914D01*
X150074716Y-101590268D01*
X149780823Y-101185759D01*
X149781310Y-101185406D01*
X149766889Y-101165557D01*
X149742079Y-101123225D01*
X149721535Y-101078665D01*
X149705460Y-101032305D01*
X149694004Y-100984593D01*
X149687283Y-100935988D01*
X149685355Y-100886958D01*
X149688244Y-100837976D01*
X149695920Y-100789511D01*
X149708309Y-100742034D01*
X149725293Y-100695999D01*
X149746706Y-100651851D01*
X149772344Y-100610014D01*
X149801959Y-100570891D01*
X149835267Y-100534860D01*
X149871944Y-100502266D01*
X149891793Y-100487845D01*
X149891439Y-100487358D01*
X150336398Y-100164076D01*
X151218076Y-101377602D01*
G37*
%TD.AperFunction*%
%TA.AperFunction,SMDPad,CuDef*%
%TO.P,JP2,3*%
%TO.N,Net-(D2-Pad2)*%
G36*
X151995237Y-98959603D02*
G01*
X152015085Y-98945183D01*
X152057418Y-98920372D01*
X152101978Y-98899829D01*
X152148338Y-98883753D01*
X152196050Y-98872298D01*
X152244654Y-98865576D01*
X152293684Y-98863648D01*
X152342666Y-98866537D01*
X152391131Y-98874214D01*
X152438608Y-98886602D01*
X152484643Y-98903586D01*
X152528792Y-98924999D01*
X152570629Y-98950637D01*
X152609752Y-98980252D01*
X152645783Y-99013560D01*
X152678376Y-99050238D01*
X152692797Y-99070086D01*
X152693284Y-99069732D01*
X152987177Y-99474241D01*
X152986690Y-99474594D01*
X153001111Y-99494443D01*
X153025921Y-99536775D01*
X153046465Y-99581335D01*
X153062540Y-99627695D01*
X153073996Y-99675407D01*
X153080717Y-99724012D01*
X153082645Y-99773042D01*
X153079756Y-99822024D01*
X153072080Y-99870489D01*
X153059691Y-99917966D01*
X153042707Y-99964001D01*
X153021294Y-100008149D01*
X152995656Y-100049986D01*
X152966041Y-100089109D01*
X152932733Y-100125140D01*
X152896056Y-100157734D01*
X152876207Y-100172155D01*
X152876561Y-100172642D01*
X152431602Y-100495924D01*
X151549924Y-99282398D01*
X151994883Y-98959116D01*
X151995237Y-98959603D01*
G37*
%TD.AperFunction*%
%TA.AperFunction,SMDPad,CuDef*%
%TO.P,JP2,2*%
%TO.N,Net-(J1-Pad3)*%
G36*
X151420330Y-101230655D02*
G01*
X150538653Y-100017130D01*
X151347670Y-99429345D01*
X152229347Y-100642870D01*
X151420330Y-101230655D01*
G37*
%TD.AperFunction*%
%TD*%
D15*
%TO.N,GND*%
X155321000Y-88265000D03*
X138938000Y-95250000D03*
X142748000Y-99060000D03*
X136271000Y-102616000D03*
%TO.N,Net-(D1-Pad2)*%
X147828000Y-93726000D03*
X147828000Y-95250000D03*
%TO.N,Net-(D1-Pad4)*%
X153924000Y-90424000D03*
%TO.N,Net-(J1-Pad3)*%
X158725985Y-99035985D03*
%TO.N,Net-(J2-Pad3)*%
X133858000Y-98298000D03*
X133785907Y-103573734D03*
%TD*%
D16*
%TO.N,VCC*%
X142571355Y-103530173D02*
X141227728Y-101201860D01*
X160629827Y-86945355D02*
X158681288Y-88521107D01*
X161148869Y-86426313D02*
X161148869Y-83678869D01*
X160629827Y-86945355D02*
X161148869Y-86426313D01*
X138311620Y-111108258D02*
X138311620Y-111528260D01*
X142571355Y-106848523D02*
X138311620Y-111108258D01*
X142571355Y-103530173D02*
X142571355Y-106848523D01*
X128624698Y-98195356D02*
X141227728Y-101201860D01*
X163869415Y-96650271D02*
X158681288Y-88521107D01*
X150324380Y-80036001D02*
X150140001Y-80036001D01*
X150672300Y-79688081D02*
X150324380Y-80036001D01*
X150672300Y-78486000D02*
X150672300Y-79688081D01*
X162667334Y-96650271D02*
X152469082Y-106848523D01*
X152469082Y-106848523D02*
X142571355Y-106848523D01*
X163869415Y-96650271D02*
X162667334Y-96650271D01*
X130017908Y-98195356D02*
X128624698Y-98195356D01*
X148177263Y-80036001D02*
X130017908Y-98195356D01*
X150140001Y-80036001D02*
X148177263Y-80036001D01*
X153764463Y-83152463D02*
X150648001Y-80036001D01*
X160622463Y-83152463D02*
X153764463Y-83152463D01*
X161148869Y-83678869D02*
X160622463Y-83152463D01*
X150648001Y-80036001D02*
X150140001Y-80036001D01*
D17*
%TO.N,GND*%
X135382632Y-101493154D02*
X133751154Y-101493154D01*
D18*
X159410173Y-85266645D02*
X158496000Y-86614000D01*
D17*
X153383593Y-88265000D02*
X152836192Y-88812401D01*
X155321000Y-88265000D02*
X153383593Y-88265000D01*
D18*
X158623000Y-84455000D02*
X159307645Y-85139645D01*
D17*
%TO.N,Net-(D1-Pad2)*%
X150332278Y-101094121D02*
X147465951Y-98242936D01*
X148190049Y-90733064D02*
X144780000Y-88138000D01*
X148190049Y-90733064D02*
X147828000Y-93726000D01*
X147828000Y-95250000D02*
X147465951Y-98242936D01*
X152990860Y-85932253D02*
X148190049Y-90733064D01*
X156800375Y-85932253D02*
X152990860Y-85932253D01*
%TO.N,Net-(D1-Pad4)*%
X154717105Y-91401255D02*
X153924000Y-90424000D01*
%TO.N,Net-(D2-Pad4)*%
X127839795Y-100611039D02*
X137263545Y-104082008D01*
%TO.N,Net-(D2-Pad2)*%
X152435722Y-99565879D02*
X151511036Y-95304010D01*
X144144964Y-93671990D02*
X142676556Y-89666242D01*
X144144964Y-93671990D02*
X139346815Y-98613006D01*
X151511036Y-95304010D02*
X144144964Y-93671990D01*
%TO.N,Net-(J1-Pad3)*%
X151384000Y-100330000D02*
X149488493Y-96773473D01*
X153174518Y-102120518D02*
X151384000Y-100330000D01*
X155641452Y-102120518D02*
X153174518Y-102120518D01*
X158725985Y-99035985D02*
X155641452Y-102120518D01*
%TO.N,Net-(J2-Pad3)*%
X146167507Y-92202527D02*
X143728278Y-88902121D01*
X146167507Y-92202527D02*
X146167507Y-92592493D01*
X136583919Y-111068673D02*
X136583919Y-111528260D01*
X136583919Y-111008396D02*
X136583919Y-111528260D01*
X136335982Y-111528260D02*
X135771620Y-111528260D01*
X143728278Y-88902121D02*
X143191338Y-88365181D01*
X135771620Y-107306380D02*
X135771620Y-111528260D01*
X135771620Y-105559447D02*
X135771620Y-111528260D01*
X133785907Y-103573734D02*
X135771620Y-105559447D01*
X137208162Y-93619920D02*
X133858000Y-96970082D01*
X143191338Y-88365181D02*
X142462901Y-88365181D01*
X133858000Y-96970082D02*
X133858000Y-98298000D01*
X142462901Y-88365181D02*
X137208162Y-93619920D01*
%TD*%
D19*
%TO.N,GND*%
X160317611Y-113293260D02*
X121863260Y-113293260D01*
X126031486Y-100464779D01*
X126354795Y-100464779D01*
X126354795Y-100757299D01*
X126411863Y-101044197D01*
X126523805Y-101314450D01*
X126686320Y-101557671D01*
X126893163Y-101764514D01*
X127136384Y-101927029D01*
X127406637Y-102038971D01*
X127693535Y-102096039D01*
X127986055Y-102096039D01*
X128272953Y-102038971D01*
X128543206Y-101927029D01*
X128781506Y-101767802D01*
X132800517Y-103248091D01*
X132790681Y-103271836D01*
X132750907Y-103471795D01*
X132750907Y-103675673D01*
X132790681Y-103875632D01*
X132868702Y-104063990D01*
X132981970Y-104233508D01*
X133126133Y-104377671D01*
X133295651Y-104490939D01*
X133484009Y-104568960D01*
X133683968Y-104608734D01*
X133746106Y-104608734D01*
X135011620Y-105874249D01*
X135011620Y-107269048D01*
X135011621Y-109627727D01*
X135011621Y-110250081D01*
X134824988Y-110374785D01*
X134618145Y-110581628D01*
X134455630Y-110824849D01*
X134343688Y-111095102D01*
X134286620Y-111382000D01*
X134286620Y-111674520D01*
X134343688Y-111961418D01*
X134455630Y-112231671D01*
X134618145Y-112474892D01*
X134824988Y-112681735D01*
X135068209Y-112844250D01*
X135338462Y-112956192D01*
X135625360Y-113013260D01*
X135917880Y-113013260D01*
X136204778Y-112956192D01*
X136475031Y-112844250D01*
X136718252Y-112681735D01*
X136925095Y-112474892D01*
X137041620Y-112300500D01*
X137158145Y-112474892D01*
X137364988Y-112681735D01*
X137608209Y-112844250D01*
X137878462Y-112956192D01*
X138165360Y-113013260D01*
X138457880Y-113013260D01*
X138744778Y-112956192D01*
X139015031Y-112844250D01*
X139258252Y-112681735D01*
X139390107Y-112549880D01*
X139412118Y-112622440D01*
X139471083Y-112732754D01*
X139550435Y-112829445D01*
X139647126Y-112908797D01*
X139757440Y-112967762D01*
X139877138Y-113004072D01*
X140001620Y-113016332D01*
X140565870Y-113013260D01*
X140724620Y-112854510D01*
X140724620Y-111655260D01*
X140978620Y-111655260D01*
X140978620Y-112854510D01*
X141137370Y-113013260D01*
X141701620Y-113016332D01*
X141826102Y-113004072D01*
X141945800Y-112967762D01*
X142056114Y-112908797D01*
X142152805Y-112829445D01*
X142232157Y-112732754D01*
X142291122Y-112622440D01*
X142327432Y-112502742D01*
X142339692Y-112378260D01*
X142336620Y-111814010D01*
X142177870Y-111655260D01*
X140978620Y-111655260D01*
X140724620Y-111655260D01*
X140704620Y-111655260D01*
X140704620Y-111401260D01*
X140724620Y-111401260D01*
X140724620Y-111381260D01*
X140978620Y-111381260D01*
X140978620Y-111401260D01*
X142177870Y-111401260D01*
X142336620Y-111242510D01*
X142339692Y-110678260D01*
X142327432Y-110553778D01*
X142291122Y-110434080D01*
X142232157Y-110323766D01*
X142152805Y-110227075D01*
X142056114Y-110147723D01*
X141945800Y-110088758D01*
X141826102Y-110052448D01*
X141701620Y-110040188D01*
X141137370Y-110043260D01*
X140978622Y-110202008D01*
X140978622Y-110046387D01*
X142196601Y-108828408D01*
X155448000Y-108828408D01*
X155448000Y-109103592D01*
X155501686Y-109373490D01*
X155606995Y-109627727D01*
X155759880Y-109856535D01*
X155954465Y-110051120D01*
X156183273Y-110204005D01*
X156437510Y-110309314D01*
X156707408Y-110363000D01*
X156982592Y-110363000D01*
X157252490Y-110309314D01*
X157506727Y-110204005D01*
X157735535Y-110051120D01*
X157930120Y-109856535D01*
X158083005Y-109627727D01*
X158188314Y-109373490D01*
X158242000Y-109103592D01*
X158242000Y-108828408D01*
X158188314Y-108558510D01*
X158083005Y-108304273D01*
X157930120Y-108075465D01*
X157735535Y-107880880D01*
X157506727Y-107727995D01*
X157252490Y-107622686D01*
X156982592Y-107569000D01*
X156707408Y-107569000D01*
X156437510Y-107622686D01*
X156183273Y-107727995D01*
X155954465Y-107880880D01*
X155759880Y-108075465D01*
X155606995Y-108304273D01*
X155501686Y-108558510D01*
X155448000Y-108828408D01*
X142196601Y-108828408D01*
X143041487Y-107983523D01*
X152413331Y-107983523D01*
X152469082Y-107989014D01*
X152524833Y-107983523D01*
X152524834Y-107983523D01*
X152691581Y-107967100D01*
X152905529Y-107902199D01*
X153102705Y-107796807D01*
X153275531Y-107654972D01*
X153311078Y-107611658D01*
X161617930Y-99304807D01*
X161656580Y-99499112D01*
X161768522Y-99769365D01*
X161931037Y-100012586D01*
X162137880Y-100219429D01*
X162381101Y-100381944D01*
X162651354Y-100493886D01*
X162938252Y-100550954D01*
X163230772Y-100550954D01*
X163517670Y-100493886D01*
X163787923Y-100381944D01*
X164031144Y-100219429D01*
X164237987Y-100012586D01*
X164400502Y-99769365D01*
X164512444Y-99499112D01*
X164569512Y-99212214D01*
X164569512Y-98919694D01*
X164512444Y-98632796D01*
X164400502Y-98362543D01*
X164237987Y-98119322D01*
X164214406Y-98095741D01*
X164302573Y-98078203D01*
X164572826Y-97966261D01*
X164816047Y-97803746D01*
X165022890Y-97596903D01*
X165185405Y-97353682D01*
X165297347Y-97083429D01*
X165354415Y-96796531D01*
X165354415Y-96504011D01*
X165297347Y-96217113D01*
X165185405Y-95946860D01*
X165181088Y-95940399D01*
X165250114Y-95941755D01*
X165373250Y-95919765D01*
X165489730Y-95874176D01*
X165595078Y-95806738D01*
X165685246Y-95720045D01*
X165756767Y-95617425D01*
X165806894Y-95502825D01*
X165978335Y-94965242D01*
X165876412Y-94765205D01*
X164735857Y-94394616D01*
X164729677Y-94413637D01*
X164488108Y-94335148D01*
X164494289Y-94316126D01*
X164475268Y-94309946D01*
X164526246Y-94153048D01*
X164814347Y-94153048D01*
X165954902Y-94523637D01*
X166154939Y-94421713D01*
X166332223Y-93886028D01*
X166359030Y-93763851D01*
X166361486Y-93638791D01*
X166339496Y-93515655D01*
X166293907Y-93399175D01*
X166226469Y-93293827D01*
X166139776Y-93203659D01*
X166037156Y-93132138D01*
X165922556Y-93082011D01*
X165384973Y-92910570D01*
X165184936Y-93012493D01*
X164814347Y-94153048D01*
X164526246Y-94153048D01*
X164553757Y-94068377D01*
X164572779Y-94074558D01*
X164943368Y-92934003D01*
X164841444Y-92733966D01*
X164305759Y-92556682D01*
X164183582Y-92529875D01*
X164058522Y-92527419D01*
X163935386Y-92549409D01*
X163818906Y-92594998D01*
X163713558Y-92662436D01*
X163623390Y-92749129D01*
X163551869Y-92851749D01*
X163501742Y-92966349D01*
X163330301Y-93503932D01*
X163432223Y-93703967D01*
X163310198Y-93664318D01*
X160183844Y-88765701D01*
X160708817Y-88341164D01*
X160815721Y-88304093D01*
X160965916Y-88216062D01*
X161734483Y-87657666D01*
X161864619Y-87542024D01*
X161969694Y-87403216D01*
X162045670Y-87246577D01*
X162089626Y-87078125D01*
X162090199Y-87068410D01*
X162097153Y-87059936D01*
X162202545Y-86862760D01*
X162267446Y-86648812D01*
X162283869Y-86482065D01*
X162283869Y-86482058D01*
X162289359Y-86426314D01*
X162283869Y-86370570D01*
X162283869Y-83734621D01*
X162289360Y-83678869D01*
X162267446Y-83456370D01*
X162202545Y-83242422D01*
X162154461Y-83152463D01*
X162097153Y-83045246D01*
X161955318Y-82872420D01*
X161912009Y-82836877D01*
X161464458Y-82389327D01*
X161428912Y-82346014D01*
X161256086Y-82204179D01*
X161058910Y-82098787D01*
X160844962Y-82033886D01*
X160678215Y-82017463D01*
X160678214Y-82017463D01*
X160622463Y-82011972D01*
X160566712Y-82017463D01*
X154234595Y-82017463D01*
X152153307Y-79936176D01*
X152237818Y-79961812D01*
X152362300Y-79974072D01*
X152926550Y-79971000D01*
X153085300Y-79812250D01*
X153085300Y-78613000D01*
X153339300Y-78613000D01*
X153339300Y-79812250D01*
X153498050Y-79971000D01*
X154062300Y-79974072D01*
X154186782Y-79961812D01*
X154306480Y-79925502D01*
X154416794Y-79866537D01*
X154513485Y-79787185D01*
X154592837Y-79690494D01*
X154651802Y-79580180D01*
X154688112Y-79460482D01*
X154700372Y-79336000D01*
X154697300Y-78771750D01*
X154538550Y-78613000D01*
X153339300Y-78613000D01*
X153085300Y-78613000D01*
X153065300Y-78613000D01*
X153065300Y-78359000D01*
X153085300Y-78359000D01*
X153085300Y-77159750D01*
X153339300Y-77159750D01*
X153339300Y-78359000D01*
X154538550Y-78359000D01*
X154697300Y-78200250D01*
X154700372Y-77636000D01*
X154688112Y-77511518D01*
X154651802Y-77391820D01*
X154592837Y-77281506D01*
X154513485Y-77184815D01*
X154416794Y-77105463D01*
X154306480Y-77046498D01*
X154186782Y-77010188D01*
X154062300Y-76997928D01*
X153498050Y-77001000D01*
X153339300Y-77159750D01*
X153085300Y-77159750D01*
X152926550Y-77001000D01*
X152362300Y-76997928D01*
X152237818Y-77010188D01*
X152118120Y-77046498D01*
X152007806Y-77105463D01*
X151911115Y-77184815D01*
X151831763Y-77281506D01*
X151772798Y-77391820D01*
X151750787Y-77464380D01*
X151618932Y-77332525D01*
X151375711Y-77170010D01*
X151105458Y-77058068D01*
X150818560Y-77001000D01*
X150526040Y-77001000D01*
X150239142Y-77058068D01*
X149968889Y-77170010D01*
X149725668Y-77332525D01*
X149518825Y-77539368D01*
X149402300Y-77713760D01*
X149285775Y-77539368D01*
X149078932Y-77332525D01*
X148835711Y-77170010D01*
X148565458Y-77058068D01*
X148278560Y-77001000D01*
X147986040Y-77001000D01*
X147699142Y-77058068D01*
X147428889Y-77170010D01*
X147185668Y-77332525D01*
X146978825Y-77539368D01*
X146816310Y-77782589D01*
X146704368Y-78052842D01*
X146647300Y-78339740D01*
X146647300Y-78632260D01*
X146704368Y-78919158D01*
X146816310Y-79189411D01*
X146978825Y-79432632D01*
X147077163Y-79530970D01*
X131043228Y-95564905D01*
X131087506Y-95431113D01*
X131114313Y-95308936D01*
X131116769Y-95183876D01*
X131094779Y-95060740D01*
X131049190Y-94944260D01*
X130981752Y-94838912D01*
X130895059Y-94748744D01*
X130792439Y-94677223D01*
X130677839Y-94627096D01*
X130140256Y-94455655D01*
X129940219Y-94557578D01*
X129569630Y-95698133D01*
X129588651Y-95704313D01*
X129510162Y-95945882D01*
X129491140Y-95939701D01*
X129484960Y-95958722D01*
X129243391Y-95880233D01*
X129249572Y-95861211D01*
X128109017Y-95490622D01*
X127908980Y-95592546D01*
X127731696Y-96128231D01*
X127704889Y-96250408D01*
X127702433Y-96375468D01*
X127724423Y-96498604D01*
X127770012Y-96615084D01*
X127837450Y-96720432D01*
X127924143Y-96810600D01*
X127984965Y-96852990D01*
X127921287Y-96879366D01*
X127678066Y-97041881D01*
X127471223Y-97248724D01*
X127308708Y-97491945D01*
X127196766Y-97762198D01*
X127139698Y-98049096D01*
X127139698Y-98341616D01*
X127196766Y-98628514D01*
X127308708Y-98898767D01*
X127471223Y-99141988D01*
X127494804Y-99165569D01*
X127406637Y-99183107D01*
X127136384Y-99295049D01*
X126893163Y-99457564D01*
X126686320Y-99664407D01*
X126523805Y-99907628D01*
X126411863Y-100177881D01*
X126354795Y-100464779D01*
X126031486Y-100464779D01*
X127791174Y-95049017D01*
X128085584Y-95049017D01*
X128187507Y-95249054D01*
X129328062Y-95619643D01*
X129698651Y-94479088D01*
X129596727Y-94279051D01*
X129061042Y-94101767D01*
X128938865Y-94074960D01*
X128813805Y-94072504D01*
X128690669Y-94094494D01*
X128574189Y-94140083D01*
X128468841Y-94207521D01*
X128378673Y-94294214D01*
X128307152Y-94396834D01*
X128257025Y-94511434D01*
X128085584Y-95049017D01*
X127791174Y-95049017D01*
X132268441Y-81269408D01*
X136017000Y-81269408D01*
X136017000Y-81544592D01*
X136070686Y-81814490D01*
X136175995Y-82068727D01*
X136328880Y-82297535D01*
X136523465Y-82492120D01*
X136752273Y-82645005D01*
X137006510Y-82750314D01*
X137276408Y-82804000D01*
X137551592Y-82804000D01*
X137821490Y-82750314D01*
X138075727Y-82645005D01*
X138304535Y-82492120D01*
X138499120Y-82297535D01*
X138652005Y-82068727D01*
X138757314Y-81814490D01*
X138811000Y-81544592D01*
X138811000Y-81269408D01*
X138757314Y-80999510D01*
X138652005Y-80745273D01*
X138499120Y-80516465D01*
X138304535Y-80321880D01*
X138075727Y-80168995D01*
X137821490Y-80063686D01*
X137551592Y-80010000D01*
X137276408Y-80010000D01*
X137006510Y-80063686D01*
X136752273Y-80168995D01*
X136523465Y-80321880D01*
X136328880Y-80516465D01*
X136175995Y-80745273D01*
X136070686Y-80999510D01*
X136017000Y-81269408D01*
X132268441Y-81269408D01*
X133746309Y-76721000D01*
X172200658Y-76721000D01*
X160317611Y-113293260D01*
%TA.AperFunction,Conductor*%
D20*
G36*
X160317611Y-113293260D02*
G01*
X121863260Y-113293260D01*
X126031486Y-100464779D01*
X126354795Y-100464779D01*
X126354795Y-100757299D01*
X126411863Y-101044197D01*
X126523805Y-101314450D01*
X126686320Y-101557671D01*
X126893163Y-101764514D01*
X127136384Y-101927029D01*
X127406637Y-102038971D01*
X127693535Y-102096039D01*
X127986055Y-102096039D01*
X128272953Y-102038971D01*
X128543206Y-101927029D01*
X128781506Y-101767802D01*
X132800517Y-103248091D01*
X132790681Y-103271836D01*
X132750907Y-103471795D01*
X132750907Y-103675673D01*
X132790681Y-103875632D01*
X132868702Y-104063990D01*
X132981970Y-104233508D01*
X133126133Y-104377671D01*
X133295651Y-104490939D01*
X133484009Y-104568960D01*
X133683968Y-104608734D01*
X133746106Y-104608734D01*
X135011620Y-105874249D01*
X135011620Y-107269048D01*
X135011621Y-109627727D01*
X135011621Y-110250081D01*
X134824988Y-110374785D01*
X134618145Y-110581628D01*
X134455630Y-110824849D01*
X134343688Y-111095102D01*
X134286620Y-111382000D01*
X134286620Y-111674520D01*
X134343688Y-111961418D01*
X134455630Y-112231671D01*
X134618145Y-112474892D01*
X134824988Y-112681735D01*
X135068209Y-112844250D01*
X135338462Y-112956192D01*
X135625360Y-113013260D01*
X135917880Y-113013260D01*
X136204778Y-112956192D01*
X136475031Y-112844250D01*
X136718252Y-112681735D01*
X136925095Y-112474892D01*
X137041620Y-112300500D01*
X137158145Y-112474892D01*
X137364988Y-112681735D01*
X137608209Y-112844250D01*
X137878462Y-112956192D01*
X138165360Y-113013260D01*
X138457880Y-113013260D01*
X138744778Y-112956192D01*
X139015031Y-112844250D01*
X139258252Y-112681735D01*
X139390107Y-112549880D01*
X139412118Y-112622440D01*
X139471083Y-112732754D01*
X139550435Y-112829445D01*
X139647126Y-112908797D01*
X139757440Y-112967762D01*
X139877138Y-113004072D01*
X140001620Y-113016332D01*
X140565870Y-113013260D01*
X140724620Y-112854510D01*
X140724620Y-111655260D01*
X140978620Y-111655260D01*
X140978620Y-112854510D01*
X141137370Y-113013260D01*
X141701620Y-113016332D01*
X141826102Y-113004072D01*
X141945800Y-112967762D01*
X142056114Y-112908797D01*
X142152805Y-112829445D01*
X142232157Y-112732754D01*
X142291122Y-112622440D01*
X142327432Y-112502742D01*
X142339692Y-112378260D01*
X142336620Y-111814010D01*
X142177870Y-111655260D01*
X140978620Y-111655260D01*
X140724620Y-111655260D01*
X140704620Y-111655260D01*
X140704620Y-111401260D01*
X140724620Y-111401260D01*
X140724620Y-111381260D01*
X140978620Y-111381260D01*
X140978620Y-111401260D01*
X142177870Y-111401260D01*
X142336620Y-111242510D01*
X142339692Y-110678260D01*
X142327432Y-110553778D01*
X142291122Y-110434080D01*
X142232157Y-110323766D01*
X142152805Y-110227075D01*
X142056114Y-110147723D01*
X141945800Y-110088758D01*
X141826102Y-110052448D01*
X141701620Y-110040188D01*
X141137370Y-110043260D01*
X140978622Y-110202008D01*
X140978622Y-110046387D01*
X142196601Y-108828408D01*
X155448000Y-108828408D01*
X155448000Y-109103592D01*
X155501686Y-109373490D01*
X155606995Y-109627727D01*
X155759880Y-109856535D01*
X155954465Y-110051120D01*
X156183273Y-110204005D01*
X156437510Y-110309314D01*
X156707408Y-110363000D01*
X156982592Y-110363000D01*
X157252490Y-110309314D01*
X157506727Y-110204005D01*
X157735535Y-110051120D01*
X157930120Y-109856535D01*
X158083005Y-109627727D01*
X158188314Y-109373490D01*
X158242000Y-109103592D01*
X158242000Y-108828408D01*
X158188314Y-108558510D01*
X158083005Y-108304273D01*
X157930120Y-108075465D01*
X157735535Y-107880880D01*
X157506727Y-107727995D01*
X157252490Y-107622686D01*
X156982592Y-107569000D01*
X156707408Y-107569000D01*
X156437510Y-107622686D01*
X156183273Y-107727995D01*
X155954465Y-107880880D01*
X155759880Y-108075465D01*
X155606995Y-108304273D01*
X155501686Y-108558510D01*
X155448000Y-108828408D01*
X142196601Y-108828408D01*
X143041487Y-107983523D01*
X152413331Y-107983523D01*
X152469082Y-107989014D01*
X152524833Y-107983523D01*
X152524834Y-107983523D01*
X152691581Y-107967100D01*
X152905529Y-107902199D01*
X153102705Y-107796807D01*
X153275531Y-107654972D01*
X153311078Y-107611658D01*
X161617930Y-99304807D01*
X161656580Y-99499112D01*
X161768522Y-99769365D01*
X161931037Y-100012586D01*
X162137880Y-100219429D01*
X162381101Y-100381944D01*
X162651354Y-100493886D01*
X162938252Y-100550954D01*
X163230772Y-100550954D01*
X163517670Y-100493886D01*
X163787923Y-100381944D01*
X164031144Y-100219429D01*
X164237987Y-100012586D01*
X164400502Y-99769365D01*
X164512444Y-99499112D01*
X164569512Y-99212214D01*
X164569512Y-98919694D01*
X164512444Y-98632796D01*
X164400502Y-98362543D01*
X164237987Y-98119322D01*
X164214406Y-98095741D01*
X164302573Y-98078203D01*
X164572826Y-97966261D01*
X164816047Y-97803746D01*
X165022890Y-97596903D01*
X165185405Y-97353682D01*
X165297347Y-97083429D01*
X165354415Y-96796531D01*
X165354415Y-96504011D01*
X165297347Y-96217113D01*
X165185405Y-95946860D01*
X165181088Y-95940399D01*
X165250114Y-95941755D01*
X165373250Y-95919765D01*
X165489730Y-95874176D01*
X165595078Y-95806738D01*
X165685246Y-95720045D01*
X165756767Y-95617425D01*
X165806894Y-95502825D01*
X165978335Y-94965242D01*
X165876412Y-94765205D01*
X164735857Y-94394616D01*
X164729677Y-94413637D01*
X164488108Y-94335148D01*
X164494289Y-94316126D01*
X164475268Y-94309946D01*
X164526246Y-94153048D01*
X164814347Y-94153048D01*
X165954902Y-94523637D01*
X166154939Y-94421713D01*
X166332223Y-93886028D01*
X166359030Y-93763851D01*
X166361486Y-93638791D01*
X166339496Y-93515655D01*
X166293907Y-93399175D01*
X166226469Y-93293827D01*
X166139776Y-93203659D01*
X166037156Y-93132138D01*
X165922556Y-93082011D01*
X165384973Y-92910570D01*
X165184936Y-93012493D01*
X164814347Y-94153048D01*
X164526246Y-94153048D01*
X164553757Y-94068377D01*
X164572779Y-94074558D01*
X164943368Y-92934003D01*
X164841444Y-92733966D01*
X164305759Y-92556682D01*
X164183582Y-92529875D01*
X164058522Y-92527419D01*
X163935386Y-92549409D01*
X163818906Y-92594998D01*
X163713558Y-92662436D01*
X163623390Y-92749129D01*
X163551869Y-92851749D01*
X163501742Y-92966349D01*
X163330301Y-93503932D01*
X163432223Y-93703967D01*
X163310198Y-93664318D01*
X160183844Y-88765701D01*
X160708817Y-88341164D01*
X160815721Y-88304093D01*
X160965916Y-88216062D01*
X161734483Y-87657666D01*
X161864619Y-87542024D01*
X161969694Y-87403216D01*
X162045670Y-87246577D01*
X162089626Y-87078125D01*
X162090199Y-87068410D01*
X162097153Y-87059936D01*
X162202545Y-86862760D01*
X162267446Y-86648812D01*
X162283869Y-86482065D01*
X162283869Y-86482058D01*
X162289359Y-86426314D01*
X162283869Y-86370570D01*
X162283869Y-83734621D01*
X162289360Y-83678869D01*
X162267446Y-83456370D01*
X162202545Y-83242422D01*
X162154461Y-83152463D01*
X162097153Y-83045246D01*
X161955318Y-82872420D01*
X161912009Y-82836877D01*
X161464458Y-82389327D01*
X161428912Y-82346014D01*
X161256086Y-82204179D01*
X161058910Y-82098787D01*
X160844962Y-82033886D01*
X160678215Y-82017463D01*
X160678214Y-82017463D01*
X160622463Y-82011972D01*
X160566712Y-82017463D01*
X154234595Y-82017463D01*
X152153307Y-79936176D01*
X152237818Y-79961812D01*
X152362300Y-79974072D01*
X152926550Y-79971000D01*
X153085300Y-79812250D01*
X153085300Y-78613000D01*
X153339300Y-78613000D01*
X153339300Y-79812250D01*
X153498050Y-79971000D01*
X154062300Y-79974072D01*
X154186782Y-79961812D01*
X154306480Y-79925502D01*
X154416794Y-79866537D01*
X154513485Y-79787185D01*
X154592837Y-79690494D01*
X154651802Y-79580180D01*
X154688112Y-79460482D01*
X154700372Y-79336000D01*
X154697300Y-78771750D01*
X154538550Y-78613000D01*
X153339300Y-78613000D01*
X153085300Y-78613000D01*
X153065300Y-78613000D01*
X153065300Y-78359000D01*
X153085300Y-78359000D01*
X153085300Y-77159750D01*
X153339300Y-77159750D01*
X153339300Y-78359000D01*
X154538550Y-78359000D01*
X154697300Y-78200250D01*
X154700372Y-77636000D01*
X154688112Y-77511518D01*
X154651802Y-77391820D01*
X154592837Y-77281506D01*
X154513485Y-77184815D01*
X154416794Y-77105463D01*
X154306480Y-77046498D01*
X154186782Y-77010188D01*
X154062300Y-76997928D01*
X153498050Y-77001000D01*
X153339300Y-77159750D01*
X153085300Y-77159750D01*
X152926550Y-77001000D01*
X152362300Y-76997928D01*
X152237818Y-77010188D01*
X152118120Y-77046498D01*
X152007806Y-77105463D01*
X151911115Y-77184815D01*
X151831763Y-77281506D01*
X151772798Y-77391820D01*
X151750787Y-77464380D01*
X151618932Y-77332525D01*
X151375711Y-77170010D01*
X151105458Y-77058068D01*
X150818560Y-77001000D01*
X150526040Y-77001000D01*
X150239142Y-77058068D01*
X149968889Y-77170010D01*
X149725668Y-77332525D01*
X149518825Y-77539368D01*
X149402300Y-77713760D01*
X149285775Y-77539368D01*
X149078932Y-77332525D01*
X148835711Y-77170010D01*
X148565458Y-77058068D01*
X148278560Y-77001000D01*
X147986040Y-77001000D01*
X147699142Y-77058068D01*
X147428889Y-77170010D01*
X147185668Y-77332525D01*
X146978825Y-77539368D01*
X146816310Y-77782589D01*
X146704368Y-78052842D01*
X146647300Y-78339740D01*
X146647300Y-78632260D01*
X146704368Y-78919158D01*
X146816310Y-79189411D01*
X146978825Y-79432632D01*
X147077163Y-79530970D01*
X131043228Y-95564905D01*
X131087506Y-95431113D01*
X131114313Y-95308936D01*
X131116769Y-95183876D01*
X131094779Y-95060740D01*
X131049190Y-94944260D01*
X130981752Y-94838912D01*
X130895059Y-94748744D01*
X130792439Y-94677223D01*
X130677839Y-94627096D01*
X130140256Y-94455655D01*
X129940219Y-94557578D01*
X129569630Y-95698133D01*
X129588651Y-95704313D01*
X129510162Y-95945882D01*
X129491140Y-95939701D01*
X129484960Y-95958722D01*
X129243391Y-95880233D01*
X129249572Y-95861211D01*
X128109017Y-95490622D01*
X127908980Y-95592546D01*
X127731696Y-96128231D01*
X127704889Y-96250408D01*
X127702433Y-96375468D01*
X127724423Y-96498604D01*
X127770012Y-96615084D01*
X127837450Y-96720432D01*
X127924143Y-96810600D01*
X127984965Y-96852990D01*
X127921287Y-96879366D01*
X127678066Y-97041881D01*
X127471223Y-97248724D01*
X127308708Y-97491945D01*
X127196766Y-97762198D01*
X127139698Y-98049096D01*
X127139698Y-98341616D01*
X127196766Y-98628514D01*
X127308708Y-98898767D01*
X127471223Y-99141988D01*
X127494804Y-99165569D01*
X127406637Y-99183107D01*
X127136384Y-99295049D01*
X126893163Y-99457564D01*
X126686320Y-99664407D01*
X126523805Y-99907628D01*
X126411863Y-100177881D01*
X126354795Y-100464779D01*
X126031486Y-100464779D01*
X127791174Y-95049017D01*
X128085584Y-95049017D01*
X128187507Y-95249054D01*
X129328062Y-95619643D01*
X129698651Y-94479088D01*
X129596727Y-94279051D01*
X129061042Y-94101767D01*
X128938865Y-94074960D01*
X128813805Y-94072504D01*
X128690669Y-94094494D01*
X128574189Y-94140083D01*
X128468841Y-94207521D01*
X128378673Y-94294214D01*
X128307152Y-94396834D01*
X128257025Y-94511434D01*
X128085584Y-95049017D01*
X127791174Y-95049017D01*
X132268441Y-81269408D01*
X136017000Y-81269408D01*
X136017000Y-81544592D01*
X136070686Y-81814490D01*
X136175995Y-82068727D01*
X136328880Y-82297535D01*
X136523465Y-82492120D01*
X136752273Y-82645005D01*
X137006510Y-82750314D01*
X137276408Y-82804000D01*
X137551592Y-82804000D01*
X137821490Y-82750314D01*
X138075727Y-82645005D01*
X138304535Y-82492120D01*
X138499120Y-82297535D01*
X138652005Y-82068727D01*
X138757314Y-81814490D01*
X138811000Y-81544592D01*
X138811000Y-81269408D01*
X138757314Y-80999510D01*
X138652005Y-80745273D01*
X138499120Y-80516465D01*
X138304535Y-80321880D01*
X138075727Y-80168995D01*
X137821490Y-80063686D01*
X137551592Y-80010000D01*
X137276408Y-80010000D01*
X137006510Y-80063686D01*
X136752273Y-80168995D01*
X136523465Y-80321880D01*
X136328880Y-80516465D01*
X136175995Y-80745273D01*
X136070686Y-80999510D01*
X136017000Y-81269408D01*
X132268441Y-81269408D01*
X133746309Y-76721000D01*
X172200658Y-76721000D01*
X160317611Y-113293260D01*
G37*
%TD.AperFunction*%
D19*
X135410728Y-101315760D02*
X135426909Y-101304004D01*
X135576206Y-101509495D01*
X135560026Y-101521250D01*
X136059203Y-102208308D01*
X136280945Y-102243429D01*
X136658337Y-101973035D01*
X136751838Y-101889947D01*
X136827334Y-101790215D01*
X136881921Y-101677671D01*
X136913504Y-101556640D01*
X136920867Y-101431773D01*
X136907925Y-101338201D01*
X140177762Y-102118234D01*
X140398647Y-102422256D01*
X140481734Y-102515758D01*
X140581466Y-102591253D01*
X140694010Y-102645841D01*
X140760622Y-102663223D01*
X141067164Y-103194417D01*
X141041615Y-103187750D01*
X140916748Y-103180386D01*
X140792843Y-103197523D01*
X140674663Y-103238505D01*
X140566749Y-103301755D01*
X140324434Y-103481604D01*
X140289313Y-103703347D01*
X140920741Y-104572433D01*
X140936922Y-104560677D01*
X141086219Y-104766168D01*
X141070039Y-104777923D01*
X141081795Y-104794104D01*
X140876304Y-104943401D01*
X140864549Y-104927221D01*
X140106702Y-105477829D01*
X140071581Y-105699571D01*
X140327281Y-106056737D01*
X140410368Y-106150239D01*
X140510100Y-106225735D01*
X140622645Y-106280322D01*
X140743675Y-106311904D01*
X140868542Y-106319268D01*
X140992447Y-106302131D01*
X141110627Y-106261149D01*
X141218541Y-106197899D01*
X141436356Y-106036234D01*
X141436356Y-106378390D01*
X137590935Y-110223812D01*
X137364988Y-110374785D01*
X137190387Y-110549386D01*
X137123920Y-110468395D01*
X137008194Y-110373422D01*
X136876165Y-110302850D01*
X136732904Y-110259393D01*
X136583919Y-110244719D01*
X136531620Y-110249870D01*
X136531620Y-105596769D01*
X136535296Y-105559446D01*
X136531620Y-105522123D01*
X136531620Y-105522114D01*
X136520623Y-105410461D01*
X136515512Y-105393611D01*
X136517551Y-105395906D01*
X136617283Y-105471401D01*
X136729827Y-105525989D01*
X136850858Y-105557571D01*
X136975725Y-105564935D01*
X137099630Y-105547797D01*
X137217810Y-105506816D01*
X137325724Y-105443566D01*
X138539249Y-104561889D01*
X138571012Y-104533664D01*
X139353623Y-104533664D01*
X139370761Y-104657568D01*
X139411742Y-104775749D01*
X139474992Y-104883663D01*
X139735662Y-105237218D01*
X139957404Y-105272338D01*
X140715251Y-104721731D01*
X140083823Y-103852644D01*
X139862080Y-103817524D01*
X139616154Y-103992402D01*
X139522652Y-104075490D01*
X139447157Y-104175222D01*
X139392570Y-104287766D01*
X139360987Y-104408797D01*
X139353623Y-104533664D01*
X138571012Y-104533664D01*
X138632751Y-104478802D01*
X138708246Y-104379070D01*
X138762834Y-104266526D01*
X138794416Y-104145495D01*
X138801780Y-104020628D01*
X138784642Y-103896723D01*
X138743661Y-103778543D01*
X138680411Y-103670629D01*
X138092626Y-102861612D01*
X138009539Y-102768110D01*
X137909807Y-102692615D01*
X137797263Y-102638027D01*
X137676232Y-102606445D01*
X137551365Y-102599081D01*
X137427460Y-102616219D01*
X137309280Y-102657200D01*
X137201366Y-102720450D01*
X136718435Y-103071320D01*
X135673309Y-102686378D01*
X135818592Y-102579348D01*
X135853712Y-102357606D01*
X135354536Y-101670548D01*
X135338355Y-101682304D01*
X135189058Y-101476813D01*
X135205238Y-101465058D01*
X135193482Y-101448877D01*
X135398973Y-101299580D01*
X135410728Y-101315760D01*
%TA.AperFunction,Conductor*%
D20*
G36*
X135410728Y-101315760D02*
G01*
X135426909Y-101304004D01*
X135576206Y-101509495D01*
X135560026Y-101521250D01*
X136059203Y-102208308D01*
X136280945Y-102243429D01*
X136658337Y-101973035D01*
X136751838Y-101889947D01*
X136827334Y-101790215D01*
X136881921Y-101677671D01*
X136913504Y-101556640D01*
X136920867Y-101431773D01*
X136907925Y-101338201D01*
X140177762Y-102118234D01*
X140398647Y-102422256D01*
X140481734Y-102515758D01*
X140581466Y-102591253D01*
X140694010Y-102645841D01*
X140760622Y-102663223D01*
X141067164Y-103194417D01*
X141041615Y-103187750D01*
X140916748Y-103180386D01*
X140792843Y-103197523D01*
X140674663Y-103238505D01*
X140566749Y-103301755D01*
X140324434Y-103481604D01*
X140289313Y-103703347D01*
X140920741Y-104572433D01*
X140936922Y-104560677D01*
X141086219Y-104766168D01*
X141070039Y-104777923D01*
X141081795Y-104794104D01*
X140876304Y-104943401D01*
X140864549Y-104927221D01*
X140106702Y-105477829D01*
X140071581Y-105699571D01*
X140327281Y-106056737D01*
X140410368Y-106150239D01*
X140510100Y-106225735D01*
X140622645Y-106280322D01*
X140743675Y-106311904D01*
X140868542Y-106319268D01*
X140992447Y-106302131D01*
X141110627Y-106261149D01*
X141218541Y-106197899D01*
X141436356Y-106036234D01*
X141436356Y-106378390D01*
X137590935Y-110223812D01*
X137364988Y-110374785D01*
X137190387Y-110549386D01*
X137123920Y-110468395D01*
X137008194Y-110373422D01*
X136876165Y-110302850D01*
X136732904Y-110259393D01*
X136583919Y-110244719D01*
X136531620Y-110249870D01*
X136531620Y-105596769D01*
X136535296Y-105559446D01*
X136531620Y-105522123D01*
X136531620Y-105522114D01*
X136520623Y-105410461D01*
X136515512Y-105393611D01*
X136517551Y-105395906D01*
X136617283Y-105471401D01*
X136729827Y-105525989D01*
X136850858Y-105557571D01*
X136975725Y-105564935D01*
X137099630Y-105547797D01*
X137217810Y-105506816D01*
X137325724Y-105443566D01*
X138539249Y-104561889D01*
X138571012Y-104533664D01*
X139353623Y-104533664D01*
X139370761Y-104657568D01*
X139411742Y-104775749D01*
X139474992Y-104883663D01*
X139735662Y-105237218D01*
X139957404Y-105272338D01*
X140715251Y-104721731D01*
X140083823Y-103852644D01*
X139862080Y-103817524D01*
X139616154Y-103992402D01*
X139522652Y-104075490D01*
X139447157Y-104175222D01*
X139392570Y-104287766D01*
X139360987Y-104408797D01*
X139353623Y-104533664D01*
X138571012Y-104533664D01*
X138632751Y-104478802D01*
X138708246Y-104379070D01*
X138762834Y-104266526D01*
X138794416Y-104145495D01*
X138801780Y-104020628D01*
X138784642Y-103896723D01*
X138743661Y-103778543D01*
X138680411Y-103670629D01*
X138092626Y-102861612D01*
X138009539Y-102768110D01*
X137909807Y-102692615D01*
X137797263Y-102638027D01*
X137676232Y-102606445D01*
X137551365Y-102599081D01*
X137427460Y-102616219D01*
X137309280Y-102657200D01*
X137201366Y-102720450D01*
X136718435Y-103071320D01*
X135673309Y-102686378D01*
X135818592Y-102579348D01*
X135853712Y-102357606D01*
X135354536Y-101670548D01*
X135338355Y-101682304D01*
X135189058Y-101476813D01*
X135205238Y-101465058D01*
X135193482Y-101448877D01*
X135398973Y-101299580D01*
X135410728Y-101315760D01*
G37*
%TD.AperFunction*%
D19*
X146814137Y-95041799D02*
X146793000Y-95148061D01*
X146793000Y-95351939D01*
X146832774Y-95551898D01*
X146910795Y-95740256D01*
X146988997Y-95857294D01*
X146891080Y-96666739D01*
X146072852Y-97261215D01*
X145979350Y-97344302D01*
X145903855Y-97444034D01*
X145849267Y-97556578D01*
X145817685Y-97677610D01*
X145810321Y-97802477D01*
X145827459Y-97926381D01*
X145868440Y-98044561D01*
X145931690Y-98152475D01*
X147077871Y-99730058D01*
X147160958Y-99823559D01*
X147260690Y-99899055D01*
X147373234Y-99953642D01*
X147494265Y-99985225D01*
X147619132Y-99992589D01*
X147743036Y-99975451D01*
X147861217Y-99934470D01*
X147969131Y-99871220D01*
X148001546Y-99847669D01*
X149048690Y-100889281D01*
X149052467Y-100985423D01*
X149069605Y-101109330D01*
X149092487Y-101204639D01*
X149133469Y-101322819D01*
X149174505Y-101411832D01*
X149237750Y-101519738D01*
X149252188Y-101539610D01*
X149264612Y-101560808D01*
X149558505Y-101965317D01*
X149574803Y-101983654D01*
X149589257Y-102003548D01*
X149672347Y-102097053D01*
X149744322Y-102163586D01*
X149844052Y-102239080D01*
X149927625Y-102290294D01*
X150040170Y-102344882D01*
X150132130Y-102378808D01*
X150253163Y-102410391D01*
X150349972Y-102425724D01*
X150474837Y-102433088D01*
X150572780Y-102429240D01*
X150696688Y-102412102D01*
X150791997Y-102389220D01*
X150910180Y-102348236D01*
X150999192Y-102307200D01*
X151107089Y-102243962D01*
X151126967Y-102229521D01*
X151148167Y-102217095D01*
X151593126Y-101893813D01*
X151686627Y-101810726D01*
X151686955Y-101810293D01*
X151687465Y-101810116D01*
X151751678Y-101772480D01*
X152610719Y-102631521D01*
X152634517Y-102660519D01*
X152750242Y-102755492D01*
X152882271Y-102826064D01*
X153025532Y-102869521D01*
X153137185Y-102880518D01*
X153137195Y-102880518D01*
X153174518Y-102884194D01*
X153211841Y-102880518D01*
X154831956Y-102880518D01*
X151998951Y-105713523D01*
X143706355Y-105713523D01*
X143706355Y-104380549D01*
X143775727Y-104318903D01*
X143880802Y-104180096D01*
X143956777Y-104023456D01*
X144000734Y-103855005D01*
X144010983Y-103681214D01*
X143987131Y-103508763D01*
X143930093Y-103344279D01*
X143842062Y-103194084D01*
X143283666Y-102425517D01*
X143171411Y-102299192D01*
X142689399Y-101463935D01*
X142727017Y-101386378D01*
X142758599Y-101265347D01*
X142765963Y-101140480D01*
X142748825Y-101016575D01*
X142707844Y-100898395D01*
X142644594Y-100790481D01*
X142056809Y-99981464D01*
X141973722Y-99887962D01*
X141873990Y-99812467D01*
X141761446Y-99757879D01*
X141640415Y-99726297D01*
X141515548Y-99718933D01*
X141391643Y-99736071D01*
X141273463Y-99777052D01*
X141165549Y-99840302D01*
X140979167Y-99975716D01*
X139795918Y-99693448D01*
X140622519Y-99092887D01*
X140716021Y-99009800D01*
X140791516Y-98910068D01*
X140846104Y-98797524D01*
X140877686Y-98676493D01*
X140885050Y-98551626D01*
X140867912Y-98427721D01*
X140826931Y-98309541D01*
X140779487Y-98228595D01*
X143758477Y-95160905D01*
X143839971Y-95252613D01*
X143939703Y-95328109D01*
X144052247Y-95382696D01*
X144173278Y-95414279D01*
X144298145Y-95421643D01*
X144422049Y-95404505D01*
X144540230Y-95363524D01*
X144648144Y-95300274D01*
X145426933Y-94734451D01*
X146814137Y-95041799D01*
%TA.AperFunction,Conductor*%
D20*
G36*
X146814137Y-95041799D02*
G01*
X146793000Y-95148061D01*
X146793000Y-95351939D01*
X146832774Y-95551898D01*
X146910795Y-95740256D01*
X146988997Y-95857294D01*
X146891080Y-96666739D01*
X146072852Y-97261215D01*
X145979350Y-97344302D01*
X145903855Y-97444034D01*
X145849267Y-97556578D01*
X145817685Y-97677610D01*
X145810321Y-97802477D01*
X145827459Y-97926381D01*
X145868440Y-98044561D01*
X145931690Y-98152475D01*
X147077871Y-99730058D01*
X147160958Y-99823559D01*
X147260690Y-99899055D01*
X147373234Y-99953642D01*
X147494265Y-99985225D01*
X147619132Y-99992589D01*
X147743036Y-99975451D01*
X147861217Y-99934470D01*
X147969131Y-99871220D01*
X148001546Y-99847669D01*
X149048690Y-100889281D01*
X149052467Y-100985423D01*
X149069605Y-101109330D01*
X149092487Y-101204639D01*
X149133469Y-101322819D01*
X149174505Y-101411832D01*
X149237750Y-101519738D01*
X149252188Y-101539610D01*
X149264612Y-101560808D01*
X149558505Y-101965317D01*
X149574803Y-101983654D01*
X149589257Y-102003548D01*
X149672347Y-102097053D01*
X149744322Y-102163586D01*
X149844052Y-102239080D01*
X149927625Y-102290294D01*
X150040170Y-102344882D01*
X150132130Y-102378808D01*
X150253163Y-102410391D01*
X150349972Y-102425724D01*
X150474837Y-102433088D01*
X150572780Y-102429240D01*
X150696688Y-102412102D01*
X150791997Y-102389220D01*
X150910180Y-102348236D01*
X150999192Y-102307200D01*
X151107089Y-102243962D01*
X151126967Y-102229521D01*
X151148167Y-102217095D01*
X151593126Y-101893813D01*
X151686627Y-101810726D01*
X151686955Y-101810293D01*
X151687465Y-101810116D01*
X151751678Y-101772480D01*
X152610719Y-102631521D01*
X152634517Y-102660519D01*
X152750242Y-102755492D01*
X152882271Y-102826064D01*
X153025532Y-102869521D01*
X153137185Y-102880518D01*
X153137195Y-102880518D01*
X153174518Y-102884194D01*
X153211841Y-102880518D01*
X154831956Y-102880518D01*
X151998951Y-105713523D01*
X143706355Y-105713523D01*
X143706355Y-104380549D01*
X143775727Y-104318903D01*
X143880802Y-104180096D01*
X143956777Y-104023456D01*
X144000734Y-103855005D01*
X144010983Y-103681214D01*
X143987131Y-103508763D01*
X143930093Y-103344279D01*
X143842062Y-103194084D01*
X143283666Y-102425517D01*
X143171411Y-102299192D01*
X142689399Y-101463935D01*
X142727017Y-101386378D01*
X142758599Y-101265347D01*
X142765963Y-101140480D01*
X142748825Y-101016575D01*
X142707844Y-100898395D01*
X142644594Y-100790481D01*
X142056809Y-99981464D01*
X141973722Y-99887962D01*
X141873990Y-99812467D01*
X141761446Y-99757879D01*
X141640415Y-99726297D01*
X141515548Y-99718933D01*
X141391643Y-99736071D01*
X141273463Y-99777052D01*
X141165549Y-99840302D01*
X140979167Y-99975716D01*
X139795918Y-99693448D01*
X140622519Y-99092887D01*
X140716021Y-99009800D01*
X140791516Y-98910068D01*
X140846104Y-98797524D01*
X140877686Y-98676493D01*
X140885050Y-98551626D01*
X140867912Y-98427721D01*
X140826931Y-98309541D01*
X140779487Y-98228595D01*
X143758477Y-95160905D01*
X143839971Y-95252613D01*
X143939703Y-95328109D01*
X144052247Y-95382696D01*
X144173278Y-95414279D01*
X144298145Y-95421643D01*
X144422049Y-95404505D01*
X144540230Y-95363524D01*
X144648144Y-95300274D01*
X145426933Y-94734451D01*
X146814137Y-95041799D01*
G37*
%TD.AperFunction*%
D19*
X134466350Y-100755753D02*
X134106927Y-101013273D01*
X134013426Y-101096361D01*
X133937930Y-101196093D01*
X133883343Y-101308637D01*
X133851760Y-101429668D01*
X133844397Y-101554535D01*
X133861534Y-101678439D01*
X133902515Y-101796619D01*
X133965766Y-101904534D01*
X134094184Y-102076060D01*
X134315923Y-102111181D01*
X134247200Y-102161111D01*
X129299748Y-100338860D01*
X129267727Y-100177881D01*
X129155785Y-99907628D01*
X128993270Y-99664407D01*
X128969689Y-99640826D01*
X129057856Y-99623288D01*
X129299525Y-99523186D01*
X134466350Y-100755753D01*
%TA.AperFunction,Conductor*%
D20*
G36*
X134466350Y-100755753D02*
G01*
X134106927Y-101013273D01*
X134013426Y-101096361D01*
X133937930Y-101196093D01*
X133883343Y-101308637D01*
X133851760Y-101429668D01*
X133844397Y-101554535D01*
X133861534Y-101678439D01*
X133902515Y-101796619D01*
X133965766Y-101904534D01*
X134094184Y-102076060D01*
X134315923Y-102111181D01*
X134247200Y-102161111D01*
X129299748Y-100338860D01*
X129267727Y-100177881D01*
X129155785Y-99907628D01*
X128993270Y-99664407D01*
X128969689Y-99640826D01*
X129057856Y-99623288D01*
X129299525Y-99523186D01*
X134466350Y-100755753D01*
G37*
%TD.AperFunction*%
D19*
X158384560Y-86168780D02*
X158512989Y-86075470D01*
X158477870Y-86297210D01*
X158652748Y-86543136D01*
X158735836Y-86636638D01*
X158835568Y-86712133D01*
X158948112Y-86766720D01*
X159021898Y-86785975D01*
X158036646Y-87582733D01*
X157405584Y-88041226D01*
X157312082Y-88124313D01*
X157236587Y-88224045D01*
X157181999Y-88336589D01*
X157150417Y-88457620D01*
X157143053Y-88582487D01*
X157160191Y-88706392D01*
X157201172Y-88824572D01*
X157264422Y-88932486D01*
X157852207Y-89741503D01*
X157935294Y-89835005D01*
X158035026Y-89910500D01*
X158147570Y-89965088D01*
X158268601Y-89996670D01*
X158276868Y-89997158D01*
X161957613Y-95764439D01*
X161860885Y-95843822D01*
X161825343Y-95887130D01*
X159433092Y-98279381D01*
X159385759Y-98232048D01*
X159216241Y-98118780D01*
X159027883Y-98040759D01*
X158827924Y-98000985D01*
X158624046Y-98000985D01*
X158424087Y-98040759D01*
X158235729Y-98118780D01*
X158066211Y-98232048D01*
X157922048Y-98376211D01*
X157808780Y-98545729D01*
X157730759Y-98734087D01*
X157690985Y-98934046D01*
X157690985Y-98996182D01*
X155326651Y-101360518D01*
X153489320Y-101360518D01*
X153000267Y-100871465D01*
X153251611Y-100688853D01*
X153269987Y-100672525D01*
X153289847Y-100658096D01*
X153383349Y-100575007D01*
X153449882Y-100503031D01*
X153525373Y-100403305D01*
X153576587Y-100319732D01*
X153631174Y-100207189D01*
X153665100Y-100115230D01*
X153696684Y-99994194D01*
X153712017Y-99897384D01*
X153719381Y-99772519D01*
X153715533Y-99674577D01*
X153698395Y-99550670D01*
X153675513Y-99455361D01*
X153634531Y-99337181D01*
X153593495Y-99248168D01*
X153530250Y-99140262D01*
X153515812Y-99120390D01*
X153503388Y-99099192D01*
X153209495Y-98694683D01*
X153193197Y-98676346D01*
X153178743Y-98656452D01*
X153095653Y-98562947D01*
X153023678Y-98496414D01*
X152973050Y-98458090D01*
X152556517Y-96538290D01*
X152904135Y-96285731D01*
X152997637Y-96202644D01*
X153073132Y-96102912D01*
X153127720Y-95990368D01*
X153159302Y-95869336D01*
X153166666Y-95744469D01*
X153149528Y-95620565D01*
X153108547Y-95502385D01*
X153045297Y-95394471D01*
X151899116Y-93816888D01*
X151816029Y-93723387D01*
X151716297Y-93647891D01*
X151603753Y-93593304D01*
X151482722Y-93561721D01*
X151357855Y-93554357D01*
X151233951Y-93571495D01*
X151115770Y-93612476D01*
X151007856Y-93675726D01*
X150229068Y-94241548D01*
X148841863Y-93934201D01*
X148863000Y-93827939D01*
X148863000Y-93624061D01*
X148823226Y-93424102D01*
X148745205Y-93235744D01*
X148667003Y-93118706D01*
X148764920Y-92309261D01*
X149583148Y-91714785D01*
X149676650Y-91631698D01*
X149752145Y-91531966D01*
X149806733Y-91419422D01*
X149838315Y-91298390D01*
X149845679Y-91173523D01*
X149828541Y-91049619D01*
X149787560Y-90931439D01*
X149724310Y-90823525D01*
X149492899Y-90505015D01*
X150140254Y-89857660D01*
X151883663Y-89857660D01*
X152007111Y-90032798D01*
X152090198Y-90126300D01*
X152189930Y-90201795D01*
X152302475Y-90256382D01*
X152423505Y-90287965D01*
X152548372Y-90295328D01*
X152672277Y-90278191D01*
X152790457Y-90237210D01*
X152898371Y-90173960D01*
X152921908Y-90156620D01*
X152889000Y-90322061D01*
X152889000Y-90525939D01*
X152928774Y-90725898D01*
X153006795Y-90914256D01*
X153120063Y-91083774D01*
X153229316Y-91193027D01*
X153217816Y-91216737D01*
X153186234Y-91337768D01*
X153178870Y-91462635D01*
X153196008Y-91586540D01*
X153236989Y-91704720D01*
X153300239Y-91812634D01*
X153888024Y-92621651D01*
X153971111Y-92715153D01*
X154070843Y-92790648D01*
X154183387Y-92845236D01*
X154304418Y-92876818D01*
X154429285Y-92884182D01*
X154553190Y-92867044D01*
X154671370Y-92826063D01*
X154779284Y-92762813D01*
X155992809Y-91881136D01*
X156086311Y-91798049D01*
X156161806Y-91698317D01*
X156216394Y-91585773D01*
X156247976Y-91464742D01*
X156255340Y-91339875D01*
X156238202Y-91215970D01*
X156197221Y-91097790D01*
X156133971Y-90989876D01*
X155546186Y-90180859D01*
X155463099Y-90087357D01*
X155363367Y-90011862D01*
X155250823Y-89957274D01*
X155129792Y-89925692D01*
X155004925Y-89918328D01*
X154881020Y-89935466D01*
X154846829Y-89947322D01*
X154841205Y-89933744D01*
X154727937Y-89764226D01*
X154583774Y-89620063D01*
X154414256Y-89506795D01*
X154225898Y-89428774D01*
X154025939Y-89389000D01*
X153976907Y-89389000D01*
X154111897Y-89292282D01*
X154205398Y-89209194D01*
X154280894Y-89109462D01*
X154335481Y-88996918D01*
X154367064Y-88875887D01*
X154374427Y-88751020D01*
X154357290Y-88627116D01*
X154316309Y-88508936D01*
X154253058Y-88401021D01*
X154124640Y-88229495D01*
X153902898Y-88194374D01*
X153013586Y-88840497D01*
X153025342Y-88856678D01*
X152819851Y-89005975D01*
X152808096Y-88989795D01*
X151918784Y-89635918D01*
X151883663Y-89857660D01*
X150140254Y-89857660D01*
X151325206Y-88672708D01*
X151305320Y-88748915D01*
X151297957Y-88873782D01*
X151315094Y-88997686D01*
X151356075Y-89115866D01*
X151419326Y-89223781D01*
X151547744Y-89395307D01*
X151769486Y-89430428D01*
X152658798Y-88784305D01*
X152159621Y-88097247D01*
X151937879Y-88062126D01*
X151930506Y-88067408D01*
X152049965Y-87947949D01*
X152365112Y-87947949D01*
X152864288Y-88635007D01*
X153753600Y-87988884D01*
X153788721Y-87767142D01*
X153665273Y-87592004D01*
X153582186Y-87498502D01*
X153482454Y-87423007D01*
X153369909Y-87368420D01*
X153248879Y-87336837D01*
X153124012Y-87329474D01*
X153000107Y-87346611D01*
X152881927Y-87387592D01*
X152774013Y-87450842D01*
X152400232Y-87726207D01*
X152365112Y-87947949D01*
X152049965Y-87947949D01*
X153305662Y-86692253D01*
X155636797Y-86692253D01*
X155971294Y-87152649D01*
X156054381Y-87246151D01*
X156154113Y-87321646D01*
X156266657Y-87376234D01*
X156387688Y-87407816D01*
X156512555Y-87415180D01*
X156636460Y-87398042D01*
X156754640Y-87357061D01*
X156862554Y-87293811D01*
X158076079Y-86412134D01*
X158169581Y-86329047D01*
X158245076Y-86229315D01*
X158299664Y-86116771D01*
X158312113Y-86069065D01*
X158384560Y-86168780D01*
%TA.AperFunction,Conductor*%
D20*
G36*
X158384560Y-86168780D02*
G01*
X158512989Y-86075470D01*
X158477870Y-86297210D01*
X158652748Y-86543136D01*
X158735836Y-86636638D01*
X158835568Y-86712133D01*
X158948112Y-86766720D01*
X159021898Y-86785975D01*
X158036646Y-87582733D01*
X157405584Y-88041226D01*
X157312082Y-88124313D01*
X157236587Y-88224045D01*
X157181999Y-88336589D01*
X157150417Y-88457620D01*
X157143053Y-88582487D01*
X157160191Y-88706392D01*
X157201172Y-88824572D01*
X157264422Y-88932486D01*
X157852207Y-89741503D01*
X157935294Y-89835005D01*
X158035026Y-89910500D01*
X158147570Y-89965088D01*
X158268601Y-89996670D01*
X158276868Y-89997158D01*
X161957613Y-95764439D01*
X161860885Y-95843822D01*
X161825343Y-95887130D01*
X159433092Y-98279381D01*
X159385759Y-98232048D01*
X159216241Y-98118780D01*
X159027883Y-98040759D01*
X158827924Y-98000985D01*
X158624046Y-98000985D01*
X158424087Y-98040759D01*
X158235729Y-98118780D01*
X158066211Y-98232048D01*
X157922048Y-98376211D01*
X157808780Y-98545729D01*
X157730759Y-98734087D01*
X157690985Y-98934046D01*
X157690985Y-98996182D01*
X155326651Y-101360518D01*
X153489320Y-101360518D01*
X153000267Y-100871465D01*
X153251611Y-100688853D01*
X153269987Y-100672525D01*
X153289847Y-100658096D01*
X153383349Y-100575007D01*
X153449882Y-100503031D01*
X153525373Y-100403305D01*
X153576587Y-100319732D01*
X153631174Y-100207189D01*
X153665100Y-100115230D01*
X153696684Y-99994194D01*
X153712017Y-99897384D01*
X153719381Y-99772519D01*
X153715533Y-99674577D01*
X153698395Y-99550670D01*
X153675513Y-99455361D01*
X153634531Y-99337181D01*
X153593495Y-99248168D01*
X153530250Y-99140262D01*
X153515812Y-99120390D01*
X153503388Y-99099192D01*
X153209495Y-98694683D01*
X153193197Y-98676346D01*
X153178743Y-98656452D01*
X153095653Y-98562947D01*
X153023678Y-98496414D01*
X152973050Y-98458090D01*
X152556517Y-96538290D01*
X152904135Y-96285731D01*
X152997637Y-96202644D01*
X153073132Y-96102912D01*
X153127720Y-95990368D01*
X153159302Y-95869336D01*
X153166666Y-95744469D01*
X153149528Y-95620565D01*
X153108547Y-95502385D01*
X153045297Y-95394471D01*
X151899116Y-93816888D01*
X151816029Y-93723387D01*
X151716297Y-93647891D01*
X151603753Y-93593304D01*
X151482722Y-93561721D01*
X151357855Y-93554357D01*
X151233951Y-93571495D01*
X151115770Y-93612476D01*
X151007856Y-93675726D01*
X150229068Y-94241548D01*
X148841863Y-93934201D01*
X148863000Y-93827939D01*
X148863000Y-93624061D01*
X148823226Y-93424102D01*
X148745205Y-93235744D01*
X148667003Y-93118706D01*
X148764920Y-92309261D01*
X149583148Y-91714785D01*
X149676650Y-91631698D01*
X149752145Y-91531966D01*
X149806733Y-91419422D01*
X149838315Y-91298390D01*
X149845679Y-91173523D01*
X149828541Y-91049619D01*
X149787560Y-90931439D01*
X149724310Y-90823525D01*
X149492899Y-90505015D01*
X150140254Y-89857660D01*
X151883663Y-89857660D01*
X152007111Y-90032798D01*
X152090198Y-90126300D01*
X152189930Y-90201795D01*
X152302475Y-90256382D01*
X152423505Y-90287965D01*
X152548372Y-90295328D01*
X152672277Y-90278191D01*
X152790457Y-90237210D01*
X152898371Y-90173960D01*
X152921908Y-90156620D01*
X152889000Y-90322061D01*
X152889000Y-90525939D01*
X152928774Y-90725898D01*
X153006795Y-90914256D01*
X153120063Y-91083774D01*
X153229316Y-91193027D01*
X153217816Y-91216737D01*
X153186234Y-91337768D01*
X153178870Y-91462635D01*
X153196008Y-91586540D01*
X153236989Y-91704720D01*
X153300239Y-91812634D01*
X153888024Y-92621651D01*
X153971111Y-92715153D01*
X154070843Y-92790648D01*
X154183387Y-92845236D01*
X154304418Y-92876818D01*
X154429285Y-92884182D01*
X154553190Y-92867044D01*
X154671370Y-92826063D01*
X154779284Y-92762813D01*
X155992809Y-91881136D01*
X156086311Y-91798049D01*
X156161806Y-91698317D01*
X156216394Y-91585773D01*
X156247976Y-91464742D01*
X156255340Y-91339875D01*
X156238202Y-91215970D01*
X156197221Y-91097790D01*
X156133971Y-90989876D01*
X155546186Y-90180859D01*
X155463099Y-90087357D01*
X155363367Y-90011862D01*
X155250823Y-89957274D01*
X155129792Y-89925692D01*
X155004925Y-89918328D01*
X154881020Y-89935466D01*
X154846829Y-89947322D01*
X154841205Y-89933744D01*
X154727937Y-89764226D01*
X154583774Y-89620063D01*
X154414256Y-89506795D01*
X154225898Y-89428774D01*
X154025939Y-89389000D01*
X153976907Y-89389000D01*
X154111897Y-89292282D01*
X154205398Y-89209194D01*
X154280894Y-89109462D01*
X154335481Y-88996918D01*
X154367064Y-88875887D01*
X154374427Y-88751020D01*
X154357290Y-88627116D01*
X154316309Y-88508936D01*
X154253058Y-88401021D01*
X154124640Y-88229495D01*
X153902898Y-88194374D01*
X153013586Y-88840497D01*
X153025342Y-88856678D01*
X152819851Y-89005975D01*
X152808096Y-88989795D01*
X151918784Y-89635918D01*
X151883663Y-89857660D01*
X150140254Y-89857660D01*
X151325206Y-88672708D01*
X151305320Y-88748915D01*
X151297957Y-88873782D01*
X151315094Y-88997686D01*
X151356075Y-89115866D01*
X151419326Y-89223781D01*
X151547744Y-89395307D01*
X151769486Y-89430428D01*
X152658798Y-88784305D01*
X152159621Y-88097247D01*
X151937879Y-88062126D01*
X151930506Y-88067408D01*
X152049965Y-87947949D01*
X152365112Y-87947949D01*
X152864288Y-88635007D01*
X153753600Y-87988884D01*
X153788721Y-87767142D01*
X153665273Y-87592004D01*
X153582186Y-87498502D01*
X153482454Y-87423007D01*
X153369909Y-87368420D01*
X153248879Y-87336837D01*
X153124012Y-87329474D01*
X153000107Y-87346611D01*
X152881927Y-87387592D01*
X152774013Y-87450842D01*
X152400232Y-87726207D01*
X152365112Y-87947949D01*
X152049965Y-87947949D01*
X153305662Y-86692253D01*
X155636797Y-86692253D01*
X155971294Y-87152649D01*
X156054381Y-87246151D01*
X156154113Y-87321646D01*
X156266657Y-87376234D01*
X156387688Y-87407816D01*
X156512555Y-87415180D01*
X156636460Y-87398042D01*
X156754640Y-87357061D01*
X156862554Y-87293811D01*
X158076079Y-86412134D01*
X158169581Y-86329047D01*
X158245076Y-86229315D01*
X158299664Y-86116771D01*
X158312113Y-86069065D01*
X158384560Y-86168780D01*
G37*
%TD.AperFunction*%
D19*
X141902783Y-90537438D02*
X141919081Y-90555775D01*
X141933535Y-90575669D01*
X142016625Y-90669174D01*
X142088600Y-90735707D01*
X142188330Y-90811201D01*
X142271903Y-90862415D01*
X142312874Y-90882287D01*
X142928573Y-92561884D01*
X142751865Y-92690269D01*
X142658363Y-92773356D01*
X142582868Y-92873088D01*
X142528280Y-92985632D01*
X142496698Y-93106664D01*
X142489334Y-93231531D01*
X142506472Y-93355435D01*
X142547453Y-93473615D01*
X142610703Y-93581529D01*
X142851537Y-93913009D01*
X139722457Y-97135258D01*
X139634635Y-97130079D01*
X139510730Y-97147217D01*
X139392550Y-97188198D01*
X139284636Y-97251448D01*
X138071111Y-98133125D01*
X137977609Y-98216212D01*
X137902114Y-98315944D01*
X137847526Y-98428488D01*
X137815944Y-98549519D01*
X137808580Y-98674386D01*
X137825718Y-98798291D01*
X137866699Y-98916471D01*
X137929949Y-99024385D01*
X138126752Y-99295261D01*
X134869472Y-98518224D01*
X134893000Y-98399939D01*
X134893000Y-98196061D01*
X134853226Y-97996102D01*
X134775205Y-97807744D01*
X134661937Y-97638226D01*
X134618000Y-97594289D01*
X134618000Y-97284883D01*
X137771961Y-94130923D01*
X137771966Y-94130917D01*
X141676667Y-90226216D01*
X141902783Y-90537438D01*
%TA.AperFunction,Conductor*%
D20*
G36*
X141902783Y-90537438D02*
G01*
X141919081Y-90555775D01*
X141933535Y-90575669D01*
X142016625Y-90669174D01*
X142088600Y-90735707D01*
X142188330Y-90811201D01*
X142271903Y-90862415D01*
X142312874Y-90882287D01*
X142928573Y-92561884D01*
X142751865Y-92690269D01*
X142658363Y-92773356D01*
X142582868Y-92873088D01*
X142528280Y-92985632D01*
X142496698Y-93106664D01*
X142489334Y-93231531D01*
X142506472Y-93355435D01*
X142547453Y-93473615D01*
X142610703Y-93581529D01*
X142851537Y-93913009D01*
X139722457Y-97135258D01*
X139634635Y-97130079D01*
X139510730Y-97147217D01*
X139392550Y-97188198D01*
X139284636Y-97251448D01*
X138071111Y-98133125D01*
X137977609Y-98216212D01*
X137902114Y-98315944D01*
X137847526Y-98428488D01*
X137815944Y-98549519D01*
X137808580Y-98674386D01*
X137825718Y-98798291D01*
X137866699Y-98916471D01*
X137929949Y-99024385D01*
X138126752Y-99295261D01*
X134869472Y-98518224D01*
X134893000Y-98399939D01*
X134893000Y-98196061D01*
X134853226Y-97996102D01*
X134775205Y-97807744D01*
X134661937Y-97638226D01*
X134618000Y-97594289D01*
X134618000Y-97284883D01*
X137771961Y-94130923D01*
X137771966Y-94130917D01*
X141676667Y-90226216D01*
X141902783Y-90537438D01*
G37*
%TD.AperFunction*%
D19*
X152922472Y-83915604D02*
X152958014Y-83958912D01*
X153130840Y-84100747D01*
X153328016Y-84206139D01*
X153541964Y-84271040D01*
X153764463Y-84292954D01*
X153820215Y-84287463D01*
X158678061Y-84287463D01*
X158588859Y-84352272D01*
X158682169Y-84480702D01*
X158460429Y-84445581D01*
X158103263Y-84701281D01*
X158009761Y-84784368D01*
X157934265Y-84884100D01*
X157879678Y-84996645D01*
X157868233Y-85040505D01*
X157629456Y-84711857D01*
X157546369Y-84618355D01*
X157446637Y-84542860D01*
X157334093Y-84488272D01*
X157213062Y-84456690D01*
X157088195Y-84449326D01*
X156964290Y-84466464D01*
X156846110Y-84507445D01*
X156738196Y-84570695D01*
X155910222Y-85172253D01*
X153028182Y-85172253D01*
X152990859Y-85168577D01*
X152953536Y-85172253D01*
X152953527Y-85172253D01*
X152841874Y-85183250D01*
X152698613Y-85226707D01*
X152566583Y-85297279D01*
X152482943Y-85365921D01*
X152450859Y-85392252D01*
X152427061Y-85421250D01*
X148588330Y-89259982D01*
X148578129Y-89245942D01*
X148495042Y-89152441D01*
X148395310Y-89076945D01*
X148282766Y-89022358D01*
X148161735Y-88990775D01*
X148036868Y-88983411D01*
X147912964Y-89000549D01*
X147794783Y-89041530D01*
X147686869Y-89104780D01*
X147491702Y-89246577D01*
X146045930Y-88146338D01*
X146042673Y-88122791D01*
X146019791Y-88027482D01*
X145978809Y-87909302D01*
X145937773Y-87820289D01*
X145874528Y-87712383D01*
X145860090Y-87692511D01*
X145847666Y-87671313D01*
X145553773Y-87266804D01*
X145537475Y-87248467D01*
X145523021Y-87228573D01*
X145439931Y-87135068D01*
X145367956Y-87068535D01*
X145268226Y-86993041D01*
X145184653Y-86941827D01*
X145072108Y-86887239D01*
X144980148Y-86853313D01*
X144859115Y-86821730D01*
X144762306Y-86806397D01*
X144637441Y-86799033D01*
X144539498Y-86802881D01*
X144415590Y-86820019D01*
X144320281Y-86842901D01*
X144202098Y-86883885D01*
X144113086Y-86924921D01*
X144005189Y-86988159D01*
X143985311Y-87002600D01*
X143964111Y-87015026D01*
X143519152Y-87338308D01*
X143425651Y-87421395D01*
X143425323Y-87421828D01*
X143424813Y-87422005D01*
X143316899Y-87485255D01*
X143151835Y-87605181D01*
X142500223Y-87605181D01*
X142462900Y-87601505D01*
X142425577Y-87605181D01*
X142425568Y-87605181D01*
X142313915Y-87616178D01*
X142170654Y-87659635D01*
X142145103Y-87673292D01*
X148647395Y-81171001D01*
X150177870Y-81171001D01*
X152922472Y-83915604D01*
%TA.AperFunction,Conductor*%
D20*
G36*
X152922472Y-83915604D02*
G01*
X152958014Y-83958912D01*
X153130840Y-84100747D01*
X153328016Y-84206139D01*
X153541964Y-84271040D01*
X153764463Y-84292954D01*
X153820215Y-84287463D01*
X158678061Y-84287463D01*
X158588859Y-84352272D01*
X158682169Y-84480702D01*
X158460429Y-84445581D01*
X158103263Y-84701281D01*
X158009761Y-84784368D01*
X157934265Y-84884100D01*
X157879678Y-84996645D01*
X157868233Y-85040505D01*
X157629456Y-84711857D01*
X157546369Y-84618355D01*
X157446637Y-84542860D01*
X157334093Y-84488272D01*
X157213062Y-84456690D01*
X157088195Y-84449326D01*
X156964290Y-84466464D01*
X156846110Y-84507445D01*
X156738196Y-84570695D01*
X155910222Y-85172253D01*
X153028182Y-85172253D01*
X152990859Y-85168577D01*
X152953536Y-85172253D01*
X152953527Y-85172253D01*
X152841874Y-85183250D01*
X152698613Y-85226707D01*
X152566583Y-85297279D01*
X152482943Y-85365921D01*
X152450859Y-85392252D01*
X152427061Y-85421250D01*
X148588330Y-89259982D01*
X148578129Y-89245942D01*
X148495042Y-89152441D01*
X148395310Y-89076945D01*
X148282766Y-89022358D01*
X148161735Y-88990775D01*
X148036868Y-88983411D01*
X147912964Y-89000549D01*
X147794783Y-89041530D01*
X147686869Y-89104780D01*
X147491702Y-89246577D01*
X146045930Y-88146338D01*
X146042673Y-88122791D01*
X146019791Y-88027482D01*
X145978809Y-87909302D01*
X145937773Y-87820289D01*
X145874528Y-87712383D01*
X145860090Y-87692511D01*
X145847666Y-87671313D01*
X145553773Y-87266804D01*
X145537475Y-87248467D01*
X145523021Y-87228573D01*
X145439931Y-87135068D01*
X145367956Y-87068535D01*
X145268226Y-86993041D01*
X145184653Y-86941827D01*
X145072108Y-86887239D01*
X144980148Y-86853313D01*
X144859115Y-86821730D01*
X144762306Y-86806397D01*
X144637441Y-86799033D01*
X144539498Y-86802881D01*
X144415590Y-86820019D01*
X144320281Y-86842901D01*
X144202098Y-86883885D01*
X144113086Y-86924921D01*
X144005189Y-86988159D01*
X143985311Y-87002600D01*
X143964111Y-87015026D01*
X143519152Y-87338308D01*
X143425651Y-87421395D01*
X143425323Y-87421828D01*
X143424813Y-87422005D01*
X143316899Y-87485255D01*
X143151835Y-87605181D01*
X142500223Y-87605181D01*
X142462900Y-87601505D01*
X142425577Y-87605181D01*
X142425568Y-87605181D01*
X142313915Y-87616178D01*
X142170654Y-87659635D01*
X142145103Y-87673292D01*
X148647395Y-81171001D01*
X150177870Y-81171001D01*
X152922472Y-83915604D01*
G37*
%TD.AperFunction*%
D19*
X159438269Y-85089251D02*
X159454450Y-85077495D01*
X159603747Y-85282986D01*
X159587567Y-85294741D01*
X159599323Y-85310922D01*
X159393832Y-85460219D01*
X159382077Y-85444039D01*
X159365896Y-85455795D01*
X159216599Y-85250304D01*
X159232779Y-85238549D01*
X159221023Y-85222368D01*
X159426514Y-85073071D01*
X159438269Y-85089251D01*
%TA.AperFunction,Conductor*%
D20*
G36*
X159438269Y-85089251D02*
G01*
X159454450Y-85077495D01*
X159603747Y-85282986D01*
X159587567Y-85294741D01*
X159599323Y-85310922D01*
X159393832Y-85460219D01*
X159382077Y-85444039D01*
X159365896Y-85455795D01*
X159216599Y-85250304D01*
X159232779Y-85238549D01*
X159221023Y-85222368D01*
X159426514Y-85073071D01*
X159438269Y-85089251D01*
G37*
%TD.AperFunction*%
%TD*%
M02*
