M48
; DRILL file {KiCad 5.1.8} date Tue Jan 12 11:15:44 2021
; FORMAT={-:-/ absolute / inch / decimal}
; #@! TF.CreationDate,2021-01-12T11:15:44-05:00
; #@! TF.GenerationSoftware,Kicad,Pcbnew,5.1.8
; #@! TF.FileFunction,Plated,1,2,PTH
FMAT,2
INCH
T1C0.0157
T2C0.0394
%
G90
G05
T1
X5.275Y-3.775
X5.46Y-3.775
X5.535Y-3.885
X5.665Y-4.17
X5.76Y-3.71
X5.855Y-3.73
X5.86Y-3.445
X6.285Y-3.525
T2
X5.832Y-3.09
X5.932Y-3.09
X6.032Y-3.09
X5.0331Y-3.9611
X5.064Y-3.866
X5.0949Y-3.7709
X6.4207Y-3.9002
X6.4516Y-3.8051
X6.4825Y-3.71
X5.3453Y-4.3909
X5.4453Y-4.3909
X5.5453Y-4.3909
T0
M30
