%TF.GenerationSoftware,KiCad,Pcbnew,5.1.9*%
%TF.CreationDate,2021-02-12T10:51:01-05:00*%
%TF.ProjectId,penroserombus_thick_40mm,70656e72-6f73-4657-926f-6d6275735f74,rev?*%
%TF.SameCoordinates,Original*%
%TF.FileFunction,Copper,L1,Top*%
%TF.FilePolarity,Positive*%
%FSLAX46Y46*%
G04 Gerber Fmt 4.6, Leading zero omitted, Abs format (unit mm)*
G04 Created by KiCad (PCBNEW 5.1.9) date 2021-02-12 10:51:01*
%MOMM*%
%LPD*%
G01*
G04 APERTURE LIST*
%TA.AperFunction,SMDPad,CuDef*%
%ADD10C,0.100000*%
%TD*%
%TA.AperFunction,ComponentPad*%
%ADD11C,0.100000*%
%TD*%
%TA.AperFunction,ComponentPad*%
%ADD12R,1.700000X1.700000*%
%TD*%
%TA.AperFunction,ComponentPad*%
%ADD13O,1.700000X1.700000*%
%TD*%
%TA.AperFunction,SMDPad,CuDef*%
%ADD14R,1.500000X1.000000*%
%TD*%
%TA.AperFunction,ViaPad*%
%ADD15C,0.800000*%
%TD*%
%TA.AperFunction,Conductor*%
%ADD16C,0.250000*%
%TD*%
%TA.AperFunction,Conductor*%
%ADD17C,1.000000*%
%TD*%
%TA.AperFunction,Conductor*%
%ADD18C,0.254000*%
%TD*%
%TA.AperFunction,Conductor*%
%ADD19C,0.100000*%
%TD*%
G04 APERTURE END LIST*
%TO.P,C4,1*%
%TO.N,GND*%
%TA.AperFunction,SMDPad,CuDef*%
G36*
G01*
X135931250Y-99745400D02*
X135637684Y-100648904D01*
G75*
G02*
X135322666Y-100809414I-237764J77254D01*
G01*
X134680702Y-100600828D01*
G75*
G02*
X134520192Y-100285810I77254J237764D01*
G01*
X134813758Y-99382306D01*
G75*
G02*
X135128776Y-99221796I237764J-77254D01*
G01*
X135770740Y-99430382D01*
G75*
G02*
X135931250Y-99745400I-77254J-237764D01*
G01*
G37*
%TD.AperFunction*%
%TO.P,C4,2*%
%TO.N,VCC*%
%TA.AperFunction,SMDPad,CuDef*%
G36*
G01*
X133957808Y-99104190D02*
X133664242Y-100007694D01*
G75*
G02*
X133349224Y-100168204I-237764J77254D01*
G01*
X132707260Y-99959618D01*
G75*
G02*
X132546750Y-99644600I77254J237764D01*
G01*
X132840316Y-98741096D01*
G75*
G02*
X133155334Y-98580586I237764J-77254D01*
G01*
X133797298Y-98789172D01*
G75*
G02*
X133957808Y-99104190I-77254J-237764D01*
G01*
G37*
%TD.AperFunction*%
%TD*%
%TO.P,C2,1*%
%TO.N,GND*%
%TA.AperFunction,SMDPad,CuDef*%
G36*
G01*
X139921000Y-106273000D02*
X138971000Y-106273000D01*
G75*
G02*
X138721000Y-106023000I0J250000D01*
G01*
X138721000Y-105348000D01*
G75*
G02*
X138971000Y-105098000I250000J0D01*
G01*
X139921000Y-105098000D01*
G75*
G02*
X140171000Y-105348000I0J-250000D01*
G01*
X140171000Y-106023000D01*
G75*
G02*
X139921000Y-106273000I-250000J0D01*
G01*
G37*
%TD.AperFunction*%
%TO.P,C2,2*%
%TO.N,VCC*%
%TA.AperFunction,SMDPad,CuDef*%
G36*
G01*
X139921000Y-104198000D02*
X138971000Y-104198000D01*
G75*
G02*
X138721000Y-103948000I0J250000D01*
G01*
X138721000Y-103273000D01*
G75*
G02*
X138971000Y-103023000I250000J0D01*
G01*
X139921000Y-103023000D01*
G75*
G02*
X140171000Y-103273000I0J-250000D01*
G01*
X140171000Y-103948000D01*
G75*
G02*
X139921000Y-104198000I-250000J0D01*
G01*
G37*
%TD.AperFunction*%
%TD*%
%TA.AperFunction,SMDPad,CuDef*%
D10*
%TO.P,SW1,6*%
%TO.N,Net-(D3-Pad2)*%
G36*
X149208099Y-91198574D02*
G01*
X148318180Y-91845137D01*
X147171999Y-90267554D01*
X148061918Y-89620991D01*
X149208099Y-91198574D01*
G37*
%TD.AperFunction*%
%TA.AperFunction,SMDPad,CuDef*%
%TO.P,SW1,5*%
%TO.N,Net-(D2-Pad4)*%
G36*
X147185557Y-92668037D02*
G01*
X146295638Y-93314600D01*
X145149457Y-91737017D01*
X146039376Y-91090454D01*
X147185557Y-92668037D01*
G37*
%TD.AperFunction*%
%TA.AperFunction,SMDPad,CuDef*%
%TO.P,SW1,4*%
%TO.N,Net-(D4-Pad2)*%
G36*
X145163014Y-94137500D02*
G01*
X144273095Y-94784063D01*
X143126914Y-93206480D01*
X144016833Y-92559917D01*
X145163014Y-94137500D01*
G37*
%TD.AperFunction*%
%TA.AperFunction,SMDPad,CuDef*%
%TO.P,SW1,3*%
G36*
X152529086Y-95769520D02*
G01*
X151639167Y-96416083D01*
X150492986Y-94838500D01*
X151382905Y-94191937D01*
X152529086Y-95769520D01*
G37*
%TD.AperFunction*%
%TA.AperFunction,SMDPad,CuDef*%
%TO.P,SW1,2*%
%TO.N,Net-(D1-Pad4)*%
G36*
X150506543Y-97238983D02*
G01*
X149616624Y-97885546D01*
X148470443Y-96307963D01*
X149360362Y-95661400D01*
X150506543Y-97238983D01*
G37*
%TD.AperFunction*%
%TA.AperFunction,SMDPad,CuDef*%
%TO.P,SW1,1*%
%TO.N,Net-(D3-Pad2)*%
G36*
X148484001Y-98708446D02*
G01*
X147594082Y-99355009D01*
X146447901Y-97777426D01*
X147337820Y-97130863D01*
X148484001Y-98708446D01*
G37*
%TD.AperFunction*%
%TD*%
%TO.P,C1,2*%
%TO.N,VCC*%
%TA.AperFunction,SMDPad,CuDef*%
G36*
G01*
X155420808Y-98977190D02*
X155127242Y-99880694D01*
G75*
G02*
X154812224Y-100041204I-237764J77254D01*
G01*
X154170260Y-99832618D01*
G75*
G02*
X154009750Y-99517600I77254J237764D01*
G01*
X154303316Y-98614096D01*
G75*
G02*
X154618334Y-98453586I237764J-77254D01*
G01*
X155260298Y-98662172D01*
G75*
G02*
X155420808Y-98977190I-77254J-237764D01*
G01*
G37*
%TD.AperFunction*%
%TO.P,C1,1*%
%TO.N,GND*%
%TA.AperFunction,SMDPad,CuDef*%
G36*
G01*
X157394250Y-99618400D02*
X157100684Y-100521904D01*
G75*
G02*
X156785666Y-100682414I-237764J77254D01*
G01*
X156143702Y-100473828D01*
G75*
G02*
X155983192Y-100158810I77254J237764D01*
G01*
X156276758Y-99255306D01*
G75*
G02*
X156591776Y-99094796I237764J-77254D01*
G01*
X157233740Y-99303382D01*
G75*
G02*
X157394250Y-99618400I-77254J-237764D01*
G01*
G37*
%TD.AperFunction*%
%TD*%
%TO.P,J1,3*%
%TO.N,Net-(D1-Pad2)*%
%TA.AperFunction,ComponentPad*%
G36*
G01*
X161883431Y-100009654D02*
X161883431Y-100009654D01*
G75*
G02*
X162954493Y-99463920I808398J-262664D01*
G01*
X162954493Y-99463920D01*
G75*
G02*
X163500227Y-100534982I-262664J-808398D01*
G01*
X163500227Y-100534982D01*
G75*
G02*
X162429165Y-101080716I-808398J262664D01*
G01*
X162429165Y-101080716D01*
G75*
G02*
X161883431Y-100009654I262664J808398D01*
G01*
G37*
%TD.AperFunction*%
%TO.P,J1,2*%
%TO.N,VCC*%
%TA.AperFunction,ComponentPad*%
G36*
G01*
X162668334Y-97593971D02*
X162668334Y-97593971D01*
G75*
G02*
X163739396Y-97048237I808398J-262664D01*
G01*
X163739396Y-97048237D01*
G75*
G02*
X164285130Y-98119299I-262664J-808398D01*
G01*
X164285130Y-98119299D01*
G75*
G02*
X163214068Y-98665033I-808398J262664D01*
G01*
X163214068Y-98665033D01*
G75*
G02*
X162668334Y-97593971I262664J808398D01*
G01*
G37*
%TD.AperFunction*%
%TA.AperFunction,ComponentPad*%
D11*
%TO.P,J1,1*%
%TO.N,GND*%
G36*
X163190573Y-95986685D02*
G01*
X163715901Y-94369889D01*
X165332697Y-94895217D01*
X164807369Y-96512013D01*
X163190573Y-95986685D01*
G37*
%TD.AperFunction*%
%TD*%
D12*
%TO.P,J2,1*%
%TO.N,GND*%
X140851620Y-111528260D03*
D13*
%TO.P,J2,2*%
%TO.N,VCC*%
X138311620Y-111528260D03*
%TO.P,J2,3*%
%TO.N,Net-(D2-Pad2)*%
X135771620Y-111528260D03*
%TD*%
D12*
%TO.P,J3,1*%
%TO.N,GND*%
X151943635Y-78486676D03*
D13*
%TO.P,J3,2*%
%TO.N,VCC*%
X149403635Y-78486676D03*
%TO.P,J3,3*%
%TO.N,Net-(D3-Pad4)*%
X146863635Y-78486676D03*
%TD*%
%TO.P,J4,3*%
%TO.N,Net-(D4-Pad4)*%
%TA.AperFunction,ComponentPad*%
G36*
G01*
X127031397Y-100348375D02*
X127031397Y-100348375D01*
G75*
G02*
X128102459Y-99802641I808398J-262664D01*
G01*
X128102459Y-99802641D01*
G75*
G02*
X128648193Y-100873703I-262664J-808398D01*
G01*
X128648193Y-100873703D01*
G75*
G02*
X127577131Y-101419437I-808398J262664D01*
G01*
X127577131Y-101419437D01*
G75*
G02*
X127031397Y-100348375I262664J808398D01*
G01*
G37*
%TD.AperFunction*%
%TO.P,J4,2*%
%TO.N,VCC*%
%TA.AperFunction,ComponentPad*%
G36*
G01*
X127816300Y-97932692D02*
X127816300Y-97932692D01*
G75*
G02*
X128887362Y-97386958I808398J-262664D01*
G01*
X128887362Y-97386958D01*
G75*
G02*
X129433096Y-98458020I-262664J-808398D01*
G01*
X129433096Y-98458020D01*
G75*
G02*
X128362034Y-99003754I-808398J262664D01*
G01*
X128362034Y-99003754D01*
G75*
G02*
X127816300Y-97932692I262664J808398D01*
G01*
G37*
%TD.AperFunction*%
%TA.AperFunction,ComponentPad*%
D11*
%TO.P,J4,1*%
%TO.N,GND*%
G36*
X128338539Y-96325406D02*
G01*
X128863867Y-94708610D01*
X130480663Y-95233938D01*
X129955335Y-96850734D01*
X128338539Y-96325406D01*
G37*
%TD.AperFunction*%
%TD*%
%TA.AperFunction,SMDPad,CuDef*%
D10*
%TO.P,JP1,2*%
%TO.N,Net-(D2-Pad4)*%
G36*
X144653608Y-90996576D02*
G01*
X143771931Y-89783051D01*
X144580948Y-89195266D01*
X145462625Y-90408791D01*
X144653608Y-90996576D01*
G37*
%TD.AperFunction*%
%TA.AperFunction,SMDPad,CuDef*%
%TO.P,JP1,3*%
%TO.N,Net-(D3-Pad2)*%
G36*
X145228515Y-88725524D02*
G01*
X145248363Y-88711104D01*
X145290696Y-88686293D01*
X145335256Y-88665750D01*
X145381616Y-88649674D01*
X145429328Y-88638219D01*
X145477932Y-88631497D01*
X145526962Y-88629569D01*
X145575944Y-88632458D01*
X145624409Y-88640135D01*
X145671886Y-88652523D01*
X145717921Y-88669507D01*
X145762070Y-88690920D01*
X145803907Y-88716558D01*
X145843030Y-88746173D01*
X145879061Y-88779481D01*
X145911654Y-88816159D01*
X145926075Y-88836007D01*
X145926562Y-88835653D01*
X146220455Y-89240162D01*
X146219968Y-89240515D01*
X146234389Y-89260364D01*
X146259199Y-89302696D01*
X146279743Y-89347256D01*
X146295818Y-89393616D01*
X146307274Y-89441328D01*
X146313995Y-89489933D01*
X146315923Y-89538963D01*
X146313034Y-89587945D01*
X146305358Y-89636410D01*
X146292969Y-89683887D01*
X146275985Y-89729922D01*
X146254572Y-89774070D01*
X146228934Y-89815907D01*
X146199319Y-89855030D01*
X146166011Y-89891061D01*
X146129334Y-89923655D01*
X146109485Y-89938076D01*
X146109839Y-89938563D01*
X145664880Y-90261845D01*
X144783202Y-89048319D01*
X145228161Y-88725037D01*
X145228515Y-88725524D01*
G37*
%TD.AperFunction*%
%TA.AperFunction,SMDPad,CuDef*%
%TO.P,JP1,1*%
%TO.N,Net-(D4-Pad2)*%
G36*
X144451354Y-91143523D02*
G01*
X144006395Y-91466805D01*
X144006041Y-91466318D01*
X143986193Y-91480738D01*
X143943860Y-91505549D01*
X143899300Y-91526092D01*
X143852940Y-91542168D01*
X143805228Y-91553623D01*
X143756624Y-91560345D01*
X143707594Y-91562273D01*
X143658612Y-91559384D01*
X143610147Y-91551707D01*
X143562670Y-91539319D01*
X143516635Y-91522335D01*
X143472486Y-91500922D01*
X143430649Y-91475284D01*
X143391526Y-91445669D01*
X143355495Y-91412361D01*
X143322902Y-91375683D01*
X143308481Y-91355835D01*
X143307994Y-91356189D01*
X143014101Y-90951680D01*
X143014588Y-90951327D01*
X143000167Y-90931478D01*
X142975357Y-90889146D01*
X142954813Y-90844586D01*
X142938738Y-90798226D01*
X142927282Y-90750514D01*
X142920561Y-90701909D01*
X142918633Y-90652879D01*
X142921522Y-90603897D01*
X142929198Y-90555432D01*
X142941587Y-90507955D01*
X142958571Y-90461920D01*
X142979984Y-90417772D01*
X143005622Y-90375935D01*
X143035237Y-90336812D01*
X143068545Y-90300781D01*
X143105222Y-90268187D01*
X143125071Y-90253766D01*
X143124717Y-90253279D01*
X143569676Y-89929997D01*
X144451354Y-91143523D01*
G37*
%TD.AperFunction*%
%TD*%
%TA.AperFunction,SMDPad,CuDef*%
%TO.P,JP2,1*%
%TO.N,Net-(D3-Pad2)*%
G36*
X150964076Y-100006002D02*
G01*
X150519117Y-100329284D01*
X150518763Y-100328797D01*
X150498915Y-100343217D01*
X150456582Y-100368028D01*
X150412022Y-100388571D01*
X150365662Y-100404647D01*
X150317950Y-100416102D01*
X150269346Y-100422824D01*
X150220316Y-100424752D01*
X150171334Y-100421863D01*
X150122869Y-100414186D01*
X150075392Y-100401798D01*
X150029357Y-100384814D01*
X149985208Y-100363401D01*
X149943371Y-100337763D01*
X149904248Y-100308148D01*
X149868217Y-100274840D01*
X149835624Y-100238162D01*
X149821203Y-100218314D01*
X149820716Y-100218668D01*
X149526823Y-99814159D01*
X149527310Y-99813806D01*
X149512889Y-99793957D01*
X149488079Y-99751625D01*
X149467535Y-99707065D01*
X149451460Y-99660705D01*
X149440004Y-99612993D01*
X149433283Y-99564388D01*
X149431355Y-99515358D01*
X149434244Y-99466376D01*
X149441920Y-99417911D01*
X149454309Y-99370434D01*
X149471293Y-99324399D01*
X149492706Y-99280251D01*
X149518344Y-99238414D01*
X149547959Y-99199291D01*
X149581267Y-99163260D01*
X149617944Y-99130666D01*
X149637793Y-99116245D01*
X149637439Y-99115758D01*
X150082398Y-98792476D01*
X150964076Y-100006002D01*
G37*
%TD.AperFunction*%
%TA.AperFunction,SMDPad,CuDef*%
%TO.P,JP2,3*%
%TO.N,Net-(D4-Pad2)*%
G36*
X151741237Y-97588003D02*
G01*
X151761085Y-97573583D01*
X151803418Y-97548772D01*
X151847978Y-97528229D01*
X151894338Y-97512153D01*
X151942050Y-97500698D01*
X151990654Y-97493976D01*
X152039684Y-97492048D01*
X152088666Y-97494937D01*
X152137131Y-97502614D01*
X152184608Y-97515002D01*
X152230643Y-97531986D01*
X152274792Y-97553399D01*
X152316629Y-97579037D01*
X152355752Y-97608652D01*
X152391783Y-97641960D01*
X152424376Y-97678638D01*
X152438797Y-97698486D01*
X152439284Y-97698132D01*
X152733177Y-98102641D01*
X152732690Y-98102994D01*
X152747111Y-98122843D01*
X152771921Y-98165175D01*
X152792465Y-98209735D01*
X152808540Y-98256095D01*
X152819996Y-98303807D01*
X152826717Y-98352412D01*
X152828645Y-98401442D01*
X152825756Y-98450424D01*
X152818080Y-98498889D01*
X152805691Y-98546366D01*
X152788707Y-98592401D01*
X152767294Y-98636549D01*
X152741656Y-98678386D01*
X152712041Y-98717509D01*
X152678733Y-98753540D01*
X152642056Y-98786134D01*
X152622207Y-98800555D01*
X152622561Y-98801042D01*
X152177602Y-99124324D01*
X151295924Y-97910798D01*
X151740883Y-97587516D01*
X151741237Y-97588003D01*
G37*
%TD.AperFunction*%
%TA.AperFunction,SMDPad,CuDef*%
%TO.P,JP2,2*%
%TO.N,Net-(D1-Pad4)*%
G36*
X151166330Y-99859055D02*
G01*
X150284653Y-98645530D01*
X151093670Y-98057745D01*
X151975347Y-99271270D01*
X151166330Y-99859055D01*
G37*
%TD.AperFunction*%
%TD*%
%TO.P,C3,2*%
%TO.N,VCC*%
%TA.AperFunction,SMDPad,CuDef*%
G36*
G01*
X145763000Y-83751000D02*
X144813000Y-83751000D01*
G75*
G02*
X144563000Y-83501000I0J250000D01*
G01*
X144563000Y-82826000D01*
G75*
G02*
X144813000Y-82576000I250000J0D01*
G01*
X145763000Y-82576000D01*
G75*
G02*
X146013000Y-82826000I0J-250000D01*
G01*
X146013000Y-83501000D01*
G75*
G02*
X145763000Y-83751000I-250000J0D01*
G01*
G37*
%TD.AperFunction*%
%TO.P,C3,1*%
%TO.N,GND*%
%TA.AperFunction,SMDPad,CuDef*%
G36*
G01*
X145763000Y-85826000D02*
X144813000Y-85826000D01*
G75*
G02*
X144563000Y-85576000I0J250000D01*
G01*
X144563000Y-84901000D01*
G75*
G02*
X144813000Y-84651000I250000J0D01*
G01*
X145763000Y-84651000D01*
G75*
G02*
X146013000Y-84901000I0J-250000D01*
G01*
X146013000Y-85576000D01*
G75*
G02*
X145763000Y-85826000I-250000J0D01*
G01*
G37*
%TD.AperFunction*%
%TD*%
%TA.AperFunction,SMDPad,CuDef*%
%TO.P,D1,3*%
%TO.N,GND*%
G36*
X159772641Y-92628233D02*
G01*
X160723698Y-92937250D01*
X160260173Y-94363835D01*
X159309116Y-94054818D01*
X159772641Y-92628233D01*
G37*
%TD.AperFunction*%
%TA.AperFunction,SMDPad,CuDef*%
%TO.P,D1,4*%
%TO.N,Net-(D1-Pad4)*%
G36*
X156729260Y-91639378D02*
G01*
X157680317Y-91948395D01*
X157216792Y-93374980D01*
X156265735Y-93065963D01*
X156729260Y-91639378D01*
G37*
%TD.AperFunction*%
%TA.AperFunction,SMDPad,CuDef*%
%TO.P,D1,2*%
%TO.N,Net-(D1-Pad2)*%
G36*
X158258458Y-97288410D02*
G01*
X159209515Y-97597427D01*
X158745990Y-99024012D01*
X157794933Y-98714995D01*
X158258458Y-97288410D01*
G37*
%TD.AperFunction*%
%TA.AperFunction,SMDPad,CuDef*%
%TO.P,D1,1*%
%TO.N,VCC*%
G36*
X155215077Y-96299555D02*
G01*
X156166134Y-96608572D01*
X155702609Y-98035157D01*
X154751552Y-97726140D01*
X155215077Y-96299555D01*
G37*
%TD.AperFunction*%
%TD*%
D14*
%TO.P,D2,1*%
%TO.N,VCC*%
X141582407Y-103689119D03*
%TO.P,D2,2*%
%TO.N,Net-(D2-Pad2)*%
X141582407Y-106889119D03*
%TO.P,D2,4*%
%TO.N,Net-(D2-Pad4)*%
X146482407Y-103689119D03*
%TO.P,D2,3*%
%TO.N,GND*%
X146482407Y-106889119D03*
%TD*%
%TO.P,D3,1*%
%TO.N,VCC*%
X147581513Y-83125141D03*
%TO.P,D3,2*%
%TO.N,Net-(D3-Pad2)*%
X147581513Y-86325141D03*
%TO.P,D3,4*%
%TO.N,Net-(D3-Pad4)*%
X152481513Y-83125141D03*
%TO.P,D3,3*%
%TO.N,GND*%
X152481513Y-86325141D03*
%TD*%
%TA.AperFunction,SMDPad,CuDef*%
D10*
%TO.P,D4,3*%
%TO.N,GND*%
G36*
X138361310Y-92628233D02*
G01*
X139312367Y-92937250D01*
X138848842Y-94363835D01*
X137897785Y-94054818D01*
X138361310Y-92628233D01*
G37*
%TD.AperFunction*%
%TA.AperFunction,SMDPad,CuDef*%
%TO.P,D4,4*%
%TO.N,Net-(D4-Pad4)*%
G36*
X135317929Y-91639378D02*
G01*
X136268986Y-91948395D01*
X135805461Y-93374980D01*
X134854404Y-93065963D01*
X135317929Y-91639378D01*
G37*
%TD.AperFunction*%
%TA.AperFunction,SMDPad,CuDef*%
%TO.P,D4,2*%
%TO.N,Net-(D4-Pad2)*%
G36*
X136847127Y-97288410D02*
G01*
X137798184Y-97597427D01*
X137334659Y-99024012D01*
X136383602Y-98714995D01*
X136847127Y-97288410D01*
G37*
%TD.AperFunction*%
%TA.AperFunction,SMDPad,CuDef*%
%TO.P,D4,1*%
%TO.N,VCC*%
G36*
X133803746Y-96299555D02*
G01*
X134754803Y-96608572D01*
X134291278Y-98035157D01*
X133340221Y-97726140D01*
X133803746Y-96299555D01*
G37*
%TD.AperFunction*%
%TD*%
D15*
%TO.N,GND*%
X141224000Y-105410000D03*
X138176000Y-94996000D03*
X135382000Y-98552000D03*
X144907000Y-106934000D03*
X159512000Y-94996000D03*
X156845000Y-98171000D03*
X147066000Y-84963000D03*
X151503734Y-85960866D03*
X140116765Y-91628165D03*
X144150103Y-86644503D03*
X143479774Y-87472774D03*
X140832541Y-90743741D03*
%TO.N,Net-(D4-Pad2)*%
X148717000Y-94742000D03*
X146304000Y-94234000D03*
%TD*%
D16*
%TO.N,VCC*%
X128346200Y-93548200D02*
X126568200Y-98717100D01*
X148412200Y-76733400D02*
X151307800Y-76771500D01*
X136093200Y-113195100D02*
X140423900Y-113207800D01*
D17*
X138311620Y-111108258D02*
X138311620Y-111528260D01*
X134047512Y-97167356D02*
X133252279Y-99374395D01*
X141582407Y-103689119D02*
X139446000Y-103610500D01*
X155458843Y-97167356D02*
X154715279Y-99247395D01*
X145288000Y-83163500D02*
X147581513Y-83125141D01*
X139446000Y-103610500D02*
X136662962Y-103610500D01*
X136968996Y-94245872D02*
X134047512Y-97167356D01*
X128624698Y-98195356D02*
X133252279Y-99374395D01*
X149673141Y-83125141D02*
X150873142Y-84325142D01*
X147581513Y-83125141D02*
X149673141Y-83125141D01*
X152991516Y-84325142D02*
X150873142Y-84325142D01*
X155458843Y-97167356D02*
X158380327Y-93201410D01*
X145288000Y-83163500D02*
X143234500Y-83163500D01*
X138311620Y-111528260D02*
X136662962Y-103610500D01*
X161163000Y-92202000D02*
X158380327Y-91324327D01*
X158380327Y-93201410D02*
X158380327Y-91324327D01*
X141582407Y-103689119D02*
X144907000Y-105283000D01*
X149403635Y-78486676D02*
X147581513Y-83125141D01*
X163476732Y-97856635D02*
X161752280Y-95300800D01*
X161752280Y-95300800D02*
X161754736Y-92405284D01*
X161754736Y-92405284D02*
X161163000Y-92202000D01*
X154715279Y-99247395D02*
X147548600Y-105283000D01*
X144907000Y-105283000D02*
X147548600Y-105283000D01*
X143234500Y-83163500D02*
X137815129Y-91637929D01*
X136968996Y-94245872D02*
X137815129Y-91637929D01*
X158380327Y-91324327D02*
X152991516Y-84325142D01*
X136662962Y-103610500D02*
X133855151Y-101120249D01*
X133252279Y-99374395D02*
X133855151Y-101120249D01*
%TO.N,GND*%
X135225721Y-100015605D02*
X135382000Y-98552000D01*
X135382000Y-98552000D02*
X135966200Y-97256600D01*
X135966200Y-97256600D02*
X136728200Y-96316800D01*
X136728200Y-96316800D02*
X138176000Y-94996000D01*
X138605076Y-93496034D02*
X138176000Y-94996000D01*
X139446000Y-105685500D02*
X141224000Y-105410000D01*
X141224000Y-105410000D02*
X142798800Y-105664000D01*
X142798800Y-105664000D02*
X144907000Y-106934000D01*
X144907000Y-106934000D02*
X146482407Y-106889119D01*
X156688721Y-99888605D02*
X156845000Y-98171000D01*
X156845000Y-98171000D02*
X157810200Y-96367600D01*
X157810200Y-96367600D02*
X159512000Y-94996000D01*
X159512000Y-94996000D02*
X160016407Y-93496034D01*
X145288000Y-85238500D02*
X147066000Y-84963000D01*
X147066000Y-84963000D02*
X149098000Y-85064600D01*
X149098000Y-85064600D02*
X151503734Y-85960866D01*
X151503734Y-85960866D02*
X152481513Y-86325141D01*
X140851620Y-111528260D02*
X144907000Y-106934000D01*
X164261635Y-95440951D02*
X165125400Y-97561400D01*
X165125400Y-97561400D02*
X164922200Y-98602800D01*
X164922200Y-98602800D02*
X163719542Y-102251542D01*
X138605076Y-93496034D02*
X140116765Y-91628165D01*
X140116765Y-91628165D02*
X140832541Y-90743741D01*
X144150103Y-86644503D02*
X145288000Y-85238500D01*
X143479774Y-87472774D02*
X144150103Y-86644503D01*
X140832541Y-90743741D02*
X143479774Y-87472774D01*
X140851620Y-111528260D02*
X146482407Y-106889119D01*
X162504071Y-102113129D02*
X156688721Y-99888605D01*
X162504071Y-102113129D02*
X163719542Y-102251542D01*
D16*
%TO.N,Net-(D1-Pad2)*%
X162691829Y-100272318D02*
X158502224Y-98156211D01*
%TO.N,Net-(D1-Pad4)*%
X149488493Y-96773473D02*
X151130000Y-98958400D01*
X151130000Y-98958400D02*
X152501600Y-99720400D01*
X152501600Y-99720400D02*
X153416000Y-99034600D01*
X153416000Y-99034600D02*
X154432000Y-96012000D01*
X154432000Y-96012000D02*
X156973026Y-92507179D01*
%TO.N,Net-(D2-Pad4)*%
X146167507Y-92202527D02*
X147309980Y-93345000D01*
X147309980Y-93345000D02*
X147309980Y-96001980D01*
X146122891Y-103329603D02*
X146122891Y-97189069D01*
X146122891Y-97189069D02*
X147309980Y-96001980D01*
X146482407Y-103689119D02*
X146122891Y-103329603D01*
X144617278Y-90095921D02*
X146167507Y-92202527D01*
%TO.N,Net-(D2-Pad2)*%
X139264739Y-112703261D02*
X139676619Y-112291381D01*
X136946621Y-112703261D02*
X139264739Y-112703261D01*
X135771620Y-111528260D02*
X136946621Y-112703261D01*
X141582407Y-106889119D02*
X139676619Y-110492019D01*
X139676619Y-112291381D02*
X139676619Y-110492019D01*
%TO.N,Net-(D3-Pad2)*%
X148190049Y-90733064D02*
X147796293Y-91126820D01*
X147796293Y-91126820D02*
X147796293Y-97912594D01*
X147796293Y-97912594D02*
X147465951Y-98242936D01*
X147581513Y-86325141D02*
X148190049Y-90733064D01*
X145669000Y-89331800D02*
X148190049Y-90733064D01*
X147465951Y-98242936D02*
X150078278Y-99722521D01*
%TO.N,Net-(D3-Pad4)*%
X152037299Y-82680927D02*
X152481513Y-83125141D01*
X152481513Y-83125141D02*
X150622000Y-79629000D01*
X149199600Y-77266800D02*
X146863635Y-78486676D01*
X150313814Y-77346386D02*
X150622000Y-77927200D01*
X150622000Y-79629000D02*
X150622000Y-77927200D01*
X150313814Y-77346386D02*
X149199600Y-77266800D01*
%TO.N,Net-(D4-Pad4)*%
X127839795Y-100611039D02*
X127449697Y-100220941D01*
X127449697Y-100220941D02*
X127449697Y-97721303D01*
X127449697Y-97721303D02*
X128447421Y-94665421D01*
X135561695Y-92507179D02*
X128709041Y-94403801D01*
X128447421Y-94665421D02*
X128709041Y-94403801D01*
%TO.N,Net-(D4-Pad2)*%
X148717000Y-94742000D02*
X151511036Y-95304010D01*
X144144964Y-93671990D02*
X146304000Y-94234000D01*
X137090893Y-98156211D02*
X144144964Y-93671990D01*
X143565556Y-90860042D02*
X144144964Y-93671990D01*
X151511036Y-95304010D02*
X152181722Y-98194279D01*
%TD*%
D18*
%TO.N,VCC*%
X147643718Y-77221916D02*
X147567046Y-77170686D01*
X147296793Y-77058744D01*
X147009895Y-77001676D01*
X146717375Y-77001676D01*
X146430477Y-77058744D01*
X146160224Y-77170686D01*
X145917003Y-77333201D01*
X145710160Y-77540044D01*
X145547645Y-77783265D01*
X145435703Y-78053518D01*
X145378635Y-78340416D01*
X145378635Y-78632936D01*
X145435703Y-78919834D01*
X145547645Y-79190087D01*
X145710160Y-79433308D01*
X145917003Y-79640151D01*
X146160224Y-79802666D01*
X146430477Y-79914608D01*
X146717375Y-79971676D01*
X147009895Y-79971676D01*
X147296793Y-79914608D01*
X147567046Y-79802666D01*
X147810267Y-79640151D01*
X148017110Y-79433308D01*
X148138830Y-79251142D01*
X148208457Y-79368031D01*
X148403366Y-79584264D01*
X148636715Y-79758317D01*
X148899536Y-79883501D01*
X149046745Y-79928152D01*
X149276635Y-79806831D01*
X149276635Y-78613676D01*
X149256635Y-78613676D01*
X149256635Y-78359676D01*
X149276635Y-78359676D01*
X149276635Y-78339676D01*
X149530635Y-78339676D01*
X149530635Y-78359676D01*
X149550635Y-78359676D01*
X149550635Y-78613676D01*
X149530635Y-78613676D01*
X149530635Y-79806831D01*
X149760525Y-79928152D01*
X149905203Y-79884269D01*
X149905334Y-79884586D01*
X149916454Y-79921246D01*
X149951486Y-79986785D01*
X151183553Y-82303243D01*
X151142011Y-82380961D01*
X151105701Y-82500659D01*
X151093441Y-82625141D01*
X151093441Y-83625141D01*
X151105701Y-83749623D01*
X151142011Y-83869321D01*
X151200976Y-83979635D01*
X151280328Y-84076326D01*
X151377019Y-84155678D01*
X151487333Y-84214643D01*
X151607031Y-84250953D01*
X151731513Y-84263213D01*
X153231513Y-84263213D01*
X153355995Y-84250953D01*
X153475693Y-84214643D01*
X153586007Y-84155678D01*
X153682698Y-84076326D01*
X153762050Y-83979635D01*
X153821015Y-83869321D01*
X153857325Y-83749623D01*
X153869585Y-83625141D01*
X153869585Y-82625141D01*
X153857325Y-82500659D01*
X153821015Y-82380961D01*
X153762050Y-82270647D01*
X153682698Y-82173956D01*
X153586007Y-82094604D01*
X153475693Y-82035639D01*
X153355995Y-81999329D01*
X153231513Y-81987069D01*
X152737013Y-81987069D01*
X151666707Y-79974748D01*
X152793635Y-79974748D01*
X152918117Y-79962488D01*
X153037815Y-79926178D01*
X153148129Y-79867213D01*
X153244820Y-79787861D01*
X153324172Y-79691170D01*
X153383137Y-79580856D01*
X153419447Y-79461158D01*
X153431707Y-79336676D01*
X153431707Y-79292583D01*
X166123198Y-79292583D01*
X166123198Y-79732839D01*
X166209088Y-80164636D01*
X166377567Y-80571380D01*
X166622160Y-80937440D01*
X166933469Y-81248749D01*
X167299529Y-81493342D01*
X167706273Y-81661821D01*
X168138070Y-81747711D01*
X168578326Y-81747711D01*
X169010123Y-81661821D01*
X169416867Y-81493342D01*
X169782927Y-81248749D01*
X170094236Y-80937440D01*
X170338829Y-80571380D01*
X170507308Y-80164636D01*
X170593198Y-79732839D01*
X170593198Y-79292583D01*
X170507308Y-78860786D01*
X170338829Y-78454042D01*
X170094236Y-78087982D01*
X169782927Y-77776673D01*
X169416867Y-77532080D01*
X169010123Y-77363601D01*
X168578326Y-77277711D01*
X168138070Y-77277711D01*
X167706273Y-77363601D01*
X167299529Y-77532080D01*
X166933469Y-77776673D01*
X166622160Y-78087982D01*
X166377567Y-78454042D01*
X166209088Y-78860786D01*
X166123198Y-79292583D01*
X153431707Y-79292583D01*
X153431707Y-77636676D01*
X153419447Y-77512194D01*
X153383137Y-77392496D01*
X153324172Y-77282182D01*
X153244820Y-77185491D01*
X153148129Y-77106139D01*
X153037815Y-77047174D01*
X152918117Y-77010864D01*
X152793635Y-76998604D01*
X151093635Y-76998604D01*
X150995187Y-77008300D01*
X150977402Y-76968428D01*
X150940727Y-76916609D01*
X150905613Y-76863711D01*
X150897537Y-76855585D01*
X150890916Y-76846231D01*
X150844834Y-76802561D01*
X150800077Y-76757531D01*
X150790567Y-76751135D01*
X150782251Y-76743254D01*
X150746927Y-76721000D01*
X172200658Y-76721000D01*
X165838198Y-96302639D01*
X165675824Y-95904028D01*
X165939540Y-95092392D01*
X165966346Y-94970214D01*
X165968802Y-94845154D01*
X165946813Y-94722018D01*
X165901223Y-94605538D01*
X165833786Y-94500190D01*
X165747091Y-94410023D01*
X165644472Y-94338502D01*
X165529872Y-94288374D01*
X163913076Y-93763046D01*
X163790898Y-93736240D01*
X163665838Y-93733784D01*
X163542702Y-93755773D01*
X163426222Y-93801363D01*
X163320874Y-93868800D01*
X163230707Y-93955495D01*
X163159186Y-94058114D01*
X163109058Y-94172714D01*
X162583730Y-95789510D01*
X162556924Y-95911688D01*
X162554468Y-96036748D01*
X162576457Y-96159884D01*
X162622047Y-96276364D01*
X162689484Y-96381712D01*
X162776179Y-96471879D01*
X162845318Y-96520066D01*
X162741964Y-96566149D01*
X162504321Y-96734292D01*
X162304048Y-96945566D01*
X162216092Y-97071772D01*
X162260435Y-97327900D01*
X163395193Y-97696606D01*
X163401373Y-97677585D01*
X163642942Y-97756074D01*
X163636761Y-97775096D01*
X163655782Y-97781276D01*
X163577293Y-98022845D01*
X163558271Y-98016664D01*
X163552091Y-98035685D01*
X163310522Y-97957196D01*
X163316703Y-97938174D01*
X162181945Y-97569469D01*
X161995522Y-97750617D01*
X161992497Y-97904419D01*
X162030338Y-98193061D01*
X162123764Y-98468774D01*
X162269183Y-98720963D01*
X162359699Y-98824290D01*
X162258671Y-98844386D01*
X161988418Y-98956328D01*
X161895288Y-99018556D01*
X159767815Y-97944002D01*
X159816358Y-97794602D01*
X159843164Y-97672424D01*
X159845620Y-97547364D01*
X159823631Y-97424228D01*
X159778041Y-97307748D01*
X159710604Y-97202400D01*
X159623910Y-97112233D01*
X159521290Y-97040712D01*
X159406690Y-96990584D01*
X159007043Y-96860731D01*
X160171515Y-95922202D01*
X160208863Y-95898830D01*
X160258341Y-95852223D01*
X160267649Y-95844721D01*
X160298930Y-95813989D01*
X160371605Y-95745531D01*
X160378583Y-95735734D01*
X160387172Y-95727296D01*
X160443399Y-95644738D01*
X160501315Y-95563428D01*
X160506250Y-95552454D01*
X160513024Y-95542507D01*
X160552060Y-95450575D01*
X160570030Y-95410613D01*
X160573838Y-95399288D01*
X160600408Y-95336716D01*
X160609386Y-95293578D01*
X160818221Y-94672563D01*
X160867016Y-94561010D01*
X161330541Y-93134425D01*
X161357347Y-93012247D01*
X161359803Y-92887187D01*
X161337814Y-92764051D01*
X161292224Y-92647571D01*
X161224787Y-92542223D01*
X161138093Y-92452056D01*
X161035473Y-92380535D01*
X160920873Y-92330407D01*
X159969816Y-92021390D01*
X159847638Y-91994584D01*
X159722578Y-91992128D01*
X159599442Y-92014117D01*
X159482962Y-92059707D01*
X159377614Y-92127144D01*
X159287447Y-92213839D01*
X159215926Y-92316458D01*
X159165798Y-92431058D01*
X158843091Y-93424250D01*
X158541802Y-94320200D01*
X157137690Y-95451873D01*
X157087160Y-95485596D01*
X157011396Y-95561277D01*
X156935028Y-95636304D01*
X156932349Y-95640238D01*
X156928982Y-95643601D01*
X156869436Y-95732613D01*
X156809176Y-95821094D01*
X156785435Y-95877005D01*
X156627453Y-96172182D01*
X156580529Y-96123378D01*
X156477910Y-96051857D01*
X156363309Y-96001730D01*
X156158596Y-95938444D01*
X155958559Y-96040368D01*
X155618872Y-97085817D01*
X155637893Y-97091997D01*
X155559404Y-97333566D01*
X155540382Y-97327385D01*
X155288423Y-98102834D01*
X155207270Y-98144184D01*
X154875308Y-99165856D01*
X154894329Y-99172036D01*
X154815840Y-99413605D01*
X154796818Y-99407424D01*
X154464857Y-100429097D01*
X154566780Y-100629133D01*
X154852812Y-100725301D01*
X154974990Y-100752108D01*
X155100050Y-100754564D01*
X155223186Y-100732574D01*
X155339666Y-100686985D01*
X155426587Y-100631343D01*
X155429678Y-100639241D01*
X155523539Y-100785865D01*
X155644200Y-100911360D01*
X155787026Y-101010904D01*
X155946528Y-101080671D01*
X156588492Y-101289257D01*
X156758539Y-101326566D01*
X156932598Y-101329984D01*
X157103979Y-101299379D01*
X157151428Y-101280808D01*
X162076020Y-103164594D01*
X162156440Y-103199348D01*
X162234865Y-103216192D01*
X162312240Y-103237371D01*
X162399639Y-103243572D01*
X163530836Y-103372388D01*
X163540402Y-103374529D01*
X160317611Y-113293260D01*
X139743817Y-113293260D01*
X139804740Y-113243262D01*
X139828543Y-113214258D01*
X140026469Y-113016332D01*
X141701620Y-113016332D01*
X141826102Y-113004072D01*
X141945800Y-112967762D01*
X142056114Y-112908797D01*
X142152805Y-112829445D01*
X142232157Y-112732754D01*
X142291122Y-112622440D01*
X142327432Y-112502742D01*
X142339692Y-112378260D01*
X142339692Y-111772853D01*
X145638523Y-109054984D01*
X156114909Y-109054984D01*
X156114909Y-109293334D01*
X156161408Y-109527103D01*
X156252621Y-109747309D01*
X156385040Y-109945489D01*
X156553579Y-110114028D01*
X156751759Y-110246447D01*
X156971965Y-110337660D01*
X157205734Y-110384159D01*
X157444084Y-110384159D01*
X157677853Y-110337660D01*
X157898059Y-110246447D01*
X158096239Y-110114028D01*
X158264778Y-109945489D01*
X158397197Y-109747309D01*
X158488410Y-109527103D01*
X158534909Y-109293334D01*
X158534909Y-109054984D01*
X158488410Y-108821215D01*
X158397197Y-108601009D01*
X158264778Y-108402829D01*
X158096239Y-108234290D01*
X157898059Y-108101871D01*
X157677853Y-108010658D01*
X157444084Y-107964159D01*
X157205734Y-107964159D01*
X156971965Y-108010658D01*
X156751759Y-108101871D01*
X156553579Y-108234290D01*
X156385040Y-108402829D01*
X156252621Y-108601009D01*
X156161408Y-108821215D01*
X156114909Y-109054984D01*
X145638523Y-109054984D01*
X146886014Y-108027191D01*
X147232407Y-108027191D01*
X147356889Y-108014931D01*
X147476587Y-107978621D01*
X147586901Y-107919656D01*
X147683592Y-107840304D01*
X147762944Y-107743613D01*
X147821909Y-107633299D01*
X147858219Y-107513601D01*
X147870479Y-107389119D01*
X147870479Y-106389119D01*
X147858219Y-106264637D01*
X147821909Y-106144939D01*
X147762944Y-106034625D01*
X147683592Y-105937934D01*
X147586901Y-105858582D01*
X147476587Y-105799617D01*
X147356889Y-105763307D01*
X147232407Y-105751047D01*
X145732407Y-105751047D01*
X145607925Y-105763307D01*
X145552390Y-105780154D01*
X145207484Y-105789979D01*
X145087938Y-105717963D01*
X152738768Y-105717963D01*
X152738768Y-106158219D01*
X152824658Y-106590016D01*
X152993137Y-106996760D01*
X153237730Y-107362820D01*
X153549039Y-107674129D01*
X153915099Y-107918722D01*
X154321843Y-108087201D01*
X154753640Y-108173091D01*
X155193896Y-108173091D01*
X155625693Y-108087201D01*
X156032437Y-107918722D01*
X156398497Y-107674129D01*
X156709806Y-107362820D01*
X156954399Y-106996760D01*
X157122878Y-106590016D01*
X157208768Y-106158219D01*
X157208768Y-105717963D01*
X157122878Y-105286166D01*
X156954399Y-104879422D01*
X156709806Y-104513362D01*
X156398497Y-104202053D01*
X156032437Y-103957460D01*
X155625693Y-103788981D01*
X155193896Y-103703091D01*
X154753640Y-103703091D01*
X154321843Y-103788981D01*
X153915099Y-103957460D01*
X153549039Y-104202053D01*
X153237730Y-104513362D01*
X152993137Y-104879422D01*
X152824658Y-105286166D01*
X152738768Y-105717963D01*
X145087938Y-105717963D01*
X143437302Y-104723605D01*
X143397457Y-104693265D01*
X143341805Y-104666076D01*
X143336718Y-104663012D01*
X143291644Y-104641570D01*
X143196573Y-104595124D01*
X143190803Y-104593601D01*
X143185411Y-104591036D01*
X143082813Y-104565094D01*
X143034569Y-104552359D01*
X143028706Y-104551413D01*
X142968657Y-104536230D01*
X142918640Y-104533661D01*
X142872262Y-104526180D01*
X142921909Y-104433299D01*
X142958219Y-104313601D01*
X142970479Y-104189119D01*
X142967407Y-103974869D01*
X142808657Y-103816119D01*
X141709407Y-103816119D01*
X141709407Y-103836119D01*
X141455407Y-103836119D01*
X141455407Y-103816119D01*
X140725869Y-103816119D01*
X140647250Y-103737500D01*
X139573000Y-103737500D01*
X139573000Y-103757500D01*
X139319000Y-103757500D01*
X139319000Y-103737500D01*
X138244750Y-103737500D01*
X138086000Y-103896250D01*
X138082928Y-104198000D01*
X138095188Y-104322482D01*
X138131498Y-104442180D01*
X138190463Y-104552494D01*
X138269815Y-104649185D01*
X138349594Y-104714658D01*
X138343038Y-104720038D01*
X138232595Y-104854614D01*
X138150528Y-105008150D01*
X138099992Y-105174746D01*
X138082928Y-105348000D01*
X138082928Y-106023000D01*
X138099992Y-106196254D01*
X138150528Y-106362850D01*
X138232595Y-106516386D01*
X138343038Y-106650962D01*
X138477614Y-106761405D01*
X138631150Y-106843472D01*
X138797746Y-106894008D01*
X138971000Y-106911072D01*
X139921000Y-106911072D01*
X140094254Y-106894008D01*
X140194335Y-106863649D01*
X140194335Y-107389119D01*
X140206595Y-107513601D01*
X140242905Y-107633299D01*
X140286173Y-107714247D01*
X139005547Y-110135279D01*
X138971074Y-110199772D01*
X138969574Y-110204717D01*
X138815719Y-110131435D01*
X138668510Y-110086784D01*
X138438620Y-110208105D01*
X138438620Y-111401260D01*
X138458620Y-111401260D01*
X138458620Y-111655260D01*
X138438620Y-111655260D01*
X138438620Y-111675260D01*
X138184620Y-111675260D01*
X138184620Y-111655260D01*
X138164620Y-111655260D01*
X138164620Y-111401260D01*
X138184620Y-111401260D01*
X138184620Y-110208105D01*
X137954730Y-110086784D01*
X137807521Y-110131435D01*
X137544700Y-110256619D01*
X137311351Y-110430672D01*
X137116442Y-110646905D01*
X137046815Y-110763794D01*
X136925095Y-110581628D01*
X136718252Y-110374785D01*
X136475031Y-110212270D01*
X136204778Y-110100328D01*
X135917880Y-110043260D01*
X135625360Y-110043260D01*
X135338462Y-110100328D01*
X135068209Y-110212270D01*
X134824988Y-110374785D01*
X134618145Y-110581628D01*
X134455630Y-110824849D01*
X134343688Y-111095102D01*
X134286620Y-111382000D01*
X134286620Y-111674520D01*
X134343688Y-111961418D01*
X134455630Y-112231671D01*
X134618145Y-112474892D01*
X134824988Y-112681735D01*
X135068209Y-112844250D01*
X135338462Y-112956192D01*
X135625360Y-113013260D01*
X135917880Y-113013260D01*
X136138028Y-112969470D01*
X136382822Y-113214264D01*
X136406620Y-113243262D01*
X136467543Y-113293260D01*
X121863260Y-113293260D01*
X122841865Y-110281421D01*
X123470721Y-110281421D01*
X123470721Y-110721677D01*
X123556611Y-111153474D01*
X123725090Y-111560218D01*
X123969683Y-111926278D01*
X124280992Y-112237587D01*
X124647052Y-112482180D01*
X125053796Y-112650659D01*
X125485593Y-112736549D01*
X125925849Y-112736549D01*
X126357646Y-112650659D01*
X126764390Y-112482180D01*
X127130450Y-112237587D01*
X127441759Y-111926278D01*
X127686352Y-111560218D01*
X127854831Y-111153474D01*
X127940721Y-110721677D01*
X127940721Y-110281421D01*
X127854831Y-109849624D01*
X127686352Y-109442880D01*
X127441759Y-109076820D01*
X127130450Y-108765511D01*
X126764390Y-108520918D01*
X126357646Y-108352439D01*
X125925849Y-108266549D01*
X125485593Y-108266549D01*
X125053796Y-108352439D01*
X124647052Y-108520918D01*
X124280992Y-108765511D01*
X123969683Y-109076820D01*
X123725090Y-109442880D01*
X123556611Y-109849624D01*
X123470721Y-110281421D01*
X122841865Y-110281421D01*
X124751696Y-104403568D01*
X131560891Y-104403568D01*
X131560891Y-104843824D01*
X131646781Y-105275621D01*
X131815260Y-105682365D01*
X132059853Y-106048425D01*
X132371162Y-106359734D01*
X132737222Y-106604327D01*
X133143966Y-106772806D01*
X133575763Y-106858696D01*
X134016019Y-106858696D01*
X134447816Y-106772806D01*
X134854560Y-106604327D01*
X135220620Y-106359734D01*
X135531929Y-106048425D01*
X135776522Y-105682365D01*
X135945001Y-105275621D01*
X136030891Y-104843824D01*
X136030891Y-104403568D01*
X135945001Y-103971771D01*
X135776522Y-103565027D01*
X135531929Y-103198967D01*
X135355962Y-103023000D01*
X138082928Y-103023000D01*
X138086000Y-103324750D01*
X138244750Y-103483500D01*
X139319000Y-103483500D01*
X139319000Y-102546750D01*
X139573000Y-102546750D01*
X139573000Y-103483500D01*
X140277538Y-103483500D01*
X140356157Y-103562119D01*
X141455407Y-103562119D01*
X141455407Y-102712869D01*
X141709407Y-102712869D01*
X141709407Y-103562119D01*
X142808657Y-103562119D01*
X142967407Y-103403369D01*
X142970479Y-103189119D01*
X142958219Y-103064637D01*
X142921909Y-102944939D01*
X142862944Y-102834625D01*
X142783592Y-102737934D01*
X142686901Y-102658582D01*
X142576587Y-102599617D01*
X142456889Y-102563307D01*
X142332407Y-102551047D01*
X141868157Y-102554119D01*
X141709407Y-102712869D01*
X141455407Y-102712869D01*
X141296657Y-102554119D01*
X140832407Y-102551047D01*
X140707925Y-102563307D01*
X140633685Y-102585828D01*
X140622185Y-102571815D01*
X140525494Y-102492463D01*
X140415180Y-102433498D01*
X140295482Y-102397188D01*
X140171000Y-102384928D01*
X139731750Y-102388000D01*
X139573000Y-102546750D01*
X139319000Y-102546750D01*
X139160250Y-102388000D01*
X138721000Y-102384928D01*
X138596518Y-102397188D01*
X138476820Y-102433498D01*
X138366506Y-102492463D01*
X138269815Y-102571815D01*
X138190463Y-102668506D01*
X138131498Y-102778820D01*
X138095188Y-102898518D01*
X138082928Y-103023000D01*
X135355962Y-103023000D01*
X135220620Y-102887658D01*
X134854560Y-102643065D01*
X134447816Y-102474586D01*
X134016019Y-102388696D01*
X133575763Y-102388696D01*
X133143966Y-102474586D01*
X132737222Y-102643065D01*
X132371162Y-102887658D01*
X132059853Y-103198967D01*
X131815260Y-103565027D01*
X131646781Y-103971771D01*
X131560891Y-104403568D01*
X124751696Y-104403568D01*
X126689698Y-98439014D01*
X126689697Y-99661030D01*
X126686320Y-99664407D01*
X126523805Y-99907628D01*
X126411863Y-100177881D01*
X126354795Y-100464779D01*
X126354795Y-100757299D01*
X126411863Y-101044197D01*
X126523805Y-101314450D01*
X126686320Y-101557671D01*
X126893163Y-101764514D01*
X127136384Y-101927029D01*
X127406637Y-102038971D01*
X127693535Y-102096039D01*
X127986055Y-102096039D01*
X128272953Y-102038971D01*
X128543206Y-101927029D01*
X128786427Y-101764514D01*
X128993270Y-101557671D01*
X129155785Y-101314450D01*
X129267727Y-101044197D01*
X129324795Y-100757299D01*
X129324795Y-100464779D01*
X129267727Y-100177881D01*
X129166057Y-99932426D01*
X131833390Y-99932426D01*
X131855381Y-100055562D01*
X131900970Y-100172042D01*
X131968407Y-100277389D01*
X132055101Y-100367557D01*
X132157720Y-100439079D01*
X132272321Y-100489206D01*
X132560251Y-100579530D01*
X132606240Y-100556097D01*
X133001857Y-100556097D01*
X133103780Y-100756133D01*
X133389812Y-100852301D01*
X133511990Y-100879108D01*
X133637050Y-100881564D01*
X133760186Y-100859574D01*
X133876666Y-100813985D01*
X133963587Y-100758343D01*
X133966678Y-100766241D01*
X134060539Y-100912865D01*
X134181200Y-101038360D01*
X134324026Y-101137904D01*
X134483528Y-101207671D01*
X135125492Y-101416257D01*
X135295539Y-101453566D01*
X135469598Y-101456984D01*
X135640979Y-101426379D01*
X135803096Y-101362928D01*
X135949720Y-101269068D01*
X136075215Y-101148406D01*
X136174759Y-101005581D01*
X136244527Y-100846079D01*
X136538093Y-99942575D01*
X136575402Y-99772527D01*
X136578820Y-99598468D01*
X136550548Y-99440148D01*
X137137484Y-99630855D01*
X137259662Y-99657661D01*
X137384722Y-99660117D01*
X137507858Y-99638128D01*
X137624338Y-99592538D01*
X137729686Y-99525101D01*
X137819853Y-99438406D01*
X137891374Y-99335787D01*
X137941502Y-99221187D01*
X138230258Y-98332486D01*
X143587973Y-94926626D01*
X143756884Y-95159112D01*
X143839971Y-95252613D01*
X143939703Y-95328109D01*
X144052247Y-95382696D01*
X144173278Y-95414279D01*
X144298145Y-95421643D01*
X144422049Y-95404505D01*
X144540230Y-95363524D01*
X144648144Y-95300274D01*
X145369611Y-94776099D01*
X145432347Y-94792429D01*
X145500063Y-94893774D01*
X145644226Y-95037937D01*
X145813744Y-95151205D01*
X146002102Y-95229226D01*
X146202061Y-95269000D01*
X146405939Y-95269000D01*
X146549981Y-95240349D01*
X146549981Y-95687177D01*
X145611889Y-96625270D01*
X145582891Y-96649068D01*
X145559093Y-96678066D01*
X145559092Y-96678067D01*
X145487917Y-96764793D01*
X145417345Y-96896823D01*
X145394450Y-96972300D01*
X145373889Y-97040083D01*
X145369634Y-97083286D01*
X145359215Y-97189069D01*
X145362892Y-97226401D01*
X145362891Y-102670910D01*
X145281222Y-102737934D01*
X145201870Y-102834625D01*
X145142905Y-102944939D01*
X145106595Y-103064637D01*
X145094335Y-103189119D01*
X145094335Y-104189119D01*
X145106595Y-104313601D01*
X145142905Y-104433299D01*
X145201870Y-104543613D01*
X145281222Y-104640304D01*
X145377913Y-104719656D01*
X145488227Y-104778621D01*
X145607925Y-104814931D01*
X145732407Y-104827191D01*
X147232407Y-104827191D01*
X147356889Y-104814931D01*
X147476587Y-104778621D01*
X147586901Y-104719656D01*
X147683592Y-104640304D01*
X147762944Y-104543613D01*
X147821909Y-104433299D01*
X147858219Y-104313601D01*
X147870479Y-104189119D01*
X147870479Y-103189119D01*
X147858219Y-103064637D01*
X147821909Y-102944939D01*
X147762944Y-102834625D01*
X147683592Y-102737934D01*
X147586901Y-102658582D01*
X147476587Y-102599617D01*
X147356889Y-102563307D01*
X147232407Y-102551047D01*
X146882891Y-102551047D01*
X146882891Y-99461691D01*
X147077871Y-99730058D01*
X147160958Y-99823559D01*
X147260690Y-99899055D01*
X147373234Y-99953642D01*
X147494265Y-99985225D01*
X147619132Y-99992589D01*
X147743036Y-99975451D01*
X147861217Y-99934470D01*
X147969131Y-99871220D01*
X148332535Y-99607192D01*
X148864689Y-99908597D01*
X148879469Y-99951219D01*
X148920505Y-100040232D01*
X148983750Y-100148138D01*
X148998188Y-100168010D01*
X149010612Y-100189208D01*
X149304505Y-100593717D01*
X149320803Y-100612054D01*
X149335257Y-100631948D01*
X149418347Y-100725453D01*
X149490322Y-100791986D01*
X149590052Y-100867480D01*
X149673625Y-100918694D01*
X149786170Y-100973282D01*
X149878130Y-101007208D01*
X149999163Y-101038791D01*
X150095972Y-101054124D01*
X150220837Y-101061488D01*
X150318780Y-101057640D01*
X150442688Y-101040502D01*
X150537997Y-101017620D01*
X150656180Y-100976636D01*
X150745192Y-100935600D01*
X150853089Y-100872362D01*
X150872967Y-100857921D01*
X150894167Y-100845495D01*
X151339126Y-100522213D01*
X151432627Y-100439126D01*
X151432955Y-100438693D01*
X151433465Y-100438516D01*
X151541379Y-100375266D01*
X151790122Y-100194543D01*
X152090714Y-100361539D01*
X152112512Y-100377525D01*
X152155992Y-100397804D01*
X152165146Y-100402890D01*
X152189828Y-100413586D01*
X152248187Y-100440805D01*
X152258420Y-100443310D01*
X152268089Y-100447500D01*
X152331054Y-100461090D01*
X152393600Y-100476401D01*
X152404124Y-100476861D01*
X152414426Y-100479085D01*
X152478833Y-100480130D01*
X152543163Y-100482944D01*
X152553578Y-100481342D01*
X152564113Y-100481513D01*
X152627449Y-100469980D01*
X152691129Y-100460185D01*
X152701037Y-100456580D01*
X152711398Y-100454693D01*
X152771261Y-100431027D01*
X152831813Y-100408994D01*
X152840825Y-100403526D01*
X152850620Y-100399654D01*
X152904752Y-100364742D01*
X152927733Y-100350799D01*
X152936100Y-100344524D01*
X152976430Y-100318513D01*
X152995857Y-100299706D01*
X153357489Y-100028483D01*
X153363970Y-100045042D01*
X153431407Y-100150389D01*
X153518101Y-100240557D01*
X153620720Y-100312079D01*
X153735321Y-100362206D01*
X154023251Y-100452530D01*
X154223288Y-100350606D01*
X154555250Y-99328934D01*
X154536229Y-99322754D01*
X154614718Y-99081185D01*
X154633740Y-99087366D01*
X154877972Y-98335694D01*
X154959127Y-98294344D01*
X155298814Y-97248895D01*
X155279793Y-97242715D01*
X155358282Y-97001146D01*
X155377304Y-97007327D01*
X155716991Y-95961878D01*
X155615067Y-95761841D01*
X155564571Y-95744630D01*
X156876368Y-93935279D01*
X157019617Y-93981823D01*
X157141795Y-94008629D01*
X157266855Y-94011085D01*
X157389991Y-93989096D01*
X157506471Y-93943506D01*
X157611819Y-93876069D01*
X157701986Y-93789374D01*
X157773507Y-93686755D01*
X157823635Y-93572155D01*
X158287160Y-92145570D01*
X158313966Y-92023392D01*
X158316422Y-91898332D01*
X158294433Y-91775196D01*
X158248843Y-91658716D01*
X158181406Y-91553368D01*
X158094712Y-91463201D01*
X157992092Y-91391680D01*
X157877492Y-91341552D01*
X156926435Y-91032535D01*
X156804257Y-91005729D01*
X156679197Y-91003273D01*
X156556061Y-91025262D01*
X156439581Y-91070852D01*
X156334233Y-91138289D01*
X156244066Y-91224984D01*
X156172545Y-91327603D01*
X156122417Y-91442203D01*
X155658892Y-92868788D01*
X155632086Y-92990966D01*
X155630653Y-93063926D01*
X153858724Y-95507938D01*
X153856339Y-95510185D01*
X153814703Y-95568656D01*
X153794786Y-95596127D01*
X153793155Y-95598915D01*
X153769501Y-95632134D01*
X153755444Y-95663405D01*
X153738152Y-95692977D01*
X153724841Y-95731488D01*
X153723503Y-95734464D01*
X153712586Y-95766941D01*
X153689245Y-95834470D01*
X153688801Y-95837701D01*
X153115492Y-97543299D01*
X152955495Y-97323083D01*
X152939197Y-97304746D01*
X152924743Y-97284852D01*
X152841653Y-97191347D01*
X152769678Y-97124814D01*
X152701827Y-97073452D01*
X152574595Y-96525155D01*
X152904135Y-96285731D01*
X152997637Y-96202644D01*
X153073132Y-96102912D01*
X153127720Y-95990368D01*
X153159302Y-95869336D01*
X153166666Y-95744469D01*
X153149528Y-95620565D01*
X153108547Y-95502385D01*
X153045297Y-95394471D01*
X151899116Y-93816888D01*
X151816029Y-93723387D01*
X151716297Y-93647891D01*
X151603753Y-93593304D01*
X151482722Y-93561721D01*
X151357855Y-93554357D01*
X151233951Y-93571495D01*
X151115770Y-93612476D01*
X151007856Y-93675726D01*
X150197400Y-94264555D01*
X149556647Y-94135670D01*
X149520937Y-94082226D01*
X149376774Y-93938063D01*
X149207256Y-93824795D01*
X149018898Y-93746774D01*
X148818939Y-93707000D01*
X148615061Y-93707000D01*
X148556293Y-93718690D01*
X148556293Y-92434662D01*
X148585315Y-92424598D01*
X148693229Y-92361348D01*
X149583148Y-91714785D01*
X149676650Y-91631698D01*
X149752145Y-91531966D01*
X149806733Y-91419422D01*
X149838315Y-91298390D01*
X149845679Y-91173523D01*
X149828541Y-91049619D01*
X149787560Y-90931439D01*
X149724310Y-90823525D01*
X148792729Y-89541314D01*
X148502209Y-87436934D01*
X148575693Y-87414643D01*
X148686007Y-87355678D01*
X148782698Y-87276326D01*
X148862050Y-87179635D01*
X148921015Y-87069321D01*
X148957325Y-86949623D01*
X148969585Y-86825141D01*
X148969585Y-86227966D01*
X151131064Y-87033235D01*
X151142011Y-87069321D01*
X151200976Y-87179635D01*
X151280328Y-87276326D01*
X151377019Y-87355678D01*
X151487333Y-87414643D01*
X151607031Y-87450953D01*
X151731513Y-87463213D01*
X152495691Y-87463213D01*
X152522647Y-87464889D01*
X152535056Y-87463213D01*
X153231513Y-87463213D01*
X153355995Y-87450953D01*
X153475693Y-87414643D01*
X153586007Y-87355678D01*
X153682698Y-87276326D01*
X153762050Y-87179635D01*
X153821015Y-87069321D01*
X153857325Y-86949623D01*
X153869585Y-86825141D01*
X153869585Y-85825141D01*
X153857325Y-85700659D01*
X153821015Y-85580961D01*
X153762050Y-85470647D01*
X153682698Y-85373956D01*
X153586007Y-85294604D01*
X153475693Y-85235639D01*
X153355995Y-85199329D01*
X153231513Y-85187069D01*
X152677822Y-85187069D01*
X152633177Y-85170436D01*
X158033028Y-85170436D01*
X158033028Y-85610692D01*
X158118918Y-86042489D01*
X158287397Y-86449233D01*
X158531990Y-86815293D01*
X158843299Y-87126602D01*
X159209359Y-87371195D01*
X159616103Y-87539674D01*
X160047900Y-87625564D01*
X160488156Y-87625564D01*
X160919953Y-87539674D01*
X161326697Y-87371195D01*
X161692757Y-87126602D01*
X162004066Y-86815293D01*
X162248659Y-86449233D01*
X162417138Y-86042489D01*
X162503028Y-85610692D01*
X162503028Y-85170436D01*
X162417138Y-84738639D01*
X162248659Y-84331895D01*
X162004066Y-83965835D01*
X161692757Y-83654526D01*
X161326697Y-83409933D01*
X160919953Y-83241454D01*
X160488156Y-83155564D01*
X160047900Y-83155564D01*
X159616103Y-83241454D01*
X159209359Y-83409933D01*
X158843299Y-83654526D01*
X158531990Y-83965835D01*
X158287397Y-84331895D01*
X158118918Y-84738639D01*
X158033028Y-85170436D01*
X152633177Y-85170436D01*
X151847732Y-84877816D01*
X151847730Y-84877816D01*
X149592476Y-84037611D01*
X149586520Y-84034034D01*
X149487857Y-83998635D01*
X149441999Y-83981550D01*
X149435315Y-83979783D01*
X149376080Y-83958530D01*
X149327501Y-83951281D01*
X149280010Y-83938726D01*
X149217191Y-83934820D01*
X149210361Y-83933801D01*
X149161528Y-83931359D01*
X149056867Y-83924852D01*
X149049981Y-83925782D01*
X148894978Y-83918032D01*
X148921015Y-83869321D01*
X148957325Y-83749623D01*
X148969585Y-83625141D01*
X148966513Y-83410891D01*
X148807763Y-83252141D01*
X147708513Y-83252141D01*
X147708513Y-83272141D01*
X147454513Y-83272141D01*
X147454513Y-83252141D01*
X146355263Y-83252141D01*
X146316904Y-83290500D01*
X145415000Y-83290500D01*
X145415000Y-83310500D01*
X145161000Y-83310500D01*
X145161000Y-83290500D01*
X144086750Y-83290500D01*
X143928000Y-83449250D01*
X143924928Y-83751000D01*
X143937188Y-83875482D01*
X143973498Y-83995180D01*
X144032463Y-84105494D01*
X144111815Y-84202185D01*
X144191594Y-84267658D01*
X144185038Y-84273038D01*
X144074595Y-84407614D01*
X143992528Y-84561150D01*
X143941992Y-84727746D01*
X143924928Y-84901000D01*
X143924928Y-85118567D01*
X143260819Y-85939151D01*
X142632584Y-86715409D01*
X142632583Y-86715410D01*
X139985356Y-89986371D01*
X139985351Y-89986376D01*
X139269576Y-90870799D01*
X139269574Y-90870801D01*
X138361276Y-91993110D01*
X138311247Y-91992128D01*
X138188111Y-92014117D01*
X138071631Y-92059707D01*
X137966283Y-92127144D01*
X137876116Y-92213839D01*
X137804595Y-92316458D01*
X137754467Y-92431058D01*
X137522062Y-93146329D01*
X137511459Y-93172429D01*
X137508400Y-93188374D01*
X137290942Y-93857643D01*
X137264136Y-93979821D01*
X137262512Y-94062491D01*
X137173285Y-94374412D01*
X136023977Y-95422905D01*
X135999469Y-95439491D01*
X135941548Y-95498103D01*
X135922066Y-95515876D01*
X135902381Y-95537737D01*
X135881695Y-95558670D01*
X135865079Y-95579163D01*
X135809947Y-95640390D01*
X135794818Y-95665818D01*
X135297726Y-96278898D01*
X135255892Y-96213546D01*
X135169198Y-96123378D01*
X135066579Y-96051857D01*
X134951978Y-96001730D01*
X134747265Y-95938444D01*
X134547228Y-96040368D01*
X134207541Y-97085817D01*
X134226562Y-97091997D01*
X134148073Y-97333566D01*
X134129051Y-97327385D01*
X133837892Y-98223481D01*
X133744270Y-98271184D01*
X133412308Y-99292856D01*
X133431329Y-99299036D01*
X133352840Y-99540605D01*
X133333818Y-99534424D01*
X133001857Y-100556097D01*
X132606240Y-100556097D01*
X132760288Y-100477606D01*
X133092250Y-99455934D01*
X132201347Y-99166462D01*
X132001311Y-99268386D01*
X131862653Y-99685188D01*
X131835846Y-99807366D01*
X131833390Y-99932426D01*
X129166057Y-99932426D01*
X129155785Y-99907628D01*
X128993270Y-99664407D01*
X128962900Y-99634037D01*
X129093586Y-99604391D01*
X129359466Y-99485842D01*
X129597109Y-99317699D01*
X129797382Y-99106425D01*
X129885338Y-98980219D01*
X129841128Y-98724857D01*
X132177914Y-98724857D01*
X132279838Y-98924894D01*
X133170740Y-99214366D01*
X133454173Y-98342047D01*
X133547796Y-98294344D01*
X133887483Y-97248895D01*
X133079798Y-96986462D01*
X132879761Y-97088386D01*
X132733378Y-97528965D01*
X132706571Y-97651143D01*
X132704116Y-97776203D01*
X132725610Y-97896559D01*
X132627892Y-97934805D01*
X132522545Y-98002243D01*
X132432377Y-98088936D01*
X132360855Y-98191556D01*
X132310728Y-98306156D01*
X132177914Y-98724857D01*
X129841128Y-98724857D01*
X129840995Y-98724091D01*
X128706237Y-98355385D01*
X128700057Y-98374406D01*
X128458488Y-98295917D01*
X128464669Y-98276895D01*
X128445648Y-98270715D01*
X128524137Y-98029146D01*
X128543159Y-98035327D01*
X128549339Y-98016306D01*
X128790908Y-98094795D01*
X128784727Y-98113817D01*
X129919485Y-98482522D01*
X130105908Y-98301374D01*
X130108933Y-98147572D01*
X130071092Y-97858930D01*
X129977666Y-97583217D01*
X129921138Y-97485184D01*
X130005398Y-97486839D01*
X130128534Y-97464850D01*
X130245014Y-97419260D01*
X130350362Y-97351823D01*
X130440529Y-97265128D01*
X130512050Y-97162509D01*
X130562178Y-97047909D01*
X130725629Y-96544857D01*
X133056364Y-96544857D01*
X133158288Y-96744894D01*
X133965973Y-97007327D01*
X134305660Y-95961878D01*
X134203736Y-95761841D01*
X134000922Y-95692713D01*
X133878744Y-95665905D01*
X133753684Y-95663450D01*
X133630548Y-95685440D01*
X133514068Y-95731029D01*
X133408720Y-95798466D01*
X133318553Y-95885160D01*
X133247031Y-95987779D01*
X133196904Y-96102380D01*
X133056364Y-96544857D01*
X130725629Y-96544857D01*
X131087506Y-95431113D01*
X131114312Y-95308935D01*
X131116768Y-95183875D01*
X131094779Y-95060739D01*
X131049189Y-94944259D01*
X130981752Y-94838911D01*
X130895057Y-94748744D01*
X130792438Y-94677223D01*
X130706360Y-94639571D01*
X134496540Y-93590556D01*
X134542629Y-93622678D01*
X134657229Y-93672806D01*
X135608286Y-93981823D01*
X135730464Y-94008629D01*
X135855524Y-94011085D01*
X135978660Y-93989096D01*
X136095140Y-93943506D01*
X136200488Y-93876069D01*
X136290655Y-93789374D01*
X136362176Y-93686755D01*
X136412304Y-93572155D01*
X136875829Y-92145570D01*
X136902635Y-92023392D01*
X136905091Y-91898332D01*
X136883102Y-91775196D01*
X136837512Y-91658716D01*
X136770075Y-91553368D01*
X136683381Y-91463201D01*
X136580761Y-91391680D01*
X136466161Y-91341552D01*
X135515104Y-91032535D01*
X135392926Y-91005729D01*
X135267866Y-91003273D01*
X135144730Y-91025262D01*
X135028250Y-91070852D01*
X134922902Y-91138289D01*
X134832735Y-91224984D01*
X134761214Y-91327603D01*
X134711086Y-91442203D01*
X134528350Y-92004608D01*
X128569407Y-93653877D01*
X128560055Y-93654798D01*
X128497308Y-93673832D01*
X128470336Y-93681297D01*
X128461642Y-93684651D01*
X128416795Y-93698255D01*
X128391940Y-93711541D01*
X128365662Y-93721678D01*
X128326084Y-93746742D01*
X128284766Y-93768827D01*
X128262993Y-93786696D01*
X128239183Y-93801774D01*
X128205246Y-93834087D01*
X128198039Y-93840002D01*
X128178232Y-93859809D01*
X128177276Y-93860720D01*
X131427993Y-83856041D01*
X136855152Y-83856041D01*
X136855152Y-84296297D01*
X136941042Y-84728094D01*
X137109521Y-85134838D01*
X137354114Y-85500898D01*
X137665423Y-85812207D01*
X138031483Y-86056800D01*
X138438227Y-86225279D01*
X138870024Y-86311169D01*
X139310280Y-86311169D01*
X139742077Y-86225279D01*
X140148821Y-86056800D01*
X140514881Y-85812207D01*
X140826190Y-85500898D01*
X141070783Y-85134838D01*
X141239262Y-84728094D01*
X141325152Y-84296297D01*
X141325152Y-83856041D01*
X141239262Y-83424244D01*
X141070783Y-83017500D01*
X140826190Y-82651440D01*
X140750750Y-82576000D01*
X143924928Y-82576000D01*
X143928000Y-82877750D01*
X144086750Y-83036500D01*
X145161000Y-83036500D01*
X145161000Y-82099750D01*
X145415000Y-82099750D01*
X145415000Y-83036500D01*
X146489250Y-83036500D01*
X146527609Y-82998141D01*
X147454513Y-82998141D01*
X147454513Y-82148891D01*
X147708513Y-82148891D01*
X147708513Y-82998141D01*
X148807763Y-82998141D01*
X148966513Y-82839391D01*
X148969585Y-82625141D01*
X148957325Y-82500659D01*
X148921015Y-82380961D01*
X148862050Y-82270647D01*
X148782698Y-82173956D01*
X148686007Y-82094604D01*
X148575693Y-82035639D01*
X148455995Y-81999329D01*
X148331513Y-81987069D01*
X147867263Y-81990141D01*
X147708513Y-82148891D01*
X147454513Y-82148891D01*
X147295763Y-81990141D01*
X146831513Y-81987069D01*
X146707031Y-81999329D01*
X146587333Y-82035639D01*
X146477019Y-82094604D01*
X146452196Y-82114976D01*
X146367494Y-82045463D01*
X146257180Y-81986498D01*
X146137482Y-81950188D01*
X146013000Y-81937928D01*
X145573750Y-81941000D01*
X145415000Y-82099750D01*
X145161000Y-82099750D01*
X145002250Y-81941000D01*
X144563000Y-81937928D01*
X144438518Y-81950188D01*
X144318820Y-81986498D01*
X144208506Y-82045463D01*
X144111815Y-82124815D01*
X144032463Y-82221506D01*
X143973498Y-82331820D01*
X143937188Y-82451518D01*
X143924928Y-82576000D01*
X140750750Y-82576000D01*
X140514881Y-82340131D01*
X140148821Y-82095538D01*
X139742077Y-81927059D01*
X139310280Y-81841169D01*
X138870024Y-81841169D01*
X138438227Y-81927059D01*
X138031483Y-82095538D01*
X137665423Y-82340131D01*
X137354114Y-82651440D01*
X137109521Y-83017500D01*
X136941042Y-83424244D01*
X136855152Y-83856041D01*
X131427993Y-83856041D01*
X132446654Y-80720926D01*
X135529011Y-80720926D01*
X135529011Y-80959276D01*
X135575510Y-81193045D01*
X135666723Y-81413251D01*
X135799142Y-81611431D01*
X135967681Y-81779970D01*
X136165861Y-81912389D01*
X136386067Y-82003602D01*
X136619836Y-82050101D01*
X136858186Y-82050101D01*
X137091955Y-82003602D01*
X137312161Y-81912389D01*
X137510341Y-81779970D01*
X137678880Y-81611431D01*
X137811299Y-81413251D01*
X137902512Y-81193045D01*
X137949011Y-80959276D01*
X137949011Y-80720926D01*
X137902512Y-80487157D01*
X137811299Y-80266951D01*
X137678880Y-80068771D01*
X137510341Y-79900232D01*
X137312161Y-79767813D01*
X137091955Y-79676600D01*
X136858186Y-79630101D01*
X136619836Y-79630101D01*
X136386067Y-79676600D01*
X136165861Y-79767813D01*
X135967681Y-79900232D01*
X135799142Y-80068771D01*
X135666723Y-80266951D01*
X135575510Y-80487157D01*
X135529011Y-80720926D01*
X132446654Y-80720926D01*
X133746309Y-76721000D01*
X148602932Y-76721000D01*
X147643718Y-77221916D01*
%TA.AperFunction,Conductor*%
D19*
G36*
X147643718Y-77221916D02*
G01*
X147567046Y-77170686D01*
X147296793Y-77058744D01*
X147009895Y-77001676D01*
X146717375Y-77001676D01*
X146430477Y-77058744D01*
X146160224Y-77170686D01*
X145917003Y-77333201D01*
X145710160Y-77540044D01*
X145547645Y-77783265D01*
X145435703Y-78053518D01*
X145378635Y-78340416D01*
X145378635Y-78632936D01*
X145435703Y-78919834D01*
X145547645Y-79190087D01*
X145710160Y-79433308D01*
X145917003Y-79640151D01*
X146160224Y-79802666D01*
X146430477Y-79914608D01*
X146717375Y-79971676D01*
X147009895Y-79971676D01*
X147296793Y-79914608D01*
X147567046Y-79802666D01*
X147810267Y-79640151D01*
X148017110Y-79433308D01*
X148138830Y-79251142D01*
X148208457Y-79368031D01*
X148403366Y-79584264D01*
X148636715Y-79758317D01*
X148899536Y-79883501D01*
X149046745Y-79928152D01*
X149276635Y-79806831D01*
X149276635Y-78613676D01*
X149256635Y-78613676D01*
X149256635Y-78359676D01*
X149276635Y-78359676D01*
X149276635Y-78339676D01*
X149530635Y-78339676D01*
X149530635Y-78359676D01*
X149550635Y-78359676D01*
X149550635Y-78613676D01*
X149530635Y-78613676D01*
X149530635Y-79806831D01*
X149760525Y-79928152D01*
X149905203Y-79884269D01*
X149905334Y-79884586D01*
X149916454Y-79921246D01*
X149951486Y-79986785D01*
X151183553Y-82303243D01*
X151142011Y-82380961D01*
X151105701Y-82500659D01*
X151093441Y-82625141D01*
X151093441Y-83625141D01*
X151105701Y-83749623D01*
X151142011Y-83869321D01*
X151200976Y-83979635D01*
X151280328Y-84076326D01*
X151377019Y-84155678D01*
X151487333Y-84214643D01*
X151607031Y-84250953D01*
X151731513Y-84263213D01*
X153231513Y-84263213D01*
X153355995Y-84250953D01*
X153475693Y-84214643D01*
X153586007Y-84155678D01*
X153682698Y-84076326D01*
X153762050Y-83979635D01*
X153821015Y-83869321D01*
X153857325Y-83749623D01*
X153869585Y-83625141D01*
X153869585Y-82625141D01*
X153857325Y-82500659D01*
X153821015Y-82380961D01*
X153762050Y-82270647D01*
X153682698Y-82173956D01*
X153586007Y-82094604D01*
X153475693Y-82035639D01*
X153355995Y-81999329D01*
X153231513Y-81987069D01*
X152737013Y-81987069D01*
X151666707Y-79974748D01*
X152793635Y-79974748D01*
X152918117Y-79962488D01*
X153037815Y-79926178D01*
X153148129Y-79867213D01*
X153244820Y-79787861D01*
X153324172Y-79691170D01*
X153383137Y-79580856D01*
X153419447Y-79461158D01*
X153431707Y-79336676D01*
X153431707Y-79292583D01*
X166123198Y-79292583D01*
X166123198Y-79732839D01*
X166209088Y-80164636D01*
X166377567Y-80571380D01*
X166622160Y-80937440D01*
X166933469Y-81248749D01*
X167299529Y-81493342D01*
X167706273Y-81661821D01*
X168138070Y-81747711D01*
X168578326Y-81747711D01*
X169010123Y-81661821D01*
X169416867Y-81493342D01*
X169782927Y-81248749D01*
X170094236Y-80937440D01*
X170338829Y-80571380D01*
X170507308Y-80164636D01*
X170593198Y-79732839D01*
X170593198Y-79292583D01*
X170507308Y-78860786D01*
X170338829Y-78454042D01*
X170094236Y-78087982D01*
X169782927Y-77776673D01*
X169416867Y-77532080D01*
X169010123Y-77363601D01*
X168578326Y-77277711D01*
X168138070Y-77277711D01*
X167706273Y-77363601D01*
X167299529Y-77532080D01*
X166933469Y-77776673D01*
X166622160Y-78087982D01*
X166377567Y-78454042D01*
X166209088Y-78860786D01*
X166123198Y-79292583D01*
X153431707Y-79292583D01*
X153431707Y-77636676D01*
X153419447Y-77512194D01*
X153383137Y-77392496D01*
X153324172Y-77282182D01*
X153244820Y-77185491D01*
X153148129Y-77106139D01*
X153037815Y-77047174D01*
X152918117Y-77010864D01*
X152793635Y-76998604D01*
X151093635Y-76998604D01*
X150995187Y-77008300D01*
X150977402Y-76968428D01*
X150940727Y-76916609D01*
X150905613Y-76863711D01*
X150897537Y-76855585D01*
X150890916Y-76846231D01*
X150844834Y-76802561D01*
X150800077Y-76757531D01*
X150790567Y-76751135D01*
X150782251Y-76743254D01*
X150746927Y-76721000D01*
X172200658Y-76721000D01*
X165838198Y-96302639D01*
X165675824Y-95904028D01*
X165939540Y-95092392D01*
X165966346Y-94970214D01*
X165968802Y-94845154D01*
X165946813Y-94722018D01*
X165901223Y-94605538D01*
X165833786Y-94500190D01*
X165747091Y-94410023D01*
X165644472Y-94338502D01*
X165529872Y-94288374D01*
X163913076Y-93763046D01*
X163790898Y-93736240D01*
X163665838Y-93733784D01*
X163542702Y-93755773D01*
X163426222Y-93801363D01*
X163320874Y-93868800D01*
X163230707Y-93955495D01*
X163159186Y-94058114D01*
X163109058Y-94172714D01*
X162583730Y-95789510D01*
X162556924Y-95911688D01*
X162554468Y-96036748D01*
X162576457Y-96159884D01*
X162622047Y-96276364D01*
X162689484Y-96381712D01*
X162776179Y-96471879D01*
X162845318Y-96520066D01*
X162741964Y-96566149D01*
X162504321Y-96734292D01*
X162304048Y-96945566D01*
X162216092Y-97071772D01*
X162260435Y-97327900D01*
X163395193Y-97696606D01*
X163401373Y-97677585D01*
X163642942Y-97756074D01*
X163636761Y-97775096D01*
X163655782Y-97781276D01*
X163577293Y-98022845D01*
X163558271Y-98016664D01*
X163552091Y-98035685D01*
X163310522Y-97957196D01*
X163316703Y-97938174D01*
X162181945Y-97569469D01*
X161995522Y-97750617D01*
X161992497Y-97904419D01*
X162030338Y-98193061D01*
X162123764Y-98468774D01*
X162269183Y-98720963D01*
X162359699Y-98824290D01*
X162258671Y-98844386D01*
X161988418Y-98956328D01*
X161895288Y-99018556D01*
X159767815Y-97944002D01*
X159816358Y-97794602D01*
X159843164Y-97672424D01*
X159845620Y-97547364D01*
X159823631Y-97424228D01*
X159778041Y-97307748D01*
X159710604Y-97202400D01*
X159623910Y-97112233D01*
X159521290Y-97040712D01*
X159406690Y-96990584D01*
X159007043Y-96860731D01*
X160171515Y-95922202D01*
X160208863Y-95898830D01*
X160258341Y-95852223D01*
X160267649Y-95844721D01*
X160298930Y-95813989D01*
X160371605Y-95745531D01*
X160378583Y-95735734D01*
X160387172Y-95727296D01*
X160443399Y-95644738D01*
X160501315Y-95563428D01*
X160506250Y-95552454D01*
X160513024Y-95542507D01*
X160552060Y-95450575D01*
X160570030Y-95410613D01*
X160573838Y-95399288D01*
X160600408Y-95336716D01*
X160609386Y-95293578D01*
X160818221Y-94672563D01*
X160867016Y-94561010D01*
X161330541Y-93134425D01*
X161357347Y-93012247D01*
X161359803Y-92887187D01*
X161337814Y-92764051D01*
X161292224Y-92647571D01*
X161224787Y-92542223D01*
X161138093Y-92452056D01*
X161035473Y-92380535D01*
X160920873Y-92330407D01*
X159969816Y-92021390D01*
X159847638Y-91994584D01*
X159722578Y-91992128D01*
X159599442Y-92014117D01*
X159482962Y-92059707D01*
X159377614Y-92127144D01*
X159287447Y-92213839D01*
X159215926Y-92316458D01*
X159165798Y-92431058D01*
X158843091Y-93424250D01*
X158541802Y-94320200D01*
X157137690Y-95451873D01*
X157087160Y-95485596D01*
X157011396Y-95561277D01*
X156935028Y-95636304D01*
X156932349Y-95640238D01*
X156928982Y-95643601D01*
X156869436Y-95732613D01*
X156809176Y-95821094D01*
X156785435Y-95877005D01*
X156627453Y-96172182D01*
X156580529Y-96123378D01*
X156477910Y-96051857D01*
X156363309Y-96001730D01*
X156158596Y-95938444D01*
X155958559Y-96040368D01*
X155618872Y-97085817D01*
X155637893Y-97091997D01*
X155559404Y-97333566D01*
X155540382Y-97327385D01*
X155288423Y-98102834D01*
X155207270Y-98144184D01*
X154875308Y-99165856D01*
X154894329Y-99172036D01*
X154815840Y-99413605D01*
X154796818Y-99407424D01*
X154464857Y-100429097D01*
X154566780Y-100629133D01*
X154852812Y-100725301D01*
X154974990Y-100752108D01*
X155100050Y-100754564D01*
X155223186Y-100732574D01*
X155339666Y-100686985D01*
X155426587Y-100631343D01*
X155429678Y-100639241D01*
X155523539Y-100785865D01*
X155644200Y-100911360D01*
X155787026Y-101010904D01*
X155946528Y-101080671D01*
X156588492Y-101289257D01*
X156758539Y-101326566D01*
X156932598Y-101329984D01*
X157103979Y-101299379D01*
X157151428Y-101280808D01*
X162076020Y-103164594D01*
X162156440Y-103199348D01*
X162234865Y-103216192D01*
X162312240Y-103237371D01*
X162399639Y-103243572D01*
X163530836Y-103372388D01*
X163540402Y-103374529D01*
X160317611Y-113293260D01*
X139743817Y-113293260D01*
X139804740Y-113243262D01*
X139828543Y-113214258D01*
X140026469Y-113016332D01*
X141701620Y-113016332D01*
X141826102Y-113004072D01*
X141945800Y-112967762D01*
X142056114Y-112908797D01*
X142152805Y-112829445D01*
X142232157Y-112732754D01*
X142291122Y-112622440D01*
X142327432Y-112502742D01*
X142339692Y-112378260D01*
X142339692Y-111772853D01*
X145638523Y-109054984D01*
X156114909Y-109054984D01*
X156114909Y-109293334D01*
X156161408Y-109527103D01*
X156252621Y-109747309D01*
X156385040Y-109945489D01*
X156553579Y-110114028D01*
X156751759Y-110246447D01*
X156971965Y-110337660D01*
X157205734Y-110384159D01*
X157444084Y-110384159D01*
X157677853Y-110337660D01*
X157898059Y-110246447D01*
X158096239Y-110114028D01*
X158264778Y-109945489D01*
X158397197Y-109747309D01*
X158488410Y-109527103D01*
X158534909Y-109293334D01*
X158534909Y-109054984D01*
X158488410Y-108821215D01*
X158397197Y-108601009D01*
X158264778Y-108402829D01*
X158096239Y-108234290D01*
X157898059Y-108101871D01*
X157677853Y-108010658D01*
X157444084Y-107964159D01*
X157205734Y-107964159D01*
X156971965Y-108010658D01*
X156751759Y-108101871D01*
X156553579Y-108234290D01*
X156385040Y-108402829D01*
X156252621Y-108601009D01*
X156161408Y-108821215D01*
X156114909Y-109054984D01*
X145638523Y-109054984D01*
X146886014Y-108027191D01*
X147232407Y-108027191D01*
X147356889Y-108014931D01*
X147476587Y-107978621D01*
X147586901Y-107919656D01*
X147683592Y-107840304D01*
X147762944Y-107743613D01*
X147821909Y-107633299D01*
X147858219Y-107513601D01*
X147870479Y-107389119D01*
X147870479Y-106389119D01*
X147858219Y-106264637D01*
X147821909Y-106144939D01*
X147762944Y-106034625D01*
X147683592Y-105937934D01*
X147586901Y-105858582D01*
X147476587Y-105799617D01*
X147356889Y-105763307D01*
X147232407Y-105751047D01*
X145732407Y-105751047D01*
X145607925Y-105763307D01*
X145552390Y-105780154D01*
X145207484Y-105789979D01*
X145087938Y-105717963D01*
X152738768Y-105717963D01*
X152738768Y-106158219D01*
X152824658Y-106590016D01*
X152993137Y-106996760D01*
X153237730Y-107362820D01*
X153549039Y-107674129D01*
X153915099Y-107918722D01*
X154321843Y-108087201D01*
X154753640Y-108173091D01*
X155193896Y-108173091D01*
X155625693Y-108087201D01*
X156032437Y-107918722D01*
X156398497Y-107674129D01*
X156709806Y-107362820D01*
X156954399Y-106996760D01*
X157122878Y-106590016D01*
X157208768Y-106158219D01*
X157208768Y-105717963D01*
X157122878Y-105286166D01*
X156954399Y-104879422D01*
X156709806Y-104513362D01*
X156398497Y-104202053D01*
X156032437Y-103957460D01*
X155625693Y-103788981D01*
X155193896Y-103703091D01*
X154753640Y-103703091D01*
X154321843Y-103788981D01*
X153915099Y-103957460D01*
X153549039Y-104202053D01*
X153237730Y-104513362D01*
X152993137Y-104879422D01*
X152824658Y-105286166D01*
X152738768Y-105717963D01*
X145087938Y-105717963D01*
X143437302Y-104723605D01*
X143397457Y-104693265D01*
X143341805Y-104666076D01*
X143336718Y-104663012D01*
X143291644Y-104641570D01*
X143196573Y-104595124D01*
X143190803Y-104593601D01*
X143185411Y-104591036D01*
X143082813Y-104565094D01*
X143034569Y-104552359D01*
X143028706Y-104551413D01*
X142968657Y-104536230D01*
X142918640Y-104533661D01*
X142872262Y-104526180D01*
X142921909Y-104433299D01*
X142958219Y-104313601D01*
X142970479Y-104189119D01*
X142967407Y-103974869D01*
X142808657Y-103816119D01*
X141709407Y-103816119D01*
X141709407Y-103836119D01*
X141455407Y-103836119D01*
X141455407Y-103816119D01*
X140725869Y-103816119D01*
X140647250Y-103737500D01*
X139573000Y-103737500D01*
X139573000Y-103757500D01*
X139319000Y-103757500D01*
X139319000Y-103737500D01*
X138244750Y-103737500D01*
X138086000Y-103896250D01*
X138082928Y-104198000D01*
X138095188Y-104322482D01*
X138131498Y-104442180D01*
X138190463Y-104552494D01*
X138269815Y-104649185D01*
X138349594Y-104714658D01*
X138343038Y-104720038D01*
X138232595Y-104854614D01*
X138150528Y-105008150D01*
X138099992Y-105174746D01*
X138082928Y-105348000D01*
X138082928Y-106023000D01*
X138099992Y-106196254D01*
X138150528Y-106362850D01*
X138232595Y-106516386D01*
X138343038Y-106650962D01*
X138477614Y-106761405D01*
X138631150Y-106843472D01*
X138797746Y-106894008D01*
X138971000Y-106911072D01*
X139921000Y-106911072D01*
X140094254Y-106894008D01*
X140194335Y-106863649D01*
X140194335Y-107389119D01*
X140206595Y-107513601D01*
X140242905Y-107633299D01*
X140286173Y-107714247D01*
X139005547Y-110135279D01*
X138971074Y-110199772D01*
X138969574Y-110204717D01*
X138815719Y-110131435D01*
X138668510Y-110086784D01*
X138438620Y-110208105D01*
X138438620Y-111401260D01*
X138458620Y-111401260D01*
X138458620Y-111655260D01*
X138438620Y-111655260D01*
X138438620Y-111675260D01*
X138184620Y-111675260D01*
X138184620Y-111655260D01*
X138164620Y-111655260D01*
X138164620Y-111401260D01*
X138184620Y-111401260D01*
X138184620Y-110208105D01*
X137954730Y-110086784D01*
X137807521Y-110131435D01*
X137544700Y-110256619D01*
X137311351Y-110430672D01*
X137116442Y-110646905D01*
X137046815Y-110763794D01*
X136925095Y-110581628D01*
X136718252Y-110374785D01*
X136475031Y-110212270D01*
X136204778Y-110100328D01*
X135917880Y-110043260D01*
X135625360Y-110043260D01*
X135338462Y-110100328D01*
X135068209Y-110212270D01*
X134824988Y-110374785D01*
X134618145Y-110581628D01*
X134455630Y-110824849D01*
X134343688Y-111095102D01*
X134286620Y-111382000D01*
X134286620Y-111674520D01*
X134343688Y-111961418D01*
X134455630Y-112231671D01*
X134618145Y-112474892D01*
X134824988Y-112681735D01*
X135068209Y-112844250D01*
X135338462Y-112956192D01*
X135625360Y-113013260D01*
X135917880Y-113013260D01*
X136138028Y-112969470D01*
X136382822Y-113214264D01*
X136406620Y-113243262D01*
X136467543Y-113293260D01*
X121863260Y-113293260D01*
X122841865Y-110281421D01*
X123470721Y-110281421D01*
X123470721Y-110721677D01*
X123556611Y-111153474D01*
X123725090Y-111560218D01*
X123969683Y-111926278D01*
X124280992Y-112237587D01*
X124647052Y-112482180D01*
X125053796Y-112650659D01*
X125485593Y-112736549D01*
X125925849Y-112736549D01*
X126357646Y-112650659D01*
X126764390Y-112482180D01*
X127130450Y-112237587D01*
X127441759Y-111926278D01*
X127686352Y-111560218D01*
X127854831Y-111153474D01*
X127940721Y-110721677D01*
X127940721Y-110281421D01*
X127854831Y-109849624D01*
X127686352Y-109442880D01*
X127441759Y-109076820D01*
X127130450Y-108765511D01*
X126764390Y-108520918D01*
X126357646Y-108352439D01*
X125925849Y-108266549D01*
X125485593Y-108266549D01*
X125053796Y-108352439D01*
X124647052Y-108520918D01*
X124280992Y-108765511D01*
X123969683Y-109076820D01*
X123725090Y-109442880D01*
X123556611Y-109849624D01*
X123470721Y-110281421D01*
X122841865Y-110281421D01*
X124751696Y-104403568D01*
X131560891Y-104403568D01*
X131560891Y-104843824D01*
X131646781Y-105275621D01*
X131815260Y-105682365D01*
X132059853Y-106048425D01*
X132371162Y-106359734D01*
X132737222Y-106604327D01*
X133143966Y-106772806D01*
X133575763Y-106858696D01*
X134016019Y-106858696D01*
X134447816Y-106772806D01*
X134854560Y-106604327D01*
X135220620Y-106359734D01*
X135531929Y-106048425D01*
X135776522Y-105682365D01*
X135945001Y-105275621D01*
X136030891Y-104843824D01*
X136030891Y-104403568D01*
X135945001Y-103971771D01*
X135776522Y-103565027D01*
X135531929Y-103198967D01*
X135355962Y-103023000D01*
X138082928Y-103023000D01*
X138086000Y-103324750D01*
X138244750Y-103483500D01*
X139319000Y-103483500D01*
X139319000Y-102546750D01*
X139573000Y-102546750D01*
X139573000Y-103483500D01*
X140277538Y-103483500D01*
X140356157Y-103562119D01*
X141455407Y-103562119D01*
X141455407Y-102712869D01*
X141709407Y-102712869D01*
X141709407Y-103562119D01*
X142808657Y-103562119D01*
X142967407Y-103403369D01*
X142970479Y-103189119D01*
X142958219Y-103064637D01*
X142921909Y-102944939D01*
X142862944Y-102834625D01*
X142783592Y-102737934D01*
X142686901Y-102658582D01*
X142576587Y-102599617D01*
X142456889Y-102563307D01*
X142332407Y-102551047D01*
X141868157Y-102554119D01*
X141709407Y-102712869D01*
X141455407Y-102712869D01*
X141296657Y-102554119D01*
X140832407Y-102551047D01*
X140707925Y-102563307D01*
X140633685Y-102585828D01*
X140622185Y-102571815D01*
X140525494Y-102492463D01*
X140415180Y-102433498D01*
X140295482Y-102397188D01*
X140171000Y-102384928D01*
X139731750Y-102388000D01*
X139573000Y-102546750D01*
X139319000Y-102546750D01*
X139160250Y-102388000D01*
X138721000Y-102384928D01*
X138596518Y-102397188D01*
X138476820Y-102433498D01*
X138366506Y-102492463D01*
X138269815Y-102571815D01*
X138190463Y-102668506D01*
X138131498Y-102778820D01*
X138095188Y-102898518D01*
X138082928Y-103023000D01*
X135355962Y-103023000D01*
X135220620Y-102887658D01*
X134854560Y-102643065D01*
X134447816Y-102474586D01*
X134016019Y-102388696D01*
X133575763Y-102388696D01*
X133143966Y-102474586D01*
X132737222Y-102643065D01*
X132371162Y-102887658D01*
X132059853Y-103198967D01*
X131815260Y-103565027D01*
X131646781Y-103971771D01*
X131560891Y-104403568D01*
X124751696Y-104403568D01*
X126689698Y-98439014D01*
X126689697Y-99661030D01*
X126686320Y-99664407D01*
X126523805Y-99907628D01*
X126411863Y-100177881D01*
X126354795Y-100464779D01*
X126354795Y-100757299D01*
X126411863Y-101044197D01*
X126523805Y-101314450D01*
X126686320Y-101557671D01*
X126893163Y-101764514D01*
X127136384Y-101927029D01*
X127406637Y-102038971D01*
X127693535Y-102096039D01*
X127986055Y-102096039D01*
X128272953Y-102038971D01*
X128543206Y-101927029D01*
X128786427Y-101764514D01*
X128993270Y-101557671D01*
X129155785Y-101314450D01*
X129267727Y-101044197D01*
X129324795Y-100757299D01*
X129324795Y-100464779D01*
X129267727Y-100177881D01*
X129166057Y-99932426D01*
X131833390Y-99932426D01*
X131855381Y-100055562D01*
X131900970Y-100172042D01*
X131968407Y-100277389D01*
X132055101Y-100367557D01*
X132157720Y-100439079D01*
X132272321Y-100489206D01*
X132560251Y-100579530D01*
X132606240Y-100556097D01*
X133001857Y-100556097D01*
X133103780Y-100756133D01*
X133389812Y-100852301D01*
X133511990Y-100879108D01*
X133637050Y-100881564D01*
X133760186Y-100859574D01*
X133876666Y-100813985D01*
X133963587Y-100758343D01*
X133966678Y-100766241D01*
X134060539Y-100912865D01*
X134181200Y-101038360D01*
X134324026Y-101137904D01*
X134483528Y-101207671D01*
X135125492Y-101416257D01*
X135295539Y-101453566D01*
X135469598Y-101456984D01*
X135640979Y-101426379D01*
X135803096Y-101362928D01*
X135949720Y-101269068D01*
X136075215Y-101148406D01*
X136174759Y-101005581D01*
X136244527Y-100846079D01*
X136538093Y-99942575D01*
X136575402Y-99772527D01*
X136578820Y-99598468D01*
X136550548Y-99440148D01*
X137137484Y-99630855D01*
X137259662Y-99657661D01*
X137384722Y-99660117D01*
X137507858Y-99638128D01*
X137624338Y-99592538D01*
X137729686Y-99525101D01*
X137819853Y-99438406D01*
X137891374Y-99335787D01*
X137941502Y-99221187D01*
X138230258Y-98332486D01*
X143587973Y-94926626D01*
X143756884Y-95159112D01*
X143839971Y-95252613D01*
X143939703Y-95328109D01*
X144052247Y-95382696D01*
X144173278Y-95414279D01*
X144298145Y-95421643D01*
X144422049Y-95404505D01*
X144540230Y-95363524D01*
X144648144Y-95300274D01*
X145369611Y-94776099D01*
X145432347Y-94792429D01*
X145500063Y-94893774D01*
X145644226Y-95037937D01*
X145813744Y-95151205D01*
X146002102Y-95229226D01*
X146202061Y-95269000D01*
X146405939Y-95269000D01*
X146549981Y-95240349D01*
X146549981Y-95687177D01*
X145611889Y-96625270D01*
X145582891Y-96649068D01*
X145559093Y-96678066D01*
X145559092Y-96678067D01*
X145487917Y-96764793D01*
X145417345Y-96896823D01*
X145394450Y-96972300D01*
X145373889Y-97040083D01*
X145369634Y-97083286D01*
X145359215Y-97189069D01*
X145362892Y-97226401D01*
X145362891Y-102670910D01*
X145281222Y-102737934D01*
X145201870Y-102834625D01*
X145142905Y-102944939D01*
X145106595Y-103064637D01*
X145094335Y-103189119D01*
X145094335Y-104189119D01*
X145106595Y-104313601D01*
X145142905Y-104433299D01*
X145201870Y-104543613D01*
X145281222Y-104640304D01*
X145377913Y-104719656D01*
X145488227Y-104778621D01*
X145607925Y-104814931D01*
X145732407Y-104827191D01*
X147232407Y-104827191D01*
X147356889Y-104814931D01*
X147476587Y-104778621D01*
X147586901Y-104719656D01*
X147683592Y-104640304D01*
X147762944Y-104543613D01*
X147821909Y-104433299D01*
X147858219Y-104313601D01*
X147870479Y-104189119D01*
X147870479Y-103189119D01*
X147858219Y-103064637D01*
X147821909Y-102944939D01*
X147762944Y-102834625D01*
X147683592Y-102737934D01*
X147586901Y-102658582D01*
X147476587Y-102599617D01*
X147356889Y-102563307D01*
X147232407Y-102551047D01*
X146882891Y-102551047D01*
X146882891Y-99461691D01*
X147077871Y-99730058D01*
X147160958Y-99823559D01*
X147260690Y-99899055D01*
X147373234Y-99953642D01*
X147494265Y-99985225D01*
X147619132Y-99992589D01*
X147743036Y-99975451D01*
X147861217Y-99934470D01*
X147969131Y-99871220D01*
X148332535Y-99607192D01*
X148864689Y-99908597D01*
X148879469Y-99951219D01*
X148920505Y-100040232D01*
X148983750Y-100148138D01*
X148998188Y-100168010D01*
X149010612Y-100189208D01*
X149304505Y-100593717D01*
X149320803Y-100612054D01*
X149335257Y-100631948D01*
X149418347Y-100725453D01*
X149490322Y-100791986D01*
X149590052Y-100867480D01*
X149673625Y-100918694D01*
X149786170Y-100973282D01*
X149878130Y-101007208D01*
X149999163Y-101038791D01*
X150095972Y-101054124D01*
X150220837Y-101061488D01*
X150318780Y-101057640D01*
X150442688Y-101040502D01*
X150537997Y-101017620D01*
X150656180Y-100976636D01*
X150745192Y-100935600D01*
X150853089Y-100872362D01*
X150872967Y-100857921D01*
X150894167Y-100845495D01*
X151339126Y-100522213D01*
X151432627Y-100439126D01*
X151432955Y-100438693D01*
X151433465Y-100438516D01*
X151541379Y-100375266D01*
X151790122Y-100194543D01*
X152090714Y-100361539D01*
X152112512Y-100377525D01*
X152155992Y-100397804D01*
X152165146Y-100402890D01*
X152189828Y-100413586D01*
X152248187Y-100440805D01*
X152258420Y-100443310D01*
X152268089Y-100447500D01*
X152331054Y-100461090D01*
X152393600Y-100476401D01*
X152404124Y-100476861D01*
X152414426Y-100479085D01*
X152478833Y-100480130D01*
X152543163Y-100482944D01*
X152553578Y-100481342D01*
X152564113Y-100481513D01*
X152627449Y-100469980D01*
X152691129Y-100460185D01*
X152701037Y-100456580D01*
X152711398Y-100454693D01*
X152771261Y-100431027D01*
X152831813Y-100408994D01*
X152840825Y-100403526D01*
X152850620Y-100399654D01*
X152904752Y-100364742D01*
X152927733Y-100350799D01*
X152936100Y-100344524D01*
X152976430Y-100318513D01*
X152995857Y-100299706D01*
X153357489Y-100028483D01*
X153363970Y-100045042D01*
X153431407Y-100150389D01*
X153518101Y-100240557D01*
X153620720Y-100312079D01*
X153735321Y-100362206D01*
X154023251Y-100452530D01*
X154223288Y-100350606D01*
X154555250Y-99328934D01*
X154536229Y-99322754D01*
X154614718Y-99081185D01*
X154633740Y-99087366D01*
X154877972Y-98335694D01*
X154959127Y-98294344D01*
X155298814Y-97248895D01*
X155279793Y-97242715D01*
X155358282Y-97001146D01*
X155377304Y-97007327D01*
X155716991Y-95961878D01*
X155615067Y-95761841D01*
X155564571Y-95744630D01*
X156876368Y-93935279D01*
X157019617Y-93981823D01*
X157141795Y-94008629D01*
X157266855Y-94011085D01*
X157389991Y-93989096D01*
X157506471Y-93943506D01*
X157611819Y-93876069D01*
X157701986Y-93789374D01*
X157773507Y-93686755D01*
X157823635Y-93572155D01*
X158287160Y-92145570D01*
X158313966Y-92023392D01*
X158316422Y-91898332D01*
X158294433Y-91775196D01*
X158248843Y-91658716D01*
X158181406Y-91553368D01*
X158094712Y-91463201D01*
X157992092Y-91391680D01*
X157877492Y-91341552D01*
X156926435Y-91032535D01*
X156804257Y-91005729D01*
X156679197Y-91003273D01*
X156556061Y-91025262D01*
X156439581Y-91070852D01*
X156334233Y-91138289D01*
X156244066Y-91224984D01*
X156172545Y-91327603D01*
X156122417Y-91442203D01*
X155658892Y-92868788D01*
X155632086Y-92990966D01*
X155630653Y-93063926D01*
X153858724Y-95507938D01*
X153856339Y-95510185D01*
X153814703Y-95568656D01*
X153794786Y-95596127D01*
X153793155Y-95598915D01*
X153769501Y-95632134D01*
X153755444Y-95663405D01*
X153738152Y-95692977D01*
X153724841Y-95731488D01*
X153723503Y-95734464D01*
X153712586Y-95766941D01*
X153689245Y-95834470D01*
X153688801Y-95837701D01*
X153115492Y-97543299D01*
X152955495Y-97323083D01*
X152939197Y-97304746D01*
X152924743Y-97284852D01*
X152841653Y-97191347D01*
X152769678Y-97124814D01*
X152701827Y-97073452D01*
X152574595Y-96525155D01*
X152904135Y-96285731D01*
X152997637Y-96202644D01*
X153073132Y-96102912D01*
X153127720Y-95990368D01*
X153159302Y-95869336D01*
X153166666Y-95744469D01*
X153149528Y-95620565D01*
X153108547Y-95502385D01*
X153045297Y-95394471D01*
X151899116Y-93816888D01*
X151816029Y-93723387D01*
X151716297Y-93647891D01*
X151603753Y-93593304D01*
X151482722Y-93561721D01*
X151357855Y-93554357D01*
X151233951Y-93571495D01*
X151115770Y-93612476D01*
X151007856Y-93675726D01*
X150197400Y-94264555D01*
X149556647Y-94135670D01*
X149520937Y-94082226D01*
X149376774Y-93938063D01*
X149207256Y-93824795D01*
X149018898Y-93746774D01*
X148818939Y-93707000D01*
X148615061Y-93707000D01*
X148556293Y-93718690D01*
X148556293Y-92434662D01*
X148585315Y-92424598D01*
X148693229Y-92361348D01*
X149583148Y-91714785D01*
X149676650Y-91631698D01*
X149752145Y-91531966D01*
X149806733Y-91419422D01*
X149838315Y-91298390D01*
X149845679Y-91173523D01*
X149828541Y-91049619D01*
X149787560Y-90931439D01*
X149724310Y-90823525D01*
X148792729Y-89541314D01*
X148502209Y-87436934D01*
X148575693Y-87414643D01*
X148686007Y-87355678D01*
X148782698Y-87276326D01*
X148862050Y-87179635D01*
X148921015Y-87069321D01*
X148957325Y-86949623D01*
X148969585Y-86825141D01*
X148969585Y-86227966D01*
X151131064Y-87033235D01*
X151142011Y-87069321D01*
X151200976Y-87179635D01*
X151280328Y-87276326D01*
X151377019Y-87355678D01*
X151487333Y-87414643D01*
X151607031Y-87450953D01*
X151731513Y-87463213D01*
X152495691Y-87463213D01*
X152522647Y-87464889D01*
X152535056Y-87463213D01*
X153231513Y-87463213D01*
X153355995Y-87450953D01*
X153475693Y-87414643D01*
X153586007Y-87355678D01*
X153682698Y-87276326D01*
X153762050Y-87179635D01*
X153821015Y-87069321D01*
X153857325Y-86949623D01*
X153869585Y-86825141D01*
X153869585Y-85825141D01*
X153857325Y-85700659D01*
X153821015Y-85580961D01*
X153762050Y-85470647D01*
X153682698Y-85373956D01*
X153586007Y-85294604D01*
X153475693Y-85235639D01*
X153355995Y-85199329D01*
X153231513Y-85187069D01*
X152677822Y-85187069D01*
X152633177Y-85170436D01*
X158033028Y-85170436D01*
X158033028Y-85610692D01*
X158118918Y-86042489D01*
X158287397Y-86449233D01*
X158531990Y-86815293D01*
X158843299Y-87126602D01*
X159209359Y-87371195D01*
X159616103Y-87539674D01*
X160047900Y-87625564D01*
X160488156Y-87625564D01*
X160919953Y-87539674D01*
X161326697Y-87371195D01*
X161692757Y-87126602D01*
X162004066Y-86815293D01*
X162248659Y-86449233D01*
X162417138Y-86042489D01*
X162503028Y-85610692D01*
X162503028Y-85170436D01*
X162417138Y-84738639D01*
X162248659Y-84331895D01*
X162004066Y-83965835D01*
X161692757Y-83654526D01*
X161326697Y-83409933D01*
X160919953Y-83241454D01*
X160488156Y-83155564D01*
X160047900Y-83155564D01*
X159616103Y-83241454D01*
X159209359Y-83409933D01*
X158843299Y-83654526D01*
X158531990Y-83965835D01*
X158287397Y-84331895D01*
X158118918Y-84738639D01*
X158033028Y-85170436D01*
X152633177Y-85170436D01*
X151847732Y-84877816D01*
X151847730Y-84877816D01*
X149592476Y-84037611D01*
X149586520Y-84034034D01*
X149487857Y-83998635D01*
X149441999Y-83981550D01*
X149435315Y-83979783D01*
X149376080Y-83958530D01*
X149327501Y-83951281D01*
X149280010Y-83938726D01*
X149217191Y-83934820D01*
X149210361Y-83933801D01*
X149161528Y-83931359D01*
X149056867Y-83924852D01*
X149049981Y-83925782D01*
X148894978Y-83918032D01*
X148921015Y-83869321D01*
X148957325Y-83749623D01*
X148969585Y-83625141D01*
X148966513Y-83410891D01*
X148807763Y-83252141D01*
X147708513Y-83252141D01*
X147708513Y-83272141D01*
X147454513Y-83272141D01*
X147454513Y-83252141D01*
X146355263Y-83252141D01*
X146316904Y-83290500D01*
X145415000Y-83290500D01*
X145415000Y-83310500D01*
X145161000Y-83310500D01*
X145161000Y-83290500D01*
X144086750Y-83290500D01*
X143928000Y-83449250D01*
X143924928Y-83751000D01*
X143937188Y-83875482D01*
X143973498Y-83995180D01*
X144032463Y-84105494D01*
X144111815Y-84202185D01*
X144191594Y-84267658D01*
X144185038Y-84273038D01*
X144074595Y-84407614D01*
X143992528Y-84561150D01*
X143941992Y-84727746D01*
X143924928Y-84901000D01*
X143924928Y-85118567D01*
X143260819Y-85939151D01*
X142632584Y-86715409D01*
X142632583Y-86715410D01*
X139985356Y-89986371D01*
X139985351Y-89986376D01*
X139269576Y-90870799D01*
X139269574Y-90870801D01*
X138361276Y-91993110D01*
X138311247Y-91992128D01*
X138188111Y-92014117D01*
X138071631Y-92059707D01*
X137966283Y-92127144D01*
X137876116Y-92213839D01*
X137804595Y-92316458D01*
X137754467Y-92431058D01*
X137522062Y-93146329D01*
X137511459Y-93172429D01*
X137508400Y-93188374D01*
X137290942Y-93857643D01*
X137264136Y-93979821D01*
X137262512Y-94062491D01*
X137173285Y-94374412D01*
X136023977Y-95422905D01*
X135999469Y-95439491D01*
X135941548Y-95498103D01*
X135922066Y-95515876D01*
X135902381Y-95537737D01*
X135881695Y-95558670D01*
X135865079Y-95579163D01*
X135809947Y-95640390D01*
X135794818Y-95665818D01*
X135297726Y-96278898D01*
X135255892Y-96213546D01*
X135169198Y-96123378D01*
X135066579Y-96051857D01*
X134951978Y-96001730D01*
X134747265Y-95938444D01*
X134547228Y-96040368D01*
X134207541Y-97085817D01*
X134226562Y-97091997D01*
X134148073Y-97333566D01*
X134129051Y-97327385D01*
X133837892Y-98223481D01*
X133744270Y-98271184D01*
X133412308Y-99292856D01*
X133431329Y-99299036D01*
X133352840Y-99540605D01*
X133333818Y-99534424D01*
X133001857Y-100556097D01*
X132606240Y-100556097D01*
X132760288Y-100477606D01*
X133092250Y-99455934D01*
X132201347Y-99166462D01*
X132001311Y-99268386D01*
X131862653Y-99685188D01*
X131835846Y-99807366D01*
X131833390Y-99932426D01*
X129166057Y-99932426D01*
X129155785Y-99907628D01*
X128993270Y-99664407D01*
X128962900Y-99634037D01*
X129093586Y-99604391D01*
X129359466Y-99485842D01*
X129597109Y-99317699D01*
X129797382Y-99106425D01*
X129885338Y-98980219D01*
X129841128Y-98724857D01*
X132177914Y-98724857D01*
X132279838Y-98924894D01*
X133170740Y-99214366D01*
X133454173Y-98342047D01*
X133547796Y-98294344D01*
X133887483Y-97248895D01*
X133079798Y-96986462D01*
X132879761Y-97088386D01*
X132733378Y-97528965D01*
X132706571Y-97651143D01*
X132704116Y-97776203D01*
X132725610Y-97896559D01*
X132627892Y-97934805D01*
X132522545Y-98002243D01*
X132432377Y-98088936D01*
X132360855Y-98191556D01*
X132310728Y-98306156D01*
X132177914Y-98724857D01*
X129841128Y-98724857D01*
X129840995Y-98724091D01*
X128706237Y-98355385D01*
X128700057Y-98374406D01*
X128458488Y-98295917D01*
X128464669Y-98276895D01*
X128445648Y-98270715D01*
X128524137Y-98029146D01*
X128543159Y-98035327D01*
X128549339Y-98016306D01*
X128790908Y-98094795D01*
X128784727Y-98113817D01*
X129919485Y-98482522D01*
X130105908Y-98301374D01*
X130108933Y-98147572D01*
X130071092Y-97858930D01*
X129977666Y-97583217D01*
X129921138Y-97485184D01*
X130005398Y-97486839D01*
X130128534Y-97464850D01*
X130245014Y-97419260D01*
X130350362Y-97351823D01*
X130440529Y-97265128D01*
X130512050Y-97162509D01*
X130562178Y-97047909D01*
X130725629Y-96544857D01*
X133056364Y-96544857D01*
X133158288Y-96744894D01*
X133965973Y-97007327D01*
X134305660Y-95961878D01*
X134203736Y-95761841D01*
X134000922Y-95692713D01*
X133878744Y-95665905D01*
X133753684Y-95663450D01*
X133630548Y-95685440D01*
X133514068Y-95731029D01*
X133408720Y-95798466D01*
X133318553Y-95885160D01*
X133247031Y-95987779D01*
X133196904Y-96102380D01*
X133056364Y-96544857D01*
X130725629Y-96544857D01*
X131087506Y-95431113D01*
X131114312Y-95308935D01*
X131116768Y-95183875D01*
X131094779Y-95060739D01*
X131049189Y-94944259D01*
X130981752Y-94838911D01*
X130895057Y-94748744D01*
X130792438Y-94677223D01*
X130706360Y-94639571D01*
X134496540Y-93590556D01*
X134542629Y-93622678D01*
X134657229Y-93672806D01*
X135608286Y-93981823D01*
X135730464Y-94008629D01*
X135855524Y-94011085D01*
X135978660Y-93989096D01*
X136095140Y-93943506D01*
X136200488Y-93876069D01*
X136290655Y-93789374D01*
X136362176Y-93686755D01*
X136412304Y-93572155D01*
X136875829Y-92145570D01*
X136902635Y-92023392D01*
X136905091Y-91898332D01*
X136883102Y-91775196D01*
X136837512Y-91658716D01*
X136770075Y-91553368D01*
X136683381Y-91463201D01*
X136580761Y-91391680D01*
X136466161Y-91341552D01*
X135515104Y-91032535D01*
X135392926Y-91005729D01*
X135267866Y-91003273D01*
X135144730Y-91025262D01*
X135028250Y-91070852D01*
X134922902Y-91138289D01*
X134832735Y-91224984D01*
X134761214Y-91327603D01*
X134711086Y-91442203D01*
X134528350Y-92004608D01*
X128569407Y-93653877D01*
X128560055Y-93654798D01*
X128497308Y-93673832D01*
X128470336Y-93681297D01*
X128461642Y-93684651D01*
X128416795Y-93698255D01*
X128391940Y-93711541D01*
X128365662Y-93721678D01*
X128326084Y-93746742D01*
X128284766Y-93768827D01*
X128262993Y-93786696D01*
X128239183Y-93801774D01*
X128205246Y-93834087D01*
X128198039Y-93840002D01*
X128178232Y-93859809D01*
X128177276Y-93860720D01*
X131427993Y-83856041D01*
X136855152Y-83856041D01*
X136855152Y-84296297D01*
X136941042Y-84728094D01*
X137109521Y-85134838D01*
X137354114Y-85500898D01*
X137665423Y-85812207D01*
X138031483Y-86056800D01*
X138438227Y-86225279D01*
X138870024Y-86311169D01*
X139310280Y-86311169D01*
X139742077Y-86225279D01*
X140148821Y-86056800D01*
X140514881Y-85812207D01*
X140826190Y-85500898D01*
X141070783Y-85134838D01*
X141239262Y-84728094D01*
X141325152Y-84296297D01*
X141325152Y-83856041D01*
X141239262Y-83424244D01*
X141070783Y-83017500D01*
X140826190Y-82651440D01*
X140750750Y-82576000D01*
X143924928Y-82576000D01*
X143928000Y-82877750D01*
X144086750Y-83036500D01*
X145161000Y-83036500D01*
X145161000Y-82099750D01*
X145415000Y-82099750D01*
X145415000Y-83036500D01*
X146489250Y-83036500D01*
X146527609Y-82998141D01*
X147454513Y-82998141D01*
X147454513Y-82148891D01*
X147708513Y-82148891D01*
X147708513Y-82998141D01*
X148807763Y-82998141D01*
X148966513Y-82839391D01*
X148969585Y-82625141D01*
X148957325Y-82500659D01*
X148921015Y-82380961D01*
X148862050Y-82270647D01*
X148782698Y-82173956D01*
X148686007Y-82094604D01*
X148575693Y-82035639D01*
X148455995Y-81999329D01*
X148331513Y-81987069D01*
X147867263Y-81990141D01*
X147708513Y-82148891D01*
X147454513Y-82148891D01*
X147295763Y-81990141D01*
X146831513Y-81987069D01*
X146707031Y-81999329D01*
X146587333Y-82035639D01*
X146477019Y-82094604D01*
X146452196Y-82114976D01*
X146367494Y-82045463D01*
X146257180Y-81986498D01*
X146137482Y-81950188D01*
X146013000Y-81937928D01*
X145573750Y-81941000D01*
X145415000Y-82099750D01*
X145161000Y-82099750D01*
X145002250Y-81941000D01*
X144563000Y-81937928D01*
X144438518Y-81950188D01*
X144318820Y-81986498D01*
X144208506Y-82045463D01*
X144111815Y-82124815D01*
X144032463Y-82221506D01*
X143973498Y-82331820D01*
X143937188Y-82451518D01*
X143924928Y-82576000D01*
X140750750Y-82576000D01*
X140514881Y-82340131D01*
X140148821Y-82095538D01*
X139742077Y-81927059D01*
X139310280Y-81841169D01*
X138870024Y-81841169D01*
X138438227Y-81927059D01*
X138031483Y-82095538D01*
X137665423Y-82340131D01*
X137354114Y-82651440D01*
X137109521Y-83017500D01*
X136941042Y-83424244D01*
X136855152Y-83856041D01*
X131427993Y-83856041D01*
X132446654Y-80720926D01*
X135529011Y-80720926D01*
X135529011Y-80959276D01*
X135575510Y-81193045D01*
X135666723Y-81413251D01*
X135799142Y-81611431D01*
X135967681Y-81779970D01*
X136165861Y-81912389D01*
X136386067Y-82003602D01*
X136619836Y-82050101D01*
X136858186Y-82050101D01*
X137091955Y-82003602D01*
X137312161Y-81912389D01*
X137510341Y-81779970D01*
X137678880Y-81611431D01*
X137811299Y-81413251D01*
X137902512Y-81193045D01*
X137949011Y-80959276D01*
X137949011Y-80720926D01*
X137902512Y-80487157D01*
X137811299Y-80266951D01*
X137678880Y-80068771D01*
X137510341Y-79900232D01*
X137312161Y-79767813D01*
X137091955Y-79676600D01*
X136858186Y-79630101D01*
X136619836Y-79630101D01*
X136386067Y-79676600D01*
X136165861Y-79767813D01*
X135967681Y-79900232D01*
X135799142Y-80068771D01*
X135666723Y-80266951D01*
X135575510Y-80487157D01*
X135529011Y-80720926D01*
X132446654Y-80720926D01*
X133746309Y-76721000D01*
X148602932Y-76721000D01*
X147643718Y-77221916D01*
G37*
%TD.AperFunction*%
%TD*%
M02*
