%TF.GenerationSoftware,KiCad,Pcbnew,5.1.9*%
%TF.CreationDate,2021-01-29T13:59:05-05:00*%
%TF.ProjectId,penroserombus_thick_40mm,70656e72-6f73-4657-926f-6d6275735f74,rev?*%
%TF.SameCoordinates,Original*%
%TF.FileFunction,Soldermask,Bot*%
%TF.FilePolarity,Negative*%
%FSLAX46Y46*%
G04 Gerber Fmt 4.6, Leading zero omitted, Abs format (unit mm)*
G04 Created by KiCad (PCBNEW 5.1.9) date 2021-01-29 13:59:05*
%MOMM*%
%LPD*%
G01*
G04 APERTURE LIST*
%ADD10C,3.200000*%
%ADD11C,1.150000*%
%ADD12C,0.100000*%
%ADD13R,1.700000X1.700000*%
%ADD14O,1.700000X1.700000*%
G04 APERTURE END LIST*
D10*
%TO.C,M3*%
X154973768Y-105938091D03*
%TD*%
%TO.C,M3*%
X139090152Y-84076169D03*
%TD*%
%TO.C,M3*%
X133795891Y-104623696D03*
%TD*%
%TO.C,M3*%
X160268028Y-85390564D03*
%TD*%
%TO.C,M3*%
X125705721Y-110501549D03*
%TD*%
%TO.C,M3*%
X168358198Y-79512711D03*
%TD*%
D11*
%TO.C,MH*%
X157324909Y-109174159D03*
%TD*%
%TO.C,MH*%
X136739011Y-80840101D03*
%TD*%
%TO.C,J1*%
G36*
G01*
X161883431Y-100009654D02*
X161883431Y-100009654D01*
G75*
G02*
X162954493Y-99463920I808398J-262664D01*
G01*
X162954493Y-99463920D01*
G75*
G02*
X163500227Y-100534982I-262664J-808398D01*
G01*
X163500227Y-100534982D01*
G75*
G02*
X162429165Y-101080716I-808398J262664D01*
G01*
X162429165Y-101080716D01*
G75*
G02*
X161883431Y-100009654I262664J808398D01*
G01*
G37*
G36*
G01*
X162668334Y-97593971D02*
X162668334Y-97593971D01*
G75*
G02*
X163739396Y-97048237I808398J-262664D01*
G01*
X163739396Y-97048237D01*
G75*
G02*
X164285130Y-98119299I-262664J-808398D01*
G01*
X164285130Y-98119299D01*
G75*
G02*
X163214068Y-98665033I-808398J262664D01*
G01*
X163214068Y-98665033D01*
G75*
G02*
X162668334Y-97593971I262664J808398D01*
G01*
G37*
D12*
G36*
X163190573Y-95986685D02*
G01*
X163715901Y-94369889D01*
X165332697Y-94895217D01*
X164807369Y-96512013D01*
X163190573Y-95986685D01*
G37*
%TD*%
D13*
%TO.C,J2*%
X140851620Y-111528260D03*
D14*
X138311620Y-111528260D03*
X135771620Y-111528260D03*
%TD*%
D13*
%TO.C,J3*%
X151943635Y-78486676D03*
D14*
X149403635Y-78486676D03*
X146863635Y-78486676D03*
%TD*%
%TO.C,J4*%
G36*
G01*
X127031397Y-100348375D02*
X127031397Y-100348375D01*
G75*
G02*
X128102459Y-99802641I808398J-262664D01*
G01*
X128102459Y-99802641D01*
G75*
G02*
X128648193Y-100873703I-262664J-808398D01*
G01*
X128648193Y-100873703D01*
G75*
G02*
X127577131Y-101419437I-808398J262664D01*
G01*
X127577131Y-101419437D01*
G75*
G02*
X127031397Y-100348375I262664J808398D01*
G01*
G37*
G36*
G01*
X127816300Y-97932692D02*
X127816300Y-97932692D01*
G75*
G02*
X128887362Y-97386958I808398J-262664D01*
G01*
X128887362Y-97386958D01*
G75*
G02*
X129433096Y-98458020I-262664J-808398D01*
G01*
X129433096Y-98458020D01*
G75*
G02*
X128362034Y-99003754I-808398J262664D01*
G01*
X128362034Y-99003754D01*
G75*
G02*
X127816300Y-97932692I262664J808398D01*
G01*
G37*
D12*
G36*
X128338539Y-96325406D02*
G01*
X128863867Y-94708610D01*
X130480663Y-95233938D01*
X129955335Y-96850734D01*
X128338539Y-96325406D01*
G37*
%TD*%
M02*
