%TF.GenerationSoftware,KiCad,Pcbnew,5.1.8*%
%TF.CreationDate,2021-01-12T11:15:40-05:00*%
%TF.ProjectId,penroserombus_thick_40mm,70656e72-6f73-4657-926f-6d6275735f74,rev?*%
%TF.SameCoordinates,Original*%
%TF.FileFunction,Paste,Top*%
%TF.FilePolarity,Positive*%
%FSLAX46Y46*%
G04 Gerber Fmt 4.6, Leading zero omitted, Abs format (unit mm)*
G04 Created by KiCad (PCBNEW 5.1.8) date 2021-01-12 11:15:40*
%MOMM*%
%LPD*%
G01*
G04 APERTURE LIST*
%ADD10R,1.600000X0.850000*%
%ADD11C,0.100000*%
G04 APERTURE END LIST*
D10*
%TO.C,D3*%
X151462300Y-84111000D03*
X151462300Y-85861000D03*
X154962300Y-84111000D03*
X154962300Y-85861000D03*
%TD*%
D11*
%TO.C,SW1*%
G36*
X149208099Y-91198574D02*
G01*
X148318180Y-91845137D01*
X147171999Y-90267554D01*
X148061918Y-89620991D01*
X149208099Y-91198574D01*
G37*
G36*
X147185557Y-92668037D02*
G01*
X146295638Y-93314600D01*
X145149457Y-91737017D01*
X146039376Y-91090454D01*
X147185557Y-92668037D01*
G37*
G36*
X145163014Y-94137500D02*
G01*
X144273095Y-94784063D01*
X143126914Y-93206480D01*
X144016833Y-92559917D01*
X145163014Y-94137500D01*
G37*
G36*
X152529086Y-95769520D02*
G01*
X151639167Y-96416083D01*
X150492986Y-94838500D01*
X151382905Y-94191937D01*
X152529086Y-95769520D01*
G37*
G36*
X150506543Y-97238983D02*
G01*
X149616624Y-97885546D01*
X148470443Y-96307963D01*
X149360362Y-95661400D01*
X150506543Y-97238983D01*
G37*
G36*
X148484001Y-98708446D02*
G01*
X147594082Y-99355009D01*
X146447901Y-97777426D01*
X147337820Y-97130863D01*
X148484001Y-98708446D01*
G37*
%TD*%
%TO.C,C1*%
G36*
G01*
X156817808Y-95548190D02*
X156524242Y-96451694D01*
G75*
G02*
X156209224Y-96612204I-237764J77254D01*
G01*
X155567260Y-96403618D01*
G75*
G02*
X155406750Y-96088600I77254J237764D01*
G01*
X155700316Y-95185096D01*
G75*
G02*
X156015334Y-95024586I237764J-77254D01*
G01*
X156657298Y-95233172D01*
G75*
G02*
X156817808Y-95548190I-77254J-237764D01*
G01*
G37*
G36*
G01*
X158791250Y-96189400D02*
X158497684Y-97092904D01*
G75*
G02*
X158182666Y-97253414I-237764J77254D01*
G01*
X157540702Y-97044828D01*
G75*
G02*
X157380192Y-96729810I77254J237764D01*
G01*
X157673758Y-95826306D01*
G75*
G02*
X157988776Y-95665796I237764J-77254D01*
G01*
X158630740Y-95874382D01*
G75*
G02*
X158791250Y-96189400I-77254J-237764D01*
G01*
G37*
%TD*%
%TO.C,C2*%
G36*
G01*
X137127000Y-106781000D02*
X136177000Y-106781000D01*
G75*
G02*
X135927000Y-106531000I0J250000D01*
G01*
X135927000Y-105856000D01*
G75*
G02*
X136177000Y-105606000I250000J0D01*
G01*
X137127000Y-105606000D01*
G75*
G02*
X137377000Y-105856000I0J-250000D01*
G01*
X137377000Y-106531000D01*
G75*
G02*
X137127000Y-106781000I-250000J0D01*
G01*
G37*
G36*
G01*
X137127000Y-104706000D02*
X136177000Y-104706000D01*
G75*
G02*
X135927000Y-104456000I0J250000D01*
G01*
X135927000Y-103781000D01*
G75*
G02*
X136177000Y-103531000I250000J0D01*
G01*
X137127000Y-103531000D01*
G75*
G02*
X137377000Y-103781000I0J-250000D01*
G01*
X137377000Y-104456000D01*
G75*
G02*
X137127000Y-104706000I-250000J0D01*
G01*
G37*
%TD*%
%TO.C,C3*%
G36*
G01*
X149319000Y-84513000D02*
X148369000Y-84513000D01*
G75*
G02*
X148119000Y-84263000I0J250000D01*
G01*
X148119000Y-83588000D01*
G75*
G02*
X148369000Y-83338000I250000J0D01*
G01*
X149319000Y-83338000D01*
G75*
G02*
X149569000Y-83588000I0J-250000D01*
G01*
X149569000Y-84263000D01*
G75*
G02*
X149319000Y-84513000I-250000J0D01*
G01*
G37*
G36*
G01*
X149319000Y-86588000D02*
X148369000Y-86588000D01*
G75*
G02*
X148119000Y-86338000I0J250000D01*
G01*
X148119000Y-85663000D01*
G75*
G02*
X148369000Y-85413000I250000J0D01*
G01*
X149319000Y-85413000D01*
G75*
G02*
X149569000Y-85663000I0J-250000D01*
G01*
X149569000Y-86338000D01*
G75*
G02*
X149319000Y-86588000I-250000J0D01*
G01*
G37*
%TD*%
%TO.C,C4*%
G36*
G01*
X135213750Y-93675600D02*
X135507316Y-92772096D01*
G75*
G02*
X135822334Y-92611586I237764J-77254D01*
G01*
X136464298Y-92820172D01*
G75*
G02*
X136624808Y-93135190I-77254J-237764D01*
G01*
X136331242Y-94038694D01*
G75*
G02*
X136016224Y-94199204I-237764J77254D01*
G01*
X135374260Y-93990618D01*
G75*
G02*
X135213750Y-93675600I77254J237764D01*
G01*
G37*
G36*
G01*
X137187192Y-94316810D02*
X137480758Y-93413306D01*
G75*
G02*
X137795776Y-93252796I237764J-77254D01*
G01*
X138437740Y-93461382D01*
G75*
G02*
X138598250Y-93776400I-77254J-237764D01*
G01*
X138304684Y-94679904D01*
G75*
G02*
X137989666Y-94840414I-237764J77254D01*
G01*
X137347702Y-94631828D01*
G75*
G02*
X137187192Y-94316810I77254J237764D01*
G01*
G37*
%TD*%
%TO.C,D1*%
G36*
X157256482Y-94512114D02*
G01*
X156448084Y-94249450D01*
X156942512Y-92727760D01*
X157750910Y-92990424D01*
X157256482Y-94512114D01*
G37*
G36*
X158920831Y-95052894D02*
G01*
X158112433Y-94790230D01*
X158606861Y-93268540D01*
X159415259Y-93531204D01*
X158920831Y-95052894D01*
G37*
G36*
X158338041Y-91183416D02*
G01*
X157529643Y-90920752D01*
X158024071Y-89399062D01*
X158832469Y-89661726D01*
X158338041Y-91183416D01*
G37*
G36*
X160002390Y-91724196D02*
G01*
X159193992Y-91461532D01*
X159688420Y-89939842D01*
X160496818Y-90202506D01*
X160002390Y-91724196D01*
G37*
%TD*%
D10*
%TO.C,D2*%
X142601620Y-105903260D03*
X142601620Y-104153260D03*
X139101620Y-105903260D03*
X139101620Y-104153260D03*
%TD*%
D11*
%TO.C,D4*%
G36*
X134061529Y-98290064D02*
G01*
X134869927Y-98552728D01*
X134375499Y-100074418D01*
X133567101Y-99811754D01*
X134061529Y-98290064D01*
G37*
G36*
X135725878Y-98830844D02*
G01*
X136534276Y-99093508D01*
X136039848Y-100615198D01*
X135231450Y-100352534D01*
X135725878Y-98830844D01*
G37*
G36*
X135143088Y-94961366D02*
G01*
X135951486Y-95224030D01*
X135457058Y-96745720D01*
X134648660Y-96483056D01*
X135143088Y-94961366D01*
G37*
G36*
X136807437Y-95502146D02*
G01*
X137615835Y-95764810D01*
X137121407Y-97286500D01*
X136313009Y-97023836D01*
X136807437Y-95502146D01*
G37*
%TD*%
M02*
