%TF.GenerationSoftware,KiCad,Pcbnew,5.1.8*%
%TF.CreationDate,2021-01-22T11:52:35-05:00*%
%TF.ProjectId,penrosedart,70656e72-6f73-4656-9461-72742e6b6963,rev?*%
%TF.SameCoordinates,Original*%
%TF.FileFunction,Copper,L1,Top*%
%TF.FilePolarity,Positive*%
%FSLAX46Y46*%
G04 Gerber Fmt 4.6, Leading zero omitted, Abs format (unit mm)*
G04 Created by KiCad (PCBNEW 5.1.8) date 2021-01-22 11:52:35*
%MOMM*%
%LPD*%
G01*
G04 APERTURE LIST*
%TA.AperFunction,ComponentPad*%
%ADD10C,0.100000*%
%TD*%
%TA.AperFunction,SMDPad,CuDef*%
%ADD11C,0.100000*%
%TD*%
%TA.AperFunction,SMDPad,CuDef*%
%ADD12R,1.500000X1.000000*%
%TD*%
%TA.AperFunction,ComponentPad*%
%ADD13O,1.700000X1.700000*%
%TD*%
%TA.AperFunction,ComponentPad*%
%ADD14R,1.700000X1.700000*%
%TD*%
%TA.AperFunction,ViaPad*%
%ADD15C,0.800000*%
%TD*%
%TA.AperFunction,Conductor*%
%ADD16C,1.000000*%
%TD*%
%TA.AperFunction,Conductor*%
%ADD17C,0.250000*%
%TD*%
%TA.AperFunction,Conductor*%
%ADD18C,0.254000*%
%TD*%
%TA.AperFunction,Conductor*%
%ADD19C,0.100000*%
%TD*%
G04 APERTURE END LIST*
%TO.P,J1,3*%
%TO.N,Net-(D1-Pad2)*%
%TA.AperFunction,ComponentPad*%
G36*
G01*
X135750333Y-77567649D02*
X135750333Y-77567649D01*
G75*
G02*
X135938380Y-78754930I-499617J-687664D01*
G01*
X135938380Y-78754930D01*
G75*
G02*
X134751099Y-78942977I-687664J499617D01*
G01*
X134751099Y-78942977D01*
G75*
G02*
X134563052Y-77755696I499617J687664D01*
G01*
X134563052Y-77755696D01*
G75*
G02*
X135750333Y-77567649I687664J-499617D01*
G01*
G37*
%TD.AperFunction*%
%TO.P,J1,2*%
%TO.N,VCC*%
%TA.AperFunction,ComponentPad*%
G36*
G01*
X137805236Y-79060623D02*
X137805236Y-79060623D01*
G75*
G02*
X137993283Y-80247904I-499617J-687664D01*
G01*
X137993283Y-80247904D01*
G75*
G02*
X136806002Y-80435951I-687664J499617D01*
G01*
X136806002Y-80435951D01*
G75*
G02*
X136617955Y-79248670I499617J687664D01*
G01*
X136617955Y-79248670D01*
G75*
G02*
X137805236Y-79060623I687664J-499617D01*
G01*
G37*
%TD.AperFunction*%
%TA.AperFunction,ComponentPad*%
D10*
%TO.P,J1,1*%
%TO.N,GND*%
G36*
X139172475Y-80053980D02*
G01*
X140547804Y-81053215D01*
X139548569Y-82428544D01*
X138173240Y-81429309D01*
X139172475Y-80053980D01*
G37*
%TD.AperFunction*%
%TD*%
%TO.P,C1,2*%
%TO.N,VCC*%
%TA.AperFunction,SMDPad,CuDef*%
G36*
G01*
X143295187Y-81652340D02*
X142526620Y-81093944D01*
G75*
G02*
X142471312Y-80744744I146946J202254D01*
G01*
X142868067Y-80198658D01*
G75*
G02*
X143217267Y-80143350I202254J-146946D01*
G01*
X143985834Y-80701746D01*
G75*
G02*
X144041142Y-81050946I-146946J-202254D01*
G01*
X143644387Y-81597032D01*
G75*
G02*
X143295187Y-81652340I-202254J146946D01*
G01*
G37*
%TD.AperFunction*%
%TO.P,C1,1*%
%TO.N,GND*%
%TA.AperFunction,SMDPad,CuDef*%
G36*
G01*
X142075533Y-83331050D02*
X141306966Y-82772654D01*
G75*
G02*
X141251658Y-82423454I146946J202254D01*
G01*
X141648413Y-81877368D01*
G75*
G02*
X141997613Y-81822060I202254J-146946D01*
G01*
X142766180Y-82380456D01*
G75*
G02*
X142821488Y-82729656I-146946J-202254D01*
G01*
X142424733Y-83275742D01*
G75*
G02*
X142075533Y-83331050I-202254J146946D01*
G01*
G37*
%TD.AperFunction*%
%TD*%
%TO.P,C2,1*%
%TO.N,GND*%
%TA.AperFunction,SMDPad,CuDef*%
G36*
G01*
X166817650Y-91414200D02*
X166524084Y-92317704D01*
G75*
G02*
X166209066Y-92478214I-237764J77254D01*
G01*
X165567102Y-92269628D01*
G75*
G02*
X165406592Y-91954610I77254J237764D01*
G01*
X165700158Y-91051106D01*
G75*
G02*
X166015176Y-90890596I237764J-77254D01*
G01*
X166657140Y-91099182D01*
G75*
G02*
X166817650Y-91414200I-77254J-237764D01*
G01*
G37*
%TD.AperFunction*%
%TO.P,C2,2*%
%TO.N,VCC*%
%TA.AperFunction,SMDPad,CuDef*%
G36*
G01*
X164844208Y-90772990D02*
X164550642Y-91676494D01*
G75*
G02*
X164235624Y-91837004I-237764J77254D01*
G01*
X163593660Y-91628418D01*
G75*
G02*
X163433150Y-91313400I77254J237764D01*
G01*
X163726716Y-90409896D01*
G75*
G02*
X164041734Y-90249386I237764J-77254D01*
G01*
X164683698Y-90457972D01*
G75*
G02*
X164844208Y-90772990I-77254J-237764D01*
G01*
G37*
%TD.AperFunction*%
%TD*%
%TO.P,C3,2*%
%TO.N,VCC*%
%TA.AperFunction,SMDPad,CuDef*%
G36*
G01*
X155870358Y-94267294D02*
X155576792Y-93363790D01*
G75*
G02*
X155737302Y-93048772I237764J77254D01*
G01*
X156379266Y-92840186D01*
G75*
G02*
X156694284Y-93000696I77254J-237764D01*
G01*
X156987850Y-93904200D01*
G75*
G02*
X156827340Y-94219218I-237764J-77254D01*
G01*
X156185376Y-94427804D01*
G75*
G02*
X155870358Y-94267294I-77254J237764D01*
G01*
G37*
%TD.AperFunction*%
%TO.P,C3,1*%
%TO.N,GND*%
%TA.AperFunction,SMDPad,CuDef*%
G36*
G01*
X153896916Y-94908504D02*
X153603350Y-94005000D01*
G75*
G02*
X153763860Y-93689982I237764J77254D01*
G01*
X154405824Y-93481396D01*
G75*
G02*
X154720842Y-93641906I77254J-237764D01*
G01*
X155014408Y-94545410D01*
G75*
G02*
X154853898Y-94860428I-237764J-77254D01*
G01*
X154211934Y-95069014D01*
G75*
G02*
X153896916Y-94908504I-77254J237764D01*
G01*
G37*
%TD.AperFunction*%
%TD*%
%TO.P,C4,1*%
%TO.N,GND*%
%TA.AperFunction,SMDPad,CuDef*%
G36*
G01*
X155923000Y-78968000D02*
X154973000Y-78968000D01*
G75*
G02*
X154723000Y-78718000I0J250000D01*
G01*
X154723000Y-78043000D01*
G75*
G02*
X154973000Y-77793000I250000J0D01*
G01*
X155923000Y-77793000D01*
G75*
G02*
X156173000Y-78043000I0J-250000D01*
G01*
X156173000Y-78718000D01*
G75*
G02*
X155923000Y-78968000I-250000J0D01*
G01*
G37*
%TD.AperFunction*%
%TO.P,C4,2*%
%TO.N,VCC*%
%TA.AperFunction,SMDPad,CuDef*%
G36*
G01*
X155923000Y-76893000D02*
X154973000Y-76893000D01*
G75*
G02*
X154723000Y-76643000I0J250000D01*
G01*
X154723000Y-75968000D01*
G75*
G02*
X154973000Y-75718000I250000J0D01*
G01*
X155923000Y-75718000D01*
G75*
G02*
X156173000Y-75968000I0J-250000D01*
G01*
X156173000Y-76643000D01*
G75*
G02*
X155923000Y-76893000I-250000J0D01*
G01*
G37*
%TD.AperFunction*%
%TD*%
%TA.AperFunction,SMDPad,CuDef*%
D11*
%TO.P,D1,3*%
%TO.N,GND*%
G36*
X147949478Y-87799901D02*
G01*
X147361693Y-88608918D01*
X146148168Y-87727241D01*
X146735953Y-86918224D01*
X147949478Y-87799901D01*
G37*
%TD.AperFunction*%
%TA.AperFunction,SMDPad,CuDef*%
%TO.P,D1,4*%
%TO.N,Net-(D1-Pad4)*%
G36*
X149830391Y-85211047D02*
G01*
X149242606Y-86020064D01*
X148029081Y-85138387D01*
X148616866Y-84329370D01*
X149830391Y-85211047D01*
G37*
%TD.AperFunction*%
%TA.AperFunction,SMDPad,CuDef*%
%TO.P,D1,2*%
%TO.N,Net-(D1-Pad2)*%
G36*
X143985295Y-84919753D02*
G01*
X143397510Y-85728770D01*
X142183985Y-84847093D01*
X142771770Y-84038076D01*
X143985295Y-84919753D01*
G37*
%TD.AperFunction*%
%TA.AperFunction,SMDPad,CuDef*%
%TO.P,D1,1*%
%TO.N,VCC*%
G36*
X145866208Y-82330899D02*
G01*
X145278423Y-83139916D01*
X144064898Y-82258239D01*
X144652683Y-81449222D01*
X145866208Y-82330899D01*
G37*
%TD.AperFunction*%
%TD*%
%TA.AperFunction,SMDPad,CuDef*%
%TO.P,D2,1*%
%TO.N,VCC*%
G36*
X164768742Y-88306785D02*
G01*
X165719799Y-88615802D01*
X165256274Y-90042387D01*
X164305217Y-89733370D01*
X164768742Y-88306785D01*
G37*
%TD.AperFunction*%
%TA.AperFunction,SMDPad,CuDef*%
%TO.P,D2,2*%
%TO.N,Net-(D2-Pad2)*%
G36*
X167812123Y-89295640D02*
G01*
X168763180Y-89604657D01*
X168299655Y-91031242D01*
X167348598Y-90722225D01*
X167812123Y-89295640D01*
G37*
%TD.AperFunction*%
%TA.AperFunction,SMDPad,CuDef*%
%TO.P,D2,4*%
%TO.N,Net-(D2-Pad4)*%
G36*
X166282925Y-83646608D02*
G01*
X167233982Y-83955625D01*
X166770457Y-85382210D01*
X165819400Y-85073193D01*
X166282925Y-83646608D01*
G37*
%TD.AperFunction*%
%TA.AperFunction,SMDPad,CuDef*%
%TO.P,D2,3*%
%TO.N,GND*%
G36*
X169326306Y-84635463D02*
G01*
X170277363Y-84944480D01*
X169813838Y-86371065D01*
X168862781Y-86062048D01*
X169326306Y-84635463D01*
G37*
%TD.AperFunction*%
%TD*%
%TA.AperFunction,SMDPad,CuDef*%
%TO.P,D3,1*%
%TO.N,VCC*%
G36*
X157461615Y-96482885D02*
G01*
X156510558Y-96791902D01*
X156047033Y-95365317D01*
X156998090Y-95056300D01*
X157461615Y-96482885D01*
G37*
%TD.AperFunction*%
%TA.AperFunction,SMDPad,CuDef*%
%TO.P,D3,2*%
%TO.N,Net-(D3-Pad2)*%
G36*
X154418234Y-97471740D02*
G01*
X153467177Y-97780757D01*
X153003652Y-96354172D01*
X153954709Y-96045155D01*
X154418234Y-97471740D01*
G37*
%TD.AperFunction*%
%TA.AperFunction,SMDPad,CuDef*%
%TO.P,D3,4*%
%TO.N,Net-(D3-Pad4)*%
G36*
X158975798Y-101143062D02*
G01*
X158024741Y-101452079D01*
X157561216Y-100025494D01*
X158512273Y-99716477D01*
X158975798Y-101143062D01*
G37*
%TD.AperFunction*%
%TA.AperFunction,SMDPad,CuDef*%
%TO.P,D3,3*%
%TO.N,GND*%
G36*
X155932417Y-102131917D02*
G01*
X154981360Y-102440934D01*
X154517835Y-101014349D01*
X155468892Y-100705332D01*
X155932417Y-102131917D01*
G37*
%TD.AperFunction*%
%TD*%
D12*
%TO.P,D4,3*%
%TO.N,GND*%
X162800826Y-79406432D03*
%TO.P,D4,4*%
%TO.N,Net-(D4-Pad4)*%
X162800826Y-76206432D03*
%TO.P,D4,2*%
%TO.N,Net-(D4-Pad2)*%
X157900826Y-79406432D03*
%TO.P,D4,1*%
%TO.N,VCC*%
X157900826Y-76206432D03*
%TD*%
%TA.AperFunction,ComponentPad*%
D10*
%TO.P,J2,1*%
%TO.N,GND*%
G36*
X164212856Y-97707416D02*
G01*
X164738184Y-96090620D01*
X166354980Y-96615948D01*
X165829652Y-98232744D01*
X164212856Y-97707416D01*
G37*
%TD.AperFunction*%
%TO.P,J2,2*%
%TO.N,VCC*%
%TA.AperFunction,ComponentPad*%
G36*
G01*
X163690617Y-99314702D02*
X163690617Y-99314702D01*
G75*
G02*
X164761679Y-98768968I808398J-262664D01*
G01*
X164761679Y-98768968D01*
G75*
G02*
X165307413Y-99840030I-262664J-808398D01*
G01*
X165307413Y-99840030D01*
G75*
G02*
X164236351Y-100385764I-808398J262664D01*
G01*
X164236351Y-100385764D01*
G75*
G02*
X163690617Y-99314702I262664J808398D01*
G01*
G37*
%TD.AperFunction*%
%TO.P,J2,3*%
%TO.N,Net-(D2-Pad2)*%
%TA.AperFunction,ComponentPad*%
G36*
G01*
X162905714Y-101730385D02*
X162905714Y-101730385D01*
G75*
G02*
X163976776Y-101184651I808398J-262664D01*
G01*
X163976776Y-101184651D01*
G75*
G02*
X164522510Y-102255713I-262664J-808398D01*
G01*
X164522510Y-102255713D01*
G75*
G02*
X163451448Y-102801447I-808398J262664D01*
G01*
X163451448Y-102801447D01*
G75*
G02*
X162905714Y-101730385I262664J808398D01*
G01*
G37*
%TD.AperFunction*%
%TD*%
%TA.AperFunction,ComponentPad*%
%TO.P,J3,1*%
%TO.N,GND*%
G36*
X156993925Y-107312459D02*
G01*
X156468597Y-105695663D01*
X158085393Y-105170335D01*
X158610721Y-106787131D01*
X156993925Y-107312459D01*
G37*
%TD.AperFunction*%
%TO.P,J3,2*%
%TO.N,VCC*%
%TA.AperFunction,ComponentPad*%
G36*
G01*
X157516164Y-108919745D02*
X157516164Y-108919745D01*
G75*
G02*
X158061898Y-107848683I808398J262664D01*
G01*
X158061898Y-107848683D01*
G75*
G02*
X159132960Y-108394417I262664J-808398D01*
G01*
X159132960Y-108394417D01*
G75*
G02*
X158587226Y-109465479I-808398J-262664D01*
G01*
X158587226Y-109465479D01*
G75*
G02*
X157516164Y-108919745I-262664J808398D01*
G01*
G37*
%TD.AperFunction*%
%TO.P,J3,3*%
%TO.N,Net-(D3-Pad4)*%
%TA.AperFunction,ComponentPad*%
G36*
G01*
X158301067Y-111335428D02*
X158301067Y-111335428D01*
G75*
G02*
X158846801Y-110264366I808398J262664D01*
G01*
X158846801Y-110264366D01*
G75*
G02*
X159917863Y-110810100I262664J-808398D01*
G01*
X159917863Y-110810100D01*
G75*
G02*
X159372129Y-111881162I-808398J-262664D01*
G01*
X159372129Y-111881162D01*
G75*
G02*
X158301067Y-111335428I-262664J808398D01*
G01*
G37*
%TD.AperFunction*%
%TD*%
D13*
%TO.P,J4,3*%
%TO.N,Net-(D4-Pad4)*%
X145310085Y-76679340D03*
%TO.P,J4,2*%
%TO.N,VCC*%
X147850085Y-76679340D03*
D14*
%TO.P,J4,1*%
%TO.N,GND*%
X150390085Y-76679340D03*
%TD*%
%TA.AperFunction,SMDPad,CuDef*%
D11*
%TO.P,JP1,2*%
%TO.N,Net-(D2-Pad4)*%
G36*
X160618670Y-91555345D02*
G01*
X161500347Y-92768870D01*
X160691330Y-93356655D01*
X159809653Y-92143130D01*
X160618670Y-91555345D01*
G37*
%TD.AperFunction*%
%TA.AperFunction,SMDPad,CuDef*%
%TO.P,JP1,3*%
%TO.N,Net-(D3-Pad2)*%
G36*
X160043763Y-93826397D02*
G01*
X160023915Y-93840817D01*
X159981582Y-93865628D01*
X159937022Y-93886171D01*
X159890662Y-93902247D01*
X159842950Y-93913702D01*
X159794346Y-93920424D01*
X159745316Y-93922352D01*
X159696334Y-93919463D01*
X159647869Y-93911786D01*
X159600392Y-93899398D01*
X159554357Y-93882414D01*
X159510208Y-93861001D01*
X159468371Y-93835363D01*
X159429248Y-93805748D01*
X159393217Y-93772440D01*
X159360624Y-93735762D01*
X159346203Y-93715914D01*
X159345716Y-93716268D01*
X159051823Y-93311759D01*
X159052310Y-93311406D01*
X159037889Y-93291557D01*
X159013079Y-93249225D01*
X158992535Y-93204665D01*
X158976460Y-93158305D01*
X158965004Y-93110593D01*
X158958283Y-93061988D01*
X158956355Y-93012958D01*
X158959244Y-92963976D01*
X158966920Y-92915511D01*
X158979309Y-92868034D01*
X158996293Y-92821999D01*
X159017706Y-92777851D01*
X159043344Y-92736014D01*
X159072959Y-92696891D01*
X159106267Y-92660860D01*
X159142944Y-92628266D01*
X159162793Y-92613845D01*
X159162439Y-92613358D01*
X159607398Y-92290076D01*
X160489076Y-93503602D01*
X160044117Y-93826884D01*
X160043763Y-93826397D01*
G37*
%TD.AperFunction*%
%TA.AperFunction,SMDPad,CuDef*%
%TO.P,JP1,1*%
%TO.N,Net-(D4-Pad2)*%
G36*
X160820924Y-91408398D02*
G01*
X161265883Y-91085116D01*
X161266237Y-91085603D01*
X161286085Y-91071183D01*
X161328418Y-91046372D01*
X161372978Y-91025829D01*
X161419338Y-91009753D01*
X161467050Y-90998298D01*
X161515654Y-90991576D01*
X161564684Y-90989648D01*
X161613666Y-90992537D01*
X161662131Y-91000214D01*
X161709608Y-91012602D01*
X161755643Y-91029586D01*
X161799792Y-91050999D01*
X161841629Y-91076637D01*
X161880752Y-91106252D01*
X161916783Y-91139560D01*
X161949376Y-91176238D01*
X161963797Y-91196086D01*
X161964284Y-91195732D01*
X162258177Y-91600241D01*
X162257690Y-91600594D01*
X162272111Y-91620443D01*
X162296921Y-91662775D01*
X162317465Y-91707335D01*
X162333540Y-91753695D01*
X162344996Y-91801407D01*
X162351717Y-91850012D01*
X162353645Y-91899042D01*
X162350756Y-91948024D01*
X162343080Y-91996489D01*
X162330691Y-92043966D01*
X162313707Y-92090001D01*
X162292294Y-92134149D01*
X162266656Y-92175986D01*
X162237041Y-92215109D01*
X162203733Y-92251140D01*
X162167056Y-92283734D01*
X162147207Y-92298155D01*
X162147561Y-92298642D01*
X161702602Y-92621924D01*
X160820924Y-91408398D01*
G37*
%TD.AperFunction*%
%TD*%
%TA.AperFunction,SMDPad,CuDef*%
%TO.P,JP2,1*%
%TO.N,Net-(D3-Pad2)*%
G36*
X153835924Y-81756398D02*
G01*
X154280883Y-81433116D01*
X154281237Y-81433603D01*
X154301085Y-81419183D01*
X154343418Y-81394372D01*
X154387978Y-81373829D01*
X154434338Y-81357753D01*
X154482050Y-81346298D01*
X154530654Y-81339576D01*
X154579684Y-81337648D01*
X154628666Y-81340537D01*
X154677131Y-81348214D01*
X154724608Y-81360602D01*
X154770643Y-81377586D01*
X154814792Y-81398999D01*
X154856629Y-81424637D01*
X154895752Y-81454252D01*
X154931783Y-81487560D01*
X154964376Y-81524238D01*
X154978797Y-81544086D01*
X154979284Y-81543732D01*
X155273177Y-81948241D01*
X155272690Y-81948594D01*
X155287111Y-81968443D01*
X155311921Y-82010775D01*
X155332465Y-82055335D01*
X155348540Y-82101695D01*
X155359996Y-82149407D01*
X155366717Y-82198012D01*
X155368645Y-82247042D01*
X155365756Y-82296024D01*
X155358080Y-82344489D01*
X155345691Y-82391966D01*
X155328707Y-82438001D01*
X155307294Y-82482149D01*
X155281656Y-82523986D01*
X155252041Y-82563109D01*
X155218733Y-82599140D01*
X155182056Y-82631734D01*
X155162207Y-82646155D01*
X155162561Y-82646642D01*
X154717602Y-82969924D01*
X153835924Y-81756398D01*
G37*
%TD.AperFunction*%
%TA.AperFunction,SMDPad,CuDef*%
%TO.P,JP2,3*%
%TO.N,Net-(D4-Pad2)*%
G36*
X153058763Y-84174397D02*
G01*
X153038915Y-84188817D01*
X152996582Y-84213628D01*
X152952022Y-84234171D01*
X152905662Y-84250247D01*
X152857950Y-84261702D01*
X152809346Y-84268424D01*
X152760316Y-84270352D01*
X152711334Y-84267463D01*
X152662869Y-84259786D01*
X152615392Y-84247398D01*
X152569357Y-84230414D01*
X152525208Y-84209001D01*
X152483371Y-84183363D01*
X152444248Y-84153748D01*
X152408217Y-84120440D01*
X152375624Y-84083762D01*
X152361203Y-84063914D01*
X152360716Y-84064268D01*
X152066823Y-83659759D01*
X152067310Y-83659406D01*
X152052889Y-83639557D01*
X152028079Y-83597225D01*
X152007535Y-83552665D01*
X151991460Y-83506305D01*
X151980004Y-83458593D01*
X151973283Y-83409988D01*
X151971355Y-83360958D01*
X151974244Y-83311976D01*
X151981920Y-83263511D01*
X151994309Y-83216034D01*
X152011293Y-83169999D01*
X152032706Y-83125851D01*
X152058344Y-83084014D01*
X152087959Y-83044891D01*
X152121267Y-83008860D01*
X152157944Y-82976266D01*
X152177793Y-82961845D01*
X152177439Y-82961358D01*
X152622398Y-82638076D01*
X153504076Y-83851602D01*
X153059117Y-84174884D01*
X153058763Y-84174397D01*
G37*
%TD.AperFunction*%
%TA.AperFunction,SMDPad,CuDef*%
%TO.P,JP2,2*%
%TO.N,Net-(D1-Pad4)*%
G36*
X153633670Y-81903345D02*
G01*
X154515347Y-83116870D01*
X153706330Y-83704655D01*
X152824653Y-82491130D01*
X153633670Y-81903345D01*
G37*
%TD.AperFunction*%
%TD*%
%TA.AperFunction,SMDPad,CuDef*%
%TO.P,SW1,1*%
%TO.N,Net-(D3-Pad2)*%
G36*
X157458999Y-82647554D02*
G01*
X158348918Y-82000991D01*
X159495099Y-83578574D01*
X158605180Y-84225137D01*
X157458999Y-82647554D01*
G37*
%TD.AperFunction*%
%TA.AperFunction,SMDPad,CuDef*%
%TO.P,SW1,2*%
%TO.N,Net-(D1-Pad4)*%
G36*
X155436457Y-84117017D02*
G01*
X156326376Y-83470454D01*
X157472557Y-85048037D01*
X156582638Y-85694600D01*
X155436457Y-84117017D01*
G37*
%TD.AperFunction*%
%TA.AperFunction,SMDPad,CuDef*%
%TO.P,SW1,3*%
%TO.N,Net-(D4-Pad2)*%
G36*
X153413914Y-85586480D02*
G01*
X154303833Y-84939917D01*
X155450014Y-86517500D01*
X154560095Y-87164063D01*
X153413914Y-85586480D01*
G37*
%TD.AperFunction*%
%TA.AperFunction,SMDPad,CuDef*%
%TO.P,SW1,4*%
G36*
X160779986Y-87218500D02*
G01*
X161669905Y-86571937D01*
X162816086Y-88149520D01*
X161926167Y-88796083D01*
X160779986Y-87218500D01*
G37*
%TD.AperFunction*%
%TA.AperFunction,SMDPad,CuDef*%
%TO.P,SW1,5*%
%TO.N,Net-(D2-Pad4)*%
G36*
X158757443Y-88687963D02*
G01*
X159647362Y-88041400D01*
X160793543Y-89618983D01*
X159903624Y-90265546D01*
X158757443Y-88687963D01*
G37*
%TD.AperFunction*%
%TA.AperFunction,SMDPad,CuDef*%
%TO.P,SW1,6*%
%TO.N,Net-(D3-Pad2)*%
G36*
X156734901Y-90157426D02*
G01*
X157624820Y-89510863D01*
X158771001Y-91088446D01*
X157881082Y-91735009D01*
X156734901Y-90157426D01*
G37*
%TD.AperFunction*%
%TD*%
D15*
%TO.N,GND*%
X166624000Y-90170000D03*
X169164000Y-87122000D03*
X161163000Y-79502000D03*
X157064483Y-78095883D03*
X143408400Y-83439000D03*
X145770600Y-86868000D03*
X154965400Y-95783400D03*
X154736800Y-100050600D03*
%TO.N,Net-(D3-Pad2)*%
X156004938Y-90788949D03*
X153426405Y-92826595D03*
%TO.N,Net-(D4-Pad2)*%
X159258000Y-87122000D03*
X155829000Y-86995000D03*
%TD*%
D16*
%TO.N,VCC*%
X164240279Y-91119395D02*
X165012508Y-89174586D01*
X148980084Y-78229341D02*
X152418159Y-78229341D01*
X163512846Y-92609137D02*
X164240279Y-91881704D01*
X164240279Y-91881704D02*
X164240279Y-91119395D01*
X163512846Y-98591197D02*
X163512846Y-92609137D01*
X164499015Y-99577366D02*
X163512846Y-98591197D01*
X139382842Y-78898288D02*
X139978365Y-78898288D01*
X154723000Y-76305500D02*
X155448000Y-76305500D01*
X152799159Y-78229341D02*
X154723000Y-76305500D01*
X148198005Y-78229341D02*
X152799159Y-78229341D01*
X147850085Y-77881421D02*
X148198005Y-78229341D01*
X157801758Y-76305500D02*
X157900826Y-76206432D01*
X155448000Y-76305500D02*
X157801758Y-76305500D01*
X147850085Y-77881421D02*
X147850085Y-76679340D01*
X146833218Y-78898288D02*
X147850085Y-77881421D01*
X163422874Y-99577366D02*
X164499015Y-99577366D01*
X157900826Y-76206432D02*
X159799083Y-76206432D01*
X159799083Y-76206432D02*
X161449095Y-77856444D01*
X164078556Y-77856444D02*
X167933992Y-83665670D01*
X161449095Y-77856444D02*
X164078556Y-77856444D01*
X167933992Y-84694408D02*
X167238247Y-86948847D01*
X167238247Y-86948847D02*
X165012508Y-89174586D01*
X167933992Y-83665670D02*
X167933992Y-84694408D01*
X156282321Y-93633995D02*
X156754324Y-95924101D01*
X156754324Y-95924101D02*
X164499015Y-99577366D01*
X159760742Y-108422982D02*
X159760742Y-103113558D01*
X159526643Y-108657081D02*
X159760742Y-108422982D01*
X158324562Y-108657081D02*
X159526643Y-108657081D01*
X163296934Y-99577366D02*
X164499015Y-99577366D01*
X159760742Y-103113558D02*
X163296934Y-99577366D01*
X143256227Y-80897845D02*
X144965553Y-82294569D01*
X137305619Y-79748287D02*
X139382842Y-78898288D01*
X143256227Y-80897845D02*
X142372888Y-78898288D01*
X142372888Y-78898288D02*
X146833218Y-78898288D01*
X139382842Y-78898288D02*
X142372888Y-78898288D01*
X155789455Y-93633995D02*
X156282321Y-93633995D01*
X152970527Y-91706209D02*
X153861669Y-91706209D01*
X153861669Y-91706209D02*
X155789455Y-93633995D01*
X144965553Y-82294569D02*
X146900659Y-85636341D01*
X146900659Y-85636341D02*
X152970527Y-91706209D01*
D17*
%TO.N,GND*%
X152298400Y-95554800D02*
X153187400Y-98628200D01*
X162800826Y-79271430D02*
X162800826Y-79406432D01*
X155448000Y-78380500D02*
X157064483Y-78095883D01*
X157734000Y-77978000D02*
X162800826Y-79406432D01*
X165674016Y-97551780D02*
X165283918Y-97161682D01*
X162306000Y-101981000D02*
X162691020Y-101350020D01*
X163222992Y-100818048D02*
X164997335Y-100818048D01*
X165674016Y-100141367D02*
X165674016Y-97551780D01*
X162691020Y-101350020D02*
X163222992Y-100818048D01*
X163554001Y-103940201D02*
X162394900Y-102781100D01*
X162394900Y-102781100D02*
X162306000Y-101981000D01*
X164997335Y-100818048D02*
X165674016Y-100141367D01*
X169570072Y-84683928D02*
X169570072Y-85503264D01*
X171831000Y-78232000D02*
X171831000Y-82423000D01*
X156172739Y-75381431D02*
X160140823Y-75381431D01*
X156161180Y-75392990D02*
X156172739Y-75381431D01*
X160140823Y-75381431D02*
X161790825Y-77031433D01*
X151676435Y-75392990D02*
X156161180Y-75392990D01*
X171831000Y-82423000D02*
X169570072Y-84683928D01*
X150390085Y-76679340D02*
X151676435Y-75392990D01*
X164153433Y-77031433D02*
X165227000Y-76200000D01*
X161790825Y-77031433D02*
X164153433Y-77031433D01*
X165227000Y-76200000D02*
X169672000Y-76200000D01*
X169672000Y-76200000D02*
X171831000Y-78232000D01*
X147286084Y-75504339D02*
X146675084Y-76115339D01*
X149215084Y-75504339D02*
X147286084Y-75504339D01*
X146675084Y-76115339D02*
X146675084Y-77053343D01*
X146675084Y-77053343D02*
X145874086Y-77854341D01*
X142224742Y-75332999D02*
X141859000Y-75057000D01*
X145874086Y-77854341D02*
X144746084Y-77854341D01*
X150390085Y-76679340D02*
X149215084Y-75504339D01*
X144746084Y-77854341D02*
X142224742Y-75332999D01*
X141859000Y-75057000D02*
X139065000Y-75057000D01*
X148776133Y-86345074D02*
X150535744Y-86345074D01*
X147704071Y-85273012D02*
X148776133Y-86345074D01*
X147704071Y-84782530D02*
X147704071Y-85273012D01*
X154106101Y-78380500D02*
X147704071Y-84782530D01*
X155448000Y-78380500D02*
X154106101Y-78380500D01*
X158653270Y-94462600D02*
X161493200Y-94462600D01*
X157539659Y-106241397D02*
X156032200Y-106756200D01*
X156032200Y-106756200D02*
X157429200Y-111810800D01*
X157429200Y-111810800D02*
X158394400Y-112699800D01*
X156377535Y-92186865D02*
X157759400Y-92557600D01*
X150535744Y-86345074D02*
X156377535Y-92186865D01*
X157759400Y-92557600D02*
X158653270Y-94462600D01*
X157064483Y-78095883D02*
X157734000Y-77978000D01*
%TO.N,Net-(D1-Pad4)*%
X153670000Y-82804000D02*
X156454507Y-84582527D01*
X153179066Y-82313066D02*
X153670000Y-82804000D01*
X151791387Y-82313066D02*
X153179066Y-82313066D01*
X148929736Y-85174717D02*
X151791387Y-82313066D01*
%TO.N,Net-(D1-Pad2)*%
X135250716Y-78255313D02*
X136042400Y-80518000D01*
X136042400Y-80518000D02*
X141579600Y-84810600D01*
X141579600Y-84810600D02*
X143084640Y-84883423D01*
%TO.N,Net-(D2-Pad2)*%
X163714112Y-101993049D02*
X166116000Y-101092000D01*
X166116000Y-101092000D02*
X168055889Y-90163441D01*
%TO.N,Net-(D2-Pad4)*%
X159775493Y-89153473D02*
X160655000Y-92456000D01*
X163198275Y-87842825D02*
X166526691Y-84514409D01*
X161191940Y-92992940D02*
X161920377Y-92992940D01*
X160655000Y-92456000D02*
X161191940Y-92992940D01*
X162762659Y-92150659D02*
X163198275Y-87842825D01*
X161920377Y-92992940D02*
X162762659Y-92150659D01*
%TO.N,Net-(D3-Pad2)*%
X154721722Y-82039879D02*
X158477049Y-83113064D01*
X157752951Y-90622936D02*
X159603278Y-93220121D01*
X158477049Y-83113064D02*
X157752951Y-90622936D01*
X156170951Y-90622936D02*
X156004938Y-90788949D01*
X153115740Y-93137260D02*
X153426405Y-92826595D01*
X153115740Y-96317753D02*
X153115740Y-93137260D01*
X157752951Y-90622936D02*
X156170951Y-90622936D01*
X153710943Y-96912956D02*
X153115740Y-96317753D01*
%TO.N,Net-(D3-Pad4)*%
X158935731Y-101251502D02*
X158935731Y-107027669D01*
X158268507Y-100584278D02*
X158935731Y-101251502D01*
X157907384Y-111072764D02*
X159109465Y-111072764D01*
X157760561Y-107482080D02*
X157149561Y-108093080D01*
X158481320Y-107482080D02*
X157760561Y-107482080D01*
X158935731Y-107027669D02*
X158481320Y-107482080D01*
X157907384Y-111072764D02*
X157149561Y-108991161D01*
X157149561Y-108093080D02*
X157149561Y-108991161D01*
%TO.N,Net-(D4-Pad4)*%
X145310085Y-76679340D02*
X147255434Y-74733991D01*
X147255434Y-74733991D02*
X162078385Y-74733991D01*
X162078385Y-74733991D02*
X162800826Y-75456432D01*
X162800826Y-75456432D02*
X162800826Y-76206432D01*
%TO.N,Net-(D4-Pad2)*%
X152618278Y-83568121D02*
X154431964Y-86051990D01*
X161798036Y-87684010D02*
X161706722Y-91691879D01*
X161798036Y-83303642D02*
X161798036Y-87684010D01*
X157900826Y-79406432D02*
X161798036Y-83303642D01*
X159258000Y-87122000D02*
X161798036Y-87684010D01*
X154431964Y-86051990D02*
X155829000Y-86995000D01*
%TD*%
D18*
%TO.N,GND*%
X159935449Y-119319606D02*
X157454142Y-111687119D01*
X157455862Y-111688661D01*
X157470212Y-111697155D01*
X157483108Y-111707738D01*
X157534532Y-111735225D01*
X157584693Y-111764915D01*
X157600424Y-111770446D01*
X157615137Y-111778310D01*
X157670941Y-111795238D01*
X157725926Y-111814569D01*
X157742435Y-111816925D01*
X157758398Y-111821767D01*
X157816415Y-111827481D01*
X157828952Y-111829270D01*
X157955990Y-112019396D01*
X158162833Y-112226239D01*
X158406054Y-112388754D01*
X158676307Y-112500696D01*
X158963205Y-112557764D01*
X159255725Y-112557764D01*
X159542623Y-112500696D01*
X159812876Y-112388754D01*
X160056097Y-112226239D01*
X160262940Y-112019396D01*
X160425455Y-111776175D01*
X160537397Y-111505922D01*
X160594465Y-111219024D01*
X160594465Y-110926504D01*
X160537397Y-110639606D01*
X160425455Y-110369353D01*
X160262940Y-110126132D01*
X160056097Y-109919289D01*
X159812876Y-109756774D01*
X159812249Y-109756514D01*
X159963090Y-109710757D01*
X160160266Y-109605365D01*
X160333092Y-109463530D01*
X160368639Y-109420216D01*
X160523877Y-109264978D01*
X160567191Y-109229431D01*
X160709026Y-109056605D01*
X160814418Y-108859429D01*
X160879319Y-108645481D01*
X160895742Y-108478734D01*
X160895742Y-108478733D01*
X160901233Y-108422982D01*
X160895742Y-108367231D01*
X160895742Y-107906692D01*
X161104875Y-108115825D01*
X161380853Y-108300228D01*
X161687504Y-108427246D01*
X162013042Y-108492000D01*
X162344958Y-108492000D01*
X162670496Y-108427246D01*
X162977147Y-108300228D01*
X163253125Y-108115825D01*
X163487825Y-107881125D01*
X163672228Y-107605147D01*
X163799246Y-107298496D01*
X163864000Y-106972958D01*
X163864000Y-106641042D01*
X163799246Y-106315504D01*
X163672228Y-106008853D01*
X163487825Y-105732875D01*
X163253125Y-105498175D01*
X162977147Y-105313772D01*
X162670496Y-105186754D01*
X162344958Y-105122000D01*
X162013042Y-105122000D01*
X161687504Y-105186754D01*
X161380853Y-105313772D01*
X161104875Y-105498175D01*
X160895742Y-105707308D01*
X160895742Y-103583689D01*
X162247530Y-102231902D01*
X162286180Y-102426207D01*
X162398122Y-102696460D01*
X162560637Y-102939681D01*
X162767480Y-103146524D01*
X163010701Y-103309039D01*
X163280954Y-103420981D01*
X163567852Y-103478049D01*
X163860372Y-103478049D01*
X164147270Y-103420981D01*
X164417523Y-103309039D01*
X164660744Y-103146524D01*
X164867587Y-102939681D01*
X165030102Y-102696460D01*
X165142044Y-102426207D01*
X165175817Y-102256420D01*
X165525271Y-102125326D01*
X159935449Y-119319606D01*
%TA.AperFunction,Conductor*%
D19*
G36*
X159935449Y-119319606D02*
G01*
X157454142Y-111687119D01*
X157455862Y-111688661D01*
X157470212Y-111697155D01*
X157483108Y-111707738D01*
X157534532Y-111735225D01*
X157584693Y-111764915D01*
X157600424Y-111770446D01*
X157615137Y-111778310D01*
X157670941Y-111795238D01*
X157725926Y-111814569D01*
X157742435Y-111816925D01*
X157758398Y-111821767D01*
X157816415Y-111827481D01*
X157828952Y-111829270D01*
X157955990Y-112019396D01*
X158162833Y-112226239D01*
X158406054Y-112388754D01*
X158676307Y-112500696D01*
X158963205Y-112557764D01*
X159255725Y-112557764D01*
X159542623Y-112500696D01*
X159812876Y-112388754D01*
X160056097Y-112226239D01*
X160262940Y-112019396D01*
X160425455Y-111776175D01*
X160537397Y-111505922D01*
X160594465Y-111219024D01*
X160594465Y-110926504D01*
X160537397Y-110639606D01*
X160425455Y-110369353D01*
X160262940Y-110126132D01*
X160056097Y-109919289D01*
X159812876Y-109756774D01*
X159812249Y-109756514D01*
X159963090Y-109710757D01*
X160160266Y-109605365D01*
X160333092Y-109463530D01*
X160368639Y-109420216D01*
X160523877Y-109264978D01*
X160567191Y-109229431D01*
X160709026Y-109056605D01*
X160814418Y-108859429D01*
X160879319Y-108645481D01*
X160895742Y-108478734D01*
X160895742Y-108478733D01*
X160901233Y-108422982D01*
X160895742Y-108367231D01*
X160895742Y-107906692D01*
X161104875Y-108115825D01*
X161380853Y-108300228D01*
X161687504Y-108427246D01*
X162013042Y-108492000D01*
X162344958Y-108492000D01*
X162670496Y-108427246D01*
X162977147Y-108300228D01*
X163253125Y-108115825D01*
X163487825Y-107881125D01*
X163672228Y-107605147D01*
X163799246Y-107298496D01*
X163864000Y-106972958D01*
X163864000Y-106641042D01*
X163799246Y-106315504D01*
X163672228Y-106008853D01*
X163487825Y-105732875D01*
X163253125Y-105498175D01*
X162977147Y-105313772D01*
X162670496Y-105186754D01*
X162344958Y-105122000D01*
X162013042Y-105122000D01*
X161687504Y-105186754D01*
X161380853Y-105313772D01*
X161104875Y-105498175D01*
X160895742Y-105707308D01*
X160895742Y-103583689D01*
X162247530Y-102231902D01*
X162286180Y-102426207D01*
X162398122Y-102696460D01*
X162560637Y-102939681D01*
X162767480Y-103146524D01*
X163010701Y-103309039D01*
X163280954Y-103420981D01*
X163567852Y-103478049D01*
X163860372Y-103478049D01*
X164147270Y-103420981D01*
X164417523Y-103309039D01*
X164660744Y-103146524D01*
X164867587Y-102939681D01*
X165030102Y-102696460D01*
X165142044Y-102426207D01*
X165175817Y-102256420D01*
X165525271Y-102125326D01*
X159935449Y-119319606D01*
G37*
%TD.AperFunction*%
D18*
X154390418Y-94115176D02*
X154409440Y-94108995D01*
X154487929Y-94350564D01*
X154468908Y-94356744D01*
X154800870Y-95378416D01*
X155000907Y-95480340D01*
X155288837Y-95390016D01*
X155403438Y-95339889D01*
X155411304Y-95334407D01*
X155413384Y-95440314D01*
X155440190Y-95562492D01*
X155674086Y-96282350D01*
X155680896Y-96309420D01*
X155687202Y-96322718D01*
X155903715Y-96989077D01*
X155953843Y-97103677D01*
X156025364Y-97206297D01*
X156115531Y-97292991D01*
X156220879Y-97360428D01*
X156337359Y-97406018D01*
X156460495Y-97428007D01*
X156585555Y-97425551D01*
X156707733Y-97398745D01*
X157011115Y-97300170D01*
X161738861Y-99530306D01*
X159695731Y-101573438D01*
X159695731Y-101288824D01*
X159699407Y-101251501D01*
X159695731Y-101214178D01*
X159695731Y-101214169D01*
X159684734Y-101102516D01*
X159641277Y-100959255D01*
X159570705Y-100827226D01*
X159526640Y-100773532D01*
X159119116Y-99519302D01*
X159068988Y-99404702D01*
X158997467Y-99302082D01*
X158907300Y-99215388D01*
X158801952Y-99147951D01*
X158685472Y-99102361D01*
X158562336Y-99080372D01*
X158437276Y-99082828D01*
X158315098Y-99109634D01*
X157364041Y-99418651D01*
X157249441Y-99468779D01*
X157146822Y-99540300D01*
X157060127Y-99630467D01*
X156992690Y-99735815D01*
X156947100Y-99852295D01*
X156925111Y-99975431D01*
X156927567Y-100100491D01*
X156954373Y-100222669D01*
X157417898Y-101649254D01*
X157468026Y-101763854D01*
X157539547Y-101866474D01*
X157629714Y-101953168D01*
X157735062Y-102020605D01*
X157851542Y-102066195D01*
X157974678Y-102088184D01*
X158099738Y-102085728D01*
X158175731Y-102069055D01*
X158175732Y-104541422D01*
X158135455Y-104534229D01*
X158010395Y-104536685D01*
X157888218Y-104563492D01*
X157352533Y-104740776D01*
X157250609Y-104940813D01*
X157621198Y-106081368D01*
X157640220Y-106075187D01*
X157718709Y-106316756D01*
X157699688Y-106322936D01*
X157705869Y-106341958D01*
X157464300Y-106420447D01*
X157458120Y-106401426D01*
X156317565Y-106772015D01*
X156215642Y-106972052D01*
X156387083Y-107509635D01*
X156437210Y-107624235D01*
X156494484Y-107706413D01*
X156444016Y-107800833D01*
X156444015Y-107800834D01*
X156400558Y-107944095D01*
X156389561Y-108055748D01*
X156389561Y-108055758D01*
X156385885Y-108093080D01*
X156389561Y-108130402D01*
X156389561Y-108412475D01*
X155490056Y-105645601D01*
X155832491Y-105645601D01*
X155834947Y-105770661D01*
X155861754Y-105892838D01*
X156039038Y-106428523D01*
X156239075Y-106530447D01*
X157379630Y-106159858D01*
X157009041Y-105019303D01*
X156809004Y-104917380D01*
X156271421Y-105088821D01*
X156156821Y-105138948D01*
X156054201Y-105210469D01*
X155967508Y-105300637D01*
X155900070Y-105405985D01*
X155854481Y-105522465D01*
X155832491Y-105645601D01*
X155490056Y-105645601D01*
X154617643Y-102962065D01*
X154691682Y-103009460D01*
X154808162Y-103055049D01*
X154931298Y-103077039D01*
X155056358Y-103074584D01*
X155178536Y-103047776D01*
X155381350Y-102978648D01*
X155483274Y-102778611D01*
X155143587Y-101733162D01*
X155124565Y-101739343D01*
X155097055Y-101654672D01*
X155385155Y-101654672D01*
X155724842Y-102700121D01*
X155924879Y-102802045D01*
X156129592Y-102738759D01*
X156244193Y-102688632D01*
X156346812Y-102617111D01*
X156433506Y-102526943D01*
X156500943Y-102421595D01*
X156546532Y-102305116D01*
X156568522Y-102181980D01*
X156566067Y-102056920D01*
X156539260Y-101934742D01*
X156392877Y-101494163D01*
X156192840Y-101392239D01*
X155385155Y-101654672D01*
X155097055Y-101654672D01*
X155046076Y-101497774D01*
X155065097Y-101491594D01*
X154725410Y-100446145D01*
X154571365Y-100367655D01*
X154966978Y-100367655D01*
X155306665Y-101413104D01*
X156114350Y-101150671D01*
X156216274Y-100950634D01*
X156075734Y-100508157D01*
X156025607Y-100393556D01*
X155954085Y-100290937D01*
X155863918Y-100204243D01*
X155758570Y-100136806D01*
X155642090Y-100091217D01*
X155518954Y-100069227D01*
X155393894Y-100071682D01*
X155271716Y-100098490D01*
X155068902Y-100167618D01*
X154966978Y-100367655D01*
X154571365Y-100367655D01*
X154525373Y-100344221D01*
X154320660Y-100407507D01*
X154206059Y-100457634D01*
X154103440Y-100529155D01*
X154016746Y-100619323D01*
X153949309Y-100724671D01*
X153917058Y-100807070D01*
X153102410Y-98301217D01*
X153177498Y-98349283D01*
X153293978Y-98394873D01*
X153417114Y-98416862D01*
X153542174Y-98414406D01*
X153664352Y-98387600D01*
X154615409Y-98078583D01*
X154730009Y-98028455D01*
X154832628Y-97956934D01*
X154919323Y-97866767D01*
X154986760Y-97761419D01*
X155032350Y-97644939D01*
X155054339Y-97521803D01*
X155051883Y-97396743D01*
X155025077Y-97274565D01*
X154561552Y-95847980D01*
X154511424Y-95733380D01*
X154457705Y-95656302D01*
X154559301Y-95456907D01*
X154227340Y-94435234D01*
X154208318Y-94441415D01*
X154129829Y-94199846D01*
X154148850Y-94193666D01*
X154142669Y-94174644D01*
X154384238Y-94096155D01*
X154390418Y-94115176D01*
%TA.AperFunction,Conductor*%
D19*
G36*
X154390418Y-94115176D02*
G01*
X154409440Y-94108995D01*
X154487929Y-94350564D01*
X154468908Y-94356744D01*
X154800870Y-95378416D01*
X155000907Y-95480340D01*
X155288837Y-95390016D01*
X155403438Y-95339889D01*
X155411304Y-95334407D01*
X155413384Y-95440314D01*
X155440190Y-95562492D01*
X155674086Y-96282350D01*
X155680896Y-96309420D01*
X155687202Y-96322718D01*
X155903715Y-96989077D01*
X155953843Y-97103677D01*
X156025364Y-97206297D01*
X156115531Y-97292991D01*
X156220879Y-97360428D01*
X156337359Y-97406018D01*
X156460495Y-97428007D01*
X156585555Y-97425551D01*
X156707733Y-97398745D01*
X157011115Y-97300170D01*
X161738861Y-99530306D01*
X159695731Y-101573438D01*
X159695731Y-101288824D01*
X159699407Y-101251501D01*
X159695731Y-101214178D01*
X159695731Y-101214169D01*
X159684734Y-101102516D01*
X159641277Y-100959255D01*
X159570705Y-100827226D01*
X159526640Y-100773532D01*
X159119116Y-99519302D01*
X159068988Y-99404702D01*
X158997467Y-99302082D01*
X158907300Y-99215388D01*
X158801952Y-99147951D01*
X158685472Y-99102361D01*
X158562336Y-99080372D01*
X158437276Y-99082828D01*
X158315098Y-99109634D01*
X157364041Y-99418651D01*
X157249441Y-99468779D01*
X157146822Y-99540300D01*
X157060127Y-99630467D01*
X156992690Y-99735815D01*
X156947100Y-99852295D01*
X156925111Y-99975431D01*
X156927567Y-100100491D01*
X156954373Y-100222669D01*
X157417898Y-101649254D01*
X157468026Y-101763854D01*
X157539547Y-101866474D01*
X157629714Y-101953168D01*
X157735062Y-102020605D01*
X157851542Y-102066195D01*
X157974678Y-102088184D01*
X158099738Y-102085728D01*
X158175731Y-102069055D01*
X158175732Y-104541422D01*
X158135455Y-104534229D01*
X158010395Y-104536685D01*
X157888218Y-104563492D01*
X157352533Y-104740776D01*
X157250609Y-104940813D01*
X157621198Y-106081368D01*
X157640220Y-106075187D01*
X157718709Y-106316756D01*
X157699688Y-106322936D01*
X157705869Y-106341958D01*
X157464300Y-106420447D01*
X157458120Y-106401426D01*
X156317565Y-106772015D01*
X156215642Y-106972052D01*
X156387083Y-107509635D01*
X156437210Y-107624235D01*
X156494484Y-107706413D01*
X156444016Y-107800833D01*
X156444015Y-107800834D01*
X156400558Y-107944095D01*
X156389561Y-108055748D01*
X156389561Y-108055758D01*
X156385885Y-108093080D01*
X156389561Y-108130402D01*
X156389561Y-108412475D01*
X155490056Y-105645601D01*
X155832491Y-105645601D01*
X155834947Y-105770661D01*
X155861754Y-105892838D01*
X156039038Y-106428523D01*
X156239075Y-106530447D01*
X157379630Y-106159858D01*
X157009041Y-105019303D01*
X156809004Y-104917380D01*
X156271421Y-105088821D01*
X156156821Y-105138948D01*
X156054201Y-105210469D01*
X155967508Y-105300637D01*
X155900070Y-105405985D01*
X155854481Y-105522465D01*
X155832491Y-105645601D01*
X155490056Y-105645601D01*
X154617643Y-102962065D01*
X154691682Y-103009460D01*
X154808162Y-103055049D01*
X154931298Y-103077039D01*
X155056358Y-103074584D01*
X155178536Y-103047776D01*
X155381350Y-102978648D01*
X155483274Y-102778611D01*
X155143587Y-101733162D01*
X155124565Y-101739343D01*
X155097055Y-101654672D01*
X155385155Y-101654672D01*
X155724842Y-102700121D01*
X155924879Y-102802045D01*
X156129592Y-102738759D01*
X156244193Y-102688632D01*
X156346812Y-102617111D01*
X156433506Y-102526943D01*
X156500943Y-102421595D01*
X156546532Y-102305116D01*
X156568522Y-102181980D01*
X156566067Y-102056920D01*
X156539260Y-101934742D01*
X156392877Y-101494163D01*
X156192840Y-101392239D01*
X155385155Y-101654672D01*
X155097055Y-101654672D01*
X155046076Y-101497774D01*
X155065097Y-101491594D01*
X154725410Y-100446145D01*
X154571365Y-100367655D01*
X154966978Y-100367655D01*
X155306665Y-101413104D01*
X156114350Y-101150671D01*
X156216274Y-100950634D01*
X156075734Y-100508157D01*
X156025607Y-100393556D01*
X155954085Y-100290937D01*
X155863918Y-100204243D01*
X155758570Y-100136806D01*
X155642090Y-100091217D01*
X155518954Y-100069227D01*
X155393894Y-100071682D01*
X155271716Y-100098490D01*
X155068902Y-100167618D01*
X154966978Y-100367655D01*
X154571365Y-100367655D01*
X154525373Y-100344221D01*
X154320660Y-100407507D01*
X154206059Y-100457634D01*
X154103440Y-100529155D01*
X154016746Y-100619323D01*
X153949309Y-100724671D01*
X153917058Y-100807070D01*
X153102410Y-98301217D01*
X153177498Y-98349283D01*
X153293978Y-98394873D01*
X153417114Y-98416862D01*
X153542174Y-98414406D01*
X153664352Y-98387600D01*
X154615409Y-98078583D01*
X154730009Y-98028455D01*
X154832628Y-97956934D01*
X154919323Y-97866767D01*
X154986760Y-97761419D01*
X155032350Y-97644939D01*
X155054339Y-97521803D01*
X155051883Y-97396743D01*
X155025077Y-97274565D01*
X154561552Y-95847980D01*
X154511424Y-95733380D01*
X154457705Y-95656302D01*
X154559301Y-95456907D01*
X154227340Y-94435234D01*
X154208318Y-94441415D01*
X154129829Y-94199846D01*
X154148850Y-94193666D01*
X154142669Y-94174644D01*
X154384238Y-94096155D01*
X154390418Y-94115176D01*
G37*
%TD.AperFunction*%
D18*
X168122653Y-94135784D02*
X168571578Y-91606718D01*
X168589334Y-91599768D01*
X168694682Y-91532331D01*
X168784849Y-91445636D01*
X168856370Y-91343017D01*
X168906498Y-91228417D01*
X169370023Y-89801832D01*
X169396829Y-89679654D01*
X169399285Y-89554594D01*
X169377296Y-89431458D01*
X169331706Y-89314978D01*
X169264269Y-89209630D01*
X169177575Y-89119463D01*
X169074955Y-89047942D01*
X168960355Y-88997814D01*
X168009298Y-88688797D01*
X167887120Y-88661991D01*
X167762060Y-88659535D01*
X167638924Y-88681524D01*
X167522444Y-88727114D01*
X167417096Y-88794551D01*
X167326929Y-88881246D01*
X167255408Y-88983865D01*
X167205280Y-89098465D01*
X166747202Y-90508286D01*
X166604112Y-90581194D01*
X166272150Y-91602866D01*
X166291171Y-91609046D01*
X166212682Y-91850615D01*
X166193660Y-91844434D01*
X165861699Y-92866107D01*
X165963622Y-93066143D01*
X166249654Y-93162311D01*
X166371832Y-93189118D01*
X166496892Y-93191574D01*
X166620028Y-93169584D01*
X166736508Y-93123995D01*
X166761310Y-93108118D01*
X166262749Y-95916811D01*
X166014573Y-95837665D01*
X165814536Y-95939588D01*
X165443947Y-97080143D01*
X165462968Y-97086323D01*
X165384479Y-97327892D01*
X165365457Y-97321711D01*
X165359277Y-97340732D01*
X165117708Y-97262243D01*
X165123889Y-97243221D01*
X165104868Y-97237041D01*
X165183357Y-96995472D01*
X165202379Y-97001653D01*
X165572968Y-95861098D01*
X165471044Y-95661061D01*
X164935359Y-95483777D01*
X164813182Y-95456970D01*
X164688122Y-95454514D01*
X164647846Y-95461707D01*
X164647846Y-93079268D01*
X164994264Y-92732851D01*
X165017562Y-92749089D01*
X165132163Y-92799216D01*
X165420093Y-92889540D01*
X165620130Y-92787616D01*
X165952092Y-91765944D01*
X165933071Y-91759764D01*
X166011560Y-91518195D01*
X166030582Y-91524376D01*
X166362543Y-90502703D01*
X166260620Y-90302667D01*
X165974588Y-90206499D01*
X165880563Y-90185869D01*
X166012540Y-89779685D01*
X168039025Y-87753201D01*
X168116365Y-87676602D01*
X168149245Y-87627902D01*
X168186530Y-87582471D01*
X168211653Y-87535468D01*
X168241470Y-87491306D01*
X168264220Y-87437122D01*
X168291922Y-87385295D01*
X168323507Y-87281175D01*
X168532018Y-86605530D01*
X168551005Y-86618763D01*
X168665606Y-86668890D01*
X168870319Y-86732176D01*
X168916310Y-86708742D01*
X169311924Y-86708742D01*
X169413848Y-86908779D01*
X169616662Y-86977907D01*
X169738840Y-87004715D01*
X169863900Y-87007170D01*
X169987036Y-86985180D01*
X170103516Y-86939591D01*
X170208864Y-86872154D01*
X170299031Y-86785460D01*
X170370553Y-86682841D01*
X170420680Y-86568240D01*
X170561220Y-86125763D01*
X170459296Y-85925726D01*
X169651611Y-85663293D01*
X169311924Y-86708742D01*
X168916310Y-86708742D01*
X169070356Y-86630252D01*
X169410043Y-85584803D01*
X169391022Y-85578623D01*
X169442000Y-85421725D01*
X169730101Y-85421725D01*
X170537786Y-85684158D01*
X170737823Y-85582234D01*
X170884206Y-85141655D01*
X170911013Y-85019477D01*
X170913468Y-84894417D01*
X170891478Y-84771281D01*
X170845889Y-84654802D01*
X170778452Y-84549454D01*
X170691758Y-84459286D01*
X170589139Y-84387765D01*
X170474538Y-84337638D01*
X170269825Y-84274352D01*
X170069788Y-84376276D01*
X169730101Y-85421725D01*
X169442000Y-85421725D01*
X169469511Y-85337054D01*
X169488533Y-85343235D01*
X169828220Y-84297786D01*
X169726296Y-84097749D01*
X169523482Y-84028621D01*
X169401304Y-84001813D01*
X169276244Y-83999358D01*
X169153108Y-84021348D01*
X169068992Y-84054270D01*
X169068992Y-83723192D01*
X169074477Y-83669228D01*
X169068992Y-83611699D01*
X169068992Y-83609918D01*
X169063681Y-83555991D01*
X169053257Y-83446662D01*
X169052745Y-83444954D01*
X169052569Y-83443171D01*
X169020580Y-83337718D01*
X169004032Y-83282545D01*
X169307504Y-83408246D01*
X169633042Y-83473000D01*
X169964958Y-83473000D01*
X170290496Y-83408246D01*
X170597147Y-83281228D01*
X170873125Y-83096825D01*
X171107825Y-82862125D01*
X171292228Y-82586147D01*
X171419246Y-82279496D01*
X171484000Y-81953958D01*
X171484000Y-81622042D01*
X171419246Y-81296504D01*
X171292228Y-80989853D01*
X171107825Y-80713875D01*
X170873125Y-80479175D01*
X170597147Y-80294772D01*
X170290496Y-80167754D01*
X169964958Y-80103000D01*
X169633042Y-80103000D01*
X169307504Y-80167754D01*
X169000853Y-80294772D01*
X168724875Y-80479175D01*
X168490175Y-80713875D01*
X168305772Y-80989853D01*
X168178754Y-81296504D01*
X168114000Y-81622042D01*
X168114000Y-81884358D01*
X165779502Y-78366825D01*
X168208000Y-78366825D01*
X168208000Y-78605175D01*
X168254499Y-78838944D01*
X168345712Y-79059150D01*
X168478131Y-79257330D01*
X168646670Y-79425869D01*
X168844850Y-79558288D01*
X169065056Y-79649501D01*
X169298825Y-79696000D01*
X169537175Y-79696000D01*
X169770944Y-79649501D01*
X169991150Y-79558288D01*
X170189330Y-79425869D01*
X170357869Y-79257330D01*
X170490288Y-79059150D01*
X170581501Y-78838944D01*
X170628000Y-78605175D01*
X170628000Y-78366825D01*
X170581501Y-78133056D01*
X170490288Y-77912850D01*
X170357869Y-77714670D01*
X170189330Y-77546131D01*
X169991150Y-77413712D01*
X169770944Y-77322499D01*
X169537175Y-77276000D01*
X169298825Y-77276000D01*
X169065056Y-77322499D01*
X168844850Y-77413712D01*
X168646670Y-77546131D01*
X168478131Y-77714670D01*
X168345712Y-77912850D01*
X168254499Y-78133056D01*
X168208000Y-78366825D01*
X165779502Y-78366825D01*
X165054088Y-77273799D01*
X165026840Y-77222821D01*
X164956895Y-77137593D01*
X164887517Y-77052516D01*
X164886142Y-77051380D01*
X164885005Y-77049995D01*
X164799668Y-76979961D01*
X164715134Y-76910143D01*
X164713567Y-76909299D01*
X164712179Y-76908160D01*
X164614888Y-76856157D01*
X164518288Y-76804135D01*
X164516581Y-76803611D01*
X164515003Y-76802768D01*
X164409594Y-76770792D01*
X164304543Y-76738567D01*
X164302768Y-76738387D01*
X164301055Y-76737867D01*
X164191412Y-76727068D01*
X164186911Y-76726611D01*
X164188898Y-76706432D01*
X164188898Y-75706432D01*
X164176638Y-75581950D01*
X164140328Y-75462252D01*
X164081363Y-75351938D01*
X164002011Y-75255247D01*
X163905320Y-75175895D01*
X163795006Y-75116930D01*
X163675308Y-75080620D01*
X163550826Y-75068360D01*
X163455152Y-75068360D01*
X163435800Y-75032156D01*
X163340827Y-74916431D01*
X163332112Y-74909279D01*
X174375016Y-74903527D01*
X168122653Y-94135784D01*
%TA.AperFunction,Conductor*%
D19*
G36*
X168122653Y-94135784D02*
G01*
X168571578Y-91606718D01*
X168589334Y-91599768D01*
X168694682Y-91532331D01*
X168784849Y-91445636D01*
X168856370Y-91343017D01*
X168906498Y-91228417D01*
X169370023Y-89801832D01*
X169396829Y-89679654D01*
X169399285Y-89554594D01*
X169377296Y-89431458D01*
X169331706Y-89314978D01*
X169264269Y-89209630D01*
X169177575Y-89119463D01*
X169074955Y-89047942D01*
X168960355Y-88997814D01*
X168009298Y-88688797D01*
X167887120Y-88661991D01*
X167762060Y-88659535D01*
X167638924Y-88681524D01*
X167522444Y-88727114D01*
X167417096Y-88794551D01*
X167326929Y-88881246D01*
X167255408Y-88983865D01*
X167205280Y-89098465D01*
X166747202Y-90508286D01*
X166604112Y-90581194D01*
X166272150Y-91602866D01*
X166291171Y-91609046D01*
X166212682Y-91850615D01*
X166193660Y-91844434D01*
X165861699Y-92866107D01*
X165963622Y-93066143D01*
X166249654Y-93162311D01*
X166371832Y-93189118D01*
X166496892Y-93191574D01*
X166620028Y-93169584D01*
X166736508Y-93123995D01*
X166761310Y-93108118D01*
X166262749Y-95916811D01*
X166014573Y-95837665D01*
X165814536Y-95939588D01*
X165443947Y-97080143D01*
X165462968Y-97086323D01*
X165384479Y-97327892D01*
X165365457Y-97321711D01*
X165359277Y-97340732D01*
X165117708Y-97262243D01*
X165123889Y-97243221D01*
X165104868Y-97237041D01*
X165183357Y-96995472D01*
X165202379Y-97001653D01*
X165572968Y-95861098D01*
X165471044Y-95661061D01*
X164935359Y-95483777D01*
X164813182Y-95456970D01*
X164688122Y-95454514D01*
X164647846Y-95461707D01*
X164647846Y-93079268D01*
X164994264Y-92732851D01*
X165017562Y-92749089D01*
X165132163Y-92799216D01*
X165420093Y-92889540D01*
X165620130Y-92787616D01*
X165952092Y-91765944D01*
X165933071Y-91759764D01*
X166011560Y-91518195D01*
X166030582Y-91524376D01*
X166362543Y-90502703D01*
X166260620Y-90302667D01*
X165974588Y-90206499D01*
X165880563Y-90185869D01*
X166012540Y-89779685D01*
X168039025Y-87753201D01*
X168116365Y-87676602D01*
X168149245Y-87627902D01*
X168186530Y-87582471D01*
X168211653Y-87535468D01*
X168241470Y-87491306D01*
X168264220Y-87437122D01*
X168291922Y-87385295D01*
X168323507Y-87281175D01*
X168532018Y-86605530D01*
X168551005Y-86618763D01*
X168665606Y-86668890D01*
X168870319Y-86732176D01*
X168916310Y-86708742D01*
X169311924Y-86708742D01*
X169413848Y-86908779D01*
X169616662Y-86977907D01*
X169738840Y-87004715D01*
X169863900Y-87007170D01*
X169987036Y-86985180D01*
X170103516Y-86939591D01*
X170208864Y-86872154D01*
X170299031Y-86785460D01*
X170370553Y-86682841D01*
X170420680Y-86568240D01*
X170561220Y-86125763D01*
X170459296Y-85925726D01*
X169651611Y-85663293D01*
X169311924Y-86708742D01*
X168916310Y-86708742D01*
X169070356Y-86630252D01*
X169410043Y-85584803D01*
X169391022Y-85578623D01*
X169442000Y-85421725D01*
X169730101Y-85421725D01*
X170537786Y-85684158D01*
X170737823Y-85582234D01*
X170884206Y-85141655D01*
X170911013Y-85019477D01*
X170913468Y-84894417D01*
X170891478Y-84771281D01*
X170845889Y-84654802D01*
X170778452Y-84549454D01*
X170691758Y-84459286D01*
X170589139Y-84387765D01*
X170474538Y-84337638D01*
X170269825Y-84274352D01*
X170069788Y-84376276D01*
X169730101Y-85421725D01*
X169442000Y-85421725D01*
X169469511Y-85337054D01*
X169488533Y-85343235D01*
X169828220Y-84297786D01*
X169726296Y-84097749D01*
X169523482Y-84028621D01*
X169401304Y-84001813D01*
X169276244Y-83999358D01*
X169153108Y-84021348D01*
X169068992Y-84054270D01*
X169068992Y-83723192D01*
X169074477Y-83669228D01*
X169068992Y-83611699D01*
X169068992Y-83609918D01*
X169063681Y-83555991D01*
X169053257Y-83446662D01*
X169052745Y-83444954D01*
X169052569Y-83443171D01*
X169020580Y-83337718D01*
X169004032Y-83282545D01*
X169307504Y-83408246D01*
X169633042Y-83473000D01*
X169964958Y-83473000D01*
X170290496Y-83408246D01*
X170597147Y-83281228D01*
X170873125Y-83096825D01*
X171107825Y-82862125D01*
X171292228Y-82586147D01*
X171419246Y-82279496D01*
X171484000Y-81953958D01*
X171484000Y-81622042D01*
X171419246Y-81296504D01*
X171292228Y-80989853D01*
X171107825Y-80713875D01*
X170873125Y-80479175D01*
X170597147Y-80294772D01*
X170290496Y-80167754D01*
X169964958Y-80103000D01*
X169633042Y-80103000D01*
X169307504Y-80167754D01*
X169000853Y-80294772D01*
X168724875Y-80479175D01*
X168490175Y-80713875D01*
X168305772Y-80989853D01*
X168178754Y-81296504D01*
X168114000Y-81622042D01*
X168114000Y-81884358D01*
X165779502Y-78366825D01*
X168208000Y-78366825D01*
X168208000Y-78605175D01*
X168254499Y-78838944D01*
X168345712Y-79059150D01*
X168478131Y-79257330D01*
X168646670Y-79425869D01*
X168844850Y-79558288D01*
X169065056Y-79649501D01*
X169298825Y-79696000D01*
X169537175Y-79696000D01*
X169770944Y-79649501D01*
X169991150Y-79558288D01*
X170189330Y-79425869D01*
X170357869Y-79257330D01*
X170490288Y-79059150D01*
X170581501Y-78838944D01*
X170628000Y-78605175D01*
X170628000Y-78366825D01*
X170581501Y-78133056D01*
X170490288Y-77912850D01*
X170357869Y-77714670D01*
X170189330Y-77546131D01*
X169991150Y-77413712D01*
X169770944Y-77322499D01*
X169537175Y-77276000D01*
X169298825Y-77276000D01*
X169065056Y-77322499D01*
X168844850Y-77413712D01*
X168646670Y-77546131D01*
X168478131Y-77714670D01*
X168345712Y-77912850D01*
X168254499Y-78133056D01*
X168208000Y-78366825D01*
X165779502Y-78366825D01*
X165054088Y-77273799D01*
X165026840Y-77222821D01*
X164956895Y-77137593D01*
X164887517Y-77052516D01*
X164886142Y-77051380D01*
X164885005Y-77049995D01*
X164799668Y-76979961D01*
X164715134Y-76910143D01*
X164713567Y-76909299D01*
X164712179Y-76908160D01*
X164614888Y-76856157D01*
X164518288Y-76804135D01*
X164516581Y-76803611D01*
X164515003Y-76802768D01*
X164409594Y-76770792D01*
X164304543Y-76738567D01*
X164302768Y-76738387D01*
X164301055Y-76737867D01*
X164191412Y-76727068D01*
X164186911Y-76726611D01*
X164188898Y-76706432D01*
X164188898Y-75706432D01*
X164176638Y-75581950D01*
X164140328Y-75462252D01*
X164081363Y-75351938D01*
X164002011Y-75255247D01*
X163905320Y-75175895D01*
X163795006Y-75116930D01*
X163675308Y-75080620D01*
X163550826Y-75068360D01*
X163455152Y-75068360D01*
X163435800Y-75032156D01*
X163340827Y-74916431D01*
X163332112Y-74909279D01*
X174375016Y-74903527D01*
X168122653Y-94135784D01*
G37*
%TD.AperFunction*%
D18*
X157364871Y-92110058D02*
X157447958Y-92203559D01*
X157547690Y-92279055D01*
X157660234Y-92333642D01*
X157781265Y-92365225D01*
X157906132Y-92372589D01*
X158030036Y-92355451D01*
X158049338Y-92348758D01*
X158348392Y-92768521D01*
X158342316Y-92791806D01*
X158326983Y-92888616D01*
X158319619Y-93013481D01*
X158323467Y-93111423D01*
X158340605Y-93235330D01*
X158363487Y-93330639D01*
X158404469Y-93448819D01*
X158445505Y-93537832D01*
X158508750Y-93645738D01*
X158523188Y-93665610D01*
X158535612Y-93686808D01*
X158829505Y-94091317D01*
X158845803Y-94109654D01*
X158860257Y-94129548D01*
X158943347Y-94223053D01*
X159015322Y-94289586D01*
X159115052Y-94365080D01*
X159198625Y-94416294D01*
X159311170Y-94470882D01*
X159403130Y-94504808D01*
X159524163Y-94536391D01*
X159620972Y-94551724D01*
X159745837Y-94559088D01*
X159843780Y-94555240D01*
X159967688Y-94538102D01*
X160062997Y-94515220D01*
X160181180Y-94474236D01*
X160270192Y-94433200D01*
X160378089Y-94369962D01*
X160397967Y-94355521D01*
X160419167Y-94343095D01*
X160864126Y-94019813D01*
X160957627Y-93936726D01*
X160957955Y-93936293D01*
X160958465Y-93936116D01*
X161066379Y-93872866D01*
X161231443Y-93752940D01*
X161883054Y-93752940D01*
X161920377Y-93756616D01*
X161957699Y-93752940D01*
X161957710Y-93752940D01*
X162069363Y-93741943D01*
X162212624Y-93698486D01*
X162344653Y-93627914D01*
X162377847Y-93600673D01*
X162377846Y-97321847D01*
X157751476Y-95139532D01*
X157577079Y-94293378D01*
X157604815Y-94222513D01*
X157635420Y-94051132D01*
X157632002Y-93877073D01*
X157594693Y-93707025D01*
X157301127Y-92803521D01*
X157231360Y-92644020D01*
X157131816Y-92501194D01*
X157006321Y-92380533D01*
X156859697Y-92286672D01*
X156697580Y-92223221D01*
X156526198Y-92192616D01*
X156352139Y-92196034D01*
X156182092Y-92233343D01*
X156040078Y-92279486D01*
X155370218Y-91609626D01*
X155514682Y-91706154D01*
X155703040Y-91784175D01*
X155902999Y-91823949D01*
X156106877Y-91823949D01*
X156306836Y-91784175D01*
X156495194Y-91706154D01*
X156664712Y-91592886D01*
X156808875Y-91448723D01*
X156845049Y-91394584D01*
X157364871Y-92110058D01*
%TA.AperFunction,Conductor*%
D19*
G36*
X157364871Y-92110058D02*
G01*
X157447958Y-92203559D01*
X157547690Y-92279055D01*
X157660234Y-92333642D01*
X157781265Y-92365225D01*
X157906132Y-92372589D01*
X158030036Y-92355451D01*
X158049338Y-92348758D01*
X158348392Y-92768521D01*
X158342316Y-92791806D01*
X158326983Y-92888616D01*
X158319619Y-93013481D01*
X158323467Y-93111423D01*
X158340605Y-93235330D01*
X158363487Y-93330639D01*
X158404469Y-93448819D01*
X158445505Y-93537832D01*
X158508750Y-93645738D01*
X158523188Y-93665610D01*
X158535612Y-93686808D01*
X158829505Y-94091317D01*
X158845803Y-94109654D01*
X158860257Y-94129548D01*
X158943347Y-94223053D01*
X159015322Y-94289586D01*
X159115052Y-94365080D01*
X159198625Y-94416294D01*
X159311170Y-94470882D01*
X159403130Y-94504808D01*
X159524163Y-94536391D01*
X159620972Y-94551724D01*
X159745837Y-94559088D01*
X159843780Y-94555240D01*
X159967688Y-94538102D01*
X160062997Y-94515220D01*
X160181180Y-94474236D01*
X160270192Y-94433200D01*
X160378089Y-94369962D01*
X160397967Y-94355521D01*
X160419167Y-94343095D01*
X160864126Y-94019813D01*
X160957627Y-93936726D01*
X160957955Y-93936293D01*
X160958465Y-93936116D01*
X161066379Y-93872866D01*
X161231443Y-93752940D01*
X161883054Y-93752940D01*
X161920377Y-93756616D01*
X161957699Y-93752940D01*
X161957710Y-93752940D01*
X162069363Y-93741943D01*
X162212624Y-93698486D01*
X162344653Y-93627914D01*
X162377847Y-93600673D01*
X162377846Y-97321847D01*
X157751476Y-95139532D01*
X157577079Y-94293378D01*
X157604815Y-94222513D01*
X157635420Y-94051132D01*
X157632002Y-93877073D01*
X157594693Y-93707025D01*
X157301127Y-92803521D01*
X157231360Y-92644020D01*
X157131816Y-92501194D01*
X157006321Y-92380533D01*
X156859697Y-92286672D01*
X156697580Y-92223221D01*
X156526198Y-92192616D01*
X156352139Y-92196034D01*
X156182092Y-92233343D01*
X156040078Y-92279486D01*
X155370218Y-91609626D01*
X155514682Y-91706154D01*
X155703040Y-91784175D01*
X155902999Y-91823949D01*
X156106877Y-91823949D01*
X156306836Y-91784175D01*
X156495194Y-91706154D01*
X156664712Y-91592886D01*
X156808875Y-91448723D01*
X156845049Y-91394584D01*
X157364871Y-92110058D01*
G37*
%TD.AperFunction*%
D18*
X141858877Y-80543514D02*
X141810031Y-80684374D01*
X141786179Y-80856825D01*
X141796428Y-81030616D01*
X141798569Y-81038821D01*
X141695543Y-81044897D01*
X141574512Y-81076480D01*
X141461968Y-81131067D01*
X141362236Y-81206562D01*
X141279148Y-81300064D01*
X141104270Y-81545990D01*
X141139390Y-81767733D01*
X142008477Y-82399161D01*
X142020232Y-82382981D01*
X142225723Y-82532278D01*
X142213967Y-82548459D01*
X143083053Y-83179887D01*
X143304796Y-83144766D01*
X143484645Y-82902451D01*
X143547895Y-82794537D01*
X143587655Y-82679881D01*
X143596347Y-82691363D01*
X143689849Y-82774450D01*
X144107653Y-83078003D01*
X145908809Y-86188455D01*
X145952376Y-86269963D01*
X146000173Y-86328203D01*
X146044160Y-86389421D01*
X146111747Y-86452560D01*
X146212556Y-86553369D01*
X146096294Y-86718312D01*
X146131415Y-86940054D01*
X147020727Y-87586177D01*
X147032482Y-87569997D01*
X147237973Y-87719294D01*
X147226217Y-87735475D01*
X147842197Y-88183011D01*
X152128540Y-92469355D01*
X152164078Y-92512658D01*
X152207381Y-92548196D01*
X152207383Y-92548198D01*
X152336904Y-92654493D01*
X152398782Y-92687567D01*
X152391405Y-92724656D01*
X152391405Y-92906956D01*
X152366738Y-92988274D01*
X152356672Y-93090475D01*
X152352064Y-93137260D01*
X152355741Y-93174592D01*
X152355740Y-96004464D01*
X151094722Y-92125580D01*
X151081846Y-92076353D01*
X151056592Y-92024365D01*
X151033418Y-91971406D01*
X151025009Y-91959345D01*
X151018586Y-91946122D01*
X150983673Y-91900057D01*
X150950614Y-91852640D01*
X150940014Y-91842452D01*
X150931134Y-91830735D01*
X150887891Y-91792353D01*
X150846230Y-91752310D01*
X150803383Y-91724891D01*
X147384123Y-89243698D01*
X147461510Y-89239135D01*
X147582540Y-89207552D01*
X147695085Y-89152965D01*
X147794817Y-89077470D01*
X147877904Y-88983968D01*
X148001352Y-88808830D01*
X147966231Y-88587088D01*
X147076919Y-87940965D01*
X147065164Y-87957145D01*
X146859673Y-87807848D01*
X146871429Y-87791667D01*
X145982117Y-87145544D01*
X145760375Y-87180665D01*
X145631957Y-87352191D01*
X145568706Y-87460106D01*
X145527725Y-87578286D01*
X145510588Y-87702190D01*
X145517951Y-87827057D01*
X145538054Y-87904094D01*
X143415441Y-86363815D01*
X143497327Y-86358986D01*
X143618358Y-86327404D01*
X143730902Y-86272816D01*
X143830634Y-86197321D01*
X143913721Y-86103819D01*
X144501506Y-85294802D01*
X144564756Y-85186888D01*
X144605737Y-85068708D01*
X144622875Y-84944803D01*
X144615511Y-84819936D01*
X144583929Y-84698905D01*
X144529341Y-84586361D01*
X144453846Y-84486629D01*
X144360344Y-84403542D01*
X143146819Y-83521865D01*
X143038905Y-83458615D01*
X142939919Y-83424290D01*
X142933756Y-83385377D01*
X142064669Y-82753949D01*
X141514062Y-83511796D01*
X141549182Y-83733538D01*
X141902737Y-83994208D01*
X141981431Y-84040332D01*
X141961202Y-84068175D01*
X141855778Y-84063074D01*
X140124274Y-82720762D01*
X140210539Y-82600658D01*
X140467132Y-82600658D01*
X140474496Y-82725525D01*
X140506078Y-82846555D01*
X140560665Y-82959100D01*
X140636161Y-83058832D01*
X140729663Y-83141919D01*
X141086829Y-83397619D01*
X141308571Y-83362498D01*
X141859179Y-82604651D01*
X140990093Y-81973223D01*
X140768350Y-82008344D01*
X140588501Y-82250659D01*
X140525251Y-82358573D01*
X140484269Y-82476753D01*
X140467132Y-82600658D01*
X140210539Y-82600658D01*
X140393953Y-82345300D01*
X140358832Y-82123557D01*
X139388618Y-81418656D01*
X139376863Y-81434836D01*
X139171372Y-81285539D01*
X139183128Y-81269358D01*
X139166948Y-81257603D01*
X139199233Y-81213166D01*
X139537916Y-81213166D01*
X140508130Y-81918067D01*
X140729872Y-81882946D01*
X141064015Y-81428264D01*
X141127265Y-81320350D01*
X141168246Y-81202170D01*
X141185384Y-81078265D01*
X141178020Y-80953399D01*
X141146437Y-80832368D01*
X141091850Y-80719823D01*
X141016355Y-80620091D01*
X140922853Y-80537004D01*
X140464560Y-80207831D01*
X140242817Y-80242952D01*
X139537916Y-81213166D01*
X139199233Y-81213166D01*
X139316245Y-81052112D01*
X139332426Y-81063868D01*
X140037327Y-80093654D01*
X140027766Y-80033288D01*
X141633475Y-80033288D01*
X141858877Y-80543514D01*
%TA.AperFunction,Conductor*%
D19*
G36*
X141858877Y-80543514D02*
G01*
X141810031Y-80684374D01*
X141786179Y-80856825D01*
X141796428Y-81030616D01*
X141798569Y-81038821D01*
X141695543Y-81044897D01*
X141574512Y-81076480D01*
X141461968Y-81131067D01*
X141362236Y-81206562D01*
X141279148Y-81300064D01*
X141104270Y-81545990D01*
X141139390Y-81767733D01*
X142008477Y-82399161D01*
X142020232Y-82382981D01*
X142225723Y-82532278D01*
X142213967Y-82548459D01*
X143083053Y-83179887D01*
X143304796Y-83144766D01*
X143484645Y-82902451D01*
X143547895Y-82794537D01*
X143587655Y-82679881D01*
X143596347Y-82691363D01*
X143689849Y-82774450D01*
X144107653Y-83078003D01*
X145908809Y-86188455D01*
X145952376Y-86269963D01*
X146000173Y-86328203D01*
X146044160Y-86389421D01*
X146111747Y-86452560D01*
X146212556Y-86553369D01*
X146096294Y-86718312D01*
X146131415Y-86940054D01*
X147020727Y-87586177D01*
X147032482Y-87569997D01*
X147237973Y-87719294D01*
X147226217Y-87735475D01*
X147842197Y-88183011D01*
X152128540Y-92469355D01*
X152164078Y-92512658D01*
X152207381Y-92548196D01*
X152207383Y-92548198D01*
X152336904Y-92654493D01*
X152398782Y-92687567D01*
X152391405Y-92724656D01*
X152391405Y-92906956D01*
X152366738Y-92988274D01*
X152356672Y-93090475D01*
X152352064Y-93137260D01*
X152355741Y-93174592D01*
X152355740Y-96004464D01*
X151094722Y-92125580D01*
X151081846Y-92076353D01*
X151056592Y-92024365D01*
X151033418Y-91971406D01*
X151025009Y-91959345D01*
X151018586Y-91946122D01*
X150983673Y-91900057D01*
X150950614Y-91852640D01*
X150940014Y-91842452D01*
X150931134Y-91830735D01*
X150887891Y-91792353D01*
X150846230Y-91752310D01*
X150803383Y-91724891D01*
X147384123Y-89243698D01*
X147461510Y-89239135D01*
X147582540Y-89207552D01*
X147695085Y-89152965D01*
X147794817Y-89077470D01*
X147877904Y-88983968D01*
X148001352Y-88808830D01*
X147966231Y-88587088D01*
X147076919Y-87940965D01*
X147065164Y-87957145D01*
X146859673Y-87807848D01*
X146871429Y-87791667D01*
X145982117Y-87145544D01*
X145760375Y-87180665D01*
X145631957Y-87352191D01*
X145568706Y-87460106D01*
X145527725Y-87578286D01*
X145510588Y-87702190D01*
X145517951Y-87827057D01*
X145538054Y-87904094D01*
X143415441Y-86363815D01*
X143497327Y-86358986D01*
X143618358Y-86327404D01*
X143730902Y-86272816D01*
X143830634Y-86197321D01*
X143913721Y-86103819D01*
X144501506Y-85294802D01*
X144564756Y-85186888D01*
X144605737Y-85068708D01*
X144622875Y-84944803D01*
X144615511Y-84819936D01*
X144583929Y-84698905D01*
X144529341Y-84586361D01*
X144453846Y-84486629D01*
X144360344Y-84403542D01*
X143146819Y-83521865D01*
X143038905Y-83458615D01*
X142939919Y-83424290D01*
X142933756Y-83385377D01*
X142064669Y-82753949D01*
X141514062Y-83511796D01*
X141549182Y-83733538D01*
X141902737Y-83994208D01*
X141981431Y-84040332D01*
X141961202Y-84068175D01*
X141855778Y-84063074D01*
X140124274Y-82720762D01*
X140210539Y-82600658D01*
X140467132Y-82600658D01*
X140474496Y-82725525D01*
X140506078Y-82846555D01*
X140560665Y-82959100D01*
X140636161Y-83058832D01*
X140729663Y-83141919D01*
X141086829Y-83397619D01*
X141308571Y-83362498D01*
X141859179Y-82604651D01*
X140990093Y-81973223D01*
X140768350Y-82008344D01*
X140588501Y-82250659D01*
X140525251Y-82358573D01*
X140484269Y-82476753D01*
X140467132Y-82600658D01*
X140210539Y-82600658D01*
X140393953Y-82345300D01*
X140358832Y-82123557D01*
X139388618Y-81418656D01*
X139376863Y-81434836D01*
X139171372Y-81285539D01*
X139183128Y-81269358D01*
X139166948Y-81257603D01*
X139199233Y-81213166D01*
X139537916Y-81213166D01*
X140508130Y-81918067D01*
X140729872Y-81882946D01*
X141064015Y-81428264D01*
X141127265Y-81320350D01*
X141168246Y-81202170D01*
X141185384Y-81078265D01*
X141178020Y-80953399D01*
X141146437Y-80832368D01*
X141091850Y-80719823D01*
X141016355Y-80620091D01*
X140922853Y-80537004D01*
X140464560Y-80207831D01*
X140242817Y-80242952D01*
X139537916Y-81213166D01*
X139199233Y-81213166D01*
X139316245Y-81052112D01*
X139332426Y-81063868D01*
X140037327Y-80093654D01*
X140027766Y-80033288D01*
X141633475Y-80033288D01*
X141858877Y-80543514D01*
G37*
%TD.AperFunction*%
D18*
X151419469Y-83796819D02*
X151460505Y-83885832D01*
X151523750Y-83993738D01*
X151538188Y-84013610D01*
X151550612Y-84034808D01*
X151844505Y-84439317D01*
X151860803Y-84457654D01*
X151875257Y-84477548D01*
X151958347Y-84571053D01*
X152030322Y-84637586D01*
X152130052Y-84713080D01*
X152213625Y-84764294D01*
X152326170Y-84818882D01*
X152418130Y-84852808D01*
X152539163Y-84884391D01*
X152635972Y-84899724D01*
X152650165Y-84900561D01*
X152889061Y-85227733D01*
X152869868Y-85253088D01*
X152815280Y-85365632D01*
X152783698Y-85486664D01*
X152776334Y-85611531D01*
X152793472Y-85735435D01*
X152834453Y-85853615D01*
X152897703Y-85961529D01*
X154043884Y-87539112D01*
X154126971Y-87632613D01*
X154226703Y-87708109D01*
X154339247Y-87762696D01*
X154460278Y-87794279D01*
X154585145Y-87801643D01*
X154709049Y-87784505D01*
X154827230Y-87743524D01*
X154935144Y-87680274D01*
X155007147Y-87627961D01*
X155025063Y-87654774D01*
X155169226Y-87798937D01*
X155338744Y-87912205D01*
X155527102Y-87990226D01*
X155727061Y-88030000D01*
X155930939Y-88030000D01*
X156130898Y-87990226D01*
X156319256Y-87912205D01*
X156488774Y-87798937D01*
X156632937Y-87654774D01*
X156746205Y-87485256D01*
X156824226Y-87296898D01*
X156864000Y-87096939D01*
X156864000Y-86893061D01*
X156824226Y-86693102D01*
X156746205Y-86504744D01*
X156632937Y-86335226D01*
X156627193Y-86329482D01*
X156731592Y-86315042D01*
X156849773Y-86274061D01*
X156957687Y-86210811D01*
X157449279Y-85853649D01*
X157138640Y-89075393D01*
X156359852Y-89641215D01*
X156266350Y-89724302D01*
X156225975Y-89777639D01*
X156106877Y-89753949D01*
X155902999Y-89753949D01*
X155703040Y-89793723D01*
X155514682Y-89871744D01*
X155345164Y-89985012D01*
X155201001Y-90129175D01*
X155087733Y-90298693D01*
X155009712Y-90487051D01*
X154969938Y-90687010D01*
X154969938Y-90890888D01*
X155009712Y-91090847D01*
X155087733Y-91279205D01*
X155184261Y-91423670D01*
X154703665Y-90943074D01*
X154668118Y-90899760D01*
X154495292Y-90757925D01*
X154298116Y-90652533D01*
X154084168Y-90587632D01*
X153917421Y-90571209D01*
X153917420Y-90571209D01*
X153861669Y-90565718D01*
X153805918Y-90571209D01*
X153440660Y-90571209D01*
X149480082Y-86610633D01*
X149575998Y-86564110D01*
X149675730Y-86488615D01*
X149758817Y-86395113D01*
X150346602Y-85586096D01*
X150409852Y-85478182D01*
X150450833Y-85360002D01*
X150467971Y-85236097D01*
X150460607Y-85111230D01*
X150429025Y-84990199D01*
X150374437Y-84877655D01*
X150343056Y-84836199D01*
X151409933Y-83769321D01*
X151419469Y-83796819D01*
%TA.AperFunction,Conductor*%
D19*
G36*
X151419469Y-83796819D02*
G01*
X151460505Y-83885832D01*
X151523750Y-83993738D01*
X151538188Y-84013610D01*
X151550612Y-84034808D01*
X151844505Y-84439317D01*
X151860803Y-84457654D01*
X151875257Y-84477548D01*
X151958347Y-84571053D01*
X152030322Y-84637586D01*
X152130052Y-84713080D01*
X152213625Y-84764294D01*
X152326170Y-84818882D01*
X152418130Y-84852808D01*
X152539163Y-84884391D01*
X152635972Y-84899724D01*
X152650165Y-84900561D01*
X152889061Y-85227733D01*
X152869868Y-85253088D01*
X152815280Y-85365632D01*
X152783698Y-85486664D01*
X152776334Y-85611531D01*
X152793472Y-85735435D01*
X152834453Y-85853615D01*
X152897703Y-85961529D01*
X154043884Y-87539112D01*
X154126971Y-87632613D01*
X154226703Y-87708109D01*
X154339247Y-87762696D01*
X154460278Y-87794279D01*
X154585145Y-87801643D01*
X154709049Y-87784505D01*
X154827230Y-87743524D01*
X154935144Y-87680274D01*
X155007147Y-87627961D01*
X155025063Y-87654774D01*
X155169226Y-87798937D01*
X155338744Y-87912205D01*
X155527102Y-87990226D01*
X155727061Y-88030000D01*
X155930939Y-88030000D01*
X156130898Y-87990226D01*
X156319256Y-87912205D01*
X156488774Y-87798937D01*
X156632937Y-87654774D01*
X156746205Y-87485256D01*
X156824226Y-87296898D01*
X156864000Y-87096939D01*
X156864000Y-86893061D01*
X156824226Y-86693102D01*
X156746205Y-86504744D01*
X156632937Y-86335226D01*
X156627193Y-86329482D01*
X156731592Y-86315042D01*
X156849773Y-86274061D01*
X156957687Y-86210811D01*
X157449279Y-85853649D01*
X157138640Y-89075393D01*
X156359852Y-89641215D01*
X156266350Y-89724302D01*
X156225975Y-89777639D01*
X156106877Y-89753949D01*
X155902999Y-89753949D01*
X155703040Y-89793723D01*
X155514682Y-89871744D01*
X155345164Y-89985012D01*
X155201001Y-90129175D01*
X155087733Y-90298693D01*
X155009712Y-90487051D01*
X154969938Y-90687010D01*
X154969938Y-90890888D01*
X155009712Y-91090847D01*
X155087733Y-91279205D01*
X155184261Y-91423670D01*
X154703665Y-90943074D01*
X154668118Y-90899760D01*
X154495292Y-90757925D01*
X154298116Y-90652533D01*
X154084168Y-90587632D01*
X153917421Y-90571209D01*
X153917420Y-90571209D01*
X153861669Y-90565718D01*
X153805918Y-90571209D01*
X153440660Y-90571209D01*
X149480082Y-86610633D01*
X149575998Y-86564110D01*
X149675730Y-86488615D01*
X149758817Y-86395113D01*
X150346602Y-85586096D01*
X150409852Y-85478182D01*
X150450833Y-85360002D01*
X150467971Y-85236097D01*
X150460607Y-85111230D01*
X150429025Y-84990199D01*
X150374437Y-84877655D01*
X150343056Y-84836199D01*
X151409933Y-83769321D01*
X151419469Y-83796819D01*
G37*
%TD.AperFunction*%
D18*
X160607104Y-78619584D02*
X160642646Y-78662893D01*
X160815472Y-78804728D01*
X161012648Y-78910120D01*
X161226596Y-78975021D01*
X161393343Y-78991444D01*
X161393352Y-78991444D01*
X161414002Y-78993478D01*
X161415826Y-79120682D01*
X161574576Y-79279432D01*
X162673826Y-79279432D01*
X162673826Y-79259432D01*
X162927826Y-79259432D01*
X162927826Y-79279432D01*
X162947826Y-79279432D01*
X162947826Y-79533432D01*
X162927826Y-79533432D01*
X162927826Y-80382682D01*
X163086576Y-80541432D01*
X163550826Y-80544504D01*
X163675308Y-80532244D01*
X163795006Y-80495934D01*
X163905320Y-80436969D01*
X164002011Y-80357617D01*
X164081363Y-80260926D01*
X164140328Y-80150612D01*
X164171255Y-80048659D01*
X166147117Y-83025815D01*
X166109726Y-83032492D01*
X165993246Y-83078082D01*
X165887898Y-83145519D01*
X165797731Y-83232214D01*
X165726210Y-83334833D01*
X165676082Y-83449433D01*
X165271409Y-84694889D01*
X162852379Y-87113920D01*
X162558036Y-86708792D01*
X162558036Y-83340964D01*
X162561712Y-83303641D01*
X162558036Y-83266318D01*
X162558036Y-83266309D01*
X162547039Y-83154656D01*
X162503582Y-83011395D01*
X162433010Y-82879366D01*
X162338037Y-82763641D01*
X162309040Y-82739844D01*
X159475628Y-79906432D01*
X161412754Y-79906432D01*
X161425014Y-80030914D01*
X161461324Y-80150612D01*
X161520289Y-80260926D01*
X161599641Y-80357617D01*
X161696332Y-80436969D01*
X161806646Y-80495934D01*
X161926344Y-80532244D01*
X162050826Y-80544504D01*
X162515076Y-80541432D01*
X162673826Y-80382682D01*
X162673826Y-79533432D01*
X161574576Y-79533432D01*
X161415826Y-79692182D01*
X161412754Y-79906432D01*
X159475628Y-79906432D01*
X159288898Y-79719703D01*
X159288898Y-78906432D01*
X159276638Y-78781950D01*
X159240328Y-78662252D01*
X159181363Y-78551938D01*
X159102011Y-78455247D01*
X159005320Y-78375895D01*
X158895006Y-78316930D01*
X158775308Y-78280620D01*
X158650826Y-78268360D01*
X157150826Y-78268360D01*
X157026344Y-78280620D01*
X156906646Y-78316930D01*
X156808000Y-78369658D01*
X156808000Y-78253498D01*
X156649252Y-78253498D01*
X156808000Y-78094750D01*
X156811072Y-77793000D01*
X156798812Y-77668518D01*
X156762502Y-77548820D01*
X156704603Y-77440500D01*
X157746007Y-77440500D01*
X157801758Y-77445991D01*
X157857509Y-77440500D01*
X157857510Y-77440500D01*
X158024257Y-77424077D01*
X158238205Y-77359176D01*
X158265655Y-77344504D01*
X158650826Y-77344504D01*
X158682018Y-77341432D01*
X159328952Y-77341432D01*
X160607104Y-78619584D01*
%TA.AperFunction,Conductor*%
D19*
G36*
X160607104Y-78619584D02*
G01*
X160642646Y-78662893D01*
X160815472Y-78804728D01*
X161012648Y-78910120D01*
X161226596Y-78975021D01*
X161393343Y-78991444D01*
X161393352Y-78991444D01*
X161414002Y-78993478D01*
X161415826Y-79120682D01*
X161574576Y-79279432D01*
X162673826Y-79279432D01*
X162673826Y-79259432D01*
X162927826Y-79259432D01*
X162927826Y-79279432D01*
X162947826Y-79279432D01*
X162947826Y-79533432D01*
X162927826Y-79533432D01*
X162927826Y-80382682D01*
X163086576Y-80541432D01*
X163550826Y-80544504D01*
X163675308Y-80532244D01*
X163795006Y-80495934D01*
X163905320Y-80436969D01*
X164002011Y-80357617D01*
X164081363Y-80260926D01*
X164140328Y-80150612D01*
X164171255Y-80048659D01*
X166147117Y-83025815D01*
X166109726Y-83032492D01*
X165993246Y-83078082D01*
X165887898Y-83145519D01*
X165797731Y-83232214D01*
X165726210Y-83334833D01*
X165676082Y-83449433D01*
X165271409Y-84694889D01*
X162852379Y-87113920D01*
X162558036Y-86708792D01*
X162558036Y-83340964D01*
X162561712Y-83303641D01*
X162558036Y-83266318D01*
X162558036Y-83266309D01*
X162547039Y-83154656D01*
X162503582Y-83011395D01*
X162433010Y-82879366D01*
X162338037Y-82763641D01*
X162309040Y-82739844D01*
X159475628Y-79906432D01*
X161412754Y-79906432D01*
X161425014Y-80030914D01*
X161461324Y-80150612D01*
X161520289Y-80260926D01*
X161599641Y-80357617D01*
X161696332Y-80436969D01*
X161806646Y-80495934D01*
X161926344Y-80532244D01*
X162050826Y-80544504D01*
X162515076Y-80541432D01*
X162673826Y-80382682D01*
X162673826Y-79533432D01*
X161574576Y-79533432D01*
X161415826Y-79692182D01*
X161412754Y-79906432D01*
X159475628Y-79906432D01*
X159288898Y-79719703D01*
X159288898Y-78906432D01*
X159276638Y-78781950D01*
X159240328Y-78662252D01*
X159181363Y-78551938D01*
X159102011Y-78455247D01*
X159005320Y-78375895D01*
X158895006Y-78316930D01*
X158775308Y-78280620D01*
X158650826Y-78268360D01*
X157150826Y-78268360D01*
X157026344Y-78280620D01*
X156906646Y-78316930D01*
X156808000Y-78369658D01*
X156808000Y-78253498D01*
X156649252Y-78253498D01*
X156808000Y-78094750D01*
X156811072Y-77793000D01*
X156798812Y-77668518D01*
X156762502Y-77548820D01*
X156704603Y-77440500D01*
X157746007Y-77440500D01*
X157801758Y-77445991D01*
X157857509Y-77440500D01*
X157857510Y-77440500D01*
X158024257Y-77424077D01*
X158238205Y-77359176D01*
X158265655Y-77344504D01*
X158650826Y-77344504D01*
X158682018Y-77341432D01*
X159328952Y-77341432D01*
X160607104Y-78619584D01*
G37*
%TD.AperFunction*%
D18*
X155575000Y-78253500D02*
X155595000Y-78253500D01*
X155595000Y-78507500D01*
X155575000Y-78507500D01*
X155575000Y-79444250D01*
X155733750Y-79603000D01*
X156173000Y-79606072D01*
X156297482Y-79593812D01*
X156417180Y-79557502D01*
X156512754Y-79506416D01*
X156512754Y-79906432D01*
X156525014Y-80030914D01*
X156561324Y-80150612D01*
X156620289Y-80260926D01*
X156699641Y-80357617D01*
X156796332Y-80436969D01*
X156906646Y-80495934D01*
X157026344Y-80532244D01*
X157150826Y-80544504D01*
X157964097Y-80544504D01*
X161038036Y-83618444D01*
X161038037Y-86242316D01*
X160515612Y-86621879D01*
X160108413Y-86531782D01*
X160061937Y-86462226D01*
X159917774Y-86318063D01*
X159748256Y-86204795D01*
X159559898Y-86126774D01*
X159359939Y-86087000D01*
X159156061Y-86087000D01*
X158956102Y-86126774D01*
X158949738Y-86129410D01*
X159091360Y-84660607D01*
X159870148Y-84094785D01*
X159963650Y-84011698D01*
X160039145Y-83911966D01*
X160093733Y-83799422D01*
X160125315Y-83678390D01*
X160132679Y-83553523D01*
X160115541Y-83429619D01*
X160074560Y-83311439D01*
X160011310Y-83203525D01*
X158865129Y-81625942D01*
X158782042Y-81532441D01*
X158682310Y-81456945D01*
X158569766Y-81402358D01*
X158448735Y-81370775D01*
X158323868Y-81363411D01*
X158199964Y-81380549D01*
X158081783Y-81421530D01*
X157973869Y-81484780D01*
X157288253Y-81982908D01*
X155772312Y-81549688D01*
X155495495Y-81168683D01*
X155479197Y-81150346D01*
X155464743Y-81130452D01*
X155381653Y-81036947D01*
X155309678Y-80970414D01*
X155209948Y-80894920D01*
X155126375Y-80843706D01*
X155013830Y-80789118D01*
X154921870Y-80755192D01*
X154800837Y-80723609D01*
X154704028Y-80708276D01*
X154579163Y-80700912D01*
X154481220Y-80704760D01*
X154357312Y-80721898D01*
X154262003Y-80744780D01*
X154143820Y-80785764D01*
X154054808Y-80826800D01*
X153946911Y-80890038D01*
X153927033Y-80904479D01*
X153905833Y-80916905D01*
X153460874Y-81240187D01*
X153367373Y-81323274D01*
X153367045Y-81323707D01*
X153366535Y-81323884D01*
X153258621Y-81387134D01*
X153030235Y-81553066D01*
X151828712Y-81553066D01*
X151791387Y-81549390D01*
X151754062Y-81553066D01*
X151754054Y-81553066D01*
X151642401Y-81564063D01*
X151499140Y-81607520D01*
X151367111Y-81678092D01*
X151251386Y-81773065D01*
X151227588Y-81802063D01*
X149121989Y-83907663D01*
X148991915Y-83813159D01*
X148884001Y-83749909D01*
X148765821Y-83708928D01*
X148641916Y-83691790D01*
X148517049Y-83699154D01*
X148396018Y-83730736D01*
X148283474Y-83785324D01*
X148183742Y-83860819D01*
X148100655Y-83954321D01*
X147620728Y-84614884D01*
X146448354Y-82590290D01*
X146486650Y-82479854D01*
X146503788Y-82355949D01*
X146496424Y-82231082D01*
X146464842Y-82110051D01*
X146410254Y-81997507D01*
X146334759Y-81897775D01*
X146241257Y-81814688D01*
X145670969Y-81400349D01*
X145658675Y-81388865D01*
X145634702Y-81374000D01*
X145616848Y-81361028D01*
X144665970Y-80584048D01*
X144596094Y-80439983D01*
X144491019Y-80301176D01*
X144360883Y-80185534D01*
X144151334Y-80033288D01*
X146777467Y-80033288D01*
X146833218Y-80038779D01*
X146888969Y-80033288D01*
X146888970Y-80033288D01*
X147055717Y-80016865D01*
X147269665Y-79951964D01*
X147466841Y-79846572D01*
X147639667Y-79704737D01*
X147675214Y-79661424D01*
X147987535Y-79349103D01*
X147996498Y-79349985D01*
X148142253Y-79364341D01*
X148142260Y-79364341D01*
X148198004Y-79369831D01*
X148253748Y-79364341D01*
X152743408Y-79364341D01*
X152799159Y-79369832D01*
X152854910Y-79364341D01*
X152854911Y-79364341D01*
X153021658Y-79347918D01*
X153235606Y-79283017D01*
X153432782Y-79177625D01*
X153605608Y-79035790D01*
X153641155Y-78992476D01*
X154126129Y-78507502D01*
X154246748Y-78507502D01*
X154088000Y-78666250D01*
X154084928Y-78968000D01*
X154097188Y-79092482D01*
X154133498Y-79212180D01*
X154192463Y-79322494D01*
X154271815Y-79419185D01*
X154368506Y-79498537D01*
X154478820Y-79557502D01*
X154598518Y-79593812D01*
X154723000Y-79606072D01*
X155162250Y-79603000D01*
X155321000Y-79444250D01*
X155321000Y-78507500D01*
X155301000Y-78507500D01*
X155301000Y-78253500D01*
X155321000Y-78253500D01*
X155321000Y-78233500D01*
X155575000Y-78233500D01*
X155575000Y-78253500D01*
%TA.AperFunction,Conductor*%
D19*
G36*
X155575000Y-78253500D02*
G01*
X155595000Y-78253500D01*
X155595000Y-78507500D01*
X155575000Y-78507500D01*
X155575000Y-79444250D01*
X155733750Y-79603000D01*
X156173000Y-79606072D01*
X156297482Y-79593812D01*
X156417180Y-79557502D01*
X156512754Y-79506416D01*
X156512754Y-79906432D01*
X156525014Y-80030914D01*
X156561324Y-80150612D01*
X156620289Y-80260926D01*
X156699641Y-80357617D01*
X156796332Y-80436969D01*
X156906646Y-80495934D01*
X157026344Y-80532244D01*
X157150826Y-80544504D01*
X157964097Y-80544504D01*
X161038036Y-83618444D01*
X161038037Y-86242316D01*
X160515612Y-86621879D01*
X160108413Y-86531782D01*
X160061937Y-86462226D01*
X159917774Y-86318063D01*
X159748256Y-86204795D01*
X159559898Y-86126774D01*
X159359939Y-86087000D01*
X159156061Y-86087000D01*
X158956102Y-86126774D01*
X158949738Y-86129410D01*
X159091360Y-84660607D01*
X159870148Y-84094785D01*
X159963650Y-84011698D01*
X160039145Y-83911966D01*
X160093733Y-83799422D01*
X160125315Y-83678390D01*
X160132679Y-83553523D01*
X160115541Y-83429619D01*
X160074560Y-83311439D01*
X160011310Y-83203525D01*
X158865129Y-81625942D01*
X158782042Y-81532441D01*
X158682310Y-81456945D01*
X158569766Y-81402358D01*
X158448735Y-81370775D01*
X158323868Y-81363411D01*
X158199964Y-81380549D01*
X158081783Y-81421530D01*
X157973869Y-81484780D01*
X157288253Y-81982908D01*
X155772312Y-81549688D01*
X155495495Y-81168683D01*
X155479197Y-81150346D01*
X155464743Y-81130452D01*
X155381653Y-81036947D01*
X155309678Y-80970414D01*
X155209948Y-80894920D01*
X155126375Y-80843706D01*
X155013830Y-80789118D01*
X154921870Y-80755192D01*
X154800837Y-80723609D01*
X154704028Y-80708276D01*
X154579163Y-80700912D01*
X154481220Y-80704760D01*
X154357312Y-80721898D01*
X154262003Y-80744780D01*
X154143820Y-80785764D01*
X154054808Y-80826800D01*
X153946911Y-80890038D01*
X153927033Y-80904479D01*
X153905833Y-80916905D01*
X153460874Y-81240187D01*
X153367373Y-81323274D01*
X153367045Y-81323707D01*
X153366535Y-81323884D01*
X153258621Y-81387134D01*
X153030235Y-81553066D01*
X151828712Y-81553066D01*
X151791387Y-81549390D01*
X151754062Y-81553066D01*
X151754054Y-81553066D01*
X151642401Y-81564063D01*
X151499140Y-81607520D01*
X151367111Y-81678092D01*
X151251386Y-81773065D01*
X151227588Y-81802063D01*
X149121989Y-83907663D01*
X148991915Y-83813159D01*
X148884001Y-83749909D01*
X148765821Y-83708928D01*
X148641916Y-83691790D01*
X148517049Y-83699154D01*
X148396018Y-83730736D01*
X148283474Y-83785324D01*
X148183742Y-83860819D01*
X148100655Y-83954321D01*
X147620728Y-84614884D01*
X146448354Y-82590290D01*
X146486650Y-82479854D01*
X146503788Y-82355949D01*
X146496424Y-82231082D01*
X146464842Y-82110051D01*
X146410254Y-81997507D01*
X146334759Y-81897775D01*
X146241257Y-81814688D01*
X145670969Y-81400349D01*
X145658675Y-81388865D01*
X145634702Y-81374000D01*
X145616848Y-81361028D01*
X144665970Y-80584048D01*
X144596094Y-80439983D01*
X144491019Y-80301176D01*
X144360883Y-80185534D01*
X144151334Y-80033288D01*
X146777467Y-80033288D01*
X146833218Y-80038779D01*
X146888969Y-80033288D01*
X146888970Y-80033288D01*
X147055717Y-80016865D01*
X147269665Y-79951964D01*
X147466841Y-79846572D01*
X147639667Y-79704737D01*
X147675214Y-79661424D01*
X147987535Y-79349103D01*
X147996498Y-79349985D01*
X148142253Y-79364341D01*
X148142260Y-79364341D01*
X148198004Y-79369831D01*
X148253748Y-79364341D01*
X152743408Y-79364341D01*
X152799159Y-79369832D01*
X152854910Y-79364341D01*
X152854911Y-79364341D01*
X153021658Y-79347918D01*
X153235606Y-79283017D01*
X153432782Y-79177625D01*
X153605608Y-79035790D01*
X153641155Y-78992476D01*
X154126129Y-78507502D01*
X154246748Y-78507502D01*
X154088000Y-78666250D01*
X154084928Y-78968000D01*
X154097188Y-79092482D01*
X154133498Y-79212180D01*
X154192463Y-79322494D01*
X154271815Y-79419185D01*
X154368506Y-79498537D01*
X154478820Y-79557502D01*
X154598518Y-79593812D01*
X154723000Y-79606072D01*
X155162250Y-79603000D01*
X155321000Y-79444250D01*
X155321000Y-78507500D01*
X155301000Y-78507500D01*
X155301000Y-78253500D01*
X155321000Y-78253500D01*
X155321000Y-78233500D01*
X155575000Y-78233500D01*
X155575000Y-78253500D01*
G37*
%TD.AperFunction*%
D18*
X145676493Y-75238131D02*
X145456345Y-75194340D01*
X145163825Y-75194340D01*
X144876927Y-75251408D01*
X144606674Y-75363350D01*
X144363453Y-75525865D01*
X144156610Y-75732708D01*
X143994095Y-75975929D01*
X143882153Y-76246182D01*
X143825085Y-76533080D01*
X143825085Y-76825600D01*
X143882153Y-77112498D01*
X143994095Y-77382751D01*
X144156610Y-77625972D01*
X144293926Y-77763288D01*
X142415387Y-77763288D01*
X142346332Y-77758107D01*
X142303886Y-77763288D01*
X141783412Y-77763288D01*
X141955228Y-77506147D01*
X142082246Y-77199496D01*
X142147000Y-76873958D01*
X142147000Y-76542042D01*
X142082246Y-76216504D01*
X141955228Y-75909853D01*
X141770825Y-75633875D01*
X141536125Y-75399175D01*
X141260147Y-75214772D01*
X140953496Y-75087754D01*
X140627958Y-75023000D01*
X140296042Y-75023000D01*
X139970504Y-75087754D01*
X139663853Y-75214772D01*
X139387875Y-75399175D01*
X139153175Y-75633875D01*
X138968772Y-75909853D01*
X138841754Y-76216504D01*
X138777000Y-76542042D01*
X138777000Y-76873958D01*
X138841754Y-77199496D01*
X138968772Y-77506147D01*
X139153042Y-77781926D01*
X139055729Y-77811446D01*
X139004594Y-77826718D01*
X139002333Y-77827643D01*
X138946395Y-77844612D01*
X138899143Y-77869869D01*
X137768331Y-78332597D01*
X137738777Y-78320355D01*
X137451879Y-78263287D01*
X137159359Y-78263287D01*
X136872461Y-78320355D01*
X136735716Y-78376996D01*
X136735716Y-78109053D01*
X136678648Y-77822155D01*
X136566706Y-77551902D01*
X136404191Y-77308681D01*
X136197348Y-77101838D01*
X135954127Y-76939323D01*
X135683874Y-76827381D01*
X135396976Y-76770313D01*
X135104456Y-76770313D01*
X134817558Y-76827381D01*
X134547305Y-76939323D01*
X134304084Y-77101838D01*
X134097241Y-77308681D01*
X133934726Y-77551902D01*
X133822784Y-77822155D01*
X133765716Y-78109053D01*
X133765716Y-78401573D01*
X133822784Y-78688471D01*
X133934726Y-78958724D01*
X134097241Y-79201945D01*
X134304084Y-79408788D01*
X134547305Y-79571303D01*
X134817558Y-79683245D01*
X134954698Y-79710524D01*
X135195614Y-80399080D01*
X127655886Y-74927860D01*
X145996316Y-74918308D01*
X145676493Y-75238131D01*
%TA.AperFunction,Conductor*%
D19*
G36*
X145676493Y-75238131D02*
G01*
X145456345Y-75194340D01*
X145163825Y-75194340D01*
X144876927Y-75251408D01*
X144606674Y-75363350D01*
X144363453Y-75525865D01*
X144156610Y-75732708D01*
X143994095Y-75975929D01*
X143882153Y-76246182D01*
X143825085Y-76533080D01*
X143825085Y-76825600D01*
X143882153Y-77112498D01*
X143994095Y-77382751D01*
X144156610Y-77625972D01*
X144293926Y-77763288D01*
X142415387Y-77763288D01*
X142346332Y-77758107D01*
X142303886Y-77763288D01*
X141783412Y-77763288D01*
X141955228Y-77506147D01*
X142082246Y-77199496D01*
X142147000Y-76873958D01*
X142147000Y-76542042D01*
X142082246Y-76216504D01*
X141955228Y-75909853D01*
X141770825Y-75633875D01*
X141536125Y-75399175D01*
X141260147Y-75214772D01*
X140953496Y-75087754D01*
X140627958Y-75023000D01*
X140296042Y-75023000D01*
X139970504Y-75087754D01*
X139663853Y-75214772D01*
X139387875Y-75399175D01*
X139153175Y-75633875D01*
X138968772Y-75909853D01*
X138841754Y-76216504D01*
X138777000Y-76542042D01*
X138777000Y-76873958D01*
X138841754Y-77199496D01*
X138968772Y-77506147D01*
X139153042Y-77781926D01*
X139055729Y-77811446D01*
X139004594Y-77826718D01*
X139002333Y-77827643D01*
X138946395Y-77844612D01*
X138899143Y-77869869D01*
X137768331Y-78332597D01*
X137738777Y-78320355D01*
X137451879Y-78263287D01*
X137159359Y-78263287D01*
X136872461Y-78320355D01*
X136735716Y-78376996D01*
X136735716Y-78109053D01*
X136678648Y-77822155D01*
X136566706Y-77551902D01*
X136404191Y-77308681D01*
X136197348Y-77101838D01*
X135954127Y-76939323D01*
X135683874Y-76827381D01*
X135396976Y-76770313D01*
X135104456Y-76770313D01*
X134817558Y-76827381D01*
X134547305Y-76939323D01*
X134304084Y-77101838D01*
X134097241Y-77308681D01*
X133934726Y-77551902D01*
X133822784Y-77822155D01*
X133765716Y-78109053D01*
X133765716Y-78401573D01*
X133822784Y-78688471D01*
X133934726Y-78958724D01*
X134097241Y-79201945D01*
X134304084Y-79408788D01*
X134547305Y-79571303D01*
X134817558Y-79683245D01*
X134954698Y-79710524D01*
X135195614Y-80399080D01*
X127655886Y-74927860D01*
X145996316Y-74918308D01*
X145676493Y-75238131D01*
G37*
%TD.AperFunction*%
D18*
X153916551Y-75499051D02*
X153881011Y-75542357D01*
X152329028Y-77094341D01*
X151875789Y-77094341D01*
X151875085Y-76965090D01*
X151716335Y-76806340D01*
X150517085Y-76806340D01*
X150517085Y-76826340D01*
X150263085Y-76826340D01*
X150263085Y-76806340D01*
X150243085Y-76806340D01*
X150243085Y-76552340D01*
X150263085Y-76552340D01*
X150263085Y-76532340D01*
X150517085Y-76532340D01*
X150517085Y-76552340D01*
X151716335Y-76552340D01*
X151875085Y-76393590D01*
X151878157Y-75829340D01*
X151865897Y-75704858D01*
X151829587Y-75585160D01*
X151780855Y-75493991D01*
X153922717Y-75493991D01*
X153916551Y-75499051D01*
%TA.AperFunction,Conductor*%
D19*
G36*
X153916551Y-75499051D02*
G01*
X153881011Y-75542357D01*
X152329028Y-77094341D01*
X151875789Y-77094341D01*
X151875085Y-76965090D01*
X151716335Y-76806340D01*
X150517085Y-76806340D01*
X150517085Y-76826340D01*
X150263085Y-76826340D01*
X150263085Y-76806340D01*
X150243085Y-76806340D01*
X150243085Y-76552340D01*
X150263085Y-76552340D01*
X150263085Y-76532340D01*
X150517085Y-76532340D01*
X150517085Y-76552340D01*
X151716335Y-76552340D01*
X151875085Y-76393590D01*
X151878157Y-75829340D01*
X151865897Y-75704858D01*
X151829587Y-75585160D01*
X151780855Y-75493991D01*
X153922717Y-75493991D01*
X153916551Y-75499051D01*
G37*
%TD.AperFunction*%
%TD*%
M02*
