%TF.GenerationSoftware,KiCad,Pcbnew,5.1.8*%
%TF.CreationDate,2021-01-20T11:21:44-05:00*%
%TF.ProjectId,penrosedart,70656e72-6f73-4656-9461-72742e6b6963,rev?*%
%TF.SameCoordinates,Original*%
%TF.FileFunction,Copper,L1,Top*%
%TF.FilePolarity,Positive*%
%FSLAX46Y46*%
G04 Gerber Fmt 4.6, Leading zero omitted, Abs format (unit mm)*
G04 Created by KiCad (PCBNEW 5.1.8) date 2021-01-20 11:21:44*
%MOMM*%
%LPD*%
G01*
G04 APERTURE LIST*
%TA.AperFunction,SMDPad,CuDef*%
%ADD10C,0.100000*%
%TD*%
%TA.AperFunction,SMDPad,CuDef*%
%ADD11R,1.500000X1.000000*%
%TD*%
%TA.AperFunction,ComponentPad*%
%ADD12C,0.100000*%
%TD*%
%TA.AperFunction,ComponentPad*%
%ADD13O,1.700000X1.700000*%
%TD*%
%TA.AperFunction,ComponentPad*%
%ADD14R,1.700000X1.700000*%
%TD*%
%TA.AperFunction,ViaPad*%
%ADD15C,0.800000*%
%TD*%
%TA.AperFunction,Conductor*%
%ADD16C,1.000000*%
%TD*%
%TA.AperFunction,Conductor*%
%ADD17C,0.250000*%
%TD*%
%TA.AperFunction,Conductor*%
%ADD18C,0.254000*%
%TD*%
%TA.AperFunction,Conductor*%
%ADD19C,0.100000*%
%TD*%
G04 APERTURE END LIST*
%TO.P,C1,2*%
%TO.N,VCC*%
%TA.AperFunction,SMDPad,CuDef*%
G36*
G01*
X156016242Y-101795306D02*
X156309808Y-102698810D01*
G75*
G02*
X156149298Y-103013828I-237764J-77254D01*
G01*
X155507334Y-103222414D01*
G75*
G02*
X155192316Y-103061904I-77254J237764D01*
G01*
X154898750Y-102158400D01*
G75*
G02*
X155059260Y-101843382I237764J77254D01*
G01*
X155701224Y-101634796D01*
G75*
G02*
X156016242Y-101795306I77254J-237764D01*
G01*
G37*
%TD.AperFunction*%
%TO.P,C1,1*%
%TO.N,GND*%
%TA.AperFunction,SMDPad,CuDef*%
G36*
G01*
X157989684Y-101154096D02*
X158283250Y-102057600D01*
G75*
G02*
X158122740Y-102372618I-237764J-77254D01*
G01*
X157480776Y-102581204D01*
G75*
G02*
X157165758Y-102420694I-77254J237764D01*
G01*
X156872192Y-101517190D01*
G75*
G02*
X157032702Y-101202172I237764J77254D01*
G01*
X157674666Y-100993586D01*
G75*
G02*
X157989684Y-101154096I77254J-237764D01*
G01*
G37*
%TD.AperFunction*%
%TD*%
%TO.P,C2,1*%
%TO.N,GND*%
%TA.AperFunction,SMDPad,CuDef*%
G36*
G01*
X151065867Y-87687150D02*
X151834434Y-88245546D01*
G75*
G02*
X151889742Y-88594746I-146946J-202254D01*
G01*
X151492987Y-89140832D01*
G75*
G02*
X151143787Y-89196140I-202254J146946D01*
G01*
X150375220Y-88637744D01*
G75*
G02*
X150319912Y-88288544I146946J202254D01*
G01*
X150716667Y-87742458D01*
G75*
G02*
X151065867Y-87687150I202254J-146946D01*
G01*
G37*
%TD.AperFunction*%
%TO.P,C2,2*%
%TO.N,VCC*%
%TA.AperFunction,SMDPad,CuDef*%
G36*
G01*
X149846213Y-89365860D02*
X150614780Y-89924256D01*
G75*
G02*
X150670088Y-90273456I-146946J-202254D01*
G01*
X150273333Y-90819542D01*
G75*
G02*
X149924133Y-90874850I-202254J146946D01*
G01*
X149155566Y-90316454D01*
G75*
G02*
X149100258Y-89967254I146946J202254D01*
G01*
X149497013Y-89421168D01*
G75*
G02*
X149846213Y-89365860I202254J-146946D01*
G01*
G37*
%TD.AperFunction*%
%TD*%
%TO.P,C3,2*%
%TO.N,VCC*%
%TA.AperFunction,SMDPad,CuDef*%
G36*
G01*
X164945808Y-90849190D02*
X164652242Y-91752694D01*
G75*
G02*
X164337224Y-91913204I-237764J77254D01*
G01*
X163695260Y-91704618D01*
G75*
G02*
X163534750Y-91389600I77254J237764D01*
G01*
X163828316Y-90486096D01*
G75*
G02*
X164143334Y-90325586I237764J-77254D01*
G01*
X164785298Y-90534172D01*
G75*
G02*
X164945808Y-90849190I-77254J-237764D01*
G01*
G37*
%TD.AperFunction*%
%TO.P,C3,1*%
%TO.N,GND*%
%TA.AperFunction,SMDPad,CuDef*%
G36*
G01*
X166919250Y-91490400D02*
X166625684Y-92393904D01*
G75*
G02*
X166310666Y-92554414I-237764J77254D01*
G01*
X165668702Y-92345828D01*
G75*
G02*
X165508192Y-92030810I77254J237764D01*
G01*
X165801758Y-91127306D01*
G75*
G02*
X166116776Y-90966796I237764J-77254D01*
G01*
X166758740Y-91175382D01*
G75*
G02*
X166919250Y-91490400I-77254J-237764D01*
G01*
G37*
%TD.AperFunction*%
%TD*%
%TO.P,C4,1*%
%TO.N,GND*%
%TA.AperFunction,SMDPad,CuDef*%
G36*
G01*
X155923000Y-78968000D02*
X154973000Y-78968000D01*
G75*
G02*
X154723000Y-78718000I0J250000D01*
G01*
X154723000Y-78043000D01*
G75*
G02*
X154973000Y-77793000I250000J0D01*
G01*
X155923000Y-77793000D01*
G75*
G02*
X156173000Y-78043000I0J-250000D01*
G01*
X156173000Y-78718000D01*
G75*
G02*
X155923000Y-78968000I-250000J0D01*
G01*
G37*
%TD.AperFunction*%
%TO.P,C4,2*%
%TO.N,VCC*%
%TA.AperFunction,SMDPad,CuDef*%
G36*
G01*
X155923000Y-76893000D02*
X154973000Y-76893000D01*
G75*
G02*
X154723000Y-76643000I0J250000D01*
G01*
X154723000Y-75968000D01*
G75*
G02*
X154973000Y-75718000I250000J0D01*
G01*
X155923000Y-75718000D01*
G75*
G02*
X156173000Y-75968000I0J-250000D01*
G01*
X156173000Y-76643000D01*
G75*
G02*
X155923000Y-76893000I-250000J0D01*
G01*
G37*
%TD.AperFunction*%
%TD*%
%TA.AperFunction,SMDPad,CuDef*%
D10*
%TO.P,D1,3*%
%TO.N,GND*%
G36*
X155725843Y-94130374D02*
G01*
X156676900Y-93821357D01*
X157140425Y-95247942D01*
X156189368Y-95556959D01*
X155725843Y-94130374D01*
G37*
%TD.AperFunction*%
%TA.AperFunction,SMDPad,CuDef*%
%TO.P,D1,4*%
%TO.N,Net-(D1-Pad4)*%
G36*
X152682462Y-95119229D02*
G01*
X153633519Y-94810212D01*
X154097044Y-96236797D01*
X153145987Y-96545814D01*
X152682462Y-95119229D01*
G37*
%TD.AperFunction*%
%TA.AperFunction,SMDPad,CuDef*%
%TO.P,D1,2*%
%TO.N,Net-(D1-Pad2)*%
G36*
X157240026Y-98790551D02*
G01*
X158191083Y-98481534D01*
X158654608Y-99908119D01*
X157703551Y-100217136D01*
X157240026Y-98790551D01*
G37*
%TD.AperFunction*%
%TA.AperFunction,SMDPad,CuDef*%
%TO.P,D1,1*%
%TO.N,VCC*%
G36*
X154196645Y-99779406D02*
G01*
X155147702Y-99470389D01*
X155611227Y-100896974D01*
X154660170Y-101205991D01*
X154196645Y-99779406D01*
G37*
%TD.AperFunction*%
%TD*%
%TA.AperFunction,SMDPad,CuDef*%
%TO.P,D2,1*%
%TO.N,VCC*%
G36*
X164768742Y-88306785D02*
G01*
X165719799Y-88615802D01*
X165256274Y-90042387D01*
X164305217Y-89733370D01*
X164768742Y-88306785D01*
G37*
%TD.AperFunction*%
%TA.AperFunction,SMDPad,CuDef*%
%TO.P,D2,2*%
%TO.N,Net-(D2-Pad2)*%
G36*
X167812123Y-89295640D02*
G01*
X168763180Y-89604657D01*
X168299655Y-91031242D01*
X167348598Y-90722225D01*
X167812123Y-89295640D01*
G37*
%TD.AperFunction*%
%TA.AperFunction,SMDPad,CuDef*%
%TO.P,D2,4*%
%TO.N,Net-(D2-Pad4)*%
G36*
X166282925Y-83646608D02*
G01*
X167233982Y-83955625D01*
X166770457Y-85382210D01*
X165819400Y-85073193D01*
X166282925Y-83646608D01*
G37*
%TD.AperFunction*%
%TA.AperFunction,SMDPad,CuDef*%
%TO.P,D2,3*%
%TO.N,GND*%
G36*
X169326306Y-84635463D02*
G01*
X170277363Y-84944480D01*
X169813838Y-86371065D01*
X168862781Y-86062048D01*
X169326306Y-84635463D01*
G37*
%TD.AperFunction*%
%TD*%
%TA.AperFunction,SMDPad,CuDef*%
%TO.P,D3,1*%
%TO.N,VCC*%
G36*
X147223417Y-88414330D02*
G01*
X147811202Y-87605313D01*
X149024727Y-88486990D01*
X148436942Y-89296007D01*
X147223417Y-88414330D01*
G37*
%TD.AperFunction*%
%TA.AperFunction,SMDPad,CuDef*%
%TO.P,D3,2*%
%TO.N,Net-(D3-Pad2)*%
G36*
X149104330Y-85825476D02*
G01*
X149692115Y-85016459D01*
X150905640Y-85898136D01*
X150317855Y-86707153D01*
X149104330Y-85825476D01*
G37*
%TD.AperFunction*%
%TA.AperFunction,SMDPad,CuDef*%
%TO.P,D3,4*%
%TO.N,Net-(D3-Pad4)*%
G36*
X143259234Y-85534182D02*
G01*
X143847019Y-84725165D01*
X145060544Y-85606842D01*
X144472759Y-86415859D01*
X143259234Y-85534182D01*
G37*
%TD.AperFunction*%
%TA.AperFunction,SMDPad,CuDef*%
%TO.P,D3,3*%
%TO.N,GND*%
G36*
X145140147Y-82945328D02*
G01*
X145727932Y-82136311D01*
X146941457Y-83017988D01*
X146353672Y-83827005D01*
X145140147Y-82945328D01*
G37*
%TD.AperFunction*%
%TD*%
D11*
%TO.P,D4,3*%
%TO.N,GND*%
X162800826Y-79406432D03*
%TO.P,D4,4*%
%TO.N,Net-(D4-Pad4)*%
X162800826Y-76206432D03*
%TO.P,D4,2*%
%TO.N,Net-(D4-Pad2)*%
X157900826Y-79406432D03*
%TO.P,D4,1*%
%TO.N,VCC*%
X157900826Y-76206432D03*
%TD*%
%TO.P,J1,3*%
%TO.N,Net-(D1-Pad2)*%
%TA.AperFunction,ComponentPad*%
G36*
G01*
X158301067Y-111335428D02*
X158301067Y-111335428D01*
G75*
G02*
X158846801Y-110264366I808398J262664D01*
G01*
X158846801Y-110264366D01*
G75*
G02*
X159917863Y-110810100I262664J-808398D01*
G01*
X159917863Y-110810100D01*
G75*
G02*
X159372129Y-111881162I-808398J-262664D01*
G01*
X159372129Y-111881162D01*
G75*
G02*
X158301067Y-111335428I-262664J808398D01*
G01*
G37*
%TD.AperFunction*%
%TO.P,J1,2*%
%TO.N,VCC*%
%TA.AperFunction,ComponentPad*%
G36*
G01*
X157516164Y-108919745D02*
X157516164Y-108919745D01*
G75*
G02*
X158061898Y-107848683I808398J262664D01*
G01*
X158061898Y-107848683D01*
G75*
G02*
X159132960Y-108394417I262664J-808398D01*
G01*
X159132960Y-108394417D01*
G75*
G02*
X158587226Y-109465479I-808398J-262664D01*
G01*
X158587226Y-109465479D01*
G75*
G02*
X157516164Y-108919745I-262664J808398D01*
G01*
G37*
%TD.AperFunction*%
%TA.AperFunction,ComponentPad*%
D12*
%TO.P,J1,1*%
%TO.N,GND*%
G36*
X156993925Y-107312459D02*
G01*
X156468597Y-105695663D01*
X158085393Y-105170335D01*
X158610721Y-106787131D01*
X156993925Y-107312459D01*
G37*
%TD.AperFunction*%
%TD*%
%TA.AperFunction,ComponentPad*%
%TO.P,J2,1*%
%TO.N,GND*%
G36*
X164212856Y-97707416D02*
G01*
X164738184Y-96090620D01*
X166354980Y-96615948D01*
X165829652Y-98232744D01*
X164212856Y-97707416D01*
G37*
%TD.AperFunction*%
%TO.P,J2,2*%
%TO.N,VCC*%
%TA.AperFunction,ComponentPad*%
G36*
G01*
X163690617Y-99314702D02*
X163690617Y-99314702D01*
G75*
G02*
X164761679Y-98768968I808398J-262664D01*
G01*
X164761679Y-98768968D01*
G75*
G02*
X165307413Y-99840030I-262664J-808398D01*
G01*
X165307413Y-99840030D01*
G75*
G02*
X164236351Y-100385764I-808398J262664D01*
G01*
X164236351Y-100385764D01*
G75*
G02*
X163690617Y-99314702I262664J808398D01*
G01*
G37*
%TD.AperFunction*%
%TO.P,J2,3*%
%TO.N,Net-(D2-Pad2)*%
%TA.AperFunction,ComponentPad*%
G36*
G01*
X162905714Y-101730385D02*
X162905714Y-101730385D01*
G75*
G02*
X163976776Y-101184651I808398J-262664D01*
G01*
X163976776Y-101184651D01*
G75*
G02*
X164522510Y-102255713I-262664J-808398D01*
G01*
X164522510Y-102255713D01*
G75*
G02*
X163451448Y-102801447I-808398J262664D01*
G01*
X163451448Y-102801447D01*
G75*
G02*
X162905714Y-101730385I262664J808398D01*
G01*
G37*
%TD.AperFunction*%
%TD*%
%TA.AperFunction,ComponentPad*%
%TO.P,J3,1*%
%TO.N,GND*%
G36*
X139172475Y-80053980D02*
G01*
X140547804Y-81053215D01*
X139548569Y-82428544D01*
X138173240Y-81429309D01*
X139172475Y-80053980D01*
G37*
%TD.AperFunction*%
%TO.P,J3,2*%
%TO.N,VCC*%
%TA.AperFunction,ComponentPad*%
G36*
G01*
X137805236Y-79060623D02*
X137805236Y-79060623D01*
G75*
G02*
X137993283Y-80247904I-499617J-687664D01*
G01*
X137993283Y-80247904D01*
G75*
G02*
X136806002Y-80435951I-687664J499617D01*
G01*
X136806002Y-80435951D01*
G75*
G02*
X136617955Y-79248670I499617J687664D01*
G01*
X136617955Y-79248670D01*
G75*
G02*
X137805236Y-79060623I687664J-499617D01*
G01*
G37*
%TD.AperFunction*%
%TO.P,J3,3*%
%TO.N,Net-(D3-Pad4)*%
%TA.AperFunction,ComponentPad*%
G36*
G01*
X135750333Y-77567649D02*
X135750333Y-77567649D01*
G75*
G02*
X135938380Y-78754930I-499617J-687664D01*
G01*
X135938380Y-78754930D01*
G75*
G02*
X134751099Y-78942977I-687664J499617D01*
G01*
X134751099Y-78942977D01*
G75*
G02*
X134563052Y-77755696I499617J687664D01*
G01*
X134563052Y-77755696D01*
G75*
G02*
X135750333Y-77567649I687664J-499617D01*
G01*
G37*
%TD.AperFunction*%
%TD*%
D13*
%TO.P,J4,3*%
%TO.N,Net-(D4-Pad4)*%
X145310085Y-76679340D03*
%TO.P,J4,2*%
%TO.N,VCC*%
X147850085Y-76679340D03*
D14*
%TO.P,J4,1*%
%TO.N,GND*%
X150390085Y-76679340D03*
%TD*%
%TA.AperFunction,SMDPad,CuDef*%
D10*
%TO.P,JP1,2*%
%TO.N,Net-(D2-Pad4)*%
G36*
X160618670Y-91555345D02*
G01*
X161500347Y-92768870D01*
X160691330Y-93356655D01*
X159809653Y-92143130D01*
X160618670Y-91555345D01*
G37*
%TD.AperFunction*%
%TA.AperFunction,SMDPad,CuDef*%
%TO.P,JP1,3*%
%TO.N,Net-(D3-Pad2)*%
G36*
X160043763Y-93826397D02*
G01*
X160023915Y-93840817D01*
X159981582Y-93865628D01*
X159937022Y-93886171D01*
X159890662Y-93902247D01*
X159842950Y-93913702D01*
X159794346Y-93920424D01*
X159745316Y-93922352D01*
X159696334Y-93919463D01*
X159647869Y-93911786D01*
X159600392Y-93899398D01*
X159554357Y-93882414D01*
X159510208Y-93861001D01*
X159468371Y-93835363D01*
X159429248Y-93805748D01*
X159393217Y-93772440D01*
X159360624Y-93735762D01*
X159346203Y-93715914D01*
X159345716Y-93716268D01*
X159051823Y-93311759D01*
X159052310Y-93311406D01*
X159037889Y-93291557D01*
X159013079Y-93249225D01*
X158992535Y-93204665D01*
X158976460Y-93158305D01*
X158965004Y-93110593D01*
X158958283Y-93061988D01*
X158956355Y-93012958D01*
X158959244Y-92963976D01*
X158966920Y-92915511D01*
X158979309Y-92868034D01*
X158996293Y-92821999D01*
X159017706Y-92777851D01*
X159043344Y-92736014D01*
X159072959Y-92696891D01*
X159106267Y-92660860D01*
X159142944Y-92628266D01*
X159162793Y-92613845D01*
X159162439Y-92613358D01*
X159607398Y-92290076D01*
X160489076Y-93503602D01*
X160044117Y-93826884D01*
X160043763Y-93826397D01*
G37*
%TD.AperFunction*%
%TA.AperFunction,SMDPad,CuDef*%
%TO.P,JP1,1*%
%TO.N,Net-(D4-Pad2)*%
G36*
X160820924Y-91408398D02*
G01*
X161265883Y-91085116D01*
X161266237Y-91085603D01*
X161286085Y-91071183D01*
X161328418Y-91046372D01*
X161372978Y-91025829D01*
X161419338Y-91009753D01*
X161467050Y-90998298D01*
X161515654Y-90991576D01*
X161564684Y-90989648D01*
X161613666Y-90992537D01*
X161662131Y-91000214D01*
X161709608Y-91012602D01*
X161755643Y-91029586D01*
X161799792Y-91050999D01*
X161841629Y-91076637D01*
X161880752Y-91106252D01*
X161916783Y-91139560D01*
X161949376Y-91176238D01*
X161963797Y-91196086D01*
X161964284Y-91195732D01*
X162258177Y-91600241D01*
X162257690Y-91600594D01*
X162272111Y-91620443D01*
X162296921Y-91662775D01*
X162317465Y-91707335D01*
X162333540Y-91753695D01*
X162344996Y-91801407D01*
X162351717Y-91850012D01*
X162353645Y-91899042D01*
X162350756Y-91948024D01*
X162343080Y-91996489D01*
X162330691Y-92043966D01*
X162313707Y-92090001D01*
X162292294Y-92134149D01*
X162266656Y-92175986D01*
X162237041Y-92215109D01*
X162203733Y-92251140D01*
X162167056Y-92283734D01*
X162147207Y-92298155D01*
X162147561Y-92298642D01*
X161702602Y-92621924D01*
X160820924Y-91408398D01*
G37*
%TD.AperFunction*%
%TD*%
%TA.AperFunction,SMDPad,CuDef*%
%TO.P,JP2,1*%
%TO.N,Net-(D3-Pad2)*%
G36*
X153835924Y-81756398D02*
G01*
X154280883Y-81433116D01*
X154281237Y-81433603D01*
X154301085Y-81419183D01*
X154343418Y-81394372D01*
X154387978Y-81373829D01*
X154434338Y-81357753D01*
X154482050Y-81346298D01*
X154530654Y-81339576D01*
X154579684Y-81337648D01*
X154628666Y-81340537D01*
X154677131Y-81348214D01*
X154724608Y-81360602D01*
X154770643Y-81377586D01*
X154814792Y-81398999D01*
X154856629Y-81424637D01*
X154895752Y-81454252D01*
X154931783Y-81487560D01*
X154964376Y-81524238D01*
X154978797Y-81544086D01*
X154979284Y-81543732D01*
X155273177Y-81948241D01*
X155272690Y-81948594D01*
X155287111Y-81968443D01*
X155311921Y-82010775D01*
X155332465Y-82055335D01*
X155348540Y-82101695D01*
X155359996Y-82149407D01*
X155366717Y-82198012D01*
X155368645Y-82247042D01*
X155365756Y-82296024D01*
X155358080Y-82344489D01*
X155345691Y-82391966D01*
X155328707Y-82438001D01*
X155307294Y-82482149D01*
X155281656Y-82523986D01*
X155252041Y-82563109D01*
X155218733Y-82599140D01*
X155182056Y-82631734D01*
X155162207Y-82646155D01*
X155162561Y-82646642D01*
X154717602Y-82969924D01*
X153835924Y-81756398D01*
G37*
%TD.AperFunction*%
%TA.AperFunction,SMDPad,CuDef*%
%TO.P,JP2,3*%
%TO.N,Net-(D4-Pad2)*%
G36*
X153058763Y-84174397D02*
G01*
X153038915Y-84188817D01*
X152996582Y-84213628D01*
X152952022Y-84234171D01*
X152905662Y-84250247D01*
X152857950Y-84261702D01*
X152809346Y-84268424D01*
X152760316Y-84270352D01*
X152711334Y-84267463D01*
X152662869Y-84259786D01*
X152615392Y-84247398D01*
X152569357Y-84230414D01*
X152525208Y-84209001D01*
X152483371Y-84183363D01*
X152444248Y-84153748D01*
X152408217Y-84120440D01*
X152375624Y-84083762D01*
X152361203Y-84063914D01*
X152360716Y-84064268D01*
X152066823Y-83659759D01*
X152067310Y-83659406D01*
X152052889Y-83639557D01*
X152028079Y-83597225D01*
X152007535Y-83552665D01*
X151991460Y-83506305D01*
X151980004Y-83458593D01*
X151973283Y-83409988D01*
X151971355Y-83360958D01*
X151974244Y-83311976D01*
X151981920Y-83263511D01*
X151994309Y-83216034D01*
X152011293Y-83169999D01*
X152032706Y-83125851D01*
X152058344Y-83084014D01*
X152087959Y-83044891D01*
X152121267Y-83008860D01*
X152157944Y-82976266D01*
X152177793Y-82961845D01*
X152177439Y-82961358D01*
X152622398Y-82638076D01*
X153504076Y-83851602D01*
X153059117Y-84174884D01*
X153058763Y-84174397D01*
G37*
%TD.AperFunction*%
%TA.AperFunction,SMDPad,CuDef*%
%TO.P,JP2,2*%
%TO.N,Net-(D1-Pad4)*%
G36*
X153633670Y-81903345D02*
G01*
X154515347Y-83116870D01*
X153706330Y-83704655D01*
X152824653Y-82491130D01*
X153633670Y-81903345D01*
G37*
%TD.AperFunction*%
%TD*%
%TA.AperFunction,SMDPad,CuDef*%
%TO.P,SW1,1*%
%TO.N,Net-(D3-Pad2)*%
G36*
X157458999Y-82647554D02*
G01*
X158348918Y-82000991D01*
X159495099Y-83578574D01*
X158605180Y-84225137D01*
X157458999Y-82647554D01*
G37*
%TD.AperFunction*%
%TA.AperFunction,SMDPad,CuDef*%
%TO.P,SW1,2*%
%TO.N,Net-(D1-Pad4)*%
G36*
X155436457Y-84117017D02*
G01*
X156326376Y-83470454D01*
X157472557Y-85048037D01*
X156582638Y-85694600D01*
X155436457Y-84117017D01*
G37*
%TD.AperFunction*%
%TA.AperFunction,SMDPad,CuDef*%
%TO.P,SW1,3*%
%TO.N,Net-(D4-Pad2)*%
G36*
X153413914Y-85586480D02*
G01*
X154303833Y-84939917D01*
X155450014Y-86517500D01*
X154560095Y-87164063D01*
X153413914Y-85586480D01*
G37*
%TD.AperFunction*%
%TA.AperFunction,SMDPad,CuDef*%
%TO.P,SW1,4*%
G36*
X160779986Y-87218500D02*
G01*
X161669905Y-86571937D01*
X162816086Y-88149520D01*
X161926167Y-88796083D01*
X160779986Y-87218500D01*
G37*
%TD.AperFunction*%
%TA.AperFunction,SMDPad,CuDef*%
%TO.P,SW1,5*%
%TO.N,Net-(D2-Pad4)*%
G36*
X158757443Y-88687963D02*
G01*
X159647362Y-88041400D01*
X160793543Y-89618983D01*
X159903624Y-90265546D01*
X158757443Y-88687963D01*
G37*
%TD.AperFunction*%
%TA.AperFunction,SMDPad,CuDef*%
%TO.P,SW1,6*%
%TO.N,Net-(D3-Pad2)*%
G36*
X156734901Y-90157426D02*
G01*
X157624820Y-89510863D01*
X158771001Y-91088446D01*
X157881082Y-91735009D01*
X156734901Y-90157426D01*
G37*
%TD.AperFunction*%
%TD*%
D15*
%TO.N,GND*%
X147193000Y-83947000D03*
X156562909Y-100612091D03*
X156972000Y-96139000D03*
X166624000Y-90170000D03*
X169164000Y-87122000D03*
X155448000Y-79883000D03*
X149987000Y-87503000D03*
X161163000Y-79502000D03*
%TO.N,Net-(D1-Pad4)*%
X154305000Y-92710000D03*
X156593393Y-89400772D03*
%TO.N,Net-(D4-Pad2)*%
X159258000Y-87122000D03*
X155829000Y-86995000D03*
%TD*%
D16*
%TO.N,VCC*%
X148124072Y-88450660D02*
X149885173Y-90120355D01*
X164240279Y-91119395D02*
X165012508Y-89174586D01*
X138155618Y-78898288D02*
X139382842Y-78898288D01*
X137305619Y-79748287D02*
X138155618Y-78898288D01*
X148980084Y-78229341D02*
X152418159Y-78229341D01*
X159310731Y-107670912D02*
X159310731Y-105405707D01*
X163296934Y-99577366D02*
X164499015Y-99577366D01*
X159310731Y-103563569D02*
X163296934Y-99577366D01*
X158324562Y-108657081D02*
X159310731Y-107670912D01*
X163512846Y-92609137D02*
X164240279Y-91881704D01*
X164240279Y-91881704D02*
X164240279Y-91119395D01*
X163512846Y-98591197D02*
X163512846Y-92609137D01*
X164499015Y-99577366D02*
X163512846Y-98591197D01*
X139382842Y-78898288D02*
X139978365Y-78898288D01*
X139978365Y-78898288D02*
X148124072Y-87043995D01*
X148124072Y-87043995D02*
X148124072Y-88450660D01*
X154903936Y-100338190D02*
X155604279Y-102428605D01*
X155604279Y-102428605D02*
X159310731Y-104722269D01*
X159310731Y-104722269D02*
X159310731Y-103563569D01*
X159310731Y-107670912D02*
X159310731Y-104722269D01*
X154723000Y-76305500D02*
X155448000Y-76305500D01*
X152799159Y-78229341D02*
X154723000Y-76305500D01*
X148198005Y-78229341D02*
X152799159Y-78229341D01*
X147850085Y-77881421D02*
X148198005Y-78229341D01*
X157801758Y-76305500D02*
X157900826Y-76206432D01*
X155448000Y-76305500D02*
X157801758Y-76305500D01*
X147850085Y-77881421D02*
X147850085Y-76679340D01*
X146833218Y-78898288D02*
X147850085Y-77881421D01*
X139382842Y-78898288D02*
X146833218Y-78898288D01*
X163422874Y-99577366D02*
X164499015Y-99577366D01*
X153965863Y-90120355D02*
X163422874Y-99577366D01*
X149885173Y-90120355D02*
X153965863Y-90120355D01*
X157900826Y-76206432D02*
X159799083Y-76206432D01*
X167933992Y-86253102D02*
X165012508Y-89174586D01*
X159799083Y-76206432D02*
X161449095Y-77856444D01*
X167933992Y-83665670D02*
X167933992Y-86253102D01*
X164078556Y-77856444D02*
X167933992Y-83665670D01*
X161449095Y-77856444D02*
X164078556Y-77856444D01*
D17*
%TO.N,GND*%
X152019000Y-94615000D02*
X152781000Y-97282000D01*
X147970469Y-89621017D02*
X147996413Y-89621017D01*
X146898407Y-88548955D02*
X147970469Y-89621017D01*
X146898407Y-86985071D02*
X146898407Y-88548955D01*
X146040802Y-83221583D02*
X146040802Y-82981658D01*
X151104827Y-88285608D02*
X147106610Y-84287390D01*
X151104827Y-88441645D02*
X151104827Y-88285608D01*
X157577721Y-101787395D02*
X156562909Y-100612091D01*
X162800826Y-79271430D02*
X162800826Y-79406432D01*
X147106610Y-84287390D02*
X146040802Y-83221583D01*
X149139198Y-90763802D02*
X151130000Y-92329000D01*
X147996413Y-89621017D02*
X148336000Y-90297000D01*
X148336000Y-90297000D02*
X151257000Y-92329000D01*
X139360522Y-81241262D02*
X144066168Y-84152832D01*
X144066168Y-84152832D02*
X146898407Y-86985071D01*
X155448000Y-78380500D02*
X157734000Y-77978000D01*
X157734000Y-77978000D02*
X162800826Y-79406432D01*
X157149561Y-109221082D02*
X157783479Y-109855000D01*
X165674016Y-97551780D02*
X165283918Y-97161682D01*
X157783479Y-109855000D02*
X157783479Y-109832082D01*
X162306000Y-101981000D02*
X162691020Y-101350020D01*
X163222992Y-100818048D02*
X164997335Y-100818048D01*
X157149561Y-106631495D02*
X157149561Y-109221082D01*
X157783479Y-109832082D02*
X161188920Y-109832082D01*
X161188920Y-109832082D02*
X163554001Y-107467001D01*
X165674016Y-100141367D02*
X165674016Y-97551780D01*
X163554001Y-107467001D02*
X163554001Y-103940201D01*
X157539659Y-106241397D02*
X157149561Y-106631495D01*
X162691020Y-101350020D02*
X163222992Y-100818048D01*
X163554001Y-103940201D02*
X162394900Y-102781100D01*
X162394900Y-102781100D02*
X162306000Y-101981000D01*
X164997335Y-100818048D02*
X165674016Y-100141367D01*
X169570072Y-84683928D02*
X169570072Y-85503264D01*
X171831000Y-78232000D02*
X171831000Y-82423000D01*
X156172739Y-75381431D02*
X160140823Y-75381431D01*
X156161180Y-75392990D02*
X156172739Y-75381431D01*
X160140823Y-75381431D02*
X161790825Y-77031433D01*
X151676435Y-75392990D02*
X156161180Y-75392990D01*
X171831000Y-82423000D02*
X169570072Y-84683928D01*
X150390085Y-76679340D02*
X151676435Y-75392990D01*
X156972000Y-104902000D02*
X157539659Y-106241397D01*
X155034519Y-103791481D02*
X156972000Y-104902000D01*
X153871635Y-100214456D02*
X155034519Y-103791481D01*
X153871635Y-99644781D02*
X153871635Y-100214456D01*
X154371037Y-99145379D02*
X153871635Y-99644781D01*
X154371037Y-99145379D02*
X155448000Y-98933000D01*
X155448000Y-98933000D02*
X156562909Y-100612091D01*
X164153433Y-77031433D02*
X165227000Y-76200000D01*
X161790825Y-77031433D02*
X164153433Y-77031433D01*
X165227000Y-76200000D02*
X169672000Y-76200000D01*
X169672000Y-76200000D02*
X171831000Y-78232000D01*
X137059592Y-81241262D02*
X139360522Y-81241262D01*
X147286084Y-75504339D02*
X146675084Y-76115339D01*
X149215084Y-75504339D02*
X147286084Y-75504339D01*
X146675084Y-76115339D02*
X146675084Y-77053343D01*
X146675084Y-77053343D02*
X145874086Y-77854341D01*
X142224742Y-75332999D02*
X141859000Y-75057000D01*
X145874086Y-77854341D02*
X144746084Y-77854341D01*
X150390085Y-76679340D02*
X149215084Y-75504339D01*
X144746084Y-77854341D02*
X142224742Y-75332999D01*
X139065000Y-75057000D02*
X136425717Y-78709281D01*
X136130618Y-79184286D02*
X136130618Y-80312288D01*
X141859000Y-75057000D02*
X139065000Y-75057000D01*
X136130618Y-80312288D02*
X137059592Y-81241262D01*
X136425717Y-78709281D02*
X136425717Y-78889187D01*
X136425717Y-78889187D02*
X136130618Y-79184286D01*
%TO.N,Net-(D1-Pad4)*%
X153670000Y-82804000D02*
X156454507Y-84582527D01*
X156593393Y-84721413D02*
X156454507Y-84582527D01*
X156593393Y-89400772D02*
X156593393Y-84721413D01*
X154305000Y-92710000D02*
X153389753Y-95678013D01*
%TO.N,Net-(D1-Pad2)*%
X155011783Y-105177088D02*
X155375428Y-105718428D01*
X153421624Y-100285767D02*
X155011783Y-105177088D01*
X156845000Y-110236000D02*
X159109465Y-111072764D01*
X153421624Y-99308376D02*
X153421624Y-100285767D01*
X155375428Y-105718428D02*
X156845000Y-110236000D01*
X153987500Y-98742500D02*
X155859978Y-98267022D01*
X157947317Y-99349335D02*
X155859978Y-98267022D01*
X153987500Y-98742500D02*
X153421624Y-99308376D01*
%TO.N,Net-(D2-Pad2)*%
X163714112Y-101993049D02*
X166116000Y-101092000D01*
X166116000Y-101092000D02*
X168055889Y-90163441D01*
%TO.N,Net-(D2-Pad4)*%
X159775493Y-89153473D02*
X160655000Y-92456000D01*
X163198275Y-87842825D02*
X166526691Y-84514409D01*
X161191940Y-92992940D02*
X161920377Y-92992940D01*
X160655000Y-92456000D02*
X161191940Y-92992940D01*
X162762659Y-92150659D02*
X163198275Y-87842825D01*
X161920377Y-92992940D02*
X162762659Y-92150659D01*
%TO.N,Net-(D3-Pad2)*%
X154721722Y-82039879D02*
X158477049Y-83113064D01*
X157752951Y-90622936D02*
X159603278Y-93220121D01*
X154260178Y-81578335D02*
X154721722Y-82039879D01*
X153093348Y-81578335D02*
X154260178Y-81578335D01*
X150004985Y-84666698D02*
X153093348Y-81578335D01*
X150004985Y-85861806D02*
X150004985Y-84666698D01*
X158477049Y-83113064D02*
X157752951Y-90622936D01*
%TO.N,Net-(D3-Pad4)*%
X135250716Y-80068797D02*
X137935473Y-82753554D01*
X135250716Y-78255313D02*
X135250716Y-80068797D01*
X137935473Y-82753554D02*
X144159889Y-85570512D01*
%TO.N,Net-(D4-Pad4)*%
X145310085Y-76679340D02*
X147255434Y-74733991D01*
X147255434Y-74733991D02*
X162078385Y-74733991D01*
X162078385Y-74733991D02*
X162800826Y-75456432D01*
X162800826Y-75456432D02*
X162800826Y-76206432D01*
%TO.N,Net-(D4-Pad2)*%
X152618278Y-83568121D02*
X154431964Y-86051990D01*
X161798036Y-87684010D02*
X161706722Y-91691879D01*
X161798036Y-83303642D02*
X161798036Y-87684010D01*
X157900826Y-79406432D02*
X161798036Y-83303642D01*
X159258000Y-87122000D02*
X161798036Y-87684010D01*
X154431964Y-86051990D02*
X155829000Y-86995000D01*
%TD*%
D18*
%TO.N,GND*%
X159935449Y-119319606D02*
X157300509Y-111214546D01*
X157649204Y-111343396D01*
X157681533Y-111505922D01*
X157793475Y-111776175D01*
X157955990Y-112019396D01*
X158162833Y-112226239D01*
X158406054Y-112388754D01*
X158676307Y-112500696D01*
X158963205Y-112557764D01*
X159255725Y-112557764D01*
X159542623Y-112500696D01*
X159812876Y-112388754D01*
X160056097Y-112226239D01*
X160262940Y-112019396D01*
X160425455Y-111776175D01*
X160537397Y-111505922D01*
X160594465Y-111219024D01*
X160594465Y-110926504D01*
X160537397Y-110639606D01*
X160425455Y-110369353D01*
X160262940Y-110126132D01*
X160056097Y-109919289D01*
X159812876Y-109756774D01*
X159542623Y-109644832D01*
X159454456Y-109627294D01*
X159478037Y-109603713D01*
X159640552Y-109360492D01*
X159752494Y-109090239D01*
X159809562Y-108803341D01*
X159809562Y-108777213D01*
X160073876Y-108512899D01*
X160117180Y-108477361D01*
X160158309Y-108427246D01*
X160259015Y-108304535D01*
X160364407Y-108107359D01*
X160429308Y-107893411D01*
X160451222Y-107670912D01*
X160445731Y-107615160D01*
X160445731Y-106641042D01*
X160494000Y-106641042D01*
X160494000Y-106972958D01*
X160558754Y-107298496D01*
X160685772Y-107605147D01*
X160870175Y-107881125D01*
X161104875Y-108115825D01*
X161380853Y-108300228D01*
X161687504Y-108427246D01*
X162013042Y-108492000D01*
X162344958Y-108492000D01*
X162670496Y-108427246D01*
X162977147Y-108300228D01*
X163253125Y-108115825D01*
X163487825Y-107881125D01*
X163672228Y-107605147D01*
X163799246Y-107298496D01*
X163864000Y-106972958D01*
X163864000Y-106641042D01*
X163799246Y-106315504D01*
X163672228Y-106008853D01*
X163487825Y-105732875D01*
X163253125Y-105498175D01*
X162977147Y-105313772D01*
X162670496Y-105186754D01*
X162344958Y-105122000D01*
X162013042Y-105122000D01*
X161687504Y-105186754D01*
X161380853Y-105313772D01*
X161104875Y-105498175D01*
X160870175Y-105732875D01*
X160685772Y-106008853D01*
X160558754Y-106315504D01*
X160494000Y-106641042D01*
X160445731Y-106641042D01*
X160445731Y-104758183D01*
X160450528Y-104682476D01*
X160445731Y-104646642D01*
X160445731Y-104033700D01*
X162247530Y-102231902D01*
X162286180Y-102426207D01*
X162398122Y-102696460D01*
X162560637Y-102939681D01*
X162767480Y-103146524D01*
X163010701Y-103309039D01*
X163280954Y-103420981D01*
X163567852Y-103478049D01*
X163860372Y-103478049D01*
X164147270Y-103420981D01*
X164417523Y-103309039D01*
X164660744Y-103146524D01*
X164867587Y-102939681D01*
X165030102Y-102696460D01*
X165142044Y-102426207D01*
X165175817Y-102256420D01*
X165525271Y-102125326D01*
X159935449Y-119319606D01*
%TA.AperFunction,Conductor*%
D19*
G36*
X159935449Y-119319606D02*
G01*
X157300509Y-111214546D01*
X157649204Y-111343396D01*
X157681533Y-111505922D01*
X157793475Y-111776175D01*
X157955990Y-112019396D01*
X158162833Y-112226239D01*
X158406054Y-112388754D01*
X158676307Y-112500696D01*
X158963205Y-112557764D01*
X159255725Y-112557764D01*
X159542623Y-112500696D01*
X159812876Y-112388754D01*
X160056097Y-112226239D01*
X160262940Y-112019396D01*
X160425455Y-111776175D01*
X160537397Y-111505922D01*
X160594465Y-111219024D01*
X160594465Y-110926504D01*
X160537397Y-110639606D01*
X160425455Y-110369353D01*
X160262940Y-110126132D01*
X160056097Y-109919289D01*
X159812876Y-109756774D01*
X159542623Y-109644832D01*
X159454456Y-109627294D01*
X159478037Y-109603713D01*
X159640552Y-109360492D01*
X159752494Y-109090239D01*
X159809562Y-108803341D01*
X159809562Y-108777213D01*
X160073876Y-108512899D01*
X160117180Y-108477361D01*
X160158309Y-108427246D01*
X160259015Y-108304535D01*
X160364407Y-108107359D01*
X160429308Y-107893411D01*
X160451222Y-107670912D01*
X160445731Y-107615160D01*
X160445731Y-106641042D01*
X160494000Y-106641042D01*
X160494000Y-106972958D01*
X160558754Y-107298496D01*
X160685772Y-107605147D01*
X160870175Y-107881125D01*
X161104875Y-108115825D01*
X161380853Y-108300228D01*
X161687504Y-108427246D01*
X162013042Y-108492000D01*
X162344958Y-108492000D01*
X162670496Y-108427246D01*
X162977147Y-108300228D01*
X163253125Y-108115825D01*
X163487825Y-107881125D01*
X163672228Y-107605147D01*
X163799246Y-107298496D01*
X163864000Y-106972958D01*
X163864000Y-106641042D01*
X163799246Y-106315504D01*
X163672228Y-106008853D01*
X163487825Y-105732875D01*
X163253125Y-105498175D01*
X162977147Y-105313772D01*
X162670496Y-105186754D01*
X162344958Y-105122000D01*
X162013042Y-105122000D01*
X161687504Y-105186754D01*
X161380853Y-105313772D01*
X161104875Y-105498175D01*
X160870175Y-105732875D01*
X160685772Y-106008853D01*
X160558754Y-106315504D01*
X160494000Y-106641042D01*
X160445731Y-106641042D01*
X160445731Y-104758183D01*
X160450528Y-104682476D01*
X160445731Y-104646642D01*
X160445731Y-104033700D01*
X162247530Y-102231902D01*
X162286180Y-102426207D01*
X162398122Y-102696460D01*
X162560637Y-102939681D01*
X162767480Y-103146524D01*
X163010701Y-103309039D01*
X163280954Y-103420981D01*
X163567852Y-103478049D01*
X163860372Y-103478049D01*
X164147270Y-103420981D01*
X164417523Y-103309039D01*
X164660744Y-103146524D01*
X164867587Y-102939681D01*
X165030102Y-102696460D01*
X165142044Y-102426207D01*
X165175817Y-102256420D01*
X165525271Y-102125326D01*
X159935449Y-119319606D01*
G37*
%TD.AperFunction*%
D18*
X157312072Y-104820186D02*
X157250609Y-104940813D01*
X157621198Y-106081368D01*
X157640220Y-106075187D01*
X157718709Y-106316756D01*
X157699688Y-106322936D01*
X157705869Y-106341958D01*
X157464300Y-106420447D01*
X157458120Y-106401426D01*
X157439098Y-106407607D01*
X157360609Y-106166038D01*
X157379630Y-106159858D01*
X157009041Y-105019303D01*
X156809004Y-104917380D01*
X156271421Y-105088821D01*
X156156821Y-105138948D01*
X156054201Y-105210469D01*
X155992718Y-105274417D01*
X155701773Y-104841302D01*
X155385836Y-103869485D01*
X155534461Y-103866566D01*
X155704508Y-103829257D01*
X155708619Y-103827921D01*
X157312072Y-104820186D01*
%TA.AperFunction,Conductor*%
D19*
G36*
X157312072Y-104820186D02*
G01*
X157250609Y-104940813D01*
X157621198Y-106081368D01*
X157640220Y-106075187D01*
X157718709Y-106316756D01*
X157699688Y-106322936D01*
X157705869Y-106341958D01*
X157464300Y-106420447D01*
X157458120Y-106401426D01*
X157439098Y-106407607D01*
X157360609Y-106166038D01*
X157379630Y-106159858D01*
X157009041Y-105019303D01*
X156809004Y-104917380D01*
X156271421Y-105088821D01*
X156156821Y-105138948D01*
X156054201Y-105210469D01*
X155992718Y-105274417D01*
X155701773Y-104841302D01*
X155385836Y-103869485D01*
X155534461Y-103866566D01*
X155704508Y-103829257D01*
X155708619Y-103827921D01*
X157312072Y-104820186D01*
G37*
%TD.AperFunction*%
D18*
X155708358Y-93467982D02*
X155528668Y-93523532D01*
X155414067Y-93573659D01*
X155311448Y-93645180D01*
X155224754Y-93735348D01*
X155157317Y-93840696D01*
X155111728Y-93957175D01*
X155089738Y-94080311D01*
X155092193Y-94205371D01*
X155119000Y-94327549D01*
X155265383Y-94768128D01*
X155465420Y-94870052D01*
X156273105Y-94607619D01*
X156266924Y-94588597D01*
X156508493Y-94510108D01*
X156514673Y-94529129D01*
X156533695Y-94522948D01*
X156612184Y-94764517D01*
X156593163Y-94770697D01*
X156932850Y-95816146D01*
X157132887Y-95918070D01*
X157337600Y-95854784D01*
X157452201Y-95804657D01*
X157554820Y-95733136D01*
X157641514Y-95642968D01*
X157708951Y-95537620D01*
X157728373Y-95487997D01*
X161754772Y-99514396D01*
X158995207Y-102273962D01*
X158994154Y-102220366D01*
X158967347Y-102098188D01*
X158828689Y-101681386D01*
X158628653Y-101579462D01*
X157737750Y-101868934D01*
X157743931Y-101887956D01*
X157502362Y-101966445D01*
X157496182Y-101947424D01*
X157477160Y-101953605D01*
X157398671Y-101712036D01*
X157417692Y-101705856D01*
X157411511Y-101686834D01*
X157653080Y-101608345D01*
X157659260Y-101627366D01*
X158550162Y-101337894D01*
X158652086Y-101137857D01*
X158519272Y-100719156D01*
X158482447Y-100634967D01*
X158851783Y-100514962D01*
X158966383Y-100464834D01*
X159069002Y-100393313D01*
X159155697Y-100303146D01*
X159223134Y-100197798D01*
X159268724Y-100081318D01*
X159290713Y-99958182D01*
X159288257Y-99833122D01*
X159261451Y-99710944D01*
X158797926Y-98284359D01*
X158747798Y-98169759D01*
X158676277Y-98067139D01*
X158586110Y-97980445D01*
X158480762Y-97913008D01*
X158364282Y-97867418D01*
X158241146Y-97845429D01*
X158116086Y-97847885D01*
X157993908Y-97874691D01*
X157231889Y-98122286D01*
X156262731Y-97619765D01*
X156250463Y-97610728D01*
X156196397Y-97585370D01*
X156176673Y-97575143D01*
X156162606Y-97569522D01*
X156114924Y-97547158D01*
X156093233Y-97541799D01*
X156072490Y-97533510D01*
X156020717Y-97523884D01*
X155969587Y-97511252D01*
X155947273Y-97510228D01*
X155925306Y-97506144D01*
X155872635Y-97506804D01*
X155820037Y-97504391D01*
X155797952Y-97507740D01*
X155775612Y-97508020D01*
X155724093Y-97518940D01*
X155709112Y-97521212D01*
X155687577Y-97526680D01*
X155629159Y-97539063D01*
X155615154Y-97545071D01*
X153855989Y-97991776D01*
X153838514Y-97993497D01*
X153783543Y-98010172D01*
X153764266Y-98015067D01*
X153747876Y-98020991D01*
X153695253Y-98036954D01*
X153677582Y-98046400D01*
X153658754Y-98053205D01*
X153611710Y-98081610D01*
X153563224Y-98107526D01*
X153547741Y-98120233D01*
X153530595Y-98130585D01*
X153489991Y-98167627D01*
X153476497Y-98178701D01*
X153462410Y-98192788D01*
X153419996Y-98231481D01*
X153409588Y-98245610D01*
X153164130Y-98491068D01*
X152669024Y-96968123D01*
X152750960Y-97046903D01*
X152856308Y-97114340D01*
X152972788Y-97159930D01*
X153095924Y-97181919D01*
X153220984Y-97179463D01*
X153343162Y-97152657D01*
X154294219Y-96843640D01*
X154408819Y-96793512D01*
X154511438Y-96721991D01*
X154598133Y-96631824D01*
X154665570Y-96526476D01*
X154711160Y-96409996D01*
X154733149Y-96286860D01*
X154730693Y-96161800D01*
X154703887Y-96039622D01*
X154467358Y-95311657D01*
X155441986Y-95311657D01*
X155582526Y-95754134D01*
X155632653Y-95868735D01*
X155704175Y-95971354D01*
X155794342Y-96058048D01*
X155899690Y-96125485D01*
X156016170Y-96171074D01*
X156139306Y-96193064D01*
X156264366Y-96190609D01*
X156386544Y-96163801D01*
X156589358Y-96094673D01*
X156691282Y-95894636D01*
X156351595Y-94849187D01*
X155543910Y-95111620D01*
X155441986Y-95311657D01*
X154467358Y-95311657D01*
X154380487Y-95044297D01*
X154823242Y-93608506D01*
X154964774Y-93513937D01*
X155108937Y-93369774D01*
X155222205Y-93200256D01*
X155286181Y-93045805D01*
X155708358Y-93467982D01*
%TA.AperFunction,Conductor*%
D19*
G36*
X155708358Y-93467982D02*
G01*
X155528668Y-93523532D01*
X155414067Y-93573659D01*
X155311448Y-93645180D01*
X155224754Y-93735348D01*
X155157317Y-93840696D01*
X155111728Y-93957175D01*
X155089738Y-94080311D01*
X155092193Y-94205371D01*
X155119000Y-94327549D01*
X155265383Y-94768128D01*
X155465420Y-94870052D01*
X156273105Y-94607619D01*
X156266924Y-94588597D01*
X156508493Y-94510108D01*
X156514673Y-94529129D01*
X156533695Y-94522948D01*
X156612184Y-94764517D01*
X156593163Y-94770697D01*
X156932850Y-95816146D01*
X157132887Y-95918070D01*
X157337600Y-95854784D01*
X157452201Y-95804657D01*
X157554820Y-95733136D01*
X157641514Y-95642968D01*
X157708951Y-95537620D01*
X157728373Y-95487997D01*
X161754772Y-99514396D01*
X158995207Y-102273962D01*
X158994154Y-102220366D01*
X158967347Y-102098188D01*
X158828689Y-101681386D01*
X158628653Y-101579462D01*
X157737750Y-101868934D01*
X157743931Y-101887956D01*
X157502362Y-101966445D01*
X157496182Y-101947424D01*
X157477160Y-101953605D01*
X157398671Y-101712036D01*
X157417692Y-101705856D01*
X157411511Y-101686834D01*
X157653080Y-101608345D01*
X157659260Y-101627366D01*
X158550162Y-101337894D01*
X158652086Y-101137857D01*
X158519272Y-100719156D01*
X158482447Y-100634967D01*
X158851783Y-100514962D01*
X158966383Y-100464834D01*
X159069002Y-100393313D01*
X159155697Y-100303146D01*
X159223134Y-100197798D01*
X159268724Y-100081318D01*
X159290713Y-99958182D01*
X159288257Y-99833122D01*
X159261451Y-99710944D01*
X158797926Y-98284359D01*
X158747798Y-98169759D01*
X158676277Y-98067139D01*
X158586110Y-97980445D01*
X158480762Y-97913008D01*
X158364282Y-97867418D01*
X158241146Y-97845429D01*
X158116086Y-97847885D01*
X157993908Y-97874691D01*
X157231889Y-98122286D01*
X156262731Y-97619765D01*
X156250463Y-97610728D01*
X156196397Y-97585370D01*
X156176673Y-97575143D01*
X156162606Y-97569522D01*
X156114924Y-97547158D01*
X156093233Y-97541799D01*
X156072490Y-97533510D01*
X156020717Y-97523884D01*
X155969587Y-97511252D01*
X155947273Y-97510228D01*
X155925306Y-97506144D01*
X155872635Y-97506804D01*
X155820037Y-97504391D01*
X155797952Y-97507740D01*
X155775612Y-97508020D01*
X155724093Y-97518940D01*
X155709112Y-97521212D01*
X155687577Y-97526680D01*
X155629159Y-97539063D01*
X155615154Y-97545071D01*
X153855989Y-97991776D01*
X153838514Y-97993497D01*
X153783543Y-98010172D01*
X153764266Y-98015067D01*
X153747876Y-98020991D01*
X153695253Y-98036954D01*
X153677582Y-98046400D01*
X153658754Y-98053205D01*
X153611710Y-98081610D01*
X153563224Y-98107526D01*
X153547741Y-98120233D01*
X153530595Y-98130585D01*
X153489991Y-98167627D01*
X153476497Y-98178701D01*
X153462410Y-98192788D01*
X153419996Y-98231481D01*
X153409588Y-98245610D01*
X153164130Y-98491068D01*
X152669024Y-96968123D01*
X152750960Y-97046903D01*
X152856308Y-97114340D01*
X152972788Y-97159930D01*
X153095924Y-97181919D01*
X153220984Y-97179463D01*
X153343162Y-97152657D01*
X154294219Y-96843640D01*
X154408819Y-96793512D01*
X154511438Y-96721991D01*
X154598133Y-96631824D01*
X154665570Y-96526476D01*
X154711160Y-96409996D01*
X154733149Y-96286860D01*
X154730693Y-96161800D01*
X154703887Y-96039622D01*
X154467358Y-95311657D01*
X155441986Y-95311657D01*
X155582526Y-95754134D01*
X155632653Y-95868735D01*
X155704175Y-95971354D01*
X155794342Y-96058048D01*
X155899690Y-96125485D01*
X156016170Y-96171074D01*
X156139306Y-96193064D01*
X156264366Y-96190609D01*
X156386544Y-96163801D01*
X156589358Y-96094673D01*
X156691282Y-95894636D01*
X156351595Y-94849187D01*
X155543910Y-95111620D01*
X155441986Y-95311657D01*
X154467358Y-95311657D01*
X154380487Y-95044297D01*
X154823242Y-93608506D01*
X154964774Y-93513937D01*
X155108937Y-93369774D01*
X155222205Y-93200256D01*
X155286181Y-93045805D01*
X155708358Y-93467982D01*
G37*
%TD.AperFunction*%
D18*
X156842744Y-99632689D02*
X157096708Y-100414311D01*
X157134771Y-100501329D01*
X157036672Y-100533204D01*
X157085728Y-100684183D01*
X156885693Y-100582260D01*
X156597763Y-100672584D01*
X156483162Y-100722711D01*
X156380543Y-100794233D01*
X156293849Y-100884401D01*
X156287341Y-100894568D01*
X156088893Y-100302232D01*
X155754545Y-99273214D01*
X155704417Y-99158614D01*
X155664167Y-99100863D01*
X155766804Y-99074800D01*
X156842744Y-99632689D01*
%TA.AperFunction,Conductor*%
D19*
G36*
X156842744Y-99632689D02*
G01*
X157096708Y-100414311D01*
X157134771Y-100501329D01*
X157036672Y-100533204D01*
X157085728Y-100684183D01*
X156885693Y-100582260D01*
X156597763Y-100672584D01*
X156483162Y-100722711D01*
X156380543Y-100794233D01*
X156293849Y-100884401D01*
X156287341Y-100894568D01*
X156088893Y-100302232D01*
X155754545Y-99273214D01*
X155704417Y-99158614D01*
X155664167Y-99100863D01*
X155766804Y-99074800D01*
X156842744Y-99632689D01*
G37*
%TD.AperFunction*%
D18*
X168122653Y-94135784D02*
X168571578Y-91606718D01*
X168589334Y-91599768D01*
X168694682Y-91532331D01*
X168784849Y-91445636D01*
X168856370Y-91343017D01*
X168906498Y-91228417D01*
X169370023Y-89801832D01*
X169396829Y-89679654D01*
X169399285Y-89554594D01*
X169377296Y-89431458D01*
X169331706Y-89314978D01*
X169264269Y-89209630D01*
X169177575Y-89119463D01*
X169074955Y-89047942D01*
X168960355Y-88997814D01*
X168009298Y-88688797D01*
X167887120Y-88661991D01*
X167762060Y-88659535D01*
X167638924Y-88681524D01*
X167522444Y-88727114D01*
X167417096Y-88794551D01*
X167326929Y-88881246D01*
X167255408Y-88983865D01*
X167205280Y-89098465D01*
X166741755Y-90525050D01*
X166714949Y-90647228D01*
X166714841Y-90652743D01*
X166705712Y-90657394D01*
X166373750Y-91679066D01*
X166392771Y-91685246D01*
X166314282Y-91926815D01*
X166295260Y-91920634D01*
X165963299Y-92942307D01*
X166065222Y-93142343D01*
X166351254Y-93238511D01*
X166473432Y-93265318D01*
X166598492Y-93267774D01*
X166721628Y-93245784D01*
X166738011Y-93239372D01*
X166262749Y-95916811D01*
X166014573Y-95837665D01*
X165814536Y-95939588D01*
X165443947Y-97080143D01*
X165462968Y-97086323D01*
X165384479Y-97327892D01*
X165365457Y-97321711D01*
X165359277Y-97340732D01*
X165117708Y-97262243D01*
X165123889Y-97243221D01*
X165104868Y-97237041D01*
X165183357Y-96995472D01*
X165202379Y-97001653D01*
X165572968Y-95861098D01*
X165471044Y-95661061D01*
X164935359Y-95483777D01*
X164813182Y-95456970D01*
X164688122Y-95454514D01*
X164647846Y-95461707D01*
X164647846Y-93079268D01*
X164995370Y-92731745D01*
X165016543Y-92753767D01*
X165119162Y-92825289D01*
X165233763Y-92875416D01*
X165521693Y-92965740D01*
X165721730Y-92863816D01*
X166053692Y-91842144D01*
X166034671Y-91835964D01*
X166113160Y-91594395D01*
X166132182Y-91600576D01*
X166464143Y-90578903D01*
X166362220Y-90378867D01*
X166076188Y-90282699D01*
X165954010Y-90255892D01*
X165856809Y-90253983D01*
X165863117Y-90239562D01*
X166012540Y-89779685D01*
X168697133Y-87095093D01*
X168740441Y-87059551D01*
X168882276Y-86886725D01*
X168977409Y-86708742D01*
X169311924Y-86708742D01*
X169413848Y-86908779D01*
X169616662Y-86977907D01*
X169738840Y-87004715D01*
X169863900Y-87007170D01*
X169987036Y-86985180D01*
X170103516Y-86939591D01*
X170208864Y-86872154D01*
X170299031Y-86785460D01*
X170370553Y-86682841D01*
X170420680Y-86568240D01*
X170561220Y-86125763D01*
X170459296Y-85925726D01*
X169651611Y-85663293D01*
X169311924Y-86708742D01*
X168977409Y-86708742D01*
X168987668Y-86689549D01*
X168993827Y-86669245D01*
X169070356Y-86630252D01*
X169410043Y-85584803D01*
X169391022Y-85578623D01*
X169442000Y-85421725D01*
X169730101Y-85421725D01*
X170537786Y-85684158D01*
X170737823Y-85582234D01*
X170884206Y-85141655D01*
X170911013Y-85019477D01*
X170913468Y-84894417D01*
X170891478Y-84771281D01*
X170845889Y-84654802D01*
X170778452Y-84549454D01*
X170691758Y-84459286D01*
X170589139Y-84387765D01*
X170474538Y-84337638D01*
X170269825Y-84274352D01*
X170069788Y-84376276D01*
X169730101Y-85421725D01*
X169442000Y-85421725D01*
X169469511Y-85337054D01*
X169488533Y-85343235D01*
X169828220Y-84297786D01*
X169726296Y-84097749D01*
X169523482Y-84028621D01*
X169401304Y-84001813D01*
X169276244Y-83999358D01*
X169153108Y-84021348D01*
X169068992Y-84054270D01*
X169068992Y-83723192D01*
X169074477Y-83669228D01*
X169068992Y-83611699D01*
X169068992Y-83609918D01*
X169063681Y-83555991D01*
X169053257Y-83446662D01*
X169052745Y-83444954D01*
X169052569Y-83443171D01*
X169020580Y-83337718D01*
X169004032Y-83282545D01*
X169307504Y-83408246D01*
X169633042Y-83473000D01*
X169964958Y-83473000D01*
X170290496Y-83408246D01*
X170597147Y-83281228D01*
X170873125Y-83096825D01*
X171107825Y-82862125D01*
X171292228Y-82586147D01*
X171419246Y-82279496D01*
X171484000Y-81953958D01*
X171484000Y-81622042D01*
X171419246Y-81296504D01*
X171292228Y-80989853D01*
X171107825Y-80713875D01*
X170873125Y-80479175D01*
X170597147Y-80294772D01*
X170290496Y-80167754D01*
X169964958Y-80103000D01*
X169633042Y-80103000D01*
X169307504Y-80167754D01*
X169000853Y-80294772D01*
X168724875Y-80479175D01*
X168490175Y-80713875D01*
X168305772Y-80989853D01*
X168178754Y-81296504D01*
X168114000Y-81622042D01*
X168114000Y-81884358D01*
X165779502Y-78366825D01*
X168208000Y-78366825D01*
X168208000Y-78605175D01*
X168254499Y-78838944D01*
X168345712Y-79059150D01*
X168478131Y-79257330D01*
X168646670Y-79425869D01*
X168844850Y-79558288D01*
X169065056Y-79649501D01*
X169298825Y-79696000D01*
X169537175Y-79696000D01*
X169770944Y-79649501D01*
X169991150Y-79558288D01*
X170189330Y-79425869D01*
X170357869Y-79257330D01*
X170490288Y-79059150D01*
X170581501Y-78838944D01*
X170628000Y-78605175D01*
X170628000Y-78366825D01*
X170581501Y-78133056D01*
X170490288Y-77912850D01*
X170357869Y-77714670D01*
X170189330Y-77546131D01*
X169991150Y-77413712D01*
X169770944Y-77322499D01*
X169537175Y-77276000D01*
X169298825Y-77276000D01*
X169065056Y-77322499D01*
X168844850Y-77413712D01*
X168646670Y-77546131D01*
X168478131Y-77714670D01*
X168345712Y-77912850D01*
X168254499Y-78133056D01*
X168208000Y-78366825D01*
X165779502Y-78366825D01*
X165054088Y-77273799D01*
X165026840Y-77222821D01*
X164956895Y-77137593D01*
X164887517Y-77052516D01*
X164886142Y-77051380D01*
X164885005Y-77049995D01*
X164799668Y-76979961D01*
X164715134Y-76910143D01*
X164713567Y-76909299D01*
X164712179Y-76908160D01*
X164614888Y-76856157D01*
X164518288Y-76804135D01*
X164516581Y-76803611D01*
X164515003Y-76802768D01*
X164409594Y-76770792D01*
X164304543Y-76738567D01*
X164302768Y-76738387D01*
X164301055Y-76737867D01*
X164191412Y-76727068D01*
X164186911Y-76726611D01*
X164188898Y-76706432D01*
X164188898Y-75706432D01*
X164176638Y-75581950D01*
X164140328Y-75462252D01*
X164081363Y-75351938D01*
X164002011Y-75255247D01*
X163905320Y-75175895D01*
X163795006Y-75116930D01*
X163675308Y-75080620D01*
X163550826Y-75068360D01*
X163455152Y-75068360D01*
X163435800Y-75032156D01*
X163340827Y-74916431D01*
X163332112Y-74909279D01*
X174375016Y-74903527D01*
X168122653Y-94135784D01*
%TA.AperFunction,Conductor*%
D19*
G36*
X168122653Y-94135784D02*
G01*
X168571578Y-91606718D01*
X168589334Y-91599768D01*
X168694682Y-91532331D01*
X168784849Y-91445636D01*
X168856370Y-91343017D01*
X168906498Y-91228417D01*
X169370023Y-89801832D01*
X169396829Y-89679654D01*
X169399285Y-89554594D01*
X169377296Y-89431458D01*
X169331706Y-89314978D01*
X169264269Y-89209630D01*
X169177575Y-89119463D01*
X169074955Y-89047942D01*
X168960355Y-88997814D01*
X168009298Y-88688797D01*
X167887120Y-88661991D01*
X167762060Y-88659535D01*
X167638924Y-88681524D01*
X167522444Y-88727114D01*
X167417096Y-88794551D01*
X167326929Y-88881246D01*
X167255408Y-88983865D01*
X167205280Y-89098465D01*
X166741755Y-90525050D01*
X166714949Y-90647228D01*
X166714841Y-90652743D01*
X166705712Y-90657394D01*
X166373750Y-91679066D01*
X166392771Y-91685246D01*
X166314282Y-91926815D01*
X166295260Y-91920634D01*
X165963299Y-92942307D01*
X166065222Y-93142343D01*
X166351254Y-93238511D01*
X166473432Y-93265318D01*
X166598492Y-93267774D01*
X166721628Y-93245784D01*
X166738011Y-93239372D01*
X166262749Y-95916811D01*
X166014573Y-95837665D01*
X165814536Y-95939588D01*
X165443947Y-97080143D01*
X165462968Y-97086323D01*
X165384479Y-97327892D01*
X165365457Y-97321711D01*
X165359277Y-97340732D01*
X165117708Y-97262243D01*
X165123889Y-97243221D01*
X165104868Y-97237041D01*
X165183357Y-96995472D01*
X165202379Y-97001653D01*
X165572968Y-95861098D01*
X165471044Y-95661061D01*
X164935359Y-95483777D01*
X164813182Y-95456970D01*
X164688122Y-95454514D01*
X164647846Y-95461707D01*
X164647846Y-93079268D01*
X164995370Y-92731745D01*
X165016543Y-92753767D01*
X165119162Y-92825289D01*
X165233763Y-92875416D01*
X165521693Y-92965740D01*
X165721730Y-92863816D01*
X166053692Y-91842144D01*
X166034671Y-91835964D01*
X166113160Y-91594395D01*
X166132182Y-91600576D01*
X166464143Y-90578903D01*
X166362220Y-90378867D01*
X166076188Y-90282699D01*
X165954010Y-90255892D01*
X165856809Y-90253983D01*
X165863117Y-90239562D01*
X166012540Y-89779685D01*
X168697133Y-87095093D01*
X168740441Y-87059551D01*
X168882276Y-86886725D01*
X168977409Y-86708742D01*
X169311924Y-86708742D01*
X169413848Y-86908779D01*
X169616662Y-86977907D01*
X169738840Y-87004715D01*
X169863900Y-87007170D01*
X169987036Y-86985180D01*
X170103516Y-86939591D01*
X170208864Y-86872154D01*
X170299031Y-86785460D01*
X170370553Y-86682841D01*
X170420680Y-86568240D01*
X170561220Y-86125763D01*
X170459296Y-85925726D01*
X169651611Y-85663293D01*
X169311924Y-86708742D01*
X168977409Y-86708742D01*
X168987668Y-86689549D01*
X168993827Y-86669245D01*
X169070356Y-86630252D01*
X169410043Y-85584803D01*
X169391022Y-85578623D01*
X169442000Y-85421725D01*
X169730101Y-85421725D01*
X170537786Y-85684158D01*
X170737823Y-85582234D01*
X170884206Y-85141655D01*
X170911013Y-85019477D01*
X170913468Y-84894417D01*
X170891478Y-84771281D01*
X170845889Y-84654802D01*
X170778452Y-84549454D01*
X170691758Y-84459286D01*
X170589139Y-84387765D01*
X170474538Y-84337638D01*
X170269825Y-84274352D01*
X170069788Y-84376276D01*
X169730101Y-85421725D01*
X169442000Y-85421725D01*
X169469511Y-85337054D01*
X169488533Y-85343235D01*
X169828220Y-84297786D01*
X169726296Y-84097749D01*
X169523482Y-84028621D01*
X169401304Y-84001813D01*
X169276244Y-83999358D01*
X169153108Y-84021348D01*
X169068992Y-84054270D01*
X169068992Y-83723192D01*
X169074477Y-83669228D01*
X169068992Y-83611699D01*
X169068992Y-83609918D01*
X169063681Y-83555991D01*
X169053257Y-83446662D01*
X169052745Y-83444954D01*
X169052569Y-83443171D01*
X169020580Y-83337718D01*
X169004032Y-83282545D01*
X169307504Y-83408246D01*
X169633042Y-83473000D01*
X169964958Y-83473000D01*
X170290496Y-83408246D01*
X170597147Y-83281228D01*
X170873125Y-83096825D01*
X171107825Y-82862125D01*
X171292228Y-82586147D01*
X171419246Y-82279496D01*
X171484000Y-81953958D01*
X171484000Y-81622042D01*
X171419246Y-81296504D01*
X171292228Y-80989853D01*
X171107825Y-80713875D01*
X170873125Y-80479175D01*
X170597147Y-80294772D01*
X170290496Y-80167754D01*
X169964958Y-80103000D01*
X169633042Y-80103000D01*
X169307504Y-80167754D01*
X169000853Y-80294772D01*
X168724875Y-80479175D01*
X168490175Y-80713875D01*
X168305772Y-80989853D01*
X168178754Y-81296504D01*
X168114000Y-81622042D01*
X168114000Y-81884358D01*
X165779502Y-78366825D01*
X168208000Y-78366825D01*
X168208000Y-78605175D01*
X168254499Y-78838944D01*
X168345712Y-79059150D01*
X168478131Y-79257330D01*
X168646670Y-79425869D01*
X168844850Y-79558288D01*
X169065056Y-79649501D01*
X169298825Y-79696000D01*
X169537175Y-79696000D01*
X169770944Y-79649501D01*
X169991150Y-79558288D01*
X170189330Y-79425869D01*
X170357869Y-79257330D01*
X170490288Y-79059150D01*
X170581501Y-78838944D01*
X170628000Y-78605175D01*
X170628000Y-78366825D01*
X170581501Y-78133056D01*
X170490288Y-77912850D01*
X170357869Y-77714670D01*
X170189330Y-77546131D01*
X169991150Y-77413712D01*
X169770944Y-77322499D01*
X169537175Y-77276000D01*
X169298825Y-77276000D01*
X169065056Y-77322499D01*
X168844850Y-77413712D01*
X168646670Y-77546131D01*
X168478131Y-77714670D01*
X168345712Y-77912850D01*
X168254499Y-78133056D01*
X168208000Y-78366825D01*
X165779502Y-78366825D01*
X165054088Y-77273799D01*
X165026840Y-77222821D01*
X164956895Y-77137593D01*
X164887517Y-77052516D01*
X164886142Y-77051380D01*
X164885005Y-77049995D01*
X164799668Y-76979961D01*
X164715134Y-76910143D01*
X164713567Y-76909299D01*
X164712179Y-76908160D01*
X164614888Y-76856157D01*
X164518288Y-76804135D01*
X164516581Y-76803611D01*
X164515003Y-76802768D01*
X164409594Y-76770792D01*
X164304543Y-76738567D01*
X164302768Y-76738387D01*
X164301055Y-76737867D01*
X164191412Y-76727068D01*
X164186911Y-76726611D01*
X164188898Y-76706432D01*
X164188898Y-75706432D01*
X164176638Y-75581950D01*
X164140328Y-75462252D01*
X164081363Y-75351938D01*
X164002011Y-75255247D01*
X163905320Y-75175895D01*
X163795006Y-75116930D01*
X163675308Y-75080620D01*
X163550826Y-75068360D01*
X163455152Y-75068360D01*
X163435800Y-75032156D01*
X163340827Y-74916431D01*
X163332112Y-74909279D01*
X174375016Y-74903527D01*
X168122653Y-94135784D01*
G37*
%TD.AperFunction*%
D18*
X153969196Y-91728819D02*
X153814744Y-91792795D01*
X153645226Y-91906063D01*
X153501063Y-92050226D01*
X153387795Y-92219744D01*
X153309774Y-92408102D01*
X153270000Y-92608061D01*
X153270000Y-92811939D01*
X153309774Y-93011898D01*
X153371005Y-93159721D01*
X153006063Y-94343176D01*
X152485287Y-94512386D01*
X152370687Y-94562514D01*
X152268068Y-94634035D01*
X152181373Y-94724202D01*
X152113936Y-94829550D01*
X152068346Y-94946030D01*
X152048243Y-95058605D01*
X151094722Y-92125580D01*
X151081846Y-92076353D01*
X151056592Y-92024365D01*
X151033418Y-91971406D01*
X151025009Y-91959345D01*
X151018586Y-91946122D01*
X150983673Y-91900057D01*
X150950614Y-91852640D01*
X150940014Y-91842452D01*
X150931134Y-91830735D01*
X150887891Y-91792353D01*
X150846230Y-91752310D01*
X150803383Y-91724891D01*
X150452162Y-91470027D01*
X150535095Y-91429802D01*
X150673903Y-91324727D01*
X150735549Y-91255355D01*
X153495732Y-91255355D01*
X153969196Y-91728819D01*
%TA.AperFunction,Conductor*%
D19*
G36*
X153969196Y-91728819D02*
G01*
X153814744Y-91792795D01*
X153645226Y-91906063D01*
X153501063Y-92050226D01*
X153387795Y-92219744D01*
X153309774Y-92408102D01*
X153270000Y-92608061D01*
X153270000Y-92811939D01*
X153309774Y-93011898D01*
X153371005Y-93159721D01*
X153006063Y-94343176D01*
X152485287Y-94512386D01*
X152370687Y-94562514D01*
X152268068Y-94634035D01*
X152181373Y-94724202D01*
X152113936Y-94829550D01*
X152068346Y-94946030D01*
X152048243Y-95058605D01*
X151094722Y-92125580D01*
X151081846Y-92076353D01*
X151056592Y-92024365D01*
X151033418Y-91971406D01*
X151025009Y-91959345D01*
X151018586Y-91946122D01*
X150983673Y-91900057D01*
X150950614Y-91852640D01*
X150940014Y-91842452D01*
X150931134Y-91830735D01*
X150887891Y-91792353D01*
X150846230Y-91752310D01*
X150803383Y-91724891D01*
X150452162Y-91470027D01*
X150535095Y-91429802D01*
X150673903Y-91324727D01*
X150735549Y-91255355D01*
X153495732Y-91255355D01*
X153969196Y-91728819D01*
G37*
%TD.AperFunction*%
D18*
X151844505Y-84439317D02*
X151860803Y-84457654D01*
X151875257Y-84477548D01*
X151958347Y-84571053D01*
X152030322Y-84637586D01*
X152130052Y-84713080D01*
X152213625Y-84764294D01*
X152326170Y-84818882D01*
X152418130Y-84852808D01*
X152539163Y-84884391D01*
X152635972Y-84899724D01*
X152650165Y-84900561D01*
X152889061Y-85227733D01*
X152869868Y-85253088D01*
X152815280Y-85365632D01*
X152783698Y-85486664D01*
X152776334Y-85611531D01*
X152793472Y-85735435D01*
X152834453Y-85853615D01*
X152897703Y-85961529D01*
X154043884Y-87539112D01*
X154126971Y-87632613D01*
X154226703Y-87708109D01*
X154339247Y-87762696D01*
X154460278Y-87794279D01*
X154585145Y-87801643D01*
X154709049Y-87784505D01*
X154827230Y-87743524D01*
X154935144Y-87680274D01*
X155007147Y-87627961D01*
X155025063Y-87654774D01*
X155169226Y-87798937D01*
X155338744Y-87912205D01*
X155527102Y-87990226D01*
X155727061Y-88030000D01*
X155833393Y-88030000D01*
X155833393Y-88697061D01*
X155789456Y-88740998D01*
X155676188Y-88910516D01*
X155598167Y-89098874D01*
X155558393Y-89298833D01*
X155558393Y-89502711D01*
X155598167Y-89702670D01*
X155676188Y-89891028D01*
X155789456Y-90060546D01*
X155933619Y-90204709D01*
X156103137Y-90317977D01*
X156121054Y-90325398D01*
X156155440Y-90424561D01*
X156218690Y-90532475D01*
X156844585Y-91393946D01*
X154807859Y-89357220D01*
X154772312Y-89313906D01*
X154599486Y-89172071D01*
X154402310Y-89066679D01*
X154188362Y-89001778D01*
X154021615Y-88985355D01*
X154021614Y-88985355D01*
X153965863Y-88979864D01*
X153910112Y-88985355D01*
X152391235Y-88985355D01*
X152552899Y-88767541D01*
X152616149Y-88659627D01*
X152657131Y-88541447D01*
X152674268Y-88417542D01*
X152666904Y-88292675D01*
X152635322Y-88171645D01*
X152580735Y-88059100D01*
X152505239Y-87959368D01*
X152411737Y-87876281D01*
X152054571Y-87620581D01*
X151832829Y-87655702D01*
X151282221Y-88413549D01*
X151298401Y-88425304D01*
X151149104Y-88630795D01*
X151132923Y-88619039D01*
X151121168Y-88635219D01*
X150915677Y-88485922D01*
X150927433Y-88469741D01*
X150058347Y-87838313D01*
X149836604Y-87873434D01*
X149656755Y-88115749D01*
X149598568Y-88215025D01*
X149568773Y-88153598D01*
X149493278Y-88053866D01*
X149399776Y-87970779D01*
X149259072Y-87868552D01*
X149259072Y-87099736D01*
X149264562Y-87043994D01*
X149259072Y-86988252D01*
X149259072Y-86988243D01*
X149242649Y-86821496D01*
X149201082Y-86684471D01*
X149942806Y-87223364D01*
X150050720Y-87286614D01*
X150168900Y-87327595D01*
X150226250Y-87335527D01*
X150172524Y-87411080D01*
X150207644Y-87632823D01*
X151076731Y-88264251D01*
X151627338Y-87506404D01*
X151592218Y-87284662D01*
X151238663Y-87023992D01*
X151130749Y-86960742D01*
X151012568Y-86919761D01*
X150957609Y-86912159D01*
X151421851Y-86273185D01*
X151485101Y-86165271D01*
X151526082Y-86047091D01*
X151543220Y-85923186D01*
X151535856Y-85798319D01*
X151504274Y-85677288D01*
X151449686Y-85564744D01*
X151374191Y-85465012D01*
X151280689Y-85381925D01*
X150764985Y-85007244D01*
X150764985Y-84981499D01*
X151618389Y-84128095D01*
X151844505Y-84439317D01*
%TA.AperFunction,Conductor*%
D19*
G36*
X151844505Y-84439317D02*
G01*
X151860803Y-84457654D01*
X151875257Y-84477548D01*
X151958347Y-84571053D01*
X152030322Y-84637586D01*
X152130052Y-84713080D01*
X152213625Y-84764294D01*
X152326170Y-84818882D01*
X152418130Y-84852808D01*
X152539163Y-84884391D01*
X152635972Y-84899724D01*
X152650165Y-84900561D01*
X152889061Y-85227733D01*
X152869868Y-85253088D01*
X152815280Y-85365632D01*
X152783698Y-85486664D01*
X152776334Y-85611531D01*
X152793472Y-85735435D01*
X152834453Y-85853615D01*
X152897703Y-85961529D01*
X154043884Y-87539112D01*
X154126971Y-87632613D01*
X154226703Y-87708109D01*
X154339247Y-87762696D01*
X154460278Y-87794279D01*
X154585145Y-87801643D01*
X154709049Y-87784505D01*
X154827230Y-87743524D01*
X154935144Y-87680274D01*
X155007147Y-87627961D01*
X155025063Y-87654774D01*
X155169226Y-87798937D01*
X155338744Y-87912205D01*
X155527102Y-87990226D01*
X155727061Y-88030000D01*
X155833393Y-88030000D01*
X155833393Y-88697061D01*
X155789456Y-88740998D01*
X155676188Y-88910516D01*
X155598167Y-89098874D01*
X155558393Y-89298833D01*
X155558393Y-89502711D01*
X155598167Y-89702670D01*
X155676188Y-89891028D01*
X155789456Y-90060546D01*
X155933619Y-90204709D01*
X156103137Y-90317977D01*
X156121054Y-90325398D01*
X156155440Y-90424561D01*
X156218690Y-90532475D01*
X156844585Y-91393946D01*
X154807859Y-89357220D01*
X154772312Y-89313906D01*
X154599486Y-89172071D01*
X154402310Y-89066679D01*
X154188362Y-89001778D01*
X154021615Y-88985355D01*
X154021614Y-88985355D01*
X153965863Y-88979864D01*
X153910112Y-88985355D01*
X152391235Y-88985355D01*
X152552899Y-88767541D01*
X152616149Y-88659627D01*
X152657131Y-88541447D01*
X152674268Y-88417542D01*
X152666904Y-88292675D01*
X152635322Y-88171645D01*
X152580735Y-88059100D01*
X152505239Y-87959368D01*
X152411737Y-87876281D01*
X152054571Y-87620581D01*
X151832829Y-87655702D01*
X151282221Y-88413549D01*
X151298401Y-88425304D01*
X151149104Y-88630795D01*
X151132923Y-88619039D01*
X151121168Y-88635219D01*
X150915677Y-88485922D01*
X150927433Y-88469741D01*
X150058347Y-87838313D01*
X149836604Y-87873434D01*
X149656755Y-88115749D01*
X149598568Y-88215025D01*
X149568773Y-88153598D01*
X149493278Y-88053866D01*
X149399776Y-87970779D01*
X149259072Y-87868552D01*
X149259072Y-87099736D01*
X149264562Y-87043994D01*
X149259072Y-86988252D01*
X149259072Y-86988243D01*
X149242649Y-86821496D01*
X149201082Y-86684471D01*
X149942806Y-87223364D01*
X150050720Y-87286614D01*
X150168900Y-87327595D01*
X150226250Y-87335527D01*
X150172524Y-87411080D01*
X150207644Y-87632823D01*
X151076731Y-88264251D01*
X151627338Y-87506404D01*
X151592218Y-87284662D01*
X151238663Y-87023992D01*
X151130749Y-86960742D01*
X151012568Y-86919761D01*
X150957609Y-86912159D01*
X151421851Y-86273185D01*
X151485101Y-86165271D01*
X151526082Y-86047091D01*
X151543220Y-85923186D01*
X151535856Y-85798319D01*
X151504274Y-85677288D01*
X151449686Y-85564744D01*
X151374191Y-85465012D01*
X151280689Y-85381925D01*
X150764985Y-85007244D01*
X150764985Y-84981499D01*
X151618389Y-84128095D01*
X151844505Y-84439317D01*
G37*
%TD.AperFunction*%
D18*
X160607104Y-78619584D02*
X160642646Y-78662893D01*
X160815472Y-78804728D01*
X161012648Y-78910120D01*
X161226596Y-78975021D01*
X161393343Y-78991444D01*
X161393352Y-78991444D01*
X161414002Y-78993478D01*
X161415826Y-79120682D01*
X161574576Y-79279432D01*
X162673826Y-79279432D01*
X162673826Y-79259432D01*
X162927826Y-79259432D01*
X162927826Y-79279432D01*
X162947826Y-79279432D01*
X162947826Y-79533432D01*
X162927826Y-79533432D01*
X162927826Y-80382682D01*
X163086576Y-80541432D01*
X163550826Y-80544504D01*
X163675308Y-80532244D01*
X163795006Y-80495934D01*
X163905320Y-80436969D01*
X164002011Y-80357617D01*
X164081363Y-80260926D01*
X164140328Y-80150612D01*
X164171255Y-80048659D01*
X166147117Y-83025815D01*
X166109726Y-83032492D01*
X165993246Y-83078082D01*
X165887898Y-83145519D01*
X165797731Y-83232214D01*
X165726210Y-83334833D01*
X165676082Y-83449433D01*
X165271409Y-84694889D01*
X162852379Y-87113920D01*
X162558036Y-86708792D01*
X162558036Y-83340964D01*
X162561712Y-83303641D01*
X162558036Y-83266318D01*
X162558036Y-83266309D01*
X162547039Y-83154656D01*
X162503582Y-83011395D01*
X162433010Y-82879366D01*
X162338037Y-82763641D01*
X162309040Y-82739844D01*
X159475628Y-79906432D01*
X161412754Y-79906432D01*
X161425014Y-80030914D01*
X161461324Y-80150612D01*
X161520289Y-80260926D01*
X161599641Y-80357617D01*
X161696332Y-80436969D01*
X161806646Y-80495934D01*
X161926344Y-80532244D01*
X162050826Y-80544504D01*
X162515076Y-80541432D01*
X162673826Y-80382682D01*
X162673826Y-79533432D01*
X161574576Y-79533432D01*
X161415826Y-79692182D01*
X161412754Y-79906432D01*
X159475628Y-79906432D01*
X159288898Y-79719703D01*
X159288898Y-78906432D01*
X159276638Y-78781950D01*
X159240328Y-78662252D01*
X159181363Y-78551938D01*
X159102011Y-78455247D01*
X159005320Y-78375895D01*
X158895006Y-78316930D01*
X158775308Y-78280620D01*
X158650826Y-78268360D01*
X157150826Y-78268360D01*
X157026344Y-78280620D01*
X156906646Y-78316930D01*
X156808000Y-78369658D01*
X156808000Y-78253498D01*
X156649252Y-78253498D01*
X156808000Y-78094750D01*
X156811072Y-77793000D01*
X156798812Y-77668518D01*
X156762502Y-77548820D01*
X156704603Y-77440500D01*
X157746007Y-77440500D01*
X157801758Y-77445991D01*
X157857509Y-77440500D01*
X157857510Y-77440500D01*
X158024257Y-77424077D01*
X158238205Y-77359176D01*
X158265655Y-77344504D01*
X158650826Y-77344504D01*
X158682018Y-77341432D01*
X159328952Y-77341432D01*
X160607104Y-78619584D01*
%TA.AperFunction,Conductor*%
D19*
G36*
X160607104Y-78619584D02*
G01*
X160642646Y-78662893D01*
X160815472Y-78804728D01*
X161012648Y-78910120D01*
X161226596Y-78975021D01*
X161393343Y-78991444D01*
X161393352Y-78991444D01*
X161414002Y-78993478D01*
X161415826Y-79120682D01*
X161574576Y-79279432D01*
X162673826Y-79279432D01*
X162673826Y-79259432D01*
X162927826Y-79259432D01*
X162927826Y-79279432D01*
X162947826Y-79279432D01*
X162947826Y-79533432D01*
X162927826Y-79533432D01*
X162927826Y-80382682D01*
X163086576Y-80541432D01*
X163550826Y-80544504D01*
X163675308Y-80532244D01*
X163795006Y-80495934D01*
X163905320Y-80436969D01*
X164002011Y-80357617D01*
X164081363Y-80260926D01*
X164140328Y-80150612D01*
X164171255Y-80048659D01*
X166147117Y-83025815D01*
X166109726Y-83032492D01*
X165993246Y-83078082D01*
X165887898Y-83145519D01*
X165797731Y-83232214D01*
X165726210Y-83334833D01*
X165676082Y-83449433D01*
X165271409Y-84694889D01*
X162852379Y-87113920D01*
X162558036Y-86708792D01*
X162558036Y-83340964D01*
X162561712Y-83303641D01*
X162558036Y-83266318D01*
X162558036Y-83266309D01*
X162547039Y-83154656D01*
X162503582Y-83011395D01*
X162433010Y-82879366D01*
X162338037Y-82763641D01*
X162309040Y-82739844D01*
X159475628Y-79906432D01*
X161412754Y-79906432D01*
X161425014Y-80030914D01*
X161461324Y-80150612D01*
X161520289Y-80260926D01*
X161599641Y-80357617D01*
X161696332Y-80436969D01*
X161806646Y-80495934D01*
X161926344Y-80532244D01*
X162050826Y-80544504D01*
X162515076Y-80541432D01*
X162673826Y-80382682D01*
X162673826Y-79533432D01*
X161574576Y-79533432D01*
X161415826Y-79692182D01*
X161412754Y-79906432D01*
X159475628Y-79906432D01*
X159288898Y-79719703D01*
X159288898Y-78906432D01*
X159276638Y-78781950D01*
X159240328Y-78662252D01*
X159181363Y-78551938D01*
X159102011Y-78455247D01*
X159005320Y-78375895D01*
X158895006Y-78316930D01*
X158775308Y-78280620D01*
X158650826Y-78268360D01*
X157150826Y-78268360D01*
X157026344Y-78280620D01*
X156906646Y-78316930D01*
X156808000Y-78369658D01*
X156808000Y-78253498D01*
X156649252Y-78253498D01*
X156808000Y-78094750D01*
X156811072Y-77793000D01*
X156798812Y-77668518D01*
X156762502Y-77548820D01*
X156704603Y-77440500D01*
X157746007Y-77440500D01*
X157801758Y-77445991D01*
X157857509Y-77440500D01*
X157857510Y-77440500D01*
X158024257Y-77424077D01*
X158238205Y-77359176D01*
X158265655Y-77344504D01*
X158650826Y-77344504D01*
X158682018Y-77341432D01*
X159328952Y-77341432D01*
X160607104Y-78619584D01*
G37*
%TD.AperFunction*%
D18*
X155575000Y-78253500D02*
X155595000Y-78253500D01*
X155595000Y-78507500D01*
X155575000Y-78507500D01*
X155575000Y-79444250D01*
X155733750Y-79603000D01*
X156173000Y-79606072D01*
X156297482Y-79593812D01*
X156417180Y-79557502D01*
X156512754Y-79506416D01*
X156512754Y-79906432D01*
X156525014Y-80030914D01*
X156561324Y-80150612D01*
X156620289Y-80260926D01*
X156699641Y-80357617D01*
X156796332Y-80436969D01*
X156906646Y-80495934D01*
X157026344Y-80532244D01*
X157150826Y-80544504D01*
X157964097Y-80544504D01*
X161038036Y-83618444D01*
X161038037Y-86242316D01*
X160515612Y-86621879D01*
X160108413Y-86531782D01*
X160061937Y-86462226D01*
X159917774Y-86318063D01*
X159748256Y-86204795D01*
X159559898Y-86126774D01*
X159359939Y-86087000D01*
X159156061Y-86087000D01*
X158956102Y-86126774D01*
X158949738Y-86129410D01*
X159091360Y-84660607D01*
X159870148Y-84094785D01*
X159963650Y-84011698D01*
X160039145Y-83911966D01*
X160093733Y-83799422D01*
X160125315Y-83678390D01*
X160132679Y-83553523D01*
X160115541Y-83429619D01*
X160074560Y-83311439D01*
X160011310Y-83203525D01*
X158865129Y-81625942D01*
X158782042Y-81532441D01*
X158682310Y-81456945D01*
X158569766Y-81402358D01*
X158448735Y-81370775D01*
X158323868Y-81363411D01*
X158199964Y-81380549D01*
X158081783Y-81421530D01*
X157973869Y-81484780D01*
X157288253Y-81982908D01*
X155772312Y-81549688D01*
X155495495Y-81168683D01*
X155479197Y-81150346D01*
X155464743Y-81130452D01*
X155381653Y-81036947D01*
X155309678Y-80970414D01*
X155209948Y-80894920D01*
X155126375Y-80843706D01*
X155013830Y-80789118D01*
X154921870Y-80755192D01*
X154800837Y-80723609D01*
X154704028Y-80708276D01*
X154579163Y-80700912D01*
X154481220Y-80704760D01*
X154357312Y-80721898D01*
X154262003Y-80744780D01*
X154143820Y-80785764D01*
X154073170Y-80818335D01*
X153130671Y-80818335D01*
X153093348Y-80814659D01*
X153056025Y-80818335D01*
X153056015Y-80818335D01*
X152944362Y-80829332D01*
X152801101Y-80872789D01*
X152669072Y-80943361D01*
X152553347Y-81038334D01*
X152529549Y-81067332D01*
X149493983Y-84102899D01*
X149464985Y-84126697D01*
X149441187Y-84155695D01*
X149441186Y-84155696D01*
X149370011Y-84242422D01*
X149299439Y-84374452D01*
X149279763Y-84439317D01*
X149255983Y-84517712D01*
X149252263Y-84555479D01*
X149175904Y-84641410D01*
X148588119Y-85450427D01*
X148524869Y-85558341D01*
X148483888Y-85676521D01*
X148469045Y-85783836D01*
X146877069Y-84191860D01*
X146993331Y-84026917D01*
X146958210Y-83805175D01*
X146068898Y-83159052D01*
X146057143Y-83175232D01*
X145851652Y-83025935D01*
X145863408Y-83009754D01*
X145786067Y-82953562D01*
X146218196Y-82953562D01*
X147107508Y-83599685D01*
X147329250Y-83564564D01*
X147457668Y-83393038D01*
X147520919Y-83285123D01*
X147561900Y-83166943D01*
X147579037Y-83043039D01*
X147571674Y-82918172D01*
X147540091Y-82797141D01*
X147485504Y-82684597D01*
X147410008Y-82584865D01*
X147316507Y-82501777D01*
X146939115Y-82231383D01*
X146717373Y-82266504D01*
X146218196Y-82953562D01*
X145786067Y-82953562D01*
X145247424Y-82562215D01*
X144621608Y-81936399D01*
X145088273Y-81936399D01*
X145123394Y-82158141D01*
X146012706Y-82804264D01*
X146511882Y-82117206D01*
X146476762Y-81895464D01*
X146102981Y-81620099D01*
X145995067Y-81556849D01*
X145876887Y-81515868D01*
X145752982Y-81498731D01*
X145628115Y-81506094D01*
X145507085Y-81537677D01*
X145394540Y-81592264D01*
X145294808Y-81667759D01*
X145211721Y-81761261D01*
X145088273Y-81936399D01*
X144621608Y-81936399D01*
X142718496Y-80033288D01*
X146777467Y-80033288D01*
X146833218Y-80038779D01*
X146888969Y-80033288D01*
X146888970Y-80033288D01*
X147055717Y-80016865D01*
X147269665Y-79951964D01*
X147466841Y-79846572D01*
X147639667Y-79704737D01*
X147675214Y-79661424D01*
X147987535Y-79349103D01*
X147996498Y-79349985D01*
X148142253Y-79364341D01*
X148142260Y-79364341D01*
X148198004Y-79369831D01*
X148253748Y-79364341D01*
X152743408Y-79364341D01*
X152799159Y-79369832D01*
X152854910Y-79364341D01*
X152854911Y-79364341D01*
X153021658Y-79347918D01*
X153235606Y-79283017D01*
X153432782Y-79177625D01*
X153605608Y-79035790D01*
X153641155Y-78992476D01*
X154126129Y-78507502D01*
X154246748Y-78507502D01*
X154088000Y-78666250D01*
X154084928Y-78968000D01*
X154097188Y-79092482D01*
X154133498Y-79212180D01*
X154192463Y-79322494D01*
X154271815Y-79419185D01*
X154368506Y-79498537D01*
X154478820Y-79557502D01*
X154598518Y-79593812D01*
X154723000Y-79606072D01*
X155162250Y-79603000D01*
X155321000Y-79444250D01*
X155321000Y-78507500D01*
X155301000Y-78507500D01*
X155301000Y-78253500D01*
X155321000Y-78253500D01*
X155321000Y-78233500D01*
X155575000Y-78233500D01*
X155575000Y-78253500D01*
%TA.AperFunction,Conductor*%
D19*
G36*
X155575000Y-78253500D02*
G01*
X155595000Y-78253500D01*
X155595000Y-78507500D01*
X155575000Y-78507500D01*
X155575000Y-79444250D01*
X155733750Y-79603000D01*
X156173000Y-79606072D01*
X156297482Y-79593812D01*
X156417180Y-79557502D01*
X156512754Y-79506416D01*
X156512754Y-79906432D01*
X156525014Y-80030914D01*
X156561324Y-80150612D01*
X156620289Y-80260926D01*
X156699641Y-80357617D01*
X156796332Y-80436969D01*
X156906646Y-80495934D01*
X157026344Y-80532244D01*
X157150826Y-80544504D01*
X157964097Y-80544504D01*
X161038036Y-83618444D01*
X161038037Y-86242316D01*
X160515612Y-86621879D01*
X160108413Y-86531782D01*
X160061937Y-86462226D01*
X159917774Y-86318063D01*
X159748256Y-86204795D01*
X159559898Y-86126774D01*
X159359939Y-86087000D01*
X159156061Y-86087000D01*
X158956102Y-86126774D01*
X158949738Y-86129410D01*
X159091360Y-84660607D01*
X159870148Y-84094785D01*
X159963650Y-84011698D01*
X160039145Y-83911966D01*
X160093733Y-83799422D01*
X160125315Y-83678390D01*
X160132679Y-83553523D01*
X160115541Y-83429619D01*
X160074560Y-83311439D01*
X160011310Y-83203525D01*
X158865129Y-81625942D01*
X158782042Y-81532441D01*
X158682310Y-81456945D01*
X158569766Y-81402358D01*
X158448735Y-81370775D01*
X158323868Y-81363411D01*
X158199964Y-81380549D01*
X158081783Y-81421530D01*
X157973869Y-81484780D01*
X157288253Y-81982908D01*
X155772312Y-81549688D01*
X155495495Y-81168683D01*
X155479197Y-81150346D01*
X155464743Y-81130452D01*
X155381653Y-81036947D01*
X155309678Y-80970414D01*
X155209948Y-80894920D01*
X155126375Y-80843706D01*
X155013830Y-80789118D01*
X154921870Y-80755192D01*
X154800837Y-80723609D01*
X154704028Y-80708276D01*
X154579163Y-80700912D01*
X154481220Y-80704760D01*
X154357312Y-80721898D01*
X154262003Y-80744780D01*
X154143820Y-80785764D01*
X154073170Y-80818335D01*
X153130671Y-80818335D01*
X153093348Y-80814659D01*
X153056025Y-80818335D01*
X153056015Y-80818335D01*
X152944362Y-80829332D01*
X152801101Y-80872789D01*
X152669072Y-80943361D01*
X152553347Y-81038334D01*
X152529549Y-81067332D01*
X149493983Y-84102899D01*
X149464985Y-84126697D01*
X149441187Y-84155695D01*
X149441186Y-84155696D01*
X149370011Y-84242422D01*
X149299439Y-84374452D01*
X149279763Y-84439317D01*
X149255983Y-84517712D01*
X149252263Y-84555479D01*
X149175904Y-84641410D01*
X148588119Y-85450427D01*
X148524869Y-85558341D01*
X148483888Y-85676521D01*
X148469045Y-85783836D01*
X146877069Y-84191860D01*
X146993331Y-84026917D01*
X146958210Y-83805175D01*
X146068898Y-83159052D01*
X146057143Y-83175232D01*
X145851652Y-83025935D01*
X145863408Y-83009754D01*
X145786067Y-82953562D01*
X146218196Y-82953562D01*
X147107508Y-83599685D01*
X147329250Y-83564564D01*
X147457668Y-83393038D01*
X147520919Y-83285123D01*
X147561900Y-83166943D01*
X147579037Y-83043039D01*
X147571674Y-82918172D01*
X147540091Y-82797141D01*
X147485504Y-82684597D01*
X147410008Y-82584865D01*
X147316507Y-82501777D01*
X146939115Y-82231383D01*
X146717373Y-82266504D01*
X146218196Y-82953562D01*
X145786067Y-82953562D01*
X145247424Y-82562215D01*
X144621608Y-81936399D01*
X145088273Y-81936399D01*
X145123394Y-82158141D01*
X146012706Y-82804264D01*
X146511882Y-82117206D01*
X146476762Y-81895464D01*
X146102981Y-81620099D01*
X145995067Y-81556849D01*
X145876887Y-81515868D01*
X145752982Y-81498731D01*
X145628115Y-81506094D01*
X145507085Y-81537677D01*
X145394540Y-81592264D01*
X145294808Y-81667759D01*
X145211721Y-81761261D01*
X145088273Y-81936399D01*
X144621608Y-81936399D01*
X142718496Y-80033288D01*
X146777467Y-80033288D01*
X146833218Y-80038779D01*
X146888969Y-80033288D01*
X146888970Y-80033288D01*
X147055717Y-80016865D01*
X147269665Y-79951964D01*
X147466841Y-79846572D01*
X147639667Y-79704737D01*
X147675214Y-79661424D01*
X147987535Y-79349103D01*
X147996498Y-79349985D01*
X148142253Y-79364341D01*
X148142260Y-79364341D01*
X148198004Y-79369831D01*
X148253748Y-79364341D01*
X152743408Y-79364341D01*
X152799159Y-79369832D01*
X152854910Y-79364341D01*
X152854911Y-79364341D01*
X153021658Y-79347918D01*
X153235606Y-79283017D01*
X153432782Y-79177625D01*
X153605608Y-79035790D01*
X153641155Y-78992476D01*
X154126129Y-78507502D01*
X154246748Y-78507502D01*
X154088000Y-78666250D01*
X154084928Y-78968000D01*
X154097188Y-79092482D01*
X154133498Y-79212180D01*
X154192463Y-79322494D01*
X154271815Y-79419185D01*
X154368506Y-79498537D01*
X154478820Y-79557502D01*
X154598518Y-79593812D01*
X154723000Y-79606072D01*
X155162250Y-79603000D01*
X155321000Y-79444250D01*
X155321000Y-78507500D01*
X155301000Y-78507500D01*
X155301000Y-78253500D01*
X155321000Y-78253500D01*
X155321000Y-78233500D01*
X155575000Y-78233500D01*
X155575000Y-78253500D01*
G37*
%TD.AperFunction*%
D18*
X139549672Y-81196985D02*
X139537916Y-81213166D01*
X140508130Y-81918067D01*
X140729872Y-81882946D01*
X140995899Y-81520953D01*
X143609542Y-84134597D01*
X143513627Y-84181119D01*
X143413895Y-84256614D01*
X143330808Y-84350116D01*
X143324807Y-84358375D01*
X140014457Y-82860224D01*
X140064780Y-82803593D01*
X140393953Y-82345300D01*
X140358832Y-82123557D01*
X139388618Y-81418656D01*
X139376863Y-81434836D01*
X139171372Y-81285539D01*
X139183128Y-81269358D01*
X139166948Y-81257603D01*
X139316245Y-81052112D01*
X139332426Y-81063868D01*
X139344181Y-81047688D01*
X139549672Y-81196985D01*
%TA.AperFunction,Conductor*%
D19*
G36*
X139549672Y-81196985D02*
G01*
X139537916Y-81213166D01*
X140508130Y-81918067D01*
X140729872Y-81882946D01*
X140995899Y-81520953D01*
X143609542Y-84134597D01*
X143513627Y-84181119D01*
X143413895Y-84256614D01*
X143330808Y-84350116D01*
X143324807Y-84358375D01*
X140014457Y-82860224D01*
X140064780Y-82803593D01*
X140393953Y-82345300D01*
X140358832Y-82123557D01*
X139388618Y-81418656D01*
X139376863Y-81434836D01*
X139171372Y-81285539D01*
X139183128Y-81269358D01*
X139166948Y-81257603D01*
X139316245Y-81052112D01*
X139332426Y-81063868D01*
X139344181Y-81047688D01*
X139549672Y-81196985D01*
G37*
%TD.AperFunction*%
D18*
X145676493Y-75238131D02*
X145456345Y-75194340D01*
X145163825Y-75194340D01*
X144876927Y-75251408D01*
X144606674Y-75363350D01*
X144363453Y-75525865D01*
X144156610Y-75732708D01*
X143994095Y-75975929D01*
X143882153Y-76246182D01*
X143825085Y-76533080D01*
X143825085Y-76825600D01*
X143882153Y-77112498D01*
X143994095Y-77382751D01*
X144156610Y-77625972D01*
X144293926Y-77763288D01*
X141783412Y-77763288D01*
X141955228Y-77506147D01*
X142082246Y-77199496D01*
X142147000Y-76873958D01*
X142147000Y-76542042D01*
X142082246Y-76216504D01*
X141955228Y-75909853D01*
X141770825Y-75633875D01*
X141536125Y-75399175D01*
X141260147Y-75214772D01*
X140953496Y-75087754D01*
X140627958Y-75023000D01*
X140296042Y-75023000D01*
X139970504Y-75087754D01*
X139663853Y-75214772D01*
X139387875Y-75399175D01*
X139153175Y-75633875D01*
X138968772Y-75909853D01*
X138841754Y-76216504D01*
X138777000Y-76542042D01*
X138777000Y-76873958D01*
X138841754Y-77199496D01*
X138968772Y-77506147D01*
X139140588Y-77763288D01*
X138211369Y-77763288D01*
X138155617Y-77757797D01*
X137933118Y-77779711D01*
X137889311Y-77793000D01*
X137719171Y-77844612D01*
X137521995Y-77950004D01*
X137349169Y-78091839D01*
X137313629Y-78135145D01*
X137185487Y-78263287D01*
X137159359Y-78263287D01*
X136872461Y-78320355D01*
X136735716Y-78376996D01*
X136735716Y-78109053D01*
X136678648Y-77822155D01*
X136566706Y-77551902D01*
X136404191Y-77308681D01*
X136197348Y-77101838D01*
X135954127Y-76939323D01*
X135683874Y-76827381D01*
X135396976Y-76770313D01*
X135104456Y-76770313D01*
X134817558Y-76827381D01*
X134547305Y-76939323D01*
X134304084Y-77101838D01*
X134097241Y-77308681D01*
X133934726Y-77551902D01*
X133822784Y-77822155D01*
X133765716Y-78109053D01*
X133765716Y-78401573D01*
X133822784Y-78688471D01*
X133934726Y-78958724D01*
X134097241Y-79201945D01*
X134304084Y-79408788D01*
X134490717Y-79533492D01*
X134490717Y-79887570D01*
X127655886Y-74927860D01*
X145996316Y-74918308D01*
X145676493Y-75238131D01*
%TA.AperFunction,Conductor*%
D19*
G36*
X145676493Y-75238131D02*
G01*
X145456345Y-75194340D01*
X145163825Y-75194340D01*
X144876927Y-75251408D01*
X144606674Y-75363350D01*
X144363453Y-75525865D01*
X144156610Y-75732708D01*
X143994095Y-75975929D01*
X143882153Y-76246182D01*
X143825085Y-76533080D01*
X143825085Y-76825600D01*
X143882153Y-77112498D01*
X143994095Y-77382751D01*
X144156610Y-77625972D01*
X144293926Y-77763288D01*
X141783412Y-77763288D01*
X141955228Y-77506147D01*
X142082246Y-77199496D01*
X142147000Y-76873958D01*
X142147000Y-76542042D01*
X142082246Y-76216504D01*
X141955228Y-75909853D01*
X141770825Y-75633875D01*
X141536125Y-75399175D01*
X141260147Y-75214772D01*
X140953496Y-75087754D01*
X140627958Y-75023000D01*
X140296042Y-75023000D01*
X139970504Y-75087754D01*
X139663853Y-75214772D01*
X139387875Y-75399175D01*
X139153175Y-75633875D01*
X138968772Y-75909853D01*
X138841754Y-76216504D01*
X138777000Y-76542042D01*
X138777000Y-76873958D01*
X138841754Y-77199496D01*
X138968772Y-77506147D01*
X139140588Y-77763288D01*
X138211369Y-77763288D01*
X138155617Y-77757797D01*
X137933118Y-77779711D01*
X137889311Y-77793000D01*
X137719171Y-77844612D01*
X137521995Y-77950004D01*
X137349169Y-78091839D01*
X137313629Y-78135145D01*
X137185487Y-78263287D01*
X137159359Y-78263287D01*
X136872461Y-78320355D01*
X136735716Y-78376996D01*
X136735716Y-78109053D01*
X136678648Y-77822155D01*
X136566706Y-77551902D01*
X136404191Y-77308681D01*
X136197348Y-77101838D01*
X135954127Y-76939323D01*
X135683874Y-76827381D01*
X135396976Y-76770313D01*
X135104456Y-76770313D01*
X134817558Y-76827381D01*
X134547305Y-76939323D01*
X134304084Y-77101838D01*
X134097241Y-77308681D01*
X133934726Y-77551902D01*
X133822784Y-77822155D01*
X133765716Y-78109053D01*
X133765716Y-78401573D01*
X133822784Y-78688471D01*
X133934726Y-78958724D01*
X134097241Y-79201945D01*
X134304084Y-79408788D01*
X134490717Y-79533492D01*
X134490717Y-79887570D01*
X127655886Y-74927860D01*
X145996316Y-74918308D01*
X145676493Y-75238131D01*
G37*
%TD.AperFunction*%
D18*
X153916551Y-75499051D02*
X153881011Y-75542357D01*
X152329028Y-77094341D01*
X151875789Y-77094341D01*
X151875085Y-76965090D01*
X151716335Y-76806340D01*
X150517085Y-76806340D01*
X150517085Y-76826340D01*
X150263085Y-76826340D01*
X150263085Y-76806340D01*
X150243085Y-76806340D01*
X150243085Y-76552340D01*
X150263085Y-76552340D01*
X150263085Y-76532340D01*
X150517085Y-76532340D01*
X150517085Y-76552340D01*
X151716335Y-76552340D01*
X151875085Y-76393590D01*
X151878157Y-75829340D01*
X151865897Y-75704858D01*
X151829587Y-75585160D01*
X151780855Y-75493991D01*
X153922717Y-75493991D01*
X153916551Y-75499051D01*
%TA.AperFunction,Conductor*%
D19*
G36*
X153916551Y-75499051D02*
G01*
X153881011Y-75542357D01*
X152329028Y-77094341D01*
X151875789Y-77094341D01*
X151875085Y-76965090D01*
X151716335Y-76806340D01*
X150517085Y-76806340D01*
X150517085Y-76826340D01*
X150263085Y-76826340D01*
X150263085Y-76806340D01*
X150243085Y-76806340D01*
X150243085Y-76552340D01*
X150263085Y-76552340D01*
X150263085Y-76532340D01*
X150517085Y-76532340D01*
X150517085Y-76552340D01*
X151716335Y-76552340D01*
X151875085Y-76393590D01*
X151878157Y-75829340D01*
X151865897Y-75704858D01*
X151829587Y-75585160D01*
X151780855Y-75493991D01*
X153922717Y-75493991D01*
X153916551Y-75499051D01*
G37*
%TD.AperFunction*%
%TD*%
M02*
