%FSLAX45Y45*%
G04 Gerber Fmt 4.5, Leading zero omitted, Abs format (unit mm)*
G04 Created by KiCad (PCBNEW 5.1.8) date 2021-01-22 11:52:41*
%MOMM*%
%LPD*%
G01*
G04 APERTURE LIST*
%TA.AperFunction,Profile*%
%ADD10C,0.200000*%
%TD*%
%ADD11C,0.200000*%
%ADD12C,0.300000*%
G04 APERTURE END LIST*
D10*
X15993545Y-12169693D02*
X17538700Y-7416800D01*
X15038909Y-9233238D02*
X15993545Y-12169693D01*
X12539317Y-7419404D02*
X15038909Y-9233238D01*
X17538700Y-7416800D02*
X12539317Y-7419404D01*
D11*
X16884300Y-7791100D02*
X16999300Y-7906100D01*
X16999300Y-7791100D02*
X16884300Y-7906100D01*
X14151200Y-7670800D02*
G75*
G03*
X14151200Y-7670800I-105000J0D01*
G01*
X16322900Y-10680700D02*
G75*
G03*
X16322900Y-10680700I-105000J0D01*
G01*
X17084900Y-8178800D02*
G75*
G03*
X17084900Y-8178800I-105000J0D01*
G01*
D12*
X12815745Y-12645408D02*
X12815745Y-12345408D01*
X12887174Y-12345408D01*
X12930031Y-12359694D01*
X12958602Y-12388265D01*
X12972888Y-12416836D01*
X12987174Y-12473979D01*
X12987174Y-12516836D01*
X12972888Y-12573979D01*
X12958602Y-12602551D01*
X12930031Y-12631122D01*
X12887174Y-12645408D01*
X12815745Y-12645408D01*
X13115745Y-12645408D02*
X13115745Y-12445408D01*
X13115745Y-12502551D02*
X13130031Y-12473979D01*
X13144317Y-12459694D01*
X13172888Y-12445408D01*
X13201460Y-12445408D01*
X13301460Y-12645408D02*
X13301460Y-12445408D01*
X13301460Y-12345408D02*
X13287174Y-12359694D01*
X13301460Y-12373979D01*
X13315745Y-12359694D01*
X13301460Y-12345408D01*
X13301460Y-12373979D01*
X13487174Y-12645408D02*
X13458602Y-12631122D01*
X13444317Y-12602551D01*
X13444317Y-12345408D01*
X13644317Y-12645408D02*
X13615745Y-12631122D01*
X13601460Y-12602551D01*
X13601460Y-12345408D01*
X13987174Y-12645408D02*
X13987174Y-12345408D01*
X14087174Y-12559694D01*
X14187174Y-12345408D01*
X14187174Y-12645408D01*
X14458602Y-12645408D02*
X14458602Y-12488265D01*
X14444317Y-12459694D01*
X14415745Y-12445408D01*
X14358602Y-12445408D01*
X14330031Y-12459694D01*
X14458602Y-12631122D02*
X14430031Y-12645408D01*
X14358602Y-12645408D01*
X14330031Y-12631122D01*
X14315745Y-12602551D01*
X14315745Y-12573979D01*
X14330031Y-12545408D01*
X14358602Y-12531122D01*
X14430031Y-12531122D01*
X14458602Y-12516836D01*
X14601460Y-12445408D02*
X14601460Y-12745408D01*
X14601460Y-12459694D02*
X14630031Y-12445408D01*
X14687174Y-12445408D01*
X14715745Y-12459694D01*
X14730031Y-12473979D01*
X14744317Y-12502551D01*
X14744317Y-12588265D01*
X14730031Y-12616836D01*
X14715745Y-12631122D01*
X14687174Y-12645408D01*
X14630031Y-12645408D01*
X14601460Y-12631122D01*
X14872888Y-12616836D02*
X14887174Y-12631122D01*
X14872888Y-12645408D01*
X14858602Y-12631122D01*
X14872888Y-12616836D01*
X14872888Y-12645408D01*
X14872888Y-12459694D02*
X14887174Y-12473979D01*
X14872888Y-12488265D01*
X14858602Y-12473979D01*
X14872888Y-12459694D01*
X14872888Y-12488265D01*
X12414317Y-13082194D02*
X12529317Y-13197194D01*
X12529317Y-13082194D02*
X12414317Y-13197194D01*
X12972888Y-13275408D02*
X12801460Y-13275408D01*
X12887174Y-13275408D02*
X12887174Y-12975408D01*
X12858602Y-13018265D01*
X12830031Y-13046836D01*
X12801460Y-13061122D01*
X13101460Y-13246836D02*
X13115745Y-13261122D01*
X13101460Y-13275408D01*
X13087174Y-13261122D01*
X13101460Y-13246836D01*
X13101460Y-13275408D01*
X13401460Y-13275408D02*
X13230031Y-13275408D01*
X13315745Y-13275408D02*
X13315745Y-12975408D01*
X13287174Y-13018265D01*
X13258602Y-13046836D01*
X13230031Y-13061122D01*
X13672888Y-12975408D02*
X13530031Y-12975408D01*
X13515745Y-13118265D01*
X13530031Y-13103979D01*
X13558602Y-13089694D01*
X13630031Y-13089694D01*
X13658602Y-13103979D01*
X13672888Y-13118265D01*
X13687174Y-13146836D01*
X13687174Y-13218265D01*
X13672888Y-13246836D01*
X13658602Y-13261122D01*
X13630031Y-13275408D01*
X13558602Y-13275408D01*
X13530031Y-13261122D01*
X13515745Y-13246836D01*
X13815745Y-13275408D02*
X13815745Y-13075408D01*
X13815745Y-13103979D02*
X13830031Y-13089694D01*
X13858602Y-13075408D01*
X13901460Y-13075408D01*
X13930031Y-13089694D01*
X13944317Y-13118265D01*
X13944317Y-13275408D01*
X13944317Y-13118265D02*
X13958602Y-13089694D01*
X13987174Y-13075408D01*
X14030031Y-13075408D01*
X14058602Y-13089694D01*
X14072888Y-13118265D01*
X14072888Y-13275408D01*
X14215745Y-13275408D02*
X14215745Y-13075408D01*
X14215745Y-13103979D02*
X14230031Y-13089694D01*
X14258602Y-13075408D01*
X14301460Y-13075408D01*
X14330031Y-13089694D01*
X14344317Y-13118265D01*
X14344317Y-13275408D01*
X14344317Y-13118265D02*
X14358602Y-13089694D01*
X14387174Y-13075408D01*
X14430031Y-13075408D01*
X14458602Y-13089694D01*
X14472888Y-13118265D01*
X14472888Y-13275408D01*
X15058602Y-12961122D02*
X14801460Y-13346836D01*
X15444317Y-12975408D02*
X15472888Y-12975408D01*
X15501460Y-12989694D01*
X15515745Y-13003979D01*
X15530031Y-13032551D01*
X15544317Y-13089694D01*
X15544317Y-13161122D01*
X15530031Y-13218265D01*
X15515745Y-13246836D01*
X15501460Y-13261122D01*
X15472888Y-13275408D01*
X15444317Y-13275408D01*
X15415745Y-13261122D01*
X15401460Y-13246836D01*
X15387174Y-13218265D01*
X15372888Y-13161122D01*
X15372888Y-13089694D01*
X15387174Y-13032551D01*
X15401460Y-13003979D01*
X15415745Y-12989694D01*
X15444317Y-12975408D01*
X15672888Y-13246836D02*
X15687174Y-13261122D01*
X15672888Y-13275408D01*
X15658602Y-13261122D01*
X15672888Y-13246836D01*
X15672888Y-13275408D01*
X15872888Y-12975408D02*
X15901460Y-12975408D01*
X15930031Y-12989694D01*
X15944317Y-13003979D01*
X15958602Y-13032551D01*
X15972888Y-13089694D01*
X15972888Y-13161122D01*
X15958602Y-13218265D01*
X15944317Y-13246836D01*
X15930031Y-13261122D01*
X15901460Y-13275408D01*
X15872888Y-13275408D01*
X15844317Y-13261122D01*
X15830031Y-13246836D01*
X15815745Y-13218265D01*
X15801460Y-13161122D01*
X15801460Y-13089694D01*
X15815745Y-13032551D01*
X15830031Y-13003979D01*
X15844317Y-12989694D01*
X15872888Y-12975408D01*
X16230031Y-13075408D02*
X16230031Y-13275408D01*
X16158602Y-12961122D02*
X16087174Y-13175408D01*
X16272888Y-13175408D01*
X16530031Y-12975408D02*
X16387174Y-12975408D01*
X16372888Y-13118265D01*
X16387174Y-13103979D01*
X16415745Y-13089694D01*
X16487174Y-13089694D01*
X16515745Y-13103979D01*
X16530031Y-13118265D01*
X16544317Y-13146836D01*
X16544317Y-13218265D01*
X16530031Y-13246836D01*
X16515745Y-13261122D01*
X16487174Y-13275408D01*
X16415745Y-13275408D01*
X16387174Y-13261122D01*
X16372888Y-13246836D01*
X16658602Y-12975408D02*
X16658602Y-13032551D01*
X16772888Y-12975408D02*
X16772888Y-13032551D01*
X17215745Y-13389694D02*
X17201460Y-13375408D01*
X17172888Y-13332551D01*
X17158603Y-13303979D01*
X17144317Y-13261122D01*
X17130031Y-13189694D01*
X17130031Y-13132551D01*
X17144317Y-13061122D01*
X17158603Y-13018265D01*
X17172888Y-12989694D01*
X17201460Y-12946836D01*
X17215745Y-12932551D01*
X17487174Y-13275408D02*
X17315745Y-13275408D01*
X17401460Y-13275408D02*
X17401460Y-12975408D01*
X17372888Y-13018265D01*
X17344317Y-13046836D01*
X17315745Y-13061122D01*
X17844317Y-13275408D02*
X17844317Y-12975408D01*
X17972888Y-13275408D02*
X17972888Y-13118265D01*
X17958603Y-13089694D01*
X17930031Y-13075408D01*
X17887174Y-13075408D01*
X17858603Y-13089694D01*
X17844317Y-13103979D01*
X18158603Y-13275408D02*
X18130031Y-13261122D01*
X18115745Y-13246836D01*
X18101460Y-13218265D01*
X18101460Y-13132551D01*
X18115745Y-13103979D01*
X18130031Y-13089694D01*
X18158603Y-13075408D01*
X18201460Y-13075408D01*
X18230031Y-13089694D01*
X18244317Y-13103979D01*
X18258603Y-13132551D01*
X18258603Y-13218265D01*
X18244317Y-13246836D01*
X18230031Y-13261122D01*
X18201460Y-13275408D01*
X18158603Y-13275408D01*
X18430031Y-13275408D02*
X18401460Y-13261122D01*
X18387174Y-13232551D01*
X18387174Y-12975408D01*
X18658603Y-13261122D02*
X18630031Y-13275408D01*
X18572888Y-13275408D01*
X18544317Y-13261122D01*
X18530031Y-13232551D01*
X18530031Y-13118265D01*
X18544317Y-13089694D01*
X18572888Y-13075408D01*
X18630031Y-13075408D01*
X18658603Y-13089694D01*
X18672888Y-13118265D01*
X18672888Y-13146836D01*
X18530031Y-13175408D01*
X18772888Y-13389694D02*
X18787174Y-13375408D01*
X18815745Y-13332551D01*
X18830031Y-13303979D01*
X18844317Y-13261122D01*
X18858603Y-13189694D01*
X18858603Y-13132551D01*
X18844317Y-13061122D01*
X18830031Y-13018265D01*
X18815745Y-12989694D01*
X18787174Y-12946836D01*
X18772888Y-12932551D01*
X19315745Y-13389694D02*
X19301460Y-13375408D01*
X19272888Y-13332551D01*
X19258603Y-13303979D01*
X19244317Y-13261122D01*
X19230031Y-13189694D01*
X19230031Y-13132551D01*
X19244317Y-13061122D01*
X19258603Y-13018265D01*
X19272888Y-12989694D01*
X19301460Y-12946836D01*
X19315745Y-12932551D01*
X19430031Y-13075408D02*
X19430031Y-13275408D01*
X19430031Y-13103979D02*
X19444317Y-13089694D01*
X19472888Y-13075408D01*
X19515745Y-13075408D01*
X19544317Y-13089694D01*
X19558603Y-13118265D01*
X19558603Y-13275408D01*
X19744317Y-13275408D02*
X19715745Y-13261122D01*
X19701460Y-13246836D01*
X19687174Y-13218265D01*
X19687174Y-13132551D01*
X19701460Y-13103979D01*
X19715745Y-13089694D01*
X19744317Y-13075408D01*
X19787174Y-13075408D01*
X19815745Y-13089694D01*
X19830031Y-13103979D01*
X19844317Y-13132551D01*
X19844317Y-13218265D01*
X19830031Y-13246836D01*
X19815745Y-13261122D01*
X19787174Y-13275408D01*
X19744317Y-13275408D01*
X19930031Y-13075408D02*
X20044317Y-13075408D01*
X19972888Y-12975408D02*
X19972888Y-13232551D01*
X19987174Y-13261122D01*
X20015745Y-13275408D01*
X20044317Y-13275408D01*
X20372888Y-13075408D02*
X20372888Y-13375408D01*
X20372888Y-13089694D02*
X20401460Y-13075408D01*
X20458603Y-13075408D01*
X20487174Y-13089694D01*
X20501460Y-13103979D01*
X20515745Y-13132551D01*
X20515745Y-13218265D01*
X20501460Y-13246836D01*
X20487174Y-13261122D01*
X20458603Y-13275408D01*
X20401460Y-13275408D01*
X20372888Y-13261122D01*
X20687174Y-13275408D02*
X20658603Y-13261122D01*
X20644317Y-13232551D01*
X20644317Y-12975408D01*
X20930031Y-13275408D02*
X20930031Y-13118265D01*
X20915745Y-13089694D01*
X20887174Y-13075408D01*
X20830031Y-13075408D01*
X20801460Y-13089694D01*
X20930031Y-13261122D02*
X20901460Y-13275408D01*
X20830031Y-13275408D01*
X20801460Y-13261122D01*
X20787174Y-13232551D01*
X20787174Y-13203979D01*
X20801460Y-13175408D01*
X20830031Y-13161122D01*
X20901460Y-13161122D01*
X20930031Y-13146836D01*
X21030031Y-13075408D02*
X21144317Y-13075408D01*
X21072888Y-12975408D02*
X21072888Y-13232551D01*
X21087174Y-13261122D01*
X21115745Y-13275408D01*
X21144317Y-13275408D01*
X21358603Y-13261122D02*
X21330031Y-13275408D01*
X21272888Y-13275408D01*
X21244317Y-13261122D01*
X21230031Y-13232551D01*
X21230031Y-13118265D01*
X21244317Y-13089694D01*
X21272888Y-13075408D01*
X21330031Y-13075408D01*
X21358603Y-13089694D01*
X21372888Y-13118265D01*
X21372888Y-13146836D01*
X21230031Y-13175408D01*
X21630031Y-13275408D02*
X21630031Y-12975408D01*
X21630031Y-13261122D02*
X21601460Y-13275408D01*
X21544317Y-13275408D01*
X21515745Y-13261122D01*
X21501460Y-13246836D01*
X21487174Y-13218265D01*
X21487174Y-13132551D01*
X21501460Y-13103979D01*
X21515745Y-13089694D01*
X21544317Y-13075408D01*
X21601460Y-13075408D01*
X21630031Y-13089694D01*
X21744317Y-13389694D02*
X21758603Y-13375408D01*
X21787174Y-13332551D01*
X21801460Y-13303979D01*
X21815745Y-13261122D01*
X21830031Y-13189694D01*
X21830031Y-13132551D01*
X21815745Y-13061122D01*
X21801460Y-13018265D01*
X21787174Y-12989694D01*
X21758603Y-12946836D01*
X21744317Y-12932551D01*
X12529317Y-13535694D02*
G75*
G03*
X12529317Y-13535694I-105000J0D01*
G01*
X12801460Y-13399979D02*
X12815745Y-13385694D01*
X12844317Y-13371408D01*
X12915745Y-13371408D01*
X12944317Y-13385694D01*
X12958602Y-13399979D01*
X12972888Y-13428551D01*
X12972888Y-13457122D01*
X12958602Y-13499979D01*
X12787174Y-13671408D01*
X12972888Y-13671408D01*
X13101460Y-13642836D02*
X13115745Y-13657122D01*
X13101460Y-13671408D01*
X13087174Y-13657122D01*
X13101460Y-13642836D01*
X13101460Y-13671408D01*
X13401460Y-13671408D02*
X13230031Y-13671408D01*
X13315745Y-13671408D02*
X13315745Y-13371408D01*
X13287174Y-13414265D01*
X13258602Y-13442836D01*
X13230031Y-13457122D01*
X13587174Y-13371408D02*
X13615745Y-13371408D01*
X13644317Y-13385694D01*
X13658602Y-13399979D01*
X13672888Y-13428551D01*
X13687174Y-13485694D01*
X13687174Y-13557122D01*
X13672888Y-13614265D01*
X13658602Y-13642836D01*
X13644317Y-13657122D01*
X13615745Y-13671408D01*
X13587174Y-13671408D01*
X13558602Y-13657122D01*
X13544317Y-13642836D01*
X13530031Y-13614265D01*
X13515745Y-13557122D01*
X13515745Y-13485694D01*
X13530031Y-13428551D01*
X13544317Y-13399979D01*
X13558602Y-13385694D01*
X13587174Y-13371408D01*
X13815745Y-13671408D02*
X13815745Y-13471408D01*
X13815745Y-13499979D02*
X13830031Y-13485694D01*
X13858602Y-13471408D01*
X13901460Y-13471408D01*
X13930031Y-13485694D01*
X13944317Y-13514265D01*
X13944317Y-13671408D01*
X13944317Y-13514265D02*
X13958602Y-13485694D01*
X13987174Y-13471408D01*
X14030031Y-13471408D01*
X14058602Y-13485694D01*
X14072888Y-13514265D01*
X14072888Y-13671408D01*
X14215745Y-13671408D02*
X14215745Y-13471408D01*
X14215745Y-13499979D02*
X14230031Y-13485694D01*
X14258602Y-13471408D01*
X14301460Y-13471408D01*
X14330031Y-13485694D01*
X14344317Y-13514265D01*
X14344317Y-13671408D01*
X14344317Y-13514265D02*
X14358602Y-13485694D01*
X14387174Y-13471408D01*
X14430031Y-13471408D01*
X14458602Y-13485694D01*
X14472888Y-13514265D01*
X14472888Y-13671408D01*
X15058602Y-13357122D02*
X14801460Y-13742836D01*
X15444317Y-13371408D02*
X15472888Y-13371408D01*
X15501460Y-13385694D01*
X15515745Y-13399979D01*
X15530031Y-13428551D01*
X15544317Y-13485694D01*
X15544317Y-13557122D01*
X15530031Y-13614265D01*
X15515745Y-13642836D01*
X15501460Y-13657122D01*
X15472888Y-13671408D01*
X15444317Y-13671408D01*
X15415745Y-13657122D01*
X15401460Y-13642836D01*
X15387174Y-13614265D01*
X15372888Y-13557122D01*
X15372888Y-13485694D01*
X15387174Y-13428551D01*
X15401460Y-13399979D01*
X15415745Y-13385694D01*
X15444317Y-13371408D01*
X15672888Y-13642836D02*
X15687174Y-13657122D01*
X15672888Y-13671408D01*
X15658602Y-13657122D01*
X15672888Y-13642836D01*
X15672888Y-13671408D01*
X15872888Y-13371408D02*
X15901460Y-13371408D01*
X15930031Y-13385694D01*
X15944317Y-13399979D01*
X15958602Y-13428551D01*
X15972888Y-13485694D01*
X15972888Y-13557122D01*
X15958602Y-13614265D01*
X15944317Y-13642836D01*
X15930031Y-13657122D01*
X15901460Y-13671408D01*
X15872888Y-13671408D01*
X15844317Y-13657122D01*
X15830031Y-13642836D01*
X15815745Y-13614265D01*
X15801460Y-13557122D01*
X15801460Y-13485694D01*
X15815745Y-13428551D01*
X15830031Y-13399979D01*
X15844317Y-13385694D01*
X15872888Y-13371408D01*
X16144317Y-13499979D02*
X16115745Y-13485694D01*
X16101460Y-13471408D01*
X16087174Y-13442836D01*
X16087174Y-13428551D01*
X16101460Y-13399979D01*
X16115745Y-13385694D01*
X16144317Y-13371408D01*
X16201460Y-13371408D01*
X16230031Y-13385694D01*
X16244317Y-13399979D01*
X16258602Y-13428551D01*
X16258602Y-13442836D01*
X16244317Y-13471408D01*
X16230031Y-13485694D01*
X16201460Y-13499979D01*
X16144317Y-13499979D01*
X16115745Y-13514265D01*
X16101460Y-13528551D01*
X16087174Y-13557122D01*
X16087174Y-13614265D01*
X16101460Y-13642836D01*
X16115745Y-13657122D01*
X16144317Y-13671408D01*
X16201460Y-13671408D01*
X16230031Y-13657122D01*
X16244317Y-13642836D01*
X16258602Y-13614265D01*
X16258602Y-13557122D01*
X16244317Y-13528551D01*
X16230031Y-13514265D01*
X16201460Y-13499979D01*
X16358602Y-13371408D02*
X16544317Y-13371408D01*
X16444317Y-13485694D01*
X16487174Y-13485694D01*
X16515745Y-13499979D01*
X16530031Y-13514265D01*
X16544317Y-13542836D01*
X16544317Y-13614265D01*
X16530031Y-13642836D01*
X16515745Y-13657122D01*
X16487174Y-13671408D01*
X16401460Y-13671408D01*
X16372888Y-13657122D01*
X16358602Y-13642836D01*
X16658602Y-13371408D02*
X16658602Y-13428551D01*
X16772888Y-13371408D02*
X16772888Y-13428551D01*
X17215745Y-13785694D02*
X17201460Y-13771408D01*
X17172888Y-13728551D01*
X17158603Y-13699979D01*
X17144317Y-13657122D01*
X17130031Y-13585694D01*
X17130031Y-13528551D01*
X17144317Y-13457122D01*
X17158603Y-13414265D01*
X17172888Y-13385694D01*
X17201460Y-13342836D01*
X17215745Y-13328551D01*
X17301460Y-13371408D02*
X17487174Y-13371408D01*
X17387174Y-13485694D01*
X17430031Y-13485694D01*
X17458603Y-13499979D01*
X17472888Y-13514265D01*
X17487174Y-13542836D01*
X17487174Y-13614265D01*
X17472888Y-13642836D01*
X17458603Y-13657122D01*
X17430031Y-13671408D01*
X17344317Y-13671408D01*
X17315745Y-13657122D01*
X17301460Y-13642836D01*
X17844317Y-13671408D02*
X17844317Y-13371408D01*
X17972888Y-13671408D02*
X17972888Y-13514265D01*
X17958603Y-13485694D01*
X17930031Y-13471408D01*
X17887174Y-13471408D01*
X17858603Y-13485694D01*
X17844317Y-13499979D01*
X18158603Y-13671408D02*
X18130031Y-13657122D01*
X18115745Y-13642836D01*
X18101460Y-13614265D01*
X18101460Y-13528551D01*
X18115745Y-13499979D01*
X18130031Y-13485694D01*
X18158603Y-13471408D01*
X18201460Y-13471408D01*
X18230031Y-13485694D01*
X18244317Y-13499979D01*
X18258603Y-13528551D01*
X18258603Y-13614265D01*
X18244317Y-13642836D01*
X18230031Y-13657122D01*
X18201460Y-13671408D01*
X18158603Y-13671408D01*
X18430031Y-13671408D02*
X18401460Y-13657122D01*
X18387174Y-13628551D01*
X18387174Y-13371408D01*
X18658603Y-13657122D02*
X18630031Y-13671408D01*
X18572888Y-13671408D01*
X18544317Y-13657122D01*
X18530031Y-13628551D01*
X18530031Y-13514265D01*
X18544317Y-13485694D01*
X18572888Y-13471408D01*
X18630031Y-13471408D01*
X18658603Y-13485694D01*
X18672888Y-13514265D01*
X18672888Y-13542836D01*
X18530031Y-13571408D01*
X18787174Y-13657122D02*
X18815745Y-13671408D01*
X18872888Y-13671408D01*
X18901460Y-13657122D01*
X18915745Y-13628551D01*
X18915745Y-13614265D01*
X18901460Y-13585694D01*
X18872888Y-13571408D01*
X18830031Y-13571408D01*
X18801460Y-13557122D01*
X18787174Y-13528551D01*
X18787174Y-13514265D01*
X18801460Y-13485694D01*
X18830031Y-13471408D01*
X18872888Y-13471408D01*
X18901460Y-13485694D01*
X19015745Y-13785694D02*
X19030031Y-13771408D01*
X19058603Y-13728551D01*
X19072888Y-13699979D01*
X19087174Y-13657122D01*
X19101460Y-13585694D01*
X19101460Y-13528551D01*
X19087174Y-13457122D01*
X19072888Y-13414265D01*
X19058603Y-13385694D01*
X19030031Y-13342836D01*
X19015745Y-13328551D01*
X19558603Y-13785694D02*
X19544317Y-13771408D01*
X19515745Y-13728551D01*
X19501460Y-13699979D01*
X19487174Y-13657122D01*
X19472888Y-13585694D01*
X19472888Y-13528551D01*
X19487174Y-13457122D01*
X19501460Y-13414265D01*
X19515745Y-13385694D01*
X19544317Y-13342836D01*
X19558603Y-13328551D01*
X19672888Y-13471408D02*
X19672888Y-13671408D01*
X19672888Y-13499979D02*
X19687174Y-13485694D01*
X19715745Y-13471408D01*
X19758603Y-13471408D01*
X19787174Y-13485694D01*
X19801460Y-13514265D01*
X19801460Y-13671408D01*
X19987174Y-13671408D02*
X19958603Y-13657122D01*
X19944317Y-13642836D01*
X19930031Y-13614265D01*
X19930031Y-13528551D01*
X19944317Y-13499979D01*
X19958603Y-13485694D01*
X19987174Y-13471408D01*
X20030031Y-13471408D01*
X20058603Y-13485694D01*
X20072888Y-13499979D01*
X20087174Y-13528551D01*
X20087174Y-13614265D01*
X20072888Y-13642836D01*
X20058603Y-13657122D01*
X20030031Y-13671408D01*
X19987174Y-13671408D01*
X20172888Y-13471408D02*
X20287174Y-13471408D01*
X20215745Y-13371408D02*
X20215745Y-13628551D01*
X20230031Y-13657122D01*
X20258603Y-13671408D01*
X20287174Y-13671408D01*
X20615745Y-13471408D02*
X20615745Y-13771408D01*
X20615745Y-13485694D02*
X20644317Y-13471408D01*
X20701460Y-13471408D01*
X20730031Y-13485694D01*
X20744317Y-13499979D01*
X20758603Y-13528551D01*
X20758603Y-13614265D01*
X20744317Y-13642836D01*
X20730031Y-13657122D01*
X20701460Y-13671408D01*
X20644317Y-13671408D01*
X20615745Y-13657122D01*
X20930031Y-13671408D02*
X20901460Y-13657122D01*
X20887174Y-13628551D01*
X20887174Y-13371408D01*
X21172888Y-13671408D02*
X21172888Y-13514265D01*
X21158603Y-13485694D01*
X21130031Y-13471408D01*
X21072888Y-13471408D01*
X21044317Y-13485694D01*
X21172888Y-13657122D02*
X21144317Y-13671408D01*
X21072888Y-13671408D01*
X21044317Y-13657122D01*
X21030031Y-13628551D01*
X21030031Y-13599979D01*
X21044317Y-13571408D01*
X21072888Y-13557122D01*
X21144317Y-13557122D01*
X21172888Y-13542836D01*
X21272888Y-13471408D02*
X21387174Y-13471408D01*
X21315745Y-13371408D02*
X21315745Y-13628551D01*
X21330031Y-13657122D01*
X21358603Y-13671408D01*
X21387174Y-13671408D01*
X21601460Y-13657122D02*
X21572888Y-13671408D01*
X21515745Y-13671408D01*
X21487174Y-13657122D01*
X21472888Y-13628551D01*
X21472888Y-13514265D01*
X21487174Y-13485694D01*
X21515745Y-13471408D01*
X21572888Y-13471408D01*
X21601460Y-13485694D01*
X21615745Y-13514265D01*
X21615745Y-13542836D01*
X21472888Y-13571408D01*
X21872888Y-13671408D02*
X21872888Y-13371408D01*
X21872888Y-13657122D02*
X21844317Y-13671408D01*
X21787174Y-13671408D01*
X21758603Y-13657122D01*
X21744317Y-13642836D01*
X21730031Y-13614265D01*
X21730031Y-13528551D01*
X21744317Y-13499979D01*
X21758603Y-13485694D01*
X21787174Y-13471408D01*
X21844317Y-13471408D01*
X21872888Y-13485694D01*
X21987174Y-13785694D02*
X22001460Y-13771408D01*
X22030031Y-13728551D01*
X22044317Y-13699979D01*
X22058603Y-13657122D01*
X22072888Y-13585694D01*
X22072888Y-13528551D01*
X22058603Y-13457122D01*
X22044317Y-13414265D01*
X22030031Y-13385694D01*
X22001460Y-13342836D01*
X21987174Y-13328551D01*
M02*
