%TF.GenerationSoftware,KiCad,Pcbnew,5.1.8*%
%TF.CreationDate,2021-01-20T11:21:44-05:00*%
%TF.ProjectId,penrosedart,70656e72-6f73-4656-9461-72742e6b6963,rev?*%
%TF.SameCoordinates,Original*%
%TF.FileFunction,Legend,Top*%
%TF.FilePolarity,Positive*%
%FSLAX46Y46*%
G04 Gerber Fmt 4.6, Leading zero omitted, Abs format (unit mm)*
G04 Created by KiCad (PCBNEW 5.1.8) date 2021-01-20 11:21:44*
%MOMM*%
%LPD*%
G01*
G04 APERTURE LIST*
%ADD10C,0.150000*%
%ADD11C,0.375000*%
%ADD12C,0.250000*%
%ADD13C,0.120000*%
%ADD14C,0.200000*%
G04 APERTURE END LIST*
D10*
X162357490Y-100639194D02*
X161406434Y-100330177D01*
X162312202Y-100624479D02*
X162328060Y-100729771D01*
X162269200Y-100910925D01*
X162194481Y-100986786D01*
X162134478Y-101017360D01*
X162029186Y-101033218D01*
X161757455Y-100944927D01*
X161681594Y-100870209D01*
X161651020Y-100810205D01*
X161635162Y-100704913D01*
X161694022Y-100523760D01*
X161768741Y-100447898D01*
X162637077Y-99778715D02*
X162138905Y-99616849D01*
X162033613Y-99632707D01*
X161958894Y-99708569D01*
X161900034Y-99889722D01*
X161915892Y-99995014D01*
X162591789Y-99764000D02*
X162607647Y-99869291D01*
X162534071Y-100095733D01*
X162459353Y-100171595D01*
X162354061Y-100187453D01*
X162263484Y-100158023D01*
X162187622Y-100083305D01*
X162171764Y-99978013D01*
X162245340Y-99751571D01*
X162229481Y-99646279D01*
X162106045Y-99255684D02*
X162223766Y-98893377D01*
X161833172Y-99016814D02*
X162648363Y-99281685D01*
X162753655Y-99265827D01*
X162828373Y-99189965D01*
X162857803Y-99099389D01*
X163093245Y-98374774D02*
X162595073Y-98212908D01*
X162489781Y-98228766D01*
X162415062Y-98304628D01*
X162356202Y-98485782D01*
X162372060Y-98591073D01*
X163047957Y-98360059D02*
X163063815Y-98465351D01*
X162990239Y-98691793D01*
X162915521Y-98767655D01*
X162810229Y-98783513D01*
X162719652Y-98754083D01*
X162643790Y-98679364D01*
X162627932Y-98574072D01*
X162701508Y-98347630D01*
X162685649Y-98242338D01*
X163475837Y-97197276D02*
X162841800Y-96991264D01*
X162524781Y-96888259D02*
X162555354Y-96948262D01*
X162615358Y-96917689D01*
X162584784Y-96857685D01*
X162524781Y-96888259D01*
X162615358Y-96917689D01*
X162988951Y-96538380D02*
X163622988Y-96744391D01*
X163079528Y-96567810D02*
X163048954Y-96507807D01*
X163033096Y-96402515D01*
X163077241Y-96266650D01*
X163151960Y-96190788D01*
X163257252Y-96174930D01*
X163755424Y-96336796D01*
X159211011Y-105888391D02*
X160162067Y-105579374D01*
X159256299Y-105873676D02*
X159181580Y-105797815D01*
X159122720Y-105616661D01*
X159138578Y-105511369D01*
X159169152Y-105451366D01*
X159245013Y-105376647D01*
X159516744Y-105288356D01*
X159622036Y-105304215D01*
X159682039Y-105334788D01*
X159756758Y-105410650D01*
X159815618Y-105591803D01*
X159799760Y-105697095D01*
X159490597Y-106748871D02*
X159988770Y-106587005D01*
X160064632Y-106512287D01*
X160080490Y-106406995D01*
X160021629Y-106225841D01*
X159946911Y-106149979D01*
X159535886Y-106734156D02*
X159461167Y-106658294D01*
X159387592Y-106431852D01*
X159403450Y-106326560D01*
X159479312Y-106251842D01*
X159569888Y-106222412D01*
X159675180Y-106238270D01*
X159749899Y-106314132D01*
X159823474Y-106540574D01*
X159898193Y-106616435D01*
X160227641Y-106859879D02*
X160345361Y-107222186D01*
X160588805Y-106892738D02*
X159773614Y-107157610D01*
X159697752Y-107232329D01*
X159681894Y-107337620D01*
X159711324Y-107428197D01*
X159946765Y-108152812D02*
X160444938Y-107990946D01*
X160520799Y-107916227D01*
X160536658Y-107810935D01*
X160477797Y-107629782D01*
X160403079Y-107553920D01*
X159992054Y-108138097D02*
X159917335Y-108062235D01*
X159843760Y-107835793D01*
X159859618Y-107730501D01*
X159935480Y-107655782D01*
X160026056Y-107626352D01*
X160131348Y-107642210D01*
X160206067Y-107718072D01*
X160279642Y-107944514D01*
X160354361Y-108020376D01*
X160329358Y-109330310D02*
X160963395Y-109124299D01*
X161280414Y-109021293D02*
X161220411Y-108990720D01*
X161189837Y-109050723D01*
X161249841Y-109081297D01*
X161280414Y-109021293D01*
X161189837Y-109050723D01*
X161110546Y-109577183D02*
X160476509Y-109783194D01*
X161019970Y-109606613D02*
X161079973Y-109637187D01*
X161154692Y-109713048D01*
X161198837Y-109848913D01*
X161182979Y-109954205D01*
X161107117Y-110028924D01*
X160608945Y-110190790D01*
X150375619Y-78414619D02*
X150375619Y-79414619D01*
X150375619Y-78462238D02*
X150470857Y-78414619D01*
X150661333Y-78414619D01*
X150756571Y-78462238D01*
X150804190Y-78509857D01*
X150851809Y-78605095D01*
X150851809Y-78890809D01*
X150804190Y-78986047D01*
X150756571Y-79033666D01*
X150661333Y-79081285D01*
X150470857Y-79081285D01*
X150375619Y-79033666D01*
X149470857Y-78414619D02*
X149470857Y-78938428D01*
X149518476Y-79033666D01*
X149613714Y-79081285D01*
X149804190Y-79081285D01*
X149899428Y-79033666D01*
X149470857Y-78462238D02*
X149566095Y-78414619D01*
X149804190Y-78414619D01*
X149899428Y-78462238D01*
X149947047Y-78557476D01*
X149947047Y-78652714D01*
X149899428Y-78747952D01*
X149804190Y-78795571D01*
X149566095Y-78795571D01*
X149470857Y-78843190D01*
X149137523Y-79081285D02*
X148756571Y-79081285D01*
X148994666Y-79414619D02*
X148994666Y-78557476D01*
X148947047Y-78462238D01*
X148851809Y-78414619D01*
X148756571Y-78414619D01*
X147994666Y-78414619D02*
X147994666Y-78938428D01*
X148042285Y-79033666D01*
X148137523Y-79081285D01*
X148328000Y-79081285D01*
X148423238Y-79033666D01*
X147994666Y-78462238D02*
X148089904Y-78414619D01*
X148328000Y-78414619D01*
X148423238Y-78462238D01*
X148470857Y-78557476D01*
X148470857Y-78652714D01*
X148423238Y-78747952D01*
X148328000Y-78795571D01*
X148089904Y-78795571D01*
X147994666Y-78843190D01*
X146613714Y-78414619D02*
X146708952Y-78462238D01*
X146756571Y-78509857D01*
X146804190Y-78605095D01*
X146804190Y-78890809D01*
X146756571Y-78986047D01*
X146708952Y-79033666D01*
X146613714Y-79081285D01*
X146470857Y-79081285D01*
X146375619Y-79033666D01*
X146328000Y-78986047D01*
X146280380Y-78890809D01*
X146280380Y-78605095D01*
X146328000Y-78509857D01*
X146375619Y-78462238D01*
X146470857Y-78414619D01*
X146613714Y-78414619D01*
X145423238Y-79081285D02*
X145423238Y-78414619D01*
X145851809Y-79081285D02*
X145851809Y-78557476D01*
X145804190Y-78462238D01*
X145708952Y-78414619D01*
X145566095Y-78414619D01*
X145470857Y-78462238D01*
X145423238Y-78509857D01*
X145089904Y-79081285D02*
X144708952Y-79081285D01*
X144947047Y-79414619D02*
X144947047Y-78557476D01*
X144899428Y-78462238D01*
X144804190Y-78414619D01*
X144708952Y-78414619D01*
X137373030Y-77862530D02*
X137960815Y-77053513D01*
X137401019Y-77824006D02*
X137295980Y-77806551D01*
X137141882Y-77694592D01*
X137092822Y-77600088D01*
X137082288Y-77533573D01*
X137099742Y-77428534D01*
X137267681Y-77197387D01*
X137362185Y-77148327D01*
X137428700Y-77137792D01*
X137533739Y-77155247D01*
X137687837Y-77267206D01*
X137736897Y-77361710D01*
X138104997Y-78394336D02*
X138412885Y-77970565D01*
X138430340Y-77865526D01*
X138381280Y-77771022D01*
X138227182Y-77659063D01*
X138122143Y-77641608D01*
X138132987Y-78355812D02*
X138027948Y-78338357D01*
X137835325Y-78198408D01*
X137786266Y-78103904D01*
X137803720Y-77998865D01*
X137859700Y-77921815D01*
X137954204Y-77872756D01*
X138059243Y-77890211D01*
X138251866Y-78030160D01*
X138356905Y-78047615D01*
X138766526Y-78050920D02*
X139074723Y-78274838D01*
X139078029Y-77865217D02*
X138574213Y-78558660D01*
X138556758Y-78663699D01*
X138605817Y-78758203D01*
X138682867Y-78814183D01*
X139299260Y-79262019D02*
X139607148Y-78838248D01*
X139624603Y-78733209D01*
X139575543Y-78638705D01*
X139421445Y-78526746D01*
X139316406Y-78509291D01*
X139327250Y-79223495D02*
X139222211Y-79206040D01*
X139029588Y-79066091D01*
X138980529Y-78971587D01*
X138997984Y-78866548D01*
X139053963Y-78789498D01*
X139148467Y-78740439D01*
X139253506Y-78757894D01*
X139446129Y-78897843D01*
X139551168Y-78915298D01*
X140416474Y-80073723D02*
X140367415Y-79979218D01*
X140356880Y-79912704D01*
X140374335Y-79807665D01*
X140542274Y-79576517D01*
X140636778Y-79527458D01*
X140703292Y-79516923D01*
X140808331Y-79534378D01*
X140923905Y-79618347D01*
X140972965Y-79712851D01*
X140983499Y-79779366D01*
X140966044Y-79884405D01*
X140798106Y-80115553D01*
X140703602Y-80164612D01*
X140637087Y-80175147D01*
X140532048Y-80157692D01*
X140416474Y-80073723D01*
X141771447Y-80234122D02*
X141379590Y-80773467D01*
X141424725Y-79982214D02*
X141116838Y-80405985D01*
X141099383Y-80511024D01*
X141148442Y-80605528D01*
X141264016Y-80689498D01*
X141369055Y-80706953D01*
X141435569Y-80696418D01*
X142041119Y-80430051D02*
X142349316Y-80653969D01*
X142352621Y-80244348D02*
X141848805Y-80937791D01*
X141831350Y-81042830D01*
X141880410Y-81137334D01*
X141957459Y-81193314D01*
D11*
X131747056Y-76780530D02*
X132418811Y-75855939D01*
X133700967Y-77493805D02*
X132082933Y-76318235D01*
X160242878Y-113073830D02*
X159337110Y-113368132D01*
X160247450Y-112471508D02*
X160231447Y-114579633D01*
X158979375Y-112883531D01*
X162133810Y-105183190D02*
X162285533Y-105332627D01*
X162557264Y-105420918D01*
X162858425Y-105418631D01*
X163098439Y-105296338D01*
X163247876Y-105144615D01*
X163456173Y-104811738D01*
X163544464Y-104540007D01*
X163571608Y-104148270D01*
X163539891Y-103937686D01*
X163417598Y-103697672D01*
X163175298Y-103518805D01*
X162994144Y-103459944D01*
X162692984Y-103462231D01*
X162572977Y-103523377D01*
X162366965Y-104157415D01*
X162729273Y-104275136D01*
X143462285Y-76088952D02*
X143557523Y-76184190D01*
X143652761Y-76469904D01*
X143652761Y-76660380D01*
X143557523Y-76946095D01*
X143367047Y-77136571D01*
X143176571Y-77231809D01*
X142795619Y-77327047D01*
X142509904Y-77327047D01*
X142128952Y-77231809D01*
X141938476Y-77136571D01*
X141748000Y-76946095D01*
X141652761Y-76660380D01*
X141652761Y-76469904D01*
X141748000Y-76184190D01*
X141843238Y-76088952D01*
D12*
X169437020Y-92264968D02*
G75*
G02*
X156337000Y-74168000I5949980J18096968D01*
G01*
X140819304Y-85452239D02*
G75*
G02*
X154050999Y-103504999I9548696J-6876761D01*
G01*
D13*
%TO.C,C1*%
X157066593Y-102726295D02*
X156569662Y-102887758D01*
X156612338Y-101328242D02*
X156115407Y-101489705D01*
%TO.C,C2*%
X150053933Y-88637621D02*
X149746812Y-89060335D01*
X151243188Y-89501665D02*
X150936067Y-89924379D01*
%TO.C,C3*%
X165248338Y-92219758D02*
X164751407Y-92058295D01*
X165702593Y-90821705D02*
X165205662Y-90660242D01*
%TO.C,C4*%
X156183000Y-77604252D02*
X156183000Y-77081748D01*
X154713000Y-77604252D02*
X154713000Y-77081748D01*
%TO.C,D1*%
X157156028Y-93192521D02*
X159411852Y-100135234D01*
X151925218Y-94892114D02*
X154181042Y-101834827D01*
X154181042Y-101834827D02*
X155274757Y-101479457D01*
%TO.C,D2*%
X163547973Y-89960485D02*
X164641688Y-90315854D01*
X165803797Y-83017772D02*
X163547973Y-89960485D01*
X171034607Y-84717365D02*
X168778783Y-91660078D01*
%TO.C,D3*%
X148418940Y-90086372D02*
X149094893Y-89156002D01*
X142513116Y-85795540D02*
X148418940Y-90086372D01*
X145745934Y-81345946D02*
X151651758Y-85636778D01*
%TO.C,D4*%
X164000826Y-80556432D02*
X156700826Y-80556432D01*
X164000826Y-75056432D02*
X156700826Y-75056432D01*
X156700826Y-75056432D02*
X156700826Y-76206432D01*
%TO.C,J1*%
X156667205Y-107860231D02*
X159197016Y-107038246D01*
X156667205Y-107860231D02*
X158255553Y-112748662D01*
X158255553Y-112748662D02*
X160785363Y-111926677D01*
X159197016Y-107038246D02*
X160785363Y-111926677D01*
X158393572Y-104565499D02*
X158804564Y-105830404D01*
X157128666Y-104976492D02*
X158393572Y-104565499D01*
%TO.C,J2*%
X165694911Y-95896777D02*
X166959816Y-96307769D01*
X166959816Y-96307769D02*
X166548823Y-97572675D01*
X166156372Y-98780516D02*
X164568024Y-103668947D01*
X162038214Y-102846962D02*
X164568024Y-103668947D01*
X163626561Y-97958531D02*
X162038214Y-102846962D01*
X163626561Y-97958531D02*
X166156372Y-98780516D01*
%TO.C,J3*%
X140436515Y-82023016D02*
X139654760Y-83099009D01*
X139654760Y-83099009D02*
X138578768Y-82317255D01*
X137551316Y-81570767D02*
X133392969Y-78549551D01*
X134956477Y-76397566D02*
X133392969Y-78549551D01*
X139114825Y-79418782D02*
X134956477Y-76397566D01*
X139114825Y-79418782D02*
X137551316Y-81570767D01*
%TO.C,J4*%
X149120085Y-75349340D02*
X149120085Y-78009340D01*
X149120085Y-75349340D02*
X143980085Y-75349340D01*
X143980085Y-75349340D02*
X143980085Y-78009340D01*
X149120085Y-78009340D02*
X143980085Y-78009340D01*
X151720085Y-78009340D02*
X150390085Y-78009340D01*
X151720085Y-76679340D02*
X151720085Y-78009340D01*
%TO.C,JP1*%
X160920478Y-90779837D02*
X160501437Y-90713468D01*
X160986848Y-90360797D02*
X160501437Y-90713468D01*
X160920478Y-90779837D02*
X160986848Y-90360797D01*
X162137149Y-91008335D02*
X162489820Y-91493745D01*
X158934591Y-92469882D02*
X161199839Y-90824084D01*
X159172851Y-93903665D02*
X158820180Y-93418255D01*
X162375409Y-92442118D02*
X160110161Y-94087916D01*
X162489821Y-91493746D02*
G75*
G02*
X162334958Y-92471507I-566312J-411449D01*
G01*
X161159387Y-90853473D02*
G75*
G02*
X162137149Y-91008335I411450J-566312D01*
G01*
X158820179Y-93418254D02*
G75*
G02*
X158975042Y-92440493I566312J411449D01*
G01*
X160150613Y-94058527D02*
G75*
G02*
X159172851Y-93903665I-411450J566312D01*
G01*
%TO.C,JP2*%
X155390409Y-82790118D02*
X153125161Y-84435916D01*
X152187851Y-84251665D02*
X151835180Y-83766255D01*
X151949591Y-82817882D02*
X154214839Y-81172084D01*
X155152149Y-81356335D02*
X155504820Y-81841745D01*
X153935478Y-81127837D02*
X154001848Y-80708797D01*
X154001848Y-80708797D02*
X153516437Y-81061468D01*
X153935478Y-81127837D02*
X153516437Y-81061468D01*
X153165613Y-84406527D02*
G75*
G02*
X152187851Y-84251665I-411450J566312D01*
G01*
X151835179Y-83766254D02*
G75*
G02*
X151990042Y-82788493I566312J411449D01*
G01*
X154174387Y-81201473D02*
G75*
G02*
X155152149Y-81356335I411450J-566312D01*
G01*
X155504821Y-81841746D02*
G75*
G02*
X155349958Y-82819507I-566312J-411449D01*
G01*
%TO.C,SW1*%
X160377752Y-82751879D02*
X160782260Y-82457986D01*
X160782260Y-82457986D02*
X161076153Y-82862495D01*
X161076153Y-82862495D02*
X163133401Y-85694054D01*
X163133401Y-85694054D02*
X162931147Y-85841000D01*
X153501107Y-87748053D02*
X153096599Y-88041946D01*
X153096599Y-88041946D02*
X155447740Y-91278014D01*
X155447740Y-91278014D02*
X155852248Y-90984121D01*
D14*
X159870098Y-82170710D02*
G75*
G03*
X159870098Y-82170710I-223607J0D01*
G01*
%TO.C,M2.1*%
D10*
X170307190Y-80335380D02*
X170307190Y-79335380D01*
X170640523Y-80049666D01*
X170973857Y-79335380D01*
X170973857Y-80335380D01*
X171402428Y-79430619D02*
X171450047Y-79383000D01*
X171545285Y-79335380D01*
X171783380Y-79335380D01*
X171878619Y-79383000D01*
X171926238Y-79430619D01*
X171973857Y-79525857D01*
X171973857Y-79621095D01*
X171926238Y-79763952D01*
X171354809Y-80335380D01*
X171973857Y-80335380D01*
X172402428Y-80240142D02*
X172450047Y-80287761D01*
X172402428Y-80335380D01*
X172354809Y-80287761D01*
X172402428Y-80240142D01*
X172402428Y-80335380D01*
X173402428Y-80335380D02*
X172831000Y-80335380D01*
X173116714Y-80335380D02*
X173116714Y-79335380D01*
X173021476Y-79478238D01*
X172926238Y-79573476D01*
X172831000Y-79621095D01*
X162885380Y-111251809D02*
X161885380Y-111251809D01*
X162599666Y-110918476D01*
X161885380Y-110585142D01*
X162885380Y-110585142D01*
X161980619Y-110156571D02*
X161933000Y-110108952D01*
X161885380Y-110013714D01*
X161885380Y-109775619D01*
X161933000Y-109680380D01*
X161980619Y-109632761D01*
X162075857Y-109585142D01*
X162171095Y-109585142D01*
X162313952Y-109632761D01*
X162885380Y-110204190D01*
X162885380Y-109585142D01*
X162790142Y-109156571D02*
X162837761Y-109108952D01*
X162885380Y-109156571D01*
X162837761Y-109204190D01*
X162790142Y-109156571D01*
X162885380Y-109156571D01*
X162885380Y-108156571D02*
X162885380Y-108728000D01*
X162885380Y-108442285D02*
X161885380Y-108442285D01*
X162028238Y-108537523D01*
X162123476Y-108632761D01*
X162171095Y-108728000D01*
X135509190Y-76144380D02*
X135509190Y-75144380D01*
X135842523Y-75858666D01*
X136175857Y-75144380D01*
X136175857Y-76144380D01*
X136604428Y-75239619D02*
X136652047Y-75192000D01*
X136747285Y-75144380D01*
X136985380Y-75144380D01*
X137080619Y-75192000D01*
X137128238Y-75239619D01*
X137175857Y-75334857D01*
X137175857Y-75430095D01*
X137128238Y-75572952D01*
X136556809Y-76144380D01*
X137175857Y-76144380D01*
X137604428Y-76049142D02*
X137652047Y-76096761D01*
X137604428Y-76144380D01*
X137556809Y-76096761D01*
X137604428Y-76049142D01*
X137604428Y-76144380D01*
X138604428Y-76144380D02*
X138033000Y-76144380D01*
X138318714Y-76144380D02*
X138318714Y-75144380D01*
X138223476Y-75287238D01*
X138128238Y-75382476D01*
X138033000Y-75430095D01*
%TO.C,MH*%
X168660857Y-77438380D02*
X168660857Y-76438380D01*
X168994190Y-77152666D01*
X169327523Y-76438380D01*
X169327523Y-77438380D01*
X169803714Y-77438380D02*
X169803714Y-76438380D01*
X169803714Y-76914571D02*
X170375142Y-76914571D01*
X170375142Y-77438380D02*
X170375142Y-76438380D01*
%TO.C,C1*%
X158866834Y-101678853D02*
X158806830Y-101648280D01*
X158717396Y-101527130D01*
X158687966Y-101436553D01*
X158689109Y-101285973D01*
X158750256Y-101165966D01*
X158826118Y-101091247D01*
X158992556Y-100987098D01*
X159128421Y-100942953D01*
X159324290Y-100929381D01*
X159429582Y-100945239D01*
X159549589Y-101006386D01*
X159639023Y-101127536D01*
X159668453Y-101218113D01*
X159667310Y-101368693D01*
X159636737Y-101428697D01*
X159070559Y-102614052D02*
X158893978Y-102070591D01*
X158982268Y-102342321D02*
X159933325Y-102033304D01*
X159768029Y-101986873D01*
X159648022Y-101925726D01*
X159573304Y-101849864D01*
%TO.C,C2*%
X152045119Y-90613238D02*
X152055654Y-90679752D01*
X152010209Y-90823316D01*
X151954230Y-90900365D01*
X151831736Y-90987949D01*
X151698707Y-91009019D01*
X151593668Y-90991564D01*
X151411580Y-90918130D01*
X151296006Y-90834160D01*
X151169897Y-90683677D01*
X151120838Y-90589172D01*
X151099768Y-90456144D01*
X151145213Y-90312580D01*
X151201192Y-90235531D01*
X151323686Y-90147947D01*
X151390200Y-90137412D01*
X151614119Y-89829215D02*
X151603584Y-89762700D01*
X151621039Y-89657661D01*
X151760988Y-89465038D01*
X151855492Y-89415979D01*
X151922006Y-89405444D01*
X152027045Y-89422899D01*
X152104094Y-89478879D01*
X152191678Y-89601372D01*
X152318097Y-90399545D01*
X152681964Y-89898725D01*
%TO.C,C3*%
X164438978Y-93325935D02*
X164378974Y-93356508D01*
X164228394Y-93357651D01*
X164137817Y-93328221D01*
X164016667Y-93238787D01*
X163955521Y-93118780D01*
X163939662Y-93013488D01*
X163953234Y-92817620D01*
X163997380Y-92681754D01*
X164101528Y-92515316D01*
X164176247Y-92439454D01*
X164296254Y-92378308D01*
X164446834Y-92377164D01*
X164537411Y-92406595D01*
X164658561Y-92496028D01*
X164689134Y-92556032D01*
X165035584Y-92568461D02*
X165624333Y-92759757D01*
X165189593Y-93019058D01*
X165325458Y-93063204D01*
X165401320Y-93137922D01*
X165431893Y-93197926D01*
X165447752Y-93303218D01*
X165374176Y-93529660D01*
X165299458Y-93605522D01*
X165239454Y-93636095D01*
X165134162Y-93651953D01*
X164862432Y-93563662D01*
X164786570Y-93488944D01*
X164755997Y-93428940D01*
%TO.C,C4*%
X155154333Y-80367142D02*
X155106714Y-80414761D01*
X154963857Y-80462380D01*
X154868619Y-80462380D01*
X154725761Y-80414761D01*
X154630523Y-80319523D01*
X154582904Y-80224285D01*
X154535285Y-80033809D01*
X154535285Y-79890952D01*
X154582904Y-79700476D01*
X154630523Y-79605238D01*
X154725761Y-79510000D01*
X154868619Y-79462380D01*
X154963857Y-79462380D01*
X155106714Y-79510000D01*
X155154333Y-79557619D01*
X156011476Y-79795714D02*
X156011476Y-80462380D01*
X155773380Y-79414761D02*
X155535285Y-80129047D01*
X156154333Y-80129047D01*
%TO.C,D1*%
X158338909Y-95869938D02*
X159289965Y-95560921D01*
X159363541Y-95787363D01*
X159362398Y-95937943D01*
X159301251Y-96057950D01*
X159225389Y-96132669D01*
X159058951Y-96236817D01*
X158923085Y-96280963D01*
X158727217Y-96294535D01*
X158621925Y-96278676D01*
X158501918Y-96217530D01*
X158412484Y-96096380D01*
X158338909Y-95869938D01*
X158809792Y-97319167D02*
X158633211Y-96775706D01*
X158721501Y-97047436D02*
X159672558Y-96738419D01*
X159507262Y-96691988D01*
X159387255Y-96630841D01*
X159312537Y-96554979D01*
%TO.C,D2*%
X167334155Y-88090763D02*
X166383099Y-87781746D01*
X166456674Y-87555304D01*
X166546108Y-87434154D01*
X166666115Y-87373007D01*
X166771407Y-87357149D01*
X166967276Y-87370721D01*
X167103141Y-87414866D01*
X167269579Y-87519015D01*
X167345441Y-87593734D01*
X167406588Y-87713741D01*
X167407731Y-87864321D01*
X167334155Y-88090763D01*
X166767978Y-86905408D02*
X166737404Y-86845405D01*
X166721546Y-86740113D01*
X166795122Y-86513671D01*
X166869840Y-86437809D01*
X166929844Y-86407236D01*
X167035136Y-86391378D01*
X167125712Y-86420808D01*
X167246862Y-86510241D01*
X167613742Y-87230283D01*
X167805038Y-86641534D01*
%TO.C,D3*%
X148276650Y-82816742D02*
X148864435Y-82007725D01*
X149057058Y-82147674D01*
X149144642Y-82270168D01*
X149165712Y-82403196D01*
X149148257Y-82508235D01*
X149074823Y-82690324D01*
X148990853Y-82805898D01*
X148840370Y-82932006D01*
X148745866Y-82981066D01*
X148612837Y-83002135D01*
X148469273Y-82956691D01*
X148276650Y-82816742D01*
X149596403Y-82539531D02*
X150097223Y-82903398D01*
X149603633Y-83015666D01*
X149719206Y-83099636D01*
X149768266Y-83194140D01*
X149778801Y-83260654D01*
X149761346Y-83365693D01*
X149621397Y-83558316D01*
X149526893Y-83607376D01*
X149460378Y-83617910D01*
X149355339Y-83600456D01*
X149124192Y-83432517D01*
X149075132Y-83338013D01*
X149064597Y-83271498D01*
%TO.C,D4*%
X160551904Y-81758812D02*
X160551904Y-80758812D01*
X160790000Y-80758812D01*
X160932857Y-80806432D01*
X161028095Y-80901670D01*
X161075714Y-80996908D01*
X161123333Y-81187384D01*
X161123333Y-81330241D01*
X161075714Y-81520717D01*
X161028095Y-81615955D01*
X160932857Y-81711193D01*
X160790000Y-81758812D01*
X160551904Y-81758812D01*
X161980476Y-81092146D02*
X161980476Y-81758812D01*
X161742380Y-80711193D02*
X161504285Y-81425479D01*
X162123333Y-81425479D01*
%TO.C,J1*%
X156358757Y-103722189D02*
X156579483Y-104401515D01*
X156578340Y-104552095D01*
X156517194Y-104672102D01*
X156396044Y-104761536D01*
X156305467Y-104790966D01*
X157618831Y-104364228D02*
X157075370Y-104540809D01*
X157347100Y-104452519D02*
X157038083Y-103501462D01*
X156991652Y-103666757D01*
X156930505Y-103786764D01*
X156854643Y-103861483D01*
%TO.C,J2*%
X165992099Y-93903432D02*
X165771373Y-94582758D01*
X165681939Y-94703908D01*
X165561932Y-94765055D01*
X165411352Y-94766198D01*
X165320775Y-94736768D01*
X166370265Y-94126445D02*
X166430268Y-94095872D01*
X166535560Y-94080013D01*
X166762002Y-94153589D01*
X166837864Y-94228307D01*
X166868437Y-94288311D01*
X166884295Y-94393603D01*
X166854865Y-94484180D01*
X166765432Y-94605330D01*
X166045390Y-94972209D01*
X166634139Y-95163506D01*
%TO.C,J3*%
X140962537Y-82817216D02*
X141540406Y-83237063D01*
X141627990Y-83359557D01*
X141649060Y-83492586D01*
X141603615Y-83636149D01*
X141547636Y-83713199D01*
X141186455Y-82509019D02*
X141550322Y-82008199D01*
X141662591Y-82501790D01*
X141746560Y-82386216D01*
X141841064Y-82337157D01*
X141907579Y-82326622D01*
X142012618Y-82344077D01*
X142205241Y-82484026D01*
X142254300Y-82578530D01*
X142264835Y-82645044D01*
X142247380Y-82750083D01*
X142079441Y-82981231D01*
X141984937Y-83030290D01*
X141918423Y-83040825D01*
%TO.C,J4*%
X152612465Y-77012673D02*
X153326751Y-77012673D01*
X153469608Y-77060292D01*
X153564846Y-77155530D01*
X153612465Y-77298387D01*
X153612465Y-77393625D01*
X152945799Y-76107911D02*
X153612465Y-76107911D01*
X152564846Y-76346006D02*
X153279132Y-76584101D01*
X153279132Y-75965054D01*
%TO.C,JP1*%
X159404936Y-94788787D02*
X159824783Y-95366657D01*
X159870228Y-95510220D01*
X159849158Y-95643249D01*
X159761574Y-95765743D01*
X159684525Y-95821723D01*
X160377968Y-95317907D02*
X159790182Y-94508890D01*
X160098379Y-94284971D01*
X160203418Y-94267517D01*
X160269933Y-94278051D01*
X160364437Y-94327111D01*
X160448406Y-94442685D01*
X160465861Y-94547724D01*
X160455326Y-94614238D01*
X160406267Y-94708742D01*
X160098070Y-94932660D01*
X161610756Y-94422234D02*
X161148460Y-94758111D01*
X161379608Y-94590173D02*
X160791823Y-93781156D01*
X160798743Y-93952709D01*
X160777673Y-94085738D01*
X160728613Y-94180242D01*
%TO.C,JP2*%
X150641936Y-82215787D02*
X151061783Y-82793657D01*
X151107228Y-82937220D01*
X151086158Y-83070249D01*
X150998574Y-83192743D01*
X150921525Y-83248723D01*
X151614968Y-82744907D02*
X151027182Y-81935890D01*
X151335379Y-81711971D01*
X151440418Y-81694517D01*
X151506933Y-81705051D01*
X151601437Y-81754111D01*
X151685406Y-81869685D01*
X151702861Y-81974724D01*
X151692326Y-82041238D01*
X151643267Y-82135742D01*
X151335070Y-82359660D01*
X151853654Y-81453143D02*
X151864189Y-81386629D01*
X151913249Y-81292125D01*
X152105872Y-81152176D01*
X152210911Y-81134721D01*
X152277425Y-81145256D01*
X152371929Y-81194315D01*
X152427909Y-81271365D01*
X152473354Y-81414928D01*
X152346935Y-82213101D01*
X152847756Y-81849234D01*
%TO.C,SW1*%
X161747313Y-83198913D02*
X161792757Y-83342477D01*
X161932706Y-83535100D01*
X162027210Y-83584159D01*
X162093725Y-83594694D01*
X162198764Y-83577239D01*
X162275813Y-83521260D01*
X162324872Y-83426756D01*
X162335407Y-83360241D01*
X162317952Y-83255202D01*
X162244518Y-83073114D01*
X162227063Y-82968075D01*
X162237598Y-82901561D01*
X162286657Y-82807056D01*
X162363706Y-82751077D01*
X162468745Y-82733622D01*
X162535260Y-82744157D01*
X162629764Y-82793216D01*
X162769713Y-82985839D01*
X162815158Y-83129403D01*
X163049611Y-83371086D02*
X162380543Y-84151494D01*
X163070371Y-83885746D01*
X162604461Y-84459691D01*
X163553427Y-84064529D01*
X163276215Y-85384282D02*
X162940338Y-84921986D01*
X163108277Y-85153134D02*
X163917294Y-84565349D01*
X163745740Y-84572269D01*
X163612711Y-84551199D01*
X163518207Y-84502140D01*
%TD*%
M02*
