%TF.GenerationSoftware,KiCad,Pcbnew,5.1.8*%
%TF.CreationDate,2021-01-20T11:21:44-05:00*%
%TF.ProjectId,penrosedart,70656e72-6f73-4656-9461-72742e6b6963,rev?*%
%TF.SameCoordinates,Original*%
%TF.FileFunction,Soldermask,Top*%
%TF.FilePolarity,Negative*%
%FSLAX46Y46*%
G04 Gerber Fmt 4.6, Leading zero omitted, Abs format (unit mm)*
G04 Created by KiCad (PCBNEW 5.1.8) date 2021-01-20 11:21:44*
%MOMM*%
%LPD*%
G01*
G04 APERTURE LIST*
%ADD10C,2.100000*%
%ADD11C,1.150000*%
%ADD12C,0.100000*%
%ADD13R,1.500000X1.000000*%
%ADD14O,1.700000X1.700000*%
%ADD15R,1.700000X1.700000*%
G04 APERTURE END LIST*
D10*
%TO.C,M2.1*%
X169799000Y-81788000D03*
%TD*%
%TO.C,M2.1*%
X162179000Y-106807000D03*
%TD*%
%TO.C,M2.1*%
X140462000Y-76708000D03*
%TD*%
D11*
%TO.C,MH*%
X169418000Y-78486000D03*
%TD*%
%TO.C,C1*%
G36*
G01*
X156016242Y-101795306D02*
X156309808Y-102698810D01*
G75*
G02*
X156149298Y-103013828I-237764J-77254D01*
G01*
X155507334Y-103222414D01*
G75*
G02*
X155192316Y-103061904I-77254J237764D01*
G01*
X154898750Y-102158400D01*
G75*
G02*
X155059260Y-101843382I237764J77254D01*
G01*
X155701224Y-101634796D01*
G75*
G02*
X156016242Y-101795306I77254J-237764D01*
G01*
G37*
G36*
G01*
X157989684Y-101154096D02*
X158283250Y-102057600D01*
G75*
G02*
X158122740Y-102372618I-237764J-77254D01*
G01*
X157480776Y-102581204D01*
G75*
G02*
X157165758Y-102420694I-77254J237764D01*
G01*
X156872192Y-101517190D01*
G75*
G02*
X157032702Y-101202172I237764J77254D01*
G01*
X157674666Y-100993586D01*
G75*
G02*
X157989684Y-101154096I77254J-237764D01*
G01*
G37*
%TD*%
%TO.C,C2*%
G36*
G01*
X151065867Y-87687150D02*
X151834434Y-88245546D01*
G75*
G02*
X151889742Y-88594746I-146946J-202254D01*
G01*
X151492987Y-89140832D01*
G75*
G02*
X151143787Y-89196140I-202254J146946D01*
G01*
X150375220Y-88637744D01*
G75*
G02*
X150319912Y-88288544I146946J202254D01*
G01*
X150716667Y-87742458D01*
G75*
G02*
X151065867Y-87687150I202254J-146946D01*
G01*
G37*
G36*
G01*
X149846213Y-89365860D02*
X150614780Y-89924256D01*
G75*
G02*
X150670088Y-90273456I-146946J-202254D01*
G01*
X150273333Y-90819542D01*
G75*
G02*
X149924133Y-90874850I-202254J146946D01*
G01*
X149155566Y-90316454D01*
G75*
G02*
X149100258Y-89967254I146946J202254D01*
G01*
X149497013Y-89421168D01*
G75*
G02*
X149846213Y-89365860I202254J-146946D01*
G01*
G37*
%TD*%
%TO.C,C3*%
G36*
G01*
X164945808Y-90849190D02*
X164652242Y-91752694D01*
G75*
G02*
X164337224Y-91913204I-237764J77254D01*
G01*
X163695260Y-91704618D01*
G75*
G02*
X163534750Y-91389600I77254J237764D01*
G01*
X163828316Y-90486096D01*
G75*
G02*
X164143334Y-90325586I237764J-77254D01*
G01*
X164785298Y-90534172D01*
G75*
G02*
X164945808Y-90849190I-77254J-237764D01*
G01*
G37*
G36*
G01*
X166919250Y-91490400D02*
X166625684Y-92393904D01*
G75*
G02*
X166310666Y-92554414I-237764J77254D01*
G01*
X165668702Y-92345828D01*
G75*
G02*
X165508192Y-92030810I77254J237764D01*
G01*
X165801758Y-91127306D01*
G75*
G02*
X166116776Y-90966796I237764J-77254D01*
G01*
X166758740Y-91175382D01*
G75*
G02*
X166919250Y-91490400I-77254J-237764D01*
G01*
G37*
%TD*%
%TO.C,C4*%
G36*
G01*
X155923000Y-78968000D02*
X154973000Y-78968000D01*
G75*
G02*
X154723000Y-78718000I0J250000D01*
G01*
X154723000Y-78043000D01*
G75*
G02*
X154973000Y-77793000I250000J0D01*
G01*
X155923000Y-77793000D01*
G75*
G02*
X156173000Y-78043000I0J-250000D01*
G01*
X156173000Y-78718000D01*
G75*
G02*
X155923000Y-78968000I-250000J0D01*
G01*
G37*
G36*
G01*
X155923000Y-76893000D02*
X154973000Y-76893000D01*
G75*
G02*
X154723000Y-76643000I0J250000D01*
G01*
X154723000Y-75968000D01*
G75*
G02*
X154973000Y-75718000I250000J0D01*
G01*
X155923000Y-75718000D01*
G75*
G02*
X156173000Y-75968000I0J-250000D01*
G01*
X156173000Y-76643000D01*
G75*
G02*
X155923000Y-76893000I-250000J0D01*
G01*
G37*
%TD*%
D12*
%TO.C,D1*%
G36*
X155725843Y-94130374D02*
G01*
X156676900Y-93821357D01*
X157140425Y-95247942D01*
X156189368Y-95556959D01*
X155725843Y-94130374D01*
G37*
G36*
X152682462Y-95119229D02*
G01*
X153633519Y-94810212D01*
X154097044Y-96236797D01*
X153145987Y-96545814D01*
X152682462Y-95119229D01*
G37*
G36*
X157240026Y-98790551D02*
G01*
X158191083Y-98481534D01*
X158654608Y-99908119D01*
X157703551Y-100217136D01*
X157240026Y-98790551D01*
G37*
G36*
X154196645Y-99779406D02*
G01*
X155147702Y-99470389D01*
X155611227Y-100896974D01*
X154660170Y-101205991D01*
X154196645Y-99779406D01*
G37*
%TD*%
%TO.C,D2*%
G36*
X164768742Y-88306785D02*
G01*
X165719799Y-88615802D01*
X165256274Y-90042387D01*
X164305217Y-89733370D01*
X164768742Y-88306785D01*
G37*
G36*
X167812123Y-89295640D02*
G01*
X168763180Y-89604657D01*
X168299655Y-91031242D01*
X167348598Y-90722225D01*
X167812123Y-89295640D01*
G37*
G36*
X166282925Y-83646608D02*
G01*
X167233982Y-83955625D01*
X166770457Y-85382210D01*
X165819400Y-85073193D01*
X166282925Y-83646608D01*
G37*
G36*
X169326306Y-84635463D02*
G01*
X170277363Y-84944480D01*
X169813838Y-86371065D01*
X168862781Y-86062048D01*
X169326306Y-84635463D01*
G37*
%TD*%
%TO.C,D3*%
G36*
X147223417Y-88414330D02*
G01*
X147811202Y-87605313D01*
X149024727Y-88486990D01*
X148436942Y-89296007D01*
X147223417Y-88414330D01*
G37*
G36*
X149104330Y-85825476D02*
G01*
X149692115Y-85016459D01*
X150905640Y-85898136D01*
X150317855Y-86707153D01*
X149104330Y-85825476D01*
G37*
G36*
X143259234Y-85534182D02*
G01*
X143847019Y-84725165D01*
X145060544Y-85606842D01*
X144472759Y-86415859D01*
X143259234Y-85534182D01*
G37*
G36*
X145140147Y-82945328D02*
G01*
X145727932Y-82136311D01*
X146941457Y-83017988D01*
X146353672Y-83827005D01*
X145140147Y-82945328D01*
G37*
%TD*%
D13*
%TO.C,D4*%
X162800826Y-79406432D03*
X162800826Y-76206432D03*
X157900826Y-79406432D03*
X157900826Y-76206432D03*
%TD*%
%TO.C,J1*%
G36*
G01*
X158301067Y-111335428D02*
X158301067Y-111335428D01*
G75*
G02*
X158846801Y-110264366I808398J262664D01*
G01*
X158846801Y-110264366D01*
G75*
G02*
X159917863Y-110810100I262664J-808398D01*
G01*
X159917863Y-110810100D01*
G75*
G02*
X159372129Y-111881162I-808398J-262664D01*
G01*
X159372129Y-111881162D01*
G75*
G02*
X158301067Y-111335428I-262664J808398D01*
G01*
G37*
G36*
G01*
X157516164Y-108919745D02*
X157516164Y-108919745D01*
G75*
G02*
X158061898Y-107848683I808398J262664D01*
G01*
X158061898Y-107848683D01*
G75*
G02*
X159132960Y-108394417I262664J-808398D01*
G01*
X159132960Y-108394417D01*
G75*
G02*
X158587226Y-109465479I-808398J-262664D01*
G01*
X158587226Y-109465479D01*
G75*
G02*
X157516164Y-108919745I-262664J808398D01*
G01*
G37*
D12*
G36*
X156993925Y-107312459D02*
G01*
X156468597Y-105695663D01*
X158085393Y-105170335D01*
X158610721Y-106787131D01*
X156993925Y-107312459D01*
G37*
%TD*%
%TO.C,J2*%
G36*
X164212856Y-97707416D02*
G01*
X164738184Y-96090620D01*
X166354980Y-96615948D01*
X165829652Y-98232744D01*
X164212856Y-97707416D01*
G37*
G36*
G01*
X163690617Y-99314702D02*
X163690617Y-99314702D01*
G75*
G02*
X164761679Y-98768968I808398J-262664D01*
G01*
X164761679Y-98768968D01*
G75*
G02*
X165307413Y-99840030I-262664J-808398D01*
G01*
X165307413Y-99840030D01*
G75*
G02*
X164236351Y-100385764I-808398J262664D01*
G01*
X164236351Y-100385764D01*
G75*
G02*
X163690617Y-99314702I262664J808398D01*
G01*
G37*
G36*
G01*
X162905714Y-101730385D02*
X162905714Y-101730385D01*
G75*
G02*
X163976776Y-101184651I808398J-262664D01*
G01*
X163976776Y-101184651D01*
G75*
G02*
X164522510Y-102255713I-262664J-808398D01*
G01*
X164522510Y-102255713D01*
G75*
G02*
X163451448Y-102801447I-808398J262664D01*
G01*
X163451448Y-102801447D01*
G75*
G02*
X162905714Y-101730385I262664J808398D01*
G01*
G37*
%TD*%
%TO.C,J3*%
G36*
X139172475Y-80053980D02*
G01*
X140547804Y-81053215D01*
X139548569Y-82428544D01*
X138173240Y-81429309D01*
X139172475Y-80053980D01*
G37*
G36*
G01*
X137805236Y-79060623D02*
X137805236Y-79060623D01*
G75*
G02*
X137993283Y-80247904I-499617J-687664D01*
G01*
X137993283Y-80247904D01*
G75*
G02*
X136806002Y-80435951I-687664J499617D01*
G01*
X136806002Y-80435951D01*
G75*
G02*
X136617955Y-79248670I499617J687664D01*
G01*
X136617955Y-79248670D01*
G75*
G02*
X137805236Y-79060623I687664J-499617D01*
G01*
G37*
G36*
G01*
X135750333Y-77567649D02*
X135750333Y-77567649D01*
G75*
G02*
X135938380Y-78754930I-499617J-687664D01*
G01*
X135938380Y-78754930D01*
G75*
G02*
X134751099Y-78942977I-687664J499617D01*
G01*
X134751099Y-78942977D01*
G75*
G02*
X134563052Y-77755696I499617J687664D01*
G01*
X134563052Y-77755696D01*
G75*
G02*
X135750333Y-77567649I687664J-499617D01*
G01*
G37*
%TD*%
D14*
%TO.C,J4*%
X145310085Y-76679340D03*
X147850085Y-76679340D03*
D15*
X150390085Y-76679340D03*
%TD*%
D12*
%TO.C,JP1*%
G36*
X160618670Y-91555345D02*
G01*
X161500347Y-92768870D01*
X160691330Y-93356655D01*
X159809653Y-92143130D01*
X160618670Y-91555345D01*
G37*
G36*
X160043763Y-93826397D02*
G01*
X160023915Y-93840817D01*
X159981582Y-93865628D01*
X159937022Y-93886171D01*
X159890662Y-93902247D01*
X159842950Y-93913702D01*
X159794346Y-93920424D01*
X159745316Y-93922352D01*
X159696334Y-93919463D01*
X159647869Y-93911786D01*
X159600392Y-93899398D01*
X159554357Y-93882414D01*
X159510208Y-93861001D01*
X159468371Y-93835363D01*
X159429248Y-93805748D01*
X159393217Y-93772440D01*
X159360624Y-93735762D01*
X159346203Y-93715914D01*
X159345716Y-93716268D01*
X159051823Y-93311759D01*
X159052310Y-93311406D01*
X159037889Y-93291557D01*
X159013079Y-93249225D01*
X158992535Y-93204665D01*
X158976460Y-93158305D01*
X158965004Y-93110593D01*
X158958283Y-93061988D01*
X158956355Y-93012958D01*
X158959244Y-92963976D01*
X158966920Y-92915511D01*
X158979309Y-92868034D01*
X158996293Y-92821999D01*
X159017706Y-92777851D01*
X159043344Y-92736014D01*
X159072959Y-92696891D01*
X159106267Y-92660860D01*
X159142944Y-92628266D01*
X159162793Y-92613845D01*
X159162439Y-92613358D01*
X159607398Y-92290076D01*
X160489076Y-93503602D01*
X160044117Y-93826884D01*
X160043763Y-93826397D01*
G37*
G36*
X160820924Y-91408398D02*
G01*
X161265883Y-91085116D01*
X161266237Y-91085603D01*
X161286085Y-91071183D01*
X161328418Y-91046372D01*
X161372978Y-91025829D01*
X161419338Y-91009753D01*
X161467050Y-90998298D01*
X161515654Y-90991576D01*
X161564684Y-90989648D01*
X161613666Y-90992537D01*
X161662131Y-91000214D01*
X161709608Y-91012602D01*
X161755643Y-91029586D01*
X161799792Y-91050999D01*
X161841629Y-91076637D01*
X161880752Y-91106252D01*
X161916783Y-91139560D01*
X161949376Y-91176238D01*
X161963797Y-91196086D01*
X161964284Y-91195732D01*
X162258177Y-91600241D01*
X162257690Y-91600594D01*
X162272111Y-91620443D01*
X162296921Y-91662775D01*
X162317465Y-91707335D01*
X162333540Y-91753695D01*
X162344996Y-91801407D01*
X162351717Y-91850012D01*
X162353645Y-91899042D01*
X162350756Y-91948024D01*
X162343080Y-91996489D01*
X162330691Y-92043966D01*
X162313707Y-92090001D01*
X162292294Y-92134149D01*
X162266656Y-92175986D01*
X162237041Y-92215109D01*
X162203733Y-92251140D01*
X162167056Y-92283734D01*
X162147207Y-92298155D01*
X162147561Y-92298642D01*
X161702602Y-92621924D01*
X160820924Y-91408398D01*
G37*
%TD*%
%TO.C,JP2*%
G36*
X153835924Y-81756398D02*
G01*
X154280883Y-81433116D01*
X154281237Y-81433603D01*
X154301085Y-81419183D01*
X154343418Y-81394372D01*
X154387978Y-81373829D01*
X154434338Y-81357753D01*
X154482050Y-81346298D01*
X154530654Y-81339576D01*
X154579684Y-81337648D01*
X154628666Y-81340537D01*
X154677131Y-81348214D01*
X154724608Y-81360602D01*
X154770643Y-81377586D01*
X154814792Y-81398999D01*
X154856629Y-81424637D01*
X154895752Y-81454252D01*
X154931783Y-81487560D01*
X154964376Y-81524238D01*
X154978797Y-81544086D01*
X154979284Y-81543732D01*
X155273177Y-81948241D01*
X155272690Y-81948594D01*
X155287111Y-81968443D01*
X155311921Y-82010775D01*
X155332465Y-82055335D01*
X155348540Y-82101695D01*
X155359996Y-82149407D01*
X155366717Y-82198012D01*
X155368645Y-82247042D01*
X155365756Y-82296024D01*
X155358080Y-82344489D01*
X155345691Y-82391966D01*
X155328707Y-82438001D01*
X155307294Y-82482149D01*
X155281656Y-82523986D01*
X155252041Y-82563109D01*
X155218733Y-82599140D01*
X155182056Y-82631734D01*
X155162207Y-82646155D01*
X155162561Y-82646642D01*
X154717602Y-82969924D01*
X153835924Y-81756398D01*
G37*
G36*
X153058763Y-84174397D02*
G01*
X153038915Y-84188817D01*
X152996582Y-84213628D01*
X152952022Y-84234171D01*
X152905662Y-84250247D01*
X152857950Y-84261702D01*
X152809346Y-84268424D01*
X152760316Y-84270352D01*
X152711334Y-84267463D01*
X152662869Y-84259786D01*
X152615392Y-84247398D01*
X152569357Y-84230414D01*
X152525208Y-84209001D01*
X152483371Y-84183363D01*
X152444248Y-84153748D01*
X152408217Y-84120440D01*
X152375624Y-84083762D01*
X152361203Y-84063914D01*
X152360716Y-84064268D01*
X152066823Y-83659759D01*
X152067310Y-83659406D01*
X152052889Y-83639557D01*
X152028079Y-83597225D01*
X152007535Y-83552665D01*
X151991460Y-83506305D01*
X151980004Y-83458593D01*
X151973283Y-83409988D01*
X151971355Y-83360958D01*
X151974244Y-83311976D01*
X151981920Y-83263511D01*
X151994309Y-83216034D01*
X152011293Y-83169999D01*
X152032706Y-83125851D01*
X152058344Y-83084014D01*
X152087959Y-83044891D01*
X152121267Y-83008860D01*
X152157944Y-82976266D01*
X152177793Y-82961845D01*
X152177439Y-82961358D01*
X152622398Y-82638076D01*
X153504076Y-83851602D01*
X153059117Y-84174884D01*
X153058763Y-84174397D01*
G37*
G36*
X153633670Y-81903345D02*
G01*
X154515347Y-83116870D01*
X153706330Y-83704655D01*
X152824653Y-82491130D01*
X153633670Y-81903345D01*
G37*
%TD*%
%TO.C,SW1*%
G36*
X157458999Y-82647554D02*
G01*
X158348918Y-82000991D01*
X159495099Y-83578574D01*
X158605180Y-84225137D01*
X157458999Y-82647554D01*
G37*
G36*
X155436457Y-84117017D02*
G01*
X156326376Y-83470454D01*
X157472557Y-85048037D01*
X156582638Y-85694600D01*
X155436457Y-84117017D01*
G37*
G36*
X153413914Y-85586480D02*
G01*
X154303833Y-84939917D01*
X155450014Y-86517500D01*
X154560095Y-87164063D01*
X153413914Y-85586480D01*
G37*
G36*
X160779986Y-87218500D02*
G01*
X161669905Y-86571937D01*
X162816086Y-88149520D01*
X161926167Y-88796083D01*
X160779986Y-87218500D01*
G37*
G36*
X158757443Y-88687963D02*
G01*
X159647362Y-88041400D01*
X160793543Y-89618983D01*
X159903624Y-90265546D01*
X158757443Y-88687963D01*
G37*
G36*
X156734901Y-90157426D02*
G01*
X157624820Y-89510863D01*
X158771001Y-91088446D01*
X157881082Y-91735009D01*
X156734901Y-90157426D01*
G37*
%TD*%
M02*
