%TF.GenerationSoftware,KiCad,Pcbnew,5.1.8*%
%TF.CreationDate,2021-01-20T11:21:44-05:00*%
%TF.ProjectId,penrosedart,70656e72-6f73-4656-9461-72742e6b6963,rev?*%
%TF.SameCoordinates,Original*%
%TF.FileFunction,Paste,Top*%
%TF.FilePolarity,Positive*%
%FSLAX46Y46*%
G04 Gerber Fmt 4.6, Leading zero omitted, Abs format (unit mm)*
G04 Created by KiCad (PCBNEW 5.1.8) date 2021-01-20 11:21:44*
%MOMM*%
%LPD*%
G01*
G04 APERTURE LIST*
%ADD10C,0.100000*%
%ADD11R,1.500000X1.000000*%
G04 APERTURE END LIST*
%TO.C,C1*%
G36*
G01*
X156016242Y-101795306D02*
X156309808Y-102698810D01*
G75*
G02*
X156149298Y-103013828I-237764J-77254D01*
G01*
X155507334Y-103222414D01*
G75*
G02*
X155192316Y-103061904I-77254J237764D01*
G01*
X154898750Y-102158400D01*
G75*
G02*
X155059260Y-101843382I237764J77254D01*
G01*
X155701224Y-101634796D01*
G75*
G02*
X156016242Y-101795306I77254J-237764D01*
G01*
G37*
G36*
G01*
X157989684Y-101154096D02*
X158283250Y-102057600D01*
G75*
G02*
X158122740Y-102372618I-237764J-77254D01*
G01*
X157480776Y-102581204D01*
G75*
G02*
X157165758Y-102420694I-77254J237764D01*
G01*
X156872192Y-101517190D01*
G75*
G02*
X157032702Y-101202172I237764J77254D01*
G01*
X157674666Y-100993586D01*
G75*
G02*
X157989684Y-101154096I77254J-237764D01*
G01*
G37*
%TD*%
%TO.C,C2*%
G36*
G01*
X151065867Y-87687150D02*
X151834434Y-88245546D01*
G75*
G02*
X151889742Y-88594746I-146946J-202254D01*
G01*
X151492987Y-89140832D01*
G75*
G02*
X151143787Y-89196140I-202254J146946D01*
G01*
X150375220Y-88637744D01*
G75*
G02*
X150319912Y-88288544I146946J202254D01*
G01*
X150716667Y-87742458D01*
G75*
G02*
X151065867Y-87687150I202254J-146946D01*
G01*
G37*
G36*
G01*
X149846213Y-89365860D02*
X150614780Y-89924256D01*
G75*
G02*
X150670088Y-90273456I-146946J-202254D01*
G01*
X150273333Y-90819542D01*
G75*
G02*
X149924133Y-90874850I-202254J146946D01*
G01*
X149155566Y-90316454D01*
G75*
G02*
X149100258Y-89967254I146946J202254D01*
G01*
X149497013Y-89421168D01*
G75*
G02*
X149846213Y-89365860I202254J-146946D01*
G01*
G37*
%TD*%
%TO.C,C3*%
G36*
G01*
X164945808Y-90849190D02*
X164652242Y-91752694D01*
G75*
G02*
X164337224Y-91913204I-237764J77254D01*
G01*
X163695260Y-91704618D01*
G75*
G02*
X163534750Y-91389600I77254J237764D01*
G01*
X163828316Y-90486096D01*
G75*
G02*
X164143334Y-90325586I237764J-77254D01*
G01*
X164785298Y-90534172D01*
G75*
G02*
X164945808Y-90849190I-77254J-237764D01*
G01*
G37*
G36*
G01*
X166919250Y-91490400D02*
X166625684Y-92393904D01*
G75*
G02*
X166310666Y-92554414I-237764J77254D01*
G01*
X165668702Y-92345828D01*
G75*
G02*
X165508192Y-92030810I77254J237764D01*
G01*
X165801758Y-91127306D01*
G75*
G02*
X166116776Y-90966796I237764J-77254D01*
G01*
X166758740Y-91175382D01*
G75*
G02*
X166919250Y-91490400I-77254J-237764D01*
G01*
G37*
%TD*%
%TO.C,C4*%
G36*
G01*
X155923000Y-78968000D02*
X154973000Y-78968000D01*
G75*
G02*
X154723000Y-78718000I0J250000D01*
G01*
X154723000Y-78043000D01*
G75*
G02*
X154973000Y-77793000I250000J0D01*
G01*
X155923000Y-77793000D01*
G75*
G02*
X156173000Y-78043000I0J-250000D01*
G01*
X156173000Y-78718000D01*
G75*
G02*
X155923000Y-78968000I-250000J0D01*
G01*
G37*
G36*
G01*
X155923000Y-76893000D02*
X154973000Y-76893000D01*
G75*
G02*
X154723000Y-76643000I0J250000D01*
G01*
X154723000Y-75968000D01*
G75*
G02*
X154973000Y-75718000I250000J0D01*
G01*
X155923000Y-75718000D01*
G75*
G02*
X156173000Y-75968000I0J-250000D01*
G01*
X156173000Y-76643000D01*
G75*
G02*
X155923000Y-76893000I-250000J0D01*
G01*
G37*
%TD*%
D10*
%TO.C,D1*%
G36*
X155725843Y-94130374D02*
G01*
X156676900Y-93821357D01*
X157140425Y-95247942D01*
X156189368Y-95556959D01*
X155725843Y-94130374D01*
G37*
G36*
X152682462Y-95119229D02*
G01*
X153633519Y-94810212D01*
X154097044Y-96236797D01*
X153145987Y-96545814D01*
X152682462Y-95119229D01*
G37*
G36*
X157240026Y-98790551D02*
G01*
X158191083Y-98481534D01*
X158654608Y-99908119D01*
X157703551Y-100217136D01*
X157240026Y-98790551D01*
G37*
G36*
X154196645Y-99779406D02*
G01*
X155147702Y-99470389D01*
X155611227Y-100896974D01*
X154660170Y-101205991D01*
X154196645Y-99779406D01*
G37*
%TD*%
%TO.C,D2*%
G36*
X164768742Y-88306785D02*
G01*
X165719799Y-88615802D01*
X165256274Y-90042387D01*
X164305217Y-89733370D01*
X164768742Y-88306785D01*
G37*
G36*
X167812123Y-89295640D02*
G01*
X168763180Y-89604657D01*
X168299655Y-91031242D01*
X167348598Y-90722225D01*
X167812123Y-89295640D01*
G37*
G36*
X166282925Y-83646608D02*
G01*
X167233982Y-83955625D01*
X166770457Y-85382210D01*
X165819400Y-85073193D01*
X166282925Y-83646608D01*
G37*
G36*
X169326306Y-84635463D02*
G01*
X170277363Y-84944480D01*
X169813838Y-86371065D01*
X168862781Y-86062048D01*
X169326306Y-84635463D01*
G37*
%TD*%
%TO.C,D3*%
G36*
X147223417Y-88414330D02*
G01*
X147811202Y-87605313D01*
X149024727Y-88486990D01*
X148436942Y-89296007D01*
X147223417Y-88414330D01*
G37*
G36*
X149104330Y-85825476D02*
G01*
X149692115Y-85016459D01*
X150905640Y-85898136D01*
X150317855Y-86707153D01*
X149104330Y-85825476D01*
G37*
G36*
X143259234Y-85534182D02*
G01*
X143847019Y-84725165D01*
X145060544Y-85606842D01*
X144472759Y-86415859D01*
X143259234Y-85534182D01*
G37*
G36*
X145140147Y-82945328D02*
G01*
X145727932Y-82136311D01*
X146941457Y-83017988D01*
X146353672Y-83827005D01*
X145140147Y-82945328D01*
G37*
%TD*%
D11*
%TO.C,D4*%
X162800826Y-79406432D03*
X162800826Y-76206432D03*
X157900826Y-79406432D03*
X157900826Y-76206432D03*
%TD*%
D10*
%TO.C,SW1*%
G36*
X157458999Y-82647554D02*
G01*
X158348918Y-82000991D01*
X159495099Y-83578574D01*
X158605180Y-84225137D01*
X157458999Y-82647554D01*
G37*
G36*
X155436457Y-84117017D02*
G01*
X156326376Y-83470454D01*
X157472557Y-85048037D01*
X156582638Y-85694600D01*
X155436457Y-84117017D01*
G37*
G36*
X153413914Y-85586480D02*
G01*
X154303833Y-84939917D01*
X155450014Y-86517500D01*
X154560095Y-87164063D01*
X153413914Y-85586480D01*
G37*
G36*
X160779986Y-87218500D02*
G01*
X161669905Y-86571937D01*
X162816086Y-88149520D01*
X161926167Y-88796083D01*
X160779986Y-87218500D01*
G37*
G36*
X158757443Y-88687963D02*
G01*
X159647362Y-88041400D01*
X160793543Y-89618983D01*
X159903624Y-90265546D01*
X158757443Y-88687963D01*
G37*
G36*
X156734901Y-90157426D02*
G01*
X157624820Y-89510863D01*
X158771001Y-91088446D01*
X157881082Y-91735009D01*
X156734901Y-90157426D01*
G37*
%TD*%
M02*
