%TF.GenerationSoftware,KiCad,Pcbnew,5.1.8*%
%TF.CreationDate,2021-01-20T11:21:44-05:00*%
%TF.ProjectId,penrosedart,70656e72-6f73-4656-9461-72742e6b6963,rev?*%
%TF.SameCoordinates,Original*%
%TF.FileFunction,Copper,L2,Bot*%
%TF.FilePolarity,Positive*%
%FSLAX46Y46*%
G04 Gerber Fmt 4.6, Leading zero omitted, Abs format (unit mm)*
G04 Created by KiCad (PCBNEW 5.1.8) date 2021-01-20 11:21:44*
%MOMM*%
%LPD*%
G01*
G04 APERTURE LIST*
%TA.AperFunction,ComponentPad*%
%ADD10C,0.100000*%
%TD*%
%TA.AperFunction,ComponentPad*%
%ADD11O,1.700000X1.700000*%
%TD*%
%TA.AperFunction,ComponentPad*%
%ADD12R,1.700000X1.700000*%
%TD*%
%TA.AperFunction,ViaPad*%
%ADD13C,0.800000*%
%TD*%
%TA.AperFunction,Conductor*%
%ADD14C,0.250000*%
%TD*%
%TA.AperFunction,Conductor*%
%ADD15C,0.254000*%
%TD*%
%TA.AperFunction,Conductor*%
%ADD16C,0.100000*%
%TD*%
G04 APERTURE END LIST*
%TO.P,J1,3*%
%TO.N,Net-(D1-Pad2)*%
%TA.AperFunction,ComponentPad*%
G36*
G01*
X158301067Y-111335428D02*
X158301067Y-111335428D01*
G75*
G02*
X158846801Y-110264366I808398J262664D01*
G01*
X158846801Y-110264366D01*
G75*
G02*
X159917863Y-110810100I262664J-808398D01*
G01*
X159917863Y-110810100D01*
G75*
G02*
X159372129Y-111881162I-808398J-262664D01*
G01*
X159372129Y-111881162D01*
G75*
G02*
X158301067Y-111335428I-262664J808398D01*
G01*
G37*
%TD.AperFunction*%
%TO.P,J1,2*%
%TO.N,VCC*%
%TA.AperFunction,ComponentPad*%
G36*
G01*
X157516164Y-108919745D02*
X157516164Y-108919745D01*
G75*
G02*
X158061898Y-107848683I808398J262664D01*
G01*
X158061898Y-107848683D01*
G75*
G02*
X159132960Y-108394417I262664J-808398D01*
G01*
X159132960Y-108394417D01*
G75*
G02*
X158587226Y-109465479I-808398J-262664D01*
G01*
X158587226Y-109465479D01*
G75*
G02*
X157516164Y-108919745I-262664J808398D01*
G01*
G37*
%TD.AperFunction*%
%TA.AperFunction,ComponentPad*%
D10*
%TO.P,J1,1*%
%TO.N,GND*%
G36*
X156993925Y-107312459D02*
G01*
X156468597Y-105695663D01*
X158085393Y-105170335D01*
X158610721Y-106787131D01*
X156993925Y-107312459D01*
G37*
%TD.AperFunction*%
%TD*%
%TA.AperFunction,ComponentPad*%
%TO.P,J2,1*%
%TO.N,GND*%
G36*
X164212856Y-97707416D02*
G01*
X164738184Y-96090620D01*
X166354980Y-96615948D01*
X165829652Y-98232744D01*
X164212856Y-97707416D01*
G37*
%TD.AperFunction*%
%TO.P,J2,2*%
%TO.N,VCC*%
%TA.AperFunction,ComponentPad*%
G36*
G01*
X163690617Y-99314702D02*
X163690617Y-99314702D01*
G75*
G02*
X164761679Y-98768968I808398J-262664D01*
G01*
X164761679Y-98768968D01*
G75*
G02*
X165307413Y-99840030I-262664J-808398D01*
G01*
X165307413Y-99840030D01*
G75*
G02*
X164236351Y-100385764I-808398J262664D01*
G01*
X164236351Y-100385764D01*
G75*
G02*
X163690617Y-99314702I262664J808398D01*
G01*
G37*
%TD.AperFunction*%
%TO.P,J2,3*%
%TO.N,Net-(D2-Pad2)*%
%TA.AperFunction,ComponentPad*%
G36*
G01*
X162905714Y-101730385D02*
X162905714Y-101730385D01*
G75*
G02*
X163976776Y-101184651I808398J-262664D01*
G01*
X163976776Y-101184651D01*
G75*
G02*
X164522510Y-102255713I-262664J-808398D01*
G01*
X164522510Y-102255713D01*
G75*
G02*
X163451448Y-102801447I-808398J262664D01*
G01*
X163451448Y-102801447D01*
G75*
G02*
X162905714Y-101730385I262664J808398D01*
G01*
G37*
%TD.AperFunction*%
%TD*%
%TA.AperFunction,ComponentPad*%
%TO.P,J3,1*%
%TO.N,GND*%
G36*
X139172475Y-80053980D02*
G01*
X140547804Y-81053215D01*
X139548569Y-82428544D01*
X138173240Y-81429309D01*
X139172475Y-80053980D01*
G37*
%TD.AperFunction*%
%TO.P,J3,2*%
%TO.N,VCC*%
%TA.AperFunction,ComponentPad*%
G36*
G01*
X137805236Y-79060623D02*
X137805236Y-79060623D01*
G75*
G02*
X137993283Y-80247904I-499617J-687664D01*
G01*
X137993283Y-80247904D01*
G75*
G02*
X136806002Y-80435951I-687664J499617D01*
G01*
X136806002Y-80435951D01*
G75*
G02*
X136617955Y-79248670I499617J687664D01*
G01*
X136617955Y-79248670D01*
G75*
G02*
X137805236Y-79060623I687664J-499617D01*
G01*
G37*
%TD.AperFunction*%
%TO.P,J3,3*%
%TO.N,Net-(D3-Pad4)*%
%TA.AperFunction,ComponentPad*%
G36*
G01*
X135750333Y-77567649D02*
X135750333Y-77567649D01*
G75*
G02*
X135938380Y-78754930I-499617J-687664D01*
G01*
X135938380Y-78754930D01*
G75*
G02*
X134751099Y-78942977I-687664J499617D01*
G01*
X134751099Y-78942977D01*
G75*
G02*
X134563052Y-77755696I499617J687664D01*
G01*
X134563052Y-77755696D01*
G75*
G02*
X135750333Y-77567649I687664J-499617D01*
G01*
G37*
%TD.AperFunction*%
%TD*%
D11*
%TO.P,J4,3*%
%TO.N,Net-(D4-Pad4)*%
X145310085Y-76679340D03*
%TO.P,J4,2*%
%TO.N,VCC*%
X147850085Y-76679340D03*
D12*
%TO.P,J4,1*%
%TO.N,GND*%
X150390085Y-76679340D03*
%TD*%
D13*
%TO.N,GND*%
X147193000Y-83947000D03*
X156562909Y-100612091D03*
X156972000Y-96139000D03*
X166624000Y-90170000D03*
X169164000Y-87122000D03*
X155448000Y-79883000D03*
X149987000Y-87503000D03*
X161163000Y-79502000D03*
%TO.N,Net-(D1-Pad4)*%
X154305000Y-92710000D03*
X156593393Y-89400772D03*
%TO.N,Net-(D4-Pad2)*%
X159258000Y-87122000D03*
X155829000Y-86995000D03*
%TD*%
D14*
%TO.N,Net-(D1-Pad4)*%
X154305000Y-92710000D02*
X156593393Y-89400772D01*
%TO.N,Net-(D4-Pad2)*%
X155829000Y-86995000D02*
X159258000Y-87122000D01*
%TD*%
D15*
%TO.N,GND*%
X159935449Y-119319606D02*
X155921283Y-106972052D01*
X156215642Y-106972052D01*
X156387083Y-107509635D01*
X156437210Y-107624235D01*
X156508731Y-107726855D01*
X156598899Y-107813548D01*
X156704247Y-107880986D01*
X156820727Y-107926575D01*
X156943863Y-107948565D01*
X157012889Y-107947209D01*
X157008572Y-107953670D01*
X156896630Y-108223923D01*
X156839562Y-108510821D01*
X156839562Y-108803341D01*
X156896630Y-109090239D01*
X157008572Y-109360492D01*
X157171087Y-109603713D01*
X157377930Y-109810556D01*
X157621151Y-109973071D01*
X157891404Y-110085013D01*
X157979571Y-110102551D01*
X157955990Y-110126132D01*
X157793475Y-110369353D01*
X157681533Y-110639606D01*
X157624465Y-110926504D01*
X157624465Y-111219024D01*
X157681533Y-111505922D01*
X157793475Y-111776175D01*
X157955990Y-112019396D01*
X158162833Y-112226239D01*
X158406054Y-112388754D01*
X158676307Y-112500696D01*
X158963205Y-112557764D01*
X159255725Y-112557764D01*
X159542623Y-112500696D01*
X159812876Y-112388754D01*
X160056097Y-112226239D01*
X160262940Y-112019396D01*
X160425455Y-111776175D01*
X160537397Y-111505922D01*
X160594465Y-111219024D01*
X160594465Y-110926504D01*
X160537397Y-110639606D01*
X160425455Y-110369353D01*
X160262940Y-110126132D01*
X160056097Y-109919289D01*
X159812876Y-109756774D01*
X159542623Y-109644832D01*
X159454456Y-109627294D01*
X159478037Y-109603713D01*
X159640552Y-109360492D01*
X159752494Y-109090239D01*
X159809562Y-108803341D01*
X159809562Y-108510821D01*
X159752494Y-108223923D01*
X159640552Y-107953670D01*
X159478037Y-107710449D01*
X159271194Y-107503606D01*
X159027973Y-107341091D01*
X158964295Y-107314715D01*
X159025117Y-107272325D01*
X159111810Y-107182157D01*
X159179248Y-107076809D01*
X159224837Y-106960329D01*
X159246827Y-106837193D01*
X159244371Y-106712133D01*
X159228773Y-106641042D01*
X160494000Y-106641042D01*
X160494000Y-106972958D01*
X160558754Y-107298496D01*
X160685772Y-107605147D01*
X160870175Y-107881125D01*
X161104875Y-108115825D01*
X161380853Y-108300228D01*
X161687504Y-108427246D01*
X162013042Y-108492000D01*
X162344958Y-108492000D01*
X162670496Y-108427246D01*
X162977147Y-108300228D01*
X163253125Y-108115825D01*
X163487825Y-107881125D01*
X163672228Y-107605147D01*
X163799246Y-107298496D01*
X163864000Y-106972958D01*
X163864000Y-106641042D01*
X163799246Y-106315504D01*
X163672228Y-106008853D01*
X163487825Y-105732875D01*
X163253125Y-105498175D01*
X162977147Y-105313772D01*
X162670496Y-105186754D01*
X162344958Y-105122000D01*
X162013042Y-105122000D01*
X161687504Y-105186754D01*
X161380853Y-105313772D01*
X161104875Y-105498175D01*
X160870175Y-105732875D01*
X160685772Y-106008853D01*
X160558754Y-106315504D01*
X160494000Y-106641042D01*
X159228773Y-106641042D01*
X159217564Y-106589956D01*
X159040280Y-106054271D01*
X158840243Y-105952347D01*
X157699688Y-106322936D01*
X157705869Y-106341958D01*
X157464300Y-106420447D01*
X157458120Y-106401426D01*
X156317565Y-106772015D01*
X156215642Y-106972052D01*
X155921283Y-106972052D01*
X155490056Y-105645601D01*
X155832491Y-105645601D01*
X155834947Y-105770661D01*
X155861754Y-105892838D01*
X156039038Y-106428523D01*
X156239075Y-106530447D01*
X157379630Y-106159858D01*
X157009041Y-105019303D01*
X156854995Y-104940813D01*
X157250609Y-104940813D01*
X157621198Y-106081368D01*
X158761753Y-105710779D01*
X158863676Y-105510742D01*
X158692235Y-104973159D01*
X158642108Y-104858559D01*
X158570587Y-104755939D01*
X158480419Y-104669246D01*
X158375071Y-104601808D01*
X158258591Y-104556219D01*
X158135455Y-104534229D01*
X158010395Y-104536685D01*
X157888218Y-104563492D01*
X157352533Y-104740776D01*
X157250609Y-104940813D01*
X156854995Y-104940813D01*
X156809004Y-104917380D01*
X156271421Y-105088821D01*
X156156821Y-105138948D01*
X156054201Y-105210469D01*
X155967508Y-105300637D01*
X155900070Y-105405985D01*
X155854481Y-105522465D01*
X155832491Y-105645601D01*
X155490056Y-105645601D01*
X154255070Y-101846789D01*
X162229112Y-101846789D01*
X162229112Y-102139309D01*
X162286180Y-102426207D01*
X162398122Y-102696460D01*
X162560637Y-102939681D01*
X162767480Y-103146524D01*
X163010701Y-103309039D01*
X163280954Y-103420981D01*
X163567852Y-103478049D01*
X163860372Y-103478049D01*
X164147270Y-103420981D01*
X164417523Y-103309039D01*
X164660744Y-103146524D01*
X164867587Y-102939681D01*
X165030102Y-102696460D01*
X165142044Y-102426207D01*
X165199112Y-102139309D01*
X165199112Y-101846789D01*
X165142044Y-101559891D01*
X165030102Y-101289638D01*
X164867587Y-101046417D01*
X164844006Y-101022836D01*
X164932173Y-101005298D01*
X165202426Y-100893356D01*
X165445647Y-100730841D01*
X165652490Y-100523998D01*
X165815005Y-100280777D01*
X165926947Y-100010524D01*
X165984015Y-99723626D01*
X165984015Y-99431106D01*
X165926947Y-99144208D01*
X165815005Y-98873955D01*
X165810688Y-98867494D01*
X165879714Y-98868850D01*
X166002850Y-98846860D01*
X166119330Y-98801271D01*
X166224678Y-98733833D01*
X166314846Y-98647140D01*
X166386367Y-98544520D01*
X166436494Y-98429920D01*
X166607935Y-97892337D01*
X166506012Y-97692300D01*
X165365457Y-97321711D01*
X165359277Y-97340732D01*
X165117708Y-97262243D01*
X165123889Y-97243221D01*
X164621987Y-97080143D01*
X165443947Y-97080143D01*
X166584502Y-97450732D01*
X166784539Y-97348808D01*
X166961823Y-96813123D01*
X166988630Y-96690946D01*
X166991086Y-96565886D01*
X166969096Y-96442750D01*
X166923507Y-96326270D01*
X166856069Y-96220922D01*
X166769376Y-96130754D01*
X166666756Y-96059233D01*
X166552156Y-96009106D01*
X166014573Y-95837665D01*
X165814536Y-95939588D01*
X165443947Y-97080143D01*
X164621987Y-97080143D01*
X163983334Y-96872632D01*
X163783297Y-96974556D01*
X163606013Y-97510241D01*
X163579206Y-97632418D01*
X163576750Y-97757478D01*
X163598740Y-97880614D01*
X163644329Y-97997094D01*
X163711767Y-98102442D01*
X163798460Y-98192610D01*
X163859282Y-98235000D01*
X163795604Y-98261376D01*
X163552383Y-98423891D01*
X163345540Y-98630734D01*
X163183025Y-98873955D01*
X163071083Y-99144208D01*
X163014015Y-99431106D01*
X163014015Y-99723626D01*
X163071083Y-100010524D01*
X163183025Y-100280777D01*
X163345540Y-100523998D01*
X163369121Y-100547579D01*
X163280954Y-100565117D01*
X163010701Y-100677059D01*
X162767480Y-100839574D01*
X162560637Y-101046417D01*
X162398122Y-101289638D01*
X162286180Y-101559891D01*
X162229112Y-101846789D01*
X154255070Y-101846789D01*
X152494416Y-96431027D01*
X163959901Y-96431027D01*
X164061824Y-96631064D01*
X165202379Y-97001653D01*
X165572968Y-95861098D01*
X165471044Y-95661061D01*
X164935359Y-95483777D01*
X164813182Y-95456970D01*
X164688122Y-95454514D01*
X164564986Y-95476504D01*
X164448506Y-95522093D01*
X164343158Y-95589531D01*
X164252990Y-95676224D01*
X164181469Y-95778844D01*
X164131342Y-95893444D01*
X163959901Y-96431027D01*
X152494416Y-96431027D01*
X151251576Y-92608061D01*
X153270000Y-92608061D01*
X153270000Y-92811939D01*
X153309774Y-93011898D01*
X153387795Y-93200256D01*
X153501063Y-93369774D01*
X153645226Y-93513937D01*
X153814744Y-93627205D01*
X154003102Y-93705226D01*
X154203061Y-93745000D01*
X154406939Y-93745000D01*
X154606898Y-93705226D01*
X154795256Y-93627205D01*
X154964774Y-93513937D01*
X155108937Y-93369774D01*
X155222205Y-93200256D01*
X155300226Y-93011898D01*
X155340000Y-92811939D01*
X155340000Y-92608061D01*
X155330955Y-92562587D01*
X156818650Y-90411243D01*
X156895291Y-90395998D01*
X157083649Y-90317977D01*
X157253167Y-90204709D01*
X157397330Y-90060546D01*
X157510598Y-89891028D01*
X157588619Y-89702670D01*
X157628393Y-89502711D01*
X157628393Y-89298833D01*
X157588619Y-89098874D01*
X157510598Y-88910516D01*
X157397330Y-88740998D01*
X157253167Y-88596835D01*
X157083649Y-88483567D01*
X156895291Y-88405546D01*
X156695332Y-88365772D01*
X156491454Y-88365772D01*
X156291495Y-88405546D01*
X156103137Y-88483567D01*
X155933619Y-88596835D01*
X155789456Y-88740998D01*
X155676188Y-88910516D01*
X155598167Y-89098874D01*
X155558393Y-89298833D01*
X155558393Y-89502711D01*
X155567438Y-89548184D01*
X154079744Y-91699529D01*
X154003102Y-91714774D01*
X153814744Y-91792795D01*
X153645226Y-91906063D01*
X153501063Y-92050226D01*
X153387795Y-92219744D01*
X153309774Y-92408102D01*
X153270000Y-92608061D01*
X151251576Y-92608061D01*
X151094722Y-92125580D01*
X151081846Y-92076353D01*
X151056592Y-92024365D01*
X151033418Y-91971406D01*
X151025009Y-91959345D01*
X151018586Y-91946122D01*
X150983673Y-91900057D01*
X150950614Y-91852640D01*
X150940014Y-91842452D01*
X150931134Y-91830735D01*
X150887891Y-91792353D01*
X150846230Y-91752310D01*
X150803383Y-91724891D01*
X144144781Y-86893061D01*
X154794000Y-86893061D01*
X154794000Y-87096939D01*
X154833774Y-87296898D01*
X154911795Y-87485256D01*
X155025063Y-87654774D01*
X155169226Y-87798937D01*
X155338744Y-87912205D01*
X155527102Y-87990226D01*
X155727061Y-88030000D01*
X155930939Y-88030000D01*
X156130898Y-87990226D01*
X156319256Y-87912205D01*
X156488774Y-87798937D01*
X156507076Y-87780635D01*
X158527764Y-87855475D01*
X158598226Y-87925937D01*
X158767744Y-88039205D01*
X158956102Y-88117226D01*
X159156061Y-88157000D01*
X159359939Y-88157000D01*
X159559898Y-88117226D01*
X159748256Y-88039205D01*
X159917774Y-87925937D01*
X160061937Y-87781774D01*
X160175205Y-87612256D01*
X160253226Y-87423898D01*
X160293000Y-87223939D01*
X160293000Y-87020061D01*
X160253226Y-86820102D01*
X160175205Y-86631744D01*
X160061937Y-86462226D01*
X159917774Y-86318063D01*
X159748256Y-86204795D01*
X159559898Y-86126774D01*
X159359939Y-86087000D01*
X159156061Y-86087000D01*
X158956102Y-86126774D01*
X158767744Y-86204795D01*
X158598226Y-86318063D01*
X158579924Y-86336365D01*
X156559236Y-86261525D01*
X156488774Y-86191063D01*
X156319256Y-86077795D01*
X156130898Y-85999774D01*
X155930939Y-85960000D01*
X155727061Y-85960000D01*
X155527102Y-85999774D01*
X155338744Y-86077795D01*
X155169226Y-86191063D01*
X155025063Y-86335226D01*
X154911795Y-86504744D01*
X154833774Y-86693102D01*
X154794000Y-86893061D01*
X144144781Y-86893061D01*
X137937687Y-82388870D01*
X138683717Y-82388870D01*
X138718838Y-82610612D01*
X139173520Y-82944755D01*
X139281434Y-83008005D01*
X139399614Y-83048986D01*
X139523519Y-83066124D01*
X139648385Y-83058760D01*
X139769416Y-83027177D01*
X139881961Y-82972590D01*
X139981693Y-82897095D01*
X140064780Y-82803593D01*
X140393953Y-82345300D01*
X140358832Y-82123557D01*
X139388618Y-81418656D01*
X138683717Y-82388870D01*
X137937687Y-82388870D01*
X132039796Y-78109053D01*
X133765716Y-78109053D01*
X133765716Y-78401573D01*
X133822784Y-78688471D01*
X133934726Y-78958724D01*
X134097241Y-79201945D01*
X134304084Y-79408788D01*
X134547305Y-79571303D01*
X134817558Y-79683245D01*
X135104456Y-79740313D01*
X135396976Y-79740313D01*
X135683874Y-79683245D01*
X135820619Y-79626604D01*
X135820619Y-79894547D01*
X135877687Y-80181445D01*
X135989629Y-80451698D01*
X136152144Y-80694919D01*
X136358987Y-80901762D01*
X136602208Y-81064277D01*
X136872461Y-81176219D01*
X137159359Y-81233287D01*
X137451879Y-81233287D01*
X137577805Y-81208239D01*
X137552798Y-81280354D01*
X137535660Y-81404259D01*
X137543024Y-81529125D01*
X137574607Y-81650156D01*
X137629194Y-81762701D01*
X137704689Y-81862433D01*
X137798191Y-81945520D01*
X138256484Y-82274693D01*
X138478227Y-82239572D01*
X139183128Y-81269358D01*
X139166948Y-81257603D01*
X139199233Y-81213166D01*
X139537916Y-81213166D01*
X140508130Y-81918067D01*
X140729872Y-81882946D01*
X140921608Y-81622042D01*
X168114000Y-81622042D01*
X168114000Y-81953958D01*
X168178754Y-82279496D01*
X168305772Y-82586147D01*
X168490175Y-82862125D01*
X168724875Y-83096825D01*
X169000853Y-83281228D01*
X169307504Y-83408246D01*
X169633042Y-83473000D01*
X169964958Y-83473000D01*
X170290496Y-83408246D01*
X170597147Y-83281228D01*
X170873125Y-83096825D01*
X171107825Y-82862125D01*
X171292228Y-82586147D01*
X171419246Y-82279496D01*
X171484000Y-81953958D01*
X171484000Y-81622042D01*
X171419246Y-81296504D01*
X171292228Y-80989853D01*
X171107825Y-80713875D01*
X170873125Y-80479175D01*
X170597147Y-80294772D01*
X170290496Y-80167754D01*
X169964958Y-80103000D01*
X169633042Y-80103000D01*
X169307504Y-80167754D01*
X169000853Y-80294772D01*
X168724875Y-80479175D01*
X168490175Y-80713875D01*
X168305772Y-80989853D01*
X168178754Y-81296504D01*
X168114000Y-81622042D01*
X140921608Y-81622042D01*
X141064015Y-81428264D01*
X141127265Y-81320350D01*
X141168246Y-81202170D01*
X141185384Y-81078265D01*
X141178020Y-80953399D01*
X141146437Y-80832368D01*
X141091850Y-80719823D01*
X141016355Y-80620091D01*
X140922853Y-80537004D01*
X140464560Y-80207831D01*
X140242817Y-80242952D01*
X139537916Y-81213166D01*
X139199233Y-81213166D01*
X139316245Y-81052112D01*
X139332426Y-81063868D01*
X140037327Y-80093654D01*
X140002206Y-79871912D01*
X139547524Y-79537769D01*
X139439610Y-79474519D01*
X139321430Y-79433538D01*
X139197525Y-79416400D01*
X139072659Y-79423764D01*
X138951628Y-79455347D01*
X138839083Y-79509934D01*
X138781040Y-79553871D01*
X138733551Y-79315129D01*
X138621609Y-79044876D01*
X138459094Y-78801655D01*
X138252251Y-78594812D01*
X138009030Y-78432297D01*
X137738777Y-78320355D01*
X137451879Y-78263287D01*
X137159359Y-78263287D01*
X136872461Y-78320355D01*
X136735716Y-78376996D01*
X136735716Y-78109053D01*
X136678648Y-77822155D01*
X136566706Y-77551902D01*
X136404191Y-77308681D01*
X136197348Y-77101838D01*
X135954127Y-76939323D01*
X135683874Y-76827381D01*
X135396976Y-76770313D01*
X135104456Y-76770313D01*
X134817558Y-76827381D01*
X134547305Y-76939323D01*
X134304084Y-77101838D01*
X134097241Y-77308681D01*
X133934726Y-77551902D01*
X133822784Y-77822155D01*
X133765716Y-78109053D01*
X132039796Y-78109053D01*
X129880344Y-76542042D01*
X138777000Y-76542042D01*
X138777000Y-76873958D01*
X138841754Y-77199496D01*
X138968772Y-77506147D01*
X139153175Y-77782125D01*
X139387875Y-78016825D01*
X139663853Y-78201228D01*
X139970504Y-78328246D01*
X140296042Y-78393000D01*
X140627958Y-78393000D01*
X140759547Y-78366825D01*
X168208000Y-78366825D01*
X168208000Y-78605175D01*
X168254499Y-78838944D01*
X168345712Y-79059150D01*
X168478131Y-79257330D01*
X168646670Y-79425869D01*
X168844850Y-79558288D01*
X169065056Y-79649501D01*
X169298825Y-79696000D01*
X169537175Y-79696000D01*
X169770944Y-79649501D01*
X169991150Y-79558288D01*
X170189330Y-79425869D01*
X170357869Y-79257330D01*
X170490288Y-79059150D01*
X170581501Y-78838944D01*
X170628000Y-78605175D01*
X170628000Y-78366825D01*
X170581501Y-78133056D01*
X170490288Y-77912850D01*
X170357869Y-77714670D01*
X170189330Y-77546131D01*
X169991150Y-77413712D01*
X169770944Y-77322499D01*
X169537175Y-77276000D01*
X169298825Y-77276000D01*
X169065056Y-77322499D01*
X168844850Y-77413712D01*
X168646670Y-77546131D01*
X168478131Y-77714670D01*
X168345712Y-77912850D01*
X168254499Y-78133056D01*
X168208000Y-78366825D01*
X140759547Y-78366825D01*
X140953496Y-78328246D01*
X141260147Y-78201228D01*
X141536125Y-78016825D01*
X141770825Y-77782125D01*
X141955228Y-77506147D01*
X142082246Y-77199496D01*
X142147000Y-76873958D01*
X142147000Y-76542042D01*
X142145218Y-76533080D01*
X143825085Y-76533080D01*
X143825085Y-76825600D01*
X143882153Y-77112498D01*
X143994095Y-77382751D01*
X144156610Y-77625972D01*
X144363453Y-77832815D01*
X144606674Y-77995330D01*
X144876927Y-78107272D01*
X145163825Y-78164340D01*
X145456345Y-78164340D01*
X145743243Y-78107272D01*
X146013496Y-77995330D01*
X146256717Y-77832815D01*
X146463560Y-77625972D01*
X146580085Y-77451580D01*
X146696610Y-77625972D01*
X146903453Y-77832815D01*
X147146674Y-77995330D01*
X147416927Y-78107272D01*
X147703825Y-78164340D01*
X147996345Y-78164340D01*
X148283243Y-78107272D01*
X148553496Y-77995330D01*
X148796717Y-77832815D01*
X148928572Y-77700960D01*
X148950583Y-77773520D01*
X149009548Y-77883834D01*
X149088900Y-77980525D01*
X149185591Y-78059877D01*
X149295905Y-78118842D01*
X149415603Y-78155152D01*
X149540085Y-78167412D01*
X150104335Y-78164340D01*
X150263085Y-78005590D01*
X150263085Y-76806340D01*
X150517085Y-76806340D01*
X150517085Y-78005590D01*
X150675835Y-78164340D01*
X151240085Y-78167412D01*
X151364567Y-78155152D01*
X151484265Y-78118842D01*
X151594579Y-78059877D01*
X151691270Y-77980525D01*
X151770622Y-77883834D01*
X151829587Y-77773520D01*
X151865897Y-77653822D01*
X151878157Y-77529340D01*
X151875085Y-76965090D01*
X151716335Y-76806340D01*
X150517085Y-76806340D01*
X150263085Y-76806340D01*
X150243085Y-76806340D01*
X150243085Y-76552340D01*
X150263085Y-76552340D01*
X150263085Y-75353090D01*
X150517085Y-75353090D01*
X150517085Y-76552340D01*
X151716335Y-76552340D01*
X151875085Y-76393590D01*
X151878157Y-75829340D01*
X151865897Y-75704858D01*
X151829587Y-75585160D01*
X151770622Y-75474846D01*
X151691270Y-75378155D01*
X151594579Y-75298803D01*
X151484265Y-75239838D01*
X151364567Y-75203528D01*
X151240085Y-75191268D01*
X150675835Y-75194340D01*
X150517085Y-75353090D01*
X150263085Y-75353090D01*
X150104335Y-75194340D01*
X149540085Y-75191268D01*
X149415603Y-75203528D01*
X149295905Y-75239838D01*
X149185591Y-75298803D01*
X149088900Y-75378155D01*
X149009548Y-75474846D01*
X148950583Y-75585160D01*
X148928572Y-75657720D01*
X148796717Y-75525865D01*
X148553496Y-75363350D01*
X148283243Y-75251408D01*
X147996345Y-75194340D01*
X147703825Y-75194340D01*
X147416927Y-75251408D01*
X147146674Y-75363350D01*
X146903453Y-75525865D01*
X146696610Y-75732708D01*
X146580085Y-75907100D01*
X146463560Y-75732708D01*
X146256717Y-75525865D01*
X146013496Y-75363350D01*
X145743243Y-75251408D01*
X145456345Y-75194340D01*
X145163825Y-75194340D01*
X144876927Y-75251408D01*
X144606674Y-75363350D01*
X144363453Y-75525865D01*
X144156610Y-75732708D01*
X143994095Y-75975929D01*
X143882153Y-76246182D01*
X143825085Y-76533080D01*
X142145218Y-76533080D01*
X142082246Y-76216504D01*
X141955228Y-75909853D01*
X141770825Y-75633875D01*
X141536125Y-75399175D01*
X141260147Y-75214772D01*
X140953496Y-75087754D01*
X140627958Y-75023000D01*
X140296042Y-75023000D01*
X139970504Y-75087754D01*
X139663853Y-75214772D01*
X139387875Y-75399175D01*
X139153175Y-75633875D01*
X138968772Y-75909853D01*
X138841754Y-76216504D01*
X138777000Y-76542042D01*
X129880344Y-76542042D01*
X127655886Y-74927860D01*
X174375016Y-74903527D01*
X159935449Y-119319606D01*
%TA.AperFunction,Conductor*%
D16*
G36*
X159935449Y-119319606D02*
G01*
X155921283Y-106972052D01*
X156215642Y-106972052D01*
X156387083Y-107509635D01*
X156437210Y-107624235D01*
X156508731Y-107726855D01*
X156598899Y-107813548D01*
X156704247Y-107880986D01*
X156820727Y-107926575D01*
X156943863Y-107948565D01*
X157012889Y-107947209D01*
X157008572Y-107953670D01*
X156896630Y-108223923D01*
X156839562Y-108510821D01*
X156839562Y-108803341D01*
X156896630Y-109090239D01*
X157008572Y-109360492D01*
X157171087Y-109603713D01*
X157377930Y-109810556D01*
X157621151Y-109973071D01*
X157891404Y-110085013D01*
X157979571Y-110102551D01*
X157955990Y-110126132D01*
X157793475Y-110369353D01*
X157681533Y-110639606D01*
X157624465Y-110926504D01*
X157624465Y-111219024D01*
X157681533Y-111505922D01*
X157793475Y-111776175D01*
X157955990Y-112019396D01*
X158162833Y-112226239D01*
X158406054Y-112388754D01*
X158676307Y-112500696D01*
X158963205Y-112557764D01*
X159255725Y-112557764D01*
X159542623Y-112500696D01*
X159812876Y-112388754D01*
X160056097Y-112226239D01*
X160262940Y-112019396D01*
X160425455Y-111776175D01*
X160537397Y-111505922D01*
X160594465Y-111219024D01*
X160594465Y-110926504D01*
X160537397Y-110639606D01*
X160425455Y-110369353D01*
X160262940Y-110126132D01*
X160056097Y-109919289D01*
X159812876Y-109756774D01*
X159542623Y-109644832D01*
X159454456Y-109627294D01*
X159478037Y-109603713D01*
X159640552Y-109360492D01*
X159752494Y-109090239D01*
X159809562Y-108803341D01*
X159809562Y-108510821D01*
X159752494Y-108223923D01*
X159640552Y-107953670D01*
X159478037Y-107710449D01*
X159271194Y-107503606D01*
X159027973Y-107341091D01*
X158964295Y-107314715D01*
X159025117Y-107272325D01*
X159111810Y-107182157D01*
X159179248Y-107076809D01*
X159224837Y-106960329D01*
X159246827Y-106837193D01*
X159244371Y-106712133D01*
X159228773Y-106641042D01*
X160494000Y-106641042D01*
X160494000Y-106972958D01*
X160558754Y-107298496D01*
X160685772Y-107605147D01*
X160870175Y-107881125D01*
X161104875Y-108115825D01*
X161380853Y-108300228D01*
X161687504Y-108427246D01*
X162013042Y-108492000D01*
X162344958Y-108492000D01*
X162670496Y-108427246D01*
X162977147Y-108300228D01*
X163253125Y-108115825D01*
X163487825Y-107881125D01*
X163672228Y-107605147D01*
X163799246Y-107298496D01*
X163864000Y-106972958D01*
X163864000Y-106641042D01*
X163799246Y-106315504D01*
X163672228Y-106008853D01*
X163487825Y-105732875D01*
X163253125Y-105498175D01*
X162977147Y-105313772D01*
X162670496Y-105186754D01*
X162344958Y-105122000D01*
X162013042Y-105122000D01*
X161687504Y-105186754D01*
X161380853Y-105313772D01*
X161104875Y-105498175D01*
X160870175Y-105732875D01*
X160685772Y-106008853D01*
X160558754Y-106315504D01*
X160494000Y-106641042D01*
X159228773Y-106641042D01*
X159217564Y-106589956D01*
X159040280Y-106054271D01*
X158840243Y-105952347D01*
X157699688Y-106322936D01*
X157705869Y-106341958D01*
X157464300Y-106420447D01*
X157458120Y-106401426D01*
X156317565Y-106772015D01*
X156215642Y-106972052D01*
X155921283Y-106972052D01*
X155490056Y-105645601D01*
X155832491Y-105645601D01*
X155834947Y-105770661D01*
X155861754Y-105892838D01*
X156039038Y-106428523D01*
X156239075Y-106530447D01*
X157379630Y-106159858D01*
X157009041Y-105019303D01*
X156854995Y-104940813D01*
X157250609Y-104940813D01*
X157621198Y-106081368D01*
X158761753Y-105710779D01*
X158863676Y-105510742D01*
X158692235Y-104973159D01*
X158642108Y-104858559D01*
X158570587Y-104755939D01*
X158480419Y-104669246D01*
X158375071Y-104601808D01*
X158258591Y-104556219D01*
X158135455Y-104534229D01*
X158010395Y-104536685D01*
X157888218Y-104563492D01*
X157352533Y-104740776D01*
X157250609Y-104940813D01*
X156854995Y-104940813D01*
X156809004Y-104917380D01*
X156271421Y-105088821D01*
X156156821Y-105138948D01*
X156054201Y-105210469D01*
X155967508Y-105300637D01*
X155900070Y-105405985D01*
X155854481Y-105522465D01*
X155832491Y-105645601D01*
X155490056Y-105645601D01*
X154255070Y-101846789D01*
X162229112Y-101846789D01*
X162229112Y-102139309D01*
X162286180Y-102426207D01*
X162398122Y-102696460D01*
X162560637Y-102939681D01*
X162767480Y-103146524D01*
X163010701Y-103309039D01*
X163280954Y-103420981D01*
X163567852Y-103478049D01*
X163860372Y-103478049D01*
X164147270Y-103420981D01*
X164417523Y-103309039D01*
X164660744Y-103146524D01*
X164867587Y-102939681D01*
X165030102Y-102696460D01*
X165142044Y-102426207D01*
X165199112Y-102139309D01*
X165199112Y-101846789D01*
X165142044Y-101559891D01*
X165030102Y-101289638D01*
X164867587Y-101046417D01*
X164844006Y-101022836D01*
X164932173Y-101005298D01*
X165202426Y-100893356D01*
X165445647Y-100730841D01*
X165652490Y-100523998D01*
X165815005Y-100280777D01*
X165926947Y-100010524D01*
X165984015Y-99723626D01*
X165984015Y-99431106D01*
X165926947Y-99144208D01*
X165815005Y-98873955D01*
X165810688Y-98867494D01*
X165879714Y-98868850D01*
X166002850Y-98846860D01*
X166119330Y-98801271D01*
X166224678Y-98733833D01*
X166314846Y-98647140D01*
X166386367Y-98544520D01*
X166436494Y-98429920D01*
X166607935Y-97892337D01*
X166506012Y-97692300D01*
X165365457Y-97321711D01*
X165359277Y-97340732D01*
X165117708Y-97262243D01*
X165123889Y-97243221D01*
X164621987Y-97080143D01*
X165443947Y-97080143D01*
X166584502Y-97450732D01*
X166784539Y-97348808D01*
X166961823Y-96813123D01*
X166988630Y-96690946D01*
X166991086Y-96565886D01*
X166969096Y-96442750D01*
X166923507Y-96326270D01*
X166856069Y-96220922D01*
X166769376Y-96130754D01*
X166666756Y-96059233D01*
X166552156Y-96009106D01*
X166014573Y-95837665D01*
X165814536Y-95939588D01*
X165443947Y-97080143D01*
X164621987Y-97080143D01*
X163983334Y-96872632D01*
X163783297Y-96974556D01*
X163606013Y-97510241D01*
X163579206Y-97632418D01*
X163576750Y-97757478D01*
X163598740Y-97880614D01*
X163644329Y-97997094D01*
X163711767Y-98102442D01*
X163798460Y-98192610D01*
X163859282Y-98235000D01*
X163795604Y-98261376D01*
X163552383Y-98423891D01*
X163345540Y-98630734D01*
X163183025Y-98873955D01*
X163071083Y-99144208D01*
X163014015Y-99431106D01*
X163014015Y-99723626D01*
X163071083Y-100010524D01*
X163183025Y-100280777D01*
X163345540Y-100523998D01*
X163369121Y-100547579D01*
X163280954Y-100565117D01*
X163010701Y-100677059D01*
X162767480Y-100839574D01*
X162560637Y-101046417D01*
X162398122Y-101289638D01*
X162286180Y-101559891D01*
X162229112Y-101846789D01*
X154255070Y-101846789D01*
X152494416Y-96431027D01*
X163959901Y-96431027D01*
X164061824Y-96631064D01*
X165202379Y-97001653D01*
X165572968Y-95861098D01*
X165471044Y-95661061D01*
X164935359Y-95483777D01*
X164813182Y-95456970D01*
X164688122Y-95454514D01*
X164564986Y-95476504D01*
X164448506Y-95522093D01*
X164343158Y-95589531D01*
X164252990Y-95676224D01*
X164181469Y-95778844D01*
X164131342Y-95893444D01*
X163959901Y-96431027D01*
X152494416Y-96431027D01*
X151251576Y-92608061D01*
X153270000Y-92608061D01*
X153270000Y-92811939D01*
X153309774Y-93011898D01*
X153387795Y-93200256D01*
X153501063Y-93369774D01*
X153645226Y-93513937D01*
X153814744Y-93627205D01*
X154003102Y-93705226D01*
X154203061Y-93745000D01*
X154406939Y-93745000D01*
X154606898Y-93705226D01*
X154795256Y-93627205D01*
X154964774Y-93513937D01*
X155108937Y-93369774D01*
X155222205Y-93200256D01*
X155300226Y-93011898D01*
X155340000Y-92811939D01*
X155340000Y-92608061D01*
X155330955Y-92562587D01*
X156818650Y-90411243D01*
X156895291Y-90395998D01*
X157083649Y-90317977D01*
X157253167Y-90204709D01*
X157397330Y-90060546D01*
X157510598Y-89891028D01*
X157588619Y-89702670D01*
X157628393Y-89502711D01*
X157628393Y-89298833D01*
X157588619Y-89098874D01*
X157510598Y-88910516D01*
X157397330Y-88740998D01*
X157253167Y-88596835D01*
X157083649Y-88483567D01*
X156895291Y-88405546D01*
X156695332Y-88365772D01*
X156491454Y-88365772D01*
X156291495Y-88405546D01*
X156103137Y-88483567D01*
X155933619Y-88596835D01*
X155789456Y-88740998D01*
X155676188Y-88910516D01*
X155598167Y-89098874D01*
X155558393Y-89298833D01*
X155558393Y-89502711D01*
X155567438Y-89548184D01*
X154079744Y-91699529D01*
X154003102Y-91714774D01*
X153814744Y-91792795D01*
X153645226Y-91906063D01*
X153501063Y-92050226D01*
X153387795Y-92219744D01*
X153309774Y-92408102D01*
X153270000Y-92608061D01*
X151251576Y-92608061D01*
X151094722Y-92125580D01*
X151081846Y-92076353D01*
X151056592Y-92024365D01*
X151033418Y-91971406D01*
X151025009Y-91959345D01*
X151018586Y-91946122D01*
X150983673Y-91900057D01*
X150950614Y-91852640D01*
X150940014Y-91842452D01*
X150931134Y-91830735D01*
X150887891Y-91792353D01*
X150846230Y-91752310D01*
X150803383Y-91724891D01*
X144144781Y-86893061D01*
X154794000Y-86893061D01*
X154794000Y-87096939D01*
X154833774Y-87296898D01*
X154911795Y-87485256D01*
X155025063Y-87654774D01*
X155169226Y-87798937D01*
X155338744Y-87912205D01*
X155527102Y-87990226D01*
X155727061Y-88030000D01*
X155930939Y-88030000D01*
X156130898Y-87990226D01*
X156319256Y-87912205D01*
X156488774Y-87798937D01*
X156507076Y-87780635D01*
X158527764Y-87855475D01*
X158598226Y-87925937D01*
X158767744Y-88039205D01*
X158956102Y-88117226D01*
X159156061Y-88157000D01*
X159359939Y-88157000D01*
X159559898Y-88117226D01*
X159748256Y-88039205D01*
X159917774Y-87925937D01*
X160061937Y-87781774D01*
X160175205Y-87612256D01*
X160253226Y-87423898D01*
X160293000Y-87223939D01*
X160293000Y-87020061D01*
X160253226Y-86820102D01*
X160175205Y-86631744D01*
X160061937Y-86462226D01*
X159917774Y-86318063D01*
X159748256Y-86204795D01*
X159559898Y-86126774D01*
X159359939Y-86087000D01*
X159156061Y-86087000D01*
X158956102Y-86126774D01*
X158767744Y-86204795D01*
X158598226Y-86318063D01*
X158579924Y-86336365D01*
X156559236Y-86261525D01*
X156488774Y-86191063D01*
X156319256Y-86077795D01*
X156130898Y-85999774D01*
X155930939Y-85960000D01*
X155727061Y-85960000D01*
X155527102Y-85999774D01*
X155338744Y-86077795D01*
X155169226Y-86191063D01*
X155025063Y-86335226D01*
X154911795Y-86504744D01*
X154833774Y-86693102D01*
X154794000Y-86893061D01*
X144144781Y-86893061D01*
X137937687Y-82388870D01*
X138683717Y-82388870D01*
X138718838Y-82610612D01*
X139173520Y-82944755D01*
X139281434Y-83008005D01*
X139399614Y-83048986D01*
X139523519Y-83066124D01*
X139648385Y-83058760D01*
X139769416Y-83027177D01*
X139881961Y-82972590D01*
X139981693Y-82897095D01*
X140064780Y-82803593D01*
X140393953Y-82345300D01*
X140358832Y-82123557D01*
X139388618Y-81418656D01*
X138683717Y-82388870D01*
X137937687Y-82388870D01*
X132039796Y-78109053D01*
X133765716Y-78109053D01*
X133765716Y-78401573D01*
X133822784Y-78688471D01*
X133934726Y-78958724D01*
X134097241Y-79201945D01*
X134304084Y-79408788D01*
X134547305Y-79571303D01*
X134817558Y-79683245D01*
X135104456Y-79740313D01*
X135396976Y-79740313D01*
X135683874Y-79683245D01*
X135820619Y-79626604D01*
X135820619Y-79894547D01*
X135877687Y-80181445D01*
X135989629Y-80451698D01*
X136152144Y-80694919D01*
X136358987Y-80901762D01*
X136602208Y-81064277D01*
X136872461Y-81176219D01*
X137159359Y-81233287D01*
X137451879Y-81233287D01*
X137577805Y-81208239D01*
X137552798Y-81280354D01*
X137535660Y-81404259D01*
X137543024Y-81529125D01*
X137574607Y-81650156D01*
X137629194Y-81762701D01*
X137704689Y-81862433D01*
X137798191Y-81945520D01*
X138256484Y-82274693D01*
X138478227Y-82239572D01*
X139183128Y-81269358D01*
X139166948Y-81257603D01*
X139199233Y-81213166D01*
X139537916Y-81213166D01*
X140508130Y-81918067D01*
X140729872Y-81882946D01*
X140921608Y-81622042D01*
X168114000Y-81622042D01*
X168114000Y-81953958D01*
X168178754Y-82279496D01*
X168305772Y-82586147D01*
X168490175Y-82862125D01*
X168724875Y-83096825D01*
X169000853Y-83281228D01*
X169307504Y-83408246D01*
X169633042Y-83473000D01*
X169964958Y-83473000D01*
X170290496Y-83408246D01*
X170597147Y-83281228D01*
X170873125Y-83096825D01*
X171107825Y-82862125D01*
X171292228Y-82586147D01*
X171419246Y-82279496D01*
X171484000Y-81953958D01*
X171484000Y-81622042D01*
X171419246Y-81296504D01*
X171292228Y-80989853D01*
X171107825Y-80713875D01*
X170873125Y-80479175D01*
X170597147Y-80294772D01*
X170290496Y-80167754D01*
X169964958Y-80103000D01*
X169633042Y-80103000D01*
X169307504Y-80167754D01*
X169000853Y-80294772D01*
X168724875Y-80479175D01*
X168490175Y-80713875D01*
X168305772Y-80989853D01*
X168178754Y-81296504D01*
X168114000Y-81622042D01*
X140921608Y-81622042D01*
X141064015Y-81428264D01*
X141127265Y-81320350D01*
X141168246Y-81202170D01*
X141185384Y-81078265D01*
X141178020Y-80953399D01*
X141146437Y-80832368D01*
X141091850Y-80719823D01*
X141016355Y-80620091D01*
X140922853Y-80537004D01*
X140464560Y-80207831D01*
X140242817Y-80242952D01*
X139537916Y-81213166D01*
X139199233Y-81213166D01*
X139316245Y-81052112D01*
X139332426Y-81063868D01*
X140037327Y-80093654D01*
X140002206Y-79871912D01*
X139547524Y-79537769D01*
X139439610Y-79474519D01*
X139321430Y-79433538D01*
X139197525Y-79416400D01*
X139072659Y-79423764D01*
X138951628Y-79455347D01*
X138839083Y-79509934D01*
X138781040Y-79553871D01*
X138733551Y-79315129D01*
X138621609Y-79044876D01*
X138459094Y-78801655D01*
X138252251Y-78594812D01*
X138009030Y-78432297D01*
X137738777Y-78320355D01*
X137451879Y-78263287D01*
X137159359Y-78263287D01*
X136872461Y-78320355D01*
X136735716Y-78376996D01*
X136735716Y-78109053D01*
X136678648Y-77822155D01*
X136566706Y-77551902D01*
X136404191Y-77308681D01*
X136197348Y-77101838D01*
X135954127Y-76939323D01*
X135683874Y-76827381D01*
X135396976Y-76770313D01*
X135104456Y-76770313D01*
X134817558Y-76827381D01*
X134547305Y-76939323D01*
X134304084Y-77101838D01*
X134097241Y-77308681D01*
X133934726Y-77551902D01*
X133822784Y-77822155D01*
X133765716Y-78109053D01*
X132039796Y-78109053D01*
X129880344Y-76542042D01*
X138777000Y-76542042D01*
X138777000Y-76873958D01*
X138841754Y-77199496D01*
X138968772Y-77506147D01*
X139153175Y-77782125D01*
X139387875Y-78016825D01*
X139663853Y-78201228D01*
X139970504Y-78328246D01*
X140296042Y-78393000D01*
X140627958Y-78393000D01*
X140759547Y-78366825D01*
X168208000Y-78366825D01*
X168208000Y-78605175D01*
X168254499Y-78838944D01*
X168345712Y-79059150D01*
X168478131Y-79257330D01*
X168646670Y-79425869D01*
X168844850Y-79558288D01*
X169065056Y-79649501D01*
X169298825Y-79696000D01*
X169537175Y-79696000D01*
X169770944Y-79649501D01*
X169991150Y-79558288D01*
X170189330Y-79425869D01*
X170357869Y-79257330D01*
X170490288Y-79059150D01*
X170581501Y-78838944D01*
X170628000Y-78605175D01*
X170628000Y-78366825D01*
X170581501Y-78133056D01*
X170490288Y-77912850D01*
X170357869Y-77714670D01*
X170189330Y-77546131D01*
X169991150Y-77413712D01*
X169770944Y-77322499D01*
X169537175Y-77276000D01*
X169298825Y-77276000D01*
X169065056Y-77322499D01*
X168844850Y-77413712D01*
X168646670Y-77546131D01*
X168478131Y-77714670D01*
X168345712Y-77912850D01*
X168254499Y-78133056D01*
X168208000Y-78366825D01*
X140759547Y-78366825D01*
X140953496Y-78328246D01*
X141260147Y-78201228D01*
X141536125Y-78016825D01*
X141770825Y-77782125D01*
X141955228Y-77506147D01*
X142082246Y-77199496D01*
X142147000Y-76873958D01*
X142147000Y-76542042D01*
X142145218Y-76533080D01*
X143825085Y-76533080D01*
X143825085Y-76825600D01*
X143882153Y-77112498D01*
X143994095Y-77382751D01*
X144156610Y-77625972D01*
X144363453Y-77832815D01*
X144606674Y-77995330D01*
X144876927Y-78107272D01*
X145163825Y-78164340D01*
X145456345Y-78164340D01*
X145743243Y-78107272D01*
X146013496Y-77995330D01*
X146256717Y-77832815D01*
X146463560Y-77625972D01*
X146580085Y-77451580D01*
X146696610Y-77625972D01*
X146903453Y-77832815D01*
X147146674Y-77995330D01*
X147416927Y-78107272D01*
X147703825Y-78164340D01*
X147996345Y-78164340D01*
X148283243Y-78107272D01*
X148553496Y-77995330D01*
X148796717Y-77832815D01*
X148928572Y-77700960D01*
X148950583Y-77773520D01*
X149009548Y-77883834D01*
X149088900Y-77980525D01*
X149185591Y-78059877D01*
X149295905Y-78118842D01*
X149415603Y-78155152D01*
X149540085Y-78167412D01*
X150104335Y-78164340D01*
X150263085Y-78005590D01*
X150263085Y-76806340D01*
X150517085Y-76806340D01*
X150517085Y-78005590D01*
X150675835Y-78164340D01*
X151240085Y-78167412D01*
X151364567Y-78155152D01*
X151484265Y-78118842D01*
X151594579Y-78059877D01*
X151691270Y-77980525D01*
X151770622Y-77883834D01*
X151829587Y-77773520D01*
X151865897Y-77653822D01*
X151878157Y-77529340D01*
X151875085Y-76965090D01*
X151716335Y-76806340D01*
X150517085Y-76806340D01*
X150263085Y-76806340D01*
X150243085Y-76806340D01*
X150243085Y-76552340D01*
X150263085Y-76552340D01*
X150263085Y-75353090D01*
X150517085Y-75353090D01*
X150517085Y-76552340D01*
X151716335Y-76552340D01*
X151875085Y-76393590D01*
X151878157Y-75829340D01*
X151865897Y-75704858D01*
X151829587Y-75585160D01*
X151770622Y-75474846D01*
X151691270Y-75378155D01*
X151594579Y-75298803D01*
X151484265Y-75239838D01*
X151364567Y-75203528D01*
X151240085Y-75191268D01*
X150675835Y-75194340D01*
X150517085Y-75353090D01*
X150263085Y-75353090D01*
X150104335Y-75194340D01*
X149540085Y-75191268D01*
X149415603Y-75203528D01*
X149295905Y-75239838D01*
X149185591Y-75298803D01*
X149088900Y-75378155D01*
X149009548Y-75474846D01*
X148950583Y-75585160D01*
X148928572Y-75657720D01*
X148796717Y-75525865D01*
X148553496Y-75363350D01*
X148283243Y-75251408D01*
X147996345Y-75194340D01*
X147703825Y-75194340D01*
X147416927Y-75251408D01*
X147146674Y-75363350D01*
X146903453Y-75525865D01*
X146696610Y-75732708D01*
X146580085Y-75907100D01*
X146463560Y-75732708D01*
X146256717Y-75525865D01*
X146013496Y-75363350D01*
X145743243Y-75251408D01*
X145456345Y-75194340D01*
X145163825Y-75194340D01*
X144876927Y-75251408D01*
X144606674Y-75363350D01*
X144363453Y-75525865D01*
X144156610Y-75732708D01*
X143994095Y-75975929D01*
X143882153Y-76246182D01*
X143825085Y-76533080D01*
X142145218Y-76533080D01*
X142082246Y-76216504D01*
X141955228Y-75909853D01*
X141770825Y-75633875D01*
X141536125Y-75399175D01*
X141260147Y-75214772D01*
X140953496Y-75087754D01*
X140627958Y-75023000D01*
X140296042Y-75023000D01*
X139970504Y-75087754D01*
X139663853Y-75214772D01*
X139387875Y-75399175D01*
X139153175Y-75633875D01*
X138968772Y-75909853D01*
X138841754Y-76216504D01*
X138777000Y-76542042D01*
X129880344Y-76542042D01*
X127655886Y-74927860D01*
X174375016Y-74903527D01*
X159935449Y-119319606D01*
G37*
%TD.AperFunction*%
%TD*%
M02*
