M48
; DRILL file {KiCad 5.1.8} date Fri Jan 22 11:52:37 2021
; FORMAT={-:-/ absolute / inch / decimal}
; #@! TF.CreationDate,2021-01-22T11:52:37-05:00
; #@! TF.GenerationSoftware,Kicad,Pcbnew,5.1.8
; #@! TF.FileFunction,Plated,1,2,PTH
FMAT,2
INCH
T1C0.0157
T2C0.0394
%
G90
G05
T1
X5.646Y-3.285
X5.739Y-3.42
X6.0404Y-3.6546
X6.092Y-3.939
X6.101Y-3.771
X6.135Y-3.425
X6.1419Y-3.5744
X6.1836Y-3.0746
X6.27Y-3.43
X6.345Y-3.13
X6.56Y-3.55
X6.66Y-3.43
T2
X5.7209Y-3.0189
X5.8209Y-3.0189
X5.9209Y-3.0189
X6.4454Y-4.0155
X6.4763Y-3.9204
X6.5072Y-3.8253
X6.2023Y-4.1827
X6.2333Y-4.2778
X6.2642Y-4.3729
X5.3248Y-3.0809
X5.4057Y-3.1397
X5.4866Y-3.1985
T0
M30
