%TF.GenerationSoftware,KiCad,Pcbnew,5.1.9*%
%TF.CreationDate,2021-01-25T14:04:14-05:00*%
%TF.ProjectId,penrosedart,70656e72-6f73-4656-9461-72742e6b6963,rev?*%
%TF.SameCoordinates,Original*%
%TF.FileFunction,Paste,Top*%
%TF.FilePolarity,Positive*%
%FSLAX46Y46*%
G04 Gerber Fmt 4.6, Leading zero omitted, Abs format (unit mm)*
G04 Created by KiCad (PCBNEW 5.1.9) date 2021-01-25 14:04:14*
%MOMM*%
%LPD*%
G01*
G04 APERTURE LIST*
%ADD10C,0.100000*%
%ADD11R,1.500000X1.000000*%
G04 APERTURE END LIST*
%TO.C,C1*%
G36*
G01*
X143295187Y-81652340D02*
X142526620Y-81093944D01*
G75*
G02*
X142471312Y-80744744I146946J202254D01*
G01*
X142868067Y-80198658D01*
G75*
G02*
X143217267Y-80143350I202254J-146946D01*
G01*
X143985834Y-80701746D01*
G75*
G02*
X144041142Y-81050946I-146946J-202254D01*
G01*
X143644387Y-81597032D01*
G75*
G02*
X143295187Y-81652340I-202254J146946D01*
G01*
G37*
G36*
G01*
X142075533Y-83331050D02*
X141306966Y-82772654D01*
G75*
G02*
X141251658Y-82423454I146946J202254D01*
G01*
X141648413Y-81877368D01*
G75*
G02*
X141997613Y-81822060I202254J-146946D01*
G01*
X142766180Y-82380456D01*
G75*
G02*
X142821488Y-82729656I-146946J-202254D01*
G01*
X142424733Y-83275742D01*
G75*
G02*
X142075533Y-83331050I-202254J146946D01*
G01*
G37*
%TD*%
%TO.C,C2*%
G36*
G01*
X166817650Y-91414200D02*
X166524084Y-92317704D01*
G75*
G02*
X166209066Y-92478214I-237764J77254D01*
G01*
X165567102Y-92269628D01*
G75*
G02*
X165406592Y-91954610I77254J237764D01*
G01*
X165700158Y-91051106D01*
G75*
G02*
X166015176Y-90890596I237764J-77254D01*
G01*
X166657140Y-91099182D01*
G75*
G02*
X166817650Y-91414200I-77254J-237764D01*
G01*
G37*
G36*
G01*
X164844208Y-90772990D02*
X164550642Y-91676494D01*
G75*
G02*
X164235624Y-91837004I-237764J77254D01*
G01*
X163593660Y-91628418D01*
G75*
G02*
X163433150Y-91313400I77254J237764D01*
G01*
X163726716Y-90409896D01*
G75*
G02*
X164041734Y-90249386I237764J-77254D01*
G01*
X164683698Y-90457972D01*
G75*
G02*
X164844208Y-90772990I-77254J-237764D01*
G01*
G37*
%TD*%
%TO.C,C3*%
G36*
G01*
X155870358Y-94267294D02*
X155576792Y-93363790D01*
G75*
G02*
X155737302Y-93048772I237764J77254D01*
G01*
X156379266Y-92840186D01*
G75*
G02*
X156694284Y-93000696I77254J-237764D01*
G01*
X156987850Y-93904200D01*
G75*
G02*
X156827340Y-94219218I-237764J-77254D01*
G01*
X156185376Y-94427804D01*
G75*
G02*
X155870358Y-94267294I-77254J237764D01*
G01*
G37*
G36*
G01*
X153896916Y-94908504D02*
X153603350Y-94005000D01*
G75*
G02*
X153763860Y-93689982I237764J77254D01*
G01*
X154405824Y-93481396D01*
G75*
G02*
X154720842Y-93641906I77254J-237764D01*
G01*
X155014408Y-94545410D01*
G75*
G02*
X154853898Y-94860428I-237764J-77254D01*
G01*
X154211934Y-95069014D01*
G75*
G02*
X153896916Y-94908504I-77254J237764D01*
G01*
G37*
%TD*%
%TO.C,C4*%
G36*
G01*
X155923000Y-78968000D02*
X154973000Y-78968000D01*
G75*
G02*
X154723000Y-78718000I0J250000D01*
G01*
X154723000Y-78043000D01*
G75*
G02*
X154973000Y-77793000I250000J0D01*
G01*
X155923000Y-77793000D01*
G75*
G02*
X156173000Y-78043000I0J-250000D01*
G01*
X156173000Y-78718000D01*
G75*
G02*
X155923000Y-78968000I-250000J0D01*
G01*
G37*
G36*
G01*
X155923000Y-76893000D02*
X154973000Y-76893000D01*
G75*
G02*
X154723000Y-76643000I0J250000D01*
G01*
X154723000Y-75968000D01*
G75*
G02*
X154973000Y-75718000I250000J0D01*
G01*
X155923000Y-75718000D01*
G75*
G02*
X156173000Y-75968000I0J-250000D01*
G01*
X156173000Y-76643000D01*
G75*
G02*
X155923000Y-76893000I-250000J0D01*
G01*
G37*
%TD*%
D10*
%TO.C,D1*%
G36*
X147949478Y-87799901D02*
G01*
X147361693Y-88608918D01*
X146148168Y-87727241D01*
X146735953Y-86918224D01*
X147949478Y-87799901D01*
G37*
G36*
X149830391Y-85211047D02*
G01*
X149242606Y-86020064D01*
X148029081Y-85138387D01*
X148616866Y-84329370D01*
X149830391Y-85211047D01*
G37*
G36*
X143985295Y-84919753D02*
G01*
X143397510Y-85728770D01*
X142183985Y-84847093D01*
X142771770Y-84038076D01*
X143985295Y-84919753D01*
G37*
G36*
X145866208Y-82330899D02*
G01*
X145278423Y-83139916D01*
X144064898Y-82258239D01*
X144652683Y-81449222D01*
X145866208Y-82330899D01*
G37*
%TD*%
%TO.C,D2*%
G36*
X164768742Y-88306785D02*
G01*
X165719799Y-88615802D01*
X165256274Y-90042387D01*
X164305217Y-89733370D01*
X164768742Y-88306785D01*
G37*
G36*
X167812123Y-89295640D02*
G01*
X168763180Y-89604657D01*
X168299655Y-91031242D01*
X167348598Y-90722225D01*
X167812123Y-89295640D01*
G37*
G36*
X166282925Y-83646608D02*
G01*
X167233982Y-83955625D01*
X166770457Y-85382210D01*
X165819400Y-85073193D01*
X166282925Y-83646608D01*
G37*
G36*
X169326306Y-84635463D02*
G01*
X170277363Y-84944480D01*
X169813838Y-86371065D01*
X168862781Y-86062048D01*
X169326306Y-84635463D01*
G37*
%TD*%
%TO.C,D3*%
G36*
X157461615Y-96482885D02*
G01*
X156510558Y-96791902D01*
X156047033Y-95365317D01*
X156998090Y-95056300D01*
X157461615Y-96482885D01*
G37*
G36*
X154418234Y-97471740D02*
G01*
X153467177Y-97780757D01*
X153003652Y-96354172D01*
X153954709Y-96045155D01*
X154418234Y-97471740D01*
G37*
G36*
X158975798Y-101143062D02*
G01*
X158024741Y-101452079D01*
X157561216Y-100025494D01*
X158512273Y-99716477D01*
X158975798Y-101143062D01*
G37*
G36*
X155932417Y-102131917D02*
G01*
X154981360Y-102440934D01*
X154517835Y-101014349D01*
X155468892Y-100705332D01*
X155932417Y-102131917D01*
G37*
%TD*%
D11*
%TO.C,D4*%
X162800826Y-79406432D03*
X162800826Y-76206432D03*
X157900826Y-79406432D03*
X157900826Y-76206432D03*
%TD*%
D10*
%TO.C,SW1*%
G36*
X157458999Y-82647554D02*
G01*
X158348918Y-82000991D01*
X159495099Y-83578574D01*
X158605180Y-84225137D01*
X157458999Y-82647554D01*
G37*
G36*
X155436457Y-84117017D02*
G01*
X156326376Y-83470454D01*
X157472557Y-85048037D01*
X156582638Y-85694600D01*
X155436457Y-84117017D01*
G37*
G36*
X153413914Y-85586480D02*
G01*
X154303833Y-84939917D01*
X155450014Y-86517500D01*
X154560095Y-87164063D01*
X153413914Y-85586480D01*
G37*
G36*
X160779986Y-87218500D02*
G01*
X161669905Y-86571937D01*
X162816086Y-88149520D01*
X161926167Y-88796083D01*
X160779986Y-87218500D01*
G37*
G36*
X158757443Y-88687963D02*
G01*
X159647362Y-88041400D01*
X160793543Y-89618983D01*
X159903624Y-90265546D01*
X158757443Y-88687963D01*
G37*
G36*
X156734901Y-90157426D02*
G01*
X157624820Y-89510863D01*
X158771001Y-91088446D01*
X157881082Y-91735009D01*
X156734901Y-90157426D01*
G37*
%TD*%
M02*
