%TF.GenerationSoftware,KiCad,Pcbnew,5.1.9*%
%TF.CreationDate,2021-01-26T18:39:52-05:00*%
%TF.ProjectId,penrosedart,70656e72-6f73-4656-9461-72742e6b6963,rev?*%
%TF.SameCoordinates,Original*%
%TF.FileFunction,Legend,Top*%
%TF.FilePolarity,Positive*%
%FSLAX46Y46*%
G04 Gerber Fmt 4.6, Leading zero omitted, Abs format (unit mm)*
G04 Created by KiCad (PCBNEW 5.1.9) date 2021-01-26 18:39:52*
%MOMM*%
%LPD*%
G01*
G04 APERTURE LIST*
%ADD10C,0.150000*%
%ADD11C,0.375000*%
%ADD12C,0.250000*%
%ADD13C,0.120000*%
%ADD14C,0.200000*%
%ADD15C,3.200000*%
%ADD16C,0.100000*%
%ADD17C,1.150000*%
%ADD18R,1.500000X1.000000*%
%ADD19O,1.700000X1.700000*%
%ADD20R,1.700000X1.700000*%
G04 APERTURE END LIST*
D10*
X162357490Y-100639194D02*
X161406434Y-100330177D01*
X162312202Y-100624479D02*
X162328060Y-100729771D01*
X162269200Y-100910925D01*
X162194481Y-100986786D01*
X162134478Y-101017360D01*
X162029186Y-101033218D01*
X161757455Y-100944927D01*
X161681594Y-100870209D01*
X161651020Y-100810205D01*
X161635162Y-100704913D01*
X161694022Y-100523760D01*
X161768741Y-100447898D01*
X162637077Y-99778715D02*
X162138905Y-99616849D01*
X162033613Y-99632707D01*
X161958894Y-99708569D01*
X161900034Y-99889722D01*
X161915892Y-99995014D01*
X162591789Y-99764000D02*
X162607647Y-99869291D01*
X162534071Y-100095733D01*
X162459353Y-100171595D01*
X162354061Y-100187453D01*
X162263484Y-100158023D01*
X162187622Y-100083305D01*
X162171764Y-99978013D01*
X162245340Y-99751571D01*
X162229481Y-99646279D01*
X162106045Y-99255684D02*
X162223766Y-98893377D01*
X161833172Y-99016814D02*
X162648363Y-99281685D01*
X162753655Y-99265827D01*
X162828373Y-99189965D01*
X162857803Y-99099389D01*
X163093245Y-98374774D02*
X162595073Y-98212908D01*
X162489781Y-98228766D01*
X162415062Y-98304628D01*
X162356202Y-98485782D01*
X162372060Y-98591073D01*
X163047957Y-98360059D02*
X163063815Y-98465351D01*
X162990239Y-98691793D01*
X162915521Y-98767655D01*
X162810229Y-98783513D01*
X162719652Y-98754083D01*
X162643790Y-98679364D01*
X162627932Y-98574072D01*
X162701508Y-98347630D01*
X162685649Y-98242338D01*
X163475837Y-97197276D02*
X162841800Y-96991264D01*
X162524781Y-96888259D02*
X162555354Y-96948262D01*
X162615358Y-96917689D01*
X162584784Y-96857685D01*
X162524781Y-96888259D01*
X162615358Y-96917689D01*
X162988951Y-96538380D02*
X163622988Y-96744391D01*
X163079528Y-96567810D02*
X163048954Y-96507807D01*
X163033096Y-96402515D01*
X163077241Y-96266650D01*
X163151960Y-96190788D01*
X163257252Y-96174930D01*
X163755424Y-96336796D01*
X137142538Y-77242023D02*
X137730323Y-76433006D01*
X137170528Y-77203498D02*
X137065489Y-77186044D01*
X136911390Y-77074084D01*
X136862331Y-76979580D01*
X136851796Y-76913066D01*
X136869251Y-76808027D01*
X137037190Y-76576879D01*
X137131694Y-76527820D01*
X137198208Y-76517285D01*
X137303247Y-76534740D01*
X137457346Y-76646699D01*
X137506405Y-76741203D01*
X137874506Y-77773829D02*
X138182393Y-77350058D01*
X138199848Y-77245019D01*
X138150789Y-77150515D01*
X137996690Y-77038556D01*
X137891651Y-77021101D01*
X137902496Y-77735304D02*
X137797457Y-77717849D01*
X137604833Y-77577900D01*
X137555774Y-77483396D01*
X137573229Y-77378357D01*
X137629208Y-77301308D01*
X137723713Y-77252249D01*
X137828752Y-77269703D01*
X138021375Y-77409652D01*
X138126414Y-77427107D01*
X138536035Y-77430413D02*
X138844232Y-77654331D01*
X138847537Y-77244710D02*
X138343721Y-77938153D01*
X138326266Y-78043192D01*
X138375326Y-78137696D01*
X138452375Y-78193675D01*
X139068769Y-78641512D02*
X139376656Y-78217741D01*
X139394111Y-78112702D01*
X139345052Y-78018198D01*
X139190953Y-77906239D01*
X139085914Y-77888784D01*
X139096759Y-78602987D02*
X138991720Y-78585532D01*
X138799097Y-78445583D01*
X138750037Y-78351079D01*
X138767492Y-78246040D01*
X138823472Y-78168991D01*
X138917976Y-78119931D01*
X139023015Y-78137386D01*
X139215638Y-78277335D01*
X139320677Y-78294790D01*
X140070409Y-79369246D02*
X140462266Y-78829901D01*
X140658194Y-78560229D02*
X140591680Y-78570764D01*
X140602215Y-78637278D01*
X140668729Y-78626743D01*
X140658194Y-78560229D01*
X140602215Y-78637278D01*
X140847512Y-79109799D02*
X140455655Y-79649144D01*
X140791533Y-79186848D02*
X140858047Y-79176313D01*
X140963086Y-79193768D01*
X141078660Y-79277738D01*
X141127719Y-79372242D01*
X141110264Y-79477281D01*
X140802377Y-79901052D01*
X150375619Y-78414619D02*
X150375619Y-79414619D01*
X150375619Y-78462238D02*
X150470857Y-78414619D01*
X150661333Y-78414619D01*
X150756571Y-78462238D01*
X150804190Y-78509857D01*
X150851809Y-78605095D01*
X150851809Y-78890809D01*
X150804190Y-78986047D01*
X150756571Y-79033666D01*
X150661333Y-79081285D01*
X150470857Y-79081285D01*
X150375619Y-79033666D01*
X149470857Y-78414619D02*
X149470857Y-78938428D01*
X149518476Y-79033666D01*
X149613714Y-79081285D01*
X149804190Y-79081285D01*
X149899428Y-79033666D01*
X149470857Y-78462238D02*
X149566095Y-78414619D01*
X149804190Y-78414619D01*
X149899428Y-78462238D01*
X149947047Y-78557476D01*
X149947047Y-78652714D01*
X149899428Y-78747952D01*
X149804190Y-78795571D01*
X149566095Y-78795571D01*
X149470857Y-78843190D01*
X149137523Y-79081285D02*
X148756571Y-79081285D01*
X148994666Y-79414619D02*
X148994666Y-78557476D01*
X148947047Y-78462238D01*
X148851809Y-78414619D01*
X148756571Y-78414619D01*
X147994666Y-78414619D02*
X147994666Y-78938428D01*
X148042285Y-79033666D01*
X148137523Y-79081285D01*
X148328000Y-79081285D01*
X148423238Y-79033666D01*
X147994666Y-78462238D02*
X148089904Y-78414619D01*
X148328000Y-78414619D01*
X148423238Y-78462238D01*
X148470857Y-78557476D01*
X148470857Y-78652714D01*
X148423238Y-78747952D01*
X148328000Y-78795571D01*
X148089904Y-78795571D01*
X147994666Y-78843190D01*
X146613714Y-78414619D02*
X146708952Y-78462238D01*
X146756571Y-78509857D01*
X146804190Y-78605095D01*
X146804190Y-78890809D01*
X146756571Y-78986047D01*
X146708952Y-79033666D01*
X146613714Y-79081285D01*
X146470857Y-79081285D01*
X146375619Y-79033666D01*
X146328000Y-78986047D01*
X146280380Y-78890809D01*
X146280380Y-78605095D01*
X146328000Y-78509857D01*
X146375619Y-78462238D01*
X146470857Y-78414619D01*
X146613714Y-78414619D01*
X145423238Y-79081285D02*
X145423238Y-78414619D01*
X145851809Y-79081285D02*
X145851809Y-78557476D01*
X145804190Y-78462238D01*
X145708952Y-78414619D01*
X145566095Y-78414619D01*
X145470857Y-78462238D01*
X145423238Y-78509857D01*
X145089904Y-79081285D02*
X144708952Y-79081285D01*
X144947047Y-79414619D02*
X144947047Y-78557476D01*
X144899428Y-78462238D01*
X144804190Y-78414619D01*
X144708952Y-78414619D01*
X159208902Y-106047863D02*
X160159959Y-105738846D01*
X159254190Y-106033148D02*
X159179472Y-105957286D01*
X159120611Y-105776133D01*
X159136470Y-105670841D01*
X159167043Y-105610837D01*
X159242905Y-105536119D01*
X159514635Y-105447828D01*
X159619927Y-105463686D01*
X159679931Y-105494260D01*
X159754649Y-105570121D01*
X159813510Y-105751275D01*
X159797651Y-105856567D01*
X159488489Y-106908343D02*
X159986661Y-106746477D01*
X160062523Y-106671758D01*
X160078381Y-106566466D01*
X160019521Y-106385313D01*
X159944802Y-106309451D01*
X159533777Y-106893628D02*
X159459059Y-106817766D01*
X159385483Y-106591324D01*
X159401341Y-106486032D01*
X159477203Y-106411314D01*
X159567780Y-106381883D01*
X159673072Y-106397742D01*
X159747790Y-106473603D01*
X159821366Y-106700045D01*
X159896085Y-106775907D01*
X160225532Y-107019350D02*
X160343253Y-107381658D01*
X160586696Y-107052210D02*
X159771505Y-107317082D01*
X159695643Y-107391800D01*
X159679785Y-107497092D01*
X159709215Y-107587669D01*
X159944657Y-108312283D02*
X160442829Y-108150417D01*
X160518691Y-108075699D01*
X160534549Y-107970407D01*
X160475689Y-107789253D01*
X160400970Y-107713392D01*
X159989945Y-108297568D02*
X159915227Y-108221707D01*
X159841651Y-107995265D01*
X159857509Y-107889973D01*
X159933371Y-107815254D01*
X160023948Y-107785824D01*
X160129240Y-107801682D01*
X160203958Y-107877544D01*
X160277534Y-108103986D01*
X160352252Y-108179848D01*
X160371395Y-109625647D02*
X160387253Y-109520355D01*
X160417826Y-109460352D01*
X160493688Y-109385633D01*
X160765418Y-109297343D01*
X160870710Y-109313201D01*
X160930714Y-109343774D01*
X161005432Y-109419636D01*
X161049578Y-109555501D01*
X161033719Y-109660793D01*
X161003146Y-109720797D01*
X160927284Y-109795515D01*
X160655554Y-109883806D01*
X160550262Y-109867947D01*
X160490258Y-109837374D01*
X160415540Y-109761512D01*
X160371395Y-109625647D01*
X161373310Y-110551846D02*
X160739272Y-110757857D01*
X161240874Y-110144250D02*
X160742701Y-110306116D01*
X160666840Y-110380835D01*
X160650981Y-110486127D01*
X160695127Y-110621992D01*
X160769845Y-110697854D01*
X160829849Y-110728427D01*
X161476315Y-110868865D02*
X161594036Y-111231172D01*
X161837479Y-110901724D02*
X161022288Y-111166596D01*
X160946426Y-111241315D01*
X160930568Y-111346607D01*
X160959998Y-111437183D01*
D11*
X160724108Y-114504652D02*
X159637186Y-114857814D01*
X159562613Y-112779120D02*
X160180647Y-114681233D01*
X132730174Y-77009774D02*
X133289970Y-76239282D01*
X133080510Y-77499750D02*
X131854333Y-75784835D01*
X133864224Y-76421061D01*
X163657810Y-105640390D02*
X163809533Y-105789827D01*
X164081264Y-105878118D01*
X164382425Y-105875831D01*
X164622439Y-105753538D01*
X164771876Y-105601815D01*
X164980173Y-105268938D01*
X165068464Y-104997207D01*
X165095608Y-104605470D01*
X165063891Y-104394886D01*
X164941598Y-104154872D01*
X164699298Y-103976005D01*
X164518144Y-103917144D01*
X164216984Y-103919431D01*
X164096977Y-103980577D01*
X163890965Y-104614615D01*
X164253273Y-104732336D01*
X143513085Y-74564952D02*
X143608323Y-74660190D01*
X143703561Y-74945904D01*
X143703561Y-75136380D01*
X143608323Y-75422095D01*
X143417847Y-75612571D01*
X143227371Y-75707809D01*
X142846419Y-75803047D01*
X142560704Y-75803047D01*
X142179752Y-75707809D01*
X141989276Y-75612571D01*
X141798800Y-75422095D01*
X141703561Y-75136380D01*
X141703561Y-74945904D01*
X141798800Y-74660190D01*
X141894038Y-74564952D01*
D12*
X169437020Y-92264968D02*
G75*
G02*
X156337000Y-74168000I5949980J18096968D01*
G01*
X140819304Y-85452239D02*
G75*
G02*
X154050999Y-103504999I9548696J-6876761D01*
G01*
D13*
%TO.C,J1*%
X139114825Y-79418782D02*
X137551316Y-81570767D01*
X139114825Y-79418782D02*
X134956477Y-76397566D01*
X134956477Y-76397566D02*
X133392969Y-78549551D01*
X137551316Y-81570767D02*
X133392969Y-78549551D01*
X139654760Y-83099009D02*
X138578768Y-82317255D01*
X140436515Y-82023016D02*
X139654760Y-83099009D01*
%TO.C,C1*%
X141898212Y-81516535D02*
X142205333Y-81093821D01*
X143087467Y-82380579D02*
X143394588Y-81957865D01*
%TO.C,C2*%
X165600993Y-90745505D02*
X165104062Y-90584042D01*
X165146738Y-92143558D02*
X164649807Y-91982095D01*
%TO.C,C3*%
X154820007Y-93336305D02*
X155316938Y-93174842D01*
X155274262Y-94734358D02*
X155771193Y-94572895D01*
%TO.C,C4*%
X156183000Y-77604252D02*
X156183000Y-77081748D01*
X154713000Y-77604252D02*
X154713000Y-77081748D01*
%TO.C,D1*%
X147343691Y-89399283D02*
X141437867Y-85108451D01*
X150576509Y-84949689D02*
X144670685Y-80658857D01*
X144670685Y-80658857D02*
X143994732Y-81589227D01*
%TO.C,D2*%
X163547973Y-89960485D02*
X164641688Y-90315854D01*
X165803797Y-83017772D02*
X163547973Y-89960485D01*
X171034607Y-84717365D02*
X168778783Y-91660078D01*
%TO.C,D3*%
X157477218Y-94427464D02*
X156383503Y-94782834D01*
X159733042Y-101370177D02*
X157477218Y-94427464D01*
X154502232Y-103069770D02*
X152246408Y-96127057D01*
%TO.C,D4*%
X164000826Y-80556432D02*
X156700826Y-80556432D01*
X164000826Y-75056432D02*
X156700826Y-75056432D01*
X156700826Y-75056432D02*
X156700826Y-76206432D01*
%TO.C,J2*%
X165694911Y-95896777D02*
X166959816Y-96307769D01*
X166959816Y-96307769D02*
X166548823Y-97572675D01*
X166156372Y-98780516D02*
X164568024Y-103668947D01*
X162038214Y-102846962D02*
X164568024Y-103668947D01*
X163626561Y-97958531D02*
X162038214Y-102846962D01*
X163626561Y-97958531D02*
X166156372Y-98780516D01*
%TO.C,J3*%
X157128666Y-104976492D02*
X158393572Y-104565499D01*
X158393572Y-104565499D02*
X158804564Y-105830404D01*
X159197016Y-107038246D02*
X160785363Y-111926677D01*
X158255553Y-112748662D02*
X160785363Y-111926677D01*
X156667205Y-107860231D02*
X158255553Y-112748662D01*
X156667205Y-107860231D02*
X159197016Y-107038246D01*
%TO.C,J4*%
X149120085Y-75349340D02*
X149120085Y-78009340D01*
X149120085Y-75349340D02*
X143980085Y-75349340D01*
X143980085Y-75349340D02*
X143980085Y-78009340D01*
X149120085Y-78009340D02*
X143980085Y-78009340D01*
X151720085Y-78009340D02*
X150390085Y-78009340D01*
X151720085Y-76679340D02*
X151720085Y-78009340D01*
%TO.C,JP1*%
X161072878Y-89941637D02*
X160653837Y-89875268D01*
X161139248Y-89522597D02*
X160653837Y-89875268D01*
X161072878Y-89941637D02*
X161139248Y-89522597D01*
X162289549Y-90170135D02*
X162642220Y-90655545D01*
X159086991Y-91631682D02*
X161352239Y-89985884D01*
X159325251Y-93065465D02*
X158972580Y-92580055D01*
X162527809Y-91603918D02*
X160262561Y-93249716D01*
X162642221Y-90655546D02*
G75*
G02*
X162487358Y-91633307I-566312J-411449D01*
G01*
X161311787Y-90015273D02*
G75*
G02*
X162289549Y-90170135I411450J-566312D01*
G01*
X158972579Y-92580054D02*
G75*
G02*
X159127442Y-91602293I566312J411449D01*
G01*
X160303013Y-93220327D02*
G75*
G02*
X159325251Y-93065465I-411450J566312D01*
G01*
%TO.C,JP2*%
X155390409Y-82790118D02*
X153125161Y-84435916D01*
X152187851Y-84251665D02*
X151835180Y-83766255D01*
X151949591Y-82817882D02*
X154214839Y-81172084D01*
X155152149Y-81356335D02*
X155504820Y-81841745D01*
X153935478Y-81127837D02*
X154001848Y-80708797D01*
X154001848Y-80708797D02*
X153516437Y-81061468D01*
X153935478Y-81127837D02*
X153516437Y-81061468D01*
X153165613Y-84406527D02*
G75*
G02*
X152187851Y-84251665I-411450J566312D01*
G01*
X151835179Y-83766254D02*
G75*
G02*
X151990042Y-82788493I566312J411449D01*
G01*
X154174387Y-81201473D02*
G75*
G02*
X155152149Y-81356335I411450J-566312D01*
G01*
X155504821Y-81841746D02*
G75*
G02*
X155349958Y-82819507I-566312J-411449D01*
G01*
%TO.C,SW1*%
X160377752Y-82751879D02*
X160782260Y-82457986D01*
X160782260Y-82457986D02*
X161076153Y-82862495D01*
X161076153Y-82862495D02*
X163133401Y-85694054D01*
X163133401Y-85694054D02*
X162931147Y-85841000D01*
X153501107Y-87748053D02*
X153096599Y-88041946D01*
X153096599Y-88041946D02*
X155447740Y-91278014D01*
X155447740Y-91278014D02*
X155852248Y-90984121D01*
D14*
X159870098Y-82170710D02*
G75*
G03*
X159870098Y-82170710I-223607J0D01*
G01*
%TO.C,M3*%
D10*
X154384476Y-91663780D02*
X154384476Y-90663780D01*
X154717809Y-91378066D01*
X155051142Y-90663780D01*
X155051142Y-91663780D01*
X155432095Y-90663780D02*
X156051142Y-90663780D01*
X155717809Y-91044733D01*
X155860666Y-91044733D01*
X155955904Y-91092352D01*
X156003523Y-91139971D01*
X156051142Y-91235209D01*
X156051142Y-91473304D01*
X156003523Y-91568542D01*
X155955904Y-91616161D01*
X155860666Y-91663780D01*
X155574952Y-91663780D01*
X155479714Y-91616161D01*
X155432095Y-91568542D01*
X162707580Y-109978723D02*
X161707580Y-109978723D01*
X162421866Y-109645390D01*
X161707580Y-109312057D01*
X162707580Y-109312057D01*
X161707580Y-108931104D02*
X161707580Y-108312057D01*
X162088533Y-108645390D01*
X162088533Y-108502533D01*
X162136152Y-108407295D01*
X162183771Y-108359676D01*
X162279009Y-108312057D01*
X162517104Y-108312057D01*
X162612342Y-108359676D01*
X162659961Y-108407295D01*
X162707580Y-108502533D01*
X162707580Y-108788247D01*
X162659961Y-108883485D01*
X162612342Y-108931104D01*
X169218076Y-81427580D02*
X169218076Y-80427580D01*
X169551409Y-81141866D01*
X169884742Y-80427580D01*
X169884742Y-81427580D01*
X170265695Y-80427580D02*
X170884742Y-80427580D01*
X170551409Y-80808533D01*
X170694266Y-80808533D01*
X170789504Y-80856152D01*
X170837123Y-80903771D01*
X170884742Y-80999009D01*
X170884742Y-81237104D01*
X170837123Y-81332342D01*
X170789504Y-81379961D01*
X170694266Y-81427580D01*
X170408552Y-81427580D01*
X170313314Y-81379961D01*
X170265695Y-81332342D01*
X137976076Y-75763380D02*
X137976076Y-74763380D01*
X138309409Y-75477666D01*
X138642742Y-74763380D01*
X138642742Y-75763380D01*
X139023695Y-74763380D02*
X139642742Y-74763380D01*
X139309409Y-75144333D01*
X139452266Y-75144333D01*
X139547504Y-75191952D01*
X139595123Y-75239571D01*
X139642742Y-75334809D01*
X139642742Y-75572904D01*
X139595123Y-75668142D01*
X139547504Y-75715761D01*
X139452266Y-75763380D01*
X139166552Y-75763380D01*
X139071314Y-75715761D01*
X139023695Y-75668142D01*
%TO.C,J1*%
X139594438Y-83767789D02*
X140172307Y-84187636D01*
X140259891Y-84310130D01*
X140280961Y-84443159D01*
X140235516Y-84586722D01*
X140179537Y-84663772D01*
X140991240Y-83546558D02*
X140655363Y-84008853D01*
X140823302Y-83777705D02*
X140014285Y-83189920D01*
X140073879Y-83350939D01*
X140094949Y-83483967D01*
X140077494Y-83589007D01*
%TO.C,MH*%
X168660857Y-77438380D02*
X168660857Y-76438380D01*
X168994190Y-77152666D01*
X169327523Y-76438380D01*
X169327523Y-77438380D01*
X169803714Y-77438380D02*
X169803714Y-76438380D01*
X169803714Y-76914571D02*
X170375142Y-76914571D01*
X170375142Y-77438380D02*
X170375142Y-76438380D01*
%TO.C,C1*%
X143139840Y-79337370D02*
X143073326Y-79347905D01*
X142929762Y-79302460D01*
X142852713Y-79246481D01*
X142765129Y-79123987D01*
X142744059Y-78990958D01*
X142761514Y-78885919D01*
X142834948Y-78703831D01*
X142918918Y-78588257D01*
X143069401Y-78462148D01*
X143163906Y-78413089D01*
X143296934Y-78392019D01*
X143440498Y-78437464D01*
X143517547Y-78493443D01*
X143605131Y-78615937D01*
X143615666Y-78682451D01*
X143854353Y-79974215D02*
X143392057Y-79638337D01*
X143623205Y-79806276D02*
X144210990Y-78997259D01*
X144049972Y-79056853D01*
X143916943Y-79077923D01*
X143811904Y-79060468D01*
%TO.C,C2*%
X164337378Y-93249735D02*
X164277374Y-93280308D01*
X164126794Y-93281451D01*
X164036217Y-93252021D01*
X163915067Y-93162587D01*
X163853921Y-93042580D01*
X163838062Y-92937288D01*
X163851634Y-92741420D01*
X163895780Y-92605554D01*
X163999928Y-92439116D01*
X164074647Y-92363254D01*
X164194654Y-92302108D01*
X164345234Y-92300964D01*
X164435811Y-92330395D01*
X164556961Y-92419828D01*
X164587534Y-92479832D01*
X164949842Y-92597553D02*
X165009845Y-92566979D01*
X165115137Y-92551121D01*
X165341579Y-92624697D01*
X165417441Y-92699415D01*
X165448014Y-92759419D01*
X165463872Y-92864711D01*
X165434442Y-92955287D01*
X165345009Y-93076437D01*
X164624967Y-93443317D01*
X165213716Y-93634613D01*
%TO.C,C3*%
X152288234Y-94719253D02*
X152228230Y-94688680D01*
X152138796Y-94567530D01*
X152109366Y-94476953D01*
X152110509Y-94326373D01*
X152171656Y-94206366D01*
X152247518Y-94131647D01*
X152413956Y-94027498D01*
X152549821Y-93983353D01*
X152745690Y-93969781D01*
X152850982Y-93985639D01*
X152970989Y-94046786D01*
X153060423Y-94167936D01*
X153089853Y-94258513D01*
X153088710Y-94409093D01*
X153058137Y-94469097D01*
X153251719Y-94756685D02*
X153443015Y-95345435D01*
X152977702Y-95146137D01*
X153021848Y-95282002D01*
X153005989Y-95387294D01*
X152975416Y-95447297D01*
X152899554Y-95522016D01*
X152673112Y-95595591D01*
X152567820Y-95579733D01*
X152507817Y-95549160D01*
X152433098Y-95473298D01*
X152344808Y-95201568D01*
X152360666Y-95096276D01*
X152391239Y-95036272D01*
%TO.C,C4*%
X155154333Y-80367142D02*
X155106714Y-80414761D01*
X154963857Y-80462380D01*
X154868619Y-80462380D01*
X154725761Y-80414761D01*
X154630523Y-80319523D01*
X154582904Y-80224285D01*
X154535285Y-80033809D01*
X154535285Y-79890952D01*
X154582904Y-79700476D01*
X154630523Y-79605238D01*
X154725761Y-79510000D01*
X154868619Y-79462380D01*
X154963857Y-79462380D01*
X155106714Y-79510000D01*
X155154333Y-79557619D01*
X156011476Y-79795714D02*
X156011476Y-80462380D01*
X155773380Y-79414761D02*
X155535285Y-80129047D01*
X156154333Y-80129047D01*
%TO.C,D1*%
X148615965Y-87968542D02*
X149203750Y-87159525D01*
X149396373Y-87299474D01*
X149483957Y-87421968D01*
X149505027Y-87554996D01*
X149487572Y-87660035D01*
X149414138Y-87842124D01*
X149330168Y-87957698D01*
X149179685Y-88083806D01*
X149085181Y-88132866D01*
X148952152Y-88153935D01*
X148808588Y-88108491D01*
X148615965Y-87968542D01*
X149848753Y-88864215D02*
X149386457Y-88528337D01*
X149617605Y-88696276D02*
X150205390Y-87887259D01*
X150044372Y-87946853D01*
X149911343Y-87967923D01*
X149806304Y-87950468D01*
%TO.C,D2*%
X164133755Y-87506563D02*
X163182699Y-87197546D01*
X163256274Y-86971104D01*
X163345708Y-86849954D01*
X163465715Y-86788807D01*
X163571007Y-86772949D01*
X163766876Y-86786521D01*
X163902741Y-86830666D01*
X164069179Y-86934815D01*
X164145041Y-87009534D01*
X164206188Y-87129541D01*
X164207331Y-87280121D01*
X164133755Y-87506563D01*
X163567578Y-86321208D02*
X163537004Y-86261205D01*
X163521146Y-86155913D01*
X163594722Y-85929471D01*
X163669440Y-85853609D01*
X163729444Y-85823036D01*
X163834736Y-85807178D01*
X163925312Y-85836608D01*
X164046462Y-85926041D01*
X164413342Y-86646083D01*
X164604638Y-86057334D01*
%TO.C,D3*%
X158599676Y-97100823D02*
X159550732Y-96791806D01*
X159624308Y-97018248D01*
X159623165Y-97168828D01*
X159562018Y-97288835D01*
X159486156Y-97363554D01*
X159319718Y-97467702D01*
X159183852Y-97511848D01*
X158987984Y-97525420D01*
X158882692Y-97509561D01*
X158762685Y-97448415D01*
X158673251Y-97327265D01*
X158599676Y-97100823D01*
X159830319Y-97652285D02*
X160021615Y-98241035D01*
X159556302Y-98041737D01*
X159600448Y-98177602D01*
X159584589Y-98282894D01*
X159554016Y-98342897D01*
X159478154Y-98417616D01*
X159251712Y-98491191D01*
X159146420Y-98475333D01*
X159086417Y-98444760D01*
X159011698Y-98368898D01*
X158923408Y-98097168D01*
X158939266Y-97991876D01*
X158969839Y-97931872D01*
%TO.C,D4*%
X160551904Y-81758812D02*
X160551904Y-80758812D01*
X160790000Y-80758812D01*
X160932857Y-80806432D01*
X161028095Y-80901670D01*
X161075714Y-80996908D01*
X161123333Y-81187384D01*
X161123333Y-81330241D01*
X161075714Y-81520717D01*
X161028095Y-81615955D01*
X160932857Y-81711193D01*
X160790000Y-81758812D01*
X160551904Y-81758812D01*
X161980476Y-81092146D02*
X161980476Y-81758812D01*
X161742380Y-80711193D02*
X161504285Y-81425479D01*
X162123333Y-81425479D01*
%TO.C,J2*%
X165992099Y-93903432D02*
X165771373Y-94582758D01*
X165681939Y-94703908D01*
X165561932Y-94765055D01*
X165411352Y-94766198D01*
X165320775Y-94736768D01*
X166370265Y-94126445D02*
X166430268Y-94095872D01*
X166535560Y-94080013D01*
X166762002Y-94153589D01*
X166837864Y-94228307D01*
X166868437Y-94288311D01*
X166884295Y-94393603D01*
X166854865Y-94484180D01*
X166765432Y-94605330D01*
X166045390Y-94972209D01*
X166634139Y-95163506D01*
%TO.C,J3*%
X156358757Y-103849189D02*
X156579483Y-104528515D01*
X156578340Y-104679095D01*
X156517194Y-104799102D01*
X156396044Y-104888536D01*
X156305467Y-104917966D01*
X156721064Y-103731468D02*
X157309814Y-103540172D01*
X157110516Y-104005484D01*
X157246381Y-103961339D01*
X157351673Y-103977197D01*
X157411676Y-104007771D01*
X157486395Y-104083632D01*
X157559970Y-104310074D01*
X157544112Y-104415366D01*
X157513539Y-104475370D01*
X157437677Y-104550088D01*
X157165947Y-104638379D01*
X157060655Y-104622521D01*
X157000651Y-104591947D01*
%TO.C,J4*%
X152612465Y-77012673D02*
X153326751Y-77012673D01*
X153469608Y-77060292D01*
X153564846Y-77155530D01*
X153612465Y-77298387D01*
X153612465Y-77393625D01*
X152945799Y-76107911D02*
X153612465Y-76107911D01*
X152564846Y-76346006D02*
X153279132Y-76584101D01*
X153279132Y-75965054D01*
%TO.C,JP1*%
X159557336Y-93950586D02*
X159977183Y-94528456D01*
X160022628Y-94672019D01*
X160001558Y-94805048D01*
X159913974Y-94927542D01*
X159836925Y-94983522D01*
X160530368Y-94479706D02*
X159942582Y-93670689D01*
X160250779Y-93446770D01*
X160355818Y-93429316D01*
X160422333Y-93439850D01*
X160516837Y-93488910D01*
X160600806Y-93604484D01*
X160618261Y-93709523D01*
X160607726Y-93776037D01*
X160558667Y-93870541D01*
X160250470Y-94094459D01*
X161763156Y-93584033D02*
X161300860Y-93919910D01*
X161532008Y-93751972D02*
X160944223Y-92942955D01*
X160951143Y-93114508D01*
X160930073Y-93247537D01*
X160881013Y-93342041D01*
%TO.C,JP2*%
X150641936Y-82215787D02*
X151061783Y-82793657D01*
X151107228Y-82937220D01*
X151086158Y-83070249D01*
X150998574Y-83192743D01*
X150921525Y-83248723D01*
X151614968Y-82744907D02*
X151027182Y-81935890D01*
X151335379Y-81711971D01*
X151440418Y-81694517D01*
X151506933Y-81705051D01*
X151601437Y-81754111D01*
X151685406Y-81869685D01*
X151702861Y-81974724D01*
X151692326Y-82041238D01*
X151643267Y-82135742D01*
X151335070Y-82359660D01*
X151853654Y-81453143D02*
X151864189Y-81386629D01*
X151913249Y-81292125D01*
X152105872Y-81152176D01*
X152210911Y-81134721D01*
X152277425Y-81145256D01*
X152371929Y-81194315D01*
X152427909Y-81271365D01*
X152473354Y-81414928D01*
X152346935Y-82213101D01*
X152847756Y-81849234D01*
%TO.C,SW1*%
X161747313Y-83198913D02*
X161792757Y-83342477D01*
X161932706Y-83535100D01*
X162027210Y-83584159D01*
X162093725Y-83594694D01*
X162198764Y-83577239D01*
X162275813Y-83521260D01*
X162324872Y-83426756D01*
X162335407Y-83360241D01*
X162317952Y-83255202D01*
X162244518Y-83073114D01*
X162227063Y-82968075D01*
X162237598Y-82901561D01*
X162286657Y-82807056D01*
X162363706Y-82751077D01*
X162468745Y-82733622D01*
X162535260Y-82744157D01*
X162629764Y-82793216D01*
X162769713Y-82985839D01*
X162815158Y-83129403D01*
X163049611Y-83371086D02*
X162380543Y-84151494D01*
X163070371Y-83885746D01*
X162604461Y-84459691D01*
X163553427Y-84064529D01*
X163276215Y-85384282D02*
X162940338Y-84921986D01*
X163108277Y-85153134D02*
X163917294Y-84565349D01*
X163745740Y-84572269D01*
X163612711Y-84551199D01*
X163518207Y-84502140D01*
%TD*%
%LPC*%
D15*
%TO.C,M3*%
X152196800Y-90474800D03*
%TD*%
%TO.C,M3*%
X162001200Y-106248200D03*
%TD*%
%TO.C,M3*%
X167030400Y-80238600D03*
%TD*%
%TO.C,M3*%
X140919200Y-77012800D03*
%TD*%
%TO.C,J1*%
G36*
G01*
X135750333Y-77567649D02*
X135750333Y-77567649D01*
G75*
G02*
X135938380Y-78754930I-499617J-687664D01*
G01*
X135938380Y-78754930D01*
G75*
G02*
X134751099Y-78942977I-687664J499617D01*
G01*
X134751099Y-78942977D01*
G75*
G02*
X134563052Y-77755696I499617J687664D01*
G01*
X134563052Y-77755696D01*
G75*
G02*
X135750333Y-77567649I687664J-499617D01*
G01*
G37*
G36*
G01*
X137805236Y-79060623D02*
X137805236Y-79060623D01*
G75*
G02*
X137993283Y-80247904I-499617J-687664D01*
G01*
X137993283Y-80247904D01*
G75*
G02*
X136806002Y-80435951I-687664J499617D01*
G01*
X136806002Y-80435951D01*
G75*
G02*
X136617955Y-79248670I499617J687664D01*
G01*
X136617955Y-79248670D01*
G75*
G02*
X137805236Y-79060623I687664J-499617D01*
G01*
G37*
D16*
G36*
X139172475Y-80053980D02*
G01*
X140547804Y-81053215D01*
X139548569Y-82428544D01*
X138173240Y-81429309D01*
X139172475Y-80053980D01*
G37*
%TD*%
D17*
%TO.C,MH*%
X169418000Y-78486000D03*
%TD*%
%TO.C,C1*%
G36*
G01*
X143295187Y-81652340D02*
X142526620Y-81093944D01*
G75*
G02*
X142471312Y-80744744I146946J202254D01*
G01*
X142868067Y-80198658D01*
G75*
G02*
X143217267Y-80143350I202254J-146946D01*
G01*
X143985834Y-80701746D01*
G75*
G02*
X144041142Y-81050946I-146946J-202254D01*
G01*
X143644387Y-81597032D01*
G75*
G02*
X143295187Y-81652340I-202254J146946D01*
G01*
G37*
G36*
G01*
X142075533Y-83331050D02*
X141306966Y-82772654D01*
G75*
G02*
X141251658Y-82423454I146946J202254D01*
G01*
X141648413Y-81877368D01*
G75*
G02*
X141997613Y-81822060I202254J-146946D01*
G01*
X142766180Y-82380456D01*
G75*
G02*
X142821488Y-82729656I-146946J-202254D01*
G01*
X142424733Y-83275742D01*
G75*
G02*
X142075533Y-83331050I-202254J146946D01*
G01*
G37*
%TD*%
%TO.C,C2*%
G36*
G01*
X166817650Y-91414200D02*
X166524084Y-92317704D01*
G75*
G02*
X166209066Y-92478214I-237764J77254D01*
G01*
X165567102Y-92269628D01*
G75*
G02*
X165406592Y-91954610I77254J237764D01*
G01*
X165700158Y-91051106D01*
G75*
G02*
X166015176Y-90890596I237764J-77254D01*
G01*
X166657140Y-91099182D01*
G75*
G02*
X166817650Y-91414200I-77254J-237764D01*
G01*
G37*
G36*
G01*
X164844208Y-90772990D02*
X164550642Y-91676494D01*
G75*
G02*
X164235624Y-91837004I-237764J77254D01*
G01*
X163593660Y-91628418D01*
G75*
G02*
X163433150Y-91313400I77254J237764D01*
G01*
X163726716Y-90409896D01*
G75*
G02*
X164041734Y-90249386I237764J-77254D01*
G01*
X164683698Y-90457972D01*
G75*
G02*
X164844208Y-90772990I-77254J-237764D01*
G01*
G37*
%TD*%
%TO.C,C3*%
G36*
G01*
X155870358Y-94267294D02*
X155576792Y-93363790D01*
G75*
G02*
X155737302Y-93048772I237764J77254D01*
G01*
X156379266Y-92840186D01*
G75*
G02*
X156694284Y-93000696I77254J-237764D01*
G01*
X156987850Y-93904200D01*
G75*
G02*
X156827340Y-94219218I-237764J-77254D01*
G01*
X156185376Y-94427804D01*
G75*
G02*
X155870358Y-94267294I-77254J237764D01*
G01*
G37*
G36*
G01*
X153896916Y-94908504D02*
X153603350Y-94005000D01*
G75*
G02*
X153763860Y-93689982I237764J77254D01*
G01*
X154405824Y-93481396D01*
G75*
G02*
X154720842Y-93641906I77254J-237764D01*
G01*
X155014408Y-94545410D01*
G75*
G02*
X154853898Y-94860428I-237764J-77254D01*
G01*
X154211934Y-95069014D01*
G75*
G02*
X153896916Y-94908504I-77254J237764D01*
G01*
G37*
%TD*%
%TO.C,C4*%
G36*
G01*
X155923000Y-78968000D02*
X154973000Y-78968000D01*
G75*
G02*
X154723000Y-78718000I0J250000D01*
G01*
X154723000Y-78043000D01*
G75*
G02*
X154973000Y-77793000I250000J0D01*
G01*
X155923000Y-77793000D01*
G75*
G02*
X156173000Y-78043000I0J-250000D01*
G01*
X156173000Y-78718000D01*
G75*
G02*
X155923000Y-78968000I-250000J0D01*
G01*
G37*
G36*
G01*
X155923000Y-76893000D02*
X154973000Y-76893000D01*
G75*
G02*
X154723000Y-76643000I0J250000D01*
G01*
X154723000Y-75968000D01*
G75*
G02*
X154973000Y-75718000I250000J0D01*
G01*
X155923000Y-75718000D01*
G75*
G02*
X156173000Y-75968000I0J-250000D01*
G01*
X156173000Y-76643000D01*
G75*
G02*
X155923000Y-76893000I-250000J0D01*
G01*
G37*
%TD*%
D16*
%TO.C,D1*%
G36*
X147949478Y-87799901D02*
G01*
X147361693Y-88608918D01*
X146148168Y-87727241D01*
X146735953Y-86918224D01*
X147949478Y-87799901D01*
G37*
G36*
X149830391Y-85211047D02*
G01*
X149242606Y-86020064D01*
X148029081Y-85138387D01*
X148616866Y-84329370D01*
X149830391Y-85211047D01*
G37*
G36*
X143985295Y-84919753D02*
G01*
X143397510Y-85728770D01*
X142183985Y-84847093D01*
X142771770Y-84038076D01*
X143985295Y-84919753D01*
G37*
G36*
X145866208Y-82330899D02*
G01*
X145278423Y-83139916D01*
X144064898Y-82258239D01*
X144652683Y-81449222D01*
X145866208Y-82330899D01*
G37*
%TD*%
%TO.C,D2*%
G36*
X164768742Y-88306785D02*
G01*
X165719799Y-88615802D01*
X165256274Y-90042387D01*
X164305217Y-89733370D01*
X164768742Y-88306785D01*
G37*
G36*
X167812123Y-89295640D02*
G01*
X168763180Y-89604657D01*
X168299655Y-91031242D01*
X167348598Y-90722225D01*
X167812123Y-89295640D01*
G37*
G36*
X166282925Y-83646608D02*
G01*
X167233982Y-83955625D01*
X166770457Y-85382210D01*
X165819400Y-85073193D01*
X166282925Y-83646608D01*
G37*
G36*
X169326306Y-84635463D02*
G01*
X170277363Y-84944480D01*
X169813838Y-86371065D01*
X168862781Y-86062048D01*
X169326306Y-84635463D01*
G37*
%TD*%
%TO.C,D3*%
G36*
X157461615Y-96482885D02*
G01*
X156510558Y-96791902D01*
X156047033Y-95365317D01*
X156998090Y-95056300D01*
X157461615Y-96482885D01*
G37*
G36*
X154418234Y-97471740D02*
G01*
X153467177Y-97780757D01*
X153003652Y-96354172D01*
X153954709Y-96045155D01*
X154418234Y-97471740D01*
G37*
G36*
X158975798Y-101143062D02*
G01*
X158024741Y-101452079D01*
X157561216Y-100025494D01*
X158512273Y-99716477D01*
X158975798Y-101143062D01*
G37*
G36*
X155932417Y-102131917D02*
G01*
X154981360Y-102440934D01*
X154517835Y-101014349D01*
X155468892Y-100705332D01*
X155932417Y-102131917D01*
G37*
%TD*%
D18*
%TO.C,D4*%
X162800826Y-79406432D03*
X162800826Y-76206432D03*
X157900826Y-79406432D03*
X157900826Y-76206432D03*
%TD*%
D16*
%TO.C,J2*%
G36*
X164212856Y-97707416D02*
G01*
X164738184Y-96090620D01*
X166354980Y-96615948D01*
X165829652Y-98232744D01*
X164212856Y-97707416D01*
G37*
G36*
G01*
X163690617Y-99314702D02*
X163690617Y-99314702D01*
G75*
G02*
X164761679Y-98768968I808398J-262664D01*
G01*
X164761679Y-98768968D01*
G75*
G02*
X165307413Y-99840030I-262664J-808398D01*
G01*
X165307413Y-99840030D01*
G75*
G02*
X164236351Y-100385764I-808398J262664D01*
G01*
X164236351Y-100385764D01*
G75*
G02*
X163690617Y-99314702I262664J808398D01*
G01*
G37*
G36*
G01*
X162905714Y-101730385D02*
X162905714Y-101730385D01*
G75*
G02*
X163976776Y-101184651I808398J-262664D01*
G01*
X163976776Y-101184651D01*
G75*
G02*
X164522510Y-102255713I-262664J-808398D01*
G01*
X164522510Y-102255713D01*
G75*
G02*
X163451448Y-102801447I-808398J262664D01*
G01*
X163451448Y-102801447D01*
G75*
G02*
X162905714Y-101730385I262664J808398D01*
G01*
G37*
%TD*%
%TO.C,J3*%
G36*
X156993925Y-107312459D02*
G01*
X156468597Y-105695663D01*
X158085393Y-105170335D01*
X158610721Y-106787131D01*
X156993925Y-107312459D01*
G37*
G36*
G01*
X157516164Y-108919745D02*
X157516164Y-108919745D01*
G75*
G02*
X158061898Y-107848683I808398J262664D01*
G01*
X158061898Y-107848683D01*
G75*
G02*
X159132960Y-108394417I262664J-808398D01*
G01*
X159132960Y-108394417D01*
G75*
G02*
X158587226Y-109465479I-808398J-262664D01*
G01*
X158587226Y-109465479D01*
G75*
G02*
X157516164Y-108919745I-262664J808398D01*
G01*
G37*
G36*
G01*
X158301067Y-111335428D02*
X158301067Y-111335428D01*
G75*
G02*
X158846801Y-110264366I808398J262664D01*
G01*
X158846801Y-110264366D01*
G75*
G02*
X159917863Y-110810100I262664J-808398D01*
G01*
X159917863Y-110810100D01*
G75*
G02*
X159372129Y-111881162I-808398J-262664D01*
G01*
X159372129Y-111881162D01*
G75*
G02*
X158301067Y-111335428I-262664J808398D01*
G01*
G37*
%TD*%
D19*
%TO.C,J4*%
X145310085Y-76679340D03*
X147850085Y-76679340D03*
D20*
X150390085Y-76679340D03*
%TD*%
D16*
%TO.C,JP1*%
G36*
X160771070Y-90717145D02*
G01*
X161652747Y-91930670D01*
X160843730Y-92518455D01*
X159962053Y-91304930D01*
X160771070Y-90717145D01*
G37*
G36*
X160196163Y-92988197D02*
G01*
X160176315Y-93002617D01*
X160133982Y-93027428D01*
X160089422Y-93047971D01*
X160043062Y-93064047D01*
X159995350Y-93075502D01*
X159946746Y-93082224D01*
X159897716Y-93084152D01*
X159848734Y-93081263D01*
X159800269Y-93073586D01*
X159752792Y-93061198D01*
X159706757Y-93044214D01*
X159662608Y-93022801D01*
X159620771Y-92997163D01*
X159581648Y-92967548D01*
X159545617Y-92934240D01*
X159513024Y-92897562D01*
X159498603Y-92877714D01*
X159498116Y-92878068D01*
X159204223Y-92473559D01*
X159204710Y-92473206D01*
X159190289Y-92453357D01*
X159165479Y-92411025D01*
X159144935Y-92366465D01*
X159128860Y-92320105D01*
X159117404Y-92272393D01*
X159110683Y-92223788D01*
X159108755Y-92174758D01*
X159111644Y-92125776D01*
X159119320Y-92077311D01*
X159131709Y-92029834D01*
X159148693Y-91983799D01*
X159170106Y-91939651D01*
X159195744Y-91897814D01*
X159225359Y-91858691D01*
X159258667Y-91822660D01*
X159295344Y-91790066D01*
X159315193Y-91775645D01*
X159314839Y-91775158D01*
X159759798Y-91451876D01*
X160641476Y-92665402D01*
X160196517Y-92988684D01*
X160196163Y-92988197D01*
G37*
G36*
X160973324Y-90570198D02*
G01*
X161418283Y-90246916D01*
X161418637Y-90247403D01*
X161438485Y-90232983D01*
X161480818Y-90208172D01*
X161525378Y-90187629D01*
X161571738Y-90171553D01*
X161619450Y-90160098D01*
X161668054Y-90153376D01*
X161717084Y-90151448D01*
X161766066Y-90154337D01*
X161814531Y-90162014D01*
X161862008Y-90174402D01*
X161908043Y-90191386D01*
X161952192Y-90212799D01*
X161994029Y-90238437D01*
X162033152Y-90268052D01*
X162069183Y-90301360D01*
X162101776Y-90338038D01*
X162116197Y-90357886D01*
X162116684Y-90357532D01*
X162410577Y-90762041D01*
X162410090Y-90762394D01*
X162424511Y-90782243D01*
X162449321Y-90824575D01*
X162469865Y-90869135D01*
X162485940Y-90915495D01*
X162497396Y-90963207D01*
X162504117Y-91011812D01*
X162506045Y-91060842D01*
X162503156Y-91109824D01*
X162495480Y-91158289D01*
X162483091Y-91205766D01*
X162466107Y-91251801D01*
X162444694Y-91295949D01*
X162419056Y-91337786D01*
X162389441Y-91376909D01*
X162356133Y-91412940D01*
X162319456Y-91445534D01*
X162299607Y-91459955D01*
X162299961Y-91460442D01*
X161855002Y-91783724D01*
X160973324Y-90570198D01*
G37*
%TD*%
%TO.C,JP2*%
G36*
X153835924Y-81756398D02*
G01*
X154280883Y-81433116D01*
X154281237Y-81433603D01*
X154301085Y-81419183D01*
X154343418Y-81394372D01*
X154387978Y-81373829D01*
X154434338Y-81357753D01*
X154482050Y-81346298D01*
X154530654Y-81339576D01*
X154579684Y-81337648D01*
X154628666Y-81340537D01*
X154677131Y-81348214D01*
X154724608Y-81360602D01*
X154770643Y-81377586D01*
X154814792Y-81398999D01*
X154856629Y-81424637D01*
X154895752Y-81454252D01*
X154931783Y-81487560D01*
X154964376Y-81524238D01*
X154978797Y-81544086D01*
X154979284Y-81543732D01*
X155273177Y-81948241D01*
X155272690Y-81948594D01*
X155287111Y-81968443D01*
X155311921Y-82010775D01*
X155332465Y-82055335D01*
X155348540Y-82101695D01*
X155359996Y-82149407D01*
X155366717Y-82198012D01*
X155368645Y-82247042D01*
X155365756Y-82296024D01*
X155358080Y-82344489D01*
X155345691Y-82391966D01*
X155328707Y-82438001D01*
X155307294Y-82482149D01*
X155281656Y-82523986D01*
X155252041Y-82563109D01*
X155218733Y-82599140D01*
X155182056Y-82631734D01*
X155162207Y-82646155D01*
X155162561Y-82646642D01*
X154717602Y-82969924D01*
X153835924Y-81756398D01*
G37*
G36*
X153058763Y-84174397D02*
G01*
X153038915Y-84188817D01*
X152996582Y-84213628D01*
X152952022Y-84234171D01*
X152905662Y-84250247D01*
X152857950Y-84261702D01*
X152809346Y-84268424D01*
X152760316Y-84270352D01*
X152711334Y-84267463D01*
X152662869Y-84259786D01*
X152615392Y-84247398D01*
X152569357Y-84230414D01*
X152525208Y-84209001D01*
X152483371Y-84183363D01*
X152444248Y-84153748D01*
X152408217Y-84120440D01*
X152375624Y-84083762D01*
X152361203Y-84063914D01*
X152360716Y-84064268D01*
X152066823Y-83659759D01*
X152067310Y-83659406D01*
X152052889Y-83639557D01*
X152028079Y-83597225D01*
X152007535Y-83552665D01*
X151991460Y-83506305D01*
X151980004Y-83458593D01*
X151973283Y-83409988D01*
X151971355Y-83360958D01*
X151974244Y-83311976D01*
X151981920Y-83263511D01*
X151994309Y-83216034D01*
X152011293Y-83169999D01*
X152032706Y-83125851D01*
X152058344Y-83084014D01*
X152087959Y-83044891D01*
X152121267Y-83008860D01*
X152157944Y-82976266D01*
X152177793Y-82961845D01*
X152177439Y-82961358D01*
X152622398Y-82638076D01*
X153504076Y-83851602D01*
X153059117Y-84174884D01*
X153058763Y-84174397D01*
G37*
G36*
X153633670Y-81903345D02*
G01*
X154515347Y-83116870D01*
X153706330Y-83704655D01*
X152824653Y-82491130D01*
X153633670Y-81903345D01*
G37*
%TD*%
%TO.C,SW1*%
G36*
X157458999Y-82647554D02*
G01*
X158348918Y-82000991D01*
X159495099Y-83578574D01*
X158605180Y-84225137D01*
X157458999Y-82647554D01*
G37*
G36*
X155436457Y-84117017D02*
G01*
X156326376Y-83470454D01*
X157472557Y-85048037D01*
X156582638Y-85694600D01*
X155436457Y-84117017D01*
G37*
G36*
X153413914Y-85586480D02*
G01*
X154303833Y-84939917D01*
X155450014Y-86517500D01*
X154560095Y-87164063D01*
X153413914Y-85586480D01*
G37*
G36*
X160779986Y-87218500D02*
G01*
X161669905Y-86571937D01*
X162816086Y-88149520D01*
X161926167Y-88796083D01*
X160779986Y-87218500D01*
G37*
G36*
X158757443Y-88687963D02*
G01*
X159647362Y-88041400D01*
X160793543Y-89618983D01*
X159903624Y-90265546D01*
X158757443Y-88687963D01*
G37*
G36*
X156734901Y-90157426D02*
G01*
X157624820Y-89510863D01*
X158771001Y-91088446D01*
X157881082Y-91735009D01*
X156734901Y-90157426D01*
G37*
%TD*%
M02*
