%TF.GenerationSoftware,KiCad,Pcbnew,5.1.9*%
%TF.CreationDate,2021-01-26T18:39:52-05:00*%
%TF.ProjectId,penrosedart,70656e72-6f73-4656-9461-72742e6b6963,rev?*%
%TF.SameCoordinates,Original*%
%TF.FileFunction,Copper,L1,Top*%
%TF.FilePolarity,Positive*%
%FSLAX46Y46*%
G04 Gerber Fmt 4.6, Leading zero omitted, Abs format (unit mm)*
G04 Created by KiCad (PCBNEW 5.1.9) date 2021-01-26 18:39:52*
%MOMM*%
%LPD*%
G01*
G04 APERTURE LIST*
%TA.AperFunction,ComponentPad*%
%ADD10C,0.100000*%
%TD*%
%TA.AperFunction,SMDPad,CuDef*%
%ADD11C,0.100000*%
%TD*%
%TA.AperFunction,SMDPad,CuDef*%
%ADD12R,1.500000X1.000000*%
%TD*%
%TA.AperFunction,ComponentPad*%
%ADD13O,1.700000X1.700000*%
%TD*%
%TA.AperFunction,ComponentPad*%
%ADD14R,1.700000X1.700000*%
%TD*%
%TA.AperFunction,ViaPad*%
%ADD15C,0.800000*%
%TD*%
%TA.AperFunction,Conductor*%
%ADD16C,1.000000*%
%TD*%
%TA.AperFunction,Conductor*%
%ADD17C,0.250000*%
%TD*%
%TA.AperFunction,Conductor*%
%ADD18C,0.254000*%
%TD*%
%TA.AperFunction,Conductor*%
%ADD19C,0.100000*%
%TD*%
G04 APERTURE END LIST*
%TO.P,J1,3*%
%TO.N,Net-(D1-Pad2)*%
%TA.AperFunction,ComponentPad*%
G36*
G01*
X135750333Y-77567649D02*
X135750333Y-77567649D01*
G75*
G02*
X135938380Y-78754930I-499617J-687664D01*
G01*
X135938380Y-78754930D01*
G75*
G02*
X134751099Y-78942977I-687664J499617D01*
G01*
X134751099Y-78942977D01*
G75*
G02*
X134563052Y-77755696I499617J687664D01*
G01*
X134563052Y-77755696D01*
G75*
G02*
X135750333Y-77567649I687664J-499617D01*
G01*
G37*
%TD.AperFunction*%
%TO.P,J1,2*%
%TO.N,VCC*%
%TA.AperFunction,ComponentPad*%
G36*
G01*
X137805236Y-79060623D02*
X137805236Y-79060623D01*
G75*
G02*
X137993283Y-80247904I-499617J-687664D01*
G01*
X137993283Y-80247904D01*
G75*
G02*
X136806002Y-80435951I-687664J499617D01*
G01*
X136806002Y-80435951D01*
G75*
G02*
X136617955Y-79248670I499617J687664D01*
G01*
X136617955Y-79248670D01*
G75*
G02*
X137805236Y-79060623I687664J-499617D01*
G01*
G37*
%TD.AperFunction*%
%TA.AperFunction,ComponentPad*%
D10*
%TO.P,J1,1*%
%TO.N,GND*%
G36*
X139172475Y-80053980D02*
G01*
X140547804Y-81053215D01*
X139548569Y-82428544D01*
X138173240Y-81429309D01*
X139172475Y-80053980D01*
G37*
%TD.AperFunction*%
%TD*%
%TO.P,C1,2*%
%TO.N,VCC*%
%TA.AperFunction,SMDPad,CuDef*%
G36*
G01*
X143295187Y-81652340D02*
X142526620Y-81093944D01*
G75*
G02*
X142471312Y-80744744I146946J202254D01*
G01*
X142868067Y-80198658D01*
G75*
G02*
X143217267Y-80143350I202254J-146946D01*
G01*
X143985834Y-80701746D01*
G75*
G02*
X144041142Y-81050946I-146946J-202254D01*
G01*
X143644387Y-81597032D01*
G75*
G02*
X143295187Y-81652340I-202254J146946D01*
G01*
G37*
%TD.AperFunction*%
%TO.P,C1,1*%
%TO.N,GND*%
%TA.AperFunction,SMDPad,CuDef*%
G36*
G01*
X142075533Y-83331050D02*
X141306966Y-82772654D01*
G75*
G02*
X141251658Y-82423454I146946J202254D01*
G01*
X141648413Y-81877368D01*
G75*
G02*
X141997613Y-81822060I202254J-146946D01*
G01*
X142766180Y-82380456D01*
G75*
G02*
X142821488Y-82729656I-146946J-202254D01*
G01*
X142424733Y-83275742D01*
G75*
G02*
X142075533Y-83331050I-202254J146946D01*
G01*
G37*
%TD.AperFunction*%
%TD*%
%TO.P,C2,1*%
%TO.N,GND*%
%TA.AperFunction,SMDPad,CuDef*%
G36*
G01*
X166817650Y-91414200D02*
X166524084Y-92317704D01*
G75*
G02*
X166209066Y-92478214I-237764J77254D01*
G01*
X165567102Y-92269628D01*
G75*
G02*
X165406592Y-91954610I77254J237764D01*
G01*
X165700158Y-91051106D01*
G75*
G02*
X166015176Y-90890596I237764J-77254D01*
G01*
X166657140Y-91099182D01*
G75*
G02*
X166817650Y-91414200I-77254J-237764D01*
G01*
G37*
%TD.AperFunction*%
%TO.P,C2,2*%
%TO.N,VCC*%
%TA.AperFunction,SMDPad,CuDef*%
G36*
G01*
X164844208Y-90772990D02*
X164550642Y-91676494D01*
G75*
G02*
X164235624Y-91837004I-237764J77254D01*
G01*
X163593660Y-91628418D01*
G75*
G02*
X163433150Y-91313400I77254J237764D01*
G01*
X163726716Y-90409896D01*
G75*
G02*
X164041734Y-90249386I237764J-77254D01*
G01*
X164683698Y-90457972D01*
G75*
G02*
X164844208Y-90772990I-77254J-237764D01*
G01*
G37*
%TD.AperFunction*%
%TD*%
%TO.P,C3,2*%
%TO.N,VCC*%
%TA.AperFunction,SMDPad,CuDef*%
G36*
G01*
X155870358Y-94267294D02*
X155576792Y-93363790D01*
G75*
G02*
X155737302Y-93048772I237764J77254D01*
G01*
X156379266Y-92840186D01*
G75*
G02*
X156694284Y-93000696I77254J-237764D01*
G01*
X156987850Y-93904200D01*
G75*
G02*
X156827340Y-94219218I-237764J-77254D01*
G01*
X156185376Y-94427804D01*
G75*
G02*
X155870358Y-94267294I-77254J237764D01*
G01*
G37*
%TD.AperFunction*%
%TO.P,C3,1*%
%TO.N,GND*%
%TA.AperFunction,SMDPad,CuDef*%
G36*
G01*
X153896916Y-94908504D02*
X153603350Y-94005000D01*
G75*
G02*
X153763860Y-93689982I237764J77254D01*
G01*
X154405824Y-93481396D01*
G75*
G02*
X154720842Y-93641906I77254J-237764D01*
G01*
X155014408Y-94545410D01*
G75*
G02*
X154853898Y-94860428I-237764J-77254D01*
G01*
X154211934Y-95069014D01*
G75*
G02*
X153896916Y-94908504I-77254J237764D01*
G01*
G37*
%TD.AperFunction*%
%TD*%
%TO.P,C4,1*%
%TO.N,GND*%
%TA.AperFunction,SMDPad,CuDef*%
G36*
G01*
X155923000Y-78968000D02*
X154973000Y-78968000D01*
G75*
G02*
X154723000Y-78718000I0J250000D01*
G01*
X154723000Y-78043000D01*
G75*
G02*
X154973000Y-77793000I250000J0D01*
G01*
X155923000Y-77793000D01*
G75*
G02*
X156173000Y-78043000I0J-250000D01*
G01*
X156173000Y-78718000D01*
G75*
G02*
X155923000Y-78968000I-250000J0D01*
G01*
G37*
%TD.AperFunction*%
%TO.P,C4,2*%
%TO.N,VCC*%
%TA.AperFunction,SMDPad,CuDef*%
G36*
G01*
X155923000Y-76893000D02*
X154973000Y-76893000D01*
G75*
G02*
X154723000Y-76643000I0J250000D01*
G01*
X154723000Y-75968000D01*
G75*
G02*
X154973000Y-75718000I250000J0D01*
G01*
X155923000Y-75718000D01*
G75*
G02*
X156173000Y-75968000I0J-250000D01*
G01*
X156173000Y-76643000D01*
G75*
G02*
X155923000Y-76893000I-250000J0D01*
G01*
G37*
%TD.AperFunction*%
%TD*%
%TA.AperFunction,SMDPad,CuDef*%
D11*
%TO.P,D1,3*%
%TO.N,GND*%
G36*
X147949478Y-87799901D02*
G01*
X147361693Y-88608918D01*
X146148168Y-87727241D01*
X146735953Y-86918224D01*
X147949478Y-87799901D01*
G37*
%TD.AperFunction*%
%TA.AperFunction,SMDPad,CuDef*%
%TO.P,D1,4*%
%TO.N,Net-(D1-Pad4)*%
G36*
X149830391Y-85211047D02*
G01*
X149242606Y-86020064D01*
X148029081Y-85138387D01*
X148616866Y-84329370D01*
X149830391Y-85211047D01*
G37*
%TD.AperFunction*%
%TA.AperFunction,SMDPad,CuDef*%
%TO.P,D1,2*%
%TO.N,Net-(D1-Pad2)*%
G36*
X143985295Y-84919753D02*
G01*
X143397510Y-85728770D01*
X142183985Y-84847093D01*
X142771770Y-84038076D01*
X143985295Y-84919753D01*
G37*
%TD.AperFunction*%
%TA.AperFunction,SMDPad,CuDef*%
%TO.P,D1,1*%
%TO.N,VCC*%
G36*
X145866208Y-82330899D02*
G01*
X145278423Y-83139916D01*
X144064898Y-82258239D01*
X144652683Y-81449222D01*
X145866208Y-82330899D01*
G37*
%TD.AperFunction*%
%TD*%
%TA.AperFunction,SMDPad,CuDef*%
%TO.P,D2,1*%
%TO.N,VCC*%
G36*
X164768742Y-88306785D02*
G01*
X165719799Y-88615802D01*
X165256274Y-90042387D01*
X164305217Y-89733370D01*
X164768742Y-88306785D01*
G37*
%TD.AperFunction*%
%TA.AperFunction,SMDPad,CuDef*%
%TO.P,D2,2*%
%TO.N,Net-(D2-Pad2)*%
G36*
X167812123Y-89295640D02*
G01*
X168763180Y-89604657D01*
X168299655Y-91031242D01*
X167348598Y-90722225D01*
X167812123Y-89295640D01*
G37*
%TD.AperFunction*%
%TA.AperFunction,SMDPad,CuDef*%
%TO.P,D2,4*%
%TO.N,Net-(D2-Pad4)*%
G36*
X166282925Y-83646608D02*
G01*
X167233982Y-83955625D01*
X166770457Y-85382210D01*
X165819400Y-85073193D01*
X166282925Y-83646608D01*
G37*
%TD.AperFunction*%
%TA.AperFunction,SMDPad,CuDef*%
%TO.P,D2,3*%
%TO.N,GND*%
G36*
X169326306Y-84635463D02*
G01*
X170277363Y-84944480D01*
X169813838Y-86371065D01*
X168862781Y-86062048D01*
X169326306Y-84635463D01*
G37*
%TD.AperFunction*%
%TD*%
%TA.AperFunction,SMDPad,CuDef*%
%TO.P,D3,1*%
%TO.N,VCC*%
G36*
X157461615Y-96482885D02*
G01*
X156510558Y-96791902D01*
X156047033Y-95365317D01*
X156998090Y-95056300D01*
X157461615Y-96482885D01*
G37*
%TD.AperFunction*%
%TA.AperFunction,SMDPad,CuDef*%
%TO.P,D3,2*%
%TO.N,Net-(D3-Pad2)*%
G36*
X154418234Y-97471740D02*
G01*
X153467177Y-97780757D01*
X153003652Y-96354172D01*
X153954709Y-96045155D01*
X154418234Y-97471740D01*
G37*
%TD.AperFunction*%
%TA.AperFunction,SMDPad,CuDef*%
%TO.P,D3,4*%
%TO.N,Net-(D3-Pad4)*%
G36*
X158975798Y-101143062D02*
G01*
X158024741Y-101452079D01*
X157561216Y-100025494D01*
X158512273Y-99716477D01*
X158975798Y-101143062D01*
G37*
%TD.AperFunction*%
%TA.AperFunction,SMDPad,CuDef*%
%TO.P,D3,3*%
%TO.N,GND*%
G36*
X155932417Y-102131917D02*
G01*
X154981360Y-102440934D01*
X154517835Y-101014349D01*
X155468892Y-100705332D01*
X155932417Y-102131917D01*
G37*
%TD.AperFunction*%
%TD*%
D12*
%TO.P,D4,3*%
%TO.N,GND*%
X162800826Y-79406432D03*
%TO.P,D4,4*%
%TO.N,Net-(D4-Pad4)*%
X162800826Y-76206432D03*
%TO.P,D4,2*%
%TO.N,Net-(D4-Pad2)*%
X157900826Y-79406432D03*
%TO.P,D4,1*%
%TO.N,VCC*%
X157900826Y-76206432D03*
%TD*%
%TA.AperFunction,ComponentPad*%
D10*
%TO.P,J2,1*%
%TO.N,GND*%
G36*
X164212856Y-97707416D02*
G01*
X164738184Y-96090620D01*
X166354980Y-96615948D01*
X165829652Y-98232744D01*
X164212856Y-97707416D01*
G37*
%TD.AperFunction*%
%TO.P,J2,2*%
%TO.N,VCC*%
%TA.AperFunction,ComponentPad*%
G36*
G01*
X163690617Y-99314702D02*
X163690617Y-99314702D01*
G75*
G02*
X164761679Y-98768968I808398J-262664D01*
G01*
X164761679Y-98768968D01*
G75*
G02*
X165307413Y-99840030I-262664J-808398D01*
G01*
X165307413Y-99840030D01*
G75*
G02*
X164236351Y-100385764I-808398J262664D01*
G01*
X164236351Y-100385764D01*
G75*
G02*
X163690617Y-99314702I262664J808398D01*
G01*
G37*
%TD.AperFunction*%
%TO.P,J2,3*%
%TO.N,Net-(D2-Pad2)*%
%TA.AperFunction,ComponentPad*%
G36*
G01*
X162905714Y-101730385D02*
X162905714Y-101730385D01*
G75*
G02*
X163976776Y-101184651I808398J-262664D01*
G01*
X163976776Y-101184651D01*
G75*
G02*
X164522510Y-102255713I-262664J-808398D01*
G01*
X164522510Y-102255713D01*
G75*
G02*
X163451448Y-102801447I-808398J262664D01*
G01*
X163451448Y-102801447D01*
G75*
G02*
X162905714Y-101730385I262664J808398D01*
G01*
G37*
%TD.AperFunction*%
%TD*%
%TA.AperFunction,ComponentPad*%
%TO.P,J3,1*%
%TO.N,GND*%
G36*
X156993925Y-107312459D02*
G01*
X156468597Y-105695663D01*
X158085393Y-105170335D01*
X158610721Y-106787131D01*
X156993925Y-107312459D01*
G37*
%TD.AperFunction*%
%TO.P,J3,2*%
%TO.N,VCC*%
%TA.AperFunction,ComponentPad*%
G36*
G01*
X157516164Y-108919745D02*
X157516164Y-108919745D01*
G75*
G02*
X158061898Y-107848683I808398J262664D01*
G01*
X158061898Y-107848683D01*
G75*
G02*
X159132960Y-108394417I262664J-808398D01*
G01*
X159132960Y-108394417D01*
G75*
G02*
X158587226Y-109465479I-808398J-262664D01*
G01*
X158587226Y-109465479D01*
G75*
G02*
X157516164Y-108919745I-262664J808398D01*
G01*
G37*
%TD.AperFunction*%
%TO.P,J3,3*%
%TO.N,Net-(D3-Pad4)*%
%TA.AperFunction,ComponentPad*%
G36*
G01*
X158301067Y-111335428D02*
X158301067Y-111335428D01*
G75*
G02*
X158846801Y-110264366I808398J262664D01*
G01*
X158846801Y-110264366D01*
G75*
G02*
X159917863Y-110810100I262664J-808398D01*
G01*
X159917863Y-110810100D01*
G75*
G02*
X159372129Y-111881162I-808398J-262664D01*
G01*
X159372129Y-111881162D01*
G75*
G02*
X158301067Y-111335428I-262664J808398D01*
G01*
G37*
%TD.AperFunction*%
%TD*%
D13*
%TO.P,J4,3*%
%TO.N,Net-(D4-Pad4)*%
X145310085Y-76679340D03*
%TO.P,J4,2*%
%TO.N,VCC*%
X147850085Y-76679340D03*
D14*
%TO.P,J4,1*%
%TO.N,GND*%
X150390085Y-76679340D03*
%TD*%
%TA.AperFunction,SMDPad,CuDef*%
D11*
%TO.P,JP1,2*%
%TO.N,Net-(D2-Pad4)*%
G36*
X160771070Y-90717145D02*
G01*
X161652747Y-91930670D01*
X160843730Y-92518455D01*
X159962053Y-91304930D01*
X160771070Y-90717145D01*
G37*
%TD.AperFunction*%
%TA.AperFunction,SMDPad,CuDef*%
%TO.P,JP1,3*%
%TO.N,Net-(D3-Pad2)*%
G36*
X160196163Y-92988197D02*
G01*
X160176315Y-93002617D01*
X160133982Y-93027428D01*
X160089422Y-93047971D01*
X160043062Y-93064047D01*
X159995350Y-93075502D01*
X159946746Y-93082224D01*
X159897716Y-93084152D01*
X159848734Y-93081263D01*
X159800269Y-93073586D01*
X159752792Y-93061198D01*
X159706757Y-93044214D01*
X159662608Y-93022801D01*
X159620771Y-92997163D01*
X159581648Y-92967548D01*
X159545617Y-92934240D01*
X159513024Y-92897562D01*
X159498603Y-92877714D01*
X159498116Y-92878068D01*
X159204223Y-92473559D01*
X159204710Y-92473206D01*
X159190289Y-92453357D01*
X159165479Y-92411025D01*
X159144935Y-92366465D01*
X159128860Y-92320105D01*
X159117404Y-92272393D01*
X159110683Y-92223788D01*
X159108755Y-92174758D01*
X159111644Y-92125776D01*
X159119320Y-92077311D01*
X159131709Y-92029834D01*
X159148693Y-91983799D01*
X159170106Y-91939651D01*
X159195744Y-91897814D01*
X159225359Y-91858691D01*
X159258667Y-91822660D01*
X159295344Y-91790066D01*
X159315193Y-91775645D01*
X159314839Y-91775158D01*
X159759798Y-91451876D01*
X160641476Y-92665402D01*
X160196517Y-92988684D01*
X160196163Y-92988197D01*
G37*
%TD.AperFunction*%
%TA.AperFunction,SMDPad,CuDef*%
%TO.P,JP1,1*%
%TO.N,Net-(D4-Pad2)*%
G36*
X160973324Y-90570198D02*
G01*
X161418283Y-90246916D01*
X161418637Y-90247403D01*
X161438485Y-90232983D01*
X161480818Y-90208172D01*
X161525378Y-90187629D01*
X161571738Y-90171553D01*
X161619450Y-90160098D01*
X161668054Y-90153376D01*
X161717084Y-90151448D01*
X161766066Y-90154337D01*
X161814531Y-90162014D01*
X161862008Y-90174402D01*
X161908043Y-90191386D01*
X161952192Y-90212799D01*
X161994029Y-90238437D01*
X162033152Y-90268052D01*
X162069183Y-90301360D01*
X162101776Y-90338038D01*
X162116197Y-90357886D01*
X162116684Y-90357532D01*
X162410577Y-90762041D01*
X162410090Y-90762394D01*
X162424511Y-90782243D01*
X162449321Y-90824575D01*
X162469865Y-90869135D01*
X162485940Y-90915495D01*
X162497396Y-90963207D01*
X162504117Y-91011812D01*
X162506045Y-91060842D01*
X162503156Y-91109824D01*
X162495480Y-91158289D01*
X162483091Y-91205766D01*
X162466107Y-91251801D01*
X162444694Y-91295949D01*
X162419056Y-91337786D01*
X162389441Y-91376909D01*
X162356133Y-91412940D01*
X162319456Y-91445534D01*
X162299607Y-91459955D01*
X162299961Y-91460442D01*
X161855002Y-91783724D01*
X160973324Y-90570198D01*
G37*
%TD.AperFunction*%
%TD*%
%TA.AperFunction,SMDPad,CuDef*%
%TO.P,JP2,1*%
%TO.N,Net-(D3-Pad2)*%
G36*
X153835924Y-81756398D02*
G01*
X154280883Y-81433116D01*
X154281237Y-81433603D01*
X154301085Y-81419183D01*
X154343418Y-81394372D01*
X154387978Y-81373829D01*
X154434338Y-81357753D01*
X154482050Y-81346298D01*
X154530654Y-81339576D01*
X154579684Y-81337648D01*
X154628666Y-81340537D01*
X154677131Y-81348214D01*
X154724608Y-81360602D01*
X154770643Y-81377586D01*
X154814792Y-81398999D01*
X154856629Y-81424637D01*
X154895752Y-81454252D01*
X154931783Y-81487560D01*
X154964376Y-81524238D01*
X154978797Y-81544086D01*
X154979284Y-81543732D01*
X155273177Y-81948241D01*
X155272690Y-81948594D01*
X155287111Y-81968443D01*
X155311921Y-82010775D01*
X155332465Y-82055335D01*
X155348540Y-82101695D01*
X155359996Y-82149407D01*
X155366717Y-82198012D01*
X155368645Y-82247042D01*
X155365756Y-82296024D01*
X155358080Y-82344489D01*
X155345691Y-82391966D01*
X155328707Y-82438001D01*
X155307294Y-82482149D01*
X155281656Y-82523986D01*
X155252041Y-82563109D01*
X155218733Y-82599140D01*
X155182056Y-82631734D01*
X155162207Y-82646155D01*
X155162561Y-82646642D01*
X154717602Y-82969924D01*
X153835924Y-81756398D01*
G37*
%TD.AperFunction*%
%TA.AperFunction,SMDPad,CuDef*%
%TO.P,JP2,3*%
%TO.N,Net-(D4-Pad2)*%
G36*
X153058763Y-84174397D02*
G01*
X153038915Y-84188817D01*
X152996582Y-84213628D01*
X152952022Y-84234171D01*
X152905662Y-84250247D01*
X152857950Y-84261702D01*
X152809346Y-84268424D01*
X152760316Y-84270352D01*
X152711334Y-84267463D01*
X152662869Y-84259786D01*
X152615392Y-84247398D01*
X152569357Y-84230414D01*
X152525208Y-84209001D01*
X152483371Y-84183363D01*
X152444248Y-84153748D01*
X152408217Y-84120440D01*
X152375624Y-84083762D01*
X152361203Y-84063914D01*
X152360716Y-84064268D01*
X152066823Y-83659759D01*
X152067310Y-83659406D01*
X152052889Y-83639557D01*
X152028079Y-83597225D01*
X152007535Y-83552665D01*
X151991460Y-83506305D01*
X151980004Y-83458593D01*
X151973283Y-83409988D01*
X151971355Y-83360958D01*
X151974244Y-83311976D01*
X151981920Y-83263511D01*
X151994309Y-83216034D01*
X152011293Y-83169999D01*
X152032706Y-83125851D01*
X152058344Y-83084014D01*
X152087959Y-83044891D01*
X152121267Y-83008860D01*
X152157944Y-82976266D01*
X152177793Y-82961845D01*
X152177439Y-82961358D01*
X152622398Y-82638076D01*
X153504076Y-83851602D01*
X153059117Y-84174884D01*
X153058763Y-84174397D01*
G37*
%TD.AperFunction*%
%TA.AperFunction,SMDPad,CuDef*%
%TO.P,JP2,2*%
%TO.N,Net-(D1-Pad4)*%
G36*
X153633670Y-81903345D02*
G01*
X154515347Y-83116870D01*
X153706330Y-83704655D01*
X152824653Y-82491130D01*
X153633670Y-81903345D01*
G37*
%TD.AperFunction*%
%TD*%
%TA.AperFunction,SMDPad,CuDef*%
%TO.P,SW1,1*%
%TO.N,Net-(D3-Pad2)*%
G36*
X157458999Y-82647554D02*
G01*
X158348918Y-82000991D01*
X159495099Y-83578574D01*
X158605180Y-84225137D01*
X157458999Y-82647554D01*
G37*
%TD.AperFunction*%
%TA.AperFunction,SMDPad,CuDef*%
%TO.P,SW1,2*%
%TO.N,Net-(D1-Pad4)*%
G36*
X155436457Y-84117017D02*
G01*
X156326376Y-83470454D01*
X157472557Y-85048037D01*
X156582638Y-85694600D01*
X155436457Y-84117017D01*
G37*
%TD.AperFunction*%
%TA.AperFunction,SMDPad,CuDef*%
%TO.P,SW1,3*%
%TO.N,Net-(D4-Pad2)*%
G36*
X153413914Y-85586480D02*
G01*
X154303833Y-84939917D01*
X155450014Y-86517500D01*
X154560095Y-87164063D01*
X153413914Y-85586480D01*
G37*
%TD.AperFunction*%
%TA.AperFunction,SMDPad,CuDef*%
%TO.P,SW1,4*%
G36*
X160779986Y-87218500D02*
G01*
X161669905Y-86571937D01*
X162816086Y-88149520D01*
X161926167Y-88796083D01*
X160779986Y-87218500D01*
G37*
%TD.AperFunction*%
%TA.AperFunction,SMDPad,CuDef*%
%TO.P,SW1,5*%
%TO.N,Net-(D2-Pad4)*%
G36*
X158757443Y-88687963D02*
G01*
X159647362Y-88041400D01*
X160793543Y-89618983D01*
X159903624Y-90265546D01*
X158757443Y-88687963D01*
G37*
%TD.AperFunction*%
%TA.AperFunction,SMDPad,CuDef*%
%TO.P,SW1,6*%
%TO.N,Net-(D3-Pad2)*%
G36*
X156734901Y-90157426D02*
G01*
X157624820Y-89510863D01*
X158771001Y-91088446D01*
X157881082Y-91735009D01*
X156734901Y-90157426D01*
G37*
%TD.AperFunction*%
%TD*%
D15*
%TO.N,Net-(D3-Pad2)*%
X156004938Y-90788949D03*
X153426405Y-92826595D03*
%TO.N,Net-(D4-Pad2)*%
X159258000Y-87122000D03*
X155829000Y-86995000D03*
X159412585Y-79506423D03*
%TD*%
D16*
%TO.N,VCC*%
X157801758Y-76305500D02*
X157900826Y-76206432D01*
X156282321Y-93633995D02*
X156754324Y-95924101D01*
X156754324Y-95924101D02*
X164499015Y-99577366D01*
X143256227Y-80897845D02*
X144965553Y-82294569D01*
X165012508Y-90381750D02*
X165012508Y-89174586D01*
X164499015Y-99577366D02*
X163512846Y-98591197D01*
X163512846Y-98591197D02*
X163512846Y-91881412D01*
X163512846Y-91881412D02*
X165012508Y-90381750D01*
X155448000Y-76305500D02*
X157801758Y-76305500D01*
X157900826Y-76206432D02*
X160290824Y-76206432D01*
X144965553Y-83212976D02*
X149927376Y-88174799D01*
X154496801Y-91848475D02*
X156282321Y-93633995D01*
X153300801Y-88174799D02*
X154496801Y-89370799D01*
X144965553Y-82294569D02*
X144965553Y-83212976D01*
X154496801Y-89370799D02*
X154496801Y-91848475D01*
X149927376Y-88174799D02*
X153300801Y-88174799D01*
X154271839Y-75129339D02*
X155448000Y-76305500D01*
X148198005Y-75129339D02*
X154271839Y-75129339D01*
X147850085Y-75477259D02*
X148198005Y-75129339D01*
X147850085Y-76679340D02*
X147850085Y-75477259D01*
X141712352Y-79353970D02*
X143256227Y-80897845D01*
X137699936Y-79353970D02*
X141712352Y-79353970D01*
X137305619Y-79748287D02*
X137699936Y-79353970D01*
X144566084Y-75129339D02*
X148198005Y-75129339D01*
X143760084Y-75935339D02*
X144566084Y-75129339D01*
X143760084Y-77575918D02*
X143760084Y-75935339D01*
X141982032Y-79353970D02*
X143760084Y-77575918D01*
X141712352Y-79353970D02*
X141982032Y-79353970D01*
X167933992Y-86253102D02*
X165012508Y-89174586D01*
X167933992Y-83665670D02*
X167933992Y-86253102D01*
X165926399Y-82538601D02*
X166806923Y-82538601D01*
X157900826Y-76206432D02*
X160470768Y-76206432D01*
X160470768Y-76206432D02*
X161670769Y-75006431D01*
X161670769Y-75006431D02*
X164110827Y-75006431D01*
X164110827Y-75006431D02*
X164730399Y-75626003D01*
X164730399Y-75626003D02*
X164730399Y-81342601D01*
X164730399Y-81342601D02*
X165926399Y-82538601D01*
X166806923Y-82538601D02*
X167933992Y-83665670D01*
X159310731Y-107670912D02*
X159310731Y-104442869D01*
X158324562Y-108657081D02*
X159310731Y-107670912D01*
X163938116Y-99016467D02*
X164499015Y-99577366D01*
X157580278Y-99016467D02*
X163938116Y-99016467D01*
X156861206Y-99735539D02*
X157580278Y-99016467D01*
X156861206Y-101993344D02*
X156861206Y-99735539D01*
X159310731Y-104442869D02*
X156861206Y-101993344D01*
D17*
%TO.N,GND*%
X162800826Y-79271430D02*
X162800826Y-79406432D01*
D16*
X157539659Y-106241397D02*
X155225126Y-101573133D01*
X155225126Y-101573133D02*
X155854400Y-98450400D01*
X155854400Y-98450400D02*
X154308879Y-94275205D01*
X165283918Y-97161682D02*
X166112121Y-91684405D01*
X159780984Y-78136590D02*
X161050826Y-79406432D01*
X155448000Y-78380500D02*
X155691910Y-78136590D01*
X155691910Y-78136590D02*
X159780984Y-78136590D01*
X161050826Y-79406432D02*
X162800826Y-79406432D01*
X166112121Y-91684405D02*
X167323576Y-88560588D01*
X167323576Y-88560588D02*
X169570072Y-86314092D01*
X169570072Y-86314092D02*
X169570072Y-85503264D01*
X140701280Y-81241262D02*
X142036573Y-82576555D01*
X139360522Y-81241262D02*
X140701280Y-81241262D01*
X147048823Y-86993316D02*
X147048823Y-87763571D01*
X142632062Y-82576555D02*
X147048823Y-86993316D01*
X142036573Y-82576555D02*
X142632062Y-82576555D01*
X150390085Y-76679340D02*
X152240085Y-76679340D01*
X152240085Y-76679340D02*
X153941245Y-78380500D01*
X153941245Y-78380500D02*
X155448000Y-78380500D01*
D17*
%TO.N,Net-(D1-Pad4)*%
X153670000Y-82804000D02*
X156454507Y-84582527D01*
X153179066Y-82313066D02*
X153670000Y-82804000D01*
X151791387Y-82313066D02*
X153179066Y-82313066D01*
X148929736Y-85174717D02*
X151791387Y-82313066D01*
%TO.N,Net-(D1-Pad2)*%
X135250716Y-78255313D02*
X136042400Y-80518000D01*
X136042400Y-80518000D02*
X141579600Y-84810600D01*
X141579600Y-84810600D02*
X143084640Y-84883423D01*
%TO.N,Net-(D2-Pad2)*%
X163714112Y-101993049D02*
X166116000Y-101092000D01*
X166116000Y-101092000D02*
X168055889Y-90163441D01*
%TO.N,Net-(D2-Pad4)*%
X162072777Y-92154740D02*
X161344340Y-92154740D01*
X162830211Y-91397306D02*
X162072777Y-92154740D01*
X162830211Y-90809319D02*
X162830211Y-91397306D01*
X161344340Y-92154740D02*
X160807400Y-91617800D01*
X166526691Y-84514409D02*
X162830211Y-90809319D01*
X159775493Y-89153473D02*
X160807400Y-91617800D01*
%TO.N,Net-(D3-Pad2)*%
X154721722Y-82039879D02*
X158477049Y-83113064D01*
X158477049Y-83113064D02*
X157752951Y-90622936D01*
X156170951Y-90622936D02*
X156004938Y-90788949D01*
X153115740Y-93137260D02*
X153426405Y-92826595D01*
X153115740Y-96317753D02*
X153115740Y-93137260D01*
X157752951Y-90622936D02*
X156170951Y-90622936D01*
X153710943Y-96912956D02*
X153115740Y-96317753D01*
X157752951Y-90622936D02*
X159755678Y-92381921D01*
%TO.N,Net-(D3-Pad4)*%
X159109465Y-111072764D02*
X160311546Y-111072764D01*
X160311546Y-111072764D02*
X163926201Y-107458109D01*
X163926201Y-107458109D02*
X163926201Y-105324199D01*
X163926201Y-105324199D02*
X159186280Y-100584278D01*
X159186280Y-100584278D02*
X158268507Y-100584278D01*
%TO.N,Net-(D4-Pad4)*%
X163875827Y-80166433D02*
X163875827Y-77281433D01*
X163875827Y-77281433D02*
X162800826Y-76206432D01*
X163810827Y-80231433D02*
X163875827Y-80166433D01*
X156890825Y-80231433D02*
X163810827Y-80231433D01*
X145310085Y-76679340D02*
X147923755Y-79293010D01*
X154437790Y-79293010D02*
X156890825Y-80231433D01*
X147923755Y-79293010D02*
X154437790Y-79293010D01*
%TO.N,Net-(D4-Pad2)*%
X152618278Y-83568121D02*
X154431964Y-86051990D01*
X159258000Y-87122000D02*
X161798036Y-87684010D01*
X154431964Y-86051990D02*
X155829000Y-86995000D01*
X161859122Y-90853679D02*
X161798036Y-87684010D01*
X159312594Y-79406432D02*
X159412585Y-79506423D01*
X157900826Y-79406432D02*
X159312594Y-79406432D01*
%TD*%
D18*
%TO.N,VCC*%
X170705072Y-86192267D02*
X170705072Y-85692973D01*
X170884206Y-85141655D01*
X170911012Y-85019477D01*
X170913468Y-84894417D01*
X170891479Y-84771281D01*
X170845889Y-84654801D01*
X170778452Y-84549453D01*
X170691758Y-84459286D01*
X170589138Y-84387765D01*
X170474538Y-84337637D01*
X169523481Y-84028620D01*
X169401303Y-84001814D01*
X169276243Y-83999358D01*
X169153107Y-84021347D01*
X169036627Y-84066937D01*
X168931279Y-84134374D01*
X168841112Y-84221069D01*
X168769591Y-84323688D01*
X168719463Y-84438288D01*
X168255938Y-85864873D01*
X168229132Y-85987051D01*
X168227873Y-86051159D01*
X166551294Y-87727739D01*
X166498996Y-87772688D01*
X166437999Y-87850559D01*
X166375293Y-87926966D01*
X166369160Y-87938440D01*
X166361128Y-87948694D01*
X166316487Y-88036984D01*
X166269900Y-88124142D01*
X166249888Y-88190111D01*
X166231542Y-88237419D01*
X166220888Y-88220776D01*
X166134194Y-88130608D01*
X166031575Y-88059087D01*
X165916974Y-88008960D01*
X165712261Y-87945674D01*
X165512227Y-88047596D01*
X165561283Y-87896619D01*
X165444270Y-87858599D01*
X166547096Y-85980545D01*
X166573282Y-85989053D01*
X166695460Y-86015859D01*
X166820520Y-86018315D01*
X166943656Y-85996326D01*
X167060136Y-85950736D01*
X167165484Y-85883299D01*
X167255651Y-85796604D01*
X167327172Y-85693985D01*
X167377300Y-85579385D01*
X167840825Y-84152800D01*
X167867631Y-84030622D01*
X167870087Y-83905562D01*
X167848098Y-83782426D01*
X167802508Y-83665946D01*
X167735071Y-83560598D01*
X167648377Y-83470431D01*
X167545757Y-83398910D01*
X167431157Y-83348782D01*
X166480100Y-83039765D01*
X166357922Y-83012959D01*
X166232862Y-83010503D01*
X166109726Y-83032492D01*
X165993246Y-83078082D01*
X165887898Y-83145519D01*
X165797731Y-83232214D01*
X165726210Y-83334833D01*
X165676082Y-83449433D01*
X165212557Y-84876018D01*
X165185751Y-84998196D01*
X165183295Y-85123256D01*
X165205284Y-85246392D01*
X165209375Y-85256843D01*
X163441640Y-88267204D01*
X163446302Y-88249336D01*
X163453666Y-88124469D01*
X163436528Y-88000565D01*
X163395547Y-87882385D01*
X163332297Y-87774471D01*
X162186116Y-86196888D01*
X162103029Y-86103387D01*
X162003297Y-86027891D01*
X161890753Y-85973304D01*
X161769722Y-85941721D01*
X161644855Y-85934357D01*
X161520951Y-85951495D01*
X161402770Y-85992476D01*
X161294856Y-86055726D01*
X160515612Y-86621879D01*
X160108413Y-86531782D01*
X160061937Y-86462226D01*
X159917774Y-86318063D01*
X159748256Y-86204795D01*
X159559898Y-86126774D01*
X159359939Y-86087000D01*
X159156061Y-86087000D01*
X158956102Y-86126774D01*
X158949738Y-86129410D01*
X159091360Y-84660607D01*
X159870148Y-84094785D01*
X159963650Y-84011698D01*
X160039145Y-83911966D01*
X160093733Y-83799422D01*
X160125315Y-83678390D01*
X160132679Y-83553523D01*
X160115541Y-83429619D01*
X160074560Y-83311439D01*
X160011310Y-83203525D01*
X158865129Y-81625942D01*
X158782042Y-81532441D01*
X158682310Y-81456945D01*
X158569766Y-81402358D01*
X158448735Y-81370775D01*
X158323868Y-81363411D01*
X158199964Y-81380549D01*
X158081783Y-81421530D01*
X157973869Y-81484780D01*
X157288253Y-81982908D01*
X155772312Y-81549688D01*
X155495495Y-81168683D01*
X155479197Y-81150346D01*
X155464743Y-81130452D01*
X155381653Y-81036947D01*
X155309678Y-80970414D01*
X155209948Y-80894920D01*
X155126375Y-80843706D01*
X155013830Y-80789118D01*
X154921870Y-80755192D01*
X154800837Y-80723609D01*
X154704028Y-80708276D01*
X154579163Y-80700912D01*
X154481220Y-80704760D01*
X154357312Y-80721898D01*
X154262003Y-80744780D01*
X154143820Y-80785764D01*
X154054808Y-80826800D01*
X153946911Y-80890038D01*
X153927033Y-80904479D01*
X153905833Y-80916905D01*
X153460874Y-81240187D01*
X153367373Y-81323274D01*
X153367045Y-81323707D01*
X153366535Y-81323884D01*
X153258621Y-81387134D01*
X153030235Y-81553066D01*
X151828712Y-81553066D01*
X151791387Y-81549390D01*
X151754062Y-81553066D01*
X151754054Y-81553066D01*
X151642401Y-81564063D01*
X151499140Y-81607520D01*
X151367111Y-81678092D01*
X151251386Y-81773065D01*
X151227588Y-81802063D01*
X149121989Y-83907663D01*
X148991915Y-83813159D01*
X148884001Y-83749909D01*
X148765821Y-83708928D01*
X148641916Y-83691790D01*
X148517049Y-83699154D01*
X148396018Y-83730736D01*
X148283474Y-83785324D01*
X148183742Y-83860819D01*
X148100655Y-83954321D01*
X147512870Y-84763338D01*
X147449620Y-84871252D01*
X147408639Y-84989432D01*
X147391501Y-85113337D01*
X147398865Y-85238204D01*
X147430447Y-85359235D01*
X147485035Y-85471779D01*
X147560530Y-85571511D01*
X147654032Y-85654598D01*
X148867557Y-86536275D01*
X148975471Y-86599525D01*
X149093651Y-86640506D01*
X149217556Y-86657644D01*
X149342423Y-86650280D01*
X149463454Y-86618698D01*
X149575998Y-86564110D01*
X149675730Y-86488615D01*
X149758817Y-86395113D01*
X150346602Y-85586096D01*
X150409852Y-85478182D01*
X150450833Y-85360002D01*
X150467971Y-85236097D01*
X150460607Y-85111230D01*
X150429025Y-84990199D01*
X150374437Y-84877655D01*
X150343056Y-84836199D01*
X151409933Y-83769321D01*
X151419469Y-83796819D01*
X151460505Y-83885832D01*
X151523750Y-83993738D01*
X151538188Y-84013610D01*
X151550612Y-84034808D01*
X151844505Y-84439317D01*
X151860803Y-84457654D01*
X151875257Y-84477548D01*
X151958347Y-84571053D01*
X152030322Y-84637586D01*
X152130052Y-84713080D01*
X152213625Y-84764294D01*
X152326170Y-84818882D01*
X152418130Y-84852808D01*
X152539163Y-84884391D01*
X152635972Y-84899724D01*
X152650165Y-84900561D01*
X152889061Y-85227733D01*
X152869868Y-85253088D01*
X152815280Y-85365632D01*
X152783698Y-85486664D01*
X152776334Y-85611531D01*
X152793472Y-85735435D01*
X152834453Y-85853615D01*
X152897703Y-85961529D01*
X154043884Y-87539112D01*
X154126971Y-87632613D01*
X154226703Y-87708109D01*
X154339247Y-87762696D01*
X154460278Y-87794279D01*
X154585145Y-87801643D01*
X154709049Y-87784505D01*
X154827230Y-87743524D01*
X154935144Y-87680274D01*
X155007147Y-87627961D01*
X155025063Y-87654774D01*
X155169226Y-87798937D01*
X155338744Y-87912205D01*
X155527102Y-87990226D01*
X155727061Y-88030000D01*
X155930939Y-88030000D01*
X156130898Y-87990226D01*
X156319256Y-87912205D01*
X156488774Y-87798937D01*
X156632937Y-87654774D01*
X156746205Y-87485256D01*
X156824226Y-87296898D01*
X156864000Y-87096939D01*
X156864000Y-86893061D01*
X156824226Y-86693102D01*
X156746205Y-86504744D01*
X156632937Y-86335226D01*
X156627193Y-86329482D01*
X156731592Y-86315042D01*
X156849773Y-86274061D01*
X156957687Y-86210811D01*
X157449279Y-85853649D01*
X157138640Y-89075393D01*
X156359852Y-89641215D01*
X156266350Y-89724302D01*
X156225975Y-89777639D01*
X156106877Y-89753949D01*
X155902999Y-89753949D01*
X155703040Y-89793723D01*
X155514682Y-89871744D01*
X155345164Y-89985012D01*
X155201001Y-90129175D01*
X155087733Y-90298693D01*
X155009712Y-90487051D01*
X154969938Y-90687010D01*
X154969938Y-90890888D01*
X155009712Y-91090847D01*
X155087733Y-91279205D01*
X155201001Y-91448723D01*
X155345164Y-91592886D01*
X155514682Y-91706154D01*
X155703040Y-91784175D01*
X155902999Y-91823949D01*
X156106877Y-91823949D01*
X156306836Y-91784175D01*
X156495194Y-91706154D01*
X156664712Y-91592886D01*
X156808875Y-91448723D01*
X156845049Y-91394584D01*
X157364871Y-92110058D01*
X157447958Y-92203559D01*
X157547690Y-92279055D01*
X157660234Y-92333642D01*
X157781265Y-92365225D01*
X157906132Y-92372589D01*
X158030036Y-92355451D01*
X158148217Y-92314470D01*
X158256131Y-92251220D01*
X158365070Y-92172071D01*
X158475711Y-92269247D01*
X158475867Y-92273223D01*
X158493005Y-92397130D01*
X158515887Y-92492439D01*
X158556869Y-92610619D01*
X158597905Y-92699632D01*
X158661150Y-92807538D01*
X158675588Y-92827410D01*
X158688012Y-92848608D01*
X158981905Y-93253117D01*
X158998203Y-93271454D01*
X159012657Y-93291348D01*
X159095747Y-93384853D01*
X159167722Y-93451386D01*
X159267452Y-93526880D01*
X159351025Y-93578094D01*
X159463570Y-93632682D01*
X159555530Y-93666608D01*
X159676563Y-93698191D01*
X159773372Y-93713524D01*
X159898237Y-93720888D01*
X159996180Y-93717040D01*
X160120088Y-93699902D01*
X160215397Y-93677020D01*
X160333580Y-93636036D01*
X160422592Y-93595000D01*
X160530489Y-93531762D01*
X160550367Y-93517321D01*
X160571567Y-93504895D01*
X161016526Y-93181613D01*
X161110027Y-93098526D01*
X161110355Y-93098093D01*
X161110865Y-93097916D01*
X161218779Y-93034666D01*
X161383843Y-92914740D01*
X162035455Y-92914740D01*
X162072777Y-92918416D01*
X162110099Y-92914740D01*
X162110110Y-92914740D01*
X162221763Y-92903743D01*
X162365024Y-92860286D01*
X162497053Y-92789714D01*
X162612778Y-92694741D01*
X162636580Y-92665738D01*
X163148698Y-92153622D01*
X163158721Y-92158006D01*
X163446651Y-92248330D01*
X163646688Y-92146406D01*
X163978650Y-91124734D01*
X163959629Y-91118554D01*
X164038118Y-90876985D01*
X164057140Y-90883166D01*
X164063320Y-90864145D01*
X164304889Y-90942634D01*
X164298708Y-90961656D01*
X164317729Y-90967836D01*
X164239240Y-91209405D01*
X164220218Y-91203224D01*
X163888257Y-92224897D01*
X163990180Y-92424933D01*
X164276212Y-92521101D01*
X164398390Y-92547908D01*
X164523450Y-92550364D01*
X164646586Y-92528374D01*
X164763066Y-92482785D01*
X164849987Y-92427143D01*
X164851376Y-92430693D01*
X164377015Y-95567858D01*
X164343157Y-95589531D01*
X164252990Y-95676226D01*
X164181469Y-95778845D01*
X164131341Y-95893445D01*
X163606013Y-97510241D01*
X163579207Y-97632419D01*
X163576751Y-97757479D01*
X163598740Y-97880615D01*
X163644330Y-97997095D01*
X163711767Y-98102443D01*
X163798462Y-98192610D01*
X163867601Y-98240797D01*
X163764247Y-98286880D01*
X163526604Y-98455023D01*
X163326331Y-98666297D01*
X163238375Y-98792503D01*
X163282718Y-99048631D01*
X164417476Y-99417337D01*
X164423656Y-99398316D01*
X164665225Y-99476805D01*
X164659044Y-99495827D01*
X164678065Y-99502007D01*
X164599576Y-99743576D01*
X164580554Y-99737395D01*
X164574374Y-99756416D01*
X164332805Y-99677927D01*
X164338986Y-99658905D01*
X163204228Y-99290200D01*
X163017805Y-99471348D01*
X163014780Y-99625150D01*
X163052621Y-99913792D01*
X163146047Y-100189505D01*
X163291466Y-100441694D01*
X163381982Y-100545021D01*
X163280954Y-100565117D01*
X163010701Y-100677059D01*
X162767480Y-100839574D01*
X162560637Y-101046417D01*
X162398122Y-101289638D01*
X162286180Y-101559891D01*
X162229112Y-101846789D01*
X162229112Y-102139309D01*
X162286180Y-102426207D01*
X162398122Y-102696460D01*
X162448179Y-102771375D01*
X159750084Y-100073281D01*
X159726281Y-100044277D01*
X159610556Y-99949304D01*
X159478527Y-99878732D01*
X159335266Y-99835275D01*
X159223613Y-99824278D01*
X159223602Y-99824278D01*
X159218030Y-99823729D01*
X159119116Y-99519302D01*
X159068988Y-99404702D01*
X158997467Y-99302082D01*
X158907300Y-99215388D01*
X158801952Y-99147951D01*
X158685472Y-99102361D01*
X158562336Y-99080372D01*
X158437276Y-99082828D01*
X158315098Y-99109634D01*
X157364041Y-99418651D01*
X157249441Y-99468779D01*
X157146822Y-99540300D01*
X157060127Y-99630467D01*
X156992690Y-99735815D01*
X156947100Y-99852295D01*
X156925111Y-99975431D01*
X156927567Y-100100491D01*
X156954373Y-100222669D01*
X157417898Y-101649254D01*
X157468026Y-101763854D01*
X157539547Y-101866474D01*
X157629714Y-101953168D01*
X157735062Y-102020605D01*
X157851542Y-102066195D01*
X157974678Y-102088184D01*
X158099738Y-102085728D01*
X158221916Y-102058922D01*
X159172973Y-101749905D01*
X159245417Y-101718217D01*
X161580330Y-104053130D01*
X161349275Y-104099090D01*
X160942531Y-104267569D01*
X160576471Y-104512162D01*
X160265162Y-104823471D01*
X160020569Y-105189531D01*
X159852090Y-105596275D01*
X159766200Y-106028072D01*
X159766200Y-106468328D01*
X159852090Y-106900125D01*
X160020569Y-107306869D01*
X160265162Y-107672929D01*
X160576471Y-107984238D01*
X160942531Y-108228831D01*
X161349275Y-108397310D01*
X161781072Y-108483200D01*
X161826308Y-108483200D01*
X160223158Y-110086350D01*
X160056097Y-109919289D01*
X159812876Y-109756774D01*
X159542623Y-109644832D01*
X159441595Y-109624736D01*
X159532111Y-109521409D01*
X159677530Y-109269220D01*
X159770956Y-108993507D01*
X159808797Y-108704865D01*
X159805772Y-108551063D01*
X159619349Y-108369915D01*
X158484591Y-108738620D01*
X158490772Y-108757642D01*
X158249203Y-108836131D01*
X158243023Y-108817110D01*
X157108265Y-109185816D01*
X157063922Y-109441944D01*
X157151878Y-109568150D01*
X157352151Y-109779424D01*
X157589794Y-109947567D01*
X157855674Y-110066116D01*
X157986360Y-110095762D01*
X157955990Y-110126132D01*
X157793475Y-110369353D01*
X157681533Y-110639606D01*
X157624465Y-110926504D01*
X157624465Y-111219024D01*
X157681533Y-111505922D01*
X157793475Y-111776175D01*
X157955990Y-112019396D01*
X158162833Y-112226239D01*
X158406054Y-112388754D01*
X158676307Y-112500696D01*
X158963205Y-112557764D01*
X159255725Y-112557764D01*
X159542623Y-112500696D01*
X159812876Y-112388754D01*
X160056097Y-112226239D01*
X160262940Y-112019396D01*
X160390374Y-111828677D01*
X160460532Y-111821767D01*
X160603793Y-111778310D01*
X160735822Y-111707738D01*
X160851547Y-111612765D01*
X160875350Y-111583761D01*
X163209028Y-109250084D01*
X159935449Y-119319606D01*
X154617643Y-102962066D01*
X154660528Y-102989518D01*
X155881782Y-105452710D01*
X155854481Y-105522464D01*
X155832492Y-105645600D01*
X155834948Y-105770660D01*
X155861754Y-105892838D01*
X156387082Y-107509634D01*
X156437210Y-107624234D01*
X156508731Y-107726853D01*
X156598898Y-107813548D01*
X156704246Y-107880985D01*
X156820726Y-107926575D01*
X156943862Y-107948564D01*
X157028122Y-107946909D01*
X156971594Y-108044942D01*
X156878168Y-108320655D01*
X156840327Y-108609297D01*
X156843352Y-108763099D01*
X157029775Y-108944247D01*
X158164533Y-108575542D01*
X158158352Y-108556520D01*
X158399921Y-108478031D01*
X158406101Y-108497052D01*
X159540859Y-108128346D01*
X159585202Y-107872218D01*
X159497246Y-107746012D01*
X159296973Y-107534738D01*
X159059330Y-107366595D01*
X158955976Y-107320512D01*
X159025115Y-107272325D01*
X159111810Y-107182158D01*
X159179247Y-107076810D01*
X159224837Y-106960330D01*
X159246826Y-106837194D01*
X159244370Y-106712134D01*
X159217564Y-106589956D01*
X158692236Y-104973160D01*
X158642108Y-104858560D01*
X158570587Y-104755941D01*
X158480420Y-104669246D01*
X158375072Y-104601809D01*
X158258592Y-104556219D01*
X158135456Y-104534230D01*
X158010396Y-104536686D01*
X157966121Y-104546400D01*
X156414449Y-101416778D01*
X156952007Y-98749179D01*
X156963671Y-98715424D01*
X156974042Y-98639835D01*
X156978047Y-98619958D01*
X156981616Y-98584623D01*
X156994060Y-98493924D01*
X156992836Y-98473554D01*
X156994887Y-98453253D01*
X156986143Y-98362143D01*
X156980653Y-98270751D01*
X156975478Y-98251008D01*
X156973529Y-98230700D01*
X156947177Y-98143038D01*
X156938169Y-98108673D01*
X156931129Y-98089656D01*
X156909165Y-98016590D01*
X156892408Y-97985051D01*
X156677807Y-97405310D01*
X156707734Y-97398744D01*
X156910548Y-97329616D01*
X157012472Y-97129579D01*
X156672785Y-96084130D01*
X156653763Y-96090311D01*
X156626253Y-96005640D01*
X156914353Y-96005640D01*
X157254040Y-97051089D01*
X157454077Y-97153013D01*
X157658790Y-97089727D01*
X157773391Y-97039600D01*
X157876010Y-96968079D01*
X157962704Y-96877911D01*
X158030141Y-96772563D01*
X158075730Y-96656084D01*
X158097720Y-96532948D01*
X158095265Y-96407888D01*
X158068458Y-96285710D01*
X157922075Y-95845131D01*
X157722038Y-95743207D01*
X156914353Y-96005640D01*
X156626253Y-96005640D01*
X156575274Y-95848742D01*
X156594295Y-95842562D01*
X156588114Y-95823540D01*
X156829683Y-95745051D01*
X156835863Y-95764072D01*
X157643548Y-95501639D01*
X157745472Y-95301602D01*
X157604932Y-94859125D01*
X157554805Y-94744524D01*
X157483283Y-94641905D01*
X157472800Y-94631826D01*
X157479499Y-94627157D01*
X157566193Y-94536989D01*
X157633630Y-94431642D01*
X157679219Y-94315162D01*
X157701210Y-94192026D01*
X157698754Y-94066966D01*
X157671947Y-93944788D01*
X157533289Y-93527986D01*
X157333253Y-93426062D01*
X156442350Y-93715534D01*
X156448531Y-93734556D01*
X156206962Y-93813045D01*
X156200782Y-93794024D01*
X156181760Y-93800205D01*
X156103271Y-93558636D01*
X156122292Y-93552456D01*
X155790330Y-92530784D01*
X155636283Y-92452293D01*
X156031899Y-92452293D01*
X156363860Y-93473966D01*
X157254762Y-93184494D01*
X157356686Y-92984457D01*
X157223872Y-92565756D01*
X157173745Y-92451156D01*
X157102223Y-92348536D01*
X157012055Y-92261843D01*
X156906708Y-92194405D01*
X156790228Y-92148816D01*
X156667092Y-92126826D01*
X156542032Y-92129282D01*
X156419854Y-92156089D01*
X156133822Y-92252257D01*
X156031899Y-92452293D01*
X155636283Y-92452293D01*
X155590293Y-92428860D01*
X155302363Y-92519184D01*
X155187762Y-92569311D01*
X155085143Y-92640833D01*
X154998449Y-92731001D01*
X154931012Y-92836348D01*
X154893397Y-92932454D01*
X154886255Y-92927882D01*
X154724138Y-92864431D01*
X154552756Y-92833826D01*
X154461405Y-92835620D01*
X154461405Y-92724656D01*
X154421631Y-92524697D01*
X154343610Y-92336339D01*
X154230342Y-92166821D01*
X154086179Y-92022658D01*
X153920447Y-91911920D01*
X153932838Y-91899529D01*
X154177431Y-91533469D01*
X154345910Y-91126725D01*
X154431800Y-90694928D01*
X154431800Y-90254672D01*
X154345910Y-89822875D01*
X154177431Y-89416131D01*
X153932838Y-89050071D01*
X153621529Y-88738762D01*
X153255469Y-88494169D01*
X152848725Y-88325690D01*
X152416928Y-88239800D01*
X151976672Y-88239800D01*
X151544875Y-88325690D01*
X151138131Y-88494169D01*
X150772071Y-88738762D01*
X150460762Y-89050071D01*
X150216169Y-89416131D01*
X150047690Y-89822875D01*
X149961800Y-90254672D01*
X149961800Y-90694928D01*
X150047690Y-91126725D01*
X150077180Y-91197921D01*
X147384123Y-89243698D01*
X147461510Y-89239134D01*
X147582541Y-89207552D01*
X147695085Y-89152964D01*
X147794817Y-89077469D01*
X147877904Y-88983967D01*
X148465689Y-88174950D01*
X148528939Y-88067036D01*
X148569920Y-87948856D01*
X148587058Y-87824951D01*
X148579694Y-87700084D01*
X148548112Y-87579053D01*
X148493524Y-87466509D01*
X148418029Y-87366777D01*
X148324527Y-87283690D01*
X148183823Y-87181463D01*
X148183823Y-87049057D01*
X148189313Y-86993315D01*
X148183823Y-86937573D01*
X148183823Y-86937564D01*
X148167400Y-86770817D01*
X148102499Y-86556869D01*
X147997107Y-86359693D01*
X147855272Y-86186867D01*
X147811964Y-86151325D01*
X145419900Y-83759262D01*
X145499270Y-83738550D01*
X145611815Y-83683963D01*
X145711547Y-83608468D01*
X145794634Y-83514966D01*
X145918082Y-83339828D01*
X145882961Y-83118086D01*
X144993649Y-82471963D01*
X144981894Y-82488143D01*
X144776403Y-82338846D01*
X144788159Y-82322665D01*
X144710818Y-82266473D01*
X145142947Y-82266473D01*
X146032259Y-82912596D01*
X146254001Y-82877475D01*
X146382419Y-82705949D01*
X146445670Y-82598034D01*
X146486651Y-82479854D01*
X146503788Y-82355950D01*
X146496425Y-82231083D01*
X146464842Y-82110052D01*
X146410255Y-81997508D01*
X146334759Y-81897776D01*
X146241258Y-81814688D01*
X145863866Y-81544294D01*
X145642124Y-81579415D01*
X145142947Y-82266473D01*
X144710818Y-82266473D01*
X144181120Y-81881625D01*
X144153410Y-81706667D01*
X143284323Y-81075239D01*
X143272568Y-81091419D01*
X143067077Y-80942122D01*
X143078833Y-80925941D01*
X143001492Y-80869749D01*
X143433621Y-80869749D01*
X144020434Y-81296094D01*
X144048145Y-81471052D01*
X144937457Y-82117175D01*
X145436633Y-81430117D01*
X145401513Y-81208375D01*
X145027732Y-80933010D01*
X144919818Y-80869760D01*
X144823463Y-80836347D01*
X144818304Y-80748875D01*
X144786722Y-80627845D01*
X144732135Y-80515300D01*
X144656639Y-80415568D01*
X144563137Y-80332481D01*
X144205971Y-80076781D01*
X143984229Y-80111902D01*
X143433621Y-80869749D01*
X143001492Y-80869749D01*
X142209747Y-80294513D01*
X141988004Y-80329634D01*
X141808155Y-80571949D01*
X141744945Y-80679795D01*
X141543276Y-80478127D01*
X141507729Y-80434813D01*
X141334903Y-80292978D01*
X141137727Y-80187586D01*
X140923779Y-80122685D01*
X140757032Y-80106262D01*
X140757031Y-80106262D01*
X140701280Y-80100771D01*
X140645529Y-80106262D01*
X140329987Y-80106262D01*
X140001057Y-79867280D01*
X142323924Y-79867280D01*
X142359044Y-80089023D01*
X143228131Y-80720451D01*
X143778738Y-79962604D01*
X143743618Y-79740862D01*
X143390063Y-79480192D01*
X143282149Y-79416942D01*
X143163968Y-79375961D01*
X143040064Y-79358823D01*
X142915197Y-79366187D01*
X142794166Y-79397770D01*
X142681622Y-79452357D01*
X142581890Y-79527852D01*
X142498802Y-79621354D01*
X142323924Y-79867280D01*
X140001057Y-79867280D01*
X139547524Y-79537769D01*
X139439610Y-79474519D01*
X139321430Y-79433538D01*
X139197526Y-79416400D01*
X139072659Y-79423764D01*
X138951627Y-79455346D01*
X138839083Y-79509934D01*
X138771889Y-79560798D01*
X138760000Y-79448263D01*
X138673522Y-79170292D01*
X138534477Y-78914534D01*
X138441627Y-78791883D01*
X138184332Y-78754908D01*
X137483013Y-79720191D01*
X137499193Y-79731946D01*
X137349896Y-79937437D01*
X137333715Y-79925681D01*
X137321960Y-79941861D01*
X137116469Y-79792564D01*
X137128225Y-79776383D01*
X137112045Y-79764628D01*
X137261342Y-79559137D01*
X137277523Y-79570893D01*
X137978841Y-78605610D01*
X137864167Y-78372334D01*
X137718827Y-78321930D01*
X137432620Y-78268724D01*
X137141530Y-78272376D01*
X136856747Y-78332748D01*
X136735716Y-78384670D01*
X136735716Y-78109053D01*
X136678648Y-77822155D01*
X136566706Y-77551902D01*
X136404191Y-77308681D01*
X136197348Y-77101838D01*
X135954127Y-76939323D01*
X135683874Y-76827381D01*
X135396976Y-76770313D01*
X135104456Y-76770313D01*
X134817558Y-76827381D01*
X134547305Y-76939323D01*
X134304084Y-77101838D01*
X134097241Y-77308681D01*
X133934726Y-77551902D01*
X133822784Y-77822155D01*
X133765716Y-78109053D01*
X133765716Y-78401573D01*
X133822784Y-78688471D01*
X133934726Y-78958724D01*
X134097241Y-79201945D01*
X134304084Y-79408788D01*
X134547305Y-79571303D01*
X134817558Y-79683245D01*
X134954698Y-79710524D01*
X135195614Y-80399080D01*
X127655886Y-74927860D01*
X140128038Y-74921364D01*
X139860531Y-75032169D01*
X139494471Y-75276762D01*
X139183162Y-75588071D01*
X138938569Y-75954131D01*
X138770090Y-76360875D01*
X138684200Y-76792672D01*
X138684200Y-77232928D01*
X138770090Y-77664725D01*
X138938569Y-78071469D01*
X139183162Y-78437529D01*
X139494471Y-78748838D01*
X139860531Y-78993431D01*
X140267275Y-79161910D01*
X140699072Y-79247800D01*
X141139328Y-79247800D01*
X141571125Y-79161910D01*
X141977869Y-78993431D01*
X142343929Y-78748838D01*
X142655238Y-78437529D01*
X142899831Y-78071469D01*
X143068310Y-77664725D01*
X143154200Y-77232928D01*
X143154200Y-76792672D01*
X143102564Y-76533080D01*
X143825085Y-76533080D01*
X143825085Y-76825600D01*
X143882153Y-77112498D01*
X143994095Y-77382751D01*
X144156610Y-77625972D01*
X144363453Y-77832815D01*
X144606674Y-77995330D01*
X144876927Y-78107272D01*
X145163825Y-78164340D01*
X145456345Y-78164340D01*
X145676493Y-78120549D01*
X147359956Y-79804013D01*
X147383754Y-79833011D01*
X147412752Y-79856809D01*
X147499479Y-79927984D01*
X147631508Y-79998556D01*
X147774769Y-80042013D01*
X147923755Y-80056687D01*
X147961088Y-80053010D01*
X154297382Y-80053010D01*
X156574673Y-80924201D01*
X156598578Y-80936979D01*
X156644437Y-80950890D01*
X156654143Y-80954603D01*
X156680124Y-80961715D01*
X156741839Y-80980436D01*
X156752259Y-80981462D01*
X156762355Y-80984226D01*
X156826656Y-80988790D01*
X156853492Y-80991433D01*
X156863896Y-80991433D01*
X156911686Y-80994825D01*
X156938572Y-80991433D01*
X163773505Y-80991433D01*
X163810827Y-80995109D01*
X163848149Y-80991433D01*
X163848160Y-80991433D01*
X163959813Y-80980436D01*
X164103074Y-80936979D01*
X164235103Y-80866407D01*
X164350828Y-80771434D01*
X164374631Y-80742430D01*
X164386825Y-80730236D01*
X164415828Y-80706434D01*
X164510801Y-80590709D01*
X164581373Y-80458680D01*
X164624830Y-80315419D01*
X164635827Y-80203766D01*
X164635827Y-80203755D01*
X164639503Y-80166433D01*
X164635827Y-80129110D01*
X164635827Y-80018472D01*
X164795400Y-80018472D01*
X164795400Y-80458728D01*
X164881290Y-80890525D01*
X165049769Y-81297269D01*
X165294362Y-81663329D01*
X165605671Y-81974638D01*
X165971731Y-82219231D01*
X166378475Y-82387710D01*
X166810272Y-82473600D01*
X167250528Y-82473600D01*
X167682325Y-82387710D01*
X168089069Y-82219231D01*
X168455129Y-81974638D01*
X168766438Y-81663329D01*
X169011031Y-81297269D01*
X169179510Y-80890525D01*
X169265400Y-80458728D01*
X169265400Y-80018472D01*
X169197237Y-79675793D01*
X169298825Y-79696000D01*
X169537175Y-79696000D01*
X169770944Y-79649501D01*
X169991150Y-79558288D01*
X170189330Y-79425869D01*
X170357869Y-79257330D01*
X170490288Y-79059150D01*
X170581501Y-78838944D01*
X170628000Y-78605175D01*
X170628000Y-78366825D01*
X170581501Y-78133056D01*
X170490288Y-77912850D01*
X170357869Y-77714670D01*
X170189330Y-77546131D01*
X169991150Y-77413712D01*
X169770944Y-77322499D01*
X169537175Y-77276000D01*
X169298825Y-77276000D01*
X169065056Y-77322499D01*
X168844850Y-77413712D01*
X168646670Y-77546131D01*
X168478131Y-77714670D01*
X168345712Y-77912850D01*
X168254499Y-78133056D01*
X168213160Y-78340884D01*
X168089069Y-78257969D01*
X167682325Y-78089490D01*
X167250528Y-78003600D01*
X166810272Y-78003600D01*
X166378475Y-78089490D01*
X165971731Y-78257969D01*
X165605671Y-78502562D01*
X165294362Y-78813871D01*
X165049769Y-79179931D01*
X164881290Y-79586675D01*
X164795400Y-80018472D01*
X164635827Y-80018472D01*
X164635827Y-77318755D01*
X164639503Y-77281433D01*
X164635827Y-77244110D01*
X164635827Y-77244100D01*
X164624830Y-77132447D01*
X164581373Y-76989186D01*
X164510801Y-76857156D01*
X164439626Y-76770430D01*
X164415828Y-76741432D01*
X164386830Y-76717634D01*
X164188898Y-76519702D01*
X164188898Y-75706432D01*
X164176638Y-75581950D01*
X164140328Y-75462252D01*
X164081363Y-75351938D01*
X164002011Y-75255247D01*
X163905320Y-75175895D01*
X163795006Y-75116930D01*
X163675308Y-75080620D01*
X163550826Y-75068360D01*
X162050826Y-75068360D01*
X161926344Y-75080620D01*
X161806646Y-75116930D01*
X161696332Y-75175895D01*
X161599641Y-75255247D01*
X161520289Y-75351938D01*
X161461324Y-75462252D01*
X161425014Y-75581950D01*
X161412754Y-75706432D01*
X161412754Y-76706432D01*
X161425014Y-76830914D01*
X161461324Y-76950612D01*
X161520289Y-77060926D01*
X161599641Y-77157617D01*
X161696332Y-77236969D01*
X161806646Y-77295934D01*
X161926344Y-77332244D01*
X162050826Y-77344504D01*
X162864096Y-77344504D01*
X163115828Y-77596236D01*
X163115828Y-78268360D01*
X162050826Y-78268360D01*
X162019634Y-78271432D01*
X161520958Y-78271432D01*
X160622980Y-77373455D01*
X160587433Y-77330141D01*
X160414607Y-77188306D01*
X160217431Y-77082914D01*
X160003483Y-77018013D01*
X159836736Y-77001590D01*
X159836735Y-77001590D01*
X159780984Y-76996099D01*
X159725233Y-77001590D01*
X159213079Y-77001590D01*
X159240328Y-76950612D01*
X159276638Y-76830914D01*
X159288898Y-76706432D01*
X159285826Y-76492182D01*
X159127076Y-76333432D01*
X158027826Y-76333432D01*
X158027826Y-76353432D01*
X157773826Y-76353432D01*
X157773826Y-76333432D01*
X156674576Y-76333432D01*
X156575508Y-76432500D01*
X155575000Y-76432500D01*
X155575000Y-76452500D01*
X155321000Y-76452500D01*
X155321000Y-76432500D01*
X154246750Y-76432500D01*
X154088000Y-76591250D01*
X154084928Y-76893000D01*
X154087774Y-76921897D01*
X153082080Y-75916204D01*
X153046534Y-75872891D01*
X152873708Y-75731056D01*
X152849282Y-75718000D01*
X154084928Y-75718000D01*
X154088000Y-76019750D01*
X154246750Y-76178500D01*
X155321000Y-76178500D01*
X155321000Y-75241750D01*
X155575000Y-75241750D01*
X155575000Y-76178500D01*
X156649250Y-76178500D01*
X156748318Y-76079432D01*
X157773826Y-76079432D01*
X157773826Y-75230182D01*
X158027826Y-75230182D01*
X158027826Y-76079432D01*
X159127076Y-76079432D01*
X159285826Y-75920682D01*
X159288898Y-75706432D01*
X159276638Y-75581950D01*
X159240328Y-75462252D01*
X159181363Y-75351938D01*
X159102011Y-75255247D01*
X159005320Y-75175895D01*
X158895006Y-75116930D01*
X158775308Y-75080620D01*
X158650826Y-75068360D01*
X158186576Y-75071432D01*
X158027826Y-75230182D01*
X157773826Y-75230182D01*
X157615076Y-75071432D01*
X157150826Y-75068360D01*
X157026344Y-75080620D01*
X156906646Y-75116930D01*
X156796332Y-75175895D01*
X156699641Y-75255247D01*
X156657166Y-75307003D01*
X156624185Y-75266815D01*
X156527494Y-75187463D01*
X156417180Y-75128498D01*
X156297482Y-75092188D01*
X156173000Y-75079928D01*
X155733750Y-75083000D01*
X155575000Y-75241750D01*
X155321000Y-75241750D01*
X155162250Y-75083000D01*
X154723000Y-75079928D01*
X154598518Y-75092188D01*
X154478820Y-75128498D01*
X154368506Y-75187463D01*
X154271815Y-75266815D01*
X154192463Y-75363506D01*
X154133498Y-75473820D01*
X154097188Y-75593518D01*
X154084928Y-75718000D01*
X152849282Y-75718000D01*
X152676532Y-75625664D01*
X152462584Y-75560763D01*
X152295837Y-75544340D01*
X152295836Y-75544340D01*
X152240085Y-75538849D01*
X152184334Y-75544340D01*
X151807768Y-75544340D01*
X151770622Y-75474846D01*
X151691270Y-75378155D01*
X151594579Y-75298803D01*
X151484265Y-75239838D01*
X151364567Y-75203528D01*
X151240085Y-75191268D01*
X149540085Y-75191268D01*
X149415603Y-75203528D01*
X149295905Y-75239838D01*
X149185591Y-75298803D01*
X149088900Y-75378155D01*
X149009548Y-75474846D01*
X148950583Y-75585160D01*
X148926119Y-75665806D01*
X148850354Y-75581752D01*
X148617005Y-75407699D01*
X148354184Y-75282515D01*
X148206975Y-75237864D01*
X147977085Y-75359185D01*
X147977085Y-76552340D01*
X147997085Y-76552340D01*
X147997085Y-76806340D01*
X147977085Y-76806340D01*
X147977085Y-76826340D01*
X147723085Y-76826340D01*
X147723085Y-76806340D01*
X147703085Y-76806340D01*
X147703085Y-76552340D01*
X147723085Y-76552340D01*
X147723085Y-75359185D01*
X147493195Y-75237864D01*
X147345986Y-75282515D01*
X147083165Y-75407699D01*
X146849816Y-75581752D01*
X146654907Y-75797985D01*
X146585280Y-75914874D01*
X146463560Y-75732708D01*
X146256717Y-75525865D01*
X146013496Y-75363350D01*
X145743243Y-75251408D01*
X145456345Y-75194340D01*
X145163825Y-75194340D01*
X144876927Y-75251408D01*
X144606674Y-75363350D01*
X144363453Y-75525865D01*
X144156610Y-75732708D01*
X143994095Y-75975929D01*
X143882153Y-76246182D01*
X143825085Y-76533080D01*
X143102564Y-76533080D01*
X143068310Y-76360875D01*
X142899831Y-75954131D01*
X142655238Y-75588071D01*
X142343929Y-75276762D01*
X141977869Y-75032169D01*
X141708375Y-74920541D01*
X174375016Y-74903527D01*
X170705072Y-86192267D01*
%TA.AperFunction,Conductor*%
D19*
G36*
X170705072Y-86192267D02*
G01*
X170705072Y-85692973D01*
X170884206Y-85141655D01*
X170911012Y-85019477D01*
X170913468Y-84894417D01*
X170891479Y-84771281D01*
X170845889Y-84654801D01*
X170778452Y-84549453D01*
X170691758Y-84459286D01*
X170589138Y-84387765D01*
X170474538Y-84337637D01*
X169523481Y-84028620D01*
X169401303Y-84001814D01*
X169276243Y-83999358D01*
X169153107Y-84021347D01*
X169036627Y-84066937D01*
X168931279Y-84134374D01*
X168841112Y-84221069D01*
X168769591Y-84323688D01*
X168719463Y-84438288D01*
X168255938Y-85864873D01*
X168229132Y-85987051D01*
X168227873Y-86051159D01*
X166551294Y-87727739D01*
X166498996Y-87772688D01*
X166437999Y-87850559D01*
X166375293Y-87926966D01*
X166369160Y-87938440D01*
X166361128Y-87948694D01*
X166316487Y-88036984D01*
X166269900Y-88124142D01*
X166249888Y-88190111D01*
X166231542Y-88237419D01*
X166220888Y-88220776D01*
X166134194Y-88130608D01*
X166031575Y-88059087D01*
X165916974Y-88008960D01*
X165712261Y-87945674D01*
X165512227Y-88047596D01*
X165561283Y-87896619D01*
X165444270Y-87858599D01*
X166547096Y-85980545D01*
X166573282Y-85989053D01*
X166695460Y-86015859D01*
X166820520Y-86018315D01*
X166943656Y-85996326D01*
X167060136Y-85950736D01*
X167165484Y-85883299D01*
X167255651Y-85796604D01*
X167327172Y-85693985D01*
X167377300Y-85579385D01*
X167840825Y-84152800D01*
X167867631Y-84030622D01*
X167870087Y-83905562D01*
X167848098Y-83782426D01*
X167802508Y-83665946D01*
X167735071Y-83560598D01*
X167648377Y-83470431D01*
X167545757Y-83398910D01*
X167431157Y-83348782D01*
X166480100Y-83039765D01*
X166357922Y-83012959D01*
X166232862Y-83010503D01*
X166109726Y-83032492D01*
X165993246Y-83078082D01*
X165887898Y-83145519D01*
X165797731Y-83232214D01*
X165726210Y-83334833D01*
X165676082Y-83449433D01*
X165212557Y-84876018D01*
X165185751Y-84998196D01*
X165183295Y-85123256D01*
X165205284Y-85246392D01*
X165209375Y-85256843D01*
X163441640Y-88267204D01*
X163446302Y-88249336D01*
X163453666Y-88124469D01*
X163436528Y-88000565D01*
X163395547Y-87882385D01*
X163332297Y-87774471D01*
X162186116Y-86196888D01*
X162103029Y-86103387D01*
X162003297Y-86027891D01*
X161890753Y-85973304D01*
X161769722Y-85941721D01*
X161644855Y-85934357D01*
X161520951Y-85951495D01*
X161402770Y-85992476D01*
X161294856Y-86055726D01*
X160515612Y-86621879D01*
X160108413Y-86531782D01*
X160061937Y-86462226D01*
X159917774Y-86318063D01*
X159748256Y-86204795D01*
X159559898Y-86126774D01*
X159359939Y-86087000D01*
X159156061Y-86087000D01*
X158956102Y-86126774D01*
X158949738Y-86129410D01*
X159091360Y-84660607D01*
X159870148Y-84094785D01*
X159963650Y-84011698D01*
X160039145Y-83911966D01*
X160093733Y-83799422D01*
X160125315Y-83678390D01*
X160132679Y-83553523D01*
X160115541Y-83429619D01*
X160074560Y-83311439D01*
X160011310Y-83203525D01*
X158865129Y-81625942D01*
X158782042Y-81532441D01*
X158682310Y-81456945D01*
X158569766Y-81402358D01*
X158448735Y-81370775D01*
X158323868Y-81363411D01*
X158199964Y-81380549D01*
X158081783Y-81421530D01*
X157973869Y-81484780D01*
X157288253Y-81982908D01*
X155772312Y-81549688D01*
X155495495Y-81168683D01*
X155479197Y-81150346D01*
X155464743Y-81130452D01*
X155381653Y-81036947D01*
X155309678Y-80970414D01*
X155209948Y-80894920D01*
X155126375Y-80843706D01*
X155013830Y-80789118D01*
X154921870Y-80755192D01*
X154800837Y-80723609D01*
X154704028Y-80708276D01*
X154579163Y-80700912D01*
X154481220Y-80704760D01*
X154357312Y-80721898D01*
X154262003Y-80744780D01*
X154143820Y-80785764D01*
X154054808Y-80826800D01*
X153946911Y-80890038D01*
X153927033Y-80904479D01*
X153905833Y-80916905D01*
X153460874Y-81240187D01*
X153367373Y-81323274D01*
X153367045Y-81323707D01*
X153366535Y-81323884D01*
X153258621Y-81387134D01*
X153030235Y-81553066D01*
X151828712Y-81553066D01*
X151791387Y-81549390D01*
X151754062Y-81553066D01*
X151754054Y-81553066D01*
X151642401Y-81564063D01*
X151499140Y-81607520D01*
X151367111Y-81678092D01*
X151251386Y-81773065D01*
X151227588Y-81802063D01*
X149121989Y-83907663D01*
X148991915Y-83813159D01*
X148884001Y-83749909D01*
X148765821Y-83708928D01*
X148641916Y-83691790D01*
X148517049Y-83699154D01*
X148396018Y-83730736D01*
X148283474Y-83785324D01*
X148183742Y-83860819D01*
X148100655Y-83954321D01*
X147512870Y-84763338D01*
X147449620Y-84871252D01*
X147408639Y-84989432D01*
X147391501Y-85113337D01*
X147398865Y-85238204D01*
X147430447Y-85359235D01*
X147485035Y-85471779D01*
X147560530Y-85571511D01*
X147654032Y-85654598D01*
X148867557Y-86536275D01*
X148975471Y-86599525D01*
X149093651Y-86640506D01*
X149217556Y-86657644D01*
X149342423Y-86650280D01*
X149463454Y-86618698D01*
X149575998Y-86564110D01*
X149675730Y-86488615D01*
X149758817Y-86395113D01*
X150346602Y-85586096D01*
X150409852Y-85478182D01*
X150450833Y-85360002D01*
X150467971Y-85236097D01*
X150460607Y-85111230D01*
X150429025Y-84990199D01*
X150374437Y-84877655D01*
X150343056Y-84836199D01*
X151409933Y-83769321D01*
X151419469Y-83796819D01*
X151460505Y-83885832D01*
X151523750Y-83993738D01*
X151538188Y-84013610D01*
X151550612Y-84034808D01*
X151844505Y-84439317D01*
X151860803Y-84457654D01*
X151875257Y-84477548D01*
X151958347Y-84571053D01*
X152030322Y-84637586D01*
X152130052Y-84713080D01*
X152213625Y-84764294D01*
X152326170Y-84818882D01*
X152418130Y-84852808D01*
X152539163Y-84884391D01*
X152635972Y-84899724D01*
X152650165Y-84900561D01*
X152889061Y-85227733D01*
X152869868Y-85253088D01*
X152815280Y-85365632D01*
X152783698Y-85486664D01*
X152776334Y-85611531D01*
X152793472Y-85735435D01*
X152834453Y-85853615D01*
X152897703Y-85961529D01*
X154043884Y-87539112D01*
X154126971Y-87632613D01*
X154226703Y-87708109D01*
X154339247Y-87762696D01*
X154460278Y-87794279D01*
X154585145Y-87801643D01*
X154709049Y-87784505D01*
X154827230Y-87743524D01*
X154935144Y-87680274D01*
X155007147Y-87627961D01*
X155025063Y-87654774D01*
X155169226Y-87798937D01*
X155338744Y-87912205D01*
X155527102Y-87990226D01*
X155727061Y-88030000D01*
X155930939Y-88030000D01*
X156130898Y-87990226D01*
X156319256Y-87912205D01*
X156488774Y-87798937D01*
X156632937Y-87654774D01*
X156746205Y-87485256D01*
X156824226Y-87296898D01*
X156864000Y-87096939D01*
X156864000Y-86893061D01*
X156824226Y-86693102D01*
X156746205Y-86504744D01*
X156632937Y-86335226D01*
X156627193Y-86329482D01*
X156731592Y-86315042D01*
X156849773Y-86274061D01*
X156957687Y-86210811D01*
X157449279Y-85853649D01*
X157138640Y-89075393D01*
X156359852Y-89641215D01*
X156266350Y-89724302D01*
X156225975Y-89777639D01*
X156106877Y-89753949D01*
X155902999Y-89753949D01*
X155703040Y-89793723D01*
X155514682Y-89871744D01*
X155345164Y-89985012D01*
X155201001Y-90129175D01*
X155087733Y-90298693D01*
X155009712Y-90487051D01*
X154969938Y-90687010D01*
X154969938Y-90890888D01*
X155009712Y-91090847D01*
X155087733Y-91279205D01*
X155201001Y-91448723D01*
X155345164Y-91592886D01*
X155514682Y-91706154D01*
X155703040Y-91784175D01*
X155902999Y-91823949D01*
X156106877Y-91823949D01*
X156306836Y-91784175D01*
X156495194Y-91706154D01*
X156664712Y-91592886D01*
X156808875Y-91448723D01*
X156845049Y-91394584D01*
X157364871Y-92110058D01*
X157447958Y-92203559D01*
X157547690Y-92279055D01*
X157660234Y-92333642D01*
X157781265Y-92365225D01*
X157906132Y-92372589D01*
X158030036Y-92355451D01*
X158148217Y-92314470D01*
X158256131Y-92251220D01*
X158365070Y-92172071D01*
X158475711Y-92269247D01*
X158475867Y-92273223D01*
X158493005Y-92397130D01*
X158515887Y-92492439D01*
X158556869Y-92610619D01*
X158597905Y-92699632D01*
X158661150Y-92807538D01*
X158675588Y-92827410D01*
X158688012Y-92848608D01*
X158981905Y-93253117D01*
X158998203Y-93271454D01*
X159012657Y-93291348D01*
X159095747Y-93384853D01*
X159167722Y-93451386D01*
X159267452Y-93526880D01*
X159351025Y-93578094D01*
X159463570Y-93632682D01*
X159555530Y-93666608D01*
X159676563Y-93698191D01*
X159773372Y-93713524D01*
X159898237Y-93720888D01*
X159996180Y-93717040D01*
X160120088Y-93699902D01*
X160215397Y-93677020D01*
X160333580Y-93636036D01*
X160422592Y-93595000D01*
X160530489Y-93531762D01*
X160550367Y-93517321D01*
X160571567Y-93504895D01*
X161016526Y-93181613D01*
X161110027Y-93098526D01*
X161110355Y-93098093D01*
X161110865Y-93097916D01*
X161218779Y-93034666D01*
X161383843Y-92914740D01*
X162035455Y-92914740D01*
X162072777Y-92918416D01*
X162110099Y-92914740D01*
X162110110Y-92914740D01*
X162221763Y-92903743D01*
X162365024Y-92860286D01*
X162497053Y-92789714D01*
X162612778Y-92694741D01*
X162636580Y-92665738D01*
X163148698Y-92153622D01*
X163158721Y-92158006D01*
X163446651Y-92248330D01*
X163646688Y-92146406D01*
X163978650Y-91124734D01*
X163959629Y-91118554D01*
X164038118Y-90876985D01*
X164057140Y-90883166D01*
X164063320Y-90864145D01*
X164304889Y-90942634D01*
X164298708Y-90961656D01*
X164317729Y-90967836D01*
X164239240Y-91209405D01*
X164220218Y-91203224D01*
X163888257Y-92224897D01*
X163990180Y-92424933D01*
X164276212Y-92521101D01*
X164398390Y-92547908D01*
X164523450Y-92550364D01*
X164646586Y-92528374D01*
X164763066Y-92482785D01*
X164849987Y-92427143D01*
X164851376Y-92430693D01*
X164377015Y-95567858D01*
X164343157Y-95589531D01*
X164252990Y-95676226D01*
X164181469Y-95778845D01*
X164131341Y-95893445D01*
X163606013Y-97510241D01*
X163579207Y-97632419D01*
X163576751Y-97757479D01*
X163598740Y-97880615D01*
X163644330Y-97997095D01*
X163711767Y-98102443D01*
X163798462Y-98192610D01*
X163867601Y-98240797D01*
X163764247Y-98286880D01*
X163526604Y-98455023D01*
X163326331Y-98666297D01*
X163238375Y-98792503D01*
X163282718Y-99048631D01*
X164417476Y-99417337D01*
X164423656Y-99398316D01*
X164665225Y-99476805D01*
X164659044Y-99495827D01*
X164678065Y-99502007D01*
X164599576Y-99743576D01*
X164580554Y-99737395D01*
X164574374Y-99756416D01*
X164332805Y-99677927D01*
X164338986Y-99658905D01*
X163204228Y-99290200D01*
X163017805Y-99471348D01*
X163014780Y-99625150D01*
X163052621Y-99913792D01*
X163146047Y-100189505D01*
X163291466Y-100441694D01*
X163381982Y-100545021D01*
X163280954Y-100565117D01*
X163010701Y-100677059D01*
X162767480Y-100839574D01*
X162560637Y-101046417D01*
X162398122Y-101289638D01*
X162286180Y-101559891D01*
X162229112Y-101846789D01*
X162229112Y-102139309D01*
X162286180Y-102426207D01*
X162398122Y-102696460D01*
X162448179Y-102771375D01*
X159750084Y-100073281D01*
X159726281Y-100044277D01*
X159610556Y-99949304D01*
X159478527Y-99878732D01*
X159335266Y-99835275D01*
X159223613Y-99824278D01*
X159223602Y-99824278D01*
X159218030Y-99823729D01*
X159119116Y-99519302D01*
X159068988Y-99404702D01*
X158997467Y-99302082D01*
X158907300Y-99215388D01*
X158801952Y-99147951D01*
X158685472Y-99102361D01*
X158562336Y-99080372D01*
X158437276Y-99082828D01*
X158315098Y-99109634D01*
X157364041Y-99418651D01*
X157249441Y-99468779D01*
X157146822Y-99540300D01*
X157060127Y-99630467D01*
X156992690Y-99735815D01*
X156947100Y-99852295D01*
X156925111Y-99975431D01*
X156927567Y-100100491D01*
X156954373Y-100222669D01*
X157417898Y-101649254D01*
X157468026Y-101763854D01*
X157539547Y-101866474D01*
X157629714Y-101953168D01*
X157735062Y-102020605D01*
X157851542Y-102066195D01*
X157974678Y-102088184D01*
X158099738Y-102085728D01*
X158221916Y-102058922D01*
X159172973Y-101749905D01*
X159245417Y-101718217D01*
X161580330Y-104053130D01*
X161349275Y-104099090D01*
X160942531Y-104267569D01*
X160576471Y-104512162D01*
X160265162Y-104823471D01*
X160020569Y-105189531D01*
X159852090Y-105596275D01*
X159766200Y-106028072D01*
X159766200Y-106468328D01*
X159852090Y-106900125D01*
X160020569Y-107306869D01*
X160265162Y-107672929D01*
X160576471Y-107984238D01*
X160942531Y-108228831D01*
X161349275Y-108397310D01*
X161781072Y-108483200D01*
X161826308Y-108483200D01*
X160223158Y-110086350D01*
X160056097Y-109919289D01*
X159812876Y-109756774D01*
X159542623Y-109644832D01*
X159441595Y-109624736D01*
X159532111Y-109521409D01*
X159677530Y-109269220D01*
X159770956Y-108993507D01*
X159808797Y-108704865D01*
X159805772Y-108551063D01*
X159619349Y-108369915D01*
X158484591Y-108738620D01*
X158490772Y-108757642D01*
X158249203Y-108836131D01*
X158243023Y-108817110D01*
X157108265Y-109185816D01*
X157063922Y-109441944D01*
X157151878Y-109568150D01*
X157352151Y-109779424D01*
X157589794Y-109947567D01*
X157855674Y-110066116D01*
X157986360Y-110095762D01*
X157955990Y-110126132D01*
X157793475Y-110369353D01*
X157681533Y-110639606D01*
X157624465Y-110926504D01*
X157624465Y-111219024D01*
X157681533Y-111505922D01*
X157793475Y-111776175D01*
X157955990Y-112019396D01*
X158162833Y-112226239D01*
X158406054Y-112388754D01*
X158676307Y-112500696D01*
X158963205Y-112557764D01*
X159255725Y-112557764D01*
X159542623Y-112500696D01*
X159812876Y-112388754D01*
X160056097Y-112226239D01*
X160262940Y-112019396D01*
X160390374Y-111828677D01*
X160460532Y-111821767D01*
X160603793Y-111778310D01*
X160735822Y-111707738D01*
X160851547Y-111612765D01*
X160875350Y-111583761D01*
X163209028Y-109250084D01*
X159935449Y-119319606D01*
X154617643Y-102962066D01*
X154660528Y-102989518D01*
X155881782Y-105452710D01*
X155854481Y-105522464D01*
X155832492Y-105645600D01*
X155834948Y-105770660D01*
X155861754Y-105892838D01*
X156387082Y-107509634D01*
X156437210Y-107624234D01*
X156508731Y-107726853D01*
X156598898Y-107813548D01*
X156704246Y-107880985D01*
X156820726Y-107926575D01*
X156943862Y-107948564D01*
X157028122Y-107946909D01*
X156971594Y-108044942D01*
X156878168Y-108320655D01*
X156840327Y-108609297D01*
X156843352Y-108763099D01*
X157029775Y-108944247D01*
X158164533Y-108575542D01*
X158158352Y-108556520D01*
X158399921Y-108478031D01*
X158406101Y-108497052D01*
X159540859Y-108128346D01*
X159585202Y-107872218D01*
X159497246Y-107746012D01*
X159296973Y-107534738D01*
X159059330Y-107366595D01*
X158955976Y-107320512D01*
X159025115Y-107272325D01*
X159111810Y-107182158D01*
X159179247Y-107076810D01*
X159224837Y-106960330D01*
X159246826Y-106837194D01*
X159244370Y-106712134D01*
X159217564Y-106589956D01*
X158692236Y-104973160D01*
X158642108Y-104858560D01*
X158570587Y-104755941D01*
X158480420Y-104669246D01*
X158375072Y-104601809D01*
X158258592Y-104556219D01*
X158135456Y-104534230D01*
X158010396Y-104536686D01*
X157966121Y-104546400D01*
X156414449Y-101416778D01*
X156952007Y-98749179D01*
X156963671Y-98715424D01*
X156974042Y-98639835D01*
X156978047Y-98619958D01*
X156981616Y-98584623D01*
X156994060Y-98493924D01*
X156992836Y-98473554D01*
X156994887Y-98453253D01*
X156986143Y-98362143D01*
X156980653Y-98270751D01*
X156975478Y-98251008D01*
X156973529Y-98230700D01*
X156947177Y-98143038D01*
X156938169Y-98108673D01*
X156931129Y-98089656D01*
X156909165Y-98016590D01*
X156892408Y-97985051D01*
X156677807Y-97405310D01*
X156707734Y-97398744D01*
X156910548Y-97329616D01*
X157012472Y-97129579D01*
X156672785Y-96084130D01*
X156653763Y-96090311D01*
X156626253Y-96005640D01*
X156914353Y-96005640D01*
X157254040Y-97051089D01*
X157454077Y-97153013D01*
X157658790Y-97089727D01*
X157773391Y-97039600D01*
X157876010Y-96968079D01*
X157962704Y-96877911D01*
X158030141Y-96772563D01*
X158075730Y-96656084D01*
X158097720Y-96532948D01*
X158095265Y-96407888D01*
X158068458Y-96285710D01*
X157922075Y-95845131D01*
X157722038Y-95743207D01*
X156914353Y-96005640D01*
X156626253Y-96005640D01*
X156575274Y-95848742D01*
X156594295Y-95842562D01*
X156588114Y-95823540D01*
X156829683Y-95745051D01*
X156835863Y-95764072D01*
X157643548Y-95501639D01*
X157745472Y-95301602D01*
X157604932Y-94859125D01*
X157554805Y-94744524D01*
X157483283Y-94641905D01*
X157472800Y-94631826D01*
X157479499Y-94627157D01*
X157566193Y-94536989D01*
X157633630Y-94431642D01*
X157679219Y-94315162D01*
X157701210Y-94192026D01*
X157698754Y-94066966D01*
X157671947Y-93944788D01*
X157533289Y-93527986D01*
X157333253Y-93426062D01*
X156442350Y-93715534D01*
X156448531Y-93734556D01*
X156206962Y-93813045D01*
X156200782Y-93794024D01*
X156181760Y-93800205D01*
X156103271Y-93558636D01*
X156122292Y-93552456D01*
X155790330Y-92530784D01*
X155636283Y-92452293D01*
X156031899Y-92452293D01*
X156363860Y-93473966D01*
X157254762Y-93184494D01*
X157356686Y-92984457D01*
X157223872Y-92565756D01*
X157173745Y-92451156D01*
X157102223Y-92348536D01*
X157012055Y-92261843D01*
X156906708Y-92194405D01*
X156790228Y-92148816D01*
X156667092Y-92126826D01*
X156542032Y-92129282D01*
X156419854Y-92156089D01*
X156133822Y-92252257D01*
X156031899Y-92452293D01*
X155636283Y-92452293D01*
X155590293Y-92428860D01*
X155302363Y-92519184D01*
X155187762Y-92569311D01*
X155085143Y-92640833D01*
X154998449Y-92731001D01*
X154931012Y-92836348D01*
X154893397Y-92932454D01*
X154886255Y-92927882D01*
X154724138Y-92864431D01*
X154552756Y-92833826D01*
X154461405Y-92835620D01*
X154461405Y-92724656D01*
X154421631Y-92524697D01*
X154343610Y-92336339D01*
X154230342Y-92166821D01*
X154086179Y-92022658D01*
X153920447Y-91911920D01*
X153932838Y-91899529D01*
X154177431Y-91533469D01*
X154345910Y-91126725D01*
X154431800Y-90694928D01*
X154431800Y-90254672D01*
X154345910Y-89822875D01*
X154177431Y-89416131D01*
X153932838Y-89050071D01*
X153621529Y-88738762D01*
X153255469Y-88494169D01*
X152848725Y-88325690D01*
X152416928Y-88239800D01*
X151976672Y-88239800D01*
X151544875Y-88325690D01*
X151138131Y-88494169D01*
X150772071Y-88738762D01*
X150460762Y-89050071D01*
X150216169Y-89416131D01*
X150047690Y-89822875D01*
X149961800Y-90254672D01*
X149961800Y-90694928D01*
X150047690Y-91126725D01*
X150077180Y-91197921D01*
X147384123Y-89243698D01*
X147461510Y-89239134D01*
X147582541Y-89207552D01*
X147695085Y-89152964D01*
X147794817Y-89077469D01*
X147877904Y-88983967D01*
X148465689Y-88174950D01*
X148528939Y-88067036D01*
X148569920Y-87948856D01*
X148587058Y-87824951D01*
X148579694Y-87700084D01*
X148548112Y-87579053D01*
X148493524Y-87466509D01*
X148418029Y-87366777D01*
X148324527Y-87283690D01*
X148183823Y-87181463D01*
X148183823Y-87049057D01*
X148189313Y-86993315D01*
X148183823Y-86937573D01*
X148183823Y-86937564D01*
X148167400Y-86770817D01*
X148102499Y-86556869D01*
X147997107Y-86359693D01*
X147855272Y-86186867D01*
X147811964Y-86151325D01*
X145419900Y-83759262D01*
X145499270Y-83738550D01*
X145611815Y-83683963D01*
X145711547Y-83608468D01*
X145794634Y-83514966D01*
X145918082Y-83339828D01*
X145882961Y-83118086D01*
X144993649Y-82471963D01*
X144981894Y-82488143D01*
X144776403Y-82338846D01*
X144788159Y-82322665D01*
X144710818Y-82266473D01*
X145142947Y-82266473D01*
X146032259Y-82912596D01*
X146254001Y-82877475D01*
X146382419Y-82705949D01*
X146445670Y-82598034D01*
X146486651Y-82479854D01*
X146503788Y-82355950D01*
X146496425Y-82231083D01*
X146464842Y-82110052D01*
X146410255Y-81997508D01*
X146334759Y-81897776D01*
X146241258Y-81814688D01*
X145863866Y-81544294D01*
X145642124Y-81579415D01*
X145142947Y-82266473D01*
X144710818Y-82266473D01*
X144181120Y-81881625D01*
X144153410Y-81706667D01*
X143284323Y-81075239D01*
X143272568Y-81091419D01*
X143067077Y-80942122D01*
X143078833Y-80925941D01*
X143001492Y-80869749D01*
X143433621Y-80869749D01*
X144020434Y-81296094D01*
X144048145Y-81471052D01*
X144937457Y-82117175D01*
X145436633Y-81430117D01*
X145401513Y-81208375D01*
X145027732Y-80933010D01*
X144919818Y-80869760D01*
X144823463Y-80836347D01*
X144818304Y-80748875D01*
X144786722Y-80627845D01*
X144732135Y-80515300D01*
X144656639Y-80415568D01*
X144563137Y-80332481D01*
X144205971Y-80076781D01*
X143984229Y-80111902D01*
X143433621Y-80869749D01*
X143001492Y-80869749D01*
X142209747Y-80294513D01*
X141988004Y-80329634D01*
X141808155Y-80571949D01*
X141744945Y-80679795D01*
X141543276Y-80478127D01*
X141507729Y-80434813D01*
X141334903Y-80292978D01*
X141137727Y-80187586D01*
X140923779Y-80122685D01*
X140757032Y-80106262D01*
X140757031Y-80106262D01*
X140701280Y-80100771D01*
X140645529Y-80106262D01*
X140329987Y-80106262D01*
X140001057Y-79867280D01*
X142323924Y-79867280D01*
X142359044Y-80089023D01*
X143228131Y-80720451D01*
X143778738Y-79962604D01*
X143743618Y-79740862D01*
X143390063Y-79480192D01*
X143282149Y-79416942D01*
X143163968Y-79375961D01*
X143040064Y-79358823D01*
X142915197Y-79366187D01*
X142794166Y-79397770D01*
X142681622Y-79452357D01*
X142581890Y-79527852D01*
X142498802Y-79621354D01*
X142323924Y-79867280D01*
X140001057Y-79867280D01*
X139547524Y-79537769D01*
X139439610Y-79474519D01*
X139321430Y-79433538D01*
X139197526Y-79416400D01*
X139072659Y-79423764D01*
X138951627Y-79455346D01*
X138839083Y-79509934D01*
X138771889Y-79560798D01*
X138760000Y-79448263D01*
X138673522Y-79170292D01*
X138534477Y-78914534D01*
X138441627Y-78791883D01*
X138184332Y-78754908D01*
X137483013Y-79720191D01*
X137499193Y-79731946D01*
X137349896Y-79937437D01*
X137333715Y-79925681D01*
X137321960Y-79941861D01*
X137116469Y-79792564D01*
X137128225Y-79776383D01*
X137112045Y-79764628D01*
X137261342Y-79559137D01*
X137277523Y-79570893D01*
X137978841Y-78605610D01*
X137864167Y-78372334D01*
X137718827Y-78321930D01*
X137432620Y-78268724D01*
X137141530Y-78272376D01*
X136856747Y-78332748D01*
X136735716Y-78384670D01*
X136735716Y-78109053D01*
X136678648Y-77822155D01*
X136566706Y-77551902D01*
X136404191Y-77308681D01*
X136197348Y-77101838D01*
X135954127Y-76939323D01*
X135683874Y-76827381D01*
X135396976Y-76770313D01*
X135104456Y-76770313D01*
X134817558Y-76827381D01*
X134547305Y-76939323D01*
X134304084Y-77101838D01*
X134097241Y-77308681D01*
X133934726Y-77551902D01*
X133822784Y-77822155D01*
X133765716Y-78109053D01*
X133765716Y-78401573D01*
X133822784Y-78688471D01*
X133934726Y-78958724D01*
X134097241Y-79201945D01*
X134304084Y-79408788D01*
X134547305Y-79571303D01*
X134817558Y-79683245D01*
X134954698Y-79710524D01*
X135195614Y-80399080D01*
X127655886Y-74927860D01*
X140128038Y-74921364D01*
X139860531Y-75032169D01*
X139494471Y-75276762D01*
X139183162Y-75588071D01*
X138938569Y-75954131D01*
X138770090Y-76360875D01*
X138684200Y-76792672D01*
X138684200Y-77232928D01*
X138770090Y-77664725D01*
X138938569Y-78071469D01*
X139183162Y-78437529D01*
X139494471Y-78748838D01*
X139860531Y-78993431D01*
X140267275Y-79161910D01*
X140699072Y-79247800D01*
X141139328Y-79247800D01*
X141571125Y-79161910D01*
X141977869Y-78993431D01*
X142343929Y-78748838D01*
X142655238Y-78437529D01*
X142899831Y-78071469D01*
X143068310Y-77664725D01*
X143154200Y-77232928D01*
X143154200Y-76792672D01*
X143102564Y-76533080D01*
X143825085Y-76533080D01*
X143825085Y-76825600D01*
X143882153Y-77112498D01*
X143994095Y-77382751D01*
X144156610Y-77625972D01*
X144363453Y-77832815D01*
X144606674Y-77995330D01*
X144876927Y-78107272D01*
X145163825Y-78164340D01*
X145456345Y-78164340D01*
X145676493Y-78120549D01*
X147359956Y-79804013D01*
X147383754Y-79833011D01*
X147412752Y-79856809D01*
X147499479Y-79927984D01*
X147631508Y-79998556D01*
X147774769Y-80042013D01*
X147923755Y-80056687D01*
X147961088Y-80053010D01*
X154297382Y-80053010D01*
X156574673Y-80924201D01*
X156598578Y-80936979D01*
X156644437Y-80950890D01*
X156654143Y-80954603D01*
X156680124Y-80961715D01*
X156741839Y-80980436D01*
X156752259Y-80981462D01*
X156762355Y-80984226D01*
X156826656Y-80988790D01*
X156853492Y-80991433D01*
X156863896Y-80991433D01*
X156911686Y-80994825D01*
X156938572Y-80991433D01*
X163773505Y-80991433D01*
X163810827Y-80995109D01*
X163848149Y-80991433D01*
X163848160Y-80991433D01*
X163959813Y-80980436D01*
X164103074Y-80936979D01*
X164235103Y-80866407D01*
X164350828Y-80771434D01*
X164374631Y-80742430D01*
X164386825Y-80730236D01*
X164415828Y-80706434D01*
X164510801Y-80590709D01*
X164581373Y-80458680D01*
X164624830Y-80315419D01*
X164635827Y-80203766D01*
X164635827Y-80203755D01*
X164639503Y-80166433D01*
X164635827Y-80129110D01*
X164635827Y-80018472D01*
X164795400Y-80018472D01*
X164795400Y-80458728D01*
X164881290Y-80890525D01*
X165049769Y-81297269D01*
X165294362Y-81663329D01*
X165605671Y-81974638D01*
X165971731Y-82219231D01*
X166378475Y-82387710D01*
X166810272Y-82473600D01*
X167250528Y-82473600D01*
X167682325Y-82387710D01*
X168089069Y-82219231D01*
X168455129Y-81974638D01*
X168766438Y-81663329D01*
X169011031Y-81297269D01*
X169179510Y-80890525D01*
X169265400Y-80458728D01*
X169265400Y-80018472D01*
X169197237Y-79675793D01*
X169298825Y-79696000D01*
X169537175Y-79696000D01*
X169770944Y-79649501D01*
X169991150Y-79558288D01*
X170189330Y-79425869D01*
X170357869Y-79257330D01*
X170490288Y-79059150D01*
X170581501Y-78838944D01*
X170628000Y-78605175D01*
X170628000Y-78366825D01*
X170581501Y-78133056D01*
X170490288Y-77912850D01*
X170357869Y-77714670D01*
X170189330Y-77546131D01*
X169991150Y-77413712D01*
X169770944Y-77322499D01*
X169537175Y-77276000D01*
X169298825Y-77276000D01*
X169065056Y-77322499D01*
X168844850Y-77413712D01*
X168646670Y-77546131D01*
X168478131Y-77714670D01*
X168345712Y-77912850D01*
X168254499Y-78133056D01*
X168213160Y-78340884D01*
X168089069Y-78257969D01*
X167682325Y-78089490D01*
X167250528Y-78003600D01*
X166810272Y-78003600D01*
X166378475Y-78089490D01*
X165971731Y-78257969D01*
X165605671Y-78502562D01*
X165294362Y-78813871D01*
X165049769Y-79179931D01*
X164881290Y-79586675D01*
X164795400Y-80018472D01*
X164635827Y-80018472D01*
X164635827Y-77318755D01*
X164639503Y-77281433D01*
X164635827Y-77244110D01*
X164635827Y-77244100D01*
X164624830Y-77132447D01*
X164581373Y-76989186D01*
X164510801Y-76857156D01*
X164439626Y-76770430D01*
X164415828Y-76741432D01*
X164386830Y-76717634D01*
X164188898Y-76519702D01*
X164188898Y-75706432D01*
X164176638Y-75581950D01*
X164140328Y-75462252D01*
X164081363Y-75351938D01*
X164002011Y-75255247D01*
X163905320Y-75175895D01*
X163795006Y-75116930D01*
X163675308Y-75080620D01*
X163550826Y-75068360D01*
X162050826Y-75068360D01*
X161926344Y-75080620D01*
X161806646Y-75116930D01*
X161696332Y-75175895D01*
X161599641Y-75255247D01*
X161520289Y-75351938D01*
X161461324Y-75462252D01*
X161425014Y-75581950D01*
X161412754Y-75706432D01*
X161412754Y-76706432D01*
X161425014Y-76830914D01*
X161461324Y-76950612D01*
X161520289Y-77060926D01*
X161599641Y-77157617D01*
X161696332Y-77236969D01*
X161806646Y-77295934D01*
X161926344Y-77332244D01*
X162050826Y-77344504D01*
X162864096Y-77344504D01*
X163115828Y-77596236D01*
X163115828Y-78268360D01*
X162050826Y-78268360D01*
X162019634Y-78271432D01*
X161520958Y-78271432D01*
X160622980Y-77373455D01*
X160587433Y-77330141D01*
X160414607Y-77188306D01*
X160217431Y-77082914D01*
X160003483Y-77018013D01*
X159836736Y-77001590D01*
X159836735Y-77001590D01*
X159780984Y-76996099D01*
X159725233Y-77001590D01*
X159213079Y-77001590D01*
X159240328Y-76950612D01*
X159276638Y-76830914D01*
X159288898Y-76706432D01*
X159285826Y-76492182D01*
X159127076Y-76333432D01*
X158027826Y-76333432D01*
X158027826Y-76353432D01*
X157773826Y-76353432D01*
X157773826Y-76333432D01*
X156674576Y-76333432D01*
X156575508Y-76432500D01*
X155575000Y-76432500D01*
X155575000Y-76452500D01*
X155321000Y-76452500D01*
X155321000Y-76432500D01*
X154246750Y-76432500D01*
X154088000Y-76591250D01*
X154084928Y-76893000D01*
X154087774Y-76921897D01*
X153082080Y-75916204D01*
X153046534Y-75872891D01*
X152873708Y-75731056D01*
X152849282Y-75718000D01*
X154084928Y-75718000D01*
X154088000Y-76019750D01*
X154246750Y-76178500D01*
X155321000Y-76178500D01*
X155321000Y-75241750D01*
X155575000Y-75241750D01*
X155575000Y-76178500D01*
X156649250Y-76178500D01*
X156748318Y-76079432D01*
X157773826Y-76079432D01*
X157773826Y-75230182D01*
X158027826Y-75230182D01*
X158027826Y-76079432D01*
X159127076Y-76079432D01*
X159285826Y-75920682D01*
X159288898Y-75706432D01*
X159276638Y-75581950D01*
X159240328Y-75462252D01*
X159181363Y-75351938D01*
X159102011Y-75255247D01*
X159005320Y-75175895D01*
X158895006Y-75116930D01*
X158775308Y-75080620D01*
X158650826Y-75068360D01*
X158186576Y-75071432D01*
X158027826Y-75230182D01*
X157773826Y-75230182D01*
X157615076Y-75071432D01*
X157150826Y-75068360D01*
X157026344Y-75080620D01*
X156906646Y-75116930D01*
X156796332Y-75175895D01*
X156699641Y-75255247D01*
X156657166Y-75307003D01*
X156624185Y-75266815D01*
X156527494Y-75187463D01*
X156417180Y-75128498D01*
X156297482Y-75092188D01*
X156173000Y-75079928D01*
X155733750Y-75083000D01*
X155575000Y-75241750D01*
X155321000Y-75241750D01*
X155162250Y-75083000D01*
X154723000Y-75079928D01*
X154598518Y-75092188D01*
X154478820Y-75128498D01*
X154368506Y-75187463D01*
X154271815Y-75266815D01*
X154192463Y-75363506D01*
X154133498Y-75473820D01*
X154097188Y-75593518D01*
X154084928Y-75718000D01*
X152849282Y-75718000D01*
X152676532Y-75625664D01*
X152462584Y-75560763D01*
X152295837Y-75544340D01*
X152295836Y-75544340D01*
X152240085Y-75538849D01*
X152184334Y-75544340D01*
X151807768Y-75544340D01*
X151770622Y-75474846D01*
X151691270Y-75378155D01*
X151594579Y-75298803D01*
X151484265Y-75239838D01*
X151364567Y-75203528D01*
X151240085Y-75191268D01*
X149540085Y-75191268D01*
X149415603Y-75203528D01*
X149295905Y-75239838D01*
X149185591Y-75298803D01*
X149088900Y-75378155D01*
X149009548Y-75474846D01*
X148950583Y-75585160D01*
X148926119Y-75665806D01*
X148850354Y-75581752D01*
X148617005Y-75407699D01*
X148354184Y-75282515D01*
X148206975Y-75237864D01*
X147977085Y-75359185D01*
X147977085Y-76552340D01*
X147997085Y-76552340D01*
X147997085Y-76806340D01*
X147977085Y-76806340D01*
X147977085Y-76826340D01*
X147723085Y-76826340D01*
X147723085Y-76806340D01*
X147703085Y-76806340D01*
X147703085Y-76552340D01*
X147723085Y-76552340D01*
X147723085Y-75359185D01*
X147493195Y-75237864D01*
X147345986Y-75282515D01*
X147083165Y-75407699D01*
X146849816Y-75581752D01*
X146654907Y-75797985D01*
X146585280Y-75914874D01*
X146463560Y-75732708D01*
X146256717Y-75525865D01*
X146013496Y-75363350D01*
X145743243Y-75251408D01*
X145456345Y-75194340D01*
X145163825Y-75194340D01*
X144876927Y-75251408D01*
X144606674Y-75363350D01*
X144363453Y-75525865D01*
X144156610Y-75732708D01*
X143994095Y-75975929D01*
X143882153Y-76246182D01*
X143825085Y-76533080D01*
X143102564Y-76533080D01*
X143068310Y-76360875D01*
X142899831Y-75954131D01*
X142655238Y-75588071D01*
X142343929Y-75276762D01*
X141977869Y-75032169D01*
X141708375Y-74920541D01*
X174375016Y-74903527D01*
X170705072Y-86192267D01*
G37*
%TD.AperFunction*%
D18*
X165178718Y-89074025D02*
X165172537Y-89093047D01*
X165191558Y-89099227D01*
X165113069Y-89340796D01*
X165094047Y-89334615D01*
X165087867Y-89353636D01*
X164846298Y-89275147D01*
X164852479Y-89256125D01*
X164833458Y-89249945D01*
X164911947Y-89008376D01*
X164930969Y-89014557D01*
X164937149Y-88995536D01*
X165178718Y-89074025D01*
%TA.AperFunction,Conductor*%
D19*
G36*
X165178718Y-89074025D02*
G01*
X165172537Y-89093047D01*
X165191558Y-89099227D01*
X165113069Y-89340796D01*
X165094047Y-89334615D01*
X165087867Y-89353636D01*
X164846298Y-89275147D01*
X164852479Y-89256125D01*
X164833458Y-89249945D01*
X164911947Y-89008376D01*
X164930969Y-89014557D01*
X164937149Y-88995536D01*
X165178718Y-89074025D01*
G37*
%TD.AperFunction*%
%TD*%
M02*
