%TF.GenerationSoftware,KiCad,Pcbnew,5.1.9*%
%TF.CreationDate,2021-01-25T14:04:14-05:00*%
%TF.ProjectId,penrosedart,70656e72-6f73-4656-9461-72742e6b6963,rev?*%
%TF.SameCoordinates,Original*%
%TF.FileFunction,Soldermask,Top*%
%TF.FilePolarity,Negative*%
%FSLAX46Y46*%
G04 Gerber Fmt 4.6, Leading zero omitted, Abs format (unit mm)*
G04 Created by KiCad (PCBNEW 5.1.9) date 2021-01-25 14:04:14*
%MOMM*%
%LPD*%
G01*
G04 APERTURE LIST*
%ADD10C,3.200000*%
%ADD11C,0.100000*%
%ADD12C,1.150000*%
%ADD13R,1.500000X1.000000*%
%ADD14O,1.700000X1.700000*%
%ADD15R,1.700000X1.700000*%
G04 APERTURE END LIST*
D10*
%TO.C,M3*%
X152196800Y-90474800D03*
%TD*%
%TO.C,M3*%
X162001200Y-106248200D03*
%TD*%
%TO.C,M3*%
X167030400Y-80238600D03*
%TD*%
%TO.C,M3*%
X140919200Y-77012800D03*
%TD*%
%TO.C,J1*%
G36*
G01*
X135750333Y-77567649D02*
X135750333Y-77567649D01*
G75*
G02*
X135938380Y-78754930I-499617J-687664D01*
G01*
X135938380Y-78754930D01*
G75*
G02*
X134751099Y-78942977I-687664J499617D01*
G01*
X134751099Y-78942977D01*
G75*
G02*
X134563052Y-77755696I499617J687664D01*
G01*
X134563052Y-77755696D01*
G75*
G02*
X135750333Y-77567649I687664J-499617D01*
G01*
G37*
G36*
G01*
X137805236Y-79060623D02*
X137805236Y-79060623D01*
G75*
G02*
X137993283Y-80247904I-499617J-687664D01*
G01*
X137993283Y-80247904D01*
G75*
G02*
X136806002Y-80435951I-687664J499617D01*
G01*
X136806002Y-80435951D01*
G75*
G02*
X136617955Y-79248670I499617J687664D01*
G01*
X136617955Y-79248670D01*
G75*
G02*
X137805236Y-79060623I687664J-499617D01*
G01*
G37*
D11*
G36*
X139172475Y-80053980D02*
G01*
X140547804Y-81053215D01*
X139548569Y-82428544D01*
X138173240Y-81429309D01*
X139172475Y-80053980D01*
G37*
%TD*%
D12*
%TO.C,MH*%
X169418000Y-78486000D03*
%TD*%
%TO.C,C1*%
G36*
G01*
X143295187Y-81652340D02*
X142526620Y-81093944D01*
G75*
G02*
X142471312Y-80744744I146946J202254D01*
G01*
X142868067Y-80198658D01*
G75*
G02*
X143217267Y-80143350I202254J-146946D01*
G01*
X143985834Y-80701746D01*
G75*
G02*
X144041142Y-81050946I-146946J-202254D01*
G01*
X143644387Y-81597032D01*
G75*
G02*
X143295187Y-81652340I-202254J146946D01*
G01*
G37*
G36*
G01*
X142075533Y-83331050D02*
X141306966Y-82772654D01*
G75*
G02*
X141251658Y-82423454I146946J202254D01*
G01*
X141648413Y-81877368D01*
G75*
G02*
X141997613Y-81822060I202254J-146946D01*
G01*
X142766180Y-82380456D01*
G75*
G02*
X142821488Y-82729656I-146946J-202254D01*
G01*
X142424733Y-83275742D01*
G75*
G02*
X142075533Y-83331050I-202254J146946D01*
G01*
G37*
%TD*%
%TO.C,C2*%
G36*
G01*
X166817650Y-91414200D02*
X166524084Y-92317704D01*
G75*
G02*
X166209066Y-92478214I-237764J77254D01*
G01*
X165567102Y-92269628D01*
G75*
G02*
X165406592Y-91954610I77254J237764D01*
G01*
X165700158Y-91051106D01*
G75*
G02*
X166015176Y-90890596I237764J-77254D01*
G01*
X166657140Y-91099182D01*
G75*
G02*
X166817650Y-91414200I-77254J-237764D01*
G01*
G37*
G36*
G01*
X164844208Y-90772990D02*
X164550642Y-91676494D01*
G75*
G02*
X164235624Y-91837004I-237764J77254D01*
G01*
X163593660Y-91628418D01*
G75*
G02*
X163433150Y-91313400I77254J237764D01*
G01*
X163726716Y-90409896D01*
G75*
G02*
X164041734Y-90249386I237764J-77254D01*
G01*
X164683698Y-90457972D01*
G75*
G02*
X164844208Y-90772990I-77254J-237764D01*
G01*
G37*
%TD*%
%TO.C,C3*%
G36*
G01*
X155870358Y-94267294D02*
X155576792Y-93363790D01*
G75*
G02*
X155737302Y-93048772I237764J77254D01*
G01*
X156379266Y-92840186D01*
G75*
G02*
X156694284Y-93000696I77254J-237764D01*
G01*
X156987850Y-93904200D01*
G75*
G02*
X156827340Y-94219218I-237764J-77254D01*
G01*
X156185376Y-94427804D01*
G75*
G02*
X155870358Y-94267294I-77254J237764D01*
G01*
G37*
G36*
G01*
X153896916Y-94908504D02*
X153603350Y-94005000D01*
G75*
G02*
X153763860Y-93689982I237764J77254D01*
G01*
X154405824Y-93481396D01*
G75*
G02*
X154720842Y-93641906I77254J-237764D01*
G01*
X155014408Y-94545410D01*
G75*
G02*
X154853898Y-94860428I-237764J-77254D01*
G01*
X154211934Y-95069014D01*
G75*
G02*
X153896916Y-94908504I-77254J237764D01*
G01*
G37*
%TD*%
%TO.C,C4*%
G36*
G01*
X155923000Y-78968000D02*
X154973000Y-78968000D01*
G75*
G02*
X154723000Y-78718000I0J250000D01*
G01*
X154723000Y-78043000D01*
G75*
G02*
X154973000Y-77793000I250000J0D01*
G01*
X155923000Y-77793000D01*
G75*
G02*
X156173000Y-78043000I0J-250000D01*
G01*
X156173000Y-78718000D01*
G75*
G02*
X155923000Y-78968000I-250000J0D01*
G01*
G37*
G36*
G01*
X155923000Y-76893000D02*
X154973000Y-76893000D01*
G75*
G02*
X154723000Y-76643000I0J250000D01*
G01*
X154723000Y-75968000D01*
G75*
G02*
X154973000Y-75718000I250000J0D01*
G01*
X155923000Y-75718000D01*
G75*
G02*
X156173000Y-75968000I0J-250000D01*
G01*
X156173000Y-76643000D01*
G75*
G02*
X155923000Y-76893000I-250000J0D01*
G01*
G37*
%TD*%
D11*
%TO.C,D1*%
G36*
X147949478Y-87799901D02*
G01*
X147361693Y-88608918D01*
X146148168Y-87727241D01*
X146735953Y-86918224D01*
X147949478Y-87799901D01*
G37*
G36*
X149830391Y-85211047D02*
G01*
X149242606Y-86020064D01*
X148029081Y-85138387D01*
X148616866Y-84329370D01*
X149830391Y-85211047D01*
G37*
G36*
X143985295Y-84919753D02*
G01*
X143397510Y-85728770D01*
X142183985Y-84847093D01*
X142771770Y-84038076D01*
X143985295Y-84919753D01*
G37*
G36*
X145866208Y-82330899D02*
G01*
X145278423Y-83139916D01*
X144064898Y-82258239D01*
X144652683Y-81449222D01*
X145866208Y-82330899D01*
G37*
%TD*%
%TO.C,D2*%
G36*
X164768742Y-88306785D02*
G01*
X165719799Y-88615802D01*
X165256274Y-90042387D01*
X164305217Y-89733370D01*
X164768742Y-88306785D01*
G37*
G36*
X167812123Y-89295640D02*
G01*
X168763180Y-89604657D01*
X168299655Y-91031242D01*
X167348598Y-90722225D01*
X167812123Y-89295640D01*
G37*
G36*
X166282925Y-83646608D02*
G01*
X167233982Y-83955625D01*
X166770457Y-85382210D01*
X165819400Y-85073193D01*
X166282925Y-83646608D01*
G37*
G36*
X169326306Y-84635463D02*
G01*
X170277363Y-84944480D01*
X169813838Y-86371065D01*
X168862781Y-86062048D01*
X169326306Y-84635463D01*
G37*
%TD*%
%TO.C,D3*%
G36*
X157461615Y-96482885D02*
G01*
X156510558Y-96791902D01*
X156047033Y-95365317D01*
X156998090Y-95056300D01*
X157461615Y-96482885D01*
G37*
G36*
X154418234Y-97471740D02*
G01*
X153467177Y-97780757D01*
X153003652Y-96354172D01*
X153954709Y-96045155D01*
X154418234Y-97471740D01*
G37*
G36*
X158975798Y-101143062D02*
G01*
X158024741Y-101452079D01*
X157561216Y-100025494D01*
X158512273Y-99716477D01*
X158975798Y-101143062D01*
G37*
G36*
X155932417Y-102131917D02*
G01*
X154981360Y-102440934D01*
X154517835Y-101014349D01*
X155468892Y-100705332D01*
X155932417Y-102131917D01*
G37*
%TD*%
D13*
%TO.C,D4*%
X162800826Y-79406432D03*
X162800826Y-76206432D03*
X157900826Y-79406432D03*
X157900826Y-76206432D03*
%TD*%
D11*
%TO.C,J2*%
G36*
X164212856Y-97707416D02*
G01*
X164738184Y-96090620D01*
X166354980Y-96615948D01*
X165829652Y-98232744D01*
X164212856Y-97707416D01*
G37*
G36*
G01*
X163690617Y-99314702D02*
X163690617Y-99314702D01*
G75*
G02*
X164761679Y-98768968I808398J-262664D01*
G01*
X164761679Y-98768968D01*
G75*
G02*
X165307413Y-99840030I-262664J-808398D01*
G01*
X165307413Y-99840030D01*
G75*
G02*
X164236351Y-100385764I-808398J262664D01*
G01*
X164236351Y-100385764D01*
G75*
G02*
X163690617Y-99314702I262664J808398D01*
G01*
G37*
G36*
G01*
X162905714Y-101730385D02*
X162905714Y-101730385D01*
G75*
G02*
X163976776Y-101184651I808398J-262664D01*
G01*
X163976776Y-101184651D01*
G75*
G02*
X164522510Y-102255713I-262664J-808398D01*
G01*
X164522510Y-102255713D01*
G75*
G02*
X163451448Y-102801447I-808398J262664D01*
G01*
X163451448Y-102801447D01*
G75*
G02*
X162905714Y-101730385I262664J808398D01*
G01*
G37*
%TD*%
%TO.C,J3*%
G36*
X156993925Y-107312459D02*
G01*
X156468597Y-105695663D01*
X158085393Y-105170335D01*
X158610721Y-106787131D01*
X156993925Y-107312459D01*
G37*
G36*
G01*
X157516164Y-108919745D02*
X157516164Y-108919745D01*
G75*
G02*
X158061898Y-107848683I808398J262664D01*
G01*
X158061898Y-107848683D01*
G75*
G02*
X159132960Y-108394417I262664J-808398D01*
G01*
X159132960Y-108394417D01*
G75*
G02*
X158587226Y-109465479I-808398J-262664D01*
G01*
X158587226Y-109465479D01*
G75*
G02*
X157516164Y-108919745I-262664J808398D01*
G01*
G37*
G36*
G01*
X158301067Y-111335428D02*
X158301067Y-111335428D01*
G75*
G02*
X158846801Y-110264366I808398J262664D01*
G01*
X158846801Y-110264366D01*
G75*
G02*
X159917863Y-110810100I262664J-808398D01*
G01*
X159917863Y-110810100D01*
G75*
G02*
X159372129Y-111881162I-808398J-262664D01*
G01*
X159372129Y-111881162D01*
G75*
G02*
X158301067Y-111335428I-262664J808398D01*
G01*
G37*
%TD*%
D14*
%TO.C,J4*%
X145310085Y-76679340D03*
X147850085Y-76679340D03*
D15*
X150390085Y-76679340D03*
%TD*%
D11*
%TO.C,JP1*%
G36*
X160771070Y-90717145D02*
G01*
X161652747Y-91930670D01*
X160843730Y-92518455D01*
X159962053Y-91304930D01*
X160771070Y-90717145D01*
G37*
G36*
X160196163Y-92988197D02*
G01*
X160176315Y-93002617D01*
X160133982Y-93027428D01*
X160089422Y-93047971D01*
X160043062Y-93064047D01*
X159995350Y-93075502D01*
X159946746Y-93082224D01*
X159897716Y-93084152D01*
X159848734Y-93081263D01*
X159800269Y-93073586D01*
X159752792Y-93061198D01*
X159706757Y-93044214D01*
X159662608Y-93022801D01*
X159620771Y-92997163D01*
X159581648Y-92967548D01*
X159545617Y-92934240D01*
X159513024Y-92897562D01*
X159498603Y-92877714D01*
X159498116Y-92878068D01*
X159204223Y-92473559D01*
X159204710Y-92473206D01*
X159190289Y-92453357D01*
X159165479Y-92411025D01*
X159144935Y-92366465D01*
X159128860Y-92320105D01*
X159117404Y-92272393D01*
X159110683Y-92223788D01*
X159108755Y-92174758D01*
X159111644Y-92125776D01*
X159119320Y-92077311D01*
X159131709Y-92029834D01*
X159148693Y-91983799D01*
X159170106Y-91939651D01*
X159195744Y-91897814D01*
X159225359Y-91858691D01*
X159258667Y-91822660D01*
X159295344Y-91790066D01*
X159315193Y-91775645D01*
X159314839Y-91775158D01*
X159759798Y-91451876D01*
X160641476Y-92665402D01*
X160196517Y-92988684D01*
X160196163Y-92988197D01*
G37*
G36*
X160973324Y-90570198D02*
G01*
X161418283Y-90246916D01*
X161418637Y-90247403D01*
X161438485Y-90232983D01*
X161480818Y-90208172D01*
X161525378Y-90187629D01*
X161571738Y-90171553D01*
X161619450Y-90160098D01*
X161668054Y-90153376D01*
X161717084Y-90151448D01*
X161766066Y-90154337D01*
X161814531Y-90162014D01*
X161862008Y-90174402D01*
X161908043Y-90191386D01*
X161952192Y-90212799D01*
X161994029Y-90238437D01*
X162033152Y-90268052D01*
X162069183Y-90301360D01*
X162101776Y-90338038D01*
X162116197Y-90357886D01*
X162116684Y-90357532D01*
X162410577Y-90762041D01*
X162410090Y-90762394D01*
X162424511Y-90782243D01*
X162449321Y-90824575D01*
X162469865Y-90869135D01*
X162485940Y-90915495D01*
X162497396Y-90963207D01*
X162504117Y-91011812D01*
X162506045Y-91060842D01*
X162503156Y-91109824D01*
X162495480Y-91158289D01*
X162483091Y-91205766D01*
X162466107Y-91251801D01*
X162444694Y-91295949D01*
X162419056Y-91337786D01*
X162389441Y-91376909D01*
X162356133Y-91412940D01*
X162319456Y-91445534D01*
X162299607Y-91459955D01*
X162299961Y-91460442D01*
X161855002Y-91783724D01*
X160973324Y-90570198D01*
G37*
%TD*%
%TO.C,JP2*%
G36*
X153835924Y-81756398D02*
G01*
X154280883Y-81433116D01*
X154281237Y-81433603D01*
X154301085Y-81419183D01*
X154343418Y-81394372D01*
X154387978Y-81373829D01*
X154434338Y-81357753D01*
X154482050Y-81346298D01*
X154530654Y-81339576D01*
X154579684Y-81337648D01*
X154628666Y-81340537D01*
X154677131Y-81348214D01*
X154724608Y-81360602D01*
X154770643Y-81377586D01*
X154814792Y-81398999D01*
X154856629Y-81424637D01*
X154895752Y-81454252D01*
X154931783Y-81487560D01*
X154964376Y-81524238D01*
X154978797Y-81544086D01*
X154979284Y-81543732D01*
X155273177Y-81948241D01*
X155272690Y-81948594D01*
X155287111Y-81968443D01*
X155311921Y-82010775D01*
X155332465Y-82055335D01*
X155348540Y-82101695D01*
X155359996Y-82149407D01*
X155366717Y-82198012D01*
X155368645Y-82247042D01*
X155365756Y-82296024D01*
X155358080Y-82344489D01*
X155345691Y-82391966D01*
X155328707Y-82438001D01*
X155307294Y-82482149D01*
X155281656Y-82523986D01*
X155252041Y-82563109D01*
X155218733Y-82599140D01*
X155182056Y-82631734D01*
X155162207Y-82646155D01*
X155162561Y-82646642D01*
X154717602Y-82969924D01*
X153835924Y-81756398D01*
G37*
G36*
X153058763Y-84174397D02*
G01*
X153038915Y-84188817D01*
X152996582Y-84213628D01*
X152952022Y-84234171D01*
X152905662Y-84250247D01*
X152857950Y-84261702D01*
X152809346Y-84268424D01*
X152760316Y-84270352D01*
X152711334Y-84267463D01*
X152662869Y-84259786D01*
X152615392Y-84247398D01*
X152569357Y-84230414D01*
X152525208Y-84209001D01*
X152483371Y-84183363D01*
X152444248Y-84153748D01*
X152408217Y-84120440D01*
X152375624Y-84083762D01*
X152361203Y-84063914D01*
X152360716Y-84064268D01*
X152066823Y-83659759D01*
X152067310Y-83659406D01*
X152052889Y-83639557D01*
X152028079Y-83597225D01*
X152007535Y-83552665D01*
X151991460Y-83506305D01*
X151980004Y-83458593D01*
X151973283Y-83409988D01*
X151971355Y-83360958D01*
X151974244Y-83311976D01*
X151981920Y-83263511D01*
X151994309Y-83216034D01*
X152011293Y-83169999D01*
X152032706Y-83125851D01*
X152058344Y-83084014D01*
X152087959Y-83044891D01*
X152121267Y-83008860D01*
X152157944Y-82976266D01*
X152177793Y-82961845D01*
X152177439Y-82961358D01*
X152622398Y-82638076D01*
X153504076Y-83851602D01*
X153059117Y-84174884D01*
X153058763Y-84174397D01*
G37*
G36*
X153633670Y-81903345D02*
G01*
X154515347Y-83116870D01*
X153706330Y-83704655D01*
X152824653Y-82491130D01*
X153633670Y-81903345D01*
G37*
%TD*%
%TO.C,SW1*%
G36*
X157458999Y-82647554D02*
G01*
X158348918Y-82000991D01*
X159495099Y-83578574D01*
X158605180Y-84225137D01*
X157458999Y-82647554D01*
G37*
G36*
X155436457Y-84117017D02*
G01*
X156326376Y-83470454D01*
X157472557Y-85048037D01*
X156582638Y-85694600D01*
X155436457Y-84117017D01*
G37*
G36*
X153413914Y-85586480D02*
G01*
X154303833Y-84939917D01*
X155450014Y-86517500D01*
X154560095Y-87164063D01*
X153413914Y-85586480D01*
G37*
G36*
X160779986Y-87218500D02*
G01*
X161669905Y-86571937D01*
X162816086Y-88149520D01*
X161926167Y-88796083D01*
X160779986Y-87218500D01*
G37*
G36*
X158757443Y-88687963D02*
G01*
X159647362Y-88041400D01*
X160793543Y-89618983D01*
X159903624Y-90265546D01*
X158757443Y-88687963D01*
G37*
G36*
X156734901Y-90157426D02*
G01*
X157624820Y-89510863D01*
X158771001Y-91088446D01*
X157881082Y-91735009D01*
X156734901Y-90157426D01*
G37*
%TD*%
M02*
