<?xml version="1.0" standalone="no"?>
 <!DOCTYPE svg PUBLIC "-//W3C//DTD SVG 1.1//EN" 
 "http://www.w3.org/Graphics/SVG/1.1/DTD/svg11.dtd"> 
<svg
  xmlns:svg="http://www.w3.org/2000/svg"
  xmlns="http://www.w3.org/2000/svg"
  xmlns:xlink="http://www.w3.org/1999/xlink"
  version="1.1"
  width="5.298440cm" height="4.772660cm" viewBox="0 0 20860 18790">
<title>SVG Picture created as penroserombus_thick_40mm-brd.svg date 2020/12/31 14:43:40 </title>
  <desc>Picture generated by PCBNEW </desc>
<g style="fill:#000000; fill-opacity:1;stroke:#000000; stroke-opacity:1;
stroke-linecap:round; stroke-linejoin:round;"
 transform="translate(0 0) scale(1 1)">
</g>
<g style="fill:#000000; fill-opacity:0.0; 
stroke:#000000; stroke-width:-0.000393701; stroke-opacity:1; 
stroke-linecap:round; stroke-linejoin:round;">
<g >
</g>
<g style="fill:#848400; fill-opacity:0.0; 
stroke:#848400; stroke-width:-0.000393701; stroke-opacity:1; 
stroke-linecap:round; stroke-linejoin:round;">
</g>
<g style="fill:#848400; fill-opacity:1.0; 
stroke:#848400; stroke-width:0; stroke-opacity:1; 
stroke-linecap:round; stroke-linejoin:round;">
<circle cx="6730.33" cy="3920.28" r="300" /> 
</g>
<g style="fill:#848400; fill-opacity:1.0; 
stroke:#848400; stroke-width:39.3701; stroke-opacity:1; 
stroke-linecap:round; stroke-linejoin:round;">
</g>
<g >
</g>
<g style="fill:#848400; fill-opacity:1.0; 
stroke:#848400; stroke-width:39.3701; stroke-opacity:1; 
stroke-linecap:round; stroke-linejoin:round;">
</g>
<g style="fill:#848400; fill-opacity:1.0; 
stroke:#848400; stroke-width:0; stroke-opacity:1; 
stroke-linecap:round; stroke-linejoin:round;">
<circle cx="14230.3" cy="14670.3" r="300" /> 
</g>
<g style="fill:#848400; fill-opacity:1.0; 
stroke:#848400; stroke-width:39.3701; stroke-opacity:1; 
stroke-linecap:round; stroke-linejoin:round;">
</g>
<g >
</g>
<g style="fill:#840000; fill-opacity:1.0; 
stroke:#840000; stroke-width:39.3701; stroke-opacity:1; 
stroke-linecap:round; stroke-linejoin:round;">
</g>
<g style="fill:#840000; fill-opacity:1.0; 
stroke:#840000; stroke-width:0; stroke-opacity:1; 
stroke-linecap:round; stroke-linejoin:round;">
<path style="fill:#840000; fill-opacity:1.0; 
stroke:#840000; stroke-width:0; stroke-opacity:1; 
stroke-linecap:round; stroke-linejoin:round;fill-rule:evenodd;"
d="M 11373.7,7775.23
11023.3,8029.78
10572.1,7408.68
10922.4,7154.13
Z" /> 
<path style="fill:#840000; fill-opacity:1.0; 
stroke:#840000; stroke-width:0; stroke-opacity:1; 
stroke-linecap:round; stroke-linejoin:round;fill-rule:evenodd;"
d="M 10577.4,8353.75
10227,8608.31
9775.79,7987.21
10126.1,7732.66
Z" /> 
<path style="fill:#840000; fill-opacity:1.0; 
stroke:#840000; stroke-width:0; stroke-opacity:1; 
stroke-linecap:round; stroke-linejoin:round;fill-rule:evenodd;"
d="M 9781.12,8932.28
9430.76,9186.84
8979.51,8565.74
9329.87,8311.19
Z" /> 
<path style="fill:#840000; fill-opacity:1.0; 
stroke:#840000; stroke-width:0; stroke-opacity:1; 
stroke-linecap:round; stroke-linejoin:round;fill-rule:evenodd;"
d="M 12681.2,9574.81
12330.8,9829.36
11879.5,9208.27
12229.9,8953.72
Z" /> 
<path style="fill:#840000; fill-opacity:1.0; 
stroke:#840000; stroke-width:0; stroke-opacity:1; 
stroke-linecap:round; stroke-linejoin:round;fill-rule:evenodd;"
d="M 11884.9,10153.3
11534.5,10407.9
11083.3,9786.8
11433.6,9532.24
Z" /> 
<path style="fill:#840000; fill-opacity:1.0; 
stroke:#840000; stroke-width:0; stroke-opacity:1; 
stroke-linecap:round; stroke-linejoin:round;fill-rule:evenodd;"
d="M 11088.6,10731.9
10738.2,10986.4
10287,10365.3
10637.3,10110.8
Z" /> 
</g>
<g >
</g>
<g style="fill:#840000; fill-opacity:1.0; 
stroke:#840000; stroke-width:0; stroke-opacity:1; 
stroke-linecap:round; stroke-linejoin:round;">
<path style="fill:#840000; fill-opacity:1.0; 
stroke:#840000; stroke-width:0; stroke-opacity:1; 
stroke-linecap:round; stroke-linejoin:round;fill-rule:evenodd;"
d="M 15949.4,5785.06
15959,5786.1
15968.5,5788.08
15977.7,5790.97
15986.6,5794.75
15995,5799.39
16003,5804.84
16010.4,5811.04
16017.2,5817.93
16023.2,5825.46
16179.4,6040.45
16184.7,6048.54
16189.2,6057.1
16192.8,6066.06
16195.5,6075.33
16197.3,6084.82
16198.2,6094.44
16198.1,6104.1
16197,6113.7
16195.1,6123.16
16192.2,6132.37
16188.4,6141.26
16183.7,6149.73
16178.3,6157.71
16172.1,6165.12
16165.2,6171.88
16157.7,6177.93
15855.1,6397.78
15847,6403.06
15838.4,6407.53
15829.5,6411.14
15820.2,6413.85
15810.7,6415.64
15801.1,6416.5
15791.4,6416.4
15781.8,6415.36
15772.4,6413.38
15763.2,6410.49
15754.3,6406.71
15745.8,6402.07
15737.8,6396.62
15730.4,6390.42
15723.7,6383.53
15717.6,6376
15561.4,6161.01
15556.1,6152.92
15551.6,6144.36
15548,6135.4
15545.3,6126.13
15543.5,6116.64
15542.7,6107.02
15542.8,6097.36
15543.8,6087.76
15545.8,6078.3
15548.7,6069.09
15552.5,6060.2
15557.1,6051.73
15562.5,6043.75
15568.8,6036.34
15575.6,6029.58
15583.2,6023.53
15885.8,5803.69
15893.8,5798.4
15902.4,5793.93
15911.4,5790.32
15920.6,5787.61
15930.1,5785.82
15939.7,5784.96
Z" /> 
<path style="fill:#840000; fill-opacity:1.0; 
stroke:#840000; stroke-width:0; stroke-opacity:1; 
stroke-linecap:round; stroke-linejoin:round;fill-rule:evenodd;"
d="M 15469.2,5124.15
15478.8,5125.19
15488.3,5127.17
15497.5,5130.06
15506.4,5133.85
15514.9,5138.48
15522.8,5143.93
15530.2,5150.13
15537,5157.02
15543.1,5164.55
15699.3,5379.54
15704.6,5387.63
15709,5396.19
15712.6,5405.15
15715.3,5414.42
15717.1,5423.91
15718,5433.53
15717.9,5443.19
15716.8,5452.79
15714.9,5462.25
15712,5471.46
15708.2,5480.35
15703.6,5488.82
15698.1,5496.8
15691.9,5504.21
15685,5510.97
15677.5,5517.03
15374.9,5736.87
15366.8,5742.15
15358.3,5746.62
15349.3,5750.23
15340,5752.94
15330.5,5754.74
15320.9,5755.59
15311.3,5755.49
15301.7,5754.45
15292.2,5752.47
15283,5749.58
15274.1,5745.8
15265.6,5741.16
15257.6,5735.71
15250.2,5729.51
15243.5,5722.62
15237.4,5715.09
15081.2,5500.1
15075.9,5492.01
15071.5,5483.45
15067.9,5474.49
15065.1,5465.22
15063.4,5455.73
15062.5,5446.11
15062.6,5436.45
15063.6,5426.85
15065.6,5417.39
15068.5,5408.18
15072.3,5399.29
15076.9,5390.82
15082.4,5382.84
15088.6,5375.43
15095.5,5368.67
15103,5362.62
15405.6,5142.78
15413.7,5137.49
15422.2,5133.02
15431.2,5129.41
15440.5,5126.7
15449.9,5124.91
15459.6,5124.05
Z" /> 
</g>
<g >
</g>
<g style="fill:#840000; fill-opacity:1.0; 
stroke:#840000; stroke-width:0; stroke-opacity:1; 
stroke-linecap:round; stroke-linejoin:round;">
<path style="fill:#840000; fill-opacity:1.0; 
stroke:#840000; stroke-width:0; stroke-opacity:1; 
stroke-linecap:round; stroke-linejoin:round;fill-rule:evenodd;"
d="M 8103.25,12782.7
8112.85,12783.8
8122.3,12785.7
8131.52,12788.6
8140.41,12792.4
8148.88,12797
8156.86,12802.5
8164.26,12808.7
8171.03,12815.6
8177.08,12823.1
8396.92,13125.7
8402.21,13133.8
8406.68,13142.3
8410.29,13151.3
8413,13160.6
8414.79,13170.1
8415.64,13179.7
8415.55,13189.4
8414.51,13199
8412.53,13208.4
8409.64,13217.6
8405.85,13226.5
8401.22,13235
8395.77,13243
8389.57,13250.4
8382.67,13257.1
8375.15,13263.2
8160.15,13419.4
8152.07,13424.7
8143.51,13429.1
8134.55,13432.8
8125.28,13435.5
8115.79,13437.3
8106.16,13438.1
8096.51,13438
8086.9,13437
8077.45,13435
8068.23,13432.1
8059.35,13428.3
8050.87,13423.7
8042.89,13418.2
8035.49,13412
8028.73,13405.1
8022.67,13397.6
7802.83,13095
7797.54,13086.9
7793.07,13078.4
7789.47,13069.4
7786.75,13060.2
7784.96,13050.7
7784.11,13041
7784.2,13031.4
7785.25,13021.8
7787.22,13012.3
7790.12,13003.1
7793.9,12994.2
7798.54,12985.7
7803.98,12977.8
7810.18,12970.4
7817.08,12963.6
7824.61,12957.5
8039.6,12801.3
8047.68,12796.1
8056.25,12791.6
8065.21,12788
8074.48,12785.3
8083.97,12783.5
8093.59,12782.6
Z" /> 
<path style="fill:#840000; fill-opacity:1.0; 
stroke:#840000; stroke-width:0; stroke-opacity:1; 
stroke-linecap:round; stroke-linejoin:round;fill-rule:evenodd;"
d="M 8764.16,12302.5
8773.76,12303.6
8783.21,12305.6
8792.43,12308.5
8801.32,12312.2
8809.79,12316.9
8817.77,12322.3
8825.17,12328.5
8831.94,12335.4
8837.99,12342.9
9057.83,12645.5
9063.12,12653.6
9067.59,12662.2
9071.2,12671.1
9073.91,12680.4
9075.7,12689.9
9076.55,12699.5
9076.46,12709.2
9075.42,12718.8
9073.44,12728.2
9070.55,12737.4
9066.76,12746.3
9062.12,12754.8
9056.68,12762.8
9050.48,12770.2
9043.58,12777
9036.06,12783
8821.06,12939.2
8812.98,12944.5
8804.42,12949
8795.46,12952.6
8786.19,12955.3
8776.69,12957.1
8767.07,12957.9
8757.41,12957.8
8747.81,12956.8
8738.36,12954.8
8729.14,12951.9
8720.26,12948.1
8711.78,12943.5
8703.8,12938.1
8696.4,12931.9
8689.64,12925
8683.58,12917.4
8463.74,12614.8
8458.45,12606.8
8453.98,12598.2
8450.38,12589.2
8447.66,12580
8445.87,12570.5
8445.02,12560.9
8445.11,12551.2
8446.15,12541.6
8448.13,12532.1
8451.03,12522.9
8454.81,12514
8459.45,12505.6
8464.89,12497.6
8471.09,12490.2
8477.99,12483.4
8485.52,12477.4
8700.51,12321.2
8708.59,12315.9
8717.16,12311.4
8726.12,12307.8
8735.39,12305.1
8744.88,12303.3
8754.5,12302.4
Z" /> 
</g>
<g >
</g>
<g style="fill:#840000; fill-opacity:1.0; 
stroke:#840000; stroke-width:0; stroke-opacity:1; 
stroke-linecap:round; stroke-linejoin:round;">
<path style="fill:#840000; fill-opacity:1.0; 
stroke:#840000; stroke-width:0; stroke-opacity:1; 
stroke-linecap:round; stroke-linejoin:round;fill-rule:evenodd;"
d="M 14980.1,7053.92
14748.7,6735.41
15226.5,6388.29
15457.9,6706.8
Z" /> 
<path style="fill:#840000; fill-opacity:1.0; 
stroke:#840000; stroke-width:0; stroke-opacity:1; 
stroke-linecap:round; stroke-linejoin:round;fill-rule:evenodd;"
d="M 14239.6,6034.69
14008.2,5716.17
14485.9,5369.06
14717.4,5687.57
Z" /> 
<path style="fill:#840000; fill-opacity:1.0; 
stroke:#840000; stroke-width:0; stroke-opacity:1; 
stroke-linecap:round; stroke-linejoin:round;fill-rule:evenodd;"
d="M 13419.4,8187.84
13188,7869.32
13665.8,7522.21
13897.2,7840.72
Z" /> 
<path style="fill:#840000; fill-opacity:1.0; 
stroke:#840000; stroke-width:0; stroke-opacity:1; 
stroke-linecap:round; stroke-linejoin:round;fill-rule:evenodd;"
d="M 12678.9,7168.6
12447.5,6850.09
12925.2,6502.97
13156.6,6821.48
Z" /> 
</g>
<g >
</g>
<g style="fill:#840000; fill-opacity:1.0; 
stroke:#840000; stroke-width:0; stroke-opacity:1; 
stroke-linecap:round; stroke-linejoin:round;">
<path style="fill:#840000; fill-opacity:1.0; 
stroke:#840000; stroke-width:0; stroke-opacity:1; 
stroke-linecap:round; stroke-linejoin:round;fill-rule:evenodd;"
d="M 5807.4,12161
5575.99,11842.5
6053.76,11495.4
6285.17,11813.9
Z" /> 
<path style="fill:#840000; fill-opacity:1.0; 
stroke:#840000; stroke-width:0; stroke-opacity:1; 
stroke-linecap:round; stroke-linejoin:round;fill-rule:evenodd;"
d="M 6547.92,13180.3
6316.51,12861.7
6794.27,12514.6
7025.69,12833.1
Z" /> 
<path style="fill:#840000; fill-opacity:1.0; 
stroke:#840000; stroke-width:0; stroke-opacity:1; 
stroke-linecap:round; stroke-linejoin:round;fill-rule:evenodd;"
d="M 7368.1,11027.1
7136.69,10708.6
7614.46,10361.5
7845.87,10680
Z" /> 
<path style="fill:#840000; fill-opacity:1.0; 
stroke:#840000; stroke-width:0; stroke-opacity:1; 
stroke-linecap:round; stroke-linejoin:round;fill-rule:evenodd;"
d="M 8108.62,12046.3
7877.21,11727.8
8354.98,11380.7
8586.39,11699.2
Z" /> 
</g>
<g >
</g>
<g style="fill:#848400; fill-opacity:1.0; 
stroke:#848400; stroke-width:0; stroke-opacity:1; 
stroke-linecap:round; stroke-linejoin:round;">
<circle cx="16836.8" cy="10872.6" r="334.646" /> 
<circle cx="17145.8" cy="9921.56" r="334.646" /> 
<path style="fill:#848400; fill-opacity:1.0; 
stroke:#848400; stroke-width:0; stroke-opacity:1; 
stroke-linecap:round; stroke-linejoin:round;fill-rule:evenodd;"
d="M 17033.2,9185.36
17240,8548.83
17876.5,8755.65
17669.7,9392.18
Z" /> 
</g>
<g >
</g>
<g style="fill:#848400; fill-opacity:1.0; 
stroke:#848400; stroke-width:0; stroke-opacity:1; 
stroke-linecap:round; stroke-linejoin:round;">
<path style="fill:#848400; fill-opacity:1.0; 
stroke:#848400; stroke-width:0; stroke-opacity:1; 
stroke-linecap:round; stroke-linejoin:round;fill-rule:evenodd;"
d="M 7749.08,15444.4
8418.37,15444.4
8418.37,16113.7
7749.08,16113.7
Z" /> 
<circle cx="7083.72" cy="15779" r="334.646" /> 
<circle cx="6083.72" cy="15779" r="334.646" /> 
</g>
<g >
</g>
<g style="fill:#848400; fill-opacity:1.0; 
stroke:#848400; stroke-width:0; stroke-opacity:1; 
stroke-linecap:round; stroke-linejoin:round;">
<path style="fill:#848400; fill-opacity:1.0; 
stroke:#848400; stroke-width:0; stroke-opacity:1; 
stroke-linecap:round; stroke-linejoin:round;fill-rule:evenodd;"
d="M 12615.5,2435.63
13284.8,2435.63
13284.8,3104.92
12615.5,3104.92
Z" /> 
<circle cx="11950.1" cy="2770.28" r="334.646" /> 
<circle cx="10950.1" cy="2770.28" r="334.646" /> 
</g>
<g >
</g>
<g style="fill:#848400; fill-opacity:1.0; 
stroke:#848400; stroke-width:0; stroke-opacity:1; 
stroke-linecap:round; stroke-linejoin:round;">
<circle cx="2960.96" cy="11480.9" r="334.646" /> 
<circle cx="3269.98" cy="10529.9" r="334.646" /> 
<path style="fill:#848400; fill-opacity:1.0; 
stroke:#848400; stroke-width:0; stroke-opacity:1; 
stroke-linecap:round; stroke-linejoin:round;fill-rule:evenodd;"
d="M 3157.31,9793.66
3364.14,9157.13
4000.67,9363.95
3793.85,10000.5
Z" /> 
</g>
<g >
</g>
<g style="fill:#840000; fill-opacity:1.0; 
stroke:#840000; stroke-width:0; stroke-opacity:1; 
stroke-linecap:round; stroke-linejoin:round;">
<path style="fill:#840000; fill-opacity:1.0; 
stroke:#840000; stroke-width:0; stroke-opacity:1; 
stroke-linecap:round; stroke-linejoin:round;fill-rule:evenodd;"
d="M 9230.57,7225.7
8883.45,6747.93
9201.96,6516.52
9549.08,6994.29
Z" /> 
<path style="fill:#840000; fill-opacity:1.0; 
stroke:#840000; stroke-width:0; stroke-opacity:1; 
stroke-linecap:round; stroke-linejoin:round;fill-rule:evenodd;"
d="M 9456.91,6331.58
9464.73,6325.91
9481.39,6316.14
9498.94,6308.05
9517.19,6301.72
9535.97,6297.21
9555.11,6294.57
9574.41,6293.81
9593.69,6294.94
9612.78,6297.97
9631.47,6302.84
9649.59,6309.53
9666.97,6317.96
9683.44,6328.05
9698.85,6339.71
9713.03,6352.83
9725.86,6367.27
9731.54,6375.08
9731.73,6374.94
9847.44,6534.2
9847.25,6534.34
9852.93,6542.15
9862.69,6558.82
9870.78,6576.36
9877.11,6594.61
9881.62,6613.4
9884.27,6632.53
9885.03,6651.84
9883.89,6671.12
9880.87,6690.2
9875.99,6708.89
9869.3,6727.02
9860.87,6744.4
9850.78,6760.87
9839.12,6776.27
9826,6790.46
9811.56,6803.29
9803.75,6808.97
9803.89,6809.16
9628.71,6936.44
9281.59,6458.67
9456.77,6331.39
Z" /> 
<path style="fill:#840000; fill-opacity:1.0; 
stroke:#840000; stroke-width:0; stroke-opacity:1; 
stroke-linecap:round; stroke-linejoin:round;fill-rule:evenodd;"
d="M 9150.94,7283.55
8975.76,7410.83
8975.62,7410.64
8967.81,7416.31
8951.14,7426.08
8933.6,7434.17
8915.35,7440.5
8896.56,7445.01
8877.43,7447.66
8858.12,7448.41
8838.84,7447.28
8819.76,7444.25
8801.07,7439.38
8782.94,7432.69
8765.56,7424.26
8749.09,7414.17
8733.69,7402.51
8719.5,7389.39
8706.67,7374.95
8700.99,7367.14
8700.8,7367.28
8585.1,7208.02
8585.29,7207.88
8579.61,7200.07
8569.84,7183.4
8561.75,7165.86
8555.42,7147.61
8550.91,7128.82
8548.27,7109.69
8547.51,7090.39
8548.65,7071.1
8551.67,7052.02
8556.55,7033.33
8563.23,7015.2
8571.66,6997.82
8581.76,6981.35
8593.42,6965.95
8606.53,6951.76
8620.97,6938.93
8628.78,6933.25
8628.64,6933.06
8803.83,6805.79
Z" /> 
</g>
<g >
</g>
<g style="fill:#840000; fill-opacity:1.0; 
stroke:#840000; stroke-width:0; stroke-opacity:1; 
stroke-linecap:round; stroke-linejoin:round;">
<path style="fill:#840000; fill-opacity:1.0; 
stroke:#840000; stroke-width:0; stroke-opacity:1; 
stroke-linecap:round; stroke-linejoin:round;fill-rule:evenodd;"
d="M 12165,11782.7
11989.8,11910
11989.7,11909.8
11981.9,11915.5
11965.2,11925.2
11947.7,11933.3
11929.4,11939.7
11910.6,11944.2
11891.5,11946.8
11872.2,11947.6
11852.9,11946.4
11833.8,11943.4
11815.1,11938.5
11797,11931.9
11779.6,11923.4
11763.2,11913.3
11747.8,11901.7
11733.6,11888.6
11720.7,11874.1
11715.1,11866.3
11714.9,11866.4
11599.2,11707.2
11599.4,11707
11593.7,11699.2
11583.9,11682.6
11575.8,11665
11569.5,11646.8
11565,11628
11562.3,11608.9
11561.6,11589.6
11562.7,11570.3
11565.7,11551.2
11570.6,11532.5
11577.3,11514.4
11585.7,11497
11595.8,11480.5
11607.5,11465.1
11620.6,11450.9
11635,11438.1
11642.8,11432.4
11642.7,11432.2
11817.9,11305
Z" /> 
<path style="fill:#840000; fill-opacity:1.0; 
stroke:#840000; stroke-width:0; stroke-opacity:1; 
stroke-linecap:round; stroke-linejoin:round;fill-rule:evenodd;"
d="M 12471,10830.7
12478.8,10825.1
12495.5,10815.3
12513,10807.2
12531.3,10800.9
12550,10796.4
12569.2,10793.7
12588.5,10793
12607.8,10794.1
12626.8,10797.1
12645.5,10802
12663.7,10808.7
12681,10817.1
12697.5,10827.2
12712.9,10838.9
12727.1,10852
12739.9,10866.4
12745.6,10874.2
12745.8,10874.1
12861.5,11033.4
12861.3,11033.5
12867,11041.3
12876.8,11058
12884.8,11075.5
12891.2,11093.8
12895.7,11112.6
12898.3,11131.7
12899.1,11151
12898,11170.3
12894.9,11189.4
12890.1,11208.1
12883.4,11226.2
12874.9,11243.6
12864.8,11260
12853.2,11275.4
12840.1,11289.6
12825.6,11302.5
12817.8,11308.1
12818,11308.3
12642.8,11435.6
12295.7,10957.8
12470.8,10830.6
Z" /> 
<path style="fill:#840000; fill-opacity:1.0; 
stroke:#840000; stroke-width:0; stroke-opacity:1; 
stroke-linecap:round; stroke-linejoin:round;fill-rule:evenodd;"
d="M 12244.6,11724.9
11897.5,11247.1
12216,11015.7
12563.1,11493.5
Z" /> 
</g>
<g >
</g>
<g style="fill:#C2C2C2; fill-opacity:1.0; 
stroke:#C2C2C2; stroke-width:0; stroke-opacity:1; 
stroke-linecap:round; stroke-linejoin:round;">
<circle cx="12330.3" cy="7170.28" r="157.48" /> 
</g>
<g style="fill:#C2C2C2; fill-opacity:1.0; 
stroke:#C2C2C2; stroke-width:39.3701; stroke-opacity:1; 
stroke-linecap:round; stroke-linejoin:round;">
</g>
<g style="fill:#C2C2C2; fill-opacity:1.0; 
stroke:#C2C2C2; stroke-width:0; stroke-opacity:1; 
stroke-linecap:round; stroke-linejoin:round;">
<circle cx="15030.3" cy="5070.28" r="157.48" /> 
</g>
<g style="fill:#C2C2C2; fill-opacity:1.0; 
stroke:#C2C2C2; stroke-width:39.3701; stroke-opacity:1; 
stroke-linecap:round; stroke-linejoin:round;">
</g>
<g style="fill:#C2C2C2; fill-opacity:1.0; 
stroke:#C2C2C2; stroke-width:0; stroke-opacity:1; 
stroke-linecap:round; stroke-linejoin:round;">
<circle cx="7330.33" cy="9370.28" r="157.48" /> 
</g>
<g style="fill:#C2C2C2; fill-opacity:1.0; 
stroke:#C2C2C2; stroke-width:39.3701; stroke-opacity:1; 
stroke-linecap:round; stroke-linejoin:round;">
</g>
<g style="fill:#C2C2C2; fill-opacity:1.0; 
stroke:#C2C2C2; stroke-width:0; stroke-opacity:1; 
stroke-linecap:round; stroke-linejoin:round;">
<circle cx="8830.33" cy="10870.3" r="157.48" /> 
</g>
<g style="fill:#C2C2C2; fill-opacity:1.0; 
stroke:#C2C2C2; stroke-width:39.3701; stroke-opacity:1; 
stroke-linecap:round; stroke-linejoin:round;">
</g>
<g style="fill:#C2C2C2; fill-opacity:1.0; 
stroke:#C2C2C2; stroke-width:0; stroke-opacity:1; 
stroke-linecap:round; stroke-linejoin:round;">
<circle cx="6280.33" cy="12270.3" r="157.48" /> 
</g>
<g style="fill:#C2C2C2; fill-opacity:1.0; 
stroke:#C2C2C2; stroke-width:39.3701; stroke-opacity:1; 
stroke-linecap:round; stroke-linejoin:round;">
</g>
<g style="fill:#C2C2C2; fill-opacity:1.0; 
stroke:#C2C2C2; stroke-width:0; stroke-opacity:1; 
stroke-linecap:round; stroke-linejoin:round;">
<circle cx="10830.3" cy="5570.28" r="157.48" /> 
</g>
<g style="fill:#C2C2C2; fill-opacity:1.0; 
stroke:#C2C2C2; stroke-width:39.3701; stroke-opacity:1; 
stroke-linecap:round; stroke-linejoin:round;">
</g>
<g style="fill:#C2C2C2; fill-opacity:1.0; 
stroke:#C2C2C2; stroke-width:0; stroke-opacity:1; 
stroke-linecap:round; stroke-linejoin:round;">
<circle cx="10830.3" cy="8770.28" r="157.48" /> 
</g>
<g style="fill:#C2C2C2; fill-opacity:1.0; 
stroke:#C2C2C2; stroke-width:39.3701; stroke-opacity:1; 
stroke-linecap:round; stroke-linejoin:round;">
</g>
<g style="fill:#C2C2C2; fill-opacity:1.0; 
stroke:#C2C2C2; stroke-width:0; stroke-opacity:1; 
stroke-linecap:round; stroke-linejoin:round;">
<circle cx="10830.3" cy="9370.28" r="157.48" /> 
</g>
<g style="fill:#C2C2C2; fill-opacity:1.0; 
stroke:#C2C2C2; stroke-width:39.3701; stroke-opacity:1; 
stroke-linecap:round; stroke-linejoin:round;">
</g>
<g style="fill:#C2C2C2; fill-opacity:1.0; 
stroke:#C2C2C2; stroke-width:0; stroke-opacity:1; 
stroke-linecap:round; stroke-linejoin:round;">
<circle cx="11230.3" cy="3870.28" r="157.48" /> 
</g>
<g style="fill:#C2C2C2; fill-opacity:1.0; 
stroke:#C2C2C2; stroke-width:39.3701; stroke-opacity:1; 
stroke-linecap:round; stroke-linejoin:round;">
</g>
<g style="fill:#C2C2C2; fill-opacity:1.0; 
stroke:#C2C2C2; stroke-width:0; stroke-opacity:1; 
stroke-linecap:round; stroke-linejoin:round;">
<circle cx="15120.9" cy="10860.8" r="157.48" /> 
</g>
<g style="fill:#C2C2C2; fill-opacity:1.0; 
stroke:#C2C2C2; stroke-width:39.3701; stroke-opacity:1; 
stroke-linecap:round; stroke-linejoin:round;">
</g>
<g style="fill:#C2C2C2; fill-opacity:1.0; 
stroke:#C2C2C2; stroke-width:0; stroke-opacity:1; 
stroke-linecap:round; stroke-linejoin:round;">
<circle cx="5330.33" cy="10570.3" r="157.48" /> 
</g>
<g style="fill:#C2C2C2; fill-opacity:1.0; 
stroke:#C2C2C2; stroke-width:39.3701; stroke-opacity:1; 
stroke-linecap:round; stroke-linejoin:round;">
</g>
<g style="fill:#C2C2C2; fill-opacity:1.0; 
stroke:#C2C2C2; stroke-width:0; stroke-opacity:1; 
stroke-linecap:round; stroke-linejoin:round;">
<circle cx="5301.95" cy="12647.3" r="157.48" /> 
</g>
<g style="fill:#C2C2C2; fill-opacity:1.0; 
stroke:#C2C2C2; stroke-width:39.3701; stroke-opacity:1; 
stroke-linecap:round; stroke-linejoin:round;">
</g>
<g >
</g>
<g style="fill:#840000; fill-opacity:1.0; 
stroke:#840000; stroke-width:39.3701; stroke-opacity:1; 
stroke-linecap:round; stroke-linejoin:round;">
</g>
<g style="fill:#840000; fill-opacity:1.0; 
stroke:#840000; stroke-width:393.701; stroke-opacity:1; 
stroke-linecap:round; stroke-linejoin:round;">
</g>
<g style="fill:#840000; fill-opacity:0.0; 
stroke:#840000; stroke-width:393.701; stroke-opacity:1; 
stroke-linecap:round; stroke-linejoin:round;">
<path d="M8760 12630
L8231 11713
" />
<path d="M15870 6100
L15103 6721
" />
<path d="M16074 4814
L14640 3380
" />
<path d="M16074 5896
L16074 4814
" />
<path d="M15870 6100
L16074 5896
" />
<path d="M7083 15613
L7083 15779
" />
<path d="M8760 13936
L7083 15613
" />
<path d="M8760 12630
L8760 13936
" />
<path d="M3269 10529
L8231 11713
" />
<path d="M17145 9921
L15103 6721
" />
<path d="M11813 3380
L11740 3380
" />
<path d="M11950 3243
L11813 3380
" />
<path d="M12087 3380
L12740 3380
" />
<path d="M11950 3243
L12087 3380
" />
<path d="M11950 2770
L11950 3243
" />
<path d="M12740 3380
L11740 3380
" />
<path d="M14640 3380
L12740 3380
" />
<path d="M16672 9921
L12657 13936
" />
<path d="M12657 13936
L8760 13936
" />
<path d="M17145 9921
L16672 9921
" />
<path d="M3818 10529
L3269 10529
" />
<path d="M10967 3380
L3818 10529
" />
<path d="M11740 3380
L10967 3380
" />
<path d="M15030 5079
L15390 5439
" />
</g>
<g style="fill:#840000; fill-opacity:0.0; 
stroke:#840000; stroke-width:98.4252; stroke-opacity:1; 
stroke-linecap:round; stroke-linejoin:round;">
<path d="M15030 5070
L15030 5079
" />
<path d="M12330 7170
L12330 7070
" />
<path d="M12564 6835
L12802 6835
" />
<path d="M12330 7070
L12564 6835
" />
<path d="M5930 11828
L5288 11828
" />
<path d="M11816 11671
L10687 10548
" />
<path d="M10972 7591
L9630 6570
" />
<path d="M10972 7591
L10830 8770
" />
<path d="M10830 9370
L10687 10548
" />
<path d="M12862 5701
L10972 7591
" />
<path d="M14362 5701
L12862 5701
" />
<path d="M13542 7760
L13542 7855
" />
<path d="M14845 6457
L13542 7760
" />
<path d="M12601 5241
L14538 5241
" />
<path d="M14845 5547
L14845 6457
" />
<path d="M14538 5241
L14845 5547
" />
<path d="M11230 3870
L12601 5241
" />
<path d="M2960 11480
L6671 12847
" />
<path d="M12644 11069
L12280 9391
" />
<path d="M9380 8749
L8802 7171
" />
<path d="M9380 8749
L7491 10694
" />
<path d="M12280 9391
L9380 8749
" />
<path d="M12230 11370
L11484 9970
" />
<path d="M12935 12075
L12230 11370
" />
<path d="M13906 12075
L12935 12075
" />
<path d="M15120 10860
L13906 12075
" />
<path d="M10176 8170
L9216 6871
" />
<path d="M10176 8170
L10176 8324
" />
<path d="M6403 15598
L6403 15779
" />
<path d="M6403 15574
L6403 15779
" />
<path d="M6305 15779
L6083 15779
" />
<path d="M9216 6871
L9004 6659
" />
<path d="M6083 14116
L6083 15779
" />
<path d="M6083 13429
L6083 15779
" />
<path d="M5301 12647
L6083 13429
" />
<path d="M6649 8728
L5330 10047
" />
<path d="M9004 6659
L8718 6659
" />
<path d="M5330 10047
L5330 10570
" />
<path d="M8718 6659
L6649 8728
" />
</g>
<g >
</g>
<g style="fill:#840000; fill-opacity:0.0; 
stroke:#840000; stroke-width:98.4252; stroke-opacity:1; 
stroke-linecap:round; stroke-linejoin:round;">
<g >
</g>
<g style="fill:#840000; fill-opacity:1.0; 
stroke:#840000; stroke-width:100; stroke-opacity:1; 
stroke-linecap:round; stroke-linejoin:round;">
<path style="fill:#840000; fill-opacity:1.0; 
stroke:#840000; stroke-width:100; stroke-opacity:1; 
stroke-linecap:round; stroke-linejoin:round;fill-rule:evenodd;"
d="M 15747.5,16473.9
607.993,16473.9
2249.03,11423.3
2376.31,11423.3
2376.31,11538.5
2398.78,11651.5
2442.85,11757.9
2506.84,11853.6
2588.27,11935
2684.03,11999
2790.42,12043.1
2903.38,12065.6
3018.54,12065.6
3131.49,12043.1
3237.89,11999
3331.71,11936.3
4914,12519.1
4910.13,12528.5
4894.47,12607.2
4894.47,12687.5
4910.13,12766.2
4940.84,12840.4
4985.44,12907.1
5042.19,12963.8
5108.93,13008.4
5183.09,13039.2
5261.81,13054.8
5286.28,13054.8
5784.51,13553.1
5784.51,14102.2
5784.51,15020.9
5784.51,15275.8
5711.04,15324.9
5629.6,15406.3
5565.62,15502.1
5521.55,15608.5
5499.08,15721.5
5499.08,15836.6
5521.55,15949.6
5565.62,16056
5629.6,16151.7
5711.04,16233.2
5806.79,16297.1
5913.19,16341.2
6026.14,16363.7
6141.31,16363.7
6254.26,16341.2
6360.66,16297.1
6456.41,16233.2
6537.85,16151.7
6583.72,16083.1
6629.6,16151.7
6711.04,16233.2
6806.79,16297.1
6913.19,16341.2
7026.14,16363.7
7141.31,16363.7
7254.26,16341.2
7360.66,16297.1
7456.41,16233.2
7508.33,16181.3
7516.99,16209.8
7540.21,16253.2
7571.45,16291.3
7609.51,16322.6
7652.95,16345.8
7700.07,16360.1
7749.08,16364.9
7971.22,16363.7
8033.72,16301.2
8033.72,15829
8133.72,15829
8133.72,16301.2
8196.22,16363.7
8418.37,16364.9
8467.38,16360.1
8514.5,16345.8
8557.94,16322.6
8596,16291.3
8627.24,16253.2
8650.46,16209.8
8664.75,16162.7
8669.58,16113.7
8668.37,15891.5
8605.87,15829
8133.72,15829
8033.72,15829
8025.85,15829
8025.85,15729
8033.72,15729
8033.72,15721.2
8133.72,15721.2
8133.72,15729
8605.87,15729
8668.37,15666.5
8669.58,15444.4
8664.75,15395.4
8650.46,15348.3
8627.24,15304.8
8596,15266.8
8557.94,15235.5
8514.5,15212.3
8467.38,15198
8418.37,15193.2
8196.22,15194.4
8133.73,15256.9
8133.73,15195.6
8713.24,14616.1
13680.3,14616.1
13680.3,14724.4
13701.5,14830.7
13742.9,14930.8
13803.1,15020.9
13879.7,15097.5
13969.8,15157.7
14069.9,15199.1
14176.2,15220.3
14284.5,15220.3
14390.8,15199.1
14490.9,15157.7
14580.9,15097.5
14657.5,15020.9
14717.7,14930.8
14759.2,14830.7
14780.3,14724.4
14780.3,14616.1
14759.2,14509.8
14717.7,14409.8
14657.5,14319.7
14580.9,14243.1
14490.9,14182.9
14390.8,14141.4
14284.5,14120.3
14176.2,14120.3
14069.9,14141.4
13969.8,14182.9
13879.7,14243.1
13803.1,14319.7
13742.9,14409.8
13701.5,14509.8
13680.3,14616.1
8713.24,14616.1
8945.88,14383.5
12635.6,14383.5
12657.5,14385.6
12679.5,14383.5
12679.5,14383.5
12745.1,14377
12829.4,14351.5
12907,14310
12975,14254.1
12989,14237.1
16259.4,10966.7
16274.7,11043.2
16318.7,11149.6
16382.7,11245.3
16464.1,11326.7
16559.9,11390.7
16666.3,11434.8
16779.2,11457.3
16894.4,11457.3
17007.4,11434.8
17113.8,11390.7
17209.5,11326.7
17291,11245.3
17354.9,11149.6
17399,11043.2
17421.5,10930.2
17421.5,10815
17399,10702.1
17354.9,10595.7
17291,10499.9
17281.7,10490.6
17316.4,10483.7
17422.8,10439.7
17518.5,10375.7
17600,10294.3
17664,10198.5
17708,10092.1
17730.5,9979.15
17730.5,9863.98
17708,9751.03
17664,9644.63
17662.3,9642.09
17689.4,9642.62
17737.9,9633.96
17783.8,9616.01
17825.2,9589.46
17860.7,9555.33
17888.9,9514.93
17908.6,9469.81
17976.1,9258.17
17936,9179.41
17487,9033.51
17484.5,9041
17389.4,9010.1
17391.9,9002.61
17384.4,9000.18
17404.4,8938.4
17517.9,8938.4
17966.9,9084.31
18045.7,9044.18
18115.5,8833.28
18126,8785.18
18127,8735.94
18118.3,8687.46
18100.4,8641.6
18073.8,8600.13
18039.7,8564.63
17999.3,8536.47
17954.2,8516.74
17742.5,8449.24
17663.8,8489.37
17517.9,8938.4
17404.4,8938.4
17415.3,8905.07
17422.8,8907.5
17568.7,8458.47
17528.5,8379.71
17317.6,8309.91
17269.5,8299.36
17220.3,8298.39
17171.8,8307.05
17126,8325
17084.5,8351.55
17049,8385.68
17020.8,8426.08
17001.1,8471.2
16933.6,8682.85
16973.7,8761.6
16925.7,8745.99
15694.8,6817.4
15901.5,6650.26
15943.6,6635.67
16002.7,6601.01
16305.3,6381.17
16356.6,6335.64
16397.9,6280.99
16427.8,6219.32
16445.1,6153
16445.4,6149.18
16448.1,6145.84
16489.6,6068.21
16515.2,5983.98
16521.6,5918.33
16521.6,5918.33
16523.8,5896.38
16521.6,5874.44
16521.6,4836.66
16523.8,4814.71
16521.6,4792.77
16521.6,4792.76
16515.2,4727.11
16489.6,4642.88
16448.1,4565.25
16392.3,4497.21
16375.2,4483.22
14972.1,3080.07
14958.1,3063.01
14890,3007.17
14812.4,2965.68
14728.2,2940.13
14662.5,2933.66
14662.5,2933.66
14640.6,2931.5
14618.6,2933.66
13535.1,2933.66
13534.8,2882.78
13472.3,2820.28
13000.1,2820.28
13000.1,2828.15
12900.1,2828.15
12900.1,2820.28
12892.3,2820.28
12892.3,2720.28
12900.1,2720.28
12900.1,2248.13
13000.1,2248.13
13000.1,2720.28
13472.3,2720.28
13534.8,2657.78
13536,2435.63
13531.2,2386.62
13516.9,2339.5
13493.7,2296.07
13462.4,2258
13424.3,2226.76
13380.9,2203.54
13333.8,2189.25
13284.8,2184.42
13062.6,2185.63
13000.1,2248.13
12900.1,2248.13
12837.6,2185.63
12615.5,2184.42
12566.5,2189.25
12519.4,2203.54
12475.9,2226.76
12437.9,2258
12406.6,2296.07
12383.4,2339.5
12374.7,2368.06
12322.8,2316.15
12227.1,2252.17
12120.7,2208.1
12007.7,2185.63
11892.6,2185.63
11779.6,2208.1
11673.2,2252.17
11577.4,2316.15
11496,2397.59
11450.1,2466.24
11404.3,2397.59
11322.8,2316.15
11227.1,2252.17
11120.7,2208.1
11007.7,2185.63
10892.6,2185.63
10779.6,2208.1
10673.2,2252.17
10577.4,2316.15
10496,2397.59
10432,2493.34
10388,2599.74
10365.5,2712.69
10365.5,2827.86
10388,2940.81
10432,3047.21
10496,3142.97
10534.7,3181.68
4222.15,9494.25
4239.59,9441.58
4250.14,9393.48
4251.11,9344.24
4242.45,9295.76
4224.5,9249.91
4197.95,9208.43
4163.82,9172.93
4123.42,9144.77
4078.3,9125.04
3866.65,9057.54
3787.9,9097.67
3642,9546.71
3649.49,9549.14
3618.58,9644.24
3611.09,9641.81
3608.66,9649.3
3513.56,9618.4
3515.99,9610.91
3066.95,9465.01
2988.2,9505.14
2918.4,9716.04
2907.85,9764.14
2906.88,9813.37
2915.54,9861.85
2933.49,9907.71
2960.04,9949.19
2994.17,9984.69
3018.11,10001.4
2993.04,10011.8
2897.29,10075.7
2815.85,10157.2
2751.87,10252.9
2707.8,10359.3
2685.33,10472.3
2685.33,10587.4
2707.8,10700.4
2751.87,10806.8
2815.85,10902.6
2825.14,10911.8
2790.42,10918.7
2684.03,10962.8
2588.27,11026.8
2506.84,11108.2
2442.85,11204
2398.78,11310.4
2376.31,11423.3
2249.03,11423.3
2941.82,9291.15
3057.73,9291.15
3097.85,9369.9
3546.89,9515.8
3692.79,9066.77
3652.66,8988.01
3441.76,8918.22
3393.66,8907.66
3344.43,8906.69
3295.95,8915.35
3250.09,8933.3
3208.61,8959.85
3173.12,8993.98
3144.96,9034.38
3125.22,9079.5
3057.73,9291.15
2941.82,9291.15
4704.52,3866.11
6180.33,3866.11
6180.33,3974.45
6201.47,4080.7
6242.93,4180.8
6303.12,4270.88
6379.73,4347.49
6469.81,4407.68
6569.9,4449.14
6676.16,4470.28
6784.5,4470.28
6890.76,4449.14
6990.85,4407.68
7080.94,4347.49
7157.54,4270.88
7217.73,4180.8
7259.19,4080.7
7280.33,3974.45
7280.33,3866.11
7259.19,3759.85
7217.73,3659.75
7157.54,3569.67
7080.94,3493.06
6990.85,3432.87
6890.76,3391.41
6784.5,3370.28
6676.16,3370.28
6569.9,3391.41
6469.81,3432.87
6379.73,3493.06
6303.12,3569.67
6242.93,3659.75
6201.47,3759.85
6180.33,3866.11
4704.52,3866.11
5286.36,2075.39
20425.9,2075.39
Z" /> 
<path style="fill:#840000; fill-opacity:1.0; 
stroke:#840000; stroke-width:100; stroke-opacity:1; 
stroke-linecap:round; stroke-linejoin:round;fill-rule:evenodd;"
d="M 5941.64,11758.4
5948.01,11753.7
6006.79,11834.6
6000.42,11839.3
6196.95,12109.8
6284.25,12123.6
6432.83,12017.1
6469.64,11984.4
6499.36,11945.2
6520.85,11900.9
6533.29,11853.2
6536.18,11804
6531.09,11767.2
7818.43,12074.3
7905.39,12194
7938.1,12230.8
7977.36,12260.5
8021.67,12282
8047.9,12288.9
8168.58,12498
8158.53,12495.4
8109.37,12492.5
8060.58,12499.2
8014.06,12515.4
7971.57,12540.3
7876.17,12611.1
7862.34,12698.4
8110.94,13040.5
8117.31,13035.9
8176.09,13116.8
8169.72,13121.4
8174.34,13127.8
8093.44,13186.6
8088.81,13180.2
7790.45,13397
7776.62,13484.3
7877.29,13624.9
7910,13661.7
7949.27,13691.4
7993.58,13712.9
8041.23,13725.4
8090.39,13728.3
8139.17,13721.5
8185.7,13705.4
8228.18,13680.5
8313.94,13616.8
8313.94,13751.5
6799.99,15265.5
6711.04,15324.9
6642.29,15393.7
6616.13,15361.8
6570.56,15324.4
6518.59,15296.6
6462.18,15279.5
6403.53,15273.7
6382.94,15275.7
6382.94,13443.8
6384.38,13429.1
6382.94,13414.4
6382.94,13414.4
6378.61,13370.5
6376.6,13363.8
6377.4,13364.7
6416.66,13394.4
6460.97,13415.9
6508.62,13428.4
6557.78,13431.3
6606.56,13424.5
6653.09,13408.4
6695.58,13383.5
7173.34,13036.4
7185.85,13025.3
7493.96,13025.3
7500.71,13074
7516.84,13120.6
7541.75,13163.1
7644.37,13302.3
7731.67,13316.1
8030.04,13099.3
7781.44,12757.1
7694.14,12743.3
7597.32,12812.2
7560.51,12844.9
7530.79,12884.1
7509.3,12928.5
7496.86,12976.1
7493.96,13025.3
7185.85,13025.3
7210.15,13003.7
7239.88,12964.4
7261.37,12920.1
7273.8,12872.4
7276.7,12823.3
7269.95,12774.5
7253.82,12728
7228.92,12685.5
6997.51,12367
6964.8,12330.2
6925.53,12300.4
6881.22,12278.9
6833.57,12266.5
6784.41,12263.6
6735.63,12270.4
6689.1,12286.5
6646.62,12311.4
6456.49,12449.5
6045.02,12298
6102.22,12255.8
6116.04,12168.5
5919.52,11898.1
5913.15,11902.7
5854.37,11821.8
5860.74,11817.1
5856.11,11810.8
5937.01,11752
Z" /> 
<path style="fill:#840000; fill-opacity:1.0; 
stroke:#840000; stroke-width:100; stroke-opacity:1; 
stroke-linecap:round; stroke-linejoin:round;fill-rule:evenodd;"
d="M 10431.2,9288.31
10422.9,9330.14
10422.9,9410.41
10438.5,9489.13
10469.2,9563.29
10500,9609.37
10461.5,9928.05
10139.3,10162.1
10102.5,10194.8
10072.8,10234.1
10051.3,10278.4
10038.9,10326
10036,10375.2
10042.7,10424
10058.9,10470.5
10083.8,10513
10535,11134.1
10567.7,11170.9
10607,11200.6
10651.3,11222.1
10698.9,11234.5
10748.1,11237.4
10796.9,11230.7
10843.4,11214.6
10885.9,11189.7
10898.7,11180.4
11310.9,11590.5
11312.4,11628.3
11319.2,11677.1
11328.2,11714.6
11344.3,11761.1
11360.5,11796.2
11385.4,11838.7
11391,11846.5
11395.9,11854.8
11511.6,12014.1
11518,12021.3
11523.7,12029.2
11556.5,12066
11584.8,12092.2
11624.1,12121.9
11657,12142
11701.3,12163.5
11737.5,12176.9
11785.1,12189.3
11823.2,12195.4
11872.4,12198.3
11911,12196.7
11959.7,12190
11997.3,12181
12043.8,12164.9
12078.8,12148.7
12121.3,12123.8
12129.1,12118.1
12137.5,12113.2
12312.7,11986
12349.5,11953.2
12349.6,11953.1
12349.8,11953
12375.1,11938.2
12713.3,12276.4
12722.7,12287.8
12768.2,12325.2
12820.2,12353
12876.6,12370.1
12920.6,12374.4
12920.6,12374.4
12935.3,12375.9
12950,12374.4
13587.8,12374.4
12472.4,13489.8
9207.64,13489.8
9207.64,12965
9234.95,12940.7
9276.32,12886.1
9306.23,12824.4
9323.53,12758.1
9327.57,12689.7
9318.18,12621.8
9295.72,12557
9261.06,12497.9
9041.22,12195.3
8997.03,12145.5
8807.26,11816.7
8822.07,11786.2
8834.5,11738.5
8837.4,11689.4
8830.66,11640.6
8814.52,11594.1
8789.62,11551.6
8558.21,11233.1
8525.5,11196.2
8486.23,11166.5
8441.92,11145
8394.27,11132.6
8345.11,11129.7
8296.33,11136.4
8249.8,11152.6
8207.32,11177.5
8133.94,11230.8
7668.09,11119.7
7993.53,10883.2
8030.34,10850.5
8060.06,10811.2
8081.55,10766.9
8093.99,10719.3
8096.89,10670.1
8090.14,10621.3
8074,10574.8
8055.33,10543
9228.16,9335.2
9260.24,9371.3
9299.51,9401.03
9343.81,9422.52
9391.46,9434.95
9440.62,9437.85
9489.41,9431.1
9535.93,9414.97
9578.42,9390.07
9885.03,9167.3
Z" /> 
<path style="fill:#840000; fill-opacity:1.0; 
stroke:#840000; stroke-width:100; stroke-opacity:1; 
stroke-linecap:round; stroke-linejoin:round;fill-rule:evenodd;"
d="M 5569.84,11537.9
5428.33,11639.3
5391.52,11672
5361.8,11711.3
5340.31,11755.6
5327.87,11803.2
5324.98,11852.4
5331.72,11901.2
5347.86,11947.7
5372.76,11990.2
5423.32,12057.7
5510.62,12071.5
5483.56,12091.2
3535.74,11373.8
3523.14,11310.4
3479.07,11204
3415.08,11108.2
3405.8,11098.9
3440.51,11092
3535.66,11052.6
Z" /> 
<path style="fill:#840000; fill-opacity:1.0; 
stroke:#840000; stroke-width:100; stroke-opacity:1; 
stroke-linecap:round; stroke-linejoin:round;fill-rule:evenodd;"
d="M 14036.4,6182.34
14069.1,6219.15
14108.3,6248.88
14152.6,6270.37
14200.3,6282.8
14249.4,6285.7
14298.2,6278.95
14344.8,6262.82
14387.2,6237.92
14546.1,6122.5
14546.1,6333.89
13599.4,7280.63
13560.6,7294.07
13518.1,7318.98
13040.3,7666.09
13003.5,7698.8
12973.8,7738.07
12952.3,7782.38
12939.9,7830.03
12937,7879.19
12943.7,7927.97
12959.9,7974.5
12984.8,8016.98
13216.2,8335.49
13248.9,8372.3
13288.1,8402.03
13332.5,8423.52
13380.1,8435.95
13429.3,8438.85
13478,8432.1
13524.6,8415.97
13567.1,8391.07
14044.8,8043.95
14081.6,8011.24
14111.4,7971.98
14132.8,7927.67
14145.3,7880.02
14148.2,7830.86
14141.4,7782.07
14125.3,7735.55
14100.4,7693.06
14072.1,7654.16
14670.8,7055.53
14776.9,7201.58
14809.6,7238.39
14848.8,7268.11
14893.2,7289.6
14940.8,7302.04
14944.1,7302.23
16393.2,9572.81
16355.1,9604.06
16341.1,9621.11
15399.3,10562.9
15380.6,10544.3
15313.9,10499.7
15239.7,10469
15161,10453.3
15080.7,10453.3
15002,10469
14927.9,10499.7
14861.1,10544.3
14804.4,10601.1
14759.8,10667.8
14729.1,10742
14713.4,10820.7
14713.4,10845.2
13782.6,11776
13059.2,11776
12866.7,11583.5
12965.6,11511.6
12972.8,11505.1
12980.7,11499.4
13017.5,11466.7
13043.7,11438.4
13073.4,11399.1
13093.6,11366.2
13115,11321.9
13128.4,11285.7
13140.8,11238.1
13146.9,11200
13149.8,11150.8
13148.3,11112.2
13141.5,11063.5
13132.5,11025.9
13116.4,10979.4
13100.2,10944.4
13075.3,10901.9
13069.6,10894.1
13064.7,10885.7
12949,10726.5
12942.6,10719.2
12936.9,10711.4
12904.2,10674.6
12875.9,10648.4
12855.9,10633.3
12692,9877.48
12828.8,9778.04
12865.6,9745.33
12895.3,9706.07
12916.8,9661.76
12929.3,9614.11
12932.2,9564.95
12925.4,9516.17
12909.3,9469.64
12884.4,9427.15
12433.1,8806.06
12400.4,8769.25
12361.2,8739.52
12316.8,8718.03
12269.2,8705.6
12220,8702.7
12171.3,8709.45
12124.7,8725.58
12082.2,8750.48
11775.6,8973.25
11229.5,8852.24
11237.8,8810.41
11237.8,8730.14
11222.2,8651.42
11191.4,8577.26
11160.6,8531.18
11199.2,8212.5
11521.3,7978.46
11558.1,7945.75
11587.9,7906.48
11609.4,7862.17
11621.8,7814.52
11624.7,7765.36
11617.9,7716.58
11601.8,7670.05
11576.9,7627.57
11485.8,7502.17
11740.7,7247.31
12427,7247.31
12475.7,7316.26
12508.4,7353.07
12547.6,7382.79
12591.9,7404.28
12639.6,7416.72
12688.7,7419.62
12737.5,7412.87
12784.1,7396.74
12826.5,7371.83
12973.7,7263.42
12987.5,7176.12
12791,6905.63
12440.9,7160.01
12427,7247.31
11740.7,7247.31
12207.2,6780.79
12199.4,6810.79
12196.5,6859.95
12203.2,6908.73
12219.3,6955.26
12244.2,6997.75
12294.8,7065.28
12382.1,7079.11
12701.8,6846.85
12871.9,6846.85
13068.4,7117.34
13155.7,7131.17
13304.3,7024.72
13341.1,6992.01
13370.8,6952.74
13392.3,6908.43
13404.8,6860.78
13407.7,6811.62
13400.9,6762.84
13384.8,6716.31
13359.9,6673.83
13309.3,6606.3
13222,6592.47
12871.9,6846.85
12701.8,6846.85
12732.2,6824.73
12535.7,6554.23
12448.4,6540.4
12445.5,6542.48
12492.5,6495.45
12616.6,6495.45
12813.1,6765.95
13163.2,6511.57
13177.1,6424.27
13128.5,6355.32
13095.8,6318.5
13056.5,6288.78
13012.2,6267.29
12964.5,6254.86
12915.4,6251.96
12866.6,6258.71
12820.1,6274.84
12777.6,6299.74
12630.4,6408.15
12616.6,6495.45
12492.5,6495.45
12986.9,6001.08
13904.7,6001.08
Z" /> 
<path style="fill:#840000; fill-opacity:1.0; 
stroke:#840000; stroke-width:100; stroke-opacity:1; 
stroke-linecap:round; stroke-linejoin:round;fill-rule:evenodd;"
d="M 8497.57,7514.94
8503.99,7522.16
8509.68,7529.99
8542.39,7566.8
8570.72,7592.99
8609.99,7622.72
8642.89,7642.88
8659.02,7650.7
8901.42,8311.96
8831.85,8362.51
8795.04,8395.22
8765.32,8434.48
8743.83,8478.79
8731.39,8526.44
8728.49,8575.6
8735.24,8624.38
8751.38,8670.91
8776.28,8713.4
8871.09,8843.9
7639.17,10112.5
7604.6,10110.5
7555.82,10117.2
7509.29,10133.3
7466.8,10158.2
6989.04,10505.4
6952.22,10538.1
6922.5,10577.3
6901.01,10621.6
6888.58,10669.3
6885.68,10718.5
6892.42,10767.2
6908.56,10813.8
6933.46,10856.3
7010.94,10962.9
5728.55,10657
5737.81,10610.4
5737.81,10530.1
5722.15,10451.4
5691.44,10377.3
5646.84,10310.5
5629.54,10293.2
5629.54,10171.4
6871.26,8929.69
6871.26,8929.69
8408.55,7392.41
Z" /> 
<path style="fill:#840000; fill-opacity:1.0; 
stroke:#840000; stroke-width:100; stroke-opacity:1; 
stroke-linecap:round; stroke-linejoin:round;fill-rule:evenodd;"
d="M 10913.8,4130.03
10970.6,4186.79
11037.3,4231.38
11111.5,4262.1
11190.2,4277.76
11214.7,4277.76
12379.2,5442.28
12388.6,5453.7
12400,5463.07
12434.1,5491.09
12486.1,5518.87
12542.5,5535.98
12600,5541.65
11129.7,7012
11125.7,7006.47
11092.9,6969.66
11053.7,6939.94
11009.4,6918.45
10961.7,6906.01
10912.6,6903.11
10863.8,6909.86
10817.3,6926
10774.8,6950.9
10697.9,7006.72
10128.7,6573.56
10127.4,6564.29
10118.4,6526.76
10102.3,6480.24
10086.1,6445.19
10061.2,6402.71
10055.6,6394.89
10050.7,6386.54
9934.97,6227.29
9928.55,6220.07
9922.86,6212.23
9890.15,6175.42
9861.81,6149.23
9822.55,6119.5
9789.64,6099.34
9745.33,6077.85
9709.13,6064.49
9661.48,6052.06
9623.36,6046.02
9574.21,6043.12
9535.65,6044.64
9486.86,6051.39
9449.34,6060.39
9402.81,6076.53
9367.77,6092.69
9325.29,6117.58
9317.46,6123.27
9309.11,6128.16
9133.93,6255.44
9097.12,6288.15
9096.99,6288.32
9096.79,6288.39
9054.31,6313.29
8989.32,6360.5
8732.78,6360.5
8718.09,6359.06
8703.39,6360.5
8703.39,6360.5
8659.43,6364.83
8603.03,6381.94
8592.97,6387.32
10888.4,4091.93
Z" /> 
<path style="fill:#840000; fill-opacity:1.0; 
stroke:#840000; stroke-width:100; stroke-opacity:1; 
stroke-linecap:round; stroke-linejoin:round;fill-rule:evenodd;"
d="M 11813.2,3829.52
11835.1,3827.36
12065.2,3827.36
12087.1,3829.52
12109.1,3827.36
14455.5,3827.36
15463.6,4835.53
15426.6,4840.65
15380,4856.79
15337.6,4881.69
15198.4,4984.32
15184.5,5071.62
15401.3,5369.98
15407.7,5365.35
15466.5,5446.25
15460.1,5450.88
15464.7,5457.25
15383.8,5516.03
15379.2,5509.66
15372.8,5514.29
15314,5433.39
15320.4,5428.76
15103.6,5130.39
15016.3,5116.57
14912.1,5191.15
14760.9,5039.92
14751.5,5028.5
14706,4991.11
14654,4963.33
14597.6,4946.22
14553.6,4941.89
14553.6,4941.89
14538.9,4940.44
14524.2,4941.89
12725.1,4941.89
11637.8,3854.61
11637.8,3830.14
11637.3,3827.36
11791.2,3827.36
Z" /> 
</g>
</g>
</g>
<g style="fill:#FFFFFF; fill-opacity:1.0; 
stroke:#FFFFFF; stroke-width:100; stroke-opacity:1; 
stroke-linecap:round; stroke-linejoin:round;">
</g>
<g style="fill:#FFFFFF; fill-opacity:1.0; 
stroke:#FFFFFF; stroke-width:0; stroke-opacity:1; 
stroke-linecap:round; stroke-linejoin:round;">
<circle cx="12330.3" cy="7170.28" r="78.7402" /> 
</g>
<g style="fill:#FFFFFF; fill-opacity:1.0; 
stroke:#FFFFFF; stroke-width:39.3701; stroke-opacity:1; 
stroke-linecap:round; stroke-linejoin:round;">
</g>
<g style="fill:#FFFFFF; fill-opacity:1.0; 
stroke:#FFFFFF; stroke-width:0; stroke-opacity:1; 
stroke-linecap:round; stroke-linejoin:round;">
<circle cx="15030.3" cy="5070.28" r="78.7402" /> 
</g>
<g style="fill:#FFFFFF; fill-opacity:1.0; 
stroke:#FFFFFF; stroke-width:39.3701; stroke-opacity:1; 
stroke-linecap:round; stroke-linejoin:round;">
</g>
<g style="fill:#FFFFFF; fill-opacity:1.0; 
stroke:#FFFFFF; stroke-width:0; stroke-opacity:1; 
stroke-linecap:round; stroke-linejoin:round;">
<circle cx="7330.33" cy="9370.28" r="78.7402" /> 
</g>
<g style="fill:#FFFFFF; fill-opacity:1.0; 
stroke:#FFFFFF; stroke-width:39.3701; stroke-opacity:1; 
stroke-linecap:round; stroke-linejoin:round;">
</g>
<g style="fill:#FFFFFF; fill-opacity:1.0; 
stroke:#FFFFFF; stroke-width:0; stroke-opacity:1; 
stroke-linecap:round; stroke-linejoin:round;">
<circle cx="8830.33" cy="10870.3" r="78.7402" /> 
</g>
<g style="fill:#FFFFFF; fill-opacity:1.0; 
stroke:#FFFFFF; stroke-width:39.3701; stroke-opacity:1; 
stroke-linecap:round; stroke-linejoin:round;">
</g>
<g style="fill:#FFFFFF; fill-opacity:1.0; 
stroke:#FFFFFF; stroke-width:0; stroke-opacity:1; 
stroke-linecap:round; stroke-linejoin:round;">
<circle cx="6280.33" cy="12270.3" r="78.7402" /> 
</g>
<g style="fill:#FFFFFF; fill-opacity:1.0; 
stroke:#FFFFFF; stroke-width:39.3701; stroke-opacity:1; 
stroke-linecap:round; stroke-linejoin:round;">
</g>
<g style="fill:#FFFFFF; fill-opacity:1.0; 
stroke:#FFFFFF; stroke-width:0; stroke-opacity:1; 
stroke-linecap:round; stroke-linejoin:round;">
<circle cx="10830.3" cy="5570.28" r="78.7402" /> 
</g>
<g style="fill:#FFFFFF; fill-opacity:1.0; 
stroke:#FFFFFF; stroke-width:39.3701; stroke-opacity:1; 
stroke-linecap:round; stroke-linejoin:round;">
</g>
<g style="fill:#FFFFFF; fill-opacity:1.0; 
stroke:#FFFFFF; stroke-width:0; stroke-opacity:1; 
stroke-linecap:round; stroke-linejoin:round;">
<circle cx="10830.3" cy="8770.28" r="78.7402" /> 
</g>
<g style="fill:#FFFFFF; fill-opacity:1.0; 
stroke:#FFFFFF; stroke-width:39.3701; stroke-opacity:1; 
stroke-linecap:round; stroke-linejoin:round;">
</g>
<g style="fill:#FFFFFF; fill-opacity:1.0; 
stroke:#FFFFFF; stroke-width:0; stroke-opacity:1; 
stroke-linecap:round; stroke-linejoin:round;">
<circle cx="10830.3" cy="9370.28" r="78.7402" /> 
</g>
<g style="fill:#FFFFFF; fill-opacity:1.0; 
stroke:#FFFFFF; stroke-width:39.3701; stroke-opacity:1; 
stroke-linecap:round; stroke-linejoin:round;">
</g>
<g style="fill:#FFFFFF; fill-opacity:1.0; 
stroke:#FFFFFF; stroke-width:0; stroke-opacity:1; 
stroke-linecap:round; stroke-linejoin:round;">
<circle cx="11230.3" cy="3870.28" r="78.7402" /> 
</g>
<g style="fill:#FFFFFF; fill-opacity:1.0; 
stroke:#FFFFFF; stroke-width:39.3701; stroke-opacity:1; 
stroke-linecap:round; stroke-linejoin:round;">
</g>
<g style="fill:#FFFFFF; fill-opacity:1.0; 
stroke:#FFFFFF; stroke-width:0; stroke-opacity:1; 
stroke-linecap:round; stroke-linejoin:round;">
<circle cx="15120.9" cy="10860.8" r="78.7402" /> 
</g>
<g style="fill:#FFFFFF; fill-opacity:1.0; 
stroke:#FFFFFF; stroke-width:39.3701; stroke-opacity:1; 
stroke-linecap:round; stroke-linejoin:round;">
</g>
<g style="fill:#FFFFFF; fill-opacity:1.0; 
stroke:#FFFFFF; stroke-width:0; stroke-opacity:1; 
stroke-linecap:round; stroke-linejoin:round;">
<circle cx="5330.33" cy="10570.3" r="78.7402" /> 
</g>
<g style="fill:#FFFFFF; fill-opacity:1.0; 
stroke:#FFFFFF; stroke-width:39.3701; stroke-opacity:1; 
stroke-linecap:round; stroke-linejoin:round;">
</g>
<g style="fill:#FFFFFF; fill-opacity:1.0; 
stroke:#FFFFFF; stroke-width:0; stroke-opacity:1; 
stroke-linecap:round; stroke-linejoin:round;">
<circle cx="5301.95" cy="12647.3" r="78.7402" /> 
</g>
<g style="fill:#FFFFFF; fill-opacity:1.0; 
stroke:#FFFFFF; stroke-width:39.3701; stroke-opacity:1; 
stroke-linecap:round; stroke-linejoin:round;">
</g>
<g style="fill:#FFFFFF; fill-opacity:1.0; 
stroke:#FFFFFF; stroke-width:0; stroke-opacity:1; 
stroke-linecap:round; stroke-linejoin:round;">
<circle cx="6730.33" cy="3920.28" r="216.535" /> 
</g>
<g style="fill:#FFFFFF; fill-opacity:1.0; 
stroke:#FFFFFF; stroke-width:39.3701; stroke-opacity:1; 
stroke-linecap:round; stroke-linejoin:round;">
</g>
<g style="fill:#FFFFFF; fill-opacity:1.0; 
stroke:#FFFFFF; stroke-width:0; stroke-opacity:1; 
stroke-linecap:round; stroke-linejoin:round;">
<circle cx="14230.3" cy="14670.3" r="216.535" /> 
</g>
<g style="fill:#FFFFFF; fill-opacity:1.0; 
stroke:#FFFFFF; stroke-width:39.3701; stroke-opacity:1; 
stroke-linecap:round; stroke-linejoin:round;">
</g>
<g style="fill:#FFFFFF; fill-opacity:1.0; 
stroke:#FFFFFF; stroke-width:0; stroke-opacity:1; 
stroke-linecap:round; stroke-linejoin:round;">
<circle cx="16836.8" cy="10872.6" r="196.85" /> 
</g>
<g style="fill:#FFFFFF; fill-opacity:1.0; 
stroke:#FFFFFF; stroke-width:39.3701; stroke-opacity:1; 
stroke-linecap:round; stroke-linejoin:round;">
</g>
<g style="fill:#FFFFFF; fill-opacity:1.0; 
stroke:#FFFFFF; stroke-width:0; stroke-opacity:1; 
stroke-linecap:round; stroke-linejoin:round;">
<circle cx="17145.8" cy="9921.56" r="196.85" /> 
</g>
<g style="fill:#FFFFFF; fill-opacity:1.0; 
stroke:#FFFFFF; stroke-width:39.3701; stroke-opacity:1; 
stroke-linecap:round; stroke-linejoin:round;">
</g>
<g style="fill:#FFFFFF; fill-opacity:1.0; 
stroke:#FFFFFF; stroke-width:0; stroke-opacity:1; 
stroke-linecap:round; stroke-linejoin:round;">
<circle cx="17454.9" cy="8970.51" r="196.85" /> 
</g>
<g style="fill:#FFFFFF; fill-opacity:1.0; 
stroke:#FFFFFF; stroke-width:39.3701; stroke-opacity:1; 
stroke-linecap:round; stroke-linejoin:round;">
</g>
<g style="fill:#FFFFFF; fill-opacity:1.0; 
stroke:#FFFFFF; stroke-width:0; stroke-opacity:1; 
stroke-linecap:round; stroke-linejoin:round;">
<circle cx="8083.72" cy="15779" r="196.85" /> 
</g>
<g style="fill:#FFFFFF; fill-opacity:1.0; 
stroke:#FFFFFF; stroke-width:39.3701; stroke-opacity:1; 
stroke-linecap:round; stroke-linejoin:round;">
</g>
<g style="fill:#FFFFFF; fill-opacity:1.0; 
stroke:#FFFFFF; stroke-width:0; stroke-opacity:1; 
stroke-linecap:round; stroke-linejoin:round;">
<circle cx="7083.72" cy="15779" r="196.85" /> 
</g>
<g style="fill:#FFFFFF; fill-opacity:1.0; 
stroke:#FFFFFF; stroke-width:39.3701; stroke-opacity:1; 
stroke-linecap:round; stroke-linejoin:round;">
</g>
<g style="fill:#FFFFFF; fill-opacity:1.0; 
stroke:#FFFFFF; stroke-width:0; stroke-opacity:1; 
stroke-linecap:round; stroke-linejoin:round;">
<circle cx="6083.72" cy="15779" r="196.85" /> 
</g>
<g style="fill:#FFFFFF; fill-opacity:1.0; 
stroke:#FFFFFF; stroke-width:39.3701; stroke-opacity:1; 
stroke-linecap:round; stroke-linejoin:round;">
</g>
<g style="fill:#FFFFFF; fill-opacity:1.0; 
stroke:#FFFFFF; stroke-width:0; stroke-opacity:1; 
stroke-linecap:round; stroke-linejoin:round;">
<circle cx="12950.1" cy="2770.28" r="196.85" /> 
</g>
<g style="fill:#FFFFFF; fill-opacity:1.0; 
stroke:#FFFFFF; stroke-width:39.3701; stroke-opacity:1; 
stroke-linecap:round; stroke-linejoin:round;">
</g>
<g style="fill:#FFFFFF; fill-opacity:1.0; 
stroke:#FFFFFF; stroke-width:0; stroke-opacity:1; 
stroke-linecap:round; stroke-linejoin:round;">
<circle cx="11950.1" cy="2770.28" r="196.85" /> 
</g>
<g style="fill:#FFFFFF; fill-opacity:1.0; 
stroke:#FFFFFF; stroke-width:39.3701; stroke-opacity:1; 
stroke-linecap:round; stroke-linejoin:round;">
</g>
<g style="fill:#FFFFFF; fill-opacity:1.0; 
stroke:#FFFFFF; stroke-width:0; stroke-opacity:1; 
stroke-linecap:round; stroke-linejoin:round;">
<circle cx="10950.1" cy="2770.28" r="196.85" /> 
</g>
<g style="fill:#FFFFFF; fill-opacity:1.0; 
stroke:#FFFFFF; stroke-width:39.3701; stroke-opacity:1; 
stroke-linecap:round; stroke-linejoin:round;">
</g>
<g style="fill:#FFFFFF; fill-opacity:1.0; 
stroke:#FFFFFF; stroke-width:0; stroke-opacity:1; 
stroke-linecap:round; stroke-linejoin:round;">
<circle cx="2960.96" cy="11480.9" r="196.85" /> 
</g>
<g style="fill:#FFFFFF; fill-opacity:1.0; 
stroke:#FFFFFF; stroke-width:39.3701; stroke-opacity:1; 
stroke-linecap:round; stroke-linejoin:round;">
</g>
<g style="fill:#FFFFFF; fill-opacity:1.0; 
stroke:#FFFFFF; stroke-width:0; stroke-opacity:1; 
stroke-linecap:round; stroke-linejoin:round;">
<circle cx="3269.98" cy="10529.9" r="196.85" /> 
</g>
<g style="fill:#FFFFFF; fill-opacity:1.0; 
stroke:#FFFFFF; stroke-width:39.3701; stroke-opacity:1; 
stroke-linecap:round; stroke-linejoin:round;">
</g>
<g style="fill:#FFFFFF; fill-opacity:1.0; 
stroke:#FFFFFF; stroke-width:0; stroke-opacity:1; 
stroke-linecap:round; stroke-linejoin:round;">
<circle cx="3578.99" cy="9578.81" r="196.85" /> 
</g>
<g style="fill:#FFFFFF; fill-opacity:1.0; 
stroke:#FFFFFF; stroke-width:39.3701; stroke-opacity:1; 
stroke-linecap:round; stroke-linejoin:round;">
</g>
<g style="fill:#000000; fill-opacity:1.0; 
stroke:#000000; stroke-width:39.3701; stroke-opacity:1; 
stroke-linecap:round; stroke-linejoin:round;">
</g>
<g style="fill:#008484; fill-opacity:1.0; 
stroke:#008484; stroke-width:39.3701; stroke-opacity:1; 
stroke-linecap:round; stroke-linejoin:round;">
</g>
<g style="fill:#008484; fill-opacity:0.0; 
stroke:#008484; stroke-width:39.3701; stroke-opacity:1; 
stroke-linecap:round; stroke-linejoin:round;">
</g>
<g style="fill:#008484; fill-opacity:0.0; 
stroke:#008484; stroke-width:59.0551; stroke-opacity:1; 
stroke-linecap:round; stroke-linejoin:round;">
<g transform="rotate(-72 16130.3 9770.28)">
<text x="16130.3" y="9967.13"
textLength="2251.5" font-size="524.934" lengthAdjust="spacingAndGlyphs"
text-anchor="middle" opacity="0">Data In</text>
</g>
<path d="M15992 10770
L15618 10648
L15647 10559
L15682 10511
L15729 10487
L15771 10481
L15848 10486
L15901 10504
L15967 10545
L15997 10574
L16021 10621
L16021 10681
L15992 10770
" />
<path d="M16166 10235
L15970 10171
L15928 10177
L15899 10207
L15876 10279
L15882 10320
" />
<path d="M16148 10229
L16154 10271
L16125 10360
L16096 10390
L16055 10396
L16019 10384
L15989 10355
L15983 10313
L16012 10224
L16005 10183
" />
<path d="M15957 10029
L16003 9886
" />
<path d="M15849 9935
L16170 10039
L16212 10033
L16241 10003
L16253 9967
" />
<path d="M16346 9682
L16149 9618
L16108 9625
L16079 9655
L16055 9726
L16062 9767
" />
<path d="M16328 9676
L16334 9718
L16305 9807
L16276 9837
L16234 9843
L16198 9832
L16169 9802
L16162 9761
L16191 9671
L16185 9630
" />
<path d="M16496 9219
L16122 9097
" />
<path d="M16305 8959
L16554 9040
" />
<path d="M16340 8971
L16328 8947
L16322 8906
L16339 8852
L16369 8822
L16410 8816
L16606 8880
" />
<g transform="rotate(-252 4180.33 10820.3)">
<text x="4180.33" y="11017.1"
textLength="2701.44" font-size="524.934" lengthAdjust="spacingAndGlyphs"
text-anchor="middle" opacity="0">Data Out</text>
</g>
<path d="M4387 9606
L4761 9727
L4732 9817
L4697 9864
L4650 9888
L4609 9895
L4531 9889
L4478 9872
L4412 9831
L4383 9801
L4358 9754
L4358 9695
L4387 9606
" />
<path d="M4213 10141
L4409 10204
L4451 10198
L4480 10168
L4503 10097
L4497 10056
" />
<path d="M4231 10146
L4225 10105
L4254 10016
L4283 9986
L4325 9980
L4360 9991
L4390 10021
L4396 10062
L4367 10151
L4374 10193
" />
<path d="M4422 10347
L4376 10489
" />
<path d="M4530 10441
L4209 10336
L4167 10343
L4138 10372
L4126 10408
" />
<path d="M4034 10693
L4230 10757
L4271 10751
L4301 10721
L4324 10650
L4318 10608
" />
<path d="M4051 10699
L4045 10658
L4074 10569
L4104 10539
L4145 10532
L4181 10544
L4211 10574
L4217 10615
L4188 10704
L4194 10746
" />
<path d="M4234 11350
L4211 11421
L4182 11451
L4134 11475
L4057 11470
L3932 11429
L3867 11388
L3843 11341
L3837 11300
L3860 11228
L3889 11198
L3936 11174
L4014 11180
L4138 11220
L4204 11261
L4228 11309
L4234 11350
" />
<path d="M3953 11791
L3703 11710
" />
<path d="M4005 11630
L3809 11567
L3768 11573
L3738 11603
L3721 11656
L3727 11698
L3739 11721
" />
<path d="M3912 11916
L3866 12058
" />
<path d="M4020 12010
L3699 11905
L3658 11912
L3628 11942
L3616 11977
" />
<g transform="rotate(-180 11930.3 3770.28)">
<text x="11930.3" y="3967.13"
textLength="2701.44" font-size="524.934" lengthAdjust="spacingAndGlyphs"
text-anchor="middle" opacity="0">Data Out</text>
</g>
<path d="M13148 3592
L13148 3985
L13055 3985
L12998 3967
L12961 3929
L12942 3892
L12923 3817
L12923 3760
L12942 3685
L12961 3648
L12998 3610
L13055 3592
L13148 3592
" />
<path d="M12586 3592
L12586 3798
L12605 3835
L12642 3854
L12717 3854
L12755 3835
" />
<path d="M12586 3610
L12623 3592
L12717 3592
L12755 3610
L12773 3648
L12773 3685
L12755 3723
L12717 3742
L12623 3742
L12586 3760
" />
<path d="M12455 3854
L12305 3854
" />
<path d="M12399 3985
L12399 3648
L12380 3610
L12342 3592
L12305 3592
" />
<path d="M12005 3592
L12005 3798
L12024 3835
L12061 3854
L12136 3854
L12174 3835
" />
<path d="M12005 3610
L12042 3592
L12136 3592
L12174 3610
L12192 3648
L12192 3685
L12174 3723
L12136 3742
L12042 3742
L12005 3760
" />
<path d="M11442 3985
L11367 3985
L11330 3967
L11292 3929
L11274 3854
L11274 3723
L11292 3648
L11330 3610
L11367 3592
L11442 3592
L11480 3610
L11517 3648
L11536 3723
L11536 3854
L11517 3929
L11480 3967
L11442 3985
" />
<path d="M10936 3854
L10936 3592
" />
<path d="M11105 3854
L11105 3648
L11086 3610
L11049 3592
L10992 3592
L10955 3610
L10936 3629
" />
<path d="M10805 3854
L10655 3854
" />
<path d="M10749 3985
L10749 3648
L10730 3610
L10692 3592
L10655 3592
" />
<text x="7080.33" y="15067.1"
textLength="2251.5" font-size="524.934" lengthAdjust="spacingAndGlyphs"
text-anchor="middle" opacity="0">Data In</text>
<path d="M6086 15048
L6086 14654
L6180 14654
L6236 14673
L6274 14710
L6292 14748
L6311 14823
L6311 14879
L6292 14954
L6274 14992
L6236 15029
L6180 15048
L6086 15048
" />
<path d="M6649 15048
L6649 14842
L6630 14804
L6592 14785
L6517 14785
L6480 14804
" />
<path d="M6649 15029
L6611 15048
L6517 15048
L6480 15029
L6461 14992
L6461 14954
L6480 14917
L6517 14898
L6611 14898
L6649 14879
" />
<path d="M6780 14785
L6930 14785
" />
<path d="M6836 14654
L6836 14992
L6855 15029
L6892 15048
L6930 15048
" />
<path d="M7230 15048
L7230 14842
L7211 14804
L7174 14785
L7099 14785
L7061 14804
" />
<path d="M7230 15029
L7192 15048
L7099 15048
L7061 15029
L7042 14992
L7042 14954
L7061 14917
L7099 14898
L7192 14898
L7230 14879
" />
<path d="M7717 15048
L7717 14654
" />
<path d="M7905 14785
L7905 15048
" />
<path d="M7905 14823
L7923 14804
L7961 14785
L8017 14785
L8055 14804
L8073 14842
L8073 15048
" />
</g>
<g style="fill:#008484; fill-opacity:0.0; 
stroke:#008484; stroke-width:196.85; stroke-opacity:1; 
stroke-linecap:round; stroke-linejoin:round;">
<g transform="rotate(-162 16430.3 11970.3)">
<text x="16430.3" y="12364"
textLength="751.687" font-size="1049.87" lengthAdjust="spacingAndGlyphs"
text-anchor="middle" opacity="0">A</text>
</g>
<path d="M16649 11903
L16292 11787
" />
<path d="M16790 11712
L16297 12380
L16290 11550
" />
<g transform="rotate(-90 9830.33 2770.28)">
<text x="9830.33" y="3163.98"
textLength="855.831" font-size="1049.87" lengthAdjust="spacingAndGlyphs"
text-anchor="middle" opacity="0">T</text>
</g>
<path d="M9399 2995
L9399 2545
" />
<path d="M10186 2770
L9399 2770
" />
<g transform="rotate(-162 2630.33 12570.3)">
<text x="2630.33" y="12964"
textLength="1043.31" font-size="1049.87" lengthAdjust="spacingAndGlyphs"
text-anchor="middle" opacity="0">C</text>
</g>
<path d="M2485 12227
L2532 12203
L2651 12202
L2722 12225
L2817 12296
L2866 12390
L2878 12473
L2867 12627
L2833 12734
L2751 12865
L2692 12925
L2597 12973
L2479 12974
L2407 12951
L2312 12880
L2288 12833
" />
<g transform="rotate(-90 4930.33 15770.3)">
<text x="4930.33" y="16164"
textLength="1043.31" font-size="1049.87" lengthAdjust="spacingAndGlyphs"
text-anchor="middle" opacity="0">G</text>
</g>
<path d="M4536 15564
L4499 15639
L4499 15751
L4536 15864
L4611 15939
L4686 15976
L4836 16013
L4949 16013
L5099 15976
L5174 15939
L5249 15864
L5286 15751
L5286 15676
L5249 15564
L5211 15526
L4949 15526
L4949 15676
" />
</g>
<g style="fill:#008484; fill-opacity:0.0; 
stroke:#008484; stroke-width:118.11; stroke-opacity:1; 
stroke-linecap:round; stroke-linejoin:round;">
<path d="M11627 16763.3 A11417.3 11417.3 0.0 0 0 3737.86 5904.77" />
<path d="M12040.4 16763.3 A11830.7 11830.7 0.0 0 0 3865.6 5511.62" />
<path d="M16891.1 1786.02 A3933.07 3933.07 0.0 0 0 19608.8 5526.6" />
</g>
<g style="fill:#008484; fill-opacity:0.0; 
stroke:#008484; stroke-width:47.2441; stroke-opacity:1; 
stroke-linecap:round; stroke-linejoin:round;">
<path d="M9939 10690
L9780 10806
" />
<path d="M9780 10806
L9664 10647
" />
<path d="M9664 10647
L8854 9532
" />
<path d="M8854 9532
L8934 9474
" />
<path d="M12646 8723
L12806 8608
" />
<path d="M12806 8608
L11880 7334
" />
<path d="M11880 7334
L11721 7449
" />
</g>
<g style="fill:#008484; fill-opacity:0.0; 
stroke:#008484; stroke-width:78.7402; stroke-opacity:1; 
stroke-linecap:round; stroke-linejoin:round;">
<circle cx="10227.4" cy="10919.6" r="88.0343" /> 
</g>
<g style="fill:#008484; fill-opacity:0.0; 
stroke:#008484; stroke-width:47.2441; stroke-opacity:1; 
stroke-linecap:round; stroke-linejoin:round;">
<path d="M15803 5516
L15924 5683
" />
<path d="M15335 5857
L15456 6023
" />
<path d="M8517 13164
L8683 13043
" />
<path d="M8177 12696
L8343 12575
" />
<path d="M15751 6809
L15485 6443
" />
<path d="M13426 8499
L15751 6809
" />
<path d="M12153 6747
L14478 5057
" />
<path d="M5282 11739
L7607 10050
" />
<path d="M6555 13491
L8880 11802
" />
<path d="M8880 11802
L8614 11435
" />
<path d="M16802 9284
L17798 9607
" />
<path d="M16802 9284
L16177 11208
" />
<path d="M16177 11208
L17173 11532
" />
<path d="M17798 9607
L17173 11532
" />
<path d="M18114 8634
L17952 9132
" />
<path d="M17616 8472
L18114 8634
" />
<path d="M8607 15779
L8607 16302
" />
<path d="M8607 16302
L8083 16302
" />
<path d="M7583 16302
L5560 16302
" />
<path d="M5560 15255
L5560 16302
" />
<path d="M7583 15255
L5560 15255
" />
<path d="M7583 15255
L7583 16302
" />
<path d="M13473 2770
L13473 3293
" />
<path d="M13473 3293
L12950 3293
" />
<path d="M12450 3293
L10426 3293
" />
<path d="M10426 2246
L10426 3293
" />
<path d="M12450 2246
L10426 2246
" />
<path d="M12450 2246
L12450 3293
" />
<path d="M2926 9892
L3922 10216
" />
<path d="M2926 9892
L2301 11817
" />
<path d="M2301 11817
L3297 12140
" />
<path d="M3922 10216
L3297 12140
" />
<path d="M4238 9242
L4076 9740
" />
<path d="M3740 9080
L4238 9242
" />
<path d="M9111 7531
L9276 7557
" />
<path d="M9085 7695
L9276 7557
" />
<path d="M9111 7531
L9085 7695
" />
<path d="M8632 7441
L8493 7249
" />
<path d="M9893 6865
L9001 7513
" />
<path d="M9799 6301
L9938 6492
" />
<path d="M8538 6876
L9430 6228
" />
<path d="M8554.87 6865.01 A275.591 275.591 0.0 0 0 8493.9 7249.95" />
<path d="M8632.74 7441.06 A275.591 275.591 0.0 0 0 9017.69 7502.03" />
<path d="M9877.67 6877.22 A275.591 275.591 0.0 0 0 9938.64 6492.27" />
<path d="M9799.79 6301.16 A275.591 275.591 0.0 0 0 9414.84 6240.19" />
<path d="M11553 11375
L12444 10727
" />
<path d="M12813 10800
L12952 10991
" />
<path d="M12907 11364
L12015 12012
" />
<path d="M11646 11940
L11507 11749
" />
<path d="M12125 12030
L12099 12195
" />
<path d="M12099 12195
L12290 12056
" />
<path d="M12125 12030
L12290 12056
" />
<path d="M12813.9 10800.3 A275.591 275.591 0.0 0 0 12428.9 10739.4" />
<path d="M12891.7 11376.4 A275.591 275.591 0.0 0 0 12952.7 10991.4" />
<path d="M11646.8 11940.2 A275.591 275.591 0.0 0 0 12031.8 12001.2" />
<path d="M11568.9 11364.2 A275.591 275.591 0.0 0 0 11508 11749.1" />
</g>
<g style="fill:#008484; fill-opacity:0.0; 
stroke:#008484; stroke-width:59.0551; stroke-opacity:1; 
stroke-linecap:round; stroke-linejoin:round;">
<text x="6630.33" y="3167.13"
textLength="1118.3" font-size="524.934" lengthAdjust="spacingAndGlyphs"
text-anchor="middle" opacity="0">MH</text>
<path d="M6292 3148
L6292 2754
L6424 3035
L6555 2754
L6555 3148
" />
<path d="M6742 3148
L6742 2754
" />
<path d="M6742 2942
L6967 2942
" />
<path d="M6967 3148
L6967 2754
" />
<text x="14330.3" y="15817.1"
textLength="939.164" font-size="524.934" lengthAdjust="spacingAndGlyphs"
text-anchor="middle" opacity="0">MH</text>
<path d="M13992 15798
L13992 15404
L14124 15685
L14255 15404
L14255 15798
" />
<path d="M14442 15798
L14442 15404
" />
<path d="M14442 15592
L14667 15592
" />
<path d="M14667 15798
L14667 15404
" />
<g transform="rotate(54 9030.33 10370.3)">
<text x="9030.33" y="10567.1"
textLength="1276.62" font-size="524.934" lengthAdjust="spacingAndGlyphs"
text-anchor="middle" opacity="0">SW1</text>
</g>
<path d="M8592 10039
L8610 10095
L8665 10171
L8703 10190
L8729 10195
L8770 10188
L8800 10166
L8820 10128
L8824 10102
L8817 10061
L8788 9989
L8781 9948
L8785 9922
L8805 9884
L8835 9862
L8876 9856
L8903 9860
L8940 9879
L8995 9955
L9013 10011
" />
<path d="M9105 10107
L8842 10414
L9113 10309
L8930 10535
L9303 10380
" />
<path d="M9194 10899
L9062 10717
" />
<path d="M9128 10808
L9447 10577
L9379 10579
L9327 10571
L9290 10552
" />
<g transform="rotate(54 16165.4 5381.5)">
<text x="16165.4" y="5578.35"
textLength="845.426" font-size="524.934" lengthAdjust="spacingAndGlyphs"
text-anchor="middle" opacity="0">C1</text>
</g>
<path d="M16013 5411
L15986 5406
L15938 5372
L15916 5342
L15898 5285
L15907 5233
L15926 5196
L15976 5136
L16021 5103
L16093 5074
L16134 5067
L16186 5076
L16235 5110
L16257 5141
L16275 5197
L16270 5223
" />
<path d="M16203 5736
L16070 5554
" />
<path d="M16137 5645
L16455 5414
L16388 5416
L16335 5408
L16298 5389
" />
<g transform="rotate(-36 8830.33 13420.3)">
<text x="8830.33" y="13617.1"
textLength="845.426" font-size="524.934" lengthAdjust="spacingAndGlyphs"
text-anchor="middle" opacity="0">C2</text>
</g>
<path d="M8859 13572
L8855 13598
L8821 13647
L8790 13669
L8734 13686
L8682 13678
L8644 13659
L8585 13609
L8552 13564
L8523 13492
L8516 13451
L8525 13398
L8559 13350
L8589 13328
L8646 13310
L8672 13314
" />
<path d="M8793 13226
L8798 13200
L8817 13163
L8893 13108
L8934 13101
L8960 13105
L8997 13124
L9019 13155
L9037 13211
L8988 13525
L9185 13382
" />
<g transform="rotate(-36 13142.7 5663.66)">
<text x="13142.7" y="5860.51"
textLength="845.426" font-size="524.934" lengthAdjust="spacingAndGlyphs"
text-anchor="middle" opacity="0">D1</text>
</g>
<path d="M13012 5978
L12780 5660
L12856 5604
L12913 5587
L12965 5595
L13002 5614
L13062 5664
L13095 5709
L13124 5781
L13130 5822
L13122 5875
L13088 5923
L13012 5978
" />
<path d="M13497 5625
L13315 5758
" />
<path d="M13406 5692
L13175 5373
L13177 5441
L13169 5493
L13150 5530
" />
<g transform="rotate(-36 6271.25 10656.1)">
<text x="6271.25" y="10852.9"
textLength="845.426" font-size="524.934" lengthAdjust="spacingAndGlyphs"
text-anchor="middle" opacity="0">D2</text>
</g>
<path d="M6140 10970
L5909 10652
L5985 10597
L6041 10579
L6094 10587
L6131 10607
L6190 10656
L6223 10702
L6252 10773
L6259 10815
L6251 10867
L6216 10915
L6140 10970
" />
<path d="M6234 10462
L6238 10436
L6258 10399
L6334 10343
L6375 10337
L6401 10341
L6438 10360
L6460 10390
L6478 10447
L6429 10761
L6626 10618
" />
<g transform="rotate(18 17791.9 7933.33)">
<text x="17791.9" y="8130.18"
textLength="751.687" font-size="524.934" lengthAdjust="spacingAndGlyphs"
text-anchor="middle" opacity="0">J1</text>
</g>
<path d="M17733 7687
L17646 7955
L17611 8002
L17564 8026
L17505 8027
L17469 8015
" />
<path d="M17986 8183
L17772 8114
" />
<path d="M17879 8149
L18001 7774
L17948 7816
L17900 7840
L17859 7846
" />
<g transform="rotate(-90 9174.28 15779)">
<text x="9174.28" y="15975.9"
textLength="751.687" font-size="524.934" lengthAdjust="spacingAndGlyphs"
text-anchor="middle" opacity="0">J2</text>
</g>
<path d="M8958 15910
L9239 15910
L9296 15929
L9333 15966
L9352 16022
L9352 16060
" />
<path d="M8996 15741
L8977 15722
L8958 15685
L8958 15591
L8977 15554
L8996 15535
L9033 15516
L9071 15516
L9127 15535
L9352 15760
L9352 15516
" />
<g transform="rotate(-90 14040.7 2770.28)">
<text x="14040.7" y="2967.13"
textLength="751.687" font-size="524.934" lengthAdjust="spacingAndGlyphs"
text-anchor="middle" opacity="0">J3</text>
</g>
<path d="M13825 2901
L14106 2901
L14162 2920
L14200 2957
L14218 3013
L14218 3051
" />
<path d="M13825 2751
L13825 2507
L13975 2639
L13975 2582
L13993 2545
L14012 2526
L14050 2507
L14143 2507
L14181 2526
L14200 2545
L14218 2582
L14218 2695
L14200 2732
L14181 2751
" />
<g transform="rotate(18 3915.99 8541.63)">
<text x="3915.99" y="8738.48"
textLength="751.687" font-size="524.934" lengthAdjust="spacingAndGlyphs"
text-anchor="middle" opacity="0">J4</text>
</g>
<path d="M3857 8296
L3770 8563
L3735 8611
L3688 8635
L3629 8635
L3593 8624
" />
<path d="M4156 8530
L4074 8780
" />
<path d="M4113 8359
L3937 8597
L4168 8673
" />
<g transform="rotate(-36 8799.73 6297.79)">
<text x="8799.73" y="6494.64"
textLength="1145.39" font-size="524.934" lengthAdjust="spacingAndGlyphs"
text-anchor="middle" opacity="0">JP1</text>
</g>
<path d="M8407 6316
L8572 6543
L8590 6600
L8582 6652
L8547 6700
L8517 6722
" />
<path d="M8790 6524
L8559 6206
L8680 6117
L8721 6110
L8748 6115
L8785 6134
L8818 6179
L8825 6221
L8821 6247
L8801 6284
L8680 6372
" />
<path d="M9276 6171
L9094 6304
" />
<path d="M9185 6238
L8953 5919
L8956 5987
L8948 6039
L8928 6076
" />
<g transform="rotate(-36 11813.8 10797)">
<text x="11813.8" y="10993.8"
textLength="1145.39" font-size="524.934" lengthAdjust="spacingAndGlyphs"
text-anchor="middle" opacity="0">JP2</text>
</g>
<path d="M11421 10815
L11586 11042
L11604 11099
L11596 11151
L11562 11200
L11531 11222
" />
<path d="M11804 11023
L11573 10705
L11694 10617
L11736 10610
L11762 10614
L11799 10633
L11832 10679
L11839 10720
L11835 10746
L11815 10783
L11694 10872
" />
<path d="M11898 10515
L11902 10488
L11922 10451
L11997 10396
L12039 10389
L12065 10393
L12102 10413
L12124 10443
L12142 10500
L12092 10814
L12290 10671
" />
<g >
</g>
</g>
<g style="fill:#000000; fill-opacity:0.0; 
stroke:#000000; stroke-width:59.0551; stroke-opacity:1; 
stroke-linecap:round; stroke-linejoin:round;">
</g>
<g style="fill:#C2C200; fill-opacity:0.0; 
stroke:#C2C200; stroke-width:59.0551; stroke-opacity:1; 
stroke-linecap:round; stroke-linejoin:round;">
</g>
<g style="fill:#C2C200; fill-opacity:0.0; 
stroke:#C2C200; stroke-width:78.7402; stroke-opacity:1; 
stroke-linecap:round; stroke-linejoin:round;">
<path d="M209 16763
L15957 16763
" />
<path d="M15957 16763
L20824 1786
" />
<path d="M20824 1786
L5076 1786
" />
<path d="M5076 1786
L209 16763
" />
<g >
</g>
<g >
</g>
<g >
</g>
<g >
</g>
<g >
</g>
<g >
</g>
<g >
</g>
<g >
</g>
<g >
</g>
<g >
</g>
<g >
</g>
<g >
</g>
<g >
</g>
<g >
</g>
</g> 
</svg>
