<?xml version="1.0" standalone="no"?>
 <!DOCTYPE svg PUBLIC "-//W3C//DTD SVG 1.1//EN" 
 "http://www.w3.org/Graphics/SVG/1.1/DTD/svg11.dtd"> 
<svg
  xmlns:svg="http://www.w3.org/2000/svg"
  xmlns="http://www.w3.org/2000/svg"
  xmlns:xlink="http://www.w3.org/1999/xlink"
  version="1.1"
  width="8.150860cm" height="3.827780cm" viewBox="0 0 32090 15070">
<title>SVG Picture created as penroserombus_thin_40mm-brd.svg date 2021/02/11 19:30:13 </title>
  <desc>Picture generated by PCBNEW </desc>
<g style="fill:#000000; fill-opacity:1;stroke:#000000; stroke-opacity:1;
stroke-linecap:round; stroke-linejoin:round;"
 transform="translate(0 0) scale(1 1)">
</g>
<g style="fill:#000000; fill-opacity:0.0; 
stroke:#000000; stroke-width:-0.000393701; stroke-opacity:1; 
stroke-linecap:round; stroke-linejoin:round;">
<g >
</g>
<g style="fill:#000000; fill-opacity:1.0; 
stroke:#000000; stroke-width:0; stroke-opacity:1; 
stroke-linecap:round; stroke-linejoin:round;">
<circle cx="18874.1" cy="5745.9" r="629.921" /> 
</g>
<g style="fill:#000000; fill-opacity:1.0; 
stroke:#000000; stroke-width:39.3701; stroke-opacity:1; 
stroke-linecap:round; stroke-linejoin:round;">
</g>
<g >
</g>
<g style="fill:#000000; fill-opacity:1.0; 
stroke:#000000; stroke-width:39.3701; stroke-opacity:1; 
stroke-linecap:round; stroke-linejoin:round;">
</g>
<g style="fill:#000000; fill-opacity:1.0; 
stroke:#000000; stroke-width:0; stroke-opacity:1; 
stroke-linecap:round; stroke-linejoin:round;">
<circle cx="13225.9" cy="7581.08" r="629.921" /> 
</g>
<g style="fill:#000000; fill-opacity:1.0; 
stroke:#000000; stroke-width:39.3701; stroke-opacity:1; 
stroke-linecap:round; stroke-linejoin:round;">
</g>
<g >
</g>
<g style="fill:#000000; fill-opacity:1.0; 
stroke:#000000; stroke-width:39.3701; stroke-opacity:1; 
stroke-linecap:round; stroke-linejoin:round;">
</g>
<g style="fill:#000000; fill-opacity:1.0; 
stroke:#000000; stroke-width:0; stroke-opacity:1; 
stroke-linecap:round; stroke-linejoin:round;">
<circle cx="5100.77" cy="10221.1" r="629.921" /> 
</g>
<g style="fill:#000000; fill-opacity:1.0; 
stroke:#000000; stroke-width:39.3701; stroke-opacity:1; 
stroke-linecap:round; stroke-linejoin:round;">
</g>
<g >
</g>
<g style="fill:#000000; fill-opacity:1.0; 
stroke:#000000; stroke-width:39.3701; stroke-opacity:1; 
stroke-linecap:round; stroke-linejoin:round;">
</g>
<g style="fill:#000000; fill-opacity:1.0; 
stroke:#000000; stroke-width:0; stroke-opacity:1; 
stroke-linecap:round; stroke-linejoin:round;">
<circle cx="15269.4" cy="9972.82" r="629.921" /> 
</g>
<g style="fill:#000000; fill-opacity:1.0; 
stroke:#000000; stroke-width:39.3701; stroke-opacity:1; 
stroke-linecap:round; stroke-linejoin:round;">
</g>
<g >
</g>
<g style="fill:#000000; fill-opacity:1.0; 
stroke:#000000; stroke-width:39.3701; stroke-opacity:1; 
stroke-linecap:round; stroke-linejoin:round;">
</g>
<g style="fill:#000000; fill-opacity:1.0; 
stroke:#000000; stroke-width:0; stroke-opacity:1; 
stroke-linecap:round; stroke-linejoin:round;">
<circle cx="26999.2" cy="3105.87" r="629.921" /> 
</g>
<g style="fill:#000000; fill-opacity:1.0; 
stroke:#000000; stroke-width:39.3701; stroke-opacity:1; 
stroke-linecap:round; stroke-linejoin:round;">
</g>
<g >
</g>
<g style="fill:#000000; fill-opacity:1.0; 
stroke:#000000; stroke-width:39.3701; stroke-opacity:1; 
stroke-linecap:round; stroke-linejoin:round;">
</g>
<g style="fill:#000000; fill-opacity:1.0; 
stroke:#000000; stroke-width:0; stroke-opacity:1; 
stroke-linecap:round; stroke-linejoin:round;">
<circle cx="16830.6" cy="3354.16" r="629.921" /> 
</g>
<g style="fill:#000000; fill-opacity:1.0; 
stroke:#000000; stroke-width:39.3701; stroke-opacity:1; 
stroke-linecap:round; stroke-linejoin:round;">
</g>
<g >
</g>
<g style="fill:#000000; fill-opacity:1.0; 
stroke:#000000; stroke-width:39.3701; stroke-opacity:1; 
stroke-linecap:round; stroke-linejoin:round;">
</g>
<g style="fill:#000000; fill-opacity:1.0; 
stroke:#000000; stroke-width:0; stroke-opacity:1; 
stroke-linecap:round; stroke-linejoin:round;">
<path style="fill:#000000; fill-opacity:1.0; 
stroke:#000000; stroke-width:0; stroke-opacity:1; 
stroke-linecap:round; stroke-linejoin:round;fill-rule:evenodd;"
d="M 21844.9,6744.55
22076.3,7063.06
21598.6,7410.18
21367.2,7091.67
Z" /> 
<path style="fill:#000000; fill-opacity:1.0; 
stroke:#000000; stroke-width:0; stroke-opacity:1; 
stroke-linecap:round; stroke-linejoin:round;fill-rule:evenodd;"
d="M 21104.4,5725.32
21335.8,6043.83
20858.1,6390.94
20626.6,6072.43
Z" /> 
<path style="fill:#000000; fill-opacity:1.0; 
stroke:#000000; stroke-width:0; stroke-opacity:1; 
stroke-linecap:round; stroke-linejoin:round;fill-rule:evenodd;"
d="M 20284.2,7878.47
20515.6,8196.98
20037.9,8544.1
19806.5,8225.58
Z" /> 
<path style="fill:#000000; fill-opacity:1.0; 
stroke:#000000; stroke-width:0; stroke-opacity:1; 
stroke-linecap:round; stroke-linejoin:round;fill-rule:evenodd;"
d="M 19543.7,6859.23
19775.1,7177.74
19297.4,7524.86
19065.9,7206.35
Z" /> 
</g>
<g >
</g>
<g style="fill:#000000; fill-opacity:1.0; 
stroke:#000000; stroke-width:0; stroke-opacity:1; 
stroke-linecap:round; stroke-linejoin:round;">
<path style="fill:#000000; fill-opacity:1.0; 
stroke:#000000; stroke-width:0; stroke-opacity:1; 
stroke-linecap:round; stroke-linejoin:round;fill-rule:evenodd;"
d="M 13503.6,5372.25
13513.2,5373.29
13522.6,5375.27
13531.8,5378.16
13540.7,5381.95
13549.2,5386.58
13557.2,5392.03
13564.6,5398.23
13571.3,5405.13
13577.4,5412.65
13733.6,5627.65
13738.9,5635.73
13743.4,5644.29
13747,5653.25
13749.7,5662.52
13751.5,5672.01
13752.3,5681.64
13752.2,5691.29
13751.2,5700.9
13749.2,5710.35
13746.3,5719.57
13742.5,5728.45
13737.9,5736.93
13732.5,5744.91
13726.3,5752.31
13719.4,5759.07
13711.8,5765.13
13409.2,5984.97
13401.2,5990.26
13392.6,5994.73
13383.6,5998.33
13374.4,6001.05
13364.9,6002.84
13355.3,6003.69
13345.6,6003.6
13336,6002.55
13326.5,6000.58
13317.3,5997.68
13308.4,5993.9
13300,5989.26
13292,5983.82
13284.6,5977.62
13277.8,5970.72
13271.8,5963.19
13115.6,5748.2
13110.3,5740.12
13105.8,5731.55
13102.2,5722.59
13099.5,5713.32
13097.7,5703.83
13096.8,5694.21
13096.9,5684.55
13098,5674.95
13100,5665.5
13102.8,5656.28
13106.6,5647.39
13111.3,5638.92
13116.7,5630.94
13122.9,5623.54
13129.8,5616.77
13137.3,5610.72
13439.9,5390.88
13448,5385.59
13456.6,5381.12
13465.5,5377.51
13474.8,5374.8
13484.3,5373.01
13493.9,5372.16
Z" /> 
<path style="fill:#000000; fill-opacity:1.0; 
stroke:#000000; stroke-width:0; stroke-opacity:1; 
stroke-linecap:round; stroke-linejoin:round;fill-rule:evenodd;"
d="M 13023.4,4711.34
13033,4712.38
13042.4,4714.36
13051.7,4717.25
13060.5,4721.04
13069,4725.68
13077,4731.12
13084.4,4737.32
13091.2,4744.22
13097.2,4751.74
13253.4,4966.74
13258.7,4974.82
13263.2,4983.38
13266.8,4992.34
13269.5,5001.61
13271.3,5011.11
13272.1,5020.73
13272.1,5030.39
13271,5039.99
13269,5049.44
13266.1,5058.66
13262.4,5067.54
13257.7,5076.02
13252.3,5084
13246.1,5091.4
13239.2,5098.16
13231.6,5104.22
12929.1,5324.06
12921,5329.35
12912.4,5333.82
12903.5,5337.42
12894.2,5340.14
12884.7,5341.93
12875.1,5342.78
12865.4,5342.69
12855.8,5341.65
12846.4,5339.67
12837.1,5336.77
12828.3,5332.99
12819.8,5328.35
12811.8,5322.91
12804.4,5316.71
12797.6,5309.81
12791.6,5302.28
12635.4,5087.29
12630.1,5079.21
12625.6,5070.64
12622,5061.68
12619.3,5052.41
12617.5,5042.92
12616.7,5033.3
12616.8,5023.64
12617.8,5014.04
12619.8,5004.59
12622.7,4995.37
12626.5,4986.48
12631.1,4978.01
12636.5,4970.03
12642.7,4962.63
12649.6,4955.86
12657.2,4949.81
12959.7,4729.97
12967.8,4724.68
12976.4,4720.21
12985.3,4716.6
12994.6,4713.89
13004.1,4712.1
13013.7,4711.25
Z" /> 
</g>
<g >
</g>
<g style="fill:#000000; fill-opacity:1.0; 
stroke:#000000; stroke-width:0; stroke-opacity:1; 
stroke-linecap:round; stroke-linejoin:round;">
<circle cx="17018.5" cy="9644.22" r="226.378" /> 
</g>
<g style="fill:#000000; fill-opacity:1.0; 
stroke:#000000; stroke-width:39.3701; stroke-opacity:1; 
stroke-linecap:round; stroke-linejoin:round;">
</g>
<g >
</g>
<g style="fill:#000000; fill-opacity:1.0; 
stroke:#000000; stroke-width:39.3701; stroke-opacity:1; 
stroke-linecap:round; stroke-linejoin:round;">
</g>
<g style="fill:#000000; fill-opacity:1.0; 
stroke:#000000; stroke-width:0; stroke-opacity:1; 
stroke-linecap:round; stroke-linejoin:round;">
<circle cx="15081.5" cy="3682.76" r="226.378" /> 
</g>
<g style="fill:#000000; fill-opacity:1.0; 
stroke:#000000; stroke-width:39.3701; stroke-opacity:1; 
stroke-linecap:round; stroke-linejoin:round;">
</g>
<g >
</g>
<g style="fill:#000000; fill-opacity:1.0; 
stroke:#000000; stroke-width:39.3701; stroke-opacity:1; 
stroke-linecap:round; stroke-linejoin:round;">
</g>
<g style="fill:#000000; fill-opacity:1.0; 
stroke:#000000; stroke-width:0; stroke-opacity:1; 
stroke-linecap:round; stroke-linejoin:round;">
<path style="fill:#000000; fill-opacity:1.0; 
stroke:#000000; stroke-width:0; stroke-opacity:1; 
stroke-linecap:round; stroke-linejoin:round;fill-rule:evenodd;"
d="M 16252.3,5047.39
16664.2,4913.56
16901.4,5643.71
16489.6,5777.53
Z" /> 
<path style="fill:#000000; fill-opacity:1.0; 
stroke:#000000; stroke-width:0; stroke-opacity:1; 
stroke-linecap:round; stroke-linejoin:round;fill-rule:evenodd;"
d="M 15316.2,5351.54
15728.1,5217.72
15965.4,5947.86
15553.5,6081.68
Z" /> 
<path style="fill:#000000; fill-opacity:1.0; 
stroke:#000000; stroke-width:0; stroke-opacity:1; 
stroke-linecap:round; stroke-linejoin:round;fill-rule:evenodd;"
d="M 14380.2,5655.69
14792,5521.87
15029.3,6252.01
14617.4,6385.83
Z" /> 
<path style="fill:#000000; fill-opacity:1.0; 
stroke:#000000; stroke-width:0; stroke-opacity:1; 
stroke-linecap:round; stroke-linejoin:round;fill-rule:evenodd;"
d="M 16939.7,7162.93
17351.6,7029.1
17588.8,7759.25
17176.9,7893.07
Z" /> 
<path style="fill:#000000; fill-opacity:1.0; 
stroke:#000000; stroke-width:0; stroke-opacity:1; 
stroke-linecap:round; stroke-linejoin:round;fill-rule:evenodd;"
d="M 16003.6,7467.08
16415.5,7333.25
16652.7,8063.4
16240.9,8197.22
Z" /> 
<path style="fill:#000000; fill-opacity:1.0; 
stroke:#000000; stroke-width:0; stroke-opacity:1; 
stroke-linecap:round; stroke-linejoin:round;fill-rule:evenodd;"
d="M 15067.5,7771.23
15479.4,7637.41
15716.7,8367.55
15304.8,8501.37
Z" /> 
</g>
<g >
</g>
<g style="fill:#000000; fill-opacity:1.0; 
stroke:#000000; stroke-width:0; stroke-opacity:1; 
stroke-linecap:round; stroke-linejoin:round;">
<path style="fill:#000000; fill-opacity:1.0; 
stroke:#000000; stroke-width:0; stroke-opacity:1; 
stroke-linecap:round; stroke-linejoin:round;fill-rule:evenodd;"
d="M 18170.9,3191.74
18170.9,2798.04
18761.4,2798.04
18761.4,3191.74
Z" /> 
<path style="fill:#000000; fill-opacity:1.0; 
stroke:#000000; stroke-width:0; stroke-opacity:1; 
stroke-linecap:round; stroke-linejoin:round;fill-rule:evenodd;"
d="M 18170.9,4451.58
18170.9,4057.88
18761.4,4057.88
18761.4,4451.58
Z" /> 
<path style="fill:#000000; fill-opacity:1.0; 
stroke:#000000; stroke-width:0; stroke-opacity:1; 
stroke-linecap:round; stroke-linejoin:round;fill-rule:evenodd;"
d="M 20100,3191.74
20100,2798.04
20690.5,2798.04
20690.5,3191.74
Z" /> 
<path style="fill:#000000; fill-opacity:1.0; 
stroke:#000000; stroke-width:0; stroke-opacity:1; 
stroke-linecap:round; stroke-linejoin:round;fill-rule:evenodd;"
d="M 20100,4451.58
20100,4057.88
20690.5,4057.88
20690.5,4451.58
Z" /> 
</g>
<g >
</g>
<g style="fill:#000000; fill-opacity:1.0; 
stroke:#000000; stroke-width:0; stroke-opacity:1; 
stroke-linecap:round; stroke-linejoin:round;">
<path style="fill:#000000; fill-opacity:1.0; 
stroke:#000000; stroke-width:0; stroke-opacity:1; 
stroke-linecap:round; stroke-linejoin:round;fill-rule:evenodd;"
d="M 12000,8875.4
12000,9269.1
11409.5,9269.1
11409.5,8875.4
Z" /> 
<path style="fill:#000000; fill-opacity:1.0; 
stroke:#000000; stroke-width:0; stroke-opacity:1; 
stroke-linecap:round; stroke-linejoin:round;fill-rule:evenodd;"
d="M 12000,10135.2
12000,10528.9
11409.5,10528.9
11409.5,10135.2
Z" /> 
<path style="fill:#000000; fill-opacity:1.0; 
stroke:#000000; stroke-width:0; stroke-opacity:1; 
stroke-linecap:round; stroke-linejoin:round;fill-rule:evenodd;"
d="M 13929.1,8875.4
13929.1,9269.1
13338.6,9269.1
13338.6,8875.4
Z" /> 
<path style="fill:#000000; fill-opacity:1.0; 
stroke:#000000; stroke-width:0; stroke-opacity:1; 
stroke-linecap:round; stroke-linejoin:round;fill-rule:evenodd;"
d="M 13929.1,10135.2
13929.1,10528.9
13338.6,10528.9
13338.6,10135.2
Z" /> 
</g>
<g >
</g>
<g style="fill:#000000; fill-opacity:1.0; 
stroke:#000000; stroke-width:0; stroke-opacity:1; 
stroke-linecap:round; stroke-linejoin:round;">
<path style="fill:#000000; fill-opacity:1.0; 
stroke:#000000; stroke-width:0; stroke-opacity:1; 
stroke-linecap:round; stroke-linejoin:round;fill-rule:evenodd;"
d="M 19203.6,7972.25
19213.2,7973.29
19222.6,7975.27
19231.8,7978.16
19240.7,7981.95
19249.2,7986.58
19257.2,7992.03
19264.6,7998.23
19271.3,8005.13
19277.4,8012.65
19433.6,8227.65
19438.9,8235.73
19443.4,8244.29
19447,8253.25
19449.7,8262.52
19451.5,8272.01
19452.3,8281.64
19452.2,8291.29
19451.2,8300.9
19449.2,8310.35
19446.3,8319.57
19442.5,8328.45
19437.9,8336.93
19432.5,8344.91
19426.3,8352.31
19419.4,8359.07
19411.8,8365.13
19109.2,8584.97
19101.2,8590.26
19092.6,8594.73
19083.6,8598.33
19074.4,8601.05
19064.9,8602.84
19055.3,8603.69
19045.6,8603.6
19036,8602.55
19026.5,8600.58
19017.3,8597.68
19008.4,8593.9
19000,8589.26
18992,8583.82
18984.6,8577.62
18977.8,8570.72
18971.8,8563.19
18815.6,8348.2
18810.3,8340.12
18805.8,8331.55
18802.2,8322.59
18799.5,8313.32
18797.7,8303.83
18796.8,8294.21
18796.9,8284.55
18798,8274.95
18800,8265.5
18802.8,8256.28
18806.6,8247.39
18811.3,8238.92
18816.7,8230.94
18822.9,8223.54
18829.8,8216.77
18837.3,8210.72
19139.9,7990.88
19148,7985.59
19156.6,7981.12
19165.5,7977.51
19174.8,7974.8
19184.3,7973.01
19193.9,7972.16
Z" /> 
<path style="fill:#000000; fill-opacity:1.0; 
stroke:#000000; stroke-width:0; stroke-opacity:1; 
stroke-linecap:round; stroke-linejoin:round;fill-rule:evenodd;"
d="M 18723.4,7311.34
18733,7312.38
18742.4,7314.36
18751.7,7317.25
18760.5,7321.04
18769,7325.68
18777,7331.12
18784.4,7337.32
18791.2,7344.22
18797.2,7351.74
18953.4,7566.74
18958.7,7574.82
18963.2,7583.38
18966.8,7592.34
18969.5,7601.61
18971.3,7611.11
18972.1,7620.73
18972.1,7630.39
18971,7639.99
18969,7649.44
18966.1,7658.66
18962.4,7667.54
18957.7,7676.02
18952.3,7684
18946.1,7691.4
18939.2,7698.16
18931.6,7704.22
18629.1,7924.06
18621,7929.35
18612.4,7933.82
18603.5,7937.42
18594.2,7940.14
18584.7,7941.93
18575.1,7942.78
18565.4,7942.69
18555.8,7941.65
18546.4,7939.67
18537.1,7936.77
18528.3,7932.99
18519.8,7928.35
18511.8,7922.91
18504.4,7916.71
18497.6,7909.81
18491.6,7902.28
18335.4,7687.29
18330.1,7679.21
18325.6,7670.64
18322,7661.68
18319.3,7652.41
18317.5,7642.92
18316.7,7633.3
18316.8,7623.64
18317.8,7614.04
18319.8,7604.59
18322.7,7595.37
18326.5,7586.48
18331.1,7578.01
18336.5,7570.03
18342.7,7562.63
18349.6,7555.86
18357.2,7549.81
18659.7,7329.97
18667.8,7324.68
18676.4,7320.21
18685.3,7316.6
18694.6,7313.89
18704.1,7312.1
18713.7,7311.25
Z" /> 
</g>
<g >
</g>
<g style="fill:#000000; fill-opacity:1.0; 
stroke:#000000; stroke-width:0; stroke-opacity:1; 
stroke-linecap:round; stroke-linejoin:round;">
<path style="fill:#000000; fill-opacity:1.0; 
stroke:#000000; stroke-width:0; stroke-opacity:1; 
stroke-linecap:round; stroke-linejoin:round;fill-rule:evenodd;"
d="M 11031.1,8868.18
11040.7,8869.6
11050.1,8871.94
11059.2,8875.2
11067.9,8879.33
11076.2,8884.29
11083.9,8890.05
11091.1,8896.53
11097.6,8903.69
11103.3,8911.45
11108.3,8919.73
11112.4,8928.46
11115.7,8937.56
11118,8946.93
11119.5,8956.48
11119.9,8966.13
11119.9,9231.88
11119.5,9241.53
11118,9251.08
11115.7,9260.45
11112.4,9269.54
11108.3,9278.28
11103.3,9286.56
11097.6,9294.32
11091.1,9301.48
11083.9,9307.96
11076.2,9313.72
11067.9,9318.68
11059.2,9322.81
11050.1,9326.07
11040.7,9328.41
11031.1,9329.83
11021.5,9330.3
10647.5,9330.3
10637.8,9329.83
10628.3,9328.41
10618.9,9326.07
10609.8,9322.81
10601.1,9318.68
10592.8,9313.72
10585,9307.96
10577.9,9301.48
10571.4,9294.32
10565.6,9286.56
10560.7,9278.28
10556.6,9269.54
10553.3,9260.45
10551,9251.08
10549.5,9241.53
10549.1,9231.88
10549.1,8966.13
10549.5,8956.48
10551,8946.93
10553.3,8937.56
10556.6,8928.46
10560.7,8919.73
10565.6,8911.45
10571.4,8903.69
10577.9,8896.53
10585,8890.05
10592.8,8884.29
10601.1,8879.33
10609.8,8875.2
10618.9,8871.94
10628.3,8869.6
10637.8,8868.18
10647.5,8867.71
11021.5,8867.71
Z" /> 
<path style="fill:#000000; fill-opacity:1.0; 
stroke:#000000; stroke-width:0; stroke-opacity:1; 
stroke-linecap:round; stroke-linejoin:round;fill-rule:evenodd;"
d="M 11031.1,9685.11
11040.7,9686.53
11050.1,9688.87
11059.2,9692.13
11067.9,9696.26
11076.2,9701.22
11083.9,9706.98
11091.1,9713.46
11097.6,9720.62
11103.3,9728.38
11108.3,9736.66
11112.4,9745.39
11115.7,9754.49
11118,9763.86
11119.5,9773.41
11119.9,9783.06
11119.9,10048.8
11119.5,10058.5
11118,10068
11115.7,10077.4
11112.4,10086.5
11108.3,10095.2
11103.3,10103.5
11097.6,10111.2
11091.1,10118.4
11083.9,10124.9
11076.2,10130.6
11067.9,10135.6
11059.2,10139.7
11050.1,10143
11040.7,10145.3
11031.1,10146.8
11021.5,10147.2
10647.5,10147.2
10637.8,10146.8
10628.3,10145.3
10618.9,10143
10609.8,10139.7
10601.1,10135.6
10592.8,10130.6
10585,10124.9
10577.9,10118.4
10571.4,10111.2
10565.6,10103.5
10560.7,10095.2
10556.6,10086.5
10553.3,10077.4
10551,10068
10549.5,10058.5
10549.1,10048.8
10549.1,9783.06
10549.5,9773.41
10551,9763.86
10553.3,9754.49
10556.6,9745.39
10560.7,9736.66
10565.6,9728.38
10571.4,9720.62
10577.9,9713.46
10585,9706.98
10592.8,9701.22
10601.1,9696.26
10609.8,9692.13
10618.9,9688.87
10628.3,9686.53
10637.8,9685.11
10647.5,9684.63
11021.5,9684.63
Z" /> 
</g>
<g >
</g>
<g style="fill:#000000; fill-opacity:1.0; 
stroke:#000000; stroke-width:0; stroke-opacity:1; 
stroke-linecap:round; stroke-linejoin:round;">
<path style="fill:#000000; fill-opacity:1.0; 
stroke:#000000; stroke-width:0; stroke-opacity:1; 
stroke-linecap:round; stroke-linejoin:round;fill-rule:evenodd;"
d="M 7883.15,7679.53
8424.62,7286.13
8818.02,7827.6
8276.55,8221
Z" /> 
<circle cx="7541.57" cy="8341.35" r="334.646" /> 
<circle cx="6732.55" cy="8929.14" r="334.646" /> 
</g>
<g >
</g>
<g style="fill:#000000; fill-opacity:1.0; 
stroke:#000000; stroke-width:0; stroke-opacity:1; 
stroke-linecap:round; stroke-linejoin:round;">
<path style="fill:#000000; fill-opacity:1.0; 
stroke:#000000; stroke-width:0; stroke-opacity:1; 
stroke-linecap:round; stroke-linejoin:round;fill-rule:evenodd;"
d="M 21431.1,3268.18
21440.7,3269.6
21450.1,3271.94
21459.2,3275.2
21467.9,3279.33
21476.2,3284.29
21483.9,3290.05
21491.1,3296.53
21497.6,3303.69
21503.3,3311.45
21508.3,3319.73
21512.4,3328.46
21515.7,3337.56
21518,3346.93
21519.5,3356.48
21519.9,3366.13
21519.9,3631.88
21519.5,3641.53
21518,3651.08
21515.7,3660.45
21512.4,3669.54
21508.3,3678.28
21503.3,3686.56
21497.6,3694.32
21491.1,3701.48
21483.9,3707.96
21476.2,3713.72
21467.9,3718.68
21459.2,3722.81
21450.1,3726.07
21440.7,3728.41
21431.1,3729.83
21421.5,3730.3
21047.5,3730.3
21037.8,3729.83
21028.3,3728.41
21018.9,3726.07
21009.8,3722.81
21001.1,3718.68
20992.8,3713.72
20985,3707.96
20977.9,3701.48
20971.4,3694.32
20965.6,3686.56
20960.7,3678.28
20956.6,3669.54
20953.3,3660.45
20951,3651.08
20949.5,3641.53
20949.1,3631.88
20949.1,3366.13
20949.5,3356.48
20951,3346.93
20953.3,3337.56
20956.6,3328.46
20960.7,3319.73
20965.6,3311.45
20971.4,3303.69
20977.9,3296.53
20985,3290.05
20992.8,3284.29
21001.1,3279.33
21009.8,3275.2
21018.9,3271.94
21028.3,3269.6
21037.8,3268.18
21047.5,3267.71
21421.5,3267.71
Z" /> 
<path style="fill:#000000; fill-opacity:1.0; 
stroke:#000000; stroke-width:0; stroke-opacity:1; 
stroke-linecap:round; stroke-linejoin:round;fill-rule:evenodd;"
d="M 21431.1,4085.11
21440.7,4086.53
21450.1,4088.87
21459.2,4092.13
21467.9,4096.26
21476.2,4101.22
21483.9,4106.98
21491.1,4113.46
21497.6,4120.62
21503.3,4128.38
21508.3,4136.66
21512.4,4145.39
21515.7,4154.49
21518,4163.86
21519.5,4173.41
21519.9,4183.06
21519.9,4448.81
21519.5,4458.45
21518,4468.01
21515.7,4477.38
21512.4,4486.47
21508.3,4495.2
21503.3,4503.49
21497.6,4511.25
21491.1,4518.4
21483.9,4524.89
21476.2,4530.64
21467.9,4535.61
21459.2,4539.74
21450.1,4542.99
21440.7,4545.34
21431.1,4546.76
21421.5,4547.23
21047.5,4547.23
21037.8,4546.76
21028.3,4545.34
21018.9,4542.99
21009.8,4539.74
21001.1,4535.61
20992.8,4530.64
20985,4524.89
20977.9,4518.4
20971.4,4511.25
20965.6,4503.49
20960.7,4495.2
20956.6,4486.47
20953.3,4477.38
20951,4468.01
20949.5,4458.45
20949.1,4448.81
20949.1,4183.06
20949.5,4173.41
20951,4163.86
20953.3,4154.49
20956.6,4145.39
20960.7,4136.66
20965.6,4128.38
20971.4,4120.62
20977.9,4113.46
20985,4106.98
20992.8,4101.22
21001.1,4096.26
21009.8,4092.13
21018.9,4088.87
21028.3,4086.53
21037.8,4085.11
21047.5,4084.63
21421.5,4084.63
Z" /> 
</g>
<g >
</g>
<g style="fill:#000000; fill-opacity:1.0; 
stroke:#000000; stroke-width:0; stroke-opacity:1; 
stroke-linecap:round; stroke-linejoin:round;">
<path style="fill:#000000; fill-opacity:1.0; 
stroke:#000000; stroke-width:0; stroke-opacity:1; 
stroke-linecap:round; stroke-linejoin:round;fill-rule:evenodd;"
d="M 12556.3,6467.75
12324.9,6149.24
12802.6,5802.12
13034.1,6120.63
Z" /> 
<path style="fill:#000000; fill-opacity:1.0; 
stroke:#000000; stroke-width:0; stroke-opacity:1; 
stroke-linecap:round; stroke-linejoin:round;fill-rule:evenodd;"
d="M 11815.8,5448.51
11584.4,5130
12062.1,4782.89
12293.5,5101.4
Z" /> 
<path style="fill:#000000; fill-opacity:1.0; 
stroke:#000000; stroke-width:0; stroke-opacity:1; 
stroke-linecap:round; stroke-linejoin:round;fill-rule:evenodd;"
d="M 10995.6,7601.66
10764.2,7283.15
11241.9,6936.04
11473.4,7254.55
Z" /> 
<path style="fill:#000000; fill-opacity:1.0; 
stroke:#000000; stroke-width:0; stroke-opacity:1; 
stroke-linecap:round; stroke-linejoin:round;fill-rule:evenodd;"
d="M 10255.1,6582.43
10023.7,6263.92
10501.4,5916.8
10732.8,6235.31
Z" /> 
</g>
<g >
</g>
<g style="fill:#000000; fill-opacity:1.0; 
stroke:#000000; stroke-width:0; stroke-opacity:1; 
stroke-linecap:round; stroke-linejoin:round;">
<circle cx="24919.7" cy="3019.78" r="334.646" /> 
<circle cx="23919.7" cy="3019.78" r="334.646" /> 
<path style="fill:#000000; fill-opacity:1.0; 
stroke:#000000; stroke-width:0; stroke-opacity:1; 
stroke-linecap:round; stroke-linejoin:round;fill-rule:evenodd;"
d="M 23254.3,3354.42
22585,3354.42
22585,2685.13
23254.3,2685.13
Z" /> 
</g>
<g >
</g>
<g style="fill:#000000; fill-opacity:1.0; 
stroke:#000000; stroke-width:0; stroke-opacity:1; 
stroke-linecap:round; stroke-linejoin:round;">
<path style="fill:#000000; fill-opacity:1.0; 
stroke:#000000; stroke-width:0; stroke-opacity:1; 
stroke-linecap:round; stroke-linejoin:round;fill-rule:evenodd;"
d="M 9345.14,9972.82
10014.4,9972.82
10014.4,10642.1
9345.14,10642.1
Z" /> 
<circle cx="8679.79" cy="10307.5" r="334.646" /> 
<circle cx="7679.79" cy="10307.5" r="334.646" /> 
</g>
<g >
</g>
<g style="fill:#000000; fill-opacity:1.0; 
stroke:#000000; stroke-width:0; stroke-opacity:1; 
stroke-linecap:round; stroke-linejoin:round;">
<circle cx="24963.5" cy="4691.64" r="334.646" /> 
<circle cx="24154.5" cy="5279.43" r="334.646" /> 
<path style="fill:#000000; fill-opacity:1.0; 
stroke:#000000; stroke-width:0; stroke-opacity:1; 
stroke-linecap:round; stroke-linejoin:round;fill-rule:evenodd;"
d="M 23812.9,5941.25
23271.5,6334.65
22878.1,5793.18
23419.5,5399.78
Z" /> 
</g>
<g >
</g>
<g style="fill:#000000; fill-opacity:1.0; 
stroke:#000000; stroke-width:0; stroke-opacity:1; 
stroke-linecap:round; stroke-linejoin:round;">
<path style="fill:#000000; fill-opacity:1.0; 
stroke:#000000; stroke-width:0; stroke-opacity:1; 
stroke-linecap:round; stroke-linejoin:round;fill-rule:evenodd;"
d="M 16730.5,8457.66
16913,9019.3
16538.5,9140.96
16356,8579.32
Z" /> 
<path style="fill:#000000; fill-opacity:1.0; 
stroke:#000000; stroke-width:0; stroke-opacity:1; 
stroke-linecap:round; stroke-linejoin:round;fill-rule:evenodd;"
d="M 16238.9,9238.07
16229.7,9241.05
16210.8,9245.19
16191.7,9247.46
16172.3,9247.84
16153.1,9246.33
16134.1,9242.93
16115.5,9237.69
16097.5,9230.65
16080.3,9221.88
16064,9211.46
16048.8,9199.5
16034.9,9186.11
16022.4,9171.42
16011.3,9155.57
16001.9,9138.72
15994.1,9121.02
15991.2,9111.83
15990.9,9111.91
15930.1,8924.69
15930.3,8924.62
15927.3,8915.43
15923.2,8896.56
15920.9,8877.38
15920.6,8858.06
15922.1,8838.81
15925.5,8819.79
15930.7,8801.2
15937.7,8783.21
15946.5,8765.99
15956.9,8749.72
15968.9,8734.55
15982.3,8720.63
15997,8708.08
16012.8,8697.04
16029.7,8687.6
16047.4,8679.86
16056.6,8676.87
16056.5,8676.65
16262.4,8609.73
16444.9,9171.38
16239,9238.29
Z" /> 
<path style="fill:#000000; fill-opacity:1.0; 
stroke:#000000; stroke-width:0; stroke-opacity:1; 
stroke-linecap:round; stroke-linejoin:round;fill-rule:evenodd;"
d="M 16824.1,8427.24
17030,8360.33
17030.1,8360.55
17039.3,8357.57
17058.1,8353.43
17077.3,8351.16
17096.6,8350.78
17115.9,8352.29
17134.9,8355.69
17153.5,8360.93
17171.5,8367.98
17188.7,8376.75
17205,8387.16
17220.1,8399.12
17234.1,8412.51
17246.6,8427.2
17257.7,8443.05
17267.1,8459.9
17274.8,8477.6
17277.8,8486.79
17278.1,8486.71
17338.9,8673.93
17338.7,8674
17341.6,8683.19
17345.8,8702.06
17348.1,8721.24
17348.4,8740.56
17346.9,8759.82
17343.5,8778.83
17338.3,8797.43
17331.2,8815.41
17322.5,8832.63
17312.1,8848.9
17300.1,8864.07
17286.7,8877.99
17272,8890.54
17256.2,8901.59
17239.3,8911.02
17221.6,8918.77
17212.4,8921.75
17212.5,8921.98
17006.6,8988.89
Z" /> 
</g>
<g >
</g>
<g style="fill:#000000; fill-opacity:1.0; 
stroke:#000000; stroke-width:0; stroke-opacity:1; 
stroke-linecap:round; stroke-linejoin:round;">
<path style="fill:#000000; fill-opacity:1.0; 
stroke:#000000; stroke-width:0; stroke-opacity:1; 
stroke-linecap:round; stroke-linejoin:round;fill-rule:evenodd;"
d="M 15424.1,4185.4
15630,4118.49
15630.1,4118.71
15639.3,4115.73
15658.1,4111.59
15677.3,4109.32
15696.6,4108.94
15715.9,4110.45
15734.9,4113.85
15753.5,4119.09
15771.5,4126.13
15788.7,4134.9
15805,4145.32
15820.1,4157.28
15834.1,4170.67
15846.6,4185.36
15857.7,4201.21
15867.1,4218.06
15874.8,4235.76
15877.8,4244.95
15878.1,4244.87
15938.9,4432.09
15938.7,4432.16
15941.6,4441.35
15945.8,4460.22
15948.1,4479.4
15948.4,4498.72
15946.9,4517.97
15943.5,4536.99
15938.3,4555.58
15931.2,4573.57
15922.5,4590.79
15912.1,4607.06
15900.1,4622.23
15886.7,4636.15
15872,4648.7
15856.2,4659.74
15839.3,4669.18
15821.6,4676.92
15812.4,4679.91
15812.5,4680.13
15606.6,4747.05
Z" /> 
<path style="fill:#000000; fill-opacity:1.0; 
stroke:#000000; stroke-width:0; stroke-opacity:1; 
stroke-linecap:round; stroke-linejoin:round;fill-rule:evenodd;"
d="M 14838.9,4996.23
14829.7,4999.21
14810.8,5003.35
14791.7,5005.62
14772.3,5006
14753.1,5004.48
14734.1,5001.09
14715.5,4995.84
14697.5,4988.8
14680.3,4980.03
14664,4969.62
14648.8,4957.66
14634.9,4944.27
14622.4,4929.58
14611.3,4913.73
14601.9,4896.88
14594.1,4879.18
14591.2,4869.99
14590.9,4870.07
14530.1,4682.85
14530.3,4682.78
14527.3,4673.59
14523.2,4654.72
14520.9,4635.54
14520.6,4616.22
14522.1,4596.96
14525.5,4577.95
14530.7,4559.35
14537.7,4541.36
14546.5,4524.15
14556.9,4507.88
14568.9,4492.71
14582.3,4478.79
14597,4466.24
14612.8,4455.19
14629.7,4445.76
14647.4,4438.01
14656.6,4435.03
14656.5,4434.8
14862.4,4367.89
15044.9,4929.54
14839,4996.45
Z" /> 
<path style="fill:#000000; fill-opacity:1.0; 
stroke:#000000; stroke-width:0; stroke-opacity:1; 
stroke-linecap:round; stroke-linejoin:round;fill-rule:evenodd;"
d="M 15330.5,4215.81
15513,4777.46
15138.5,4899.12
14956,4337.48
Z" /> 
</g>
<g >
</g>
<g >
</g>
<g >
</g>
</g>
<g style="fill:#000000; fill-opacity:1.0; 
stroke:#000000; stroke-width:0; stroke-opacity:1; 
stroke-linecap:round; stroke-linejoin:round;">
</g>
<g style="fill:#000000; fill-opacity:1.0; 
stroke:#000000; stroke-width:78.7402; stroke-opacity:1; 
stroke-linecap:round; stroke-linejoin:round;">
</g>
<g style="fill:#000000; fill-opacity:0.0; 
stroke:#000000; stroke-width:78.7402; stroke-opacity:1; 
stroke-linecap:round; stroke-linejoin:round;">
<path d="M30294 2035
L14546 2035
" />
<path d="M1805 11291
L17553 11291
" />
<path d="M17553 11291
L30294 2035
" />
<path d="M14546 2035
L1805 11291
" />
<g >
</g>
<g >
</g>
<g >
</g>
<g >
</g>
<g >
</g>
<g >
</g>
<g >
</g>
<g >
</g>
<g >
</g>
<g >
</g>
<g >
</g>
<g >
</g>
<g >
</g>
<g >
</g>
<g >
</g>
<g >
</g>
<g >
</g>
<g >
</g>
<g >
</g>
<g >
</g>
<g >
</g>
<g >
</g>
<g >
</g>
<g >
</g>
</g> 
</svg>
