<?xml version="1.0" standalone="no"?>
 <!DOCTYPE svg PUBLIC "-//W3C//DTD SVG 1.1//EN" 
 "http://www.w3.org/Graphics/SVG/1.1/DTD/svg11.dtd"> 
<svg
  xmlns:svg="http://www.w3.org/2000/svg"
  xmlns="http://www.w3.org/2000/svg"
  xmlns:xlink="http://www.w3.org/1999/xlink"
  version="1.1"
  width="6.731000cm" height="5.280660cm" viewBox="0 0 26500 20790">
<title>SVG Picture created as penrosekite-brd.svg date 2021/01/21 17:02:24 </title>
  <desc>Picture generated by PCBNEW </desc>
<g style="fill:#000000; fill-opacity:1;stroke:#000000; stroke-opacity:1;
stroke-linecap:round; stroke-linejoin:round;"
 transform="translate(0 0) scale(1 1)">
</g>
<g style="fill:#000000; fill-opacity:0.0; 
stroke:#000000; stroke-width:-0.000393701; stroke-opacity:1; 
stroke-linecap:round; stroke-linejoin:round;">
<g >
</g>
<g style="fill:#000000; fill-opacity:1.0; 
stroke:#000000; stroke-width:0; stroke-opacity:1; 
stroke-linecap:round; stroke-linejoin:round;">
<circle cx="3368.49" cy="16807" r="226.378" /> 
</g>
<g style="fill:#000000; fill-opacity:1.0; 
stroke:#000000; stroke-width:39.3701; stroke-opacity:1; 
stroke-linecap:round; stroke-linejoin:round;">
</g>
<g >
</g>
<g style="fill:#000000; fill-opacity:1.0; 
stroke:#000000; stroke-width:39.3701; stroke-opacity:1; 
stroke-linecap:round; stroke-linejoin:round;">
</g>
<g style="fill:#000000; fill-opacity:1.0; 
stroke:#000000; stroke-width:0; stroke-opacity:1; 
stroke-linecap:round; stroke-linejoin:round;">
<circle cx="17678.5" cy="16807" r="226.378" /> 
</g>
<g style="fill:#000000; fill-opacity:1.0; 
stroke:#000000; stroke-width:39.3701; stroke-opacity:1; 
stroke-linecap:round; stroke-linejoin:round;">
</g>
<g >
</g>
<g style="fill:#000000; fill-opacity:1.0; 
stroke:#000000; stroke-width:39.3701; stroke-opacity:1; 
stroke-linecap:round; stroke-linejoin:round;">
</g>
<g style="fill:#000000; fill-opacity:1.0; 
stroke:#000000; stroke-width:0; stroke-opacity:1; 
stroke-linecap:round; stroke-linejoin:round;">
<circle cx="7838.49" cy="3136.97" r="226.378" /> 
</g>
<g style="fill:#000000; fill-opacity:1.0; 
stroke:#000000; stroke-width:39.3701; stroke-opacity:1; 
stroke-linecap:round; stroke-linejoin:round;">
</g>
<g >
</g>
<g style="fill:#000000; fill-opacity:1.0; 
stroke:#000000; stroke-width:39.3701; stroke-opacity:1; 
stroke-linecap:round; stroke-linejoin:round;">
</g>
<g style="fill:#000000; fill-opacity:1.0; 
stroke:#000000; stroke-width:0; stroke-opacity:1; 
stroke-linecap:round; stroke-linejoin:round;">
<circle cx="5478.49" cy="15387" r="413.386" /> 
</g>
<g style="fill:#000000; fill-opacity:1.0; 
stroke:#000000; stroke-width:39.3701; stroke-opacity:1; 
stroke-linecap:round; stroke-linejoin:round;">
</g>
<g >
</g>
<g style="fill:#000000; fill-opacity:1.0; 
stroke:#000000; stroke-width:39.3701; stroke-opacity:1; 
stroke-linecap:round; stroke-linejoin:round;">
</g>
<g style="fill:#000000; fill-opacity:1.0; 
stroke:#000000; stroke-width:0; stroke-opacity:1; 
stroke-linecap:round; stroke-linejoin:round;">
<circle cx="14798.5" cy="17077" r="413.386" /> 
</g>
<g style="fill:#000000; fill-opacity:1.0; 
stroke:#000000; stroke-width:39.3701; stroke-opacity:1; 
stroke-linecap:round; stroke-linejoin:round;">
</g>
<g >
</g>
<g style="fill:#000000; fill-opacity:1.0; 
stroke:#000000; stroke-width:39.3701; stroke-opacity:1; 
stroke-linecap:round; stroke-linejoin:round;">
</g>
<g style="fill:#000000; fill-opacity:1.0; 
stroke:#000000; stroke-width:0; stroke-opacity:1; 
stroke-linecap:round; stroke-linejoin:round;">
<circle cx="6708.49" cy="6826.97" r="413.386" /> 
</g>
<g style="fill:#000000; fill-opacity:1.0; 
stroke:#000000; stroke-width:39.3701; stroke-opacity:1; 
stroke-linecap:round; stroke-linejoin:round;">
</g>
<g >
</g>
<g style="fill:#000000; fill-opacity:1.0; 
stroke:#000000; stroke-width:39.3701; stroke-opacity:1; 
stroke-linecap:round; stroke-linejoin:round;">
</g>
<g style="fill:#000000; fill-opacity:1.0; 
stroke:#000000; stroke-width:0; stroke-opacity:1; 
stroke-linecap:round; stroke-linejoin:round;">
<path style="fill:#000000; fill-opacity:1.0; 
stroke:#000000; stroke-width:0; stroke-opacity:1; 
stroke-linecap:round; stroke-linejoin:round;fill-rule:evenodd;"
d="M 11708.7,7972.51
11718.2,7974.3
11727.5,7977.01
11736.4,7980.62
11745,7985.09
11753.1,7990.38
12055.6,8210.22
12063.2,8216.27
12070.1,8223.03
12076.3,8230.44
12081.7,8238.42
12086.3,8246.89
12090.1,8255.78
12093,8264.99
12095,8274.45
12096,8284.05
12096.1,8293.71
12095.3,8303.33
12093.5,8312.82
12090.8,8322.09
12087.2,8331.05
12082.7,8339.61
12077.4,8347.7
11921.2,8562.69
11915.2,8570.22
11908.4,8577.11
11901,8583.31
11893,8588.76
11884.5,8593.4
11875.7,8597.18
11866.4,8600.07
11857,8602.05
11847.4,8603.09
11837.7,8603.19
11828.1,8602.34
11818.6,8600.54
11809.3,8597.83
11800.4,8594.22
11791.8,8589.75
11783.7,8584.47
11481.1,8364.63
11473.6,8358.57
11466.7,8351.81
11460.5,8344.4
11455.1,8336.42
11450.4,8327.95
11446.7,8319.06
11443.8,8309.85
11441.8,8300.39
11440.7,8290.79
11440.7,8281.13
11441.5,8271.51
11443.3,8262.02
11446,8252.75
11449.6,8243.79
11454.1,8235.23
11459.4,8227.14
11615.6,8012.15
11621.6,8004.62
11628.4,7997.73
11635.8,7991.53
11643.8,7986.08
11652.3,7981.45
11661.1,7977.66
11670.4,7974.77
11679.8,7972.79
11689.4,7971.75
11699.1,7971.65
Z" /> 
<path style="fill:#000000; fill-opacity:1.0; 
stroke:#000000; stroke-width:0; stroke-opacity:1; 
stroke-linecap:round; stroke-linejoin:round;fill-rule:evenodd;"
d="M 12188.9,7311.6
12198.4,7313.39
12207.6,7316.1
12216.6,7319.71
12225.2,7324.18
12233.2,7329.47
12535.8,7549.31
12543.3,7555.36
12550.2,7562.12
12556.4,7569.53
12561.9,7577.51
12566.5,7585.98
12570.3,7594.87
12573.2,7604.08
12575.2,7613.54
12576.2,7623.14
12576.3,7632.8
12575.5,7642.42
12573.7,7651.91
12571,7661.18
12567.4,7670.14
12562.9,7678.7
12557.6,7686.79
12401.4,7901.78
12395.3,7909.31
12388.6,7916.21
12381.2,7922.41
12373.2,7927.85
12364.7,7932.49
12355.8,7936.27
12346.6,7939.17
12337.2,7941.14
12327.6,7942.18
12317.9,7942.28
12308.3,7941.43
12298.8,7939.63
12289.5,7936.92
12280.6,7933.31
12272,7928.84
12263.9,7923.56
11961.3,7703.72
11953.8,7697.66
11946.9,7690.9
11940.7,7683.49
11935.3,7675.52
11930.6,7667.04
11926.8,7658.15
11923.9,7648.94
11922,7639.49
11920.9,7629.88
11920.8,7620.22
11921.7,7610.6
11923.5,7601.11
11926.2,7591.84
11929.8,7582.88
11934.3,7574.32
11939.6,7566.24
12095.8,7351.24
12101.8,7343.71
12108.6,7336.82
12116,7330.62
12124,7325.17
12132.4,7320.54
12141.3,7316.75
12150.5,7313.86
12160,7311.88
12169.6,7310.84
12179.2,7310.74
Z" /> 
</g>
<g >
</g>
<g style="fill:#000000; fill-opacity:1.0; 
stroke:#000000; stroke-width:0; stroke-opacity:1; 
stroke-linecap:round; stroke-linejoin:round;">
<path style="fill:#000000; fill-opacity:1.0; 
stroke:#000000; stroke-width:0; stroke-opacity:1; 
stroke-linecap:round; stroke-linejoin:round;fill-rule:evenodd;"
d="M 8005.14,15684.6
8014.69,15686
8024.06,15688.4
8033.16,15691.6
8041.89,15695.8
8050.18,15700.7
8057.93,15706.5
8065.09,15713
8071.58,15720.1
8077.33,15727.9
8082.3,15736.2
8086.43,15744.9
8089.68,15754
8092.03,15763.4
8093.44,15772.9
8093.92,15782.6
8093.92,16048.3
8093.44,16058
8092.03,16067.5
8089.68,16076.9
8086.43,16086
8082.3,16094.7
8077.33,16103
8071.58,16110.7
8065.09,16117.9
8057.93,16124.4
8050.18,16130.1
8041.89,16135.1
8033.16,16139.2
8024.06,16142.5
8014.69,16144.8
8005.14,16146.3
7995.49,16146.7
7621.48,16146.7
7611.83,16146.3
7602.28,16144.8
7592.91,16142.5
7583.81,16139.2
7575.08,16135.1
7566.79,16130.1
7559.04,16124.4
7551.88,16117.9
7545.39,16110.7
7539.64,16103
7534.67,16094.7
7530.54,16086
7527.29,16076.9
7524.94,16067.5
7523.53,16058
7523.05,16048.3
7523.05,15782.6
7523.53,15772.9
7524.94,15763.4
7527.29,15754
7530.54,15744.9
7534.67,15736.2
7539.64,15727.9
7545.39,15720.1
7551.88,15713
7559.04,15706.5
7566.79,15700.7
7575.08,15695.8
7583.81,15691.6
7592.91,15688.4
7602.28,15686
7611.83,15684.6
7621.48,15684.1
7995.49,15684.1
Z" /> 
<path style="fill:#000000; fill-opacity:1.0; 
stroke:#000000; stroke-width:0; stroke-opacity:1; 
stroke-linecap:round; stroke-linejoin:round;fill-rule:evenodd;"
d="M 8005.14,14867.7
8014.69,14869.1
8024.06,14871.4
8033.16,14874.7
8041.89,14878.8
8050.18,14883.8
8057.93,14889.5
8065.09,14896
8071.58,14903.2
8077.33,14910.9
8082.3,14919.2
8086.43,14928
8089.68,14937.1
8092.03,14946.4
8093.44,14956
8093.92,14965.6
8093.92,15231.4
8093.44,15241
8092.03,15250.6
8089.68,15259.9
8086.43,15269
8082.3,15277.8
8077.33,15286.1
8071.58,15293.8
8065.09,15301
8057.93,15307.5
8050.18,15313.2
8041.89,15318.2
8033.16,15322.3
8024.06,15325.6
8014.69,15327.9
8005.14,15329.3
7995.49,15329.8
7621.48,15329.8
7611.83,15329.3
7602.28,15327.9
7592.91,15325.6
7583.81,15322.3
7575.08,15318.2
7566.79,15313.2
7559.04,15307.5
7551.88,15301
7545.39,15293.8
7539.64,15286.1
7534.67,15277.8
7530.54,15269
7527.29,15259.9
7524.94,15250.6
7523.53,15241
7523.05,15231.4
7523.05,14965.6
7523.53,14956
7524.94,14946.4
7527.29,14937.1
7530.54,14928
7534.67,14919.2
7539.64,14910.9
7545.39,14903.2
7551.88,14896
7559.04,14889.5
7566.79,14883.8
7575.08,14878.8
7583.81,14874.7
7592.91,14871.4
7602.28,14869.1
7611.83,14867.7
7621.48,14867.2
7995.49,14867.2
Z" /> 
</g>
<g >
</g>
<g style="fill:#000000; fill-opacity:1.0; 
stroke:#000000; stroke-width:0; stroke-opacity:1; 
stroke-linecap:round; stroke-linejoin:round;">
<path style="fill:#000000; fill-opacity:1.0; 
stroke:#000000; stroke-width:0; stroke-opacity:1; 
stroke-linecap:round; stroke-linejoin:round;fill-rule:evenodd;"
d="M 14971.3,10941.2
14980.9,10942.4
14990.3,10944.5
14999.5,10947.6
15008.3,10951.6
15016.7,10956.4
15024.5,10962
15031.8,10968.3
15038.4,10975.4
15044.3,10983
15049.5,10991.2
15053.8,10999.8
15057.2,11008.9
15172.8,11364.6
15175.3,11373.9
15176.9,11383.4
15177.6,11393.1
15177.3,11402.7
15176.1,11412.3
15173.9,11421.7
15170.8,11430.9
15166.9,11439.7
15162.1,11448
15156.5,11455.9
15150.1,11463.2
15143.1,11469.8
15135.4,11475.7
15127.3,11480.9
15118.6,11485.2
15109.6,11488.6
14856.8,11570.7
14847.5,11573.2
14838,11574.8
14828.4,11575.5
14818.7,11575.2
14809.1,11574
14799.7,11571.8
14790.6,11568.8
14781.7,11564.8
14773.4,11560
14765.5,11554.4
14758.2,11548.1
14751.6,11541
14745.7,11533.4
14740.6,11525.2
14736.3,11516.5
14732.8,11507.5
14617.2,11151.8
14614.7,11142.5
14613.1,11133
14612.4,11123.3
14612.7,11113.7
14614,11104.1
14616.1,11094.7
14619.2,11085.5
14623.2,11076.7
14628,11068.3
14633.6,11060.5
14639.9,11053.2
14646.9,11046.6
14654.6,11040.6
14662.8,11035.5
14671.4,11031.2
14680.4,11027.8
14933.2,10945.7
14942.5,10943.1
14952,10941.5
14961.7,10940.9
Z" /> 
<path style="fill:#000000; fill-opacity:1.0; 
stroke:#000000; stroke-width:0; stroke-opacity:1; 
stroke-linecap:round; stroke-linejoin:round;fill-rule:evenodd;"
d="M 15748.3,10688.7
15757.8,10689.9
15767.3,10692.1
15776.4,10695.2
15785.2,10699.1
15793.6,10703.9
15801.5,10709.5
15808.8,10715.9
15815.4,10722.9
15821.3,10730.5
15826.4,10738.7
15830.7,10747.4
15834.1,10756.4
15949.7,11112.1
15952.3,11121.4
15953.9,11131
15954.5,11140.6
15954.2,11150.3
15953,11159.8
15950.8,11169.3
15947.8,11178.4
15943.8,11187.2
15939,11195.6
15933.4,11203.5
15927.1,11210.8
15920,11217.4
15912.4,11223.3
15904.2,11228.4
15895.6,11232.7
15886.5,11236.1
15633.8,11318.3
15624.5,11320.8
15614.9,11322.4
15605.3,11323.1
15595.7,11322.8
15586.1,11321.6
15576.7,11319.4
15567.5,11316.3
15558.7,11312.4
15550.3,11307.6
15542.4,11302
15535.2,11295.6
15528.5,11288.6
15522.6,11280.9
15517.5,11272.8
15513.2,11264.1
15509.8,11255.1
15394.2,10899.4
15391.7,10890
15390.1,10880.5
15389.4,10870.9
15389.7,10861.2
15390.9,10851.6
15393.1,10842.2
15396.1,10833.1
15400.1,10824.3
15404.9,10815.9
15410.5,10808
15416.8,10800.7
15423.9,10794.1
15431.5,10788.2
15439.7,10783.1
15448.4,10778.8
15457.4,10775.3
15710.1,10693.2
15719.4,10690.7
15729,10689.1
15738.6,10688.4
Z" /> 
</g>
<g >
</g>
<g style="fill:#000000; fill-opacity:1.0; 
stroke:#000000; stroke-width:0; stroke-opacity:1; 
stroke-linecap:round; stroke-linejoin:round;">
<path style="fill:#000000; fill-opacity:1.0; 
stroke:#000000; stroke-width:0; stroke-opacity:1; 
stroke-linecap:round; stroke-linejoin:round;fill-rule:evenodd;"
d="M 4863,12314.1
4872.52,12315.7
4881.84,12318.2
5134.59,12400.3
5143.62,12403.8
5152.26,12408.1
5160.45,12413.2
5168.09,12419.1
5175.12,12425.7
5181.47,12433
5187.07,12440.9
5191.87,12449.3
5195.83,12458.1
5198.9,12467.2
5201.06,12476.6
5202.29,12486.2
5202.58,12495.9
5201.91,12505.5
5200.31,12515
5197.78,12524.4
5082.2,12880.1
5078.77,12889.1
5074.47,12897.8
5069.34,12905.9
5063.44,12913.6
5056.81,12920.6
5049.53,12927
5041.66,12932.6
5033.28,12937.4
5024.47,12941.3
5015.31,12944.4
5005.9,12946.6
4996.32,12947.8
4986.66,12948.1
4977.03,12947.4
4967.5,12945.8
4958.18,12943.3
4705.44,12861.1
4696.41,12857.7
4687.76,12853.4
4679.57,12848.3
4671.93,12842.4
4664.9,12835.8
4658.56,12828.5
4652.96,12820.6
4648.16,12812.2
4644.2,12803.4
4641.12,12794.3
4638.96,12784.8
4637.73,12775.3
4637.45,12765.6
4638.11,12756
4639.71,12746.4
4642.24,12737.1
4757.82,12381.4
4761.25,12372.4
4765.55,12363.7
4770.68,12355.5
4776.59,12347.9
4783.21,12340.9
4790.5,12334.5
4798.36,12328.9
4806.75,12324.1
4815.56,12320.2
4824.71,12317.1
4834.13,12314.9
4843.71,12313.7
4853.36,12313.4
Z" /> 
<path style="fill:#000000; fill-opacity:1.0; 
stroke:#000000; stroke-width:0; stroke-opacity:1; 
stroke-linecap:round; stroke-linejoin:round;fill-rule:evenodd;"
d="M 5639.94,12566.5
5649.47,12568.1
5658.79,12570.7
5911.53,12652.8
5920.56,12656.2
5929.21,12660.5
5937.4,12665.6
5945.04,12671.6
5952.07,12678.2
5958.41,12685.5
5964.01,12693.3
5968.81,12701.7
5972.77,12710.5
5975.85,12719.7
5978.01,12729.1
5979.24,12738.7
5979.52,12748.3
5978.86,12758
5977.26,12767.5
5974.73,12776.8
5859.15,13132.5
5855.72,13141.5
5851.42,13150.2
5846.29,13158.4
5840.38,13166
5833.76,13173.1
5826.47,13179.4
5818.61,13185
5810.22,13189.8
5801.41,13193.8
5792.26,13196.8
5782.84,13199
5773.26,13200.2
5763.61,13200.5
5753.97,13199.8
5744.45,13198.2
5735.13,13195.7
5482.38,13113.6
5473.35,13110.2
5464.71,13105.9
5456.52,13100.7
5448.88,13094.8
5441.85,13088.2
5435.5,13080.9
5429.9,13073
5425.1,13064.7
5421.14,13055.9
5418.07,13046.7
5415.91,13037.3
5414.68,13027.7
5414.39,13018.1
5415.06,13008.4
5416.66,12998.9
5419.19,12989.6
5534.77,12633.9
5538.2,12624.8
5542.5,12616.2
5547.63,12608
5553.53,12600.4
5560.16,12593.3
5567.44,12587
5575.31,12581.4
5583.69,12576.6
5592.5,12572.6
5601.66,12569.5
5611.07,12567.4
5620.65,12566.2
5630.31,12565.9
Z" /> 
</g>
<g >
</g>
<g style="fill:#000000; fill-opacity:1.0; 
stroke:#000000; stroke-width:0; stroke-opacity:1; 
stroke-linecap:round; stroke-linejoin:round;">
<path style="fill:#000000; fill-opacity:1.0; 
stroke:#000000; stroke-width:0; stroke-opacity:1; 
stroke-linecap:round; stroke-linejoin:round;fill-rule:evenodd;"
d="M 9907.56,5512.66
10139,5194.15
10616.7,5541.26
10385.3,5859.77
Z" /> 
<path style="fill:#000000; fill-opacity:1.0; 
stroke:#000000; stroke-width:0; stroke-opacity:1; 
stroke-linecap:round; stroke-linejoin:round;fill-rule:evenodd;"
d="M 9167.04,6531.89
9398.45,6213.38
9876.22,6560.5
9644.81,6879.01
Z" /> 
<path style="fill:#000000; fill-opacity:1.0; 
stroke:#000000; stroke-width:0; stroke-opacity:1; 
stroke-linecap:round; stroke-linejoin:round;fill-rule:evenodd;"
d="M 11468.3,6646.57
11699.7,6328.06
12177.4,6675.18
11946,6993.69
Z" /> 
<path style="fill:#000000; fill-opacity:1.0; 
stroke:#000000; stroke-width:0; stroke-opacity:1; 
stroke-linecap:round; stroke-linejoin:round;fill-rule:evenodd;"
d="M 10727.7,7665.81
10959.2,7347.3
11436.9,7694.41
11205.5,8012.93
Z" /> 
</g>
<g >
</g>
<g style="fill:#000000; fill-opacity:1.0; 
stroke:#000000; stroke-width:0; stroke-opacity:1; 
stroke-linecap:round; stroke-linejoin:round;">
<path style="fill:#000000; fill-opacity:1.0; 
stroke:#000000; stroke-width:0; stroke-opacity:1; 
stroke-linecap:round; stroke-linejoin:round;fill-rule:evenodd;"
d="M 8998.83,14902.3
8998.83,15296
8408.28,15296
8408.28,14902.3
Z" /> 
<path style="fill:#000000; fill-opacity:1.0; 
stroke:#000000; stroke-width:0; stroke-opacity:1; 
stroke-linecap:round; stroke-linejoin:round;fill-rule:evenodd;"
d="M 8998.83,16162.2
8998.83,16555.9
8408.28,16555.9
8408.28,16162.2
Z" /> 
<path style="fill:#000000; fill-opacity:1.0; 
stroke:#000000; stroke-width:0; stroke-opacity:1; 
stroke-linecap:round; stroke-linejoin:round;fill-rule:evenodd;"
d="M 10928,14902.3
10928,15296
10337.4,15296
10337.4,14902.3
Z" /> 
<path style="fill:#000000; fill-opacity:1.0; 
stroke:#000000; stroke-width:0; stroke-opacity:1; 
stroke-linecap:round; stroke-linejoin:round;fill-rule:evenodd;"
d="M 10928,16162.2
10928,16555.9
10337.4,16555.9
10337.4,16162.2
Z" /> 
</g>
<g >
</g>
<g style="fill:#000000; fill-opacity:1.0; 
stroke:#000000; stroke-width:0; stroke-opacity:1; 
stroke-linecap:round; stroke-linejoin:round;">
<path style="fill:#000000; fill-opacity:1.0; 
stroke:#000000; stroke-width:0; stroke-opacity:1; 
stroke-linecap:round; stroke-linejoin:round;fill-rule:evenodd;"
d="M 15924,12134.4
15549.6,12256.1
15367.1,11694.4
15741.5,11572.8
Z" /> 
<path style="fill:#000000; fill-opacity:1.0; 
stroke:#000000; stroke-width:0; stroke-opacity:1; 
stroke-linecap:round; stroke-linejoin:round;fill-rule:evenodd;"
d="M 14725.8,12523.7
14351.4,12645.4
14168.9,12083.7
14543.3,11962.1
Z" /> 
<path style="fill:#000000; fill-opacity:1.0; 
stroke:#000000; stroke-width:0; stroke-opacity:1; 
stroke-linecap:round; stroke-linejoin:round;fill-rule:evenodd;"
d="M 16520.1,13969.1
16145.7,14090.8
15963.2,13529.1
16337.7,13407.5
Z" /> 
<path style="fill:#000000; fill-opacity:1.0; 
stroke:#000000; stroke-width:0; stroke-opacity:1; 
stroke-linecap:round; stroke-linejoin:round;fill-rule:evenodd;"
d="M 15322,14358.4
14947.5,14480.1
14765,13918.4
15139.5,13796.8
Z" /> 
</g>
<g >
</g>
<g style="fill:#000000; fill-opacity:1.0; 
stroke:#000000; stroke-width:0; stroke-opacity:1; 
stroke-linecap:round; stroke-linejoin:round;">
<path style="fill:#000000; fill-opacity:1.0; 
stroke:#000000; stroke-width:0; stroke-opacity:1; 
stroke-linecap:round; stroke-linejoin:round;fill-rule:evenodd;"
d="M 7148.94,10102.6
7523.37,10224.3
7340.88,10785.9
6966.45,10664.2
Z" /> 
<path style="fill:#000000; fill-opacity:1.0; 
stroke:#000000; stroke-width:0; stroke-opacity:1; 
stroke-linecap:round; stroke-linejoin:round;fill-rule:evenodd;"
d="M 5950.76,9713.28
6325.19,9834.94
6142.7,10396.6
5768.27,10274.9
Z" /> 
<path style="fill:#000000; fill-opacity:1.0; 
stroke:#000000; stroke-width:0; stroke-opacity:1; 
stroke-linecap:round; stroke-linejoin:round;fill-rule:evenodd;"
d="M 6552.81,11937.3
6927.24,12059
6744.75,12620.6
6370.32,12499
Z" /> 
<path style="fill:#000000; fill-opacity:1.0; 
stroke:#000000; stroke-width:0; stroke-opacity:1; 
stroke-linecap:round; stroke-linejoin:round;fill-rule:evenodd;"
d="M 5354.62,11548
5729.06,11669.7
5546.57,12231.3
5172.13,12109.6
Z" /> 
</g>
<g >
</g>
<g style="fill:#000000; fill-opacity:1.0; 
stroke:#000000; stroke-width:0; stroke-opacity:1; 
stroke-linecap:round; stroke-linejoin:round;">
<circle cx="12738.2" cy="5591.78" r="334.646" /> 
<circle cx="11929.2" cy="5003.99" r="334.646" /> 
<path style="fill:#000000; fill-opacity:1.0; 
stroke:#000000; stroke-width:0; stroke-opacity:1; 
stroke-linecap:round; stroke-linejoin:round;fill-rule:evenodd;"
d="M 11194.2,4883.64
10652.8,4490.24
11046.2,3948.77
11587.6,4342.17
Z" /> 
</g>
<g >
</g>
<g style="fill:#000000; fill-opacity:1.0; 
stroke:#000000; stroke-width:0; stroke-opacity:1; 
stroke-linecap:round; stroke-linejoin:round;">
<path style="fill:#000000; fill-opacity:1.0; 
stroke:#000000; stroke-width:0; stroke-opacity:1; 
stroke-linecap:round; stroke-linejoin:round;fill-rule:evenodd;"
d="M 10201.6,17438.4
10870.9,17438.4
10870.9,18107.7
10201.6,18107.7
Z" /> 
<circle cx="9536.27" cy="17773.1" r="334.646" /> 
<circle cx="8536.27" cy="17773.1" r="334.646" /> 
</g>
<g >
</g>
<g style="fill:#000000; fill-opacity:1.0; 
stroke:#000000; stroke-width:0; stroke-opacity:1; 
stroke-linecap:round; stroke-linejoin:round;">
<path style="fill:#000000; fill-opacity:1.0; 
stroke:#000000; stroke-width:0; stroke-opacity:1; 
stroke-linecap:round; stroke-linejoin:round;fill-rule:evenodd;"
d="M 17777.2,12853.9
17984.1,13490.4
17347.5,13697.2
17140.7,13060.7
Z" /> 
<circle cx="17253.4" cy="12324.5" r="334.646" /> 
<circle cx="16944.4" cy="11373.4" r="334.646" /> 
</g>
<g >
</g>
<g style="fill:#000000; fill-opacity:1.0; 
stroke:#000000; stroke-width:0; stroke-opacity:1; 
stroke-linecap:round; stroke-linejoin:round;">
<circle cx="4054.53" cy="11611.3" r="334.646" /> 
<circle cx="4363.54" cy="10660.2" r="334.646" /> 
<path style="fill:#000000; fill-opacity:1.0; 
stroke:#000000; stroke-width:0; stroke-opacity:1; 
stroke-linecap:round; stroke-linejoin:round;fill-rule:evenodd;"
d="M 4250.88,9924.03
4457.7,9287.49
5094.24,9494.31
4887.42,10130.8
Z" /> 
</g>
<g >
</g>
<g style="fill:#000000; fill-opacity:1.0; 
stroke:#000000; stroke-width:0; stroke-opacity:1; 
stroke-linecap:round; stroke-linejoin:round;">
<path style="fill:#000000; fill-opacity:1.0; 
stroke:#000000; stroke-width:0; stroke-opacity:1; 
stroke-linecap:round; stroke-linejoin:round;fill-rule:evenodd;"
d="M 11744.2,12902.4
12091.3,13380.1
11772.8,13611.6
11425.7,13133.8
Z" /> 
<path style="fill:#000000; fill-opacity:1.0; 
stroke:#000000; stroke-width:0; stroke-opacity:1; 
stroke-linecap:round; stroke-linejoin:round;fill-rule:evenodd;"
d="M 11517.8,13796.5
11510,13802.2
11493.4,13811.9
11475.8,13820
11457.6,13826.4
11438.8,13830.9
11419.6,13833.5
11400.3,13834.3
11381.1,13833.1
11362,13830.1
11343.3,13825.2
11325.2,13818.5
11307.8,13810.1
11291.3,13800
11275.9,13788.4
11261.7,13775.2
11248.9,13760.8
11243.2,13753
11243,13753.1
11127.3,13593.9
11127.5,13593.7
11121.8,13585.9
11112.1,13569.3
11104,13551.7
11097.6,13533.5
11093.1,13514.7
11090.5,13495.5
11089.7,13476.2
11090.9,13457
11093.9,13437.9
11098.8,13419.2
11105.5,13401.1
11113.9,13383.7
11124,13367.2
11135.6,13351.8
11148.7,13337.6
11163.2,13324.8
11171,13319.1
11170.9,13318.9
11346,13191.6
11693.2,13669.4
11518,13796.7
Z" /> 
<path style="fill:#000000; fill-opacity:1.0; 
stroke:#000000; stroke-width:0; stroke-opacity:1; 
stroke-linecap:round; stroke-linejoin:round;fill-rule:evenodd;"
d="M 11823.8,12844.5
11999,12717.2
11999.1,12717.4
12006.9,12711.8
12023.6,12702
12041.2,12693.9
12059.4,12687.6
12078.2,12683.1
12097.3,12680.4
12116.6,12679.7
12135.9,12680.8
12155,12683.8
12173.7,12688.7
12191.8,12695.4
12209.2,12703.8
12225.7,12713.9
12241.1,12725.6
12255.2,12738.7
12268.1,12753.1
12273.8,12760.9
12274,12760.8
12389.7,12920.1
12389.5,12920.2
12395.1,12928
12404.9,12944.7
12413,12962.2
12419.3,12980.5
12423.8,12999.3
12426.5,13018.4
12427.2,13037.7
12426.1,13057
12423.1,13076.1
12418.2,13094.7
12411.5,13112.9
12403.1,13130.3
12393,13146.7
12381.3,13162.1
12368.2,13176.3
12353.8,13189.1
12346,13194.8
12346.1,13195
12170.9,13322.3
Z" /> 
</g>
<g >
</g>
<g style="fill:#000000; fill-opacity:1.0; 
stroke:#000000; stroke-width:0; stroke-opacity:1; 
stroke-linecap:round; stroke-linejoin:round;">
<path style="fill:#000000; fill-opacity:1.0; 
stroke:#000000; stroke-width:0; stroke-opacity:1; 
stroke-linecap:round; stroke-linejoin:round;fill-rule:evenodd;"
d="M 9223.81,9244.52
9398.99,9117.25
9399.13,9117.44
9406.94,9111.76
9423.61,9101.99
9441.15,9093.91
9459.41,9087.58
9478.19,9083.07
9497.33,9080.42
9516.63,9079.66
9535.91,9080.8
9554.99,9083.82
9573.69,9088.7
9591.81,9095.39
9609.19,9103.82
9625.66,9113.91
9641.06,9125.57
9655.25,9138.68
9668.08,9153.12
9673.76,9160.94
9673.95,9160.8
9789.66,9320.05
9789.47,9320.19
9795.14,9328.01
9804.91,9344.67
9813,9362.22
9819.33,9380.47
9823.84,9399.25
9826.48,9418.39
9827.24,9437.69
9826.11,9456.98
9823.08,9476.06
9818.21,9494.75
9811.52,9512.87
9803.09,9530.25
9793,9546.72
9781.34,9562.13
9768.22,9576.31
9753.78,9589.14
9745.97,9594.82
9746.11,9595.01
9570.93,9722.29
Z" /> 
<path style="fill:#000000; fill-opacity:1.0; 
stroke:#000000; stroke-width:0; stroke-opacity:1; 
stroke-linecap:round; stroke-linejoin:round;fill-rule:evenodd;"
d="M 8917.84,10196.5
8910.03,10202.2
8893.36,10211.9
8875.82,10220
8857.56,10226.4
8838.78,10230.9
8819.64,10233.5
8800.34,10234.3
8781.06,10233.1
8761.98,10230.1
8743.29,10225.2
8725.16,10218.5
8707.78,10210.1
8691.31,10200
8675.91,10188.4
8661.72,10175.2
8648.89,10160.8
8643.21,10153
8643.02,10153.1
8527.31,9993.88
8527.5,9993.74
8521.83,9985.93
8512.06,9969.26
8503.97,9951.72
8497.64,9933.46
8493.13,9914.68
8490.49,9895.54
8489.73,9876.24
8490.86,9856.96
8493.89,9837.88
8498.76,9819.18
8505.45,9801.06
8513.88,9783.68
8523.97,9767.21
8535.63,9751.81
8548.75,9737.62
8563.19,9724.79
8571,9719.11
8570.86,9718.92
8746.04,9591.64
9093.16,10069.4
8917.98,10196.7
Z" /> 
<path style="fill:#000000; fill-opacity:1.0; 
stroke:#000000; stroke-width:0; stroke-opacity:1; 
stroke-linecap:round; stroke-linejoin:round;fill-rule:evenodd;"
d="M 9144.18,9302.38
9491.3,9780.14
9172.79,10011.6
8825.67,9533.79
Z" /> 
</g>
<g >
</g>
<g style="fill:#000000; fill-opacity:1.0; 
stroke:#000000; stroke-width:0; stroke-opacity:1; 
stroke-linecap:round; stroke-linejoin:round;">
<path style="fill:#000000; fill-opacity:1.0; 
stroke:#000000; stroke-width:0; stroke-opacity:1; 
stroke-linecap:round; stroke-linejoin:round;fill-rule:evenodd;"
d="M 10250.2,9745.37
10600.6,9490.82
11051.8,10111.9
10701.5,10366.5
Z" /> 
<path style="fill:#000000; fill-opacity:1.0; 
stroke:#000000; stroke-width:0; stroke-opacity:1; 
stroke-linecap:round; stroke-linejoin:round;fill-rule:evenodd;"
d="M 9453.94,10323.9
9804.3,10069.3
10255.6,10690.4
9905.19,10945
Z" /> 
<path style="fill:#000000; fill-opacity:1.0; 
stroke:#000000; stroke-width:0; stroke-opacity:1; 
stroke-linecap:round; stroke-linejoin:round;fill-rule:evenodd;"
d="M 8657.66,10902.4
9008.03,10647.9
9459.28,11269
9108.92,11523.5
Z" /> 
<path style="fill:#000000; fill-opacity:1.0; 
stroke:#000000; stroke-width:0; stroke-opacity:1; 
stroke-linecap:round; stroke-linejoin:round;fill-rule:evenodd;"
d="M 11557.7,11545
11908.1,11290.4
12359.3,11911.5
12008.9,12166.1
Z" /> 
<path style="fill:#000000; fill-opacity:1.0; 
stroke:#000000; stroke-width:0; stroke-opacity:1; 
stroke-linecap:round; stroke-linejoin:round;fill-rule:evenodd;"
d="M 10761.4,12123.5
11111.8,11868.9
11563,12490
11212.7,12744.6
Z" /> 
<path style="fill:#000000; fill-opacity:1.0; 
stroke:#000000; stroke-width:0; stroke-opacity:1; 
stroke-linecap:round; stroke-linejoin:round;fill-rule:evenodd;"
d="M 9965.14,12702
10315.5,12447.5
10766.8,13068.6
10416.4,13323.1
Z" /> 
</g>
<g >
</g>
<g >
</g>
<g >
</g>
</g>
<g style="fill:#000000; fill-opacity:1.0; 
stroke:#000000; stroke-width:0; stroke-opacity:1; 
stroke-linecap:round; stroke-linejoin:round;">
</g>
<g style="fill:#000000; fill-opacity:0.0; 
stroke:#000000; stroke-width:0; stroke-opacity:1; 
stroke-linecap:round; stroke-linejoin:round;">
</g>
<g style="fill:#000000; fill-opacity:0.0; 
stroke:#000000; stroke-width:59.0551; stroke-opacity:1; 
stroke-linecap:round; stroke-linejoin:round;">
<text x="6838.49" y="17593.8"
textLength="2214" font-size="524.934" lengthAdjust="spacingAndGlyphs"
text-anchor="middle" opacity="0">data in</text>
<path d="M6032 17575
L6032 17181
" />
<path d="M6032 17556
L5994 17575
L5919 17575
L5882 17556
L5863 17537
L5844 17500
L5844 17387
L5863 17350
L5882 17331
L5919 17312
L5994 17312
L6032 17331
" />
<path d="M6388 17575
L6388 17368
L6369 17331
L6332 17312
L6257 17312
L6219 17331
" />
<path d="M6388 17556
L6351 17575
L6257 17575
L6219 17556
L6201 17518
L6201 17481
L6219 17443
L6257 17425
L6351 17425
L6388 17406
" />
<path d="M6519 17312
L6669 17312
" />
<path d="M6576 17181
L6576 17518
L6594 17556
L6632 17575
L6669 17575
" />
<path d="M6969 17575
L6969 17368
L6950 17331
L6913 17312
L6838 17312
L6800 17331
" />
<path d="M6969 17556
L6932 17575
L6838 17575
L6800 17556
L6782 17518
L6782 17481
L6800 17443
L6838 17425
L6932 17425
L6969 17406
" />
<path d="M7457 17575
L7457 17312
" />
<path d="M7457 17181
L7438 17200
L7457 17218
L7475 17200
L7457 17181
L7457 17218
" />
<path d="M7644 17312
L7644 17575
" />
<path d="M7644 17350
L7663 17331
L7700 17312
L7757 17312
L7794 17331
L7813 17368
L7813 17575
" />
<g transform="rotate(-144 13808.5 6936.97)">
<text x="13808.5" y="7133.82"
textLength="2214" font-size="524.934" lengthAdjust="spacingAndGlyphs"
text-anchor="middle" opacity="0">data in</text>
</g>
<path d="M14565 7266
L14333 7585
" />
<path d="M14554 7281
L14595 7288
L14656 7332
L14675 7370
L14679 7396
L14672 7437
L14606 7528
L14569 7547
L14543 7552
L14502 7545
L14441 7501
L14422 7463
" />
<path d="M14277 7057
L14155 7224
L14149 7265
L14168 7302
L14229 7346
L14270 7353
" />
<path d="M14266 7072
L14307 7079
L14383 7134
L14402 7171
L14395 7213
L14373 7243
L14336 7262
L14295 7255
L14219 7200
L14178 7193
" />
<path d="M14016 7192
L13895 7104
" />
<path d="M13894 7265
L14092 6992
L14099 6951
L14080 6914
L14049 6892
" />
<path d="M13807 6715
L13685 6882
L13678 6923
L13698 6961
L13758 7005
L13800 7012
" />
<path d="M13795 6730
L13837 6737
L13913 6792
L13932 6830
L13925 6871
L13903 6901
L13866 6921
L13825 6914
L13749 6859
L13707 6852
" />
<path d="M13412 6429
L13258 6641
" />
<path d="M13181 6747
L13207 6743
L13203 6717
L13177 6721
L13181 6747
L13203 6717
" />
<path d="M13106 6531
L13260 6319
" />
<path d="M13128 6501
L13102 6505
L13061 6498
L13015 6465
L12996 6428
L13003 6386
L13124 6219
" />
<g transform="rotate(-108 15998.5 9756.97)">
<text x="15998.5" y="9953.82"
textLength="2607.71" font-size="524.934" lengthAdjust="spacingAndGlyphs"
text-anchor="middle" opacity="0">data out</text>
</g>
<path d="M16477 10655
L16103 10777
" />
<path d="M16459 10661
L16489 10691
L16512 10762
L16506 10804
L16494 10827
L16464 10857
L16357 10892
L16315 10885
L16292 10873
L16262 10843
L16239 10772
L16246 10731
" />
<path d="M16367 10317
L16171 10380
L16141 10410
L16135 10451
L16158 10522
L16188 10552
" />
<path d="M16349 10322
L16379 10352
L16408 10441
L16402 10483
L16372 10512
L16336 10524
L16295 10518
L16265 10488
L16236 10399
L16207 10369
" />
<path d="M16077 10273
L16031 10130
" />
<path d="M15935 10260
L16256 10156
L16286 10126
L16292 10085
L16280 10049
" />
<path d="M16188 9764
L15992 9828
L15962 9857
L15955 9898
L15979 9970
L16008 10000
" />
<path d="M16170 9770
L16199 9799
L16228 9889
L16222 9930
L16192 9960
L16156 9971
L16115 9965
L16086 9935
L16057 9846
L16027 9816
" />
<path d="M16020 9247
L16013 9288
L16001 9312
L15971 9341
L15865 9376
L15823 9370
L15799 9358
L15770 9328
L15753 9274
L15759 9233
L15771 9209
L15801 9180
L15908 9145
L15949 9151
L15973 9163
L16002 9193
L16020 9247
" />
<path d="M15625 8882
L15875 8801
" />
<path d="M15677 9043
L15873 8979
L15903 8949
L15910 8908
L15892 8855
L15863 8825
L15839 8813
" />
<path d="M15585 8757
L15538 8615
" />
<path d="M15442 8744
L15763 8640
L15793 8611
L15799 8569
L15788 8534
" />
<g transform="rotate(-252 3798.49 13567)">
<text x="3798.49" y="13763.8"
textLength="2607.71" font-size="524.934" lengthAdjust="spacingAndGlyphs"
text-anchor="middle" opacity="0">data out</text>
</g>
<path d="M3939 12558
L4313 12679
" />
<path d="M3956 12563
L3950 12522
L3973 12451
L4003 12421
L4026 12409
L4068 12402
L4175 12437
L4205 12467
L4217 12490
L4223 12532
L4200 12603
L4170 12633
" />
<path d="M3828 12896
L4025 12960
L4066 12954
L4095 12924
L4119 12853
L4112 12811
" />
<path d="M3846 12902
L3840 12861
L3869 12771
L3898 12742
L3940 12735
L3976 12747
L4005 12776
L4012 12818
L3983 12907
L3989 12948
" />
<path d="M4038 13102
L3991 13245
" />
<path d="M4145 13196
L3824 13092
L3783 13098
L3753 13128
L3742 13164
" />
<path d="M3649 13449
L3845 13513
L3886 13507
L3916 13477
L3939 13405
L3933 13364
" />
<path d="M3667 13455
L3660 13413
L3689 13324
L3719 13294
L3760 13288
L3796 13300
L3826 13329
L3832 13371
L3803 13460
L3809 13501
" />
<path d="M3481 13966
L3510 13936
L3534 13924
L3575 13918
L3682 13953
L3712 13982
L3724 14006
L3730 14047
L3713 14101
L3684 14131
L3660 14143
L3619 14149
L3512 14114
L3482 14085
L3470 14061
L3463 14020
L3481 13966
" />
<path d="M3586 14493
L3336 14412
" />
<path d="M3638 14332
L3442 14269
L3400 14275
L3371 14305
L3353 14358
L3360 14400
L3372 14423
" />
<path d="M3545 14618
L3499 14760
" />
<path d="M3653 14712
L3332 14608
L3290 14614
L3261 14644
L3249 14679
" />
</g>
<g style="fill:#000000; fill-opacity:0.0; 
stroke:#000000; stroke-width:196.85; stroke-opacity:1; 
stroke-linecap:round; stroke-linejoin:round;">
<g transform="rotate(-162 3408.49 12607)">
<text x="3408.49" y="13000.7"
textLength="864.173" font-size="1049.87" lengthAdjust="spacingAndGlyphs"
text-anchor="middle" opacity="0">C</text>
</g>
<path d="M3263 12264
L3310 12240
L3429 12239
L3500 12262
L3596 12332
L3644 12427
L3656 12510
L3646 12664
L3611 12771
L3529 12902
L3470 12962
L3375 13010
L3257 13011
L3186 12988
L3090 12917
L3066 12870
" />
<g transform="rotate(-90 7368.49 18137)">
<text x="7368.49" y="18530.7"
textLength="1043.31" font-size="1049.87" lengthAdjust="spacingAndGlyphs"
text-anchor="middle" opacity="0">G</text>
</g>
<path d="M6974 17930
L6937 18005
L6937 18118
L6974 18230
L7049 18305
L7124 18343
L7274 18380
L7387 18380
L7537 18343
L7612 18305
L7687 18230
L7724 18118
L7724 18043
L7687 17930
L7649 17893
L7387 17893
L7387 18043
" />
<g transform="rotate(-18 16918.5 10227)">
<text x="16918.5" y="10620.7"
textLength="855.831" font-size="1049.87" lengthAdjust="spacingAndGlyphs"
text-anchor="middle" opacity="0">T</text>
</g>
<path d="M16571 9886
L16999 9747
" />
<path d="M17028 10565
L16785 9816
" />
<g transform="rotate(-234 13838.5 6036.97)">
<text x="13838.5" y="6430.67"
textLength="930.821" font-size="1049.87" lengthAdjust="spacingAndGlyphs"
text-anchor="middle" opacity="0">A</text>
</g>
<path d="M13842 5808
L13622 6111
" />
<path d="M13704 5615
L14187 6290
L13396 6039
" />
</g>
<g style="fill:#000000; fill-opacity:0.0; 
stroke:#000000; stroke-width:98.4252; stroke-opacity:1; 
stroke-linecap:round; stroke-linejoin:round;">
<path d="M10533.5 2781.97 A7501.04 7501.04 0.0 0 0 18937 14312.4" />
<path d="M12858.5 18757 A12150 12150 0.0 0 0 4463.04 7201.63" />
</g>
<g style="fill:#000000; fill-opacity:0.0; 
stroke:#000000; stroke-width:47.2441; stroke-opacity:1; 
stroke-linecap:round; stroke-linejoin:round;">
<path d="M12303 8043
L12182 8210
" />
<path d="M11834 7703
L11713 7870
" />
<path d="M8097 15609
L8097 15404
" />
<path d="M7519 15609
L7519 15404
" />
<path d="M15470 11375
L15275 11438
" />
<path d="M15291 10824
L15096 10888
" />
<path d="M5121 13000
L5316 13063
" />
<path d="M5300 12449
L5495 12513
" />
<path d="M10146 4882
L12471 6572
" />
<path d="M8873 6634
L11198 8324
" />
<path d="M11198 8324
L11464 7957
" />
<path d="M8231 14646
L8231 15099
" />
<path d="M11105 14646
L8231 14646
" />
<path d="M11105 16811
L8231 16811
" />
<path d="M15930 11325
L15499 11465
" />
<path d="M16818 14058
L15930 11325
" />
<path d="M14758 14727
L13870 11994
" />
<path d="M7821 10134
L6933 12868
" />
<path d="M5762 9465
L4874 12199
" />
<path d="M4874 12199
L5304 12338
" />
<path d="M11216 5133
L11832 4286
" />
<path d="M11216 5133
L12854 6323
" />
<path d="M12854 6323
L13469 5475
" />
<path d="M11832 4286
L13469 5475
" />
<path d="M11004 3684
L11427 3992
" />
<path d="M10696 4108
L11004 3684
" />
<path d="M11059 17773
L11059 18296
" />
<path d="M11059 18296
L10536 18296
" />
<path d="M10036 18296
L8012 18296
" />
<path d="M8012 17249
L8012 18296
" />
<path d="M10036 17249
L8012 17249
" />
<path d="M10036 17249
L10036 18296
" />
<path d="M17724 13773
L17226 13935
" />
<path d="M17226 13935
L17064 13437
" />
<path d="M16909 12961
L16284 11037
" />
<path d="M17280 10713
L16284 11037
" />
<path d="M17905 12638
L17280 10713
" />
<path d="M17905 12638
L16909 12961
" />
<path d="M4020 10022
L5016 10346
" />
<path d="M4020 10022
L3394 11947
" />
<path d="M3394 11947
L4390 12271
" />
<path d="M5016 10346
L4390 12271
" />
<path d="M5332 9372
L5170 9870
" />
<path d="M4834 9211
L5332 9372
" />
<path d="M11863 12597
L11698 12570
" />
<path d="M11889 12432
L11698 12570
" />
<path d="M11863 12597
L11889 12432
" />
<path d="M12342 12687
L12480 12878
" />
<path d="M11081 13262
L11972 12614
" />
<path d="M11174 13826
L11036 13635
" />
<path d="M12435 13251
L11543 13899
" />
<path d="M12419.9 13263.1 A275.591 275.591 0.0 0 0 12480.9 12878.1" />
<path d="M12342 12687 A275.591 275.591 0.0 0 0 11957.1 12626.1" />
<path d="M11097.1 13250.9 A275.591 275.591 0.0 0 0 11036.1 13635.8" />
<path d="M11175 13826.9 A275.591 275.591 0.0 0 0 11559.9 13887.9" />
<path d="M9835 9651
L8943 10299
" />
<path d="M8574 10226
L8436 10035
" />
<path d="M8481 9662
L9372 9014
" />
<path d="M9742 9087
L9880 9278
" />
<path d="M9263 8997
L9289 8832
" />
<path d="M9289 8832
L9098 8970
" />
<path d="M9263 8997
L9098 8970
" />
<path d="M8574.96 10226.9 A275.591 275.591 0.0 0 0 8959.91 10287.9" />
<path d="M8497.08 9650.86 A275.591 275.591 0.0 0 0 8436.11 10035.8" />
<path d="M9742.01 9087.02 A275.591 275.591 0.0 0 0 9357.06 9026.05" />
<path d="M9819.89 9663.07 A275.591 275.591 0.0 0 0 9880.86 9278.13" />
<path d="M11399 9786
L11558 9670
" />
<path d="M11558 9670
L11674 9829
" />
<path d="M11674 9829
L12484 10944
" />
<path d="M12484 10944
L12404 11002
" />
<path d="M8691 11753
L8532 11869
" />
<path d="M8532 11869
L9458 13143
" />
<path d="M9458 13143
L9617 13027
" />
</g>
<g style="fill:#000000; fill-opacity:0.0; 
stroke:#000000; stroke-width:78.7402; stroke-opacity:1; 
stroke-linecap:round; stroke-linejoin:round;">
<circle cx="11111.4" cy="9557.64" r="88.0343" /> 
</g>
<g style="fill:#000000; fill-opacity:0.0; 
stroke:#000000; stroke-width:59.0551; stroke-opacity:1; 
stroke-linecap:round; stroke-linejoin:round;">
<text x="3407.86" y="16413.3"
textLength="1118.3" font-size="524.934" lengthAdjust="spacingAndGlyphs"
text-anchor="middle" opacity="0">MH</text>
<path d="M3070 16394
L3070 16000
L3201 16282
L3332 16000
L3332 16394
" />
<path d="M3520 16394
L3520 16000
" />
<path d="M3520 16188
L3745 16188
" />
<path d="M3745 16394
L3745 16000
" />
<text x="17717.9" y="16413.3"
textLength="939.164" font-size="524.934" lengthAdjust="spacingAndGlyphs"
text-anchor="middle" opacity="0">MH</text>
<path d="M17380 16394
L17380 16000
L17511 16282
L17642 16000
L17642 16394
" />
<path d="M17830 16394
L17830 16000
" />
<path d="M17830 16188
L18055 16188
" />
<path d="M18055 16394
L18055 16000
" />
<text x="7877.86" y="2743.27"
textLength="939.164" font-size="524.934" lengthAdjust="spacingAndGlyphs"
text-anchor="middle" opacity="0">MH</text>
<path d="M7540 2724
L7540 2330
L7671 2612
L7802 2330
L7802 2724
" />
<path d="M7990 2724
L7990 2330
" />
<path d="M7990 2518
L8215 2518
" />
<path d="M8215 2724
L8215 2330
" />
<text x="5478.49" y="14324"
textLength="1464.1" font-size="524.934" lengthAdjust="spacingAndGlyphs"
text-anchor="middle" opacity="0">M2.1</text>
<path d="M4878 14305
L4878 13911
L5009 14192
L5141 13911
L5141 14305
" />
<path d="M5309 13949
L5328 13930
L5365 13911
L5459 13911
L5497 13930
L5515 13949
L5534 13986
L5534 14024
L5515 14080
L5291 14305
L5534 14305
" />
<path d="M5703 14267
L5722 14286
L5703 14305
L5684 14286
L5703 14267
L5703 14305
" />
<path d="M6097 14305
L5872 14305
" />
<path d="M5984 14305
L5984 13911
L5947 13967
L5909 14005
L5872 14024
" />
<text x="14798.5" y="16014"
textLength="1464.1" font-size="524.934" lengthAdjust="spacingAndGlyphs"
text-anchor="middle" opacity="0">M2.1</text>
<path d="M14198 15995
L14198 15601
L14329 15882
L14461 15601
L14461 15995
" />
<path d="M14629 15639
L14648 15620
L14685 15601
L14779 15601
L14817 15620
L14835 15639
L14854 15676
L14854 15714
L14835 15770
L14611 15995
L14854 15995
" />
<path d="M15023 15957
L15042 15976
L15023 15995
L15004 15976
L15023 15957
L15023 15995
" />
<path d="M15417 15995
L15192 15995
" />
<path d="M15304 15995
L15304 15601
L15267 15657
L15229 15695
L15192 15714
" />
<text x="6708.49" y="5763.97"
textLength="1464.1" font-size="524.934" lengthAdjust="spacingAndGlyphs"
text-anchor="middle" opacity="0">M2.1</text>
<path d="M6108 5745
L6108 5351
L6239 5632
L6371 5351
L6371 5745
" />
<path d="M6539 5389
L6558 5370
L6595 5351
L6689 5351
L6727 5370
L6745 5389
L6764 5426
L6764 5464
L6745 5520
L6521 5745
L6764 5745
" />
<path d="M6933 5707
L6952 5726
L6933 5745
L6914 5726
L6933 5707
L6933 5745
" />
<path d="M7327 5745
L7102 5745
" />
<path d="M7214 5745
L7214 5351
L7177 5407
L7139 5445
L7102 5464
" />
<g transform="rotate(-54 12543.6 8345.74)">
<text x="12543.6" y="8542.59"
textLength="845.426" font-size="524.934" lengthAdjust="spacingAndGlyphs"
text-anchor="middle" opacity="0">C1</text>
</g>
<path d="M12618 8481
L12622 8507
L12605 8564
L12582 8594
L12534 8628
L12482 8637
L12441 8630
L12369 8601
L12323 8568
L12274 8509
L12254 8471
L12246 8419
L12264 8363
L12286 8332
L12334 8298
L12360 8294
" />
<path d="M12869 8200
L12737 8382
" />
<path d="M12803 8291
L12484 8059
L12508 8123
L12516 8175
L12509 8216
" />
<g transform="rotate(-90 7147.07 15507)">
<text x="7147.07" y="15703.8"
textLength="845.426" font-size="524.934" lengthAdjust="spacingAndGlyphs"
text-anchor="middle" opacity="0">C2</text>
</g>
<path d="M7287 15572
L7306 15591
L7325 15647
L7325 15685
L7306 15741
L7268 15778
L7231 15797
L7156 15816
L7100 15816
L7025 15797
L6987 15778
L6950 15741
L6931 15685
L6931 15647
L6950 15591
L6968 15572
" />
<path d="M6968 15422
L6950 15403
L6931 15366
L6931 15272
L6950 15235
L6968 15216
L7006 15197
L7043 15197
L7100 15216
L7325 15441
L7325 15197
" />
<g transform="rotate(-18 15008.5 10407)">
<text x="15008.5" y="10603.8"
textLength="845.426" font-size="524.934" lengthAdjust="spacingAndGlyphs"
text-anchor="middle" opacity="0">C3</text>
</g>
<path d="M14989 10560
L14977 10584
L14929 10619
L14894 10631
L14834 10630
L14787 10606
L14758 10576
L14717 10511
L14699 10457
L14694 10380
L14700 10339
L14724 10292
L14772 10256
L14808 10245
L14867 10245
L14891 10257
" />
<path d="M15004 10181
L15236 10106
L15157 10289
L15211 10272
L15252 10278
L15276 10290
L15305 10320
L15334 10409
L15328 10450
L15316 10474
L15286 10503
L15179 10538
L15137 10532
L15114 10520
" />
<g transform="rotate(18 5058.49 13382)">
<text x="5058.49" y="13578.8"
textLength="845.426" font-size="524.934" lengthAdjust="spacingAndGlyphs"
text-anchor="middle" opacity="0">C4</text>
</g>
<path d="M4952 13495
L4929 13507
L4869 13507
L4834 13496
L4786 13461
L4762 13413
L4756 13372
L4761 13295
L4778 13241
L4819 13176
L4849 13146
L4896 13122
L4955 13121
L4991 13133
L5039 13168
L5051 13192
" />
<path d="M5343 13385
L5261 13635
" />
<path d="M5300 13214
L5124 13452
L5356 13527
" />
<g transform="rotate(36 9872.24 7753.54)">
<text x="9872.24" y="7950.39"
textLength="845.426" font-size="524.934" lengthAdjust="spacingAndGlyphs"
text-anchor="middle" opacity="0">D1</text>
</g>
<path d="M9532 7726
L9763 7408
L9839 7463
L9874 7511
L9882 7564
L9875 7605
L9846 7677
L9813 7722
L9754 7772
L9717 7791
L9664 7799
L9608 7781
L9532 7726
" />
<path d="M10017 8079
L9835 7947
" />
<path d="M9926 8013
L10158 7694
L10094 7718
L10042 7726
L10001 7719
" />
<text x="9668.13" y="14575.9"
textLength="845.426" font-size="524.934" lengthAdjust="spacingAndGlyphs"
text-anchor="middle" opacity="0">D2</text>
<path d="M9377 14557
L9377 14163
L9471 14163
L9527 14182
L9565 14219
L9583 14257
L9602 14332
L9602 14388
L9583 14463
L9565 14500
L9527 14538
L9471 14557
L9377 14557
" />
<path d="M9752 14200
L9771 14182
L9808 14163
L9902 14163
L9939 14182
L9958 14200
L9977 14238
L9977 14275
L9958 14332
L9733 14557
L9977 14557
" />
<g transform="rotate(72 14034 13452.2)">
<text x="14034" y="13649.1"
textLength="845.426" font-size="524.934" lengthAdjust="spacingAndGlyphs"
text-anchor="middle" opacity="0">D3</text>
</g>
<path d="M13774 13230
L14149 13109
L14178 13198
L14177 13257
L14153 13304
L14123 13334
L14058 13375
L14004 13392
L13927 13398
L13886 13391
L13839 13367
L13803 13320
L13774 13230
" />
<path d="M14259 13448
L14334 13679
L14151 13601
L14168 13654
L14162 13696
L14150 13719
L14120 13749
L14031 13778
L13990 13772
L13966 13760
L13937 13730
L13902 13623
L13908 13581
L13920 13558
" />
<g transform="rotate(-72 7658.26 11592.8)">
<text x="7658.26" y="11789.6"
textLength="845.426" font-size="524.934" lengthAdjust="spacingAndGlyphs"
text-anchor="middle" opacity="0">D4</text>
</g>
<path d="M7737 11924
L7363 11802
L7392 11713
L7427 11665
L7474 11641
L7516 11635
L7593 11640
L7646 11658
L7712 11699
L7742 11728
L7766 11775
L7766 11835
L7737 11924
" />
<path d="M7662 11308
L7911 11389
" />
<path d="M7490 11350
L7728 11527
L7804 11295
" />
<g transform="rotate(-54 10388.5 3726.97)">
<text x="10388.5" y="3923.82"
textLength="751.687" font-size="524.934" lengthAdjust="spacingAndGlyphs"
text-anchor="middle" opacity="0">J1</text>
</g>
<path d="M10136 3706
L10364 3871
L10398 3919
L10407 3972
L10389 4028
L10367 4059
" />
<path d="M10686 3619
L10554 3801
" />
<path d="M10620 3710
L10302 3478
L10325 3542
L10333 3594
L10327 3636
" />
<g transform="rotate(-90 11626.8 17773.1)">
<text x="11626.8" y="17969.9"
textLength="751.687" font-size="524.934" lengthAdjust="spacingAndGlyphs"
text-anchor="middle" opacity="0">J2</text>
</g>
<path d="M11411 17904
L11692 17904
L11748 17923
L11786 17960
L11804 18016
L11804 18054
" />
<path d="M11448 17735
L11429 17716
L11411 17679
L11411 17585
L11429 17548
L11448 17529
L11486 17510
L11523 17510
L11579 17529
L11804 17754
L11804 17510
" />
<g transform="rotate(-18 17899.4 14312.7)">
<text x="17899.4" y="14509.6"
textLength="751.687" font-size="524.934" lengthAdjust="spacingAndGlyphs"
text-anchor="middle" opacity="0">J3</text>
</g>
<path d="M17707 14148
L17794 14415
L17794 14474
L17770 14522
L17722 14557
L17686 14569
" />
<path d="M17850 14101
L18082 14026
L18003 14209
L18057 14192
L18098 14198
L18122 14210
L18151 14240
L18180 14329
L18174 14371
L18162 14394
L18132 14424
L18025 14458
L17984 14452
L17960 14440
" />
<g transform="rotate(18 5009.56 8671.99)">
<text x="5009.56" y="8868.84"
textLength="751.687" font-size="524.934" lengthAdjust="spacingAndGlyphs"
text-anchor="middle" opacity="0">J4</text>
</g>
<path d="M4951 8426
L4864 8693
L4829 8741
L4782 8765
L4722 8766
L4687 8754
" />
<path d="M5249 8661
L5168 8910
" />
<path d="M5206 8489
L5030 8728
L5262 8803
" />
<g transform="rotate(54 12758.5 12567)">
<text x="12758.5" y="12763.8"
textLength="1145.39" font-size="524.934" lengthAdjust="spacingAndGlyphs"
text-anchor="middle" opacity="0">JP1</text>
</g>
<path d="M12740 12174
L12512 12340
L12456 12358
L12403 12349
L12355 12315
L12333 12284
" />
<path d="M12531 12557
L12850 12326
L12938 12447
L12945 12489
L12941 12515
L12921 12552
L12876 12585
L12834 12592
L12808 12588
L12771 12569
L12683 12447
" />
<path d="M12884 13043
L12752 12861
" />
<path d="M12818 12952
L13136 12720
L13069 12723
L13016 12715
L12979 12695
" />
<g transform="rotate(54 10128.5 8776.97)">
<text x="10128.5" y="8973.82"
textLength="1145.39" font-size="524.934" lengthAdjust="spacingAndGlyphs"
text-anchor="middle" opacity="0">JP2</text>
</g>
<path d="M10110 8384
L9882 8550
L9826 8568
L9773 8559
L9725 8525
L9703 8494
" />
<path d="M9901 8767
L10220 8536
L10308 8657
L10315 8699
L10311 8725
L10291 8762
L10246 8795
L10204 8802
L10178 8798
L10141 8779
L10053 8657
" />
<path d="M10410 8861
L10436 8866
L10473 8885
L10528 8961
L10535 9002
L10531 9028
L10512 9065
L10481 9087
L10425 9105
L10111 9056
L10254 9253
" />
<g transform="rotate(54 12376 10293.5)">
<text x="12376" y="10490.3"
textLength="1276.62" font-size="524.934" lengthAdjust="spacingAndGlyphs"
text-anchor="middle" opacity="0">SW1</text>
</g>
<path d="M11938 9962
L11956 10018
L12011 10094
L12048 10114
L12074 10118
L12116 10111
L12146 10089
L12165 10052
L12170 10025
L12163 9984
L12134 9912
L12127 9871
L12131 9845
L12150 9808
L12181 9786
L12222 9779
L12248 9783
L12285 9802
L12341 9878
L12358 9935
" />
<path d="M12451 10030
L12187 10337
L12459 10232
L12275 10458
L12649 10303
" />
<path d="M12540 10822
L12408 10640
" />
<path d="M12474 10731
L12792 10500
L12725 10503
L12672 10494
L12635 10475
" />
<g >
</g>
</g>
<g style="fill:#000000; fill-opacity:0.0; 
stroke:#000000; stroke-width:59.0551; stroke-opacity:1; 
stroke-linecap:round; stroke-linejoin:round;">
</g>
<g style="fill:#000000; fill-opacity:0.0; 
stroke:#000000; stroke-width:78.7402; stroke-opacity:1; 
stroke-linecap:round; stroke-linejoin:round;">
<path d="M694 18761
L20377 18751
" />
<path d="M6778 49
L16619 7190
" />
<path d="M16619 7190
L20377 18751
" />
<path d="M6778 49
L694 18761
" />
<g >
</g>
<g >
</g>
<g >
</g>
<g >
</g>
<g >
</g>
<g >
</g>
<g >
</g>
<g >
</g>
<g >
</g>
<g >
</g>
<g >
</g>
<g >
</g>
<g >
</g>
<g >
</g>
<g >
</g>
<g >
</g>
<g >
</g>
<g >
</g>
<g >
</g>
<g >
</g>
<g >
</g>
<g >
</g>
</g> 
</svg>
