<?xml version="1.0" standalone="no"?>
 <!DOCTYPE svg PUBLIC "-//W3C//DTD SVG 1.1//EN" 
 "http://www.w3.org/Graphics/SVG/1.1/DTD/svg11.dtd"> 
<svg
  xmlns:svg="http://www.w3.org/2000/svg"
  xmlns="http://www.w3.org/2000/svg"
  xmlns:xlink="http://www.w3.org/1999/xlink"
  version="1.1"
  width="6.855460cm" height="4.742180cm" viewBox="0 0 26990 18670">
<title>SVG Picture created as penroserombus_thick_40mm-brd.svg date 2021/02/18 18:34:46 </title>
  <desc>Picture generated by PCBNEW </desc>
<g style="fill:#000000; fill-opacity:1;stroke:#000000; stroke-opacity:1;
stroke-linecap:round; stroke-linejoin:round;"
 transform="translate(0 0) scale(1 1)">
</g>
<g style="fill:#000000; fill-opacity:0.0; 
stroke:#000000; stroke-width:-0.000393701; stroke-opacity:1; 
stroke-linecap:round; stroke-linejoin:round;">
<g >
</g>
<g style="fill:#000000; fill-opacity:1.0; 
stroke:#000000; stroke-width:0; stroke-opacity:1; 
stroke-linecap:round; stroke-linejoin:round;">
<circle cx="18078.7" cy="12916.6" r="629.921" /> 
</g>
<g style="fill:#000000; fill-opacity:1.0; 
stroke:#000000; stroke-width:39.3701; stroke-opacity:1; 
stroke-linecap:round; stroke-linejoin:round;">
</g>
<g >
</g>
<g style="fill:#000000; fill-opacity:1.0; 
stroke:#000000; stroke-width:39.3701; stroke-opacity:1; 
stroke-linecap:round; stroke-linejoin:round;">
</g>
<g style="fill:#000000; fill-opacity:1.0; 
stroke:#000000; stroke-width:0; stroke-opacity:1; 
stroke-linecap:round; stroke-linejoin:round;">
<circle cx="8915.18" cy="5381.33" r="629.921" /> 
</g>
<g style="fill:#000000; fill-opacity:1.0; 
stroke:#000000; stroke-width:39.3701; stroke-opacity:1; 
stroke-linecap:round; stroke-linejoin:round;">
</g>
<g >
</g>
<g style="fill:#000000; fill-opacity:1.0; 
stroke:#000000; stroke-width:39.3701; stroke-opacity:1; 
stroke-linecap:round; stroke-linejoin:round;">
</g>
<g style="fill:#000000; fill-opacity:1.0; 
stroke:#000000; stroke-width:0; stroke-opacity:1; 
stroke-linecap:round; stroke-linejoin:round;">
<circle cx="15835.3" cy="14213.7" r="629.921" /> 
</g>
<g style="fill:#000000; fill-opacity:1.0; 
stroke:#000000; stroke-width:39.3701; stroke-opacity:1; 
stroke-linecap:round; stroke-linejoin:round;">
</g>
<g >
</g>
<g style="fill:#000000; fill-opacity:1.0; 
stroke:#000000; stroke-width:39.3701; stroke-opacity:1; 
stroke-linecap:round; stroke-linejoin:round;">
</g>
<g style="fill:#000000; fill-opacity:1.0; 
stroke:#000000; stroke-width:0; stroke-opacity:1; 
stroke-linecap:round; stroke-linejoin:round;">
<circle cx="11158.5" cy="4084.17" r="629.921" /> 
</g>
<g style="fill:#000000; fill-opacity:1.0; 
stroke:#000000; stroke-width:39.3701; stroke-opacity:1; 
stroke-linecap:round; stroke-linejoin:round;">
</g>
<g >
</g>
<g style="fill:#000000; fill-opacity:1.0; 
stroke:#000000; stroke-width:39.3701; stroke-opacity:1; 
stroke-linecap:round; stroke-linejoin:round;">
</g>
<g style="fill:#000000; fill-opacity:1.0; 
stroke:#000000; stroke-width:0; stroke-opacity:1; 
stroke-linecap:round; stroke-linejoin:round;">
<circle cx="8285.87" cy="12935" r="629.921" /> 
</g>
<g style="fill:#000000; fill-opacity:1.0; 
stroke:#000000; stroke-width:39.3701; stroke-opacity:1; 
stroke-linecap:round; stroke-linejoin:round;">
</g>
<g >
</g>
<g style="fill:#000000; fill-opacity:1.0; 
stroke:#000000; stroke-width:39.3701; stroke-opacity:1; 
stroke-linecap:round; stroke-linejoin:round;">
</g>
<g style="fill:#000000; fill-opacity:1.0; 
stroke:#000000; stroke-width:0; stroke-opacity:1; 
stroke-linecap:round; stroke-linejoin:round;">
<circle cx="18708" cy="5362.89" r="629.921" /> 
</g>
<g style="fill:#000000; fill-opacity:1.0; 
stroke:#000000; stroke-width:39.3701; stroke-opacity:1; 
stroke-linecap:round; stroke-linejoin:round;">
</g>
<g >
</g>
<g style="fill:#000000; fill-opacity:1.0; 
stroke:#000000; stroke-width:39.3701; stroke-opacity:1; 
stroke-linecap:round; stroke-linejoin:round;">
</g>
<g style="fill:#000000; fill-opacity:1.0; 
stroke:#000000; stroke-width:0; stroke-opacity:1; 
stroke-linecap:round; stroke-linejoin:round;">
<circle cx="5100.77" cy="15249.1" r="629.921" /> 
</g>
<g style="fill:#000000; fill-opacity:1.0; 
stroke:#000000; stroke-width:39.3701; stroke-opacity:1; 
stroke-linecap:round; stroke-linejoin:round;">
</g>
<g >
</g>
<g style="fill:#000000; fill-opacity:1.0; 
stroke:#000000; stroke-width:39.3701; stroke-opacity:1; 
stroke-linecap:round; stroke-linejoin:round;">
</g>
<g style="fill:#000000; fill-opacity:1.0; 
stroke:#000000; stroke-width:0; stroke-opacity:1; 
stroke-linecap:round; stroke-linejoin:round;">
<circle cx="21893.1" cy="3048.78" r="629.921" /> 
</g>
<g style="fill:#000000; fill-opacity:1.0; 
stroke:#000000; stroke-width:39.3701; stroke-opacity:1; 
stroke-linecap:round; stroke-linejoin:round;">
</g>
<g >
</g>
<g style="fill:#000000; fill-opacity:1.0; 
stroke:#000000; stroke-width:39.3701; stroke-opacity:1; 
stroke-linecap:round; stroke-linejoin:round;">
</g>
<g style="fill:#000000; fill-opacity:1.0; 
stroke:#000000; stroke-width:0; stroke-opacity:1; 
stroke-linecap:round; stroke-linejoin:round;">
<circle cx="17549.3" cy="14726.5" r="226.378" /> 
</g>
<g style="fill:#000000; fill-opacity:1.0; 
stroke:#000000; stroke-width:39.3701; stroke-opacity:1; 
stroke-linecap:round; stroke-linejoin:round;">
</g>
<g >
</g>
<g style="fill:#000000; fill-opacity:1.0; 
stroke:#000000; stroke-width:39.3701; stroke-opacity:1; 
stroke-linecap:round; stroke-linejoin:round;">
</g>
<g style="fill:#000000; fill-opacity:1.0; 
stroke:#000000; stroke-width:0; stroke-opacity:1; 
stroke-linecap:round; stroke-linejoin:round;">
<circle cx="9444.58" cy="3571.37" r="226.378" /> 
</g>
<g style="fill:#000000; fill-opacity:1.0; 
stroke:#000000; stroke-width:39.3701; stroke-opacity:1; 
stroke-linecap:round; stroke-linejoin:round;">
</g>
<g >
</g>
<g style="fill:#000000; fill-opacity:1.0; 
stroke:#000000; stroke-width:39.3701; stroke-opacity:1; 
stroke-linecap:round; stroke-linejoin:round;">
</g>
<g style="fill:#000000; fill-opacity:1.0; 
stroke:#000000; stroke-width:0; stroke-opacity:1; 
stroke-linecap:round; stroke-linejoin:round;">
<path style="fill:#000000; fill-opacity:1.0; 
stroke:#000000; stroke-width:0; stroke-opacity:1; 
stroke-linecap:round; stroke-linejoin:round;fill-rule:evenodd;"
d="M 8791.79,10804.1
8801.31,10805.7
8810.63,10808.3
9063.37,10890.4
9072.4,10893.8
9081.05,10898.1
9089.24,10903.2
9096.88,10909.1
9103.91,10915.8
9110.25,10923.1
9115.85,10930.9
9120.66,10939.3
9124.61,10948.1
9127.69,10957.3
9129.85,10966.7
9131.08,10976.3
9131.37,10985.9
9130.7,10995.6
9129.1,11005.1
9126.57,11014.4
9010.99,11370.1
9007.56,11379.1
9003.26,11387.8
8998.13,11396
8992.23,11403.6
8985.6,11410.6
8978.32,11417
8970.45,11422.6
8962.07,11427.4
8953.26,11431.4
8944.1,11434.4
8934.69,11436.6
8925.1,11437.8
8915.45,11438.1
8905.81,11437.4
8896.29,11435.8
8886.97,11433.3
8634.23,11351.2
8625.2,11347.8
8616.55,11343.5
8608.36,11338.3
8600.72,11332.4
8593.69,11325.8
8587.35,11318.5
8581.75,11310.6
8576.94,11302.3
8572.99,11293.5
8569.91,11284.3
8567.75,11274.9
8566.52,11265.3
8566.23,11255.6
8566.9,11246
8568.5,11236.5
8571.03,11227.2
8686.61,10871.5
8690.04,10862.4
8694.34,10853.8
8699.47,10845.6
8705.37,10837.9
8712,10830.9
8719.28,10824.6
8727.15,10819
8735.53,10814.2
8744.34,10810.2
8753.5,10807.1
8762.91,10805
8772.5,10803.7
8782.15,10803.5
Z" /> 
<path style="fill:#000000; fill-opacity:1.0; 
stroke:#000000; stroke-width:0; stroke-opacity:1; 
stroke-linecap:round; stroke-linejoin:round;fill-rule:evenodd;"
d="M 8014.84,10551.7
8024.37,10553.3
8033.69,10555.8
8286.43,10637.9
8295.46,10641.4
8304.11,10645.7
8312.29,10650.8
8319.94,10656.7
8326.96,10663.3
8333.31,10670.6
8338.91,10678.5
8343.71,10686.9
8347.67,10695.7
8350.74,10704.8
8352.91,10714.2
8354.14,10723.8
8354.42,10733.5
8353.76,10743.1
8352.15,10752.6
8349.62,10762
8234.04,11117.7
8230.61,11126.7
8226.31,11135.3
8221.18,11143.5
8215.28,11151.2
8208.65,11158.2
8201.37,11164.5
8193.5,11170.1
8185.12,11175
8176.31,11178.9
8167.15,11182
8157.74,11184.1
8148.16,11185.4
8138.5,11185.7
8128.87,11185
8119.34,11183.4
8110.02,11180.9
7857.28,11098.7
7848.25,11095.3
7839.6,11091
7831.42,11085.9
7823.77,11080
7816.74,11073.3
7810.4,11066.1
7804.8,11058.2
7800,11049.8
7796.04,11041
7792.96,11031.8
7790.8,11022.4
7789.57,11012.9
7789.29,11003.2
7789.95,10993.6
7791.56,10984
7794.09,10974.7
7909.66,10619
7913.1,10610
7917.4,10601.3
7922.52,10593.1
7928.43,10585.5
7935.05,10578.5
7942.34,10572.1
7950.21,10566.5
7958.59,10561.7
7967.4,10557.8
7976.56,10554.7
7985.97,10552.5
7995.55,10551.3
8005.2,10551
Z" /> 
</g>
<g >
</g>
<g style="fill:#000000; fill-opacity:1.0; 
stroke:#000000; stroke-width:0; stroke-opacity:1; 
stroke-linecap:round; stroke-linejoin:round;">
<path style="fill:#000000; fill-opacity:1.0; 
stroke:#000000; stroke-width:0; stroke-opacity:1; 
stroke-linecap:round; stroke-linejoin:round;fill-rule:evenodd;"
d="M 10707,13122.2
10716.5,13123.6
10725.9,13126
10735,13129.2
10743.7,13133.3
10752,13138.3
10759.8,13144.1
10766.9,13150.6
10773.4,13157.7
10779.2,13165.5
10784.1,13173.8
10788.3,13182.5
10791.5,13191.6
10793.9,13200.9
10795.3,13210.5
10795.8,13220.1
10795.8,13485.9
10795.3,13495.5
10793.9,13505.1
10791.5,13514.5
10788.3,13523.6
10784.1,13532.3
10779.2,13540.6
10773.4,13548.3
10766.9,13555.5
10759.8,13562
10752,13567.7
10743.7,13572.7
10735,13576.8
10725.9,13580.1
10716.5,13582.4
10707,13583.8
10697.3,13584.3
10323.3,13584.3
10313.7,13583.8
10304.1,13582.4
10294.7,13580.1
10285.7,13576.8
10276.9,13572.7
10268.6,13567.7
10260.9,13562
10253.7,13555.5
10247.2,13548.3
10241.5,13540.6
10236.5,13532.3
10232.4,13523.6
10229.1,13514.5
10226.8,13505.1
10225.4,13495.5
10224.9,13485.9
10224.9,13220.1
10225.4,13210.5
10226.8,13200.9
10229.1,13191.6
10232.4,13182.5
10236.5,13173.8
10241.5,13165.5
10247.2,13157.7
10253.7,13150.6
10260.9,13144.1
10268.6,13138.3
10276.9,13133.3
10285.7,13129.2
10294.7,13126
10304.1,13123.6
10313.7,13122.2
10323.3,13121.7
10697.3,13121.7
Z" /> 
<path style="fill:#000000; fill-opacity:1.0; 
stroke:#000000; stroke-width:0; stroke-opacity:1; 
stroke-linecap:round; stroke-linejoin:round;fill-rule:evenodd;"
d="M 10707,12305.3
10716.5,12306.7
10725.9,12309
10735,12312.3
10743.7,12316.4
10752,12321.4
10759.8,12327.1
10766.9,12333.6
10773.4,12340.8
10779.2,12348.5
10784.1,12356.8
10788.3,12365.6
10791.5,12374.6
10793.9,12384
10795.3,12393.6
10795.8,12403.2
10795.8,12669
10795.3,12678.6
10793.9,12688.2
10791.5,12697.5
10788.3,12706.6
10784.1,12715.4
10779.2,12723.7
10773.4,12731.4
10766.9,12738.6
10759.8,12745.1
10752,12750.8
10743.7,12755.8
10735,12759.9
10725.9,12763.2
10716.5,12765.5
10707,12766.9
10697.3,12767.4
10323.3,12767.4
10313.7,12766.9
10304.1,12765.5
10294.7,12763.2
10285.7,12759.9
10276.9,12755.8
10268.6,12750.8
10260.9,12745.1
10253.7,12738.6
10247.2,12731.4
10241.5,12723.7
10236.5,12715.4
10232.4,12706.6
10229.1,12697.5
10226.8,12688.2
10225.4,12678.6
10224.9,12669
10224.9,12403.2
10225.4,12393.6
10226.8,12384
10229.1,12374.6
10232.4,12365.6
10236.5,12356.8
10241.5,12348.5
10247.2,12340.8
10253.7,12333.6
10260.9,12327.1
10268.6,12321.4
10276.9,12316.4
10285.7,12312.3
10294.7,12309
10304.1,12306.7
10313.7,12305.3
10323.3,12304.8
10697.3,12304.8
Z" /> 
</g>
<g >
</g>
<g style="fill:#000000; fill-opacity:1.0; 
stroke:#000000; stroke-width:0; stroke-opacity:1; 
stroke-linecap:round; stroke-linejoin:round;">
<path style="fill:#000000; fill-opacity:1.0; 
stroke:#000000; stroke-width:0; stroke-opacity:1; 
stroke-linecap:round; stroke-linejoin:round;fill-rule:evenodd;"
d="M 14353.7,7649.51
14003.3,7904.06
13552.1,7282.97
13902.4,7028.41
Z" /> 
<path style="fill:#000000; fill-opacity:1.0; 
stroke:#000000; stroke-width:0; stroke-opacity:1; 
stroke-linecap:round; stroke-linejoin:round;fill-rule:evenodd;"
d="M 13557.4,8228.04
13207,8482.59
12755.8,7861.5
13106.1,7606.94
Z" /> 
<path style="fill:#000000; fill-opacity:1.0; 
stroke:#000000; stroke-width:0; stroke-opacity:1; 
stroke-linecap:round; stroke-linejoin:round;fill-rule:evenodd;"
d="M 12761.1,8806.57
12410.8,9061.12
11959.5,8440.02
12309.9,8185.47
Z" /> 
<path style="fill:#000000; fill-opacity:1.0; 
stroke:#000000; stroke-width:0; stroke-opacity:1; 
stroke-linecap:round; stroke-linejoin:round;fill-rule:evenodd;"
d="M 15661.1,9449.09
15310.8,9703.65
14859.5,9082.55
15209.9,8828
Z" /> 
<path style="fill:#000000; fill-opacity:1.0; 
stroke:#000000; stroke-width:0; stroke-opacity:1; 
stroke-linecap:round; stroke-linejoin:round;fill-rule:evenodd;"
d="M 14864.9,10027.6
14514.5,10282.2
14063.3,9661.08
14413.6,9406.53
Z" /> 
<path style="fill:#000000; fill-opacity:1.0; 
stroke:#000000; stroke-width:0; stroke-opacity:1; 
stroke-linecap:round; stroke-linejoin:round;fill-rule:evenodd;"
d="M 14068.6,10606.2
13718.2,10860.7
13267,10239.6
13617.3,9985.06
Z" /> 
</g>
<g >
</g>
<g style="fill:#000000; fill-opacity:1.0; 
stroke:#000000; stroke-width:0; stroke-opacity:1; 
stroke-linecap:round; stroke-linejoin:round;">
<path style="fill:#000000; fill-opacity:1.0; 
stroke:#000000; stroke-width:0; stroke-opacity:1; 
stroke-linecap:round; stroke-linejoin:round;fill-rule:evenodd;"
d="M 16464.8,10501.7
16474.4,10503.3
16483.7,10505.8
16736.4,10587.9
16745.5,10591.4
16754.1,10595.7
16762.3,10600.8
16769.9,10606.7
16777,10613.3
16783.3,10620.6
16788.9,10628.5
16793.7,10636.9
16797.7,10645.7
16800.7,10654.8
16802.9,10664.2
16804.1,10673.8
16804.4,10683.5
16803.8,10693.1
16802.2,10702.6
16799.6,10712
16684,11067.7
16680.6,11076.7
16676.3,11085.3
16671.2,11093.5
16665.3,11101.2
16658.7,11108.2
16651.4,11114.5
16643.5,11120.1
16635.1,11125
16626.3,11128.9
16617.2,11132
16607.7,11134.1
16598.2,11135.4
16588.5,11135.7
16578.9,11135
16569.3,11133.4
16560,11130.9
16307.3,11048.7
16298.3,11045.3
16289.6,11041
16281.4,11035.9
16273.8,11030
16266.7,11023.3
16260.4,11016.1
16254.8,11008.2
16250,10999.8
16246,10991
16243,10981.8
16240.8,10972.4
16239.6,10962.9
16239.3,10953.2
16240,10943.6
16241.6,10934
16244.1,10924.7
16359.7,10569
16363.1,10560
16367.4,10551.3
16372.5,10543.1
16378.4,10535.5
16385.1,10528.5
16392.3,10522.1
16400.2,10516.5
16408.6,10511.7
16417.4,10507.8
16426.6,10504.7
16436,10502.5
16445.5,10501.3
16455.2,10501
Z" /> 
<path style="fill:#000000; fill-opacity:1.0; 
stroke:#000000; stroke-width:0; stroke-opacity:1; 
stroke-linecap:round; stroke-linejoin:round;fill-rule:evenodd;"
d="M 17241.8,10754.1
17251.3,10755.7
17260.6,10758.3
17513.4,10840.4
17522.4,10843.8
17531.1,10848.1
17539.2,10853.2
17546.9,10859.1
17553.9,10865.8
17560.3,10873.1
17565.9,10880.9
17570.7,10889.3
17574.6,10898.1
17577.7,10907.3
17579.9,10916.7
17581.1,10926.3
17581.4,10935.9
17580.7,10945.6
17579.1,10955.1
17576.6,10964.4
17461,11320.1
17457.6,11329.1
17453.3,11337.8
17448.1,11346
17442.2,11353.6
17435.6,11360.6
17428.3,11367
17420.4,11372.6
17412.1,11377.4
17403.3,11381.4
17394.1,11384.4
17384.7,11386.6
17375.1,11387.8
17365.5,11388.1
17355.8,11387.4
17346.3,11385.8
17337,11383.3
17084.2,11301.2
17075.2,11297.8
17066.5,11293.5
17058.4,11288.3
17050.7,11282.4
17043.7,11275.8
17037.3,11268.5
17031.7,11260.6
17026.9,11252.3
17023,11243.5
17019.9,11234.3
17017.7,11224.9
17016.5,11215.3
17016.2,11205.6
17016.9,11196
17018.5,11186.5
17021,11177.2
17136.6,10821.5
17140,10812.4
17144.3,10803.8
17149.5,10795.6
17155.4,10787.9
17162,10780.9
17169.3,10774.6
17177.2,10769
17185.5,10764.2
17194.3,10760.2
17203.5,10757.1
17212.9,10755
17222.5,10753.7
17232.2,10753.5
Z" /> 
</g>
<g >
</g>
<g style="fill:#000000; fill-opacity:1.0; 
stroke:#000000; stroke-width:0; stroke-opacity:1; 
stroke-linecap:round; stroke-linejoin:round;">
<circle cx="19662.2" cy="11221.9" r="334.646" /> 
<circle cx="19971.2" cy="10270.8" r="334.646" /> 
<path style="fill:#000000; fill-opacity:1.0; 
stroke:#000000; stroke-width:0; stroke-opacity:1; 
stroke-linecap:round; stroke-linejoin:round;fill-rule:evenodd;"
d="M 19858.6,9534.59
20065.4,8898.06
20701.9,9104.88
20495.1,9741.41
Z" /> 
</g>
<g >
</g>
<g style="fill:#000000; fill-opacity:1.0; 
stroke:#000000; stroke-width:0; stroke-opacity:1; 
stroke-linecap:round; stroke-linejoin:round;">
<path style="fill:#000000; fill-opacity:1.0; 
stroke:#000000; stroke-width:0; stroke-opacity:1; 
stroke-linecap:round; stroke-linejoin:round;fill-rule:evenodd;"
d="M 10729.1,15318.7
11398.4,15318.7
11398.4,15988
10729.1,15988
Z" /> 
<circle cx="10063.7" cy="15653.3" r="334.646" /> 
<circle cx="9063.72" cy="15653.3" r="334.646" /> 
</g>
<g >
</g>
<g style="fill:#000000; fill-opacity:1.0; 
stroke:#000000; stroke-width:0; stroke-opacity:1; 
stroke-linecap:round; stroke-linejoin:round;">
<path style="fill:#000000; fill-opacity:1.0; 
stroke:#000000; stroke-width:0; stroke-opacity:1; 
stroke-linecap:round; stroke-linejoin:round;fill-rule:evenodd;"
d="M 15096,2310.18
15765.3,2310.18
15765.3,2979.47
15096,2979.47
Z" /> 
<circle cx="14430.7" cy="2644.83" r="334.646" /> 
<circle cx="13430.7" cy="2644.83" r="334.646" /> 
</g>
<g >
</g>
<g style="fill:#000000; fill-opacity:1.0; 
stroke:#000000; stroke-width:0; stroke-opacity:1; 
stroke-linecap:round; stroke-linejoin:round;">
<circle cx="5940.96" cy="11355.2" r="334.646" /> 
<circle cx="6249.97" cy="10404.1" r="334.646" /> 
<path style="fill:#000000; fill-opacity:1.0; 
stroke:#000000; stroke-width:0; stroke-opacity:1; 
stroke-linecap:round; stroke-linejoin:round;fill-rule:evenodd;"
d="M 6137.31,9667.95
6344.13,9031.41
6980.67,9238.24
6773.84,9874.77
Z" /> 
</g>
<g >
</g>
<g style="fill:#000000; fill-opacity:1.0; 
stroke:#000000; stroke-width:0; stroke-opacity:1; 
stroke-linecap:round; stroke-linejoin:round;">
<path style="fill:#000000; fill-opacity:1.0; 
stroke:#000000; stroke-width:0; stroke-opacity:1; 
stroke-linecap:round; stroke-linejoin:round;fill-rule:evenodd;"
d="M 12560.6,7569.98
12213.4,7092.22
12532,6860.81
12879.1,7338.57
Z" /> 
<path style="fill:#000000; fill-opacity:1.0; 
stroke:#000000; stroke-width:0; stroke-opacity:1; 
stroke-linecap:round; stroke-linejoin:round;fill-rule:evenodd;"
d="M 12786.9,6675.87
12794.7,6670.19
12811.4,6660.42
12828.9,6652.34
12847.2,6646.01
12866,6641.5
12885.1,6638.85
12904.4,6638.09
12923.7,6639.23
12942.8,6642.25
12961.5,6647.13
12979.6,6653.81
12997,6662.24
13013.4,6672.34
13028.8,6684
13043,6697.11
13055.9,6711.55
13061.5,6719.37
13061.7,6719.23
13177.4,6878.48
13177.2,6878.62
13182.9,6886.44
13192.7,6903.1
13200.8,6920.64
13207.1,6938.9
13211.6,6957.68
13214.3,6976.82
13215,6996.12
13213.9,7015.4
13210.9,7034.48
13206,7053.18
13199.3,7071.3
13190.9,7088.68
13180.8,7105.15
13169.1,7120.56
13156,7134.74
13141.6,7147.57
13133.7,7153.25
13133.9,7153.44
12958.7,7280.72
12611.6,6802.95
12786.8,6675.68
Z" /> 
<path style="fill:#000000; fill-opacity:1.0; 
stroke:#000000; stroke-width:0; stroke-opacity:1; 
stroke-linecap:round; stroke-linejoin:round;fill-rule:evenodd;"
d="M 12480.9,7627.84
12305.8,7755.11
12305.6,7754.92
12297.8,7760.6
12281.1,7770.37
12263.6,7778.45
12245.3,7784.78
12226.6,7789.29
12207.4,7791.94
12188.1,7792.7
12168.8,7791.56
12149.8,7788.54
12131.1,7783.66
12112.9,7776.97
12095.6,7768.54
12079.1,7758.45
12063.7,7746.79
12049.5,7733.68
12036.7,7719.24
12031,7711.42
12030.8,7711.56
11915.1,7552.31
11915.3,7552.17
11909.6,7544.35
11899.8,7527.69
11891.7,7510.14
11885.4,7491.89
11880.9,7473.11
11878.3,7453.97
11877.5,7434.67
11878.6,7415.39
11881.7,7396.3
11886.5,7377.61
11893.2,7359.49
11901.7,7342.11
11911.8,7325.64
11923.4,7310.23
11936.5,7296.05
11951,7283.22
11958.8,7277.54
11958.6,7277.35
12133.8,7150.07
Z" /> 
</g>
<g >
</g>
<g style="fill:#000000; fill-opacity:1.0; 
stroke:#000000; stroke-width:0; stroke-opacity:1; 
stroke-linecap:round; stroke-linejoin:round;">
<path style="fill:#000000; fill-opacity:1.0; 
stroke:#000000; stroke-width:0; stroke-opacity:1; 
stroke-linecap:round; stroke-linejoin:round;fill-rule:evenodd;"
d="M 15045,11117
14869.8,11244.3
14869.7,11244.1
14861.9,11249.8
14845.2,11259.5
14827.7,11267.6
14809.4,11273.9
14790.6,11278.5
14771.5,11281.1
14752.2,11281.9
14732.9,11280.7
14713.8,11277.7
14695.1,11272.8
14677,11266.1
14659.6,11257.7
14643.2,11247.6
14627.7,11236
14613.6,11222.8
14600.7,11208.4
14595.1,11200.6
14594.9,11200.7
14479.2,11041.5
14479.3,11041.3
14473.7,11033.5
14463.9,11016.9
14455.8,10999.3
14449.5,10981.1
14445,10962.3
14442.3,10943.1
14441.6,10923.8
14442.7,10904.5
14445.7,10885.5
14450.6,10866.8
14457.3,10848.7
14465.7,10831.3
14475.8,10814.8
14487.5,10799.4
14500.6,10785.2
14515,10772.4
14522.8,10766.7
14522.7,10766.5
14697.9,10639.2
Z" /> 
<path style="fill:#000000; fill-opacity:1.0; 
stroke:#000000; stroke-width:0; stroke-opacity:1; 
stroke-linecap:round; stroke-linejoin:round;fill-rule:evenodd;"
d="M 15351,10165
15358.8,10159.4
15375.5,10149.6
15393,10141.5
15411.2,10135.2
15430,10130.7
15449.2,10128
15468.5,10127.3
15487.8,10128.4
15506.8,10131.4
15525.5,10136.3
15543.7,10143
15561,10151.4
15577.5,10161.5
15592.9,10173.2
15607.1,10186.3
15619.9,10200.7
15625.6,10208.5
15625.8,10208.4
15741.5,10367.6
15741.3,10367.8
15747,10375.6
15756.8,10392.3
15764.8,10409.8
15771.2,10428.1
15775.7,10446.8
15778.3,10466
15779.1,10485.3
15777.9,10504.6
15774.9,10523.6
15770,10542.3
15763.4,10560.5
15754.9,10577.8
15744.8,10594.3
15733.2,10609.7
15720.1,10623.9
15705.6,10636.7
15697.8,10642.4
15697.9,10642.6
15522.8,10769.9
15175.7,10292.1
15350.8,10164.8
Z" /> 
<path style="fill:#000000; fill-opacity:1.0; 
stroke:#000000; stroke-width:0; stroke-opacity:1; 
stroke-linecap:round; stroke-linejoin:round;fill-rule:evenodd;"
d="M 15124.6,11059.1
14777.5,10581.4
15096,10350
15443.1,10827.7
Z" /> 
</g>
<g >
</g>
<g style="fill:#000000; fill-opacity:1.0; 
stroke:#000000; stroke-width:0; stroke-opacity:1; 
stroke-linecap:round; stroke-linejoin:round;">
<path style="fill:#000000; fill-opacity:1.0; 
stroke:#000000; stroke-width:0; stroke-opacity:1; 
stroke-linecap:round; stroke-linejoin:round;fill-rule:evenodd;"
d="M 13007,4255.27
13016.5,4256.69
13025.9,4259.03
13035,4262.29
13043.7,4266.42
13052,4271.38
13059.8,4277.14
13066.9,4283.62
13073.4,4290.78
13079.2,4298.54
13084.1,4306.82
13088.3,4315.56
13091.5,4324.65
13093.9,4334.02
13095.3,4343.57
13095.8,4353.22
13095.8,4618.97
13095.3,4628.62
13093.9,4638.17
13091.5,4647.54
13088.3,4656.63
13084.1,4665.37
13079.2,4673.65
13073.4,4681.41
13066.9,4688.57
13059.8,4695.05
13052,4700.81
13043.7,4705.77
13035,4709.9
13025.9,4713.16
13016.5,4715.5
13007,4716.92
12997.3,4717.39
12623.3,4717.39
12613.7,4716.92
12604.1,4715.5
12594.7,4713.16
12585.7,4709.9
12576.9,4705.77
12568.6,4700.81
12560.9,4695.05
12553.7,4688.57
12547.2,4681.41
12541.5,4673.65
12536.5,4665.37
12532.4,4656.63
12529.1,4647.54
12526.8,4638.17
12525.4,4628.62
12524.9,4618.97
12524.9,4353.22
12525.4,4343.57
12526.8,4334.02
12529.1,4324.65
12532.4,4315.56
12536.5,4306.82
12541.5,4298.54
12547.2,4290.78
12553.7,4283.62
12560.9,4277.14
12568.6,4271.38
12576.9,4266.42
12585.7,4262.29
12594.7,4259.03
12604.1,4256.69
12613.7,4255.27
12623.3,4254.8
12997.3,4254.8
Z" /> 
<path style="fill:#000000; fill-opacity:1.0; 
stroke:#000000; stroke-width:0; stroke-opacity:1; 
stroke-linecap:round; stroke-linejoin:round;fill-rule:evenodd;"
d="M 13007,5072.2
13016.5,5073.62
13025.9,5075.96
13035,5079.22
13043.7,5083.35
13052,5088.31
13059.8,5094.07
13066.9,5100.55
13073.4,5107.71
13079.2,5115.47
13084.1,5123.75
13088.3,5132.48
13091.5,5141.58
13093.9,5150.95
13095.3,5160.5
13095.8,5170.15
13095.8,5435.9
13095.3,5445.55
13093.9,5455.1
13091.5,5464.47
13088.3,5473.56
13084.1,5482.3
13079.2,5490.58
13073.4,5498.34
13066.9,5505.5
13059.8,5511.98
13052,5517.74
13043.7,5522.7
13035,5526.83
13025.9,5530.09
13016.5,5532.43
13007,5533.85
12997.3,5534.32
12623.3,5534.32
12613.7,5533.85
12604.1,5532.43
12594.7,5530.09
12585.7,5526.83
12576.9,5522.7
12568.6,5517.74
12560.9,5511.98
12553.7,5505.5
12547.2,5498.34
12541.5,5490.58
12536.5,5482.3
12532.4,5473.56
12529.1,5464.47
12526.8,5455.1
12525.4,5445.55
12524.9,5435.9
12524.9,5170.15
12525.4,5160.5
12526.8,5150.95
12529.1,5141.58
12532.4,5132.48
12536.5,5123.75
12541.5,5115.47
12547.2,5107.71
12553.7,5100.55
12560.9,5094.07
12568.6,5088.31
12576.9,5083.35
12585.7,5079.22
12594.7,5075.96
12604.1,5073.62
12613.7,5072.2
12623.3,5071.72
12997.3,5071.72
Z" /> 
</g>
<g >
</g>
<g style="fill:#000000; fill-opacity:1.0; 
stroke:#000000; stroke-width:0; stroke-opacity:1; 
stroke-linecap:round; stroke-linejoin:round;">
<path style="fill:#000000; fill-opacity:1.0; 
stroke:#000000; stroke-width:0; stroke-opacity:1; 
stroke-linecap:round; stroke-linejoin:round;fill-rule:evenodd;"
d="M 18512.9,8212.37
18887.4,8334.03
18704.9,8895.68
18330.5,8774.02
Z" /> 
<path style="fill:#000000; fill-opacity:1.0; 
stroke:#000000; stroke-width:0; stroke-opacity:1; 
stroke-linecap:round; stroke-linejoin:round;fill-rule:evenodd;"
d="M 17314.8,7823.05
17689.2,7944.71
17506.7,8506.36
17132.3,8384.7
Z" /> 
<path style="fill:#000000; fill-opacity:1.0; 
stroke:#000000; stroke-width:0; stroke-opacity:1; 
stroke-linecap:round; stroke-linejoin:round;fill-rule:evenodd;"
d="M 17916.8,10047.1
18291.2,10168.7
18108.7,10730.4
17734.3,10608.7
Z" /> 
<path style="fill:#000000; fill-opacity:1.0; 
stroke:#000000; stroke-width:0; stroke-opacity:1; 
stroke-linecap:round; stroke-linejoin:round;fill-rule:evenodd;"
d="M 16718.6,9657.77
17093.1,9779.43
16910.6,10341.1
16536.1,10219.4
Z" /> 
</g>
<g >
</g>
<g style="fill:#000000; fill-opacity:1.0; 
stroke:#000000; stroke-width:0; stroke-opacity:1; 
stroke-linecap:round; stroke-linejoin:round;">
<path style="fill:#000000; fill-opacity:1.0; 
stroke:#000000; stroke-width:0; stroke-opacity:1; 
stroke-linecap:round; stroke-linejoin:round;fill-rule:evenodd;"
d="M 11646.7,12370.2
11646.7,12763.9
11056.2,12763.9
11056.2,12370.2
Z" /> 
<path style="fill:#000000; fill-opacity:1.0; 
stroke:#000000; stroke-width:0; stroke-opacity:1; 
stroke-linecap:round; stroke-linejoin:round;fill-rule:evenodd;"
d="M 11646.7,13630
11646.7,14023.7
11056.2,14023.7
11056.2,13630
Z" /> 
<path style="fill:#000000; fill-opacity:1.0; 
stroke:#000000; stroke-width:0; stroke-opacity:1; 
stroke-linecap:round; stroke-linejoin:round;fill-rule:evenodd;"
d="M 13575.8,12370.2
13575.8,12763.9
12985.3,12763.9
12985.3,12370.2
Z" /> 
<path style="fill:#000000; fill-opacity:1.0; 
stroke:#000000; stroke-width:0; stroke-opacity:1; 
stroke-linecap:round; stroke-linejoin:round;fill-rule:evenodd;"
d="M 13575.8,13630
13575.8,14023.7
12985.3,14023.7
12985.3,13630
Z" /> 
</g>
<g >
</g>
<g style="fill:#000000; fill-opacity:1.0; 
stroke:#000000; stroke-width:0; stroke-opacity:1; 
stroke-linecap:round; stroke-linejoin:round;">
<path style="fill:#000000; fill-opacity:1.0; 
stroke:#000000; stroke-width:0; stroke-opacity:1; 
stroke-linecap:round; stroke-linejoin:round;fill-rule:evenodd;"
d="M 14008.6,4274.14
14008.6,4667.84
13418,4667.84
13418,4274.14
Z" /> 
<path style="fill:#000000; fill-opacity:1.0; 
stroke:#000000; stroke-width:0; stroke-opacity:1; 
stroke-linecap:round; stroke-linejoin:round;fill-rule:evenodd;"
d="M 14008.6,5533.99
14008.6,5927.69
13418,5927.69
13418,5533.99
Z" /> 
<path style="fill:#000000; fill-opacity:1.0; 
stroke:#000000; stroke-width:0; stroke-opacity:1; 
stroke-linecap:round; stroke-linejoin:round;fill-rule:evenodd;"
d="M 15937.7,4274.14
15937.7,4667.84
15347.1,4667.84
15347.1,4274.14
Z" /> 
<path style="fill:#000000; fill-opacity:1.0; 
stroke:#000000; stroke-width:0; stroke-opacity:1; 
stroke-linecap:round; stroke-linejoin:round;fill-rule:evenodd;"
d="M 15937.7,5533.99
15937.7,5927.69
15347.1,5927.69
15347.1,5533.99
Z" /> 
</g>
<g >
</g>
<g style="fill:#000000; fill-opacity:1.0; 
stroke:#000000; stroke-width:0; stroke-opacity:1; 
stroke-linecap:round; stroke-linejoin:round;">
<path style="fill:#000000; fill-opacity:1.0; 
stroke:#000000; stroke-width:0; stroke-opacity:1; 
stroke-linecap:round; stroke-linejoin:round;fill-rule:evenodd;"
d="M 10083.3,8212.37
10457.7,8334.03
10275.2,8895.68
9900.79,8774.02
Z" /> 
<path style="fill:#000000; fill-opacity:1.0; 
stroke:#000000; stroke-width:0; stroke-opacity:1; 
stroke-linecap:round; stroke-linejoin:round;fill-rule:evenodd;"
d="M 8885.1,7823.05
9259.53,7944.71
9077.04,8506.36
8702.61,8384.7
Z" /> 
<path style="fill:#000000; fill-opacity:1.0; 
stroke:#000000; stroke-width:0; stroke-opacity:1; 
stroke-linecap:round; stroke-linejoin:round;fill-rule:evenodd;"
d="M 9487.15,10047.1
9861.58,10168.7
9679.09,10730.4
9304.66,10608.7
Z" /> 
<path style="fill:#000000; fill-opacity:1.0; 
stroke:#000000; stroke-width:0; stroke-opacity:1; 
stroke-linecap:round; stroke-linejoin:round;fill-rule:evenodd;"
d="M 8288.97,9657.77
8663.4,9779.43
8480.91,10341.1
8106.48,10219.4
Z" /> 
</g>
<g >
</g>
<g >
</g>
<g >
</g>
</g>
<g style="fill:#000000; fill-opacity:1.0; 
stroke:#000000; stroke-width:0; stroke-opacity:1; 
stroke-linecap:round; stroke-linejoin:round;">
</g>
<g style="fill:#000000; fill-opacity:1.0; 
stroke:#000000; stroke-width:78.7402; stroke-opacity:1; 
stroke-linecap:round; stroke-linejoin:round;">
</g>
<g style="fill:#000000; fill-opacity:0.0; 
stroke:#000000; stroke-width:78.7402; stroke-opacity:1; 
stroke-linecap:round; stroke-linejoin:round;">
<path d="M3189 16637
L18937 16637
" />
<path d="M18937 16637
L23804 1660
" />
<path d="M23804 1660
L8056 1660
" />
<path d="M8056 1660
L3189 16637
" />
<g >
</g>
<g >
</g>
<g >
</g>
<g >
</g>
<g >
</g>
<g >
</g>
<g >
</g>
<g >
</g>
<g >
</g>
<g >
</g>
<g >
</g>
<g >
</g>
<g >
</g>
<g >
</g>
<g >
</g>
<g >
</g>
<g >
</g>
<g >
</g>
<g >
</g>
<g >
</g>
<g >
</g>
<g >
</g>
<g >
</g>
<g >
</g>
<g >
</g>
<g >
</g>
</g> 
</svg>
