<?xml version="1.0" standalone="no"?>
 <!DOCTYPE svg PUBLIC "-//W3C//DTD SVG 1.1//EN" 
 "http://www.w3.org/Graphics/SVG/1.1/DTD/svg11.dtd"> 
<svg
  xmlns:svg="http://www.w3.org/2000/svg"
  xmlns="http://www.w3.org/2000/svg"
  xmlns:xlink="http://www.w3.org/1999/xlink"
  version="1.1"
  width="6.794500cm" height="5.184140cm" viewBox="0 0 26750 20410">
<title>SVG Picture created as penrosedart-brd.svg date 2021/01/22 11:53:38 </title>
  <desc>Picture generated by PCBNEW </desc>
<g style="fill:#000000; fill-opacity:1;stroke:#000000; stroke-opacity:1;
stroke-linecap:round; stroke-linejoin:round;"
 transform="translate(0 0) scale(1 1)">
</g>
<g style="fill:#000000; fill-opacity:0.0; 
stroke:#000000; stroke-width:-0.000393701; stroke-opacity:1; 
stroke-linecap:round; stroke-linejoin:round;">
<g >
</g>
<g style="fill:#000000; fill-opacity:1.0; 
stroke:#000000; stroke-width:0; stroke-opacity:1; 
stroke-linecap:round; stroke-linejoin:round;">
<circle cx="10003.6" cy="3265.29" r="334.646" /> 
<circle cx="10812.6" cy="3853.07" r="334.646" /> 
<path style="fill:#000000; fill-opacity:1.0; 
stroke:#000000; stroke-width:0; stroke-opacity:1; 
stroke-linecap:round; stroke-linejoin:round;fill-rule:evenodd;"
d="M 11547.6,3973.42
12089,4366.82
11695.7,4908.29
11154.2,4514.89
Z" /> 
</g>
<g >
</g>
<g style="fill:#000000; fill-opacity:1.0; 
stroke:#000000; stroke-width:0; stroke-opacity:1; 
stroke-linecap:round; stroke-linejoin:round;">
<circle cx="23605.3" cy="4656.11" r="413.386" /> 
</g>
<g style="fill:#000000; fill-opacity:1.0; 
stroke:#000000; stroke-width:39.3701; stroke-opacity:1; 
stroke-linecap:round; stroke-linejoin:round;">
</g>
<g >
</g>
<g style="fill:#000000; fill-opacity:1.0; 
stroke:#000000; stroke-width:39.3701; stroke-opacity:1; 
stroke-linecap:round; stroke-linejoin:round;">
</g>
<g style="fill:#000000; fill-opacity:1.0; 
stroke:#000000; stroke-width:0; stroke-opacity:1; 
stroke-linecap:round; stroke-linejoin:round;">
<circle cx="20605.3" cy="14506.1" r="413.386" /> 
</g>
<g style="fill:#000000; fill-opacity:1.0; 
stroke:#000000; stroke-width:39.3701; stroke-opacity:1; 
stroke-linecap:round; stroke-linejoin:round;">
</g>
<g >
</g>
<g style="fill:#000000; fill-opacity:1.0; 
stroke:#000000; stroke-width:39.3701; stroke-opacity:1; 
stroke-linecap:round; stroke-linejoin:round;">
</g>
<g style="fill:#000000; fill-opacity:1.0; 
stroke:#000000; stroke-width:0; stroke-opacity:1; 
stroke-linecap:round; stroke-linejoin:round;">
<circle cx="12055.3" cy="2656.11" r="413.386" /> 
</g>
<g style="fill:#000000; fill-opacity:1.0; 
stroke:#000000; stroke-width:39.3701; stroke-opacity:1; 
stroke-linecap:round; stroke-linejoin:round;">
</g>
<g >
</g>
<g style="fill:#000000; fill-opacity:1.0; 
stroke:#000000; stroke-width:39.3701; stroke-opacity:1; 
stroke-linecap:round; stroke-linejoin:round;">
</g>
<g style="fill:#000000; fill-opacity:1.0; 
stroke:#000000; stroke-width:0; stroke-opacity:1; 
stroke-linecap:round; stroke-linejoin:round;">
<circle cx="23455.3" cy="3356.11" r="226.378" /> 
</g>
<g style="fill:#000000; fill-opacity:1.0; 
stroke:#000000; stroke-width:39.3701; stroke-opacity:1; 
stroke-linecap:round; stroke-linejoin:round;">
</g>
<g >
</g>
<g style="fill:#000000; fill-opacity:1.0; 
stroke:#000000; stroke-width:39.3701; stroke-opacity:1; 
stroke-linecap:round; stroke-linejoin:round;">
</g>
<g style="fill:#000000; fill-opacity:1.0; 
stroke:#000000; stroke-width:0; stroke-opacity:1; 
stroke-linecap:round; stroke-linejoin:round;">
<path style="fill:#000000; fill-opacity:1.0; 
stroke:#000000; stroke-width:0; stroke-opacity:1; 
stroke-linecap:round; stroke-linejoin:round;fill-rule:evenodd;"
d="M 13095.7,3990.74
13105.1,3992.53
13114.4,3995.24
13123.4,3998.85
13131.9,4003.32
13140,4008.61
13442.6,4228.45
13450.1,4234.5
13457,4241.27
13463.2,4248.67
13468.7,4256.65
13473.3,4265.12
13477.1,4274.01
13480,4283.23
13482,4292.68
13483,4302.28
13483.1,4311.94
13482.2,4321.56
13480.5,4331.05
13477.7,4340.32
13474.1,4349.28
13469.7,4357.85
13464.4,4365.93
13308.2,4580.92
13302.1,4588.45
13295.4,4595.35
13288,4601.55
13280,4606.99
13271.5,4611.63
13262.6,4615.41
13253.4,4618.31
13243.9,4620.29
13234.3,4621.33
13224.7,4621.42
13215.1,4620.57
13205.6,4618.78
13196.3,4616.06
13187.3,4612.46
13178.8,4607.99
13170.7,4602.7
12868.1,4382.86
12860.6,4376.8
12853.7,4370.04
12847.5,4362.64
12842,4354.66
12837.4,4346.18
12833.6,4337.3
12830.7,4328.08
12828.8,4318.63
12827.7,4309.03
12827.6,4299.37
12828.5,4289.75
12830.3,4280.25
12833,4270.98
12836.6,4262.02
12841,4253.46
12846.3,4245.38
13002.5,4030.38
13008.6,4022.86
13015.4,4015.96
13022.8,4009.76
13030.7,4004.32
13039.2,3999.68
13048.1,3995.89
13057.3,3993
13066.8,3991.02
13076.4,3989.98
13086,3989.89
Z" /> 
<path style="fill:#000000; fill-opacity:1.0; 
stroke:#000000; stroke-width:0; stroke-opacity:1; 
stroke-linecap:round; stroke-linejoin:round;fill-rule:evenodd;"
d="M 12615.5,4651.65
12625,4653.44
12634.2,4656.15
12643.2,4659.76
12651.8,4664.23
12659.8,4669.52
12962.4,4889.36
12970,4895.41
12976.8,4902.18
12983,4909.58
12988.5,4917.56
12993.1,4926.03
12996.9,4934.92
12999.8,4944.14
13001.8,4953.59
13002.8,4963.19
13002.9,4972.85
13002.1,4982.47
13000.3,4991.96
12997.6,5001.23
12994,5010.19
12989.5,5018.76
12984.2,5026.84
12828,5241.83
12821.9,5249.36
12815.2,5256.26
12807.8,5262.46
12799.8,5267.9
12791.3,5272.54
12782.4,5276.32
12773.2,5279.22
12763.8,5281.19
12754.2,5282.24
12744.5,5282.33
12734.9,5281.48
12725.4,5279.69
12716.1,5276.97
12707.2,5273.37
12698.6,5268.9
12690.5,5263.61
12387.9,5043.77
12380.4,5037.71
12373.5,5030.95
12367.3,5023.55
12361.9,5015.57
12357.2,5007.09
12353.4,4998.21
12350.5,4988.99
12348.6,4979.54
12347.5,4969.94
12347.4,4960.28
12348.3,4950.66
12350.1,4941.16
12352.8,4931.89
12356.4,4922.93
12360.9,4914.37
12366.2,4906.29
12522.4,4691.29
12528.4,4683.77
12535.2,4676.87
12542.6,4670.67
12550.6,4665.22
12559,4660.59
12567.9,4656.8
12577.1,4653.91
12586.6,4651.93
12596.2,4650.89
12605.9,4650.8
Z" /> 
</g>
<g >
</g>
<g style="fill:#000000; fill-opacity:1.0; 
stroke:#000000; stroke-width:0; stroke-opacity:1; 
stroke-linecap:round; stroke-linejoin:round;">
<path style="fill:#000000; fill-opacity:1.0; 
stroke:#000000; stroke-width:0; stroke-opacity:1; 
stroke-linecap:round; stroke-linejoin:round;fill-rule:evenodd;"
d="M 22096.7,8235.67
22106.3,8237.28
22115.6,8239.81
22368.3,8321.93
22377.3,8325.36
22386,8329.66
22394.2,8334.79
22401.8,8340.69
22408.9,8347.32
22415.2,8354.6
22420.8,8362.47
22425.6,8370.85
22429.6,8379.66
22432.6,8388.82
22434.8,8398.23
22436,8407.81
22436.3,8417.47
22435.6,8427.11
22434,8436.63
22431.5,8445.95
22315.9,8801.66
22312.5,8810.69
22308.2,8819.34
22303.1,8827.53
22297.2,8835.17
22290.5,8842.2
22283.3,8848.54
22275.4,8854.14
22267,8858.94
22258.2,8862.9
22249,8865.98
22239.6,8868.14
22230,8869.37
22220.4,8869.65
22210.8,8868.99
22201.2,8867.39
22191.9,8864.85
21939.2,8782.73
21930.1,8779.3
21921.5,8775
21913.3,8769.87
21905.7,8763.97
21898.6,8757.34
21892.3,8750.06
21886.7,8742.19
21881.9,8733.81
21877.9,8725
21874.9,8715.84
21872.7,8706.43
21871.5,8696.85
21871.2,8687.19
21871.8,8677.56
21873.4,8668.03
21876,8658.71
21991.6,8303
21995,8293.97
21999.3,8285.32
22004.4,8277.14
22010.3,8269.49
22016.9,8262.47
22024.2,8256.12
22032.1,8250.52
22040.5,8245.72
22049.3,8241.76
22058.4,8238.69
22067.9,8236.52
22077.4,8235.29
22087.1,8235.01
Z" /> 
<path style="fill:#000000; fill-opacity:1.0; 
stroke:#000000; stroke-width:0; stroke-opacity:1; 
stroke-linecap:round; stroke-linejoin:round;fill-rule:evenodd;"
d="M 21319.8,7983.23
21329.3,7984.83
21338.6,7987.36
21591.4,8069.48
21600.4,8072.92
21609,8077.22
21617.2,8082.34
21624.9,8088.25
21631.9,8094.87
21638.3,8102.16
21643.9,8110.03
21648.7,8118.41
21652.6,8127.22
21655.7,8136.38
21657.8,8145.79
21659.1,8155.37
21659.4,8165.02
21658.7,8174.66
21657.1,8184.19
21654.6,8193.51
21539,8549.22
21535.6,8558.25
21531.3,8566.89
21526.1,8575.08
21520.2,8582.72
21513.6,8589.75
21506.3,8596.1
21498.4,8601.7
21490.1,8606.5
21481.3,8610.46
21472.1,8613.53
21462.7,8615.69
21453.1,8616.92
21443.4,8617.21
21433.8,8616.54
21424.3,8614.94
21415,8612.41
21162.2,8530.29
21153.2,8526.86
21144.5,8522.56
21136.4,8517.43
21128.7,8511.52
21121.7,8504.9
21115.3,8497.62
21109.7,8489.75
21104.9,8481.37
21101,8472.55
21097.9,8463.4
21095.7,8453.98
21094.5,8444.4
21094.2,8434.75
21094.9,8425.11
21096.5,8415.59
21099,8406.27
21214.6,8050.56
21218,8041.53
21222.3,8032.88
21227.5,8024.69
21233.4,8017.05
21240,8010.02
21247.3,8003.68
21255.1,7998.08
21263.5,7993.27
21272.3,7989.32
21281.5,7986.24
21290.9,7984.08
21300.5,7982.85
21310.1,7982.56
Z" /> 
</g>
<g >
</g>
<g style="fill:#000000; fill-opacity:1.0; 
stroke:#000000; stroke-width:0; stroke-opacity:1; 
stroke-linecap:round; stroke-linejoin:round;">
<path style="fill:#000000; fill-opacity:1.0; 
stroke:#000000; stroke-width:0; stroke-opacity:1; 
stroke-linecap:round; stroke-linejoin:round;fill-rule:evenodd;"
d="M 18360,9002.85
18369.6,9004.08
18379,9006.24
18388.2,9009.32
18397,9013.27
18405.4,9018.08
18413.3,9023.68
18420.5,9030.02
18427.2,9037.05
18433.1,9044.69
18438.2,9052.88
18442.5,9061.53
18445.9,9070.56
18561.5,9426.27
18564,9435.59
18565.6,9445.11
18566.3,9454.75
18566,9464.4
18564.8,9473.98
18562.6,9483.4
18559.6,9492.55
18555.6,9501.37
18550.8,9509.75
18545.2,9517.62
18538.9,9524.9
18531.8,9531.52
18524.2,9537.43
18516,9542.56
18507.3,9546.86
18498.3,9550.29
18245.6,9632.41
18236.3,9634.94
18226.7,9636.54
18217.1,9637.21
18207.4,9636.92
18197.9,9635.69
18188.4,9633.53
18179.3,9630.46
18170.5,9626.5
18162.1,9621.7
18154.2,9616.1
18146.9,9609.75
18140.3,9602.72
18134.4,9595.08
18129.3,9586.89
18125,9578.25
18121.6,9569.22
18006,9213.51
18003.4,9204.19
18001.8,9194.66
18001.2,9185.02
18001.5,9175.37
18002.7,9165.79
18004.9,9156.38
18007.9,9147.22
18011.9,9138.41
18016.7,9130.03
18022.3,9122.16
18028.6,9114.87
18035.7,9108.25
18043.3,9102.34
18051.5,9097.22
18060.1,9092.92
18069.2,9089.48
18321.9,9007.36
18331.2,9004.83
18340.8,9003.23
18350.4,9002.56
Z" /> 
<path style="fill:#000000; fill-opacity:1.0; 
stroke:#000000; stroke-width:0; stroke-opacity:1; 
stroke-linecap:round; stroke-linejoin:round;fill-rule:evenodd;"
d="M 17583.1,9255.29
17592.7,9256.52
17602.1,9258.69
17611.3,9261.76
17620.1,9265.72
17628.4,9270.52
17636.3,9276.12
17643.6,9282.47
17650.2,9289.49
17656.1,9297.14
17661.3,9305.32
17665.6,9313.97
17669,9323
17784.6,9678.71
17787.1,9688.03
17788.7,9697.56
17789.4,9707.19
17789.1,9716.85
17787.8,9726.43
17785.7,9735.84
17782.6,9745
17778.7,9753.81
17773.9,9762.19
17768.3,9770.06
17761.9,9777.34
17754.9,9783.97
17747.2,9789.87
17739,9795
17730.4,9799.3
17721.4,9802.73
17468.6,9884.85
17459.3,9887.39
17449.8,9888.99
17440.1,9889.65
17430.5,9889.37
17420.9,9888.14
17411.5,9885.98
17402.3,9882.9
17393.5,9878.94
17385.1,9874.14
17377.3,9868.54
17370,9862.2
17363.4,9855.17
17357.5,9847.53
17352.3,9839.34
17348,9830.69
17344.6,9821.66
17229,9465.95
17226.5,9456.63
17224.9,9447.11
17224.2,9437.47
17224.5,9427.81
17225.7,9418.23
17227.9,9408.82
17231,9399.66
17234.9,9390.85
17239.7,9382.47
17245.3,9374.6
17251.7,9367.32
17258.7,9360.69
17266.4,9354.79
17274.5,9349.66
17283.2,9345.36
17292.2,9341.93
17545,9259.81
17554.3,9257.28
17563.8,9255.67
17573.4,9255.01
Z" /> 
</g>
<g >
</g>
<g style="fill:#000000; fill-opacity:1.0; 
stroke:#000000; stroke-width:0; stroke-opacity:1; 
stroke-linecap:round; stroke-linejoin:round;">
<path style="fill:#000000; fill-opacity:1.0; 
stroke:#000000; stroke-width:0; stroke-opacity:1; 
stroke-linecap:round; stroke-linejoin:round;fill-rule:evenodd;"
d="M 18151.9,3083.75
18161.5,3085.17
18170.8,3087.51
18179.9,3090.77
18188.7,3094.9
18197,3099.86
18204.7,3105.62
18211.9,3112.1
18218.4,3119.26
18224.1,3127.02
18229.1,3135.3
18233.2,3144.03
18236.5,3153.13
18238.8,3162.5
18240.2,3172.05
18240.7,3181.7
18240.7,3447.45
18240.2,3457.09
18238.8,3466.65
18236.5,3476.02
18233.2,3485.11
18229.1,3493.84
18224.1,3502.13
18218.4,3509.89
18211.9,3517.04
18204.7,3523.53
18197,3529.29
18188.7,3534.25
18179.9,3538.38
18170.8,3541.63
18161.5,3543.98
18151.9,3545.4
18142.3,3545.87
17768.3,3545.87
17758.6,3545.4
17749.1,3543.98
17739.7,3541.63
17730.6,3538.38
17721.9,3534.25
17713.6,3529.29
17705.8,3523.53
17698.7,3517.04
17692.2,3509.89
17686.4,3502.13
17681.5,3493.84
17677.3,3485.11
17674.1,3476.02
17671.7,3466.65
17670.3,3457.09
17669.8,3447.45
17669.8,3181.7
17670.3,3172.05
17671.7,3162.5
17674.1,3153.13
17677.3,3144.03
17681.5,3135.3
17686.4,3127.02
17692.2,3119.26
17698.7,3112.1
17705.8,3105.62
17713.6,3099.86
17721.9,3094.9
17730.6,3090.77
17739.7,3087.51
17749.1,3085.17
17758.6,3083.75
17768.3,3083.27
18142.3,3083.27
Z" /> 
<path style="fill:#000000; fill-opacity:1.0; 
stroke:#000000; stroke-width:0; stroke-opacity:1; 
stroke-linecap:round; stroke-linejoin:round;fill-rule:evenodd;"
d="M 18151.9,2266.82
18161.5,2268.24
18170.8,2270.58
18179.9,2273.84
18188.7,2277.97
18197,2282.93
18204.7,2288.69
18211.9,2295.17
18218.4,2302.33
18224.1,2310.09
18229.1,2318.37
18233.2,2327.1
18236.5,2336.2
18238.8,2345.57
18240.2,2355.12
18240.7,2364.77
18240.7,2630.52
18240.2,2640.17
18238.8,2649.72
18236.5,2659.09
18233.2,2668.18
18229.1,2676.92
18224.1,2685.2
18218.4,2692.96
18211.9,2700.12
18204.7,2706.6
18197,2712.36
18188.7,2717.32
18179.9,2721.45
18170.8,2724.71
18161.5,2727.05
18151.9,2728.47
18142.3,2728.94
17768.3,2728.94
17758.6,2728.47
17749.1,2727.05
17739.7,2724.71
17730.6,2721.45
17721.9,2717.32
17713.6,2712.36
17705.8,2706.6
17698.7,2700.12
17692.2,2692.96
17686.4,2685.2
17681.5,2676.92
17677.3,2668.18
17674.1,2659.09
17671.7,2649.72
17670.3,2640.17
17669.8,2630.52
17669.8,2364.77
17670.3,2355.12
17671.7,2345.57
17674.1,2336.2
17677.3,2327.1
17681.5,2318.37
17686.4,2310.09
17692.2,2302.33
17698.7,2295.17
17705.8,2288.69
17713.6,2282.93
17721.9,2277.97
17730.6,2273.84
17739.7,2270.58
17749.1,2268.24
17758.6,2266.82
17768.3,2266.35
18142.3,2266.35
Z" /> 
</g>
<g >
</g>
<g style="fill:#000000; fill-opacity:1.0; 
stroke:#000000; stroke-width:0; stroke-opacity:1; 
stroke-linecap:round; stroke-linejoin:round;">
<path style="fill:#000000; fill-opacity:1.0; 
stroke:#000000; stroke-width:0; stroke-opacity:1; 
stroke-linecap:round; stroke-linejoin:round;fill-rule:evenodd;"
d="M 15003.1,7023
14771.7,7341.51
14293.9,6994.39
14525.3,6675.88
Z" /> 
<path style="fill:#000000; fill-opacity:1.0; 
stroke:#000000; stroke-width:0; stroke-opacity:1; 
stroke-linecap:round; stroke-linejoin:round;fill-rule:evenodd;"
d="M 15743.6,6003.77
15512.2,6322.28
15034.4,5975.16
15265.8,5656.65
Z" /> 
<path style="fill:#000000; fill-opacity:1.0; 
stroke:#000000; stroke-width:0; stroke-opacity:1; 
stroke-linecap:round; stroke-linejoin:round;fill-rule:evenodd;"
d="M 13442.4,5889.08
13211,6207.59
12733.2,5860.48
12964.6,5541.97
Z" /> 
<path style="fill:#000000; fill-opacity:1.0; 
stroke:#000000; stroke-width:0; stroke-opacity:1; 
stroke-linecap:round; stroke-linejoin:round;fill-rule:evenodd;"
d="M 14182.9,4869.85
13951.5,5188.36
13473.7,4841.24
13705.1,4522.73
Z" /> 
</g>
<g >
</g>
<g style="fill:#000000; fill-opacity:1.0; 
stroke:#000000; stroke-width:0; stroke-opacity:1; 
stroke-linecap:round; stroke-linejoin:round;">
<path style="fill:#000000; fill-opacity:1.0; 
stroke:#000000; stroke-width:0; stroke-opacity:1; 
stroke-linecap:round; stroke-linejoin:round;fill-rule:evenodd;"
d="M 21624.9,7222.56
21999.3,7344.22
21816.8,7905.87
21442.4,7784.21
Z" /> 
<path style="fill:#000000; fill-opacity:1.0; 
stroke:#000000; stroke-width:0; stroke-opacity:1; 
stroke-linecap:round; stroke-linejoin:round;fill-rule:evenodd;"
d="M 22823,7611.87
23197.5,7733.53
23015,8295.18
22640.5,8173.52
Z" /> 
<path style="fill:#000000; fill-opacity:1.0; 
stroke:#000000; stroke-width:0; stroke-opacity:1; 
stroke-linecap:round; stroke-linejoin:round;fill-rule:evenodd;"
d="M 22221,5387.84
22595.4,5509.5
22412.9,6071.15
22038.5,5949.49
Z" /> 
<path style="fill:#000000; fill-opacity:1.0; 
stroke:#000000; stroke-width:0; stroke-opacity:1; 
stroke-linecap:round; stroke-linejoin:round;fill-rule:evenodd;"
d="M 23419.2,5777.16
23793.6,5898.82
23611.1,6460.47
23236.7,6338.81
Z" /> 
</g>
<g >
</g>
<g style="fill:#000000; fill-opacity:1.0; 
stroke:#000000; stroke-width:0; stroke-opacity:1; 
stroke-linecap:round; stroke-linejoin:round;">
<path style="fill:#000000; fill-opacity:1.0; 
stroke:#000000; stroke-width:0; stroke-opacity:1; 
stroke-linecap:round; stroke-linejoin:round;fill-rule:evenodd;"
d="M 18748,10441.5
18373.6,10563.2
18191.1,10001.5
18565.5,9879.85
Z" /> 
<path style="fill:#000000; fill-opacity:1.0; 
stroke:#000000; stroke-width:0; stroke-opacity:1; 
stroke-linecap:round; stroke-linejoin:round;fill-rule:evenodd;"
d="M 17549.8,10830.8
17175.4,10952.5
16992.9,10390.8
17367.4,10269.2
Z" /> 
<path style="fill:#000000; fill-opacity:1.0; 
stroke:#000000; stroke-width:0; stroke-opacity:1; 
stroke-linecap:round; stroke-linejoin:round;fill-rule:evenodd;"
d="M 19344.2,12276.2
18969.7,12397.9
18787.2,11836.2
19161.7,11714.6
Z" /> 
<path style="fill:#000000; fill-opacity:1.0; 
stroke:#000000; stroke-width:0; stroke-opacity:1; 
stroke-linecap:round; stroke-linejoin:round;fill-rule:evenodd;"
d="M 18146,12665.5
17771.6,12787.2
17589.1,12225.5
17963.5,12103.9
Z" /> 
</g>
<g >
</g>
<g style="fill:#000000; fill-opacity:1.0; 
stroke:#000000; stroke-width:0; stroke-opacity:1; 
stroke-linecap:round; stroke-linejoin:round;">
<path style="fill:#000000; fill-opacity:1.0; 
stroke:#000000; stroke-width:0; stroke-opacity:1; 
stroke-linecap:round; stroke-linejoin:round;fill-rule:evenodd;"
d="M 21145.4,3521.63
21145.4,3915.33
20554.8,3915.33
20554.8,3521.63
Z" /> 
<path style="fill:#000000; fill-opacity:1.0; 
stroke:#000000; stroke-width:0; stroke-opacity:1; 
stroke-linecap:round; stroke-linejoin:round;fill-rule:evenodd;"
d="M 21145.4,2261.79
21145.4,2655.49
20554.8,2655.49
20554.8,2261.79
Z" /> 
<path style="fill:#000000; fill-opacity:1.0; 
stroke:#000000; stroke-width:0; stroke-opacity:1; 
stroke-linecap:round; stroke-linejoin:round;fill-rule:evenodd;"
d="M 19216.2,3521.63
19216.2,3915.33
18625.7,3915.33
18625.7,3521.63
Z" /> 
<path style="fill:#000000; fill-opacity:1.0; 
stroke:#000000; stroke-width:0; stroke-opacity:1; 
stroke-linecap:round; stroke-linejoin:round;fill-rule:evenodd;"
d="M 19216.2,2261.79
19216.2,2655.49
18625.7,2655.49
18625.7,2261.79
Z" /> 
</g>
<g >
</g>
<g style="fill:#000000; fill-opacity:1.0; 
stroke:#000000; stroke-width:0; stroke-opacity:1; 
stroke-linecap:round; stroke-linejoin:round;">
<path style="fill:#000000; fill-opacity:1.0; 
stroke:#000000; stroke-width:0; stroke-opacity:1; 
stroke-linecap:round; stroke-linejoin:round;fill-rule:evenodd;"
d="M 21406,10923.6
21612.8,10287.1
22249.4,10493.9
22042.5,11130.4
Z" /> 
<circle cx="21518.7" cy="11659.8" r="334.646" /> 
<circle cx="21209.6" cy="12610.9" r="334.646" /> 
</g>
<g >
</g>
<g style="fill:#000000; fill-opacity:1.0; 
stroke:#000000; stroke-width:0; stroke-opacity:1; 
stroke-linecap:round; stroke-linejoin:round;">
<path style="fill:#000000; fill-opacity:1.0; 
stroke:#000000; stroke-width:0; stroke-opacity:1; 
stroke-linecap:round; stroke-linejoin:round;fill-rule:evenodd;"
d="M 18563.9,14705.1
18357.1,14068.6
18993.6,13861.8
19200.4,14498.3
Z" /> 
<circle cx="19087.8" cy="15234.5" r="334.646" /> 
<circle cx="19396.8" cy="16185.5" r="334.646" /> 
</g>
<g >
</g>
<g style="fill:#000000; fill-opacity:1.0; 
stroke:#000000; stroke-width:0; stroke-opacity:1; 
stroke-linecap:round; stroke-linejoin:round;">
<circle cx="13964" cy="2644.83" r="334.646" /> 
<circle cx="14964" cy="2644.83" r="334.646" /> 
<path style="fill:#000000; fill-opacity:1.0; 
stroke:#000000; stroke-width:0; stroke-opacity:1; 
stroke-linecap:round; stroke-linejoin:round;fill-rule:evenodd;"
d="M 15629.3,2310.18
16298.6,2310.18
16298.6,2979.47
15629.3,2979.47
Z" /> 
</g>
<g >
</g>
<g style="fill:#000000; fill-opacity:1.0; 
stroke:#000000; stroke-width:0; stroke-opacity:1; 
stroke-linecap:round; stroke-linejoin:round;">
<path style="fill:#000000; fill-opacity:1.0; 
stroke:#000000; stroke-width:0; stroke-opacity:1; 
stroke-linecap:round; stroke-linejoin:round;fill-rule:evenodd;"
d="M 19991,8501.52
20338.1,8979.29
20019.6,9210.7
19672.5,8732.93
Z" /> 
<path style="fill:#000000; fill-opacity:1.0; 
stroke:#000000; stroke-width:0; stroke-opacity:1; 
stroke-linecap:round; stroke-linejoin:round;fill-rule:evenodd;"
d="M 19764.6,9395.64
19756.8,9401.31
19740.1,9411.08
19722.6,9419.17
19704.3,9425.5
19685.6,9430.01
19666.4,9432.65
19647.1,9433.41
19627.8,9432.28
19608.8,9429.25
19590.1,9424.38
19571.9,9417.69
19554.6,9409.26
19538.1,9399.17
19522.7,9387.51
19508.5,9374.39
19495.7,9359.95
19490,9352.14
19489.8,9352.28
19374.1,9193.02
19374.3,9192.88
19368.6,9185.07
19358.8,9168.4
19350.8,9150.86
19344.4,9132.61
19339.9,9113.82
19337.3,9094.69
19336.5,9075.38
19337.6,9056.1
19340.7,9037.02
19345.5,9018.33
19352.2,9000.2
19360.7,8982.82
19370.8,8966.35
19382.4,8950.95
19395.5,8936.76
19410,8923.93
19417.8,8918.25
19417.6,8918.06
19592.8,8790.78
19939.9,9268.55
19764.8,9395.83
Z" /> 
<path style="fill:#000000; fill-opacity:1.0; 
stroke:#000000; stroke-width:0; stroke-opacity:1; 
stroke-linecap:round; stroke-linejoin:round;fill-rule:evenodd;"
d="M 20070.6,8443.67
20245.8,8316.39
20245.9,8316.58
20253.7,8310.91
20270.4,8301.14
20287.9,8293.05
20306.2,8286.72
20325,8282.21
20344.1,8279.56
20363.4,8278.81
20382.7,8279.94
20401.8,8282.96
20420.5,8287.84
20438.6,8294.53
20456,8302.96
20472.4,8313.05
20487.8,8324.71
20502,8337.83
20514.9,8352.27
20520.5,8360.08
20520.7,8359.94
20636.4,8519.2
20636.2,8519.34
20641.9,8527.15
20651.7,8543.82
20659.8,8561.36
20666.1,8579.61
20670.6,8598.4
20673.3,8617.53
20674,8636.83
20672.9,8656.12
20669.9,8675.2
20665,8693.89
20658.3,8712.01
20649.9,8729.4
20639.8,8745.87
20628.1,8761.27
20615,8775.46
20600.6,8788.29
20592.8,8793.97
20592.9,8794.16
20417.7,8921.43
Z" /> 
</g>
<g >
</g>
<g style="fill:#000000; fill-opacity:1.0; 
stroke:#000000; stroke-width:0; stroke-opacity:1; 
stroke-linecap:round; stroke-linejoin:round;">
<path style="fill:#000000; fill-opacity:1.0; 
stroke:#000000; stroke-width:0; stroke-opacity:1; 
stroke-linecap:round; stroke-linejoin:round;fill-rule:evenodd;"
d="M 17320.6,4643.67
17495.8,4516.39
17495.9,4516.58
17503.7,4510.91
17520.4,4501.14
17537.9,4493.05
17556.2,4486.72
17575,4482.21
17594.1,4479.56
17613.4,4478.81
17632.7,4479.94
17651.8,4482.96
17670.5,4487.84
17688.6,4494.53
17706,4502.96
17722.4,4513.05
17737.8,4524.71
17752,4537.83
17764.9,4552.27
17770.5,4560.08
17770.7,4559.94
17886.4,4719.2
17886.2,4719.34
17891.9,4727.15
17901.7,4743.82
17909.8,4761.36
17916.1,4779.61
17920.6,4798.4
17923.3,4817.53
17924,4836.83
17922.9,4856.12
17919.9,4875.2
17915,4893.89
17908.3,4912.01
17899.9,4929.4
17889.8,4945.87
17878.1,4961.27
17865,4975.46
17850.6,4988.29
17842.8,4993.97
17842.9,4994.16
17667.7,5121.43
Z" /> 
<path style="fill:#000000; fill-opacity:1.0; 
stroke:#000000; stroke-width:0; stroke-opacity:1; 
stroke-linecap:round; stroke-linejoin:round;fill-rule:evenodd;"
d="M 17014.6,5595.64
17006.8,5601.31
16990.1,5611.08
16972.6,5619.17
16954.3,5625.5
16935.6,5630.01
16916.4,5632.65
16897.1,5633.41
16877.8,5632.28
16858.8,5629.25
16840.1,5624.38
16821.9,5617.69
16804.6,5609.26
16788.1,5599.17
16772.7,5587.51
16758.5,5574.39
16745.7,5559.95
16740,5552.14
16739.8,5552.28
16624.1,5393.02
16624.3,5392.88
16618.6,5385.07
16608.8,5368.4
16600.8,5350.86
16594.4,5332.61
16589.9,5313.82
16587.3,5294.69
16586.5,5275.38
16587.6,5256.1
16590.7,5237.02
16595.5,5218.33
16602.2,5200.2
16610.7,5182.82
16620.8,5166.35
16632.4,5150.95
16645.5,5136.76
16660,5123.93
16667.8,5118.25
16667.6,5118.06
16842.8,4990.78
17189.9,5468.55
17014.8,5595.83
Z" /> 
<path style="fill:#000000; fill-opacity:1.0; 
stroke:#000000; stroke-width:0; stroke-opacity:1; 
stroke-linecap:round; stroke-linejoin:round;fill-rule:evenodd;"
d="M 17241,4701.52
17588.1,5179.29
17269.6,5410.7
16922.5,4932.93
Z" /> 
</g>
<g >
</g>
<g style="fill:#000000; fill-opacity:1.0; 
stroke:#000000; stroke-width:0; stroke-opacity:1; 
stroke-linecap:round; stroke-linejoin:round;">
<path style="fill:#000000; fill-opacity:1.0; 
stroke:#000000; stroke-width:0; stroke-opacity:1; 
stroke-linecap:round; stroke-linejoin:round;fill-rule:evenodd;"
d="M 18747,4994.52
19097.4,4739.96
19548.6,5361.06
19198.3,5615.61
Z" /> 
<path style="fill:#000000; fill-opacity:1.0; 
stroke:#000000; stroke-width:0; stroke-opacity:1; 
stroke-linecap:round; stroke-linejoin:round;fill-rule:evenodd;"
d="M 17950.7,5573.04
18301.1,5318.49
18752.3,5939.59
18402,6194.14
Z" /> 
<path style="fill:#000000; fill-opacity:1.0; 
stroke:#000000; stroke-width:0; stroke-opacity:1; 
stroke-linecap:round; stroke-linejoin:round;fill-rule:evenodd;"
d="M 17154.4,6151.57
17504.8,5897.02
17956.1,6518.12
17605.7,6772.67
Z" /> 
<path style="fill:#000000; fill-opacity:1.0; 
stroke:#000000; stroke-width:0; stroke-opacity:1; 
stroke-linecap:round; stroke-linejoin:round;fill-rule:evenodd;"
d="M 20054.5,6794.1
20404.8,6539.55
20856.1,7160.64
20505.7,7415.2
Z" /> 
<path style="fill:#000000; fill-opacity:1.0; 
stroke:#000000; stroke-width:0; stroke-opacity:1; 
stroke-linecap:round; stroke-linejoin:round;fill-rule:evenodd;"
d="M 19258.2,7372.63
19608.6,7118.08
20059.8,7739.17
19709.5,7993.73
Z" /> 
<path style="fill:#000000; fill-opacity:1.0; 
stroke:#000000; stroke-width:0; stroke-opacity:1; 
stroke-linecap:round; stroke-linejoin:round;fill-rule:evenodd;"
d="M 18461.9,7951.16
18812.3,7696.61
19263.5,8317.7
18913.2,8572.25
Z" /> 
</g>
<g >
</g>
<g >
</g>
<g >
</g>
</g>
<g style="fill:#000000; fill-opacity:1.0; 
stroke:#000000; stroke-width:0; stroke-opacity:1; 
stroke-linecap:round; stroke-linejoin:round;">
</g>
<g style="fill:#000000; fill-opacity:0.0; 
stroke:#000000; stroke-width:0; stroke-opacity:1; 
stroke-linecap:round; stroke-linejoin:round;">
</g>
<g style="fill:#000000; fill-opacity:0.0; 
stroke:#000000; stroke-width:59.0551; stroke-opacity:1; 
stroke-linecap:round; stroke-linejoin:round;">
<g transform="rotate(-72 20755.3 11256.1)">
<text x="20755.3" y="11453"
textLength="2255.34" font-size="524.934" lengthAdjust="spacingAndGlyphs"
text-anchor="middle" opacity="0">data in</text>
</g>
<path d="M20675 12077
L20301 11956
" />
<path d="M20657 12072
L20663 12113
L20640 12184
L20611 12214
L20587 12226
L20546 12232
L20439 12198
L20409 12168
L20397 12145
L20391 12103
L20414 12032
L20443 12002
" />
<path d="M20785 11739
L20589 11675
L20548 11681
L20518 11711
L20495 11782
L20501 11824
" />
<path d="M20767 11733
L20774 11774
L20745 11863
L20715 11893
L20674 11899
L20638 11888
L20608 11858
L20602 11817
L20631 11728
L20625 11686
" />
<path d="M20576 11533
L20622 11390
" />
<path d="M20469 11439
L20790 11543
L20831 11537
L20860 11507
L20872 11471
" />
<path d="M20965 11186
L20769 11122
L20727 11128
L20698 11158
L20675 11230
L20681 11271
" />
<path d="M20947 11180
L20953 11221
L20924 11311
L20895 11341
L20853 11347
L20818 11335
L20788 11306
L20782 11264
L20810 11175
L20804 11134
" />
<path d="M21115 10722
L20866 10641
" />
<path d="M20741 10601
L20753 10624
L20777 10612
L20765 10589
L20741 10601
L20777 10612
" />
<path d="M20924 10463
L21173 10544
" />
<path d="M20959 10474
L20947 10451
L20941 10409
L20958 10356
L20988 10326
L21029 10320
L21225 10383
" />
<g transform="rotate(36 11505.3 3196.11)">
<text x="11505.3" y="3392.96"
textLength="2214" font-size="524.934" lengthAdjust="spacingAndGlyphs"
text-anchor="middle" opacity="0">data in</text>
</g>
<path d="M10748 2866
L10979 2547
" />
<path d="M10759 2851
L10718 2844
L10657 2800
L10638 2763
L10633 2736
L10640 2695
L10706 2604
L10744 2585
L10770 2581
L10811 2587
L10872 2631
L10891 2669
" />
<path d="M11036 3075
L11157 2908
L11164 2867
L11145 2830
L11084 2786
L11043 2779
" />
<path d="M11047 3060
L11006 3053
L10930 2998
L10911 2961
L10917 2920
L10939 2889
L10977 2870
L11018 2877
L11094 2932
L11135 2939
" />
<path d="M11297 2940
L11418 3028
" />
<path d="M11419 2867
L11221 3140
L11214 3181
L11233 3218
L11264 3241
" />
<path d="M11506 3417
L11627 3250
L11634 3209
L11615 3171
L11554 3127
L11513 3120
" />
<path d="M11517 3402
L11476 3395
L11400 3340
L11381 3302
L11388 3261
L11410 3231
L11447 3211
L11488 3218
L11564 3273
L11605 3280
" />
<path d="M11901 3703
L12055 3491
" />
<path d="M12132 3385
L12106 3389
L12110 3415
L12136 3411
L12132 3385
L12110 3415
" />
<path d="M12207 3601
L12052 3814
" />
<path d="M12185 3632
L12211 3627
L12252 3634
L12298 3667
L12317 3705
L12310 3746
L12189 3913
" />
<g transform="rotate(-180 14955.3 3506.11)">
<text x="14955.3" y="3702.96"
textLength="2607.71" font-size="524.934" lengthAdjust="spacingAndGlyphs"
text-anchor="middle" opacity="0">data out</text>
</g>
<path d="M15958 3328
L15958 3721
" />
<path d="M15958 3346
L15995 3328
L16070 3328
L16108 3346
L16126 3365
L16145 3402
L16145 3515
L16126 3552
L16108 3571
L16070 3590
L15995 3590
L15958 3571
" />
<path d="M15602 3328
L15602 3534
L15620 3571
L15658 3590
L15733 3590
L15770 3571
" />
<path d="M15602 3346
L15639 3328
L15733 3328
L15770 3346
L15789 3384
L15789 3421
L15770 3459
L15733 3477
L15639 3477
L15602 3496
" />
<path d="M15470 3590
L15320 3590
" />
<path d="M15414 3721
L15414 3384
L15395 3346
L15358 3328
L15320 3328
" />
<path d="M15020 3328
L15020 3534
L15039 3571
L15077 3590
L15152 3590
L15189 3571
" />
<path d="M15020 3346
L15058 3328
L15152 3328
L15189 3346
L15208 3384
L15208 3421
L15189 3459
L15152 3477
L15058 3477
L15020 3496
" />
<path d="M14477 3328
L14514 3346
L14533 3365
L14552 3402
L14552 3515
L14533 3552
L14514 3571
L14477 3590
L14420 3590
L14383 3571
L14364 3552
L14345 3515
L14345 3402
L14364 3365
L14383 3346
L14420 3328
L14477 3328
" />
<path d="M14008 3590
L14008 3328
" />
<path d="M14177 3590
L14177 3384
L14158 3346
L14120 3328
L14064 3328
L14027 3346
L14008 3365
" />
<path d="M13877 3590
L13727 3590
" />
<path d="M13821 3721
L13821 3384
L13802 3346
L13764 3328
L13727 3328
" />
<g transform="rotate(-288 20175.3 15456.1)">
<text x="20175.3" y="15653"
textLength="2607.71" font-size="524.934" lengthAdjust="spacingAndGlyphs"
text-anchor="middle" opacity="0">data out</text>
</g>
<path d="M19695 14557
L20070 14435
" />
<path d="M19713 14551
L19684 14521
L19661 14450
L19667 14408
L19679 14385
L19709 14355
L19816 14321
L19857 14327
L19881 14339
L19910 14369
L19933 14440
L19927 14481
" />
<path d="M19806 14896
L20002 14832
L20032 14802
L20038 14761
L20015 14690
L19985 14660
" />
<path d="M19823 14890
L19794 14860
L19765 14771
L19771 14729
L19801 14700
L19837 14688
L19878 14694
L19908 14724
L19937 14814
L19966 14843
" />
<path d="M20096 14939
L20142 15082
" />
<path d="M20238 14952
L19917 15056
L19887 15086
L19881 15127
L19892 15163
" />
<path d="M19985 15448
L20181 15385
L20211 15355
L20217 15314
L20194 15242
L20165 15212
" />
<path d="M20003 15442
L19974 15413
L19945 15323
L19951 15282
L19981 15253
L20016 15241
L20058 15247
L20087 15277
L20116 15366
L20146 15396
" />
<path d="M20153 15965
L20159 15924
L20171 15900
L20201 15871
L20308 15836
L20350 15842
L20373 15854
L20403 15884
L20420 15938
L20414 15979
L20402 16003
L20372 16032
L20265 16067
L20224 16061
L20200 16049
L20170 16019
L20153 15965
" />
<path d="M20548 16330
L20298 16411
" />
<path d="M20495 16169
L20299 16233
L20269 16263
L20263 16304
L20281 16358
L20310 16387
L20334 16399
" />
<path d="M20588 16455
L20634 16597
" />
<path d="M20730 16468
L20409 16572
L20380 16601
L20373 16643
L20385 16679
" />
</g>
<g style="fill:#000000; fill-opacity:0.0; 
stroke:#000000; stroke-width:147.638; stroke-opacity:1; 
stroke-linecap:round; stroke-linejoin:round;">
<g transform="rotate(-198 19685.3 17196.1)">
<text x="19685.3" y="17589.8"
textLength="676.697" font-size="1049.87" lengthAdjust="spacingAndGlyphs"
text-anchor="middle" opacity="0">T</text>
</g>
<path d="M20032 17536
L19604 17675
" />
<path d="M19575 16857
L19818 17606
" />
<g transform="rotate(-54 9015.27 2546.11)">
<text x="9015.27" y="2939.81"
textLength="866.845" font-size="1049.87" lengthAdjust="spacingAndGlyphs"
text-anchor="middle" opacity="0">A</text>
</g>
<path d="M9011 2774
L9231 2471
" />
<path d="M9149 2967
L8666 2292
L9457 2543
" />
<g transform="rotate(-162 20905.3 13556.1)">
<text x="20905.3" y="13949.8"
textLength="979.331" font-size="1049.87" lengthAdjust="spacingAndGlyphs"
text-anchor="middle" opacity="0">G</text>
</g>
<path d="M20587 13866
L20647 13925
L20754 13960
L20872 13959
L20967 13911
L21026 13851
L21108 13720
L21142 13613
L21153 13459
L21141 13376
L21092 13281
L20997 13211
L20926 13188
L20807 13189
L20760 13213
L20679 13462
L20821 13509
" />
<g transform="rotate(-90 12955.3 2656.11)">
<text x="12955.3" y="3049.81"
textLength="979.331" font-size="1049.87" lengthAdjust="spacingAndGlyphs"
text-anchor="middle" opacity="0">C</text>
</g>
<path d="M13236 2412
L13273 2449
L13311 2562
L13311 2637
L13273 2749
L13198 2824
L13123 2862
L12974 2899
L12861 2899
L12711 2862
L12636 2824
L12561 2749
L12524 2637
L12524 2562
L12561 2449
L12599 2412
" />
</g>
<g style="fill:#000000; fill-opacity:0.0; 
stroke:#000000; stroke-width:98.4252; stroke-opacity:1; 
stroke-linecap:round; stroke-linejoin:round;">
<path d="M18305.3 1656.11 A7500 7500 0.0 0 0 23462.8 8780.9" />
<path d="M17405.3 13206.1 A4632.76 4632.76 0.0 1 0 12195.9 6098.72" />
</g>
<g style="fill:#000000; fill-opacity:0.0; 
stroke:#000000; stroke-width:47.2441; stroke-opacity:1; 
stroke-linecap:round; stroke-linejoin:round;">
<path d="M12045 4748
L11737 5172
" />
<path d="M11737 5172
L11313 4864
" />
<path d="M10909 4570
L9272 3381
" />
<path d="M9887 2533
L9272 3381
" />
<path d="M11524 3723
L9887 2533
" />
<path d="M11524 3723
L10909 4570
" />
<path d="M13088 4889
L13209 4722
" />
<path d="M12620 4549
L12741 4382
" />
<path d="M21773 8733
L21578 8669
" />
<path d="M21952 8182
L21756 8119
" />
<path d="M17886 9753
L18082 9689
" />
<path d="M17708 9202
L17903 9139
" />
<path d="M17665 3008
L17665 2803
" />
<path d="M18244 3008
L18244 2803
" />
<path d="M13712 4211
L13446 4577
" />
<path d="M16037 5900
L13712 4211
" />
<path d="M14764 7652
L12439 5963
" />
<path d="M24091 5809
L23203 8542
" />
<path d="M22032 5140
L21144 7873
" />
<path d="M21144 7873
L21574 8013
" />
<path d="M17582 13034
L16694 10301
" />
<path d="M19642 12365
L18754 9632
" />
<path d="M18754 9632
L18323 9772
" />
<path d="M18448 2005
L18448 2458
" />
<path d="M21322 2005
L18448 2005
" />
<path d="M21322 4171
L18448 4171
" />
<path d="M21175 11022
L22171 11346
" />
<path d="M21175 11022
L20549 12947
" />
<path d="M20549 12947
L21545 13270
" />
<path d="M22171 11346
L21545 13270
" />
<path d="M22487 10372
L22325 10870
" />
<path d="M21989 10210
L22487 10372
" />
<path d="M18435 14920
L19431 14597
" />
<path d="M18435 14920
L19060 16845
" />
<path d="M19060 16845
L20056 16521
" />
<path d="M19431 14597
L20056 16521
" />
<path d="M19114 13623
L19276 14121
" />
<path d="M18616 13785
L19114 13623
" />
<path d="M16487 2644
L16487 3168
" />
<path d="M16487 3168
L15963 3168
" />
<path d="M15463 3168
L13440 3168
" />
<path d="M13440 2121
L13440 3168
" />
<path d="M15463 2121
L13440 2121
" />
<path d="M15463 2121
L15463 3168
" />
<path d="M20682 8850
L19790 9498
" />
<path d="M19421 9426
L19282 9234
" />
<path d="M19327 8861
L20219 8213
" />
<path d="M20588 8286
L20727 8477
" />
<path d="M20109 8196
L20135 8031
" />
<path d="M20135 8031
L19944 8170
" />
<path d="M20109 8196
L19944 8170
" />
<path d="M20666.7 8862.21 A275.591 275.591 0.0 0 0 20727.6 8477.27" />
<path d="M20588.8 8286.16 A275.591 275.591 0.0 0 0 20203.8 8225.19" />
<path d="M19343.9 8850 A275.591 275.591 0.0 0 0 19282.9 9234.95" />
<path d="M19421.7 9426.06 A275.591 275.591 0.0 0 0 19806.7 9487.03" />
<path d="M17359 4396
L17194 4370
" />
<path d="M17385 4231
L17194 4370
" />
<path d="M17359 4396
L17385 4231
" />
<path d="M17838 4486
L17977 4677
" />
<path d="M16577 5061
L17469 4413
" />
<path d="M16671 5626
L16532 5434
" />
<path d="M17932 5050
L17040 5698
" />
<path d="M16671.7 5626.06 A275.591 275.591 0.0 0 0 17056.7 5687.03" />
<path d="M16593.9 5050 A275.591 275.591 0.0 0 0 16532.9 5434.95" />
<path d="M17838.8 4486.16 A275.591 275.591 0.0 0 0 17453.8 4425.19" />
<path d="M17916.7 5062.21 A275.591 275.591 0.0 0 0 17977.6 4677.27" />
</g>
<g style="fill:#000000; fill-opacity:0.0; 
stroke:#000000; stroke-width:78.7402; stroke-opacity:1; 
stroke-linecap:round; stroke-linejoin:round;">
<circle cx="19608.2" cy="4806.78" r="88.0343" /> 
</g>
<g style="fill:#000000; fill-opacity:0.0; 
stroke:#000000; stroke-width:47.2441; stroke-opacity:1; 
stroke-linecap:round; stroke-linejoin:round;">
<path d="M17955 8392
L18114 8276
" />
<path d="M17029 7118
L17955 8392
" />
<path d="M17188 7002
L17029 7118
" />
<path d="M20981 6193
L20901 6251
" />
<path d="M20171 5079
L20981 6193
" />
<path d="M20055 4919
L20171 5079
" />
<path d="M19896 5035
L20055 4919
" />
</g>
<g style="fill:#000000; fill-opacity:0.0; 
stroke:#000000; stroke-width:59.0551; stroke-opacity:1; 
stroke-linecap:round; stroke-linejoin:round;">
<g transform="rotate(-54 11965.3 5456.11)">
<text x="11965.3" y="5652.96"
textLength="866.845" font-size="524.934" lengthAdjust="spacingAndGlyphs"
text-anchor="middle" opacity="0">J1</text>
</g>
<path d="M11713 5435
L11941 5600
L11975 5649
L11983 5701
L11966 5757
L11944 5788
" />
<path d="M12263 5348
L12131 5530
" />
<path d="M12197 5439
L11879 5208
L11902 5271
L11910 5323
L11903 5365
" />
<text x="22695.3" y="4222.96"
textLength="1464.1" font-size="524.934" lengthAdjust="spacingAndGlyphs"
text-anchor="middle" opacity="0">M2.1</text>
<path d="M22095 4204
L22095 3810
L22226 4091
L22357 3810
L22357 4204
" />
<path d="M22526 3848
L22545 3829
L22582 3810
L22676 3810
L22714 3829
L22732 3848
L22751 3885
L22751 3922
L22732 3979
L22507 4204
L22751 4204
" />
<path d="M22920 4166
L22938 4185
L22920 4204
L22901 4185
L22920 4166
L22920 4204
" />
<path d="M23313 4204
L23088 4204
" />
<path d="M23201 4204
L23201 3810
L23163 3866
L23126 3904
L23088 3922
" />
<g transform="rotate(-90 20705.3 15656.1)">
<text x="20705.3" y="15853"
textLength="376.734" font-size="524.934" lengthAdjust="spacingAndGlyphs"
text-anchor="middle" opacity="0"> </text>
</g>
<text x="11215.3" y="2182.96"
textLength="1464.1" font-size="524.934" lengthAdjust="spacingAndGlyphs"
text-anchor="middle" opacity="0">M2.1</text>
<path d="M10615 2164
L10615 1770
L10746 2051
L10877 1770
L10877 2164
" />
<path d="M11046 1808
L11065 1789
L11102 1770
L11196 1770
L11234 1789
L11252 1808
L11271 1845
L11271 1882
L11252 1939
L11027 2164
L11271 2164
" />
<path d="M11440 2126
L11458 2145
L11440 2164
L11421 2145
L11440 2126
L11440 2164
" />
<path d="M11833 2164
L11608 2164
" />
<path d="M11721 2164
L11721 1770
L11683 1826
L11646 1864
L11608 1882
" />
<text x="23494.6" y="2962.41"
textLength="939.164" font-size="524.934" lengthAdjust="spacingAndGlyphs"
text-anchor="middle" opacity="0">MH</text>
<path d="M23157 2943
L23157 2549
L23288 2831
L23419 2549
L23419 2943
" />
<path d="M23607 2943
L23607 2549
" />
<path d="M23607 2737
L23832 2737
" />
<path d="M23832 2943
L23832 2549
" />
<g transform="rotate(36 13245.3 3616.11)">
<text x="13245.3" y="3812.96"
textLength="845.426" font-size="524.934" lengthAdjust="spacingAndGlyphs"
text-anchor="middle" opacity="0">C1</text>
</g>
<path d="M13109 3691
L13083 3695
L13026 3677
L12996 3655
L12962 3607
L12953 3554
L12960 3513
L12989 3441
L13022 3396
L13081 3346
L13119 3327
L13171 3319
L13227 3337
L13258 3359
L13292 3407
L13296 3433
" />
<path d="M13390 3942
L13208 3809
" />
<path d="M13299 3875
L13531 3557
L13467 3580
L13415 3589
L13374 3582
" />
<g transform="rotate(18 21560.9 9055.15)">
<text x="21560.9" y="9252"
textLength="845.426" font-size="524.934" lengthAdjust="spacingAndGlyphs"
text-anchor="middle" opacity="0">C2</text>
</g>
<path d="M21455 9168
L21431 9180
L21372 9181
L21336 9169
L21288 9134
L21264 9087
L21258 9045
L21263 8968
L21281 8914
L21322 8849
L21351 8819
L21398 8795
L21458 8795
L21493 8806
L21541 8841
L21553 8865
" />
<path d="M21696 8911
L21719 8899
L21761 8893
L21850 8922
L21880 8951
L21892 8975
L21898 9017
L21886 9052
L21851 9100
L21568 9244
L21800 9320
" />
<g transform="rotate(72 16865.3 9766.11)">
<text x="16865.3" y="9962.96"
textLength="845.426" font-size="524.934" lengthAdjust="spacingAndGlyphs"
text-anchor="middle" opacity="0">C3</text>
</g>
<path d="M16711 9747
L16687 9735
L16652 9687
L16640 9651
L16641 9592
L16665 9545
L16695 9515
L16760 9474
L16814 9457
L16891 9452
L16932 9458
L16980 9482
L17015 9530
L17026 9565
L17026 9625
L17014 9648
" />
<path d="M17090 9761
L17165 9993
L16982 9915
L17000 9968
L16993 10010
L16981 10033
L16951 10063
L16862 10092
L16821 10085
L16797 10073
L16768 10044
L16733 9937
L16739 9895
L16751 9871
" />
<text x="17905.3" y="4152.96"
textLength="845.426" font-size="524.934" lengthAdjust="spacingAndGlyphs"
text-anchor="middle" opacity="0">C4</text>
<path d="M17839 4096
L17820 4115
L17764 4134
L17727 4134
L17670 4115
L17633 4077
L17614 4040
L17595 3965
L17595 3909
L17614 3834
L17633 3796
L17670 3759
L17727 3740
L17764 3740
L17820 3759
L17839 3778
" />
<path d="M18177 3871
L18177 4134
" />
<path d="M18083 3721
L17989 4002
L18233 4002
" />
<g transform="rotate(36 15605.3 7116.11)">
<text x="15605.3" y="7312.96"
textLength="845.426" font-size="524.934" lengthAdjust="spacingAndGlyphs"
text-anchor="middle" opacity="0">D1</text>
</g>
<path d="M15265 7089
L15496 6770
L15572 6825
L15607 6874
L15615 6926
L15608 6967
L15579 7039
L15546 7085
L15487 7134
L15450 7154
L15397 7162
L15341 7144
L15265 7089
" />
<path d="M15750 7442
L15568 7309
" />
<path d="M15659 7375
L15891 7057
L15827 7080
L15775 7089
L15734 7082
" />
<g transform="rotate(-72 21295.3 6576.11)">
<text x="21295.3" y="6772.96"
textLength="845.426" font-size="524.934" lengthAdjust="spacingAndGlyphs"
text-anchor="middle" opacity="0">D2</text>
</g>
<path d="M21374 6907
L21000 6785
L21029 6696
L21064 6649
L21111 6624
L21153 6618
L21230 6624
L21283 6641
L21349 6682
L21379 6711
L21403 6759
L21403 6818
L21374 6907
" />
<path d="M21151 6440
L21139 6417
L21133 6375
L21162 6286
L21192 6256
L21215 6244
L21257 6238
L21292 6250
L21340 6285
L21484 6568
L21560 6336
" />
<g transform="rotate(72 19455.3 10906.1)">
<text x="19455.3" y="11103"
textLength="845.426" font-size="524.934" lengthAdjust="spacingAndGlyphs"
text-anchor="middle" opacity="0">D3</text>
</g>
<path d="M19196 10684
L19570 10563
L19599 10652
L19599 10711
L19574 10758
L19545 10788
L19479 10829
L19426 10846
L19348 10851
L19307 10845
L19260 10821
L19225 10773
L19196 10684
" />
<path d="M19680 10901
L19755 11133
L19572 11055
L19590 11108
L19583 11150
L19571 11173
L19541 11203
L19452 11232
L19411 11225
L19387 11213
L19358 11184
L19323 11077
L19329 11035
L19341 11011
" />
<text x="20255.3" y="4663.37"
textLength="845.426" font-size="524.934" lengthAdjust="spacingAndGlyphs"
text-anchor="middle" opacity="0">D4</text>
<path d="M19964 4644
L19964 4250
L20058 4250
L20114 4269
L20152 4307
L20170 4344
L20189 4419
L20189 4475
L20170 4550
L20152 4588
L20114 4625
L20058 4644
L19964 4644
" />
<path d="M20527 4382
L20527 4644
" />
<path d="M20433 4232
L20339 4513
L20583 4513
" />
<g transform="rotate(18 22164.7 9671.56)">
<text x="22164.7" y="9868.41"
textLength="751.687" font-size="524.934" lengthAdjust="spacingAndGlyphs"
text-anchor="middle" opacity="0">J2</text>
</g>
<path d="M22106 9425
L22019 9693
L21984 9741
L21937 9765
L21877 9765
L21842 9754
" />
<path d="M22255 9513
L22278 9501
L22320 9495
L22409 9524
L22439 9553
L22451 9577
L22457 9618
L22446 9654
L22410 9702
L22127 9846
L22359 9922
" />
<g transform="rotate(72 19725.3 13746.1)">
<text x="19725.3" y="13943"
textLength="751.687" font-size="524.934" lengthAdjust="spacingAndGlyphs"
text-anchor="middle" opacity="0">J3</text>
</g>
<path d="M19889 13554
L19622 13641
L19563 13641
L19515 13617
L19480 13569
L19468 13533
" />
<path d="M19936 13697
L20011 13929
L19828 13850
L19845 13904
L19839 13945
L19827 13969
L19797 13998
L19708 14027
L19666 14021
L19643 14009
L19613 13979
L19579 13872
L19585 13831
L19597 13807
" />
<g transform="rotate(-90 17054.5 2644.83)">
<text x="17054.5" y="2841.68"
textLength="751.687" font-size="524.934" lengthAdjust="spacingAndGlyphs"
text-anchor="middle" opacity="0">J4</text>
</g>
<path d="M16838 2776
L17120 2776
L17176 2794
L17213 2832
L17232 2888
L17232 2926
" />
<path d="M16970 2419
L17232 2419
" />
<path d="M16820 2513
L17101 2607
L17101 2363
" />
<g transform="rotate(-36 19905.3 9756.11)">
<text x="19905.3" y="9952.96"
textLength="1145.39" font-size="524.934" lengthAdjust="spacingAndGlyphs"
text-anchor="middle" opacity="0">JP1</text>
</g>
<path d="M19513 9774
L19678 10002
L19696 10058
L19688 10110
L19653 10159
L19623 10181
" />
<path d="M19896 9982
L19664 9664
L19786 9576
L19827 9569
L19853 9573
L19890 9592
L19923 9638
L19930 9679
L19926 9705
L19907 9743
L19786 9831
" />
<path d="M20381 9630
L20199 9762
" />
<path d="M20290 9696
L20059 9377
L20061 9445
L20053 9497
L20034 9534
" />
<g transform="rotate(-36 16455.3 4806.11)">
<text x="16455.3" y="5002.96"
textLength="1145.39" font-size="524.934" lengthAdjust="spacingAndGlyphs"
text-anchor="middle" opacity="0">JP2</text>
</g>
<path d="M16063 4824
L16228 5052
L16246 5108
L16238 5160
L16203 5209
L16173 5231
" />
<path d="M16446 5032
L16214 4714
L16336 4626
L16377 4619
L16403 4623
L16440 4642
L16473 4688
L16480 4729
L16476 4755
L16457 4793
L16336 4881
" />
<path d="M16540 4524
L16544 4498
L16563 4460
L16639 4405
L16680 4398
L16707 4403
L16744 4422
L16766 4452
L16784 4509
L16734 4823
L16931 4680
" />
<g transform="rotate(54 20872.8 5542.6)">
<text x="20872.8" y="5739.45"
textLength="1276.62" font-size="524.934" lengthAdjust="spacingAndGlyphs"
text-anchor="middle" opacity="0">SW1</text>
</g>
<path d="M20435 5211
L20453 5268
L20508 5343
L20545 5363
L20571 5367
L20613 5360
L20643 5338
L20662 5301
L20666 5275
L20659 5233
L20631 5162
L20624 5120
L20628 5094
L20647 5057
L20677 5035
L20719 5028
L20745 5032
L20782 5051
L20837 5127
L20855 5184
" />
<path d="M20948 5279
L20684 5586
L20956 5481
L20772 5707
L21146 5552
" />
<path d="M21037 6071
L20905 5889
" />
<path d="M20971 5980
L21289 5749
L21222 5752
L21169 5743
L21132 5724
" />
<g >
</g>
</g>
<g style="fill:#000000; fill-opacity:0.0; 
stroke:#000000; stroke-width:59.0551; stroke-opacity:1; 
stroke-linecap:round; stroke-linejoin:round;">
</g>
<g style="fill:#000000; fill-opacity:0.0; 
stroke:#000000; stroke-width:78.7402; stroke-opacity:1; 
stroke-linecap:round; stroke-linejoin:round;">
<path d="M19721 20368
L25805 1656
" />
<path d="M15963 8807
L19721 20368
" />
<path d="M6122 1666
L15963 8807
" />
<path d="M25805 1656
L6122 1666
" />
<g >
</g>
<g >
</g>
<g >
</g>
<g >
</g>
<g >
</g>
<g >
</g>
<g >
</g>
<g >
</g>
<g >
</g>
<g >
</g>
<g >
</g>
<g >
</g>
<g >
</g>
<g >
</g>
<g >
</g>
<g >
</g>
<g >
</g>
<g >
</g>
<g >
</g>
<g >
</g>
</g> 
</svg>
