<?xml version="1.0" standalone="no"?>
 <!DOCTYPE svg PUBLIC "-//W3C//DTD SVG 1.1//EN" 
 "http://www.w3.org/Graphics/SVG/1.1/DTD/svg11.dtd"> 
<svg
  xmlns:svg="http://www.w3.org/2000/svg"
  xmlns="http://www.w3.org/2000/svg"
  xmlns:xlink="http://www.w3.org/1999/xlink"
  version="1.1"
  width="5.864860cm" height="4.742180cm" viewBox="0 0 23090 18670">
<title>SVG Picture created as penroserombus_thick_40mm-brd.svg date 2021/01/21 17:00:22 </title>
  <desc>Picture generated by PCBNEW </desc>
<g style="fill:#000000; fill-opacity:1;stroke:#000000; stroke-opacity:1;
stroke-linecap:round; stroke-linejoin:round;"
 transform="translate(0 0) scale(1 1)">
</g>
<g style="fill:#000000; fill-opacity:0.0; 
stroke:#000000; stroke-width:-0.000393701; stroke-opacity:1; 
stroke-linecap:round; stroke-linejoin:round;">
<g >
</g>
<g style="fill:#000000; fill-opacity:1.0; 
stroke:#000000; stroke-width:0; stroke-opacity:1; 
stroke-linecap:round; stroke-linejoin:round;">
<circle cx="9174.95" cy="3431.96" r="413.386" /> 
</g>
<g style="fill:#000000; fill-opacity:1.0; 
stroke:#000000; stroke-width:39.3701; stroke-opacity:1; 
stroke-linecap:round; stroke-linejoin:round;">
</g>
<g >
</g>
<g style="fill:#000000; fill-opacity:1.0; 
stroke:#000000; stroke-width:39.3701; stroke-opacity:1; 
stroke-linecap:round; stroke-linejoin:round;">
</g>
<g style="fill:#000000; fill-opacity:1.0; 
stroke:#000000; stroke-width:0; stroke-opacity:1; 
stroke-linecap:round; stroke-linejoin:round;">
<circle cx="19943.3" cy="3048.78" r="413.386" /> 
</g>
<g style="fill:#000000; fill-opacity:1.0; 
stroke:#000000; stroke-width:39.3701; stroke-opacity:1; 
stroke-linecap:round; stroke-linejoin:round;">
</g>
<g >
</g>
<g style="fill:#000000; fill-opacity:1.0; 
stroke:#000000; stroke-width:39.3701; stroke-opacity:1; 
stroke-linecap:round; stroke-linejoin:round;">
</g>
<g style="fill:#000000; fill-opacity:1.0; 
stroke:#000000; stroke-width:0; stroke-opacity:1; 
stroke-linecap:round; stroke-linejoin:round;">
<circle cx="13919.4" cy="14865.9" r="413.386" /> 
</g>
<g style="fill:#000000; fill-opacity:1.0; 
stroke:#000000; stroke-width:39.3701; stroke-opacity:1; 
stroke-linecap:round; stroke-linejoin:round;">
</g>
<g >
</g>
<g style="fill:#000000; fill-opacity:1.0; 
stroke:#000000; stroke-width:39.3701; stroke-opacity:1; 
stroke-linecap:round; stroke-linejoin:round;">
</g>
<g style="fill:#000000; fill-opacity:1.0; 
stroke:#000000; stroke-width:0; stroke-opacity:1; 
stroke-linecap:round; stroke-linejoin:round;">
<circle cx="15599.5" cy="14726.5" r="226.378" /> 
</g>
<g style="fill:#000000; fill-opacity:1.0; 
stroke:#000000; stroke-width:39.3701; stroke-opacity:1; 
stroke-linecap:round; stroke-linejoin:round;">
</g>
<g >
</g>
<g style="fill:#000000; fill-opacity:1.0; 
stroke:#000000; stroke-width:39.3701; stroke-opacity:1; 
stroke-linecap:round; stroke-linejoin:round;">
</g>
<g style="fill:#000000; fill-opacity:1.0; 
stroke:#000000; stroke-width:0; stroke-opacity:1; 
stroke-linecap:round; stroke-linejoin:round;">
<circle cx="7494.83" cy="3571.37" r="226.378" /> 
</g>
<g style="fill:#000000; fill-opacity:1.0; 
stroke:#000000; stroke-width:39.3701; stroke-opacity:1; 
stroke-linecap:round; stroke-linejoin:round;">
</g>
<g >
</g>
<g style="fill:#000000; fill-opacity:1.0; 
stroke:#000000; stroke-width:39.3701; stroke-opacity:1; 
stroke-linecap:round; stroke-linejoin:round;">
</g>
<g style="fill:#000000; fill-opacity:1.0; 
stroke:#000000; stroke-width:0; stroke-opacity:1; 
stroke-linecap:round; stroke-linejoin:round;">
<circle cx="3151.01" cy="15249.1" r="413.386" /> 
</g>
<g style="fill:#000000; fill-opacity:1.0; 
stroke:#000000; stroke-width:39.3701; stroke-opacity:1; 
stroke-linecap:round; stroke-linejoin:round;">
</g>
<g >
</g>
<g style="fill:#000000; fill-opacity:1.0; 
stroke:#000000; stroke-width:39.3701; stroke-opacity:1; 
stroke-linecap:round; stroke-linejoin:round;">
</g>
<g style="fill:#000000; fill-opacity:1.0; 
stroke:#000000; stroke-width:0; stroke-opacity:1; 
stroke-linecap:round; stroke-linejoin:round;">
<path style="fill:#000000; fill-opacity:1.0; 
stroke:#000000; stroke-width:0; stroke-opacity:1; 
stroke-linecap:round; stroke-linejoin:round;fill-rule:evenodd;"
d="M 6842.03,10804.1
6851.55,10805.7
6860.88,10808.3
7113.62,10890.4
7122.65,10893.8
7131.3,10898.1
7139.48,10903.2
7147.13,10909.1
7154.15,10915.8
7160.5,10923.1
7166.1,10930.9
7170.9,10939.3
7174.86,10948.1
7177.93,10957.3
7180.1,10966.7
7181.32,10976.3
7181.61,10985.9
7180.95,10995.6
7179.34,11005.1
7176.81,11014.4
7061.23,11370.1
7057.8,11379.1
7053.5,11387.8
7048.37,11396
7042.47,11403.6
7035.84,11410.6
7028.56,11417
7020.69,11422.6
7012.31,11427.4
7003.5,11431.4
6994.34,11434.4
6984.93,11436.6
6975.35,11437.8
6965.69,11438.1
6956.06,11437.4
6946.53,11435.8
6937.21,11433.3
6684.47,11351.2
6675.44,11347.8
6666.79,11343.5
6658.61,11338.3
6650.96,11332.4
6643.93,11325.8
6637.59,11318.5
6631.99,11310.6
6627.19,11302.3
6623.23,11293.5
6620.15,11284.3
6617.99,11274.9
6616.76,11265.3
6616.48,11255.6
6617.14,11246
6618.75,11236.5
6621.28,11227.2
6736.85,10871.5
6740.29,10862.4
6744.59,10853.8
6749.71,10845.6
6755.62,10837.9
6762.24,10830.9
6769.53,10824.6
6777.4,10819
6785.78,10814.2
6794.59,10810.2
6803.74,10807.1
6813.16,10805
6822.74,10803.7
6832.39,10803.5
Z" /> 
<path style="fill:#000000; fill-opacity:1.0; 
stroke:#000000; stroke-width:0; stroke-opacity:1; 
stroke-linecap:round; stroke-linejoin:round;fill-rule:evenodd;"
d="M 6065.08,10551.7
6074.61,10553.3
6083.93,10555.8
6336.67,10637.9
6345.7,10641.4
6354.35,10645.7
6362.54,10650.8
6370.18,10656.7
6377.21,10663.3
6383.55,10670.6
6389.15,10678.5
6393.96,10686.9
6397.91,10695.7
6400.99,10704.8
6403.15,10714.2
6404.38,10723.8
6404.66,10733.5
6404,10743.1
6402.4,10752.6
6399.87,10762
6284.29,11117.7
6280.86,11126.7
6276.56,11135.3
6271.43,11143.5
6265.52,11151.2
6258.9,11158.2
6251.61,11164.5
6243.75,11170.1
6235.36,11175
6226.55,11178.9
6217.4,11182
6207.98,11184.1
6198.4,11185.4
6188.75,11185.7
6179.11,11185
6169.59,11183.4
6160.27,11180.9
5907.52,11098.7
5898.49,11095.3
5889.85,11091
5881.66,11085.9
5874.02,11080
5866.99,11073.3
5860.64,11066.1
5855.04,11058.2
5850.24,11049.8
5846.28,11041
5843.21,11031.8
5841.05,11022.4
5839.82,11012.9
5839.53,11003.2
5840.2,10993.6
5841.8,10984
5844.33,10974.7
5959.91,10619
5963.34,10610
5967.64,10601.3
5972.77,10593.1
5978.67,10585.5
5985.3,10578.5
5992.58,10572.1
6000.45,10566.5
6008.83,10561.7
6017.64,10557.8
6026.8,10554.7
6036.21,10552.5
6045.79,10551.3
6055.45,10551
Z" /> 
</g>
<g >
</g>
<g style="fill:#000000; fill-opacity:1.0; 
stroke:#000000; stroke-width:0; stroke-opacity:1; 
stroke-linecap:round; stroke-linejoin:round;">
<path style="fill:#000000; fill-opacity:1.0; 
stroke:#000000; stroke-width:0; stroke-opacity:1; 
stroke-linecap:round; stroke-linejoin:round;fill-rule:evenodd;"
d="M 8757.23,13122.2
8766.78,13123.6
8776.15,13126
8785.24,13129.2
8793.98,13133.3
8802.26,13138.3
8810.02,13144.1
8817.18,13150.6
8823.66,13157.7
8829.42,13165.5
8834.38,13173.8
8838.51,13182.5
8841.77,13191.6
8844.11,13200.9
8845.53,13210.5
8846,13220.1
8846,13485.9
8845.53,13495.5
8844.11,13505.1
8841.77,13514.5
8838.51,13523.6
8834.38,13532.3
8829.42,13540.6
8823.66,13548.3
8817.18,13555.5
8810.02,13562
8802.26,13567.7
8793.98,13572.7
8785.24,13576.8
8776.15,13580.1
8766.78,13582.4
8757.23,13583.8
8747.58,13584.3
8373.56,13584.3
8363.92,13583.8
8354.36,13582.4
8344.99,13580.1
8335.9,13576.8
8327.17,13572.7
8318.88,13567.7
8311.12,13562
8303.97,13555.5
8297.48,13548.3
8291.73,13540.6
8286.76,13532.3
8282.63,13523.6
8279.38,13514.5
8277.03,13505.1
8275.61,13495.5
8275.14,13485.9
8275.14,13220.1
8275.61,13210.5
8277.03,13200.9
8279.38,13191.6
8282.63,13182.5
8286.76,13173.8
8291.73,13165.5
8297.48,13157.7
8303.97,13150.6
8311.12,13144.1
8318.88,13138.3
8327.17,13133.3
8335.9,13129.2
8344.99,13126
8354.36,13123.6
8363.92,13122.2
8373.56,13121.7
8747.58,13121.7
Z" /> 
<path style="fill:#000000; fill-opacity:1.0; 
stroke:#000000; stroke-width:0; stroke-opacity:1; 
stroke-linecap:round; stroke-linejoin:round;fill-rule:evenodd;"
d="M 8757.23,12305.3
8766.78,12306.7
8776.15,12309
8785.24,12312.3
8793.98,12316.4
8802.26,12321.4
8810.02,12327.1
8817.18,12333.6
8823.66,12340.8
8829.42,12348.5
8834.38,12356.8
8838.51,12365.6
8841.77,12374.6
8844.11,12384
8845.53,12393.6
8846,12403.2
8846,12669
8845.53,12678.6
8844.11,12688.2
8841.77,12697.5
8838.51,12706.6
8834.38,12715.4
8829.42,12723.7
8823.66,12731.4
8817.18,12738.6
8810.02,12745.1
8802.26,12750.8
8793.98,12755.8
8785.24,12759.9
8776.15,12763.2
8766.78,12765.5
8757.23,12766.9
8747.58,12767.4
8373.56,12767.4
8363.92,12766.9
8354.36,12765.5
8344.99,12763.2
8335.9,12759.9
8327.17,12755.8
8318.88,12750.8
8311.12,12745.1
8303.97,12738.6
8297.48,12731.4
8291.73,12723.7
8286.76,12715.4
8282.63,12706.6
8279.38,12697.5
8277.03,12688.2
8275.61,12678.6
8275.14,12669
8275.14,12403.2
8275.61,12393.6
8277.03,12384
8279.38,12374.6
8282.63,12365.6
8286.76,12356.8
8291.73,12348.5
8297.48,12340.8
8303.97,12333.6
8311.12,12327.1
8318.88,12321.4
8327.17,12316.4
8335.9,12312.3
8344.99,12309
8354.36,12306.7
8363.92,12305.3
8373.56,12304.8
8747.58,12304.8
Z" /> 
</g>
<g >
</g>
<g style="fill:#000000; fill-opacity:1.0; 
stroke:#000000; stroke-width:0; stroke-opacity:1; 
stroke-linecap:round; stroke-linejoin:round;">
<path style="fill:#000000; fill-opacity:1.0; 
stroke:#000000; stroke-width:0; stroke-opacity:1; 
stroke-linecap:round; stroke-linejoin:round;fill-rule:evenodd;"
d="M 12403.9,7649.51
12053.6,7904.06
11602.3,7282.97
11952.7,7028.41
Z" /> 
<path style="fill:#000000; fill-opacity:1.0; 
stroke:#000000; stroke-width:0; stroke-opacity:1; 
stroke-linecap:round; stroke-linejoin:round;fill-rule:evenodd;"
d="M 11607.6,8228.04
11257.3,8482.59
10806,7861.5
11156.4,7606.94
Z" /> 
<path style="fill:#000000; fill-opacity:1.0; 
stroke:#000000; stroke-width:0; stroke-opacity:1; 
stroke-linecap:round; stroke-linejoin:round;fill-rule:evenodd;"
d="M 10811.4,8806.57
10461,9061.12
10009.7,8440.02
10360.1,8185.47
Z" /> 
<path style="fill:#000000; fill-opacity:1.0; 
stroke:#000000; stroke-width:0; stroke-opacity:1; 
stroke-linecap:round; stroke-linejoin:round;fill-rule:evenodd;"
d="M 13711.4,9449.09
13361,9703.65
12909.8,9082.55
13260.1,8828
Z" /> 
<path style="fill:#000000; fill-opacity:1.0; 
stroke:#000000; stroke-width:0; stroke-opacity:1; 
stroke-linecap:round; stroke-linejoin:round;fill-rule:evenodd;"
d="M 12915.1,10027.6
12564.8,10282.2
12113.5,9661.08
12463.9,9406.53
Z" /> 
<path style="fill:#000000; fill-opacity:1.0; 
stroke:#000000; stroke-width:0; stroke-opacity:1; 
stroke-linecap:round; stroke-linejoin:round;fill-rule:evenodd;"
d="M 12118.8,10606.2
11768.5,10860.7
11317.2,10239.6
11667.6,9985.06
Z" /> 
</g>
<g >
</g>
<g style="fill:#000000; fill-opacity:1.0; 
stroke:#000000; stroke-width:0; stroke-opacity:1; 
stroke-linecap:round; stroke-linejoin:round;">
<path style="fill:#000000; fill-opacity:1.0; 
stroke:#000000; stroke-width:0; stroke-opacity:1; 
stroke-linecap:round; stroke-linejoin:round;fill-rule:evenodd;"
d="M 14515.1,10501.7
14524.6,10503.3
14533.9,10505.8
14786.7,10587.9
14795.7,10591.4
14804.4,10595.7
14812.5,10600.8
14820.2,10606.7
14827.2,10613.3
14833.6,10620.6
14839.2,10628.5
14844,10636.9
14847.9,10645.7
14851,10654.8
14853.1,10664.2
14854.4,10673.8
14854.7,10683.5
14854,10693.1
14852.4,10702.6
14849.9,10712
14734.3,11067.7
14730.9,11076.7
14726.6,11085.3
14721.4,11093.5
14715.5,11101.2
14708.9,11108.2
14701.6,11114.5
14693.7,11120.1
14685.4,11125
14676.6,11128.9
14667.4,11132
14658,11134.1
14648.4,11135.4
14638.7,11135.7
14629.1,11135
14619.6,11133.4
14610.3,11130.9
14357.5,11048.7
14348.5,11045.3
14339.8,11041
14331.7,11035.9
14324,11030
14317,11023.3
14310.6,11016.1
14305,11008.2
14300.2,10999.8
14296.3,10991
14293.2,10981.8
14291,10972.4
14289.8,10962.9
14289.5,10953.2
14290.2,10943.6
14291.8,10934
14294.3,10924.7
14409.9,10569
14413.3,10560
14417.6,10551.3
14422.8,10543.1
14428.7,10535.5
14435.3,10528.5
14442.6,10522.1
14450.5,10516.5
14458.8,10511.7
14467.6,10507.8
14476.8,10504.7
14486.2,10502.5
14495.8,10501.3
14505.4,10501
Z" /> 
<path style="fill:#000000; fill-opacity:1.0; 
stroke:#000000; stroke-width:0; stroke-opacity:1; 
stroke-linecap:round; stroke-linejoin:round;fill-rule:evenodd;"
d="M 15292,10754.1
15301.6,10755.7
15310.9,10758.3
15563.6,10840.4
15572.6,10843.8
15581.3,10848.1
15589.5,10853.2
15597.1,10859.1
15604.2,10865.8
15610.5,10873.1
15616.1,10880.9
15620.9,10889.3
15624.9,10898.1
15627.9,10907.3
15630.1,10916.7
15631.3,10926.3
15631.6,10935.9
15630.9,10945.6
15629.3,10955.1
15626.8,10964.4
15511.2,11320.1
15507.8,11329.1
15503.5,11337.8
15498.4,11346
15492.5,11353.6
15485.8,11360.6
15478.6,11367
15470.7,11372.6
15462.3,11377.4
15453.5,11381.4
15444.3,11384.4
15434.9,11386.6
15425.3,11387.8
15415.7,11388.1
15406.1,11387.4
15396.5,11385.8
15387.2,11383.3
15134.5,11301.2
15125.4,11297.8
15116.8,11293.5
15108.6,11288.3
15101,11282.4
15093.9,11275.8
15087.6,11268.5
15082,11260.6
15077.2,11252.3
15073.2,11243.5
15070.2,11234.3
15068,11224.9
15066.8,11215.3
15066.5,11205.6
15067.1,11196
15068.7,11186.5
15071.3,11177.2
15186.9,10821.5
15190.3,10812.4
15194.6,10803.8
15199.7,10795.6
15205.6,10787.9
15212.2,10780.9
15219.5,10774.6
15227.4,10769
15235.8,10764.2
15244.6,10760.2
15253.7,10757.1
15263.2,10755
15272.7,10753.7
15282.4,10753.5
Z" /> 
</g>
<g >
</g>
<g style="fill:#000000; fill-opacity:1.0; 
stroke:#000000; stroke-width:0; stroke-opacity:1; 
stroke-linecap:round; stroke-linejoin:round;">
<circle cx="17712.5" cy="11221.9" r="334.646" /> 
<circle cx="18021.5" cy="10270.8" r="334.646" /> 
<path style="fill:#000000; fill-opacity:1.0; 
stroke:#000000; stroke-width:0; stroke-opacity:1; 
stroke-linecap:round; stroke-linejoin:round;fill-rule:evenodd;"
d="M 17908.8,9534.59
18115.7,8898.06
18752.2,9104.88
18545.4,9741.41
Z" /> 
</g>
<g >
</g>
<g style="fill:#000000; fill-opacity:1.0; 
stroke:#000000; stroke-width:0; stroke-opacity:1; 
stroke-linecap:round; stroke-linejoin:round;">
<path style="fill:#000000; fill-opacity:1.0; 
stroke:#000000; stroke-width:0; stroke-opacity:1; 
stroke-linecap:round; stroke-linejoin:round;fill-rule:evenodd;"
d="M 8779.32,15318.7
9448.61,15318.7
9448.61,15988
8779.32,15988
Z" /> 
<circle cx="8113.96" cy="15653.3" r="334.646" /> 
<circle cx="7113.96" cy="15653.3" r="334.646" /> 
</g>
<g >
</g>
<g style="fill:#000000; fill-opacity:1.0; 
stroke:#000000; stroke-width:0; stroke-opacity:1; 
stroke-linecap:round; stroke-linejoin:round;">
<path style="fill:#000000; fill-opacity:1.0; 
stroke:#000000; stroke-width:0; stroke-opacity:1; 
stroke-linecap:round; stroke-linejoin:round;fill-rule:evenodd;"
d="M 13146.3,2310.18
13815.5,2310.18
13815.5,2979.47
13146.3,2979.47
Z" /> 
<circle cx="12480.9" cy="2644.83" r="334.646" /> 
<circle cx="11480.9" cy="2644.83" r="334.646" /> 
</g>
<g >
</g>
<g style="fill:#000000; fill-opacity:1.0; 
stroke:#000000; stroke-width:0; stroke-opacity:1; 
stroke-linecap:round; stroke-linejoin:round;">
<circle cx="3991.2" cy="11355.2" r="334.646" /> 
<circle cx="4300.22" cy="10404.1" r="334.646" /> 
<path style="fill:#000000; fill-opacity:1.0; 
stroke:#000000; stroke-width:0; stroke-opacity:1; 
stroke-linecap:round; stroke-linejoin:round;fill-rule:evenodd;"
d="M 4187.55,9667.95
4394.38,9031.41
5030.91,9238.24
4824.09,9874.77
Z" /> 
</g>
<g >
</g>
<g style="fill:#000000; fill-opacity:1.0; 
stroke:#000000; stroke-width:0; stroke-opacity:1; 
stroke-linecap:round; stroke-linejoin:round;">
<path style="fill:#000000; fill-opacity:1.0; 
stroke:#000000; stroke-width:0; stroke-opacity:1; 
stroke-linecap:round; stroke-linejoin:round;fill-rule:evenodd;"
d="M 9824.87,7399.15
9477.76,6921.38
9796.27,6689.97
10143.4,7167.74
Z" /> 
<path style="fill:#000000; fill-opacity:1.0; 
stroke:#000000; stroke-width:0; stroke-opacity:1; 
stroke-linecap:round; stroke-linejoin:round;fill-rule:evenodd;"
d="M 10051.2,6505.03
10059,6499.36
10075.7,6489.59
10093.2,6481.5
10111.5,6475.17
10130.3,6470.66
10149.4,6468.01
10168.7,6467.26
10188,6468.39
10207.1,6471.42
10225.8,6476.29
10243.9,6482.98
10261.3,6491.41
10277.7,6501.5
10293.2,6513.16
10307.3,6526.28
10320.2,6540.72
10325.8,6548.53
10326,6548.39
10441.7,6707.65
10441.6,6707.79
10447.2,6715.6
10457,6732.27
10465.1,6749.81
10471.4,6768.06
10475.9,6786.85
10478.6,6805.98
10479.3,6825.28
10478.2,6844.57
10475.2,6863.65
10470.3,6882.34
10463.6,6900.47
10455.2,6917.85
10445.1,6934.32
10433.4,6949.72
10420.3,6963.91
10405.9,6976.74
10398.1,6982.42
10398.2,6982.61
10223,7109.88
9875.9,6632.12
10051.1,6504.84
Z" /> 
<path style="fill:#000000; fill-opacity:1.0; 
stroke:#000000; stroke-width:0; stroke-opacity:1; 
stroke-linecap:round; stroke-linejoin:round;fill-rule:evenodd;"
d="M 9745.25,7457
9570.07,7584.28
9569.93,7584.09
9562.11,7589.76
9545.45,7599.53
9527.9,7607.62
9509.65,7613.95
9490.87,7618.46
9471.73,7621.1
9452.43,7621.86
9433.14,7620.73
9414.06,7617.7
9395.37,7612.83
9377.25,7606.14
9359.87,7597.71
9343.39,7587.62
9327.99,7575.96
9313.81,7562.84
9300.97,7548.4
9295.3,7540.59
9295.1,7540.73
9179.4,7381.47
9179.59,7381.33
9173.91,7373.52
9164.15,7356.85
9156.06,7339.31
9149.73,7321.06
9145.22,7302.27
9142.57,7283.14
9141.81,7263.83
9142.95,7244.55
9145.97,7225.47
9150.85,7206.78
9157.54,7188.65
9165.97,7171.27
9176.06,7154.8
9187.72,7139.4
9200.83,7125.21
9215.27,7112.38
9223.09,7106.7
9222.95,7106.51
9398.13,6979.24
Z" /> 
</g>
<g >
</g>
<g style="fill:#000000; fill-opacity:1.0; 
stroke:#000000; stroke-width:0; stroke-opacity:1; 
stroke-linecap:round; stroke-linejoin:round;">
<path style="fill:#000000; fill-opacity:1.0; 
stroke:#000000; stroke-width:0; stroke-opacity:1; 
stroke-linecap:round; stroke-linejoin:round;fill-rule:evenodd;"
d="M 12895.2,12007
12720.1,12134.3
12719.9,12134.1
12712.1,12139.8
12695.4,12149.5
12677.9,12157.6
12659.7,12163.9
12640.9,12168.5
12621.7,12171.1
12602.4,12171.9
12583.1,12170.7
12564.1,12167.7
12545.4,12162.8
12527.2,12156.1
12509.9,12147.7
12493.4,12137.6
12478,12126
12463.8,12112.8
12451,12098.4
12445.3,12090.6
12445.1,12090.7
12329.4,11931.5
12329.6,11931.3
12323.9,11923.5
12314.1,11906.9
12306.1,11889.3
12299.7,11871.1
12295.2,11852.3
12292.6,11833.1
12291.8,11813.8
12293,11794.5
12296,11775.5
12300.9,11756.8
12307.5,11738.7
12316,11721.3
12326.1,11704.8
12337.7,11689.4
12350.8,11675.2
12365.3,11662.4
12373.1,11656.7
12372.9,11656.5
12548.1,11529.2
Z" /> 
<path style="fill:#000000; fill-opacity:1.0; 
stroke:#000000; stroke-width:0; stroke-opacity:1; 
stroke-linecap:round; stroke-linejoin:round;fill-rule:evenodd;"
d="M 13201.2,11055
13209,11049.4
13225.7,11039.6
13243.2,11031.5
13261.5,11025.2
13280.3,11020.7
13299.4,11018
13318.7,11017.3
13338,11018.4
13357.1,11021.4
13375.8,11026.3
13393.9,11033
13411.3,11041.4
13427.7,11051.5
13443.2,11063.2
13457.3,11076.3
13470.2,11090.7
13475.8,11098.5
13476,11098.4
13591.7,11257.6
13591.6,11257.8
13597.2,11265.6
13607,11282.3
13615.1,11299.8
13621.4,11318.1
13625.9,11336.8
13628.6,11356
13629.3,11375.3
13628.2,11394.6
13625.2,11413.6
13620.3,11432.3
13613.6,11450.5
13605.2,11467.8
13595.1,11484.3
13583.4,11499.7
13570.3,11513.9
13555.9,11526.7
13548.1,11532.4
13548.2,11532.6
13373,11659.9
13025.9,11182.1
13201.1,11054.8
Z" /> 
<path style="fill:#000000; fill-opacity:1.0; 
stroke:#000000; stroke-width:0; stroke-opacity:1; 
stroke-linecap:round; stroke-linejoin:round;fill-rule:evenodd;"
d="M 12974.9,11949.1
12627.8,11471.4
12946.3,11240
13293.4,11717.7
Z" /> 
</g>
<g >
</g>
<g style="fill:#000000; fill-opacity:1.0; 
stroke:#000000; stroke-width:0; stroke-opacity:1; 
stroke-linecap:round; stroke-linejoin:round;">
<path style="fill:#000000; fill-opacity:1.0; 
stroke:#000000; stroke-width:0; stroke-opacity:1; 
stroke-linecap:round; stroke-linejoin:round;fill-rule:evenodd;"
d="M 11057.2,4255.27
11066.8,4256.69
11076.1,4259.03
11085.2,4262.29
11094,4266.42
11102.3,4271.38
11110,4277.14
11117.2,4283.62
11123.7,4290.78
11129.4,4298.54
11134.4,4306.82
11138.5,4315.56
11141.8,4324.65
11144.1,4334.02
11145.5,4343.57
11146,4353.22
11146,4618.97
11145.5,4628.62
11144.1,4638.17
11141.8,4647.54
11138.5,4656.63
11134.4,4665.37
11129.4,4673.65
11123.7,4681.41
11117.2,4688.57
11110,4695.05
11102.3,4700.81
11094,4705.77
11085.2,4709.9
11076.1,4713.16
11066.8,4715.5
11057.2,4716.92
11047.6,4717.39
10673.6,4717.39
10663.9,4716.92
10654.4,4715.5
10645,4713.16
10635.9,4709.9
10627.2,4705.77
10618.9,4700.81
10611.1,4695.05
10604,4688.57
10597.5,4681.41
10591.7,4673.65
10586.8,4665.37
10582.6,4656.63
10579.4,4647.54
10577,4638.17
10575.6,4628.62
10575.1,4618.97
10575.1,4353.22
10575.6,4343.57
10577,4334.02
10579.4,4324.65
10582.6,4315.56
10586.8,4306.82
10591.7,4298.54
10597.5,4290.78
10604,4283.62
10611.1,4277.14
10618.9,4271.38
10627.2,4266.42
10635.9,4262.29
10645,4259.03
10654.4,4256.69
10663.9,4255.27
10673.6,4254.8
11047.6,4254.8
Z" /> 
<path style="fill:#000000; fill-opacity:1.0; 
stroke:#000000; stroke-width:0; stroke-opacity:1; 
stroke-linecap:round; stroke-linejoin:round;fill-rule:evenodd;"
d="M 11057.2,5072.2
11066.8,5073.62
11076.1,5075.96
11085.2,5079.22
11094,5083.35
11102.3,5088.31
11110,5094.07
11117.2,5100.55
11123.7,5107.71
11129.4,5115.47
11134.4,5123.75
11138.5,5132.48
11141.8,5141.58
11144.1,5150.95
11145.5,5160.5
11146,5170.15
11146,5435.9
11145.5,5445.55
11144.1,5455.1
11141.8,5464.47
11138.5,5473.56
11134.4,5482.3
11129.4,5490.58
11123.7,5498.34
11117.2,5505.5
11110,5511.98
11102.3,5517.74
11094,5522.7
11085.2,5526.83
11076.1,5530.09
11066.8,5532.43
11057.2,5533.85
11047.6,5534.32
10673.6,5534.32
10663.9,5533.85
10654.4,5532.43
10645,5530.09
10635.9,5526.83
10627.2,5522.7
10618.9,5517.74
10611.1,5511.98
10604,5505.5
10597.5,5498.34
10591.7,5490.58
10586.8,5482.3
10582.6,5473.56
10579.4,5464.47
10577,5455.1
10575.6,5445.55
10575.1,5435.9
10575.1,5170.15
10575.6,5160.5
10577,5150.95
10579.4,5141.58
10582.6,5132.48
10586.8,5123.75
10591.7,5115.47
10597.5,5107.71
10604,5100.55
10611.1,5094.07
10618.9,5088.31
10627.2,5083.35
10635.9,5079.22
10645,5075.96
10654.4,5073.62
10663.9,5072.2
10673.6,5071.72
11047.6,5071.72
Z" /> 
</g>
<g >
</g>
<g style="fill:#000000; fill-opacity:1.0; 
stroke:#000000; stroke-width:0; stroke-opacity:1; 
stroke-linecap:round; stroke-linejoin:round;">
<path style="fill:#000000; fill-opacity:1.0; 
stroke:#000000; stroke-width:0; stroke-opacity:1; 
stroke-linecap:round; stroke-linejoin:round;fill-rule:evenodd;"
d="M 16563.2,8212.37
16937.6,8334.03
16755.1,8895.68
16380.7,8774.02
Z" /> 
<path style="fill:#000000; fill-opacity:1.0; 
stroke:#000000; stroke-width:0; stroke-opacity:1; 
stroke-linecap:round; stroke-linejoin:round;fill-rule:evenodd;"
d="M 15365,7823.05
15739.4,7944.71
15556.9,8506.36
15182.5,8384.7
Z" /> 
<path style="fill:#000000; fill-opacity:1.0; 
stroke:#000000; stroke-width:0; stroke-opacity:1; 
stroke-linecap:round; stroke-linejoin:round;fill-rule:evenodd;"
d="M 15967.1,10047.1
16341.5,10168.7
16159,10730.4
15784.6,10608.7
Z" /> 
<path style="fill:#000000; fill-opacity:1.0; 
stroke:#000000; stroke-width:0; stroke-opacity:1; 
stroke-linecap:round; stroke-linejoin:round;fill-rule:evenodd;"
d="M 14768.9,9657.77
15143.3,9779.43
14960.8,10341.1
14586.4,10219.4
Z" /> 
</g>
<g >
</g>
<g style="fill:#000000; fill-opacity:1.0; 
stroke:#000000; stroke-width:0; stroke-opacity:1; 
stroke-linecap:round; stroke-linejoin:round;">
<path style="fill:#000000; fill-opacity:1.0; 
stroke:#000000; stroke-width:0; stroke-opacity:1; 
stroke-linecap:round; stroke-linejoin:round;fill-rule:evenodd;"
d="M 9696.95,12370.2
9696.95,12763.9
9106.4,12763.9
9106.4,12370.2
Z" /> 
<path style="fill:#000000; fill-opacity:1.0; 
stroke:#000000; stroke-width:0; stroke-opacity:1; 
stroke-linecap:round; stroke-linejoin:round;fill-rule:evenodd;"
d="M 9696.95,13630
9696.95,14023.7
9106.4,14023.7
9106.4,13630
Z" /> 
<path style="fill:#000000; fill-opacity:1.0; 
stroke:#000000; stroke-width:0; stroke-opacity:1; 
stroke-linecap:round; stroke-linejoin:round;fill-rule:evenodd;"
d="M 11626.1,12370.2
11626.1,12763.9
11035.5,12763.9
11035.5,12370.2
Z" /> 
<path style="fill:#000000; fill-opacity:1.0; 
stroke:#000000; stroke-width:0; stroke-opacity:1; 
stroke-linecap:round; stroke-linejoin:round;fill-rule:evenodd;"
d="M 11626.1,13630
11626.1,14023.7
11035.5,14023.7
11035.5,13630
Z" /> 
</g>
<g >
</g>
<g style="fill:#000000; fill-opacity:1.0; 
stroke:#000000; stroke-width:0; stroke-opacity:1; 
stroke-linecap:round; stroke-linejoin:round;">
<path style="fill:#000000; fill-opacity:1.0; 
stroke:#000000; stroke-width:0; stroke-opacity:1; 
stroke-linecap:round; stroke-linejoin:round;fill-rule:evenodd;"
d="M 12058.8,4274.14
12058.8,4667.84
11468.3,4667.84
11468.3,4274.14
Z" /> 
<path style="fill:#000000; fill-opacity:1.0; 
stroke:#000000; stroke-width:0; stroke-opacity:1; 
stroke-linecap:round; stroke-linejoin:round;fill-rule:evenodd;"
d="M 12058.8,5533.99
12058.8,5927.69
11468.3,5927.69
11468.3,5533.99
Z" /> 
<path style="fill:#000000; fill-opacity:1.0; 
stroke:#000000; stroke-width:0; stroke-opacity:1; 
stroke-linecap:round; stroke-linejoin:round;fill-rule:evenodd;"
d="M 13987.9,4274.14
13987.9,4667.84
13397.4,4667.84
13397.4,4274.14
Z" /> 
<path style="fill:#000000; fill-opacity:1.0; 
stroke:#000000; stroke-width:0; stroke-opacity:1; 
stroke-linecap:round; stroke-linejoin:round;fill-rule:evenodd;"
d="M 13987.9,5533.99
13987.9,5927.69
13397.4,5927.69
13397.4,5533.99
Z" /> 
</g>
<g >
</g>
<g style="fill:#000000; fill-opacity:1.0; 
stroke:#000000; stroke-width:0; stroke-opacity:1; 
stroke-linecap:round; stroke-linejoin:round;">
<path style="fill:#000000; fill-opacity:1.0; 
stroke:#000000; stroke-width:0; stroke-opacity:1; 
stroke-linecap:round; stroke-linejoin:round;fill-rule:evenodd;"
d="M 8133.53,8212.37
8507.96,8334.03
8325.47,8895.68
7951.04,8774.02
Z" /> 
<path style="fill:#000000; fill-opacity:1.0; 
stroke:#000000; stroke-width:0; stroke-opacity:1; 
stroke-linecap:round; stroke-linejoin:round;fill-rule:evenodd;"
d="M 6935.35,7823.05
7309.78,7944.71
7127.29,8506.36
6752.86,8384.7
Z" /> 
<path style="fill:#000000; fill-opacity:1.0; 
stroke:#000000; stroke-width:0; stroke-opacity:1; 
stroke-linecap:round; stroke-linejoin:round;fill-rule:evenodd;"
d="M 7537.39,10047.1
7911.82,10168.7
7729.33,10730.4
7354.9,10608.7
Z" /> 
<path style="fill:#000000; fill-opacity:1.0; 
stroke:#000000; stroke-width:0; stroke-opacity:1; 
stroke-linecap:round; stroke-linejoin:round;fill-rule:evenodd;"
d="M 6339.21,9657.77
6713.64,9779.43
6531.15,10341.1
6156.72,10219.4
Z" /> 
</g>
<g >
</g>
<g >
</g>
<g >
</g>
</g>
<g style="fill:#000000; fill-opacity:1.0; 
stroke:#000000; stroke-width:0; stroke-opacity:1; 
stroke-linecap:round; stroke-linejoin:round;">
</g>
<g style="fill:#000000; fill-opacity:0.0; 
stroke:#000000; stroke-width:0; stroke-opacity:1; 
stroke-linecap:round; stroke-linejoin:round;">
</g>
<g style="fill:#000000; fill-opacity:0.0; 
stroke:#000000; stroke-width:59.0551; stroke-opacity:1; 
stroke-linecap:round; stroke-linejoin:round;">
<g transform="rotate(-72 17160.6 9644.56)">
<text x="17160.6" y="9841.41"
textLength="2174.73" font-size="524.934" lengthAdjust="spacingAndGlyphs"
text-anchor="middle" opacity="0">Data In</text>
</g>
<path d="M17022 10644
L16648 10522
L16677 10433
L16712 10386
L16759 10362
L16801 10355
L16878 10361
L16931 10378
L16997 10419
L17027 10448
L17051 10496
L17051 10555
L17022 10644
" />
<path d="M17196 10109
L17000 10045
L16959 10052
L16929 10082
L16906 10153
L16912 10194
" />
<path d="M17178 10103
L17185 10145
L17156 10234
L17126 10264
L17085 10270
L17049 10259
L17019 10229
L17013 10188
L17042 10099
L17036 10057
" />
<path d="M16987 9903
L17033 9761
" />
<path d="M16880 9809
L17201 9914
L17242 9907
L17272 9877
L17283 9842
" />
<path d="M17376 9556
L17180 9493
L17138 9499
L17109 9529
L17086 9600
L17092 9642
" />
<path d="M17358 9551
L17364 9592
L17335 9681
L17306 9711
L17264 9717
L17229 9706
L17199 9676
L17193 9635
L17222 9546
L17215 9504
" />
<path d="M17526 9093
L17152 8971
" />
<path d="M17335 8833
L17584 8915
" />
<path d="M17370 8845
L17358 8821
L17352 8780
L17370 8726
L17399 8697
L17440 8690
L17637 8754
" />
<g transform="rotate(-252 5210.57 10694.6)">
<text x="5210.57" y="10891.4"
textLength="2701.44" font-size="524.934" lengthAdjust="spacingAndGlyphs"
text-anchor="middle" opacity="0">Data Out</text>
</g>
<path d="M5417 9480
L5792 9602
L5763 9691
L5728 9739
L5680 9763
L5639 9769
L5562 9764
L5508 9746
L5443 9705
L5413 9676
L5389 9629
L5388 9569
L5417 9480
" />
<path d="M5243 10015
L5440 10079
L5481 10072
L5510 10043
L5534 9971
L5527 9930
" />
<path d="M5261 10021
L5255 9979
L5284 9890
L5313 9860
L5355 9854
L5391 9866
L5420 9895
L5427 9937
L5398 10026
L5404 10067
" />
<path d="M5453 10221
L5406 10364
" />
<path d="M5560 10315
L5239 10211
L5198 10217
L5168 10247
L5157 10282
" />
<path d="M5064 10568
L5260 10631
L5301 10625
L5331 10595
L5354 10524
L5348 10483
" />
<path d="M5082 10573
L5075 10532
L5104 10443
L5134 10413
L5175 10407
L5211 10418
L5241 10448
L5247 10489
L5218 10578
L5224 10620
" />
<path d="M5264 11224
L5241 11296
L5212 11325
L5165 11350
L5088 11344
L4963 11304
L4897 11263
L4873 11215
L4867 11174
L4890 11103
L4919 11073
L4967 11049
L5044 11054
L5169 11095
L5234 11136
L5258 11183
L5264 11224
" />
<path d="M4983 11665
L4734 11584
" />
<path d="M5035 11505
L4839 11441
L4798 11447
L4768 11477
L4751 11531
L4757 11572
L4769 11596
" />
<path d="M4943 11790
L4896 11933
" />
<path d="M5050 11884
L4729 11780
L4688 11786
L4658 11816
L4647 11851
" />
<g transform="rotate(-180 12960.6 3644.56)">
<text x="12960.6" y="3841.41"
textLength="2701.44" font-size="524.934" lengthAdjust="spacingAndGlyphs"
text-anchor="middle" opacity="0">Data Out</text>
</g>
<path d="M14179 3466
L14179 3860
L14085 3860
L14029 3841
L13991 3803
L13972 3766
L13954 3691
L13954 3635
L13972 3560
L13991 3522
L14029 3485
L14085 3466
L14179 3466
" />
<path d="M13616 3466
L13616 3672
L13635 3710
L13672 3728
L13747 3728
L13785 3710
" />
<path d="M13616 3485
L13654 3466
L13747 3466
L13785 3485
L13804 3522
L13804 3560
L13785 3597
L13747 3616
L13654 3616
L13616 3635
" />
<path d="M13485 3728
L13335 3728
" />
<path d="M13429 3860
L13429 3522
L13410 3485
L13373 3466
L13335 3466
" />
<path d="M13035 3466
L13035 3672
L13054 3710
L13091 3728
L13166 3728
L13204 3710
" />
<path d="M13035 3485
L13073 3466
L13166 3466
L13204 3485
L13223 3522
L13223 3560
L13204 3597
L13166 3616
L13073 3616
L13035 3635
" />
<path d="M12473 3860
L12398 3860
L12360 3841
L12323 3803
L12304 3728
L12304 3597
L12323 3522
L12360 3485
L12398 3466
L12473 3466
L12510 3485
L12548 3522
L12566 3597
L12566 3728
L12548 3803
L12510 3841
L12473 3860
" />
<path d="M11966 3728
L11966 3466
" />
<path d="M12135 3728
L12135 3522
L12116 3485
L12079 3466
L12023 3466
L11985 3485
L11966 3503
" />
<path d="M11835 3728
L11685 3728
" />
<path d="M11779 3860
L11779 3522
L11760 3485
L11723 3466
L11685 3466
" />
<text x="8110.57" y="14941.4"
textLength="2251.5" font-size="524.934" lengthAdjust="spacingAndGlyphs"
text-anchor="middle" opacity="0">Data In</text>
<path d="M7116 14922
L7116 14528
L7210 14528
L7266 14547
L7304 14585
L7323 14622
L7341 14697
L7341 14753
L7323 14828
L7304 14866
L7266 14903
L7210 14922
L7116 14922
" />
<path d="M7679 14922
L7679 14716
L7660 14678
L7623 14660
L7548 14660
L7510 14678
" />
<path d="M7679 14903
L7641 14922
L7548 14922
L7510 14903
L7491 14866
L7491 14828
L7510 14791
L7548 14772
L7641 14772
L7679 14753
" />
<path d="M7810 14660
L7960 14660
" />
<path d="M7866 14528
L7866 14866
L7885 14903
L7923 14922
L7960 14922
" />
<path d="M8260 14922
L8260 14716
L8241 14678
L8204 14660
L8129 14660
L8091 14678
" />
<path d="M8260 14903
L8223 14922
L8129 14922
L8091 14903
L8073 14866
L8073 14828
L8091 14791
L8129 14772
L8223 14772
L8260 14753
" />
<path d="M8747 14922
L8747 14528
" />
<path d="M8935 14660
L8935 14922
" />
<path d="M8935 14697
L8954 14678
L8991 14660
L9047 14660
L9085 14678
L9104 14716
L9104 14922
" />
</g>
<g style="fill:#000000; fill-opacity:0.0; 
stroke:#000000; stroke-width:196.85; stroke-opacity:1; 
stroke-linecap:round; stroke-linejoin:round;">
<g transform="rotate(-162 17460.6 11844.6)">
<text x="17460.6" y="12238.3"
textLength="751.687" font-size="1049.87" lengthAdjust="spacingAndGlyphs"
text-anchor="middle" opacity="0">A</text>
</g>
<path d="M17679 11777
L17322 11661
" />
<path d="M17820 11586
L17327 12254
L17321 11424
" />
<g transform="rotate(-90 10860.6 2644.56)">
<text x="10860.6" y="3038.26"
textLength="855.831" font-size="1049.87" lengthAdjust="spacingAndGlyphs"
text-anchor="middle" opacity="0">T</text>
</g>
<path d="M10429 2869
L10429 2419
" />
<path d="M11216 2644
L10429 2644
" />
<g transform="rotate(-162 3660.57 12444.6)">
<text x="3660.57" y="12838.3"
textLength="1043.31" font-size="1049.87" lengthAdjust="spacingAndGlyphs"
text-anchor="middle" opacity="0">C</text>
</g>
<path d="M3515 12101
L3562 12077
L3681 12076
L3752 12099
L3848 12170
L3896 12264
L3908 12347
L3898 12502
L3863 12609
L3781 12740
L3722 12799
L3628 12847
L3509 12848
L3438 12825
L3342 12755
L3318 12708
" />
<g transform="rotate(-90 5960.57 15644.6)">
<text x="5960.57" y="16038.3"
textLength="1043.31" font-size="1049.87" lengthAdjust="spacingAndGlyphs"
text-anchor="middle" opacity="0">G</text>
</g>
<path d="M5566 15438
L5529 15513
L5529 15625
L5566 15738
L5641 15813
L5716 15850
L5866 15888
L5979 15888
L6129 15850
L6204 15813
L6279 15738
L6316 15625
L6316 15550
L6279 15438
L6241 15400
L5979 15400
L5979 15550
" />
</g>
<g style="fill:#000000; fill-opacity:0.0; 
stroke:#000000; stroke-width:118.11; stroke-opacity:1; 
stroke-linecap:round; stroke-linejoin:round;">
<path d="M12657.3 16637.6 A11417.3 11417.3 0.0 0 0 4768.1 5779.06" />
<path d="M13070.7 16637.6 A11830.7 11830.7 0.0 0 0 4895.84 5385.9" />
<path d="M17921.3 1660.31 A3933.07 3933.07 0.0 0 0 20639 5400.88" />
</g>
<g style="fill:#000000; fill-opacity:0.0; 
stroke:#000000; stroke-width:47.2441; stroke-opacity:1; 
stroke-linecap:round; stroke-linejoin:round;">
<path d="M6697 10751
L6502 10687
" />
<path d="M6518 11301
L6323 11237
" />
<path d="M8271 13047
L8271 12841
" />
<path d="M8849 13047
L8849 12841
" />
</g>
<g style="fill:#000000; fill-opacity:0.0; 
stroke:#000000; stroke-width:78.7402; stroke-opacity:1; 
stroke-linecap:round; stroke-linejoin:round;">
<circle cx="11257.6" cy="10793.9" r="88.0343" /> 
</g>
<g style="fill:#000000; fill-opacity:0.0; 
stroke:#000000; stroke-width:47.2441; stroke-opacity:1; 
stroke-linecap:round; stroke-linejoin:round;">
<path d="M12910 7208
L12751 7324
" />
<path d="M13836 8482
L12910 7208
" />
<path d="M13677 8598
L13836 8482
" />
<path d="M9884 9406
L9964 9348
" />
<path d="M10694 10521
L9884 9406
" />
<path d="M10810 10680
L10694 10521
" />
<path d="M10969 10565
L10810 10680
" />
<path d="M15147 10701
L14952 10637
" />
<path d="M14968 11251
L14773 11187
" />
<path d="M18492 8821
L18990 8983
" />
<path d="M18990 8983
L18828 9481
" />
<path d="M18673 9957
L18048 11881
" />
<path d="M17052 11558
L18048 11881
" />
<path d="M17678 9633
L17052 11558
" />
<path d="M17678 9633
L18673 9957
" />
<path d="M8613 15129
L8613 16176
" />
<path d="M8613 15129
L6590 15129
" />
<path d="M6590 15129
L6590 16176
" />
<path d="M8613 16176
L6590 16176
" />
<path d="M9637 16176
L9113 16176
" />
<path d="M9637 15653
L9637 16176
" />
<path d="M12980 2121
L12980 3168
" />
<path d="M12980 2121
L10957 2121
" />
<path d="M10957 2121
L10957 3168
" />
<path d="M12980 3168
L10957 3168
" />
<path d="M14004 3168
L13480 3168
" />
<path d="M14004 2644
L14004 3168
" />
<path d="M4771 8955
L5269 9116
" />
<path d="M5269 9116
L5107 9614
" />
<path d="M4952 10090
L4327 12015
" />
<path d="M3331 11691
L4327 12015
" />
<path d="M3956 9766
L3331 11691
" />
<path d="M3956 9766
L4952 10090
" />
<path d="M9133 7050
L10025 6402
" />
<path d="M10394 6474
L10532 6665
" />
<path d="M10487 7039
L9596 7687
" />
<path d="M9227 7614
L9088 7423
" />
<path d="M9706 7704
L9679 7869
" />
<path d="M9679 7869
L9871 7730
" />
<path d="M9706 7704
L9871 7730
" />
<path d="M9149.17 7038.45 A275.591 275.591 0.0 0 0 9088.2 7423.4" />
<path d="M9227.05 7614.51 A275.591 275.591 0.0 0 0 9611.99 7675.48" />
<path d="M10472 7050.66 A275.591 275.591 0.0 0 0 10532.9 6665.72" />
<path d="M10394.1 6474.61 A275.591 275.591 0.0 0 0 10009.1 6413.64" />
<path d="M12856 12254
L13021 12280
" />
<path d="M12829 12419
L13021 12280
" />
<path d="M12856 12254
L12829 12419
" />
<path d="M12377 12164
L12238 11973
" />
<path d="M13637 11589
L12746 12237
" />
<path d="M13544 11024
L13682 11215
" />
<path d="M12283 11600
L13175 10952
" />
<path d="M13544.1 11024.6 A275.591 275.591 0.0 0 0 13159.1 10963.6" />
<path d="M13622 11600.7 A275.591 275.591 0.0 0 0 13682.9 11215.7" />
<path d="M12377 12164.5 A275.591 275.591 0.0 0 0 12762 12225.5" />
<path d="M12299.2 11588.5 A275.591 275.591 0.0 0 0 12238.2 11973.4" />
<path d="M10571 4997
L10571 4791
" />
<path d="M11149 4997
L11149 4791
" />
<path d="M17235 8244
L16347 10977
" />
<path d="M15176 7575
L14288 10308
" />
<path d="M14288 10308
L14718 10448
" />
<path d="M8929 12114
L8929 12567
" />
<path d="M11803 12114
L8929 12114
" />
<path d="M11803 14279
L8929 14279
" />
<path d="M11291 4018
L11291 4470
" />
<path d="M14165 4018
L11291 4018
" />
<path d="M14165 6183
L11291 6183
" />
<path d="M8806 8244
L7917 10977
" />
<path d="M6746 7575
L5858 10308
" />
<path d="M5858 10308
L6289 10448
" />
</g>
<g style="fill:#000000; fill-opacity:0.0; 
stroke:#000000; stroke-width:59.0551; stroke-opacity:1; 
stroke-linecap:round; stroke-linejoin:round;">
<text x="9174.95" y="2368.97"
textLength="1643.23" font-size="524.934" lengthAdjust="spacingAndGlyphs"
text-anchor="middle" opacity="0">M2.1</text>
<path d="M8575 2350
L8575 1956
L8706 2237
L8837 1956
L8837 2350
" />
<path d="M9006 1994
L9024 1975
L9062 1956
L9156 1956
L9193 1975
L9212 1994
L9231 2031
L9231 2069
L9212 2125
L8987 2350
L9231 2350
" />
<path d="M9399 2312
L9418 2331
L9399 2350
L9381 2331
L9399 2312
L9399 2350
" />
<path d="M9793 2350
L9568 2350
" />
<path d="M9681 2350
L9681 1956
L9643 2012
L9606 2050
L9568 2069
" />
<text x="20110.6" y="4641.41"
textLength="1464.1" font-size="524.934" lengthAdjust="spacingAndGlyphs"
text-anchor="middle" opacity="0">M2.1</text>
<path d="M19510 4622
L19510 4228
L19641 4510
L19773 4228
L19773 4622
" />
<path d="M19941 4266
L19960 4247
L19998 4228
L20091 4228
L20129 4247
L20148 4266
L20166 4303
L20166 4341
L20148 4397
L19923 4622
L20166 4622
" />
<path d="M20335 4585
L20354 4603
L20335 4622
L20316 4603
L20335 4585
L20335 4622
" />
<path d="M20729 4622
L20504 4622
" />
<path d="M20616 4622
L20616 4228
L20579 4285
L20541 4322
L20504 4341
" />
<text x="13919.4" y="13802.9"
textLength="1464.1" font-size="524.934" lengthAdjust="spacingAndGlyphs"
text-anchor="middle" opacity="0">M2.1</text>
<path d="M13319 13784
L13319 13390
L13450 13671
L13581 13390
L13581 13784
" />
<path d="M13750 13427
L13769 13409
L13806 13390
L13900 13390
L13938 13409
L13956 13427
L13975 13465
L13975 13502
L13956 13559
L13731 13784
L13975 13784
" />
<path d="M14144 13746
L14163 13765
L14144 13784
L14125 13765
L14144 13746
L14144 13784
" />
<path d="M14538 13784
L14313 13784
" />
<path d="M14425 13784
L14425 13390
L14388 13446
L14350 13484
L14313 13502
" />
<text x="15638.9" y="14332.8"
textLength="939.164" font-size="524.934" lengthAdjust="spacingAndGlyphs"
text-anchor="middle" opacity="0">MH</text>
<path d="M15301 14314
L15301 13920
L15432 14201
L15563 13920
L15563 14314
" />
<path d="M15751 14314
L15751 13920
" />
<path d="M15751 14107
L15976 14107
" />
<path d="M15976 14314
L15976 13920
" />
<text x="7534.2" y="3177.67"
textLength="939.164" font-size="524.934" lengthAdjust="spacingAndGlyphs"
text-anchor="middle" opacity="0">MH</text>
<path d="M7196 3158
L7196 2765
L7327 3046
L7459 2765
L7459 3158
" />
<path d="M7646 3158
L7646 2765
" />
<path d="M7646 2952
L7871 2952
" />
<path d="M7871 3158
L7871 2765
" />
<text x="3151.01" y="14186.1"
textLength="1464.1" font-size="524.934" lengthAdjust="spacingAndGlyphs"
text-anchor="middle" opacity="0">M2.1</text>
<path d="M2551 14167
L2551 13773
L2682 14054
L2813 13773
L2813 14167
" />
<path d="M2982 13811
L3001 13792
L3038 13773
L3132 13773
L3169 13792
L3188 13811
L3207 13848
L3207 13886
L3188 13942
L2963 14167
L3207 14167
" />
<path d="M3375 14129
L3394 14148
L3375 14167
L3357 14148
L3375 14129
L3375 14167
" />
<path d="M3769 14167
L3544 14167
" />
<path d="M3657 14167
L3657 13773
L3619 13829
L3582 13867
L3544 13886
" />
<g transform="rotate(18 6306.18 11623.6)">
<text x="6306.18" y="11820.5"
textLength="845.426" font-size="524.934" lengthAdjust="spacingAndGlyphs"
text-anchor="middle" opacity="0">C4</text>
</g>
<path d="M6200 11737
L6176 11749
L6117 11749
L6081 11737
L6034 11702
L6009 11655
L6003 11614
L6009 11536
L6026 11483
L6067 11417
L6096 11388
L6144 11363
L6203 11363
L6239 11375
L6286 11410
L6298 11433
" />
<path d="M6590 11627
L6509 11876
" />
<path d="M6547 11455
L6371 11694
L6603 11769
" />
<g transform="rotate(-90 7810.57 13244.6)">
<text x="7810.57" y="13441.4"
textLength="845.426" font-size="524.934" lengthAdjust="spacingAndGlyphs"
text-anchor="middle" opacity="0">C2</text>
</g>
<path d="M7951 13310
L7969 13328
L7988 13385
L7988 13422
L7969 13478
L7932 13516
L7894 13535
L7819 13553
L7763 13553
L7688 13535
L7651 13516
L7613 13478
L7594 13422
L7594 13385
L7613 13328
L7632 13310
" />
<path d="M7632 13160
L7613 13141
L7594 13103
L7594 13010
L7613 12972
L7632 12953
L7669 12935
L7707 12935
L7763 12953
L7988 13178
L7988 12935
" />
<g transform="rotate(54 10060.6 10244.6)">
<text x="10060.6" y="10441.4"
textLength="1276.62" font-size="524.934" lengthAdjust="spacingAndGlyphs"
text-anchor="middle" opacity="0">SW1</text>
</g>
<path d="M9623 9913
L9640 9970
L9696 10045
L9733 10065
L9759 10069
L9800 10062
L9831 10040
L9850 10003
L9854 9977
L9847 9935
L9818 9864
L9811 9822
L9816 9796
L9835 9759
L9865 9737
L9907 9730
L9933 9734
L9970 9753
L10025 9829
L10043 9886
" />
<path d="M10135 9981
L9872 10288
L10143 10183
L9960 10409
L10334 10254
" />
<path d="M10225 10773
L10092 10591
" />
<path d="M10158 10682
L10477 10451
L10409 10454
L10357 10445
L10320 10426
" />
<g transform="rotate(18 14756.2 11573.6)">
<text x="14756.2" y="11770.5"
textLength="845.426" font-size="524.934" lengthAdjust="spacingAndGlyphs"
text-anchor="middle" opacity="0">C1</text>
</g>
<path d="M14650 11687
L14626 11699
L14567 11699
L14531 11687
L14484 11652
L14459 11605
L14453 11564
L14459 11486
L14476 11433
L14517 11367
L14546 11338
L14594 11313
L14653 11313
L14689 11325
L14736 11360
L14748 11383
" />
<path d="M14995 11838
L14781 11769
" />
<path d="M14888 11803
L15010 11429
L14956 11471
L14909 11495
L14868 11501
" />
<g transform="rotate(18 18667.5 8282.56)">
<text x="18667.5" y="8479.41"
textLength="751.687" font-size="524.934" lengthAdjust="spacingAndGlyphs"
text-anchor="middle" opacity="0">J1</text>
</g>
<path d="M18609 8036
L18522 8304
L18487 8352
L18439 8376
L18380 8376
L18345 8365
" />
<path d="M18862 8533
L18648 8463
" />
<path d="M18755 8498
L18876 8123
L18823 8165
L18776 8189
L18735 8196
" />
<g transform="rotate(-90 10204.5 15653.3)">
<text x="10204.5" y="15850.2"
textLength="751.687" font-size="524.934" lengthAdjust="spacingAndGlyphs"
text-anchor="middle" opacity="0">J2</text>
</g>
<path d="M9988 15784
L10270 15784
L10326 15803
L10363 15840
L10382 15897
L10382 15934
" />
<path d="M10026 15615
L10007 15597
L9988 15559
L9988 15465
L10007 15428
L10026 15409
L10063 15390
L10101 15390
L10157 15409
L10382 15634
L10382 15390
" />
<g transform="rotate(-90 14571.5 2644.83)">
<text x="14571.5" y="2841.68"
textLength="751.687" font-size="524.934" lengthAdjust="spacingAndGlyphs"
text-anchor="middle" opacity="0">J3</text>
</g>
<path d="M14355 2776
L14637 2776
L14693 2794
L14730 2832
L14749 2888
L14749 2926
" />
<path d="M14355 2626
L14355 2382
L14505 2513
L14505 2457
L14524 2419
L14543 2401
L14580 2382
L14674 2382
L14712 2401
L14730 2419
L14749 2457
L14749 2569
L14730 2607
L14712 2626
" />
<g transform="rotate(18 4946.23 8415.92)">
<text x="4946.23" y="8612.77"
textLength="751.687" font-size="524.934" lengthAdjust="spacingAndGlyphs"
text-anchor="middle" opacity="0">J4</text>
</g>
<path d="M4888 8170
L4801 8437
L4765 8485
L4718 8509
L4659 8509
L4623 8498
" />
<path d="M5186 8405
L5105 8654
" />
<path d="M5143 8233
L4967 8472
L5199 8547
" />
<g transform="rotate(-36 9394.03 6471.24)">
<text x="9394.03" y="6668.09"
textLength="1145.39" font-size="524.934" lengthAdjust="spacingAndGlyphs"
text-anchor="middle" opacity="0">JP1</text>
</g>
<path d="M9001 6489
L9167 6717
L9185 6773
L9176 6826
L9142 6874
L9111 6896
" />
<path d="M9384 6697
L9153 6379
L9274 6291
L9316 6284
L9342 6288
L9379 6307
L9412 6353
L9419 6394
L9415 6420
L9396 6458
L9274 6546
" />
<path d="M9870 6345
L9688 6477
" />
<path d="M9779 6411
L9547 6092
L9550 6160
L9542 6212
L9523 6250
" />
<g transform="rotate(-36 12544 11021.2)">
<text x="12544" y="11218.1"
textLength="1145.39" font-size="524.934" lengthAdjust="spacingAndGlyphs"
text-anchor="middle" opacity="0">JP2</text>
</g>
<path d="M12151 11039
L12317 11267
L12335 11323
L12326 11376
L12292 11424
L12261 11446
" />
<path d="M12534 11247
L12303 10929
L12424 10841
L12466 10834
L12492 10838
L12529 10857
L12562 10903
L12569 10944
L12565 10970
L12546 11008
L12424 11096
" />
<path d="M12628 10739
L12633 10713
L12652 10676
L12728 10620
L12769 10614
L12795 10618
L12832 10637
L12855 10667
L12872 10724
L12823 11038
L13020 10895
" />
<g transform="rotate(-90 10199.2 4894.56)">
<text x="10199.2" y="5091.41"
textLength="845.426" font-size="524.934" lengthAdjust="spacingAndGlyphs"
text-anchor="middle" opacity="0">C3</text>
</g>
<path d="M10339 4960
L10358 4978
L10377 5035
L10377 5072
L10358 5128
L10321 5166
L10283 5185
L10208 5203
L10152 5203
L10077 5185
L10039 5166
L10002 5128
L9983 5072
L9983 5035
L10002 4978
L10021 4960
" />
<path d="M9983 4828
L9983 4585
L10133 4716
L10133 4660
L10152 4622
L10171 4603
L10208 4585
L10302 4585
L10339 4603
L10358 4622
L10377 4660
L10377 4772
L10358 4810
L10339 4828
" />
<g transform="rotate(-72 16310.6 7544.56)">
<text x="16310.6" y="7741.41"
textLength="845.426" font-size="524.934" lengthAdjust="spacingAndGlyphs"
text-anchor="middle" opacity="0">D1</text>
</g>
<path d="M16390 7875
L16015 7754
L16044 7665
L16079 7617
L16127 7593
L16168 7587
L16245 7592
L16299 7609
L16364 7650
L16394 7680
L16418 7727
L16419 7786
L16390 7875
" />
<path d="M16575 7305
L16506 7519
" />
<path d="M16540 7412
L16166 7290
L16208 7343
L16232 7391
L16238 7432
" />
<text x="10962.8" y="14844.1"
textLength="845.426" font-size="524.934" lengthAdjust="spacingAndGlyphs"
text-anchor="middle" opacity="0">D2</text>
<path d="M10672 14825
L10672 14431
L10765 14431
L10822 14450
L10859 14487
L10878 14525
L10897 14600
L10897 14656
L10878 14731
L10859 14769
L10822 14806
L10765 14825
L10672 14825
" />
<path d="M11047 14469
L11065 14450
L11103 14431
L11197 14431
L11234 14450
L11253 14469
L11272 14506
L11272 14544
L11253 14600
L11028 14825
L11272 14825
" />
<text x="12728.1" y="6675.72"
textLength="845.426" font-size="524.934" lengthAdjust="spacingAndGlyphs"
text-anchor="middle" opacity="0">D3</text>
<path d="M12437 6656
L12437 6263
L12531 6263
L12587 6282
L12624 6319
L12643 6357
L12662 6431
L12662 6488
L12643 6563
L12624 6600
L12587 6638
L12531 6656
L12437 6656
" />
<path d="M12793 6263
L13037 6263
L12906 6413
L12962 6413
L12999 6431
L13018 6450
L13037 6488
L13037 6581
L13018 6619
L12999 6638
L12962 6656
L12849 6656
L12812 6638
L12793 6619
" />
<g transform="rotate(-72 8699.87 9877.4)">
<text x="8699.87" y="10074.2"
textLength="845.426" font-size="524.934" lengthAdjust="spacingAndGlyphs"
text-anchor="middle" opacity="0">D4</text>
</g>
<path d="M8779 10208
L8405 10087
L8433 9997
L8469 9950
L8516 9926
L8557 9919
L8635 9925
L8688 9942
L8754 9983
L8783 10013
L8807 10060
L8808 10119
L8779 10208
" />
<path d="M8703 9592
L8953 9673
" />
<path d="M8532 9635
L8770 9811
L8845 9579
" />
<g >
</g>
</g>
<g style="fill:#000000; fill-opacity:0.0; 
stroke:#000000; stroke-width:59.0551; stroke-opacity:1; 
stroke-linecap:round; stroke-linejoin:round;">
</g>
<g style="fill:#000000; fill-opacity:0.0; 
stroke:#000000; stroke-width:78.7402; stroke-opacity:1; 
stroke-linecap:round; stroke-linejoin:round;">
<path d="M1239 16637
L16987 16637
" />
<path d="M16987 16637
L21854 1660
" />
<path d="M21854 1660
L6106 1660
" />
<path d="M6106 1660
L1239 16637
" />
<g >
</g>
<g >
</g>
<g >
</g>
<g >
</g>
<g >
</g>
<g >
</g>
<g >
</g>
<g >
</g>
<g >
</g>
<g >
</g>
<g >
</g>
<g >
</g>
<g >
</g>
<g >
</g>
<g >
</g>
<g >
</g>
<g >
</g>
<g >
</g>
<g >
</g>
<g >
</g>
<g >
</g>
<g >
</g>
</g> 
</svg>
