<?xml version="1.0" standalone="no"?>
 <!DOCTYPE svg PUBLIC "-//W3C//DTD SVG 1.1//EN" 
 "http://www.w3.org/Graphics/SVG/1.1/DTD/svg11.dtd"> 
<svg
  xmlns:svg="http://www.w3.org/2000/svg"
  xmlns="http://www.w3.org/2000/svg"
  xmlns:xlink="http://www.w3.org/1999/xlink"
  version="1.1"
  width="7.254240cm" height="3.383280cm" viewBox="0 0 28560 13320">
<title>SVG Picture created as penroserombus_thin_40mm-brd.svg date 2021/01/21 16:59:31 </title>
  <desc>Picture generated by PCBNEW </desc>
<g style="fill:#000000; fill-opacity:1;stroke:#000000; stroke-opacity:1;
stroke-linecap:round; stroke-linejoin:round;"
 transform="translate(0 0) scale(1 1)">
</g>
<g style="fill:#000000; fill-opacity:0.0; 
stroke:#000000; stroke-width:-0.000393701; stroke-opacity:1; 
stroke-linecap:round; stroke-linejoin:round;">
<g >
</g>
<g style="fill:#000000; fill-opacity:1.0; 
stroke:#000000; stroke-width:0; stroke-opacity:1; 
stroke-linecap:round; stroke-linejoin:round;">
<circle cx="13741.7" cy="10110.6" r="413.386" /> 
</g>
<g style="fill:#000000; fill-opacity:1.0; 
stroke:#000000; stroke-width:39.3701; stroke-opacity:1; 
stroke-linecap:round; stroke-linejoin:round;">
</g>
<g >
</g>
<g style="fill:#000000; fill-opacity:1.0; 
stroke:#000000; stroke-width:39.3701; stroke-opacity:1; 
stroke-linecap:round; stroke-linejoin:round;">
</g>
<g style="fill:#000000; fill-opacity:1.0; 
stroke:#000000; stroke-width:0; stroke-opacity:1; 
stroke-linecap:round; stroke-linejoin:round;">
<circle cx="14825.5" cy="3216.36" r="413.386" /> 
</g>
<g style="fill:#000000; fill-opacity:1.0; 
stroke:#000000; stroke-width:39.3701; stroke-opacity:1; 
stroke-linecap:round; stroke-linejoin:round;">
</g>
<g >
</g>
<g style="fill:#000000; fill-opacity:1.0; 
stroke:#000000; stroke-width:39.3701; stroke-opacity:1; 
stroke-linecap:round; stroke-linejoin:round;">
</g>
<g style="fill:#000000; fill-opacity:1.0; 
stroke:#000000; stroke-width:0; stroke-opacity:1; 
stroke-linecap:round; stroke-linejoin:round;">
<path style="fill:#000000; fill-opacity:1.0; 
stroke:#000000; stroke-width:0; stroke-opacity:1; 
stroke-linecap:round; stroke-linejoin:round;fill-rule:evenodd;"
d="M 20078.5,6744.55
20309.9,7063.06
19832.2,7410.18
19600.8,7091.67
Z" /> 
<path style="fill:#000000; fill-opacity:1.0; 
stroke:#000000; stroke-width:0; stroke-opacity:1; 
stroke-linecap:round; stroke-linejoin:round;fill-rule:evenodd;"
d="M 19338,5725.32
19569.4,6043.83
19091.7,6390.94
18860.2,6072.43
Z" /> 
<path style="fill:#000000; fill-opacity:1.0; 
stroke:#000000; stroke-width:0; stroke-opacity:1; 
stroke-linecap:round; stroke-linejoin:round;fill-rule:evenodd;"
d="M 18517.8,7878.47
18749.2,8196.98
18271.5,8544.1
18040.1,8225.58
Z" /> 
<path style="fill:#000000; fill-opacity:1.0; 
stroke:#000000; stroke-width:0; stroke-opacity:1; 
stroke-linecap:round; stroke-linejoin:round;fill-rule:evenodd;"
d="M 17777.3,6859.23
18008.7,7177.74
17531,7524.86
17299.5,7206.35
Z" /> 
</g>
<g >
</g>
<g style="fill:#000000; fill-opacity:1.0; 
stroke:#000000; stroke-width:0; stroke-opacity:1; 
stroke-linecap:round; stroke-linejoin:round;">
<path style="fill:#000000; fill-opacity:1.0; 
stroke:#000000; stroke-width:0; stroke-opacity:1; 
stroke-linecap:round; stroke-linejoin:round;fill-rule:evenodd;"
d="M 11737.2,5372.25
11746.8,5373.29
11756.2,5375.27
11765.4,5378.16
11774.3,5381.95
11782.8,5386.58
11790.8,5392.03
11798.2,5398.23
11804.9,5405.13
11811,5412.65
11967.2,5627.65
11972.5,5635.73
11977,5644.29
11980.6,5653.25
11983.3,5662.52
11985.1,5672.01
11985.9,5681.64
11985.8,5691.29
11984.8,5700.9
11982.8,5710.35
11979.9,5719.57
11976.1,5728.45
11971.5,5736.93
11966.1,5744.91
11959.9,5752.31
11953,5759.07
11945.4,5765.13
11642.8,5984.97
11634.8,5990.26
11626.2,5994.73
11617.2,5998.33
11608,6001.05
11598.5,6002.84
11588.9,6003.69
11579.2,6003.6
11569.6,6002.55
11560.1,6000.58
11550.9,5997.68
11542,5993.9
11533.6,5989.26
11525.6,5983.82
11518.2,5977.62
11511.4,5970.72
11505.4,5963.19
11349.2,5748.2
11343.9,5740.12
11339.4,5731.55
11335.8,5722.59
11333.1,5713.32
11331.3,5703.83
11330.4,5694.21
11330.5,5684.55
11331.6,5674.95
11333.6,5665.5
11336.4,5656.28
11340.2,5647.39
11344.9,5638.92
11350.3,5630.94
11356.5,5623.54
11363.4,5616.77
11370.9,5610.72
11673.5,5390.88
11681.6,5385.59
11690.2,5381.12
11699.1,5377.51
11708.4,5374.8
11717.9,5373.01
11727.5,5372.16
Z" /> 
<path style="fill:#000000; fill-opacity:1.0; 
stroke:#000000; stroke-width:0; stroke-opacity:1; 
stroke-linecap:round; stroke-linejoin:round;fill-rule:evenodd;"
d="M 11257,4711.34
11266.6,4712.38
11276,4714.36
11285.3,4717.25
11294.1,4721.04
11302.6,4725.68
11310.6,4731.12
11318,4737.32
11324.8,4744.22
11330.8,4751.74
11487,4966.74
11492.3,4974.82
11496.8,4983.38
11500.4,4992.34
11503.1,5001.61
11504.9,5011.11
11505.7,5020.73
11505.7,5030.39
11504.6,5039.99
11502.6,5049.44
11499.7,5058.66
11496,5067.54
11491.3,5076.02
11485.9,5084
11479.7,5091.4
11472.8,5098.16
11465.3,5104.22
11162.7,5324.06
11154.6,5329.35
11146,5333.82
11137.1,5337.42
11127.8,5340.14
11118.3,5341.93
11108.7,5342.78
11099,5342.69
11089.4,5341.65
11080,5339.67
11070.7,5336.77
11061.9,5332.99
11053.4,5328.35
11045.4,5322.91
11038,5316.71
11031.2,5309.81
11025.2,5302.28
10869,5087.29
10863.7,5079.21
10859.2,5070.64
10855.6,5061.68
10852.9,5052.41
10851.1,5042.92
10850.3,5033.3
10850.4,5023.64
10851.4,5014.04
10853.4,5004.59
10856.3,4995.37
10860.1,4986.48
10864.7,4978.01
10870.1,4970.03
10876.3,4962.63
10883.2,4955.86
10890.8,4949.81
11193.3,4729.97
11201.4,4724.68
11210,4720.21
11218.9,4716.6
11228.2,4713.89
11237.7,4712.1
11247.3,4711.25
Z" /> 
</g>
<g >
</g>
<g style="fill:#000000; fill-opacity:1.0; 
stroke:#000000; stroke-width:0; stroke-opacity:1; 
stroke-linecap:round; stroke-linejoin:round;">
<circle cx="3334.37" cy="10221.1" r="413.386" /> 
</g>
<g style="fill:#000000; fill-opacity:1.0; 
stroke:#000000; stroke-width:39.3701; stroke-opacity:1; 
stroke-linecap:round; stroke-linejoin:round;">
</g>
<g >
</g>
<g style="fill:#000000; fill-opacity:1.0; 
stroke:#000000; stroke-width:39.3701; stroke-opacity:1; 
stroke-linecap:round; stroke-linejoin:round;">
</g>
<g style="fill:#000000; fill-opacity:1.0; 
stroke:#000000; stroke-width:0; stroke-opacity:1; 
stroke-linecap:round; stroke-linejoin:round;">
<circle cx="25232.8" cy="3105.87" r="413.386" /> 
</g>
<g style="fill:#000000; fill-opacity:1.0; 
stroke:#000000; stroke-width:39.3701; stroke-opacity:1; 
stroke-linecap:round; stroke-linejoin:round;">
</g>
<g >
</g>
<g style="fill:#000000; fill-opacity:1.0; 
stroke:#000000; stroke-width:39.3701; stroke-opacity:1; 
stroke-linecap:round; stroke-linejoin:round;">
</g>
<g style="fill:#000000; fill-opacity:1.0; 
stroke:#000000; stroke-width:0; stroke-opacity:1; 
stroke-linecap:round; stroke-linejoin:round;">
<circle cx="15252.1" cy="9644.22" r="226.378" /> 
</g>
<g style="fill:#000000; fill-opacity:1.0; 
stroke:#000000; stroke-width:39.3701; stroke-opacity:1; 
stroke-linecap:round; stroke-linejoin:round;">
</g>
<g >
</g>
<g style="fill:#000000; fill-opacity:1.0; 
stroke:#000000; stroke-width:39.3701; stroke-opacity:1; 
stroke-linecap:round; stroke-linejoin:round;">
</g>
<g style="fill:#000000; fill-opacity:1.0; 
stroke:#000000; stroke-width:0; stroke-opacity:1; 
stroke-linecap:round; stroke-linejoin:round;">
<circle cx="13315.1" cy="3682.76" r="226.378" /> 
</g>
<g style="fill:#000000; fill-opacity:1.0; 
stroke:#000000; stroke-width:39.3701; stroke-opacity:1; 
stroke-linecap:round; stroke-linejoin:round;">
</g>
<g >
</g>
<g style="fill:#000000; fill-opacity:1.0; 
stroke:#000000; stroke-width:39.3701; stroke-opacity:1; 
stroke-linecap:round; stroke-linejoin:round;">
</g>
<g style="fill:#000000; fill-opacity:1.0; 
stroke:#000000; stroke-width:0; stroke-opacity:1; 
stroke-linecap:round; stroke-linejoin:round;">
<path style="fill:#000000; fill-opacity:1.0; 
stroke:#000000; stroke-width:0; stroke-opacity:1; 
stroke-linecap:round; stroke-linejoin:round;fill-rule:evenodd;"
d="M 14485.9,5047.39
14897.8,4913.56
15135,5643.71
14723.2,5777.53
Z" /> 
<path style="fill:#000000; fill-opacity:1.0; 
stroke:#000000; stroke-width:0; stroke-opacity:1; 
stroke-linecap:round; stroke-linejoin:round;fill-rule:evenodd;"
d="M 13549.8,5351.54
13961.7,5217.72
14199,5947.86
13787.1,6081.68
Z" /> 
<path style="fill:#000000; fill-opacity:1.0; 
stroke:#000000; stroke-width:0; stroke-opacity:1; 
stroke-linecap:round; stroke-linejoin:round;fill-rule:evenodd;"
d="M 12613.8,5655.69
13025.6,5521.87
13262.9,6252.01
12851,6385.83
Z" /> 
<path style="fill:#000000; fill-opacity:1.0; 
stroke:#000000; stroke-width:0; stroke-opacity:1; 
stroke-linecap:round; stroke-linejoin:round;fill-rule:evenodd;"
d="M 15173.3,7162.93
15585.2,7029.1
15822.4,7759.25
15410.5,7893.07
Z" /> 
<path style="fill:#000000; fill-opacity:1.0; 
stroke:#000000; stroke-width:0; stroke-opacity:1; 
stroke-linecap:round; stroke-linejoin:round;fill-rule:evenodd;"
d="M 14237.2,7467.08
14649.1,7333.25
14886.3,8063.4
14474.5,8197.22
Z" /> 
<path style="fill:#000000; fill-opacity:1.0; 
stroke:#000000; stroke-width:0; stroke-opacity:1; 
stroke-linecap:round; stroke-linejoin:round;fill-rule:evenodd;"
d="M 13301.1,7771.23
13713,7637.41
13950.3,8367.55
13538.4,8501.37
Z" /> 
</g>
<g >
</g>
<g style="fill:#000000; fill-opacity:1.0; 
stroke:#000000; stroke-width:0; stroke-opacity:1; 
stroke-linecap:round; stroke-linejoin:round;">
<path style="fill:#000000; fill-opacity:1.0; 
stroke:#000000; stroke-width:0; stroke-opacity:1; 
stroke-linecap:round; stroke-linejoin:round;fill-rule:evenodd;"
d="M 16404.5,3191.74
16404.5,2798.04
16995,2798.04
16995,3191.74
Z" /> 
<path style="fill:#000000; fill-opacity:1.0; 
stroke:#000000; stroke-width:0; stroke-opacity:1; 
stroke-linecap:round; stroke-linejoin:round;fill-rule:evenodd;"
d="M 16404.5,4451.58
16404.5,4057.88
16995,4057.88
16995,4451.58
Z" /> 
<path style="fill:#000000; fill-opacity:1.0; 
stroke:#000000; stroke-width:0; stroke-opacity:1; 
stroke-linecap:round; stroke-linejoin:round;fill-rule:evenodd;"
d="M 18333.6,3191.74
18333.6,2798.04
18924.1,2798.04
18924.1,3191.74
Z" /> 
<path style="fill:#000000; fill-opacity:1.0; 
stroke:#000000; stroke-width:0; stroke-opacity:1; 
stroke-linecap:round; stroke-linejoin:round;fill-rule:evenodd;"
d="M 18333.6,4451.58
18333.6,4057.88
18924.1,4057.88
18924.1,4451.58
Z" /> 
</g>
<g >
</g>
<g style="fill:#000000; fill-opacity:1.0; 
stroke:#000000; stroke-width:0; stroke-opacity:1; 
stroke-linecap:round; stroke-linejoin:round;">
<path style="fill:#000000; fill-opacity:1.0; 
stroke:#000000; stroke-width:0; stroke-opacity:1; 
stroke-linecap:round; stroke-linejoin:round;fill-rule:evenodd;"
d="M 10233.6,8875.4
10233.6,9269.1
9643.05,9269.1
9643.05,8875.4
Z" /> 
<path style="fill:#000000; fill-opacity:1.0; 
stroke:#000000; stroke-width:0; stroke-opacity:1; 
stroke-linecap:round; stroke-linejoin:round;fill-rule:evenodd;"
d="M 10233.6,10135.2
10233.6,10528.9
9643.05,10528.9
9643.05,10135.2
Z" /> 
<path style="fill:#000000; fill-opacity:1.0; 
stroke:#000000; stroke-width:0; stroke-opacity:1; 
stroke-linecap:round; stroke-linejoin:round;fill-rule:evenodd;"
d="M 12162.7,8875.4
12162.7,9269.1
11572.2,9269.1
11572.2,8875.4
Z" /> 
<path style="fill:#000000; fill-opacity:1.0; 
stroke:#000000; stroke-width:0; stroke-opacity:1; 
stroke-linecap:round; stroke-linejoin:round;fill-rule:evenodd;"
d="M 12162.7,10135.2
12162.7,10528.9
11572.2,10528.9
11572.2,10135.2
Z" /> 
</g>
<g >
</g>
<g style="fill:#000000; fill-opacity:1.0; 
stroke:#000000; stroke-width:0; stroke-opacity:1; 
stroke-linecap:round; stroke-linejoin:round;">
<path style="fill:#000000; fill-opacity:1.0; 
stroke:#000000; stroke-width:0; stroke-opacity:1; 
stroke-linecap:round; stroke-linejoin:round;fill-rule:evenodd;"
d="M 17437.2,7972.25
17446.8,7973.29
17456.2,7975.27
17465.4,7978.16
17474.3,7981.95
17482.8,7986.58
17490.8,7992.03
17498.2,7998.23
17504.9,8005.13
17511,8012.65
17667.2,8227.65
17672.5,8235.73
17677,8244.29
17680.6,8253.25
17683.3,8262.52
17685.1,8272.01
17685.9,8281.64
17685.8,8291.29
17684.8,8300.9
17682.8,8310.35
17679.9,8319.57
17676.1,8328.45
17671.5,8336.93
17666.1,8344.91
17659.9,8352.31
17653,8359.07
17645.4,8365.13
17342.8,8584.97
17334.8,8590.26
17326.2,8594.73
17317.2,8598.33
17308,8601.05
17298.5,8602.84
17288.9,8603.69
17279.2,8603.6
17269.6,8602.55
17260.1,8600.58
17250.9,8597.68
17242,8593.9
17233.6,8589.26
17225.6,8583.82
17218.2,8577.62
17211.4,8570.72
17205.4,8563.19
17049.2,8348.2
17043.9,8340.12
17039.4,8331.55
17035.8,8322.59
17033.1,8313.32
17031.3,8303.83
17030.4,8294.21
17030.5,8284.55
17031.6,8274.95
17033.6,8265.5
17036.4,8256.28
17040.2,8247.39
17044.9,8238.92
17050.3,8230.94
17056.5,8223.54
17063.4,8216.77
17070.9,8210.72
17373.5,7990.88
17381.6,7985.59
17390.2,7981.12
17399.1,7977.51
17408.4,7974.8
17417.9,7973.01
17427.5,7972.16
Z" /> 
<path style="fill:#000000; fill-opacity:1.0; 
stroke:#000000; stroke-width:0; stroke-opacity:1; 
stroke-linecap:round; stroke-linejoin:round;fill-rule:evenodd;"
d="M 16957,7311.34
16966.6,7312.38
16976,7314.36
16985.3,7317.25
16994.1,7321.04
17002.6,7325.68
17010.6,7331.12
17018,7337.32
17024.8,7344.22
17030.8,7351.74
17187,7566.74
17192.3,7574.82
17196.8,7583.38
17200.4,7592.34
17203.1,7601.61
17204.9,7611.11
17205.7,7620.73
17205.7,7630.39
17204.6,7639.99
17202.6,7649.44
17199.7,7658.66
17196,7667.54
17191.3,7676.02
17185.9,7684
17179.7,7691.4
17172.8,7698.16
17165.3,7704.22
16862.7,7924.06
16854.6,7929.35
16846,7933.82
16837.1,7937.42
16827.8,7940.14
16818.3,7941.93
16808.7,7942.78
16799,7942.69
16789.4,7941.65
16780,7939.67
16770.7,7936.77
16761.9,7932.99
16753.4,7928.35
16745.4,7922.91
16738,7916.71
16731.2,7909.81
16725.2,7902.28
16569,7687.29
16563.7,7679.21
16559.2,7670.64
16555.6,7661.68
16552.9,7652.41
16551.1,7642.92
16550.3,7633.3
16550.4,7623.64
16551.4,7614.04
16553.4,7604.59
16556.3,7595.37
16560.1,7586.48
16564.7,7578.01
16570.1,7570.03
16576.3,7562.63
16583.2,7555.86
16590.8,7549.81
16893.3,7329.97
16901.4,7324.68
16910,7320.21
16918.9,7316.6
16928.2,7313.89
16937.7,7312.1
16947.3,7311.25
Z" /> 
</g>
<g >
</g>
<g style="fill:#000000; fill-opacity:1.0; 
stroke:#000000; stroke-width:0; stroke-opacity:1; 
stroke-linecap:round; stroke-linejoin:round;">
<path style="fill:#000000; fill-opacity:1.0; 
stroke:#000000; stroke-width:0; stroke-opacity:1; 
stroke-linecap:round; stroke-linejoin:round;fill-rule:evenodd;"
d="M 9264.75,8868.18
9274.3,8869.6
9283.67,8871.94
9292.77,8875.2
9301.5,8879.33
9309.78,8884.29
9317.54,8890.05
9324.7,8896.53
9331.18,8903.69
9336.94,8911.45
9341.9,8919.73
9346.03,8928.46
9349.29,8937.56
9351.63,8946.93
9353.05,8956.48
9353.53,8966.13
9353.53,9231.88
9353.05,9241.53
9351.63,9251.08
9349.29,9260.45
9346.03,9269.54
9341.9,9278.28
9336.94,9286.56
9331.18,9294.32
9324.7,9301.48
9317.54,9307.96
9309.78,9313.72
9301.5,9318.68
9292.77,9322.81
9283.67,9326.07
9274.3,9328.41
9264.75,9329.83
9255.1,9330.3
8881.09,9330.3
8871.44,9329.83
8861.88,9328.41
8852.51,9326.07
8843.42,9322.81
8834.69,9318.68
8826.4,9313.72
8818.64,9307.96
8811.49,9301.48
8805,9294.32
8799.25,9286.56
8794.28,9278.28
8790.15,9269.54
8786.9,9260.45
8784.55,9251.08
8783.13,9241.53
8782.66,9231.88
8782.66,8966.13
8783.13,8956.48
8784.55,8946.93
8786.9,8937.56
8790.15,8928.46
8794.28,8919.73
8799.25,8911.45
8805,8903.69
8811.49,8896.53
8818.64,8890.05
8826.4,8884.29
8834.69,8879.33
8843.42,8875.2
8852.51,8871.94
8861.88,8869.6
8871.44,8868.18
8881.09,8867.71
9255.1,8867.71
Z" /> 
<path style="fill:#000000; fill-opacity:1.0; 
stroke:#000000; stroke-width:0; stroke-opacity:1; 
stroke-linecap:round; stroke-linejoin:round;fill-rule:evenodd;"
d="M 9264.75,9685.11
9274.3,9686.53
9283.67,9688.87
9292.77,9692.13
9301.5,9696.26
9309.78,9701.22
9317.54,9706.98
9324.7,9713.46
9331.18,9720.62
9336.94,9728.38
9341.9,9736.66
9346.03,9745.39
9349.29,9754.49
9351.63,9763.86
9353.05,9773.41
9353.53,9783.06
9353.53,10048.8
9353.05,10058.5
9351.63,10068
9349.29,10077.4
9346.03,10086.5
9341.9,10095.2
9336.94,10103.5
9331.18,10111.2
9324.7,10118.4
9317.54,10124.9
9309.78,10130.6
9301.5,10135.6
9292.77,10139.7
9283.67,10143
9274.3,10145.3
9264.75,10146.8
9255.1,10147.2
8881.09,10147.2
8871.44,10146.8
8861.88,10145.3
8852.51,10143
8843.42,10139.7
8834.69,10135.6
8826.4,10130.6
8818.64,10124.9
8811.49,10118.4
8805,10111.2
8799.25,10103.5
8794.28,10095.2
8790.15,10086.5
8786.9,10077.4
8784.55,10068
8783.13,10058.5
8782.66,10048.8
8782.66,9783.06
8783.13,9773.41
8784.55,9763.86
8786.9,9754.49
8790.15,9745.39
8794.28,9736.66
8799.25,9728.38
8805,9720.62
8811.49,9713.46
8818.64,9706.98
8826.4,9701.22
8834.69,9696.26
8843.42,9692.13
8852.51,9688.87
8861.88,9686.53
8871.44,9685.11
8881.09,9684.63
9255.1,9684.63
Z" /> 
</g>
<g >
</g>
<g style="fill:#000000; fill-opacity:1.0; 
stroke:#000000; stroke-width:0; stroke-opacity:1; 
stroke-linecap:round; stroke-linejoin:round;">
<path style="fill:#000000; fill-opacity:1.0; 
stroke:#000000; stroke-width:0; stroke-opacity:1; 
stroke-linecap:round; stroke-linejoin:round;fill-rule:evenodd;"
d="M 6116.75,7679.53
6658.22,7286.13
7051.62,7827.6
6510.15,8221
Z" /> 
<circle cx="5775.17" cy="8341.35" r="334.646" /> 
<circle cx="4966.15" cy="8929.14" r="334.646" /> 
</g>
<g >
</g>
<g style="fill:#000000; fill-opacity:1.0; 
stroke:#000000; stroke-width:0; stroke-opacity:1; 
stroke-linecap:round; stroke-linejoin:round;">
<path style="fill:#000000; fill-opacity:1.0; 
stroke:#000000; stroke-width:0; stroke-opacity:1; 
stroke-linecap:round; stroke-linejoin:round;fill-rule:evenodd;"
d="M 19664.7,3268.18
19674.3,3269.6
19683.7,3271.94
19692.8,3275.2
19701.5,3279.33
19709.8,3284.29
19717.5,3290.05
19724.7,3296.53
19731.2,3303.69
19736.9,3311.45
19741.9,3319.73
19746,3328.46
19749.3,3337.56
19751.6,3346.93
19753.1,3356.48
19753.5,3366.13
19753.5,3631.88
19753.1,3641.53
19751.6,3651.08
19749.3,3660.45
19746,3669.54
19741.9,3678.28
19736.9,3686.56
19731.2,3694.32
19724.7,3701.48
19717.5,3707.96
19709.8,3713.72
19701.5,3718.68
19692.8,3722.81
19683.7,3726.07
19674.3,3728.41
19664.7,3729.83
19655.1,3730.3
19281.1,3730.3
19271.4,3729.83
19261.9,3728.41
19252.5,3726.07
19243.4,3722.81
19234.7,3718.68
19226.4,3713.72
19218.6,3707.96
19211.5,3701.48
19205,3694.32
19199.2,3686.56
19194.3,3678.28
19190.2,3669.54
19186.9,3660.45
19184.6,3651.08
19183.1,3641.53
19182.7,3631.88
19182.7,3366.13
19183.1,3356.48
19184.6,3346.93
19186.9,3337.56
19190.2,3328.46
19194.3,3319.73
19199.2,3311.45
19205,3303.69
19211.5,3296.53
19218.6,3290.05
19226.4,3284.29
19234.7,3279.33
19243.4,3275.2
19252.5,3271.94
19261.9,3269.6
19271.4,3268.18
19281.1,3267.71
19655.1,3267.71
Z" /> 
<path style="fill:#000000; fill-opacity:1.0; 
stroke:#000000; stroke-width:0; stroke-opacity:1; 
stroke-linecap:round; stroke-linejoin:round;fill-rule:evenodd;"
d="M 19664.7,4085.11
19674.3,4086.53
19683.7,4088.87
19692.8,4092.13
19701.5,4096.26
19709.8,4101.22
19717.5,4106.98
19724.7,4113.46
19731.2,4120.62
19736.9,4128.38
19741.9,4136.66
19746,4145.39
19749.3,4154.49
19751.6,4163.86
19753.1,4173.41
19753.5,4183.06
19753.5,4448.81
19753.1,4458.45
19751.6,4468.01
19749.3,4477.38
19746,4486.47
19741.9,4495.2
19736.9,4503.49
19731.2,4511.25
19724.7,4518.4
19717.5,4524.89
19709.8,4530.64
19701.5,4535.61
19692.8,4539.74
19683.7,4542.99
19674.3,4545.34
19664.7,4546.76
19655.1,4547.23
19281.1,4547.23
19271.4,4546.76
19261.9,4545.34
19252.5,4542.99
19243.4,4539.74
19234.7,4535.61
19226.4,4530.64
19218.6,4524.89
19211.5,4518.4
19205,4511.25
19199.2,4503.49
19194.3,4495.2
19190.2,4486.47
19186.9,4477.38
19184.6,4468.01
19183.1,4458.45
19182.7,4448.81
19182.7,4183.06
19183.1,4173.41
19184.6,4163.86
19186.9,4154.49
19190.2,4145.39
19194.3,4136.66
19199.2,4128.38
19205,4120.62
19211.5,4113.46
19218.6,4106.98
19226.4,4101.22
19234.7,4096.26
19243.4,4092.13
19252.5,4088.87
19261.9,4086.53
19271.4,4085.11
19281.1,4084.63
19655.1,4084.63
Z" /> 
</g>
<g >
</g>
<g style="fill:#000000; fill-opacity:1.0; 
stroke:#000000; stroke-width:0; stroke-opacity:1; 
stroke-linecap:round; stroke-linejoin:round;">
<path style="fill:#000000; fill-opacity:1.0; 
stroke:#000000; stroke-width:0; stroke-opacity:1; 
stroke-linecap:round; stroke-linejoin:round;fill-rule:evenodd;"
d="M 10789.9,6467.75
10558.5,6149.24
11036.2,5802.12
11267.7,6120.63
Z" /> 
<path style="fill:#000000; fill-opacity:1.0; 
stroke:#000000; stroke-width:0; stroke-opacity:1; 
stroke-linecap:round; stroke-linejoin:round;fill-rule:evenodd;"
d="M 10049.4,5448.51
9817.96,5130
10295.7,4782.89
10527.1,5101.4
Z" /> 
<path style="fill:#000000; fill-opacity:1.0; 
stroke:#000000; stroke-width:0; stroke-opacity:1; 
stroke-linecap:round; stroke-linejoin:round;fill-rule:evenodd;"
d="M 9229.19,7601.66
8997.78,7283.15
9475.54,6936.04
9706.96,7254.55
Z" /> 
<path style="fill:#000000; fill-opacity:1.0; 
stroke:#000000; stroke-width:0; stroke-opacity:1; 
stroke-linecap:round; stroke-linejoin:round;fill-rule:evenodd;"
d="M 8488.67,6582.43
8257.26,6263.92
8735.03,5916.8
8966.44,6235.31
Z" /> 
</g>
<g >
</g>
<g style="fill:#000000; fill-opacity:1.0; 
stroke:#000000; stroke-width:0; stroke-opacity:1; 
stroke-linecap:round; stroke-linejoin:round;">
<circle cx="23153.3" cy="3019.78" r="334.646" /> 
<circle cx="22153.3" cy="3019.78" r="334.646" /> 
<path style="fill:#000000; fill-opacity:1.0; 
stroke:#000000; stroke-width:0; stroke-opacity:1; 
stroke-linecap:round; stroke-linejoin:round;fill-rule:evenodd;"
d="M 21487.9,3354.42
20818.6,3354.42
20818.6,2685.13
21487.9,2685.13
Z" /> 
</g>
<g >
</g>
<g style="fill:#000000; fill-opacity:1.0; 
stroke:#000000; stroke-width:0; stroke-opacity:1; 
stroke-linecap:round; stroke-linejoin:round;">
<path style="fill:#000000; fill-opacity:1.0; 
stroke:#000000; stroke-width:0; stroke-opacity:1; 
stroke-linecap:round; stroke-linejoin:round;fill-rule:evenodd;"
d="M 7578.74,9972.82
8248.03,9972.82
8248.03,10642.1
7578.74,10642.1
Z" /> 
<circle cx="6913.39" cy="10307.5" r="334.646" /> 
<circle cx="5913.39" cy="10307.5" r="334.646" /> 
</g>
<g >
</g>
<g style="fill:#000000; fill-opacity:1.0; 
stroke:#000000; stroke-width:0; stroke-opacity:1; 
stroke-linecap:round; stroke-linejoin:round;">
<circle cx="23197.1" cy="4691.64" r="334.646" /> 
<circle cx="22388.1" cy="5279.43" r="334.646" /> 
<path style="fill:#000000; fill-opacity:1.0; 
stroke:#000000; stroke-width:0; stroke-opacity:1; 
stroke-linecap:round; stroke-linejoin:round;fill-rule:evenodd;"
d="M 22046.5,5941.25
21505.1,6334.65
21111.7,5793.18
21653.1,5399.78
Z" /> 
</g>
<g >
</g>
<g style="fill:#000000; fill-opacity:1.0; 
stroke:#000000; stroke-width:0; stroke-opacity:1; 
stroke-linecap:round; stroke-linejoin:round;">
<path style="fill:#000000; fill-opacity:1.0; 
stroke:#000000; stroke-width:0; stroke-opacity:1; 
stroke-linecap:round; stroke-linejoin:round;fill-rule:evenodd;"
d="M 14964.1,8457.66
15146.6,9019.3
14772.1,9140.96
14589.6,8579.32
Z" /> 
<path style="fill:#000000; fill-opacity:1.0; 
stroke:#000000; stroke-width:0; stroke-opacity:1; 
stroke-linecap:round; stroke-linejoin:round;fill-rule:evenodd;"
d="M 14472.5,9238.07
14463.3,9241.05
14444.4,9245.19
14425.3,9247.46
14405.9,9247.84
14386.7,9246.33
14367.7,9242.93
14349.1,9237.69
14331.1,9230.65
14313.9,9221.88
14297.6,9211.46
14282.4,9199.5
14268.5,9186.11
14256,9171.42
14244.9,9155.57
14235.5,9138.72
14227.7,9121.02
14224.8,9111.83
14224.5,9111.91
14163.7,8924.69
14163.9,8924.62
14160.9,8915.43
14156.8,8896.56
14154.5,8877.38
14154.2,8858.06
14155.7,8838.81
14159.1,8819.79
14164.3,8801.2
14171.3,8783.21
14180.1,8765.99
14190.5,8749.72
14202.5,8734.55
14215.9,8720.63
14230.6,8708.08
14246.4,8697.04
14263.3,8687.6
14281,8679.86
14290.2,8676.87
14290.1,8676.65
14496,8609.73
14678.5,9171.38
14472.6,9238.29
Z" /> 
<path style="fill:#000000; fill-opacity:1.0; 
stroke:#000000; stroke-width:0; stroke-opacity:1; 
stroke-linecap:round; stroke-linejoin:round;fill-rule:evenodd;"
d="M 15057.7,8427.24
15263.6,8360.33
15263.7,8360.55
15272.9,8357.57
15291.7,8353.43
15310.9,8351.16
15330.2,8350.78
15349.5,8352.29
15368.5,8355.69
15387.1,8360.93
15405.1,8367.98
15422.3,8376.75
15438.6,8387.16
15453.7,8399.12
15467.7,8412.51
15480.2,8427.2
15491.3,8443.05
15500.7,8459.9
15508.4,8477.6
15511.4,8486.79
15511.7,8486.71
15572.5,8673.93
15572.3,8674
15575.2,8683.19
15579.4,8702.06
15581.7,8721.24
15582,8740.56
15580.5,8759.82
15577.1,8778.83
15571.9,8797.43
15564.8,8815.41
15556.1,8832.63
15545.7,8848.9
15533.7,8864.07
15520.3,8877.99
15505.6,8890.54
15489.8,8901.59
15472.9,8911.02
15455.2,8918.77
15446,8921.75
15446.1,8921.98
15240.2,8988.89
Z" /> 
</g>
<g >
</g>
<g style="fill:#000000; fill-opacity:1.0; 
stroke:#000000; stroke-width:0; stroke-opacity:1; 
stroke-linecap:round; stroke-linejoin:round;">
<path style="fill:#000000; fill-opacity:1.0; 
stroke:#000000; stroke-width:0; stroke-opacity:1; 
stroke-linecap:round; stroke-linejoin:round;fill-rule:evenodd;"
d="M 13657.7,4185.4
13863.6,4118.49
13863.7,4118.71
13872.9,4115.73
13891.7,4111.59
13910.9,4109.32
13930.2,4108.94
13949.5,4110.45
13968.5,4113.85
13987.1,4119.09
14005.1,4126.13
14022.3,4134.9
14038.6,4145.32
14053.7,4157.28
14067.7,4170.67
14080.2,4185.36
14091.3,4201.21
14100.7,4218.06
14108.4,4235.76
14111.4,4244.95
14111.7,4244.87
14172.5,4432.09
14172.3,4432.16
14175.2,4441.35
14179.4,4460.22
14181.7,4479.4
14182,4498.72
14180.5,4517.97
14177.1,4536.99
14171.9,4555.58
14164.8,4573.57
14156.1,4590.79
14145.7,4607.06
14133.7,4622.23
14120.3,4636.15
14105.6,4648.7
14089.8,4659.74
14072.9,4669.18
14055.2,4676.92
14046,4679.91
14046.1,4680.13
13840.2,4747.05
Z" /> 
<path style="fill:#000000; fill-opacity:1.0; 
stroke:#000000; stroke-width:0; stroke-opacity:1; 
stroke-linecap:round; stroke-linejoin:round;fill-rule:evenodd;"
d="M 13072.5,4996.23
13063.3,4999.21
13044.4,5003.35
13025.3,5005.62
13006,5006
12986.7,5004.48
12967.7,5001.09
12949.1,4995.84
12931.1,4988.8
12913.9,4980.03
12897.6,4969.62
12882.4,4957.66
12868.5,4944.27
12856,4929.58
12844.9,4913.73
12835.5,4896.88
12827.7,4879.18
12824.8,4869.99
12824.5,4870.07
12763.7,4682.85
12763.9,4682.78
12760.9,4673.59
12756.8,4654.72
12754.5,4635.54
12754.2,4616.22
12755.7,4596.96
12759.1,4577.95
12764.3,4559.35
12771.3,4541.36
12780.1,4524.15
12790.5,4507.88
12802.5,4492.71
12815.9,4478.79
12830.6,4466.24
12846.4,4455.19
12863.3,4445.76
12881,4438.01
12890.2,4435.03
12890.1,4434.8
13096,4367.89
13278.5,4929.54
13072.6,4996.45
Z" /> 
<path style="fill:#000000; fill-opacity:1.0; 
stroke:#000000; stroke-width:0; stroke-opacity:1; 
stroke-linecap:round; stroke-linejoin:round;fill-rule:evenodd;"
d="M 13564.1,4215.81
13746.6,4777.46
13372.1,4899.12
13189.6,4337.48
Z" /> 
</g>
<g >
</g>
<g >
</g>
<g >
</g>
</g>
<g style="fill:#000000; fill-opacity:1.0; 
stroke:#000000; stroke-width:0; stroke-opacity:1; 
stroke-linecap:round; stroke-linejoin:round;">
</g>
<g style="fill:#000000; fill-opacity:0.0; 
stroke:#000000; stroke-width:0; stroke-opacity:1; 
stroke-linecap:round; stroke-linejoin:round;">
</g>
<g style="fill:#000000; fill-opacity:0.0; 
stroke:#000000; stroke-width:59.0551; stroke-opacity:1; 
stroke-linecap:round; stroke-linejoin:round;">
<g transform="rotate(-216 6718.09 8607.47)">
<text x="6718.09" y="8804.32"
textLength="2701.44" font-size="524.934" lengthAdjust="spacingAndGlyphs"
text-anchor="middle" opacity="0">Data Out</text>
</g>
<path d="M7599 7747
L7830 8065
L7754 8120
L7698 8138
L7645 8130
L7608 8110
L7549 8061
L7516 8015
L7487 7944
L7480 7902
L7488 7850
L7523 7802
L7599 7747
" />
<path d="M7144 8077
L7265 8244
L7302 8263
L7344 8256
L7404 8212
L7424 8175
" />
<path d="M7155 8092
L7174 8055
L7250 8000
L7291 7993
L7328 8013
L7351 8043
L7357 8084
L7338 8121
L7262 8176
L7243 8214
" />
<path d="M7192 8367
L7071 8455
" />
<path d="M7223 8506
L7025 8233
L6988 8214
L6947 8220
L6916 8242
" />
<path d="M6674 8419
L6795 8586
L6832 8605
L6873 8598
L6934 8554
L6953 8517
" />
<path d="M6685 8434
L6704 8397
L6780 8342
L6821 8335
L6858 8354
L6880 8384
L6887 8426
L6868 8463
L6792 8518
L6773 8555
" />
<path d="M6450 9068
L6389 9112
L6348 9119
L6296 9111
L6236 9061
L6159 8955
L6130 8883
L6139 8831
L6158 8793
L6219 8749
L6260 8743
L6312 8751
L6372 8800
L6449 8907
L6478 8978
L6469 9031
L6450 9068
" />
<path d="M5963 9259
L5809 9047
" />
<path d="M6100 9160
L5979 8993
L5941 8974
L5900 8981
L5855 9014
L5835 9051
L5831 9077
" />
<path d="M5857 9336
L5736 9425
" />
<path d="M5889 9476
L5690 9203
L5653 9183
L5612 9190
L5582 9212
" />
<text x="7118.09" y="9704.32"
textLength="2251.5" font-size="524.934" lengthAdjust="spacingAndGlyphs"
text-anchor="middle" opacity="0">Data In</text>
<path d="M6124 9685
L6124 9291
L6218 9291
L6274 9310
L6311 9348
L6330 9385
L6349 9460
L6349 9516
L6330 9591
L6311 9629
L6274 9666
L6218 9685
L6124 9685
" />
<path d="M6686 9685
L6686 9479
L6668 9441
L6630 9423
L6555 9423
L6518 9441
" />
<path d="M6686 9666
L6649 9685
L6555 9685
L6518 9666
L6499 9629
L6499 9591
L6518 9554
L6555 9535
L6649 9535
L6686 9516
" />
<path d="M6818 9423
L6968 9423
" />
<path d="M6874 9291
L6874 9629
L6893 9666
L6930 9685
L6968 9685
" />
<path d="M7268 9685
L7268 9479
L7249 9441
L7211 9423
L7136 9423
L7099 9441
" />
<path d="M7268 9666
L7230 9685
L7136 9685
L7099 9666
L7080 9629
L7080 9591
L7099 9554
L7136 9535
L7230 9535
L7268 9516
" />
<path d="M7755 9685
L7755 9291
" />
<path d="M7942 9423
L7942 9685
" />
<path d="M7942 9460
L7961 9441
L7999 9423
L8055 9423
L8092 9441
L8111 9479
L8111 9685
" />
<g transform="rotate(-36 21818.1 4707.47)">
<text x="21818.1" y="4904.32"
textLength="2701.44" font-size="524.934" lengthAdjust="spacingAndGlyphs"
text-anchor="middle" opacity="0">Data Out</text>
</g>
<path d="M20936 5567
L20705 5249
L20781 5194
L20837 5176
L20890 5184
L20927 5203
L20986 5253
L21019 5299
L21048 5370
L21055 5412
L21047 5464
L21012 5512
L20936 5567
" />
<path d="M21391 5237
L21270 5070
L21233 5051
L21192 5057
L21131 5102
L21112 5139
" />
<path d="M21380 5222
L21361 5259
L21285 5314
L21244 5321
L21207 5301
L21185 5271
L21178 5230
L21197 5193
L21273 5137
L21292 5100
" />
<path d="M21343 4947
L21465 4859
" />
<path d="M21312 4808
L21510 5081
L21547 5100
L21589 5093
L21619 5071
" />
<path d="M21862 4895
L21740 4728
L21703 4709
L21662 4716
L21601 4760
L21582 4797
" />
<path d="M21851 4880
L21831 4917
L21755 4972
L21714 4979
L21677 4960
L21655 4929
L21648 4888
L21667 4851
L21743 4796
L21762 4759
" />
<path d="M22085 4246
L22146 4202
L22187 4195
L22240 4203
L22299 4253
L22376 4359
L22405 4431
L22397 4483
L22377 4520
L22317 4565
L22275 4571
L22223 4563
L22164 4513
L22087 4407
L22058 4336
L22066 4283
L22085 4246
" />
<path d="M22572 4055
L22726 4267
" />
<path d="M22435 4154
L22557 4321
L22594 4340
L22635 4333
L22681 4300
L22700 4263
L22704 4237
" />
<path d="M22678 3978
L22799 3889
" />
<path d="M22646 3838
L22845 4111
L22882 4131
L22923 4124
L22954 4102
" />
<g transform="rotate(-180 21268.1 3857.47)">
<text x="21268.1" y="4054.32"
textLength="2251.5" font-size="524.934" lengthAdjust="spacingAndGlyphs"
text-anchor="middle" opacity="0">Data In</text>
</g>
<path d="M22261 3679
L22261 4073
L22167 4073
L22111 4054
L22074 4016
L22055 3979
L22036 3904
L22036 3848
L22055 3773
L22074 3735
L22111 3698
L22167 3679
L22261 3679
" />
<path d="M21699 3679
L21699 3885
L21718 3923
L21755 3941
L21830 3941
L21868 3923
" />
<path d="M21699 3698
L21736 3679
L21830 3679
L21868 3698
L21886 3735
L21886 3773
L21868 3810
L21830 3829
L21736 3829
L21699 3848
" />
<path d="M21568 3941
L21418 3941
" />
<path d="M21511 4073
L21511 3735
L21493 3698
L21455 3679
L21418 3679
" />
<path d="M21118 3679
L21118 3885
L21136 3923
L21174 3941
L21249 3941
L21286 3923
" />
<path d="M21118 3698
L21155 3679
L21249 3679
L21286 3698
L21305 3735
L21305 3773
L21286 3810
L21249 3829
L21155 3829
L21118 3848
" />
<path d="M20630 3679
L20630 4073
" />
<path d="M20443 3941
L20443 3679
" />
<path d="M20443 3904
L20424 3923
L20386 3941
L20330 3941
L20293 3923
L20274 3885
L20274 3679
" />
</g>
<g style="fill:#000000; fill-opacity:0.0; 
stroke:#000000; stroke-width:196.85; stroke-opacity:1; 
stroke-linecap:round; stroke-linejoin:round;">
<g transform="rotate(-90 4768.09 10407.5)">
<text x="4768.09" y="10801.2"
textLength="864.173" font-size="1049.87" lengthAdjust="spacingAndGlyphs"
text-anchor="middle" opacity="0">G</text>
</g>
<path d="M4374 10201
L4336 10276
L4336 10388
L4374 10501
L4449 10576
L4524 10613
L4674 10651
L4786 10651
L4936 10613
L5011 10576
L5086 10501
L5124 10388
L5124 10313
L5086 10201
L5049 10163
L4786 10163
L4786 10313
" />
</g>
<g style="fill:#000000; fill-opacity:0.0; 
stroke:#000000; stroke-width:118.11; stroke-opacity:1; 
stroke-linecap:round; stroke-linejoin:round;">
<path d="M9568.09 4307.47 A3934.2 3934.2 0.0 0 0 16713.9 2064.2" />
<path d="M19295.7 8752.35 A4330.84 4330.84 0.0 0 0 11456.6 11291.6" />
<path d="M18968.1 9007.47 A3915.94 3915.94 0.0 0 0 11871.5 11290.7" />
</g>
<g style="fill:#000000; fill-opacity:0.0; 
stroke:#000000; stroke-width:196.85; stroke-opacity:1; 
stroke-linecap:round; stroke-linejoin:round;">
<g transform="rotate(-306 24218.1 4057.47)">
<text x="24218.1" y="4451.17"
textLength="1043.31" font-size="1049.87" lengthAdjust="spacingAndGlyphs"
text-anchor="middle" opacity="0">C</text>
</g>
<path d="M24133 4419
L24081 4411
L23985 4342
L23940 4282
L23905 4168
L23921 4064
L23960 3989
L24059 3871
L24150 3805
L24294 3747
L24376 3733
L24481 3750
L24577 3819
L24622 3879
L24657 3992
L24649 4045
" />
<g transform="rotate(-126 4368.09 9307.47)">
<text x="4368.09" y="9701.17"
textLength="855.831" font-size="1049.87" lengthAdjust="spacingAndGlyphs"
text-anchor="middle" opacity="0">T</text>
</g>
<path d="M4151 9742
L3887 9378
" />
<path d="M4656 9098
L4019 9560
" />
<g transform="rotate(-270 24208.1 3017.47)">
<text x="24208.1" y="3411.17"
textLength="930.821" font-size="1049.87" lengthAdjust="spacingAndGlyphs"
text-anchor="middle" opacity="0">A</text>
</g>
<path d="M24076 2829
L24076 3204
" />
<path d="M23851 2755
L24639 3017
L23851 3279
" />
</g>
<g style="fill:#000000; fill-opacity:0.0; 
stroke:#000000; stroke-width:47.2441; stroke-opacity:1; 
stroke-linecap:round; stroke-linejoin:round;">
<path d="M17005 7103
L17271 7469
" />
<path d="M19330 5414
L17005 7103
" />
<path d="M20603 7165
L18278 8855
" />
<path d="M11123 5444
L11244 5610
" />
<path d="M11591 5104
L11712 5270
" />
<path d="M15566 5441
L15753 5380
" />
<path d="M15753 5380
L15814 5567
" />
<path d="M15814 5567
L16239 6878
" />
<path d="M16239 6878
L16146 6908
" />
<path d="M12383 6475
L12196 6536
" />
<path d="M12196 6536
L12682 8034
" />
<path d="M12682 8034
L12870 7973
" />
</g>
<g style="fill:#000000; fill-opacity:0.0; 
stroke:#000000; stroke-width:78.7402; stroke-opacity:1; 
stroke-linecap:round; stroke-linejoin:round;">
<circle cx="15363" cy="5134.98" r="88.0343" /> 
</g>
<g style="fill:#000000; fill-opacity:0.0; 
stroke:#000000; stroke-width:47.2441; stroke-opacity:1; 
stroke-linecap:round; stroke-linejoin:round;">
<path d="M19101 4707
L19101 4254
" />
<path d="M16227 4707
L19101 4707
" />
<path d="M16227 2542
L19101 2542
" />
<path d="M12339 10784
L9465 10784
" />
<path d="M12339 8619
L9465 8619
" />
<path d="M9465 8619
L9465 9072
" />
<path d="M16944 8210
L16823 8044
" />
<path d="M17412 7870
L17291 7704
" />
<path d="M9357 9610
L9357 9404
" />
<path d="M8778 9610
L8778 9404
" />
<path d="M5871 7623
L6487 8471
" />
<path d="M5871 7623
L4234 8813
" />
<path d="M4234 8813
L4850 9660
" />
<path d="M6487 8471
L4850 9660
" />
<path d="M7315 7869
L6891 8177
" />
<path d="M7007 7445
L7315 7869
" />
<path d="M19757 3804
L19757 4010
" />
<path d="M19178 3804
L19178 4010
" />
<path d="M7963 6161
L10288 4471
" />
<path d="M9236 7912
L11561 6223
" />
<path d="M11561 6223
L11295 5857
" />
<path d="M20629 3019
L20629 2496
" />
<path d="M20629 2496
L21153 2496
" />
<path d="M21653 2496
L23676 2496
" />
<path d="M23676 3543
L23676 2496
" />
<path d="M21653 3543
L23676 3543
" />
<path d="M21653 3543
L21653 2496
" />
<path d="M7413 9783
L7413 10831
" />
<path d="M7413 9783
L5389 9783
" />
<path d="M5389 9783
L5389 10831
" />
<path d="M7413 10831
L5389 10831
" />
<path d="M8437 10831
L7913 10831
" />
<path d="M8437 10307
L8437 10831
" />
<path d="M21155 6174
L20847 5751
" />
<path d="M20847 5751
L21271 5443
" />
<path d="M21675 5149
L23312 3960
" />
<path d="M23928 4807
L23312 3960
" />
<path d="M22291 5996
L23928 4807
" />
<path d="M22291 5996
L21675 5149
" />
<path d="M15513 9003
L14465 9344
" />
<path d="M14137 9161
L14064 8936
" />
<path d="M14222 8595
L15270 8254
" />
<path d="M15599 8437
L15672 8662
" />
<path d="M15171 8204
L15247 8055
" />
<path d="M15247 8055
L15022 8128
" />
<path d="M15171 8204
L15022 8128
" />
<path d="M15495.2 9009.5 A275.591 275.591 0.0 0 0 15672.2 8662.24" />
<path d="M15599.2 8437.58 A275.591 275.591 0.0 0 0 15251.9 8260.64" />
<path d="M14241 8589.12 A275.591 275.591 0.0 0 0 14064 8936.38" />
<path d="M14137 9161.04 A275.591 275.591 0.0 0 0 14484.3 9337.98" />
<path d="M13771 3962
L13622 3886
" />
<path d="M13847 3813
L13622 3886
" />
<path d="M13771 3962
L13847 3813
" />
<path d="M14199 4195
L14272 4420
" />
<path d="M12822 4353
L13870 4012
" />
<path d="M12737 4919
L12664 4694
" />
<path d="M14113 4761
L13065 5102
" />
<path d="M12737 4919.2 A275.591 275.591 0.0 0 0 13084.3 5096.14" />
<path d="M12841 4347.28 A275.591 275.591 0.0 0 0 12664 4694.54" />
<path d="M14199.2 4195.74 A275.591 275.591 0.0 0 0 13851.9 4018.8" />
<path d="M14095.2 4767.66 A275.591 275.591 0.0 0 0 14272.2 4420.39" />
</g>
<g style="fill:#000000; fill-opacity:0.0; 
stroke:#000000; stroke-width:59.0551; stroke-opacity:1; 
stroke-linecap:round; stroke-linejoin:round;">
<text x="13768.1" y="11154.3"
textLength="1643.23" font-size="524.934" lengthAdjust="spacingAndGlyphs"
text-anchor="middle" opacity="0">M2.1</text>
<path d="M13168 11135
L13168 10741
L13299 11023
L13430 10741
L13430 11135
" />
<path d="M13599 10779
L13618 10760
L13655 10741
L13749 10741
L13786 10760
L13805 10779
L13824 10816
L13824 10854
L13805 10910
L13580 11135
L13824 11135
" />
<path d="M13993 11098
L14011 11116
L13993 11135
L13974 11116
L13993 11098
L13993 11135
" />
<path d="M14386 11135
L14161 11135
" />
<path d="M14274 11135
L14274 10741
L14236 10798
L14199 10835
L14161 10854
" />
<text x="15259.2" y="2649.57"
textLength="1464.1" font-size="524.934" lengthAdjust="spacingAndGlyphs"
text-anchor="middle" opacity="0">M2.1</text>
<path d="M14659 2630
L14659 2237
L14790 2518
L14921 2237
L14921 2630
" />
<path d="M15090 2274
L15109 2255
L15146 2237
L15240 2237
L15277 2255
L15296 2274
L15315 2312
L15315 2349
L15296 2405
L15071 2630
L15315 2630
" />
<path d="M15484 2593
L15502 2612
L15484 2630
L15465 2612
L15484 2593
L15484 2630
" />
<path d="M15877 2630
L15652 2630
" />
<path d="M15765 2630
L15765 2237
L15727 2293
L15690 2330
L15652 2349
" />
<g transform="rotate(-36 17986.7 6065.03)">
<text x="17986.7" y="6261.88"
textLength="845.426" font-size="524.934" lengthAdjust="spacingAndGlyphs"
text-anchor="middle" opacity="0">D4</text>
</g>
<path d="M17856 6379
L17624 6061
L17700 6006
L17757 5988
L17809 5996
L17846 6016
L17906 6065
L17939 6111
L17967 6182
L17974 6224
L17966 6276
L17932 6324
L17856 6379
" />
<path d="M18156 5836
L18311 6049
" />
<path d="M17993 5770
L18082 6053
L18279 5910
" />
<g transform="rotate(-36 10818.1 4507.47)">
<text x="10818.1" y="4704.32"
textLength="845.426" font-size="524.934" lengthAdjust="spacingAndGlyphs"
text-anchor="middle" opacity="0">C1</text>
</g>
<path d="M10847 4659
L10843 4685
L10809 4734
L10778 4756
L10722 4774
L10669 4765
L10632 4746
L10573 4696
L10540 4651
L10511 4579
L10504 4538
L10512 4485
L10547 4437
L10577 4415
L10634 4397
L10660 4401
" />
<path d="M11173 4469
L10991 4601
" />
<path d="M11082 4535
L10850 4217
L10853 4284
L10845 4337
L10825 4374
" />
<text x="2284.37" y="10968"
textLength="1464.1" font-size="524.934" lengthAdjust="spacingAndGlyphs"
text-anchor="middle" opacity="0">M2.1</text>
<path d="M1684 10949
L1684 10555
L1815 10836
L1946 10555
L1946 10949
" />
<path d="M2115 10593
L2134 10574
L2171 10555
L2265 10555
L2303 10574
L2321 10593
L2340 10630
L2340 10667
L2321 10724
L2096 10949
L2340 10949
" />
<path d="M2509 10911
L2528 10930
L2509 10949
L2490 10930
L2509 10911
L2509 10949
" />
<path d="M2903 10949
L2678 10949
" />
<path d="M2790 10949
L2790 10555
L2753 10611
L2715 10649
L2678 10667
" />
<text x="25732.8" y="2602.72"
textLength="1464.1" font-size="524.934" lengthAdjust="spacingAndGlyphs"
text-anchor="middle" opacity="0">M2.1</text>
<path d="M25132 2583
L25132 2190
L25264 2471
L25395 2190
L25395 2583
" />
<path d="M25564 2227
L25582 2209
L25620 2190
L25714 2190
L25751 2209
L25770 2227
L25789 2265
L25789 2302
L25770 2359
L25545 2583
L25789 2583
" />
<path d="M25957 2546
L25976 2565
L25957 2583
L25939 2565
L25957 2546
L25957 2583
" />
<path d="M26351 2583
L26126 2583
" />
<path d="M26239 2583
L26239 2190
L26201 2246
L26164 2284
L26126 2302
" />
<text x="15268.1" y="10454.3"
textLength="939.164" font-size="524.934" lengthAdjust="spacingAndGlyphs"
text-anchor="middle" opacity="0">MH</text>
<path d="M14930 10435
L14930 10041
L15061 10323
L15193 10041
L15193 10435
" />
<path d="M15380 10435
L15380 10041
" />
<path d="M15380 10229
L15605 10229
" />
<path d="M15605 10435
L15605 10041
" />
<text x="13354.5" y="3289.06"
textLength="939.164" font-size="524.934" lengthAdjust="spacingAndGlyphs"
text-anchor="middle" opacity="0">MH</text>
<path d="M13017 3270
L13017 2876
L13148 3157
L13279 2876
L13279 3270
" />
<path d="M13466 3270
L13466 2876
" />
<path d="M13466 3064
L13691 3064
" />
<path d="M13691 3270
L13691 2876
" />
<g transform="rotate(72 16338.3 6225.55)">
<text x="16338.3" y="6422.4"
textLength="1276.62" font-size="524.934" lengthAdjust="spacingAndGlyphs"
text-anchor="middle" opacity="0">SW1</text>
</g>
<path d="M16024 5775
L16024 5834
L16053 5923
L16082 5953
L16106 5965
L16147 5972
L16183 5960
L16213 5931
L16225 5907
L16231 5866
L16226 5788
L16232 5747
L16244 5723
L16274 5694
L16309 5682
L16351 5689
L16374 5701
L16404 5731
L16433 5820
L16432 5879
" />
<path d="M16491 5998
L16145 6209
L16436 6193
L16192 6351
L16595 6319
" />
<path d="M16331 6779
L16261 6565
" />
<path d="M16296 6672
L16670 6551
L16605 6532
L16558 6508
L16529 6478
" />
<text x="17718.3" y="5213.21"
textLength="845.426" font-size="524.934" lengthAdjust="spacingAndGlyphs"
text-anchor="middle" opacity="0">D1</text>
<path d="M17427 5194
L17427 4800
L17521 4800
L17577 4819
L17615 4857
L17633 4894
L17652 4969
L17652 5025
L17633 5100
L17615 5138
L17577 5175
L17521 5194
L17427 5194
" />
<path d="M18027 5194
L17802 5194
" />
<path d="M17915 5194
L17915 4800
L17877 4857
L17840 4894
L17802 4913
" />
<text x="10902.9" y="8545.43"
textLength="845.426" font-size="524.934" lengthAdjust="spacingAndGlyphs"
text-anchor="middle" opacity="0">D2</text>
<path d="M10612 8526
L10612 8132
L10706 8132
L10762 8151
L10799 8189
L10818 8226
L10837 8301
L10837 8357
L10818 8432
L10799 8470
L10762 8507
L10706 8526
L10612 8526
" />
<path d="M10987 8170
L11006 8151
L11043 8132
L11137 8132
L11174 8151
L11193 8170
L11212 8207
L11212 8245
L11193 8301
L10968 8526
L11212 8526
" />
<g transform="rotate(-36 17668.1 8757.47)">
<text x="17668.1" y="8954.32"
textLength="845.426" font-size="524.934" lengthAdjust="spacingAndGlyphs"
text-anchor="middle" opacity="0">C4</text>
</g>
<path d="M17697 8909
L17693 8935
L17659 8984
L17628 9006
L17572 9024
L17519 9015
L17482 8996
L17423 8946
L17390 8901
L17361 8829
L17354 8788
L17362 8735
L17397 8687
L17427 8665
L17484 8647
L17510 8651
" />
<path d="M17838 8529
L17992 8741
" />
<path d="M17674 8463
L17763 8745
L17961 8602
" />
<text x="9068.09" y="8654.32"
textLength="845.426" font-size="524.934" lengthAdjust="spacingAndGlyphs"
text-anchor="middle" opacity="0">C3</text>
<path d="M9002 8598
L8983 8616
L8927 8635
L8889 8635
L8833 8616
L8796 8579
L8777 8541
L8758 8466
L8758 8410
L8777 8335
L8796 8298
L8833 8260
L8889 8241
L8927 8241
L8983 8260
L9002 8279
" />
<path d="M9133 8241
L9377 8241
L9246 8391
L9302 8391
L9339 8410
L9358 8429
L9377 8466
L9377 8560
L9358 8598
L9339 8616
L9302 8635
L9189 8635
L9152 8616
L9133 8598
" />
<g transform="rotate(54 7466.46 7112.56)">
<text x="7466.46" y="7309.41"
textLength="751.687" font-size="524.934" lengthAdjust="spacingAndGlyphs"
text-anchor="middle" opacity="0">J3</text>
</g>
<path d="M7563 6879
L7336 7044
L7279 7062
L7227 7054
L7179 7020
L7157 6989
" />
<path d="M7651 7000
L7795 7198
L7596 7180
L7629 7225
L7636 7267
L7632 7293
L7613 7330
L7537 7385
L7495 7392
L7469 7388
L7432 7368
L7366 7277
L7359 7236
L7363 7210
" />
<text x="19518.1" y="5204.32"
textLength="845.426" font-size="524.934" lengthAdjust="spacingAndGlyphs"
text-anchor="middle" opacity="0">C2</text>
<path d="M19452 5148
L19433 5166
L19377 5185
L19339 5185
L19283 5166
L19246 5129
L19227 5091
L19208 5016
L19208 4960
L19227 4885
L19246 4848
L19283 4810
L19339 4791
L19377 4791
L19433 4810
L19452 4829
" />
<path d="M19602 4829
L19621 4810
L19658 4791
L19752 4791
L19789 4810
L19808 4829
L19827 4866
L19827 4904
L19808 4960
L19583 5185
L19827 5185
" />
<g transform="rotate(-36 10599.5 7299.91)">
<text x="10599.5" y="7496.76"
textLength="845.426" font-size="524.934" lengthAdjust="spacingAndGlyphs"
text-anchor="middle" opacity="0">D3</text>
</g>
<path d="M10469 7614
L10237 7296
L10313 7241
L10370 7223
L10422 7231
L10459 7250
L10518 7300
L10551 7346
L10580 7417
L10587 7459
L10579 7511
L10544 7559
L10469 7614
" />
<path d="M10525 7086
L10723 6943
L10705 7142
L10750 7109
L10791 7102
L10818 7106
L10855 7125
L10910 7201
L10917 7242
L10913 7269
L10893 7306
L10802 7372
L10761 7379
L10735 7375
" />
<g transform="rotate(-90 20167.6 2757.74)">
<text x="20167.6" y="2954.59"
textLength="751.687" font-size="524.934" lengthAdjust="spacingAndGlyphs"
text-anchor="middle" opacity="0">J1</text>
</g>
<path d="M19951 2888
L20233 2888
L20289 2907
L20326 2945
L20345 3001
L20345 3038
" />
<path d="M20345 2495
L20345 2720
" />
<path d="M20345 2607
L19951 2607
L20008 2645
L20045 2682
L20064 2720
" />
<g transform="rotate(-90 8918.09 10607.5)">
<text x="8918.09" y="10804.3"
textLength="751.687" font-size="524.934" lengthAdjust="spacingAndGlyphs"
text-anchor="middle" opacity="0">J2</text>
</g>
<path d="M8702 10738
L8983 10738
L9039 10757
L9077 10794
L9096 10851
L9096 10888
" />
<path d="M8739 10569
L8721 10551
L8702 10513
L8702 10419
L8721 10382
L8739 10363
L8777 10345
L8814 10345
L8871 10363
L9096 10588
L9096 10345
" />
<g transform="rotate(54 20696.8 6508.22)">
<text x="20696.8" y="6705.07"
textLength="751.687" font-size="524.934" lengthAdjust="spacingAndGlyphs"
text-anchor="middle" opacity="0">J4</text>
</g>
<path d="M20794 6275
L20566 6440
L20510 6458
L20457 6450
L20409 6415
L20387 6385
" />
<path d="M20897 6640
L20684 6794
" />
<path d="M20963 6476
L20680 6566
L20824 6763
" />
<g transform="rotate(-18 15968.1 9207.47)">
<text x="15968.1" y="9404.32"
textLength="1145.39" font-size="524.934" lengthAdjust="spacingAndGlyphs"
text-anchor="middle" opacity="0">JP1</text>
</g>
<path d="M15589 9103
L15676 9371
L15675 9430
L15651 9477
L15604 9512
L15568 9524
" />
<path d="M15889 9420
L15767 9045
L15910 8999
L15951 9005
L15975 9017
L16004 9047
L16022 9101
L16016 9142
L16003 9166
L15974 9195
L15831 9242
" />
<path d="M16459 9234
L16246 9304
" />
<path d="M16352 9269
L16231 8895
L16213 8960
L16188 9007
L16159 9036
" />
<g transform="rotate(-18 14718.1 4407.47)">
<text x="14718.1" y="4604.32"
textLength="1145.39" font-size="524.934" lengthAdjust="spacingAndGlyphs"
text-anchor="middle" opacity="0">JP2</text>
</g>
<path d="M14339 4303
L14426 4571
L14425 4630
L14401 4677
L14354 4712
L14318 4724
" />
<path d="M14639 4620
L14517 4245
L14660 4199
L14701 4205
L14725 4217
L14754 4247
L14772 4301
L14766 4342
L14753 4366
L14724 4395
L14581 4442
" />
<path d="M14885 4165
L14897 4142
L14927 4112
L15016 4083
L15058 4089
L15082 4101
L15111 4131
L15123 4167
L15122 4226
L14978 4510
L15209 4434
" />
<g >
</g>
</g>
<g style="fill:#000000; fill-opacity:0.0; 
stroke:#000000; stroke-width:59.0551; stroke-opacity:1; 
stroke-linecap:round; stroke-linejoin:round;">
</g>
<g style="fill:#000000; fill-opacity:0.0; 
stroke:#000000; stroke-width:78.7402; stroke-opacity:1; 
stroke-linecap:round; stroke-linejoin:round;">
<path d="M28527 2035
L12779 2035
" />
<path d="M39 11291
L15787 11291
" />
<path d="M15787 11291
L28527 2035
" />
<path d="M12779 2035
L39 11291
" />
<g >
</g>
<g >
</g>
<g >
</g>
<g >
</g>
<g >
</g>
<g >
</g>
<g >
</g>
<g >
</g>
<g >
</g>
<g >
</g>
<g >
</g>
<g >
</g>
<g >
</g>
<g >
</g>
<g >
</g>
<g >
</g>
<g >
</g>
<g >
</g>
<g >
</g>
<g >
</g>
<g >
</g>
<g >
</g>
</g> 
</svg>
