<?xml version="1.0" standalone="no"?>
 <!DOCTYPE svg PUBLIC "-//W3C//DTD SVG 1.1//EN" 
 "http://www.w3.org/Graphics/SVG/1.1/DTD/svg11.dtd"> 
<svg
  xmlns:svg="http://www.w3.org/2000/svg"
  xmlns="http://www.w3.org/2000/svg"
  xmlns:xlink="http://www.w3.org/1999/xlink"
  version="1.1"
  width="6.794500cm" height="5.184140cm" viewBox="0 0 26750 20410">
<title>SVG Picture created as penrosedart-brd.svg date 2021/01/21 17:01:51 </title>
  <desc>Picture generated by PCBNEW </desc>
<g style="fill:#000000; fill-opacity:1;stroke:#000000; stroke-opacity:1;
stroke-linecap:round; stroke-linejoin:round;"
 transform="translate(0 0) scale(1 1)">
</g>
<g style="fill:#000000; fill-opacity:0.0; 
stroke:#000000; stroke-width:-0.000393701; stroke-opacity:1; 
stroke-linecap:round; stroke-linejoin:round;">
<g >
</g>
<g style="fill:#000000; fill-opacity:1.0; 
stroke:#000000; stroke-width:0; stroke-opacity:1; 
stroke-linecap:round; stroke-linejoin:round;">
<circle cx="23605.3" cy="4656.11" r="413.386" /> 
</g>
<g style="fill:#000000; fill-opacity:1.0; 
stroke:#000000; stroke-width:39.3701; stroke-opacity:1; 
stroke-linecap:round; stroke-linejoin:round;">
</g>
<g >
</g>
<g style="fill:#000000; fill-opacity:1.0; 
stroke:#000000; stroke-width:39.3701; stroke-opacity:1; 
stroke-linecap:round; stroke-linejoin:round;">
</g>
<g style="fill:#000000; fill-opacity:1.0; 
stroke:#000000; stroke-width:0; stroke-opacity:1; 
stroke-linecap:round; stroke-linejoin:round;">
<circle cx="20605.3" cy="14506.1" r="413.386" /> 
</g>
<g style="fill:#000000; fill-opacity:1.0; 
stroke:#000000; stroke-width:39.3701; stroke-opacity:1; 
stroke-linecap:round; stroke-linejoin:round;">
</g>
<g >
</g>
<g style="fill:#000000; fill-opacity:1.0; 
stroke:#000000; stroke-width:39.3701; stroke-opacity:1; 
stroke-linecap:round; stroke-linejoin:round;">
</g>
<g style="fill:#000000; fill-opacity:1.0; 
stroke:#000000; stroke-width:0; stroke-opacity:1; 
stroke-linecap:round; stroke-linejoin:round;">
<circle cx="12055.3" cy="2656.11" r="413.386" /> 
</g>
<g style="fill:#000000; fill-opacity:1.0; 
stroke:#000000; stroke-width:39.3701; stroke-opacity:1; 
stroke-linecap:round; stroke-linejoin:round;">
</g>
<g >
</g>
<g style="fill:#000000; fill-opacity:1.0; 
stroke:#000000; stroke-width:39.3701; stroke-opacity:1; 
stroke-linecap:round; stroke-linejoin:round;">
</g>
<g style="fill:#000000; fill-opacity:1.0; 
stroke:#000000; stroke-width:0; stroke-opacity:1; 
stroke-linecap:round; stroke-linejoin:round;">
<circle cx="23455.3" cy="3356.11" r="226.378" /> 
</g>
<g style="fill:#000000; fill-opacity:1.0; 
stroke:#000000; stroke-width:39.3701; stroke-opacity:1; 
stroke-linecap:round; stroke-linejoin:round;">
</g>
<g >
</g>
<g style="fill:#000000; fill-opacity:1.0; 
stroke:#000000; stroke-width:39.3701; stroke-opacity:1; 
stroke-linecap:round; stroke-linejoin:round;">
</g>
<g style="fill:#000000; fill-opacity:1.0; 
stroke:#000000; stroke-width:0; stroke-opacity:1; 
stroke-linecap:round; stroke-linejoin:round;">
<path style="fill:#000000; fill-opacity:1.0; 
stroke:#000000; stroke-width:0; stroke-opacity:1; 
stroke-linecap:round; stroke-linejoin:round;fill-rule:evenodd;"
d="M 18093.1,12465.3
18102.7,12466.5
18112.1,12468.7
18121.3,12471.8
18130.1,12475.7
18138.4,12480.5
18146.3,12486.1
18153.6,12492.5
18160.2,12499.5
18166.1,12507.1
18171.3,12515.3
18175.6,12524
18179,12533
18294.6,12888.7
18297.1,12898
18298.7,12907.6
18299.4,12917.2
18299.1,12926.8
18297.8,12936.4
18295.7,12945.8
18292.6,12955
18288.7,12963.8
18283.9,12972.2
18278.3,12980.1
18271.9,12987.3
18264.9,12994
18257.2,12999.9
18249,13005
18240.4,13009.3
18231.4,13012.7
17978.6,13094.9
17969.3,13097.4
17959.8,13099
17950.1,13099.7
17940.5,13099.4
17930.9,13098.1
17921.5,13096
17912.3,13092.9
17903.5,13088.9
17895.1,13084.1
17887.3,13078.5
17880,13072.2
17873.4,13065.2
17867.5,13057.5
17862.3,13049.3
17858,13040.7
17854.6,13031.7
17739,12676
17736.5,12666.6
17734.9,12657.1
17734.2,12647.5
17734.5,12637.8
17735.7,12628.2
17737.9,12618.8
17741,12609.7
17744.9,12600.9
17749.7,12592.5
17755.3,12584.6
17761.7,12577.3
17768.7,12570.7
17776.4,12564.8
17784.5,12559.7
17793.2,12555.4
17802.2,12551.9
18055,12469.8
18064.3,12467.3
18073.8,12465.7
18083.4,12465
Z" /> 
<path style="fill:#000000; fill-opacity:1.0; 
stroke:#000000; stroke-width:0; stroke-opacity:1; 
stroke-linecap:round; stroke-linejoin:round;fill-rule:evenodd;"
d="M 18870,12212.8
18879.6,12214.1
18889,12216.2
18898.2,12219.3
18907,12223.3
18915.4,12228.1
18923.3,12233.7
18930.5,12240
18937.2,12247
18943.1,12254.7
18948.2,12262.9
18952.5,12271.5
18955.9,12280.6
19071.5,12636.3
19074,12645.6
19075.6,12655.1
19076.3,12664.7
19076,12674.4
19074.8,12684
19072.6,12693.4
19069.6,12702.6
19065.6,12711.4
19060.8,12719.7
19055.2,12727.6
19048.9,12734.9
19041.8,12741.5
19034.2,12747.4
19026,12752.6
19017.3,12756.9
19008.3,12760.3
18755.6,12842.4
18746.3,12844.9
18736.7,12846.5
18727.1,12847.2
18717.4,12846.9
18707.9,12845.7
18698.4,12843.5
18689.3,12840.5
18680.5,12836.5
18672.1,12831.7
18664.2,12826.1
18656.9,12819.8
18650.3,12812.7
18644.4,12805.1
18639.3,12796.9
18635,12788.2
18631.6,12779.2
18516,12423.5
18513.4,12414.2
18511.8,12404.7
18511.2,12395
18511.5,12385.4
18512.7,12375.8
18514.9,12366.4
18517.9,12357.2
18521.9,12348.4
18526.7,12340
18532.3,12332.2
18538.6,12324.9
18545.7,12318.2
18553.3,12312.3
18561.5,12307.2
18570.1,12302.9
18579.2,12299.5
18831.9,12217.4
18841.2,12214.8
18850.8,12213.2
18860.4,12212.6
Z" /> 
</g>
<g >
</g>
<g style="fill:#000000; fill-opacity:1.0; 
stroke:#000000; stroke-width:0; stroke-opacity:1; 
stroke-linecap:round; stroke-linejoin:round;">
<path style="fill:#000000; fill-opacity:1.0; 
stroke:#000000; stroke-width:0; stroke-opacity:1; 
stroke-linecap:round; stroke-linejoin:round;fill-rule:evenodd;"
d="M 16185.7,6960.74
16195.1,6962.53
16204.4,6965.24
16213.4,6968.85
16221.9,6973.32
16230,6978.61
16532.6,7198.45
16540.1,7204.5
16547,7211.27
16553.2,7218.67
16558.7,7226.65
16563.3,7235.12
16567.1,7244.01
16570,7253.23
16572,7262.68
16573,7272.28
16573.1,7281.94
16572.2,7291.56
16570.5,7301.05
16567.7,7310.32
16564.1,7319.28
16559.7,7327.85
16554.4,7335.93
16398.2,7550.92
16392.1,7558.45
16385.4,7565.35
16378,7571.55
16370,7576.99
16361.5,7581.63
16352.6,7585.41
16343.4,7588.31
16333.9,7590.29
16324.3,7591.33
16314.7,7591.42
16305.1,7590.57
16295.6,7588.78
16286.3,7586.06
16277.3,7582.46
16268.8,7577.99
16260.7,7572.7
15958.1,7352.86
15950.6,7346.8
15943.7,7340.04
15937.5,7332.64
15932,7324.66
15927.4,7316.18
15923.6,7307.3
15920.7,7298.08
15918.8,7288.63
15917.7,7279.03
15917.6,7269.37
15918.5,7259.75
15920.3,7250.25
15923,7240.98
15926.6,7232.02
15931,7223.46
15936.3,7215.38
16092.5,7000.38
16098.6,6992.86
16105.4,6985.96
16112.8,6979.76
16120.7,6974.32
16129.2,6969.68
16138.1,6965.89
16147.3,6963
16156.8,6961.02
16166.4,6959.98
16176,6959.89
Z" /> 
<path style="fill:#000000; fill-opacity:1.0; 
stroke:#000000; stroke-width:0; stroke-opacity:1; 
stroke-linecap:round; stroke-linejoin:round;fill-rule:evenodd;"
d="M 15705.5,7621.65
15715,7623.44
15724.2,7626.15
15733.2,7629.76
15741.8,7634.23
15749.8,7639.52
16052.4,7859.36
16060,7865.41
16066.8,7872.18
16073,7879.58
16078.5,7887.56
16083.1,7896.03
16086.9,7904.92
16089.8,7914.14
16091.8,7923.59
16092.8,7933.19
16092.9,7942.85
16092.1,7952.47
16090.3,7961.96
16087.6,7971.23
16084,7980.19
16079.5,7988.76
16074.2,7996.84
15918,8211.83
15911.9,8219.36
15905.2,8226.26
15897.8,8232.46
15889.8,8237.9
15881.3,8242.54
15872.4,8246.32
15863.2,8249.22
15853.8,8251.19
15844.2,8252.24
15834.5,8252.33
15824.9,8251.48
15815.4,8249.69
15806.1,8246.97
15797.2,8243.37
15788.6,8238.9
15780.5,8233.61
15477.9,8013.77
15470.4,8007.71
15463.5,8000.95
15457.3,7993.55
15451.9,7985.57
15447.2,7977.09
15443.4,7968.21
15440.5,7958.99
15438.6,7949.54
15437.5,7939.94
15437.4,7930.28
15438.3,7920.66
15440.1,7911.16
15442.8,7901.89
15446.4,7892.93
15450.9,7884.37
15456.2,7876.29
15612.4,7661.29
15618.4,7653.77
15625.2,7646.87
15632.6,7640.67
15640.6,7635.22
15649,7630.59
15657.9,7626.8
15667.1,7623.91
15676.6,7621.93
15686.2,7620.89
15695.9,7620.8
Z" /> 
</g>
<g >
</g>
<g style="fill:#000000; fill-opacity:1.0; 
stroke:#000000; stroke-width:0; stroke-opacity:1; 
stroke-linecap:round; stroke-linejoin:round;">
<path style="fill:#000000; fill-opacity:1.0; 
stroke:#000000; stroke-width:0; stroke-opacity:1; 
stroke-linecap:round; stroke-linejoin:round;fill-rule:evenodd;"
d="M 21359.8,8013.23
21369.3,8014.83
21378.6,8017.36
21631.4,8099.48
21640.4,8102.92
21649,8107.22
21657.2,8112.34
21664.9,8118.25
21671.9,8124.87
21678.3,8132.16
21683.9,8140.03
21688.7,8148.41
21692.6,8157.22
21695.7,8166.38
21697.8,8175.79
21699.1,8185.37
21699.4,8195.02
21698.7,8204.66
21697.1,8214.19
21694.6,8223.51
21579,8579.22
21575.6,8588.25
21571.3,8596.89
21566.1,8605.08
21560.2,8612.72
21553.6,8619.75
21546.3,8626.1
21538.4,8631.7
21530.1,8636.5
21521.3,8640.46
21512.1,8643.53
21502.7,8645.69
21493.1,8646.92
21483.4,8647.21
21473.8,8646.54
21464.3,8644.94
21455,8642.41
21202.2,8560.29
21193.2,8556.86
21184.5,8552.56
21176.4,8547.43
21168.7,8541.52
21161.7,8534.9
21155.3,8527.62
21149.7,8519.75
21144.9,8511.37
21141,8502.55
21137.9,8493.4
21135.7,8483.98
21134.5,8474.4
21134.2,8464.75
21134.9,8455.11
21136.5,8445.59
21139,8436.27
21254.6,8080.56
21258,8071.53
21262.3,8062.88
21267.5,8054.69
21273.4,8047.05
21280,8040.02
21287.3,8033.68
21295.1,8028.08
21303.5,8023.27
21312.3,8019.32
21321.5,8016.24
21330.9,8014.08
21340.5,8012.85
21350.1,8012.56
Z" /> 
<path style="fill:#000000; fill-opacity:1.0; 
stroke:#000000; stroke-width:0; stroke-opacity:1; 
stroke-linecap:round; stroke-linejoin:round;fill-rule:evenodd;"
d="M 22136.7,8265.67
22146.3,8267.28
22155.6,8269.81
22408.3,8351.93
22417.3,8355.36
22426,8359.66
22434.2,8364.79
22441.8,8370.69
22448.9,8377.32
22455.2,8384.6
22460.8,8392.47
22465.6,8400.85
22469.6,8409.66
22472.6,8418.82
22474.8,8428.23
22476,8437.81
22476.3,8447.47
22475.6,8457.11
22474,8466.63
22471.5,8475.95
22355.9,8831.66
22352.5,8840.69
22348.2,8849.34
22343.1,8857.53
22337.2,8865.17
22330.5,8872.2
22323.3,8878.54
22315.4,8884.14
22307,8888.94
22298.2,8892.9
22289,8895.98
22279.6,8898.14
22270,8899.37
22260.4,8899.65
22250.8,8898.99
22241.2,8897.39
22231.9,8894.85
21979.2,8812.73
21970.1,8809.3
21961.5,8805
21953.3,8799.87
21945.7,8793.97
21938.6,8787.34
21932.3,8780.06
21926.7,8772.19
21921.9,8763.81
21917.9,8755
21914.9,8745.84
21912.7,8736.43
21911.5,8726.85
21911.2,8717.19
21911.8,8707.56
21913.4,8698.03
21916,8688.71
22031.6,8333
22035,8323.97
22039.3,8315.32
22044.4,8307.14
22050.3,8299.49
22056.9,8292.47
22064.2,8286.12
22072.1,8280.52
22080.5,8275.72
22089.3,8271.76
22098.4,8268.69
22107.9,8266.52
22117.4,8265.29
22127.1,8265.01
Z" /> 
</g>
<g >
</g>
<g style="fill:#000000; fill-opacity:1.0; 
stroke:#000000; stroke-width:0; stroke-opacity:1; 
stroke-linecap:round; stroke-linejoin:round;">
<path style="fill:#000000; fill-opacity:1.0; 
stroke:#000000; stroke-width:0; stroke-opacity:1; 
stroke-linecap:round; stroke-linejoin:round;fill-rule:evenodd;"
d="M 18151.9,3083.75
18161.5,3085.17
18170.8,3087.51
18179.9,3090.77
18188.7,3094.9
18197,3099.86
18204.7,3105.62
18211.9,3112.1
18218.4,3119.26
18224.1,3127.02
18229.1,3135.3
18233.2,3144.03
18236.5,3153.13
18238.8,3162.5
18240.2,3172.05
18240.7,3181.7
18240.7,3447.45
18240.2,3457.09
18238.8,3466.65
18236.5,3476.02
18233.2,3485.11
18229.1,3493.84
18224.1,3502.13
18218.4,3509.89
18211.9,3517.04
18204.7,3523.53
18197,3529.29
18188.7,3534.25
18179.9,3538.38
18170.8,3541.63
18161.5,3543.98
18151.9,3545.4
18142.3,3545.87
17768.3,3545.87
17758.6,3545.4
17749.1,3543.98
17739.7,3541.63
17730.6,3538.38
17721.9,3534.25
17713.6,3529.29
17705.8,3523.53
17698.7,3517.04
17692.2,3509.89
17686.4,3502.13
17681.5,3493.84
17677.3,3485.11
17674.1,3476.02
17671.7,3466.65
17670.3,3457.09
17669.8,3447.45
17669.8,3181.7
17670.3,3172.05
17671.7,3162.5
17674.1,3153.13
17677.3,3144.03
17681.5,3135.3
17686.4,3127.02
17692.2,3119.26
17698.7,3112.1
17705.8,3105.62
17713.6,3099.86
17721.9,3094.9
17730.6,3090.77
17739.7,3087.51
17749.1,3085.17
17758.6,3083.75
17768.3,3083.27
18142.3,3083.27
Z" /> 
<path style="fill:#000000; fill-opacity:1.0; 
stroke:#000000; stroke-width:0; stroke-opacity:1; 
stroke-linecap:round; stroke-linejoin:round;fill-rule:evenodd;"
d="M 18151.9,2266.82
18161.5,2268.24
18170.8,2270.58
18179.9,2273.84
18188.7,2277.97
18197,2282.93
18204.7,2288.69
18211.9,2295.17
18218.4,2302.33
18224.1,2310.09
18229.1,2318.37
18233.2,2327.1
18236.5,2336.2
18238.8,2345.57
18240.2,2355.12
18240.7,2364.77
18240.7,2630.52
18240.2,2640.17
18238.8,2649.72
18236.5,2659.09
18233.2,2668.18
18229.1,2676.92
18224.1,2685.2
18218.4,2692.96
18211.9,2700.12
18204.7,2706.6
18197,2712.36
18188.7,2717.32
18179.9,2721.45
18170.8,2724.71
18161.5,2727.05
18151.9,2728.47
18142.3,2728.94
17768.3,2728.94
17758.6,2728.47
17749.1,2727.05
17739.7,2724.71
17730.6,2721.45
17721.9,2717.32
17713.6,2712.36
17705.8,2706.6
17698.7,2700.12
17692.2,2692.96
17686.4,2685.2
17681.5,2676.92
17677.3,2668.18
17674.1,2659.09
17671.7,2649.72
17670.3,2640.17
17669.8,2630.52
17669.8,2364.77
17670.3,2355.12
17671.7,2345.57
17674.1,2336.2
17677.3,2327.1
17681.5,2318.37
17686.4,2310.09
17692.2,2302.33
17698.7,2295.17
17705.8,2288.69
17713.6,2282.93
17721.9,2277.97
17730.6,2273.84
17739.7,2270.58
17749.1,2268.24
17758.6,2266.82
17768.3,2266.35
18142.3,2266.35
Z" /> 
</g>
<g >
</g>
<g style="fill:#000000; fill-opacity:1.0; 
stroke:#000000; stroke-width:0; stroke-opacity:1; 
stroke-linecap:round; stroke-linejoin:round;">
<path style="fill:#000000; fill-opacity:1.0; 
stroke:#000000; stroke-width:0; stroke-opacity:1; 
stroke-linecap:round; stroke-linejoin:round;fill-rule:evenodd;"
d="M 18064.7,9515.31
18439.1,9393.65
18621.6,9955.3
18247.1,10077
Z" /> 
<path style="fill:#000000; fill-opacity:1.0; 
stroke:#000000; stroke-width:0; stroke-opacity:1; 
stroke-linecap:round; stroke-linejoin:round;fill-rule:evenodd;"
d="M 16866.5,9904.62
17240.9,9782.96
17423.4,10344.6
17049,10466.3
Z" /> 
<path style="fill:#000000; fill-opacity:1.0; 
stroke:#000000; stroke-width:0; stroke-opacity:1; 
stroke-linecap:round; stroke-linejoin:round;fill-rule:evenodd;"
d="M 18660.8,11350
19035.2,11228.4
19217.7,11790
18843.3,11911.7
Z" /> 
<path style="fill:#000000; fill-opacity:1.0; 
stroke:#000000; stroke-width:0; stroke-opacity:1; 
stroke-linecap:round; stroke-linejoin:round;fill-rule:evenodd;"
d="M 17462.6,11739.3
17837,11617.7
18019.5,12179.3
17645.1,12301
Z" /> 
</g>
<g >
</g>
<g style="fill:#000000; fill-opacity:1.0; 
stroke:#000000; stroke-width:0; stroke-opacity:1; 
stroke-linecap:round; stroke-linejoin:round;">
<path style="fill:#000000; fill-opacity:1.0; 
stroke:#000000; stroke-width:0; stroke-opacity:1; 
stroke-linecap:round; stroke-linejoin:round;fill-rule:evenodd;"
d="M 21624.9,7222.56
21999.3,7344.22
21816.8,7905.87
21442.4,7784.21
Z" /> 
<path style="fill:#000000; fill-opacity:1.0; 
stroke:#000000; stroke-width:0; stroke-opacity:1; 
stroke-linecap:round; stroke-linejoin:round;fill-rule:evenodd;"
d="M 22823,7611.87
23197.5,7733.53
23015,8295.18
22640.5,8173.52
Z" /> 
<path style="fill:#000000; fill-opacity:1.0; 
stroke:#000000; stroke-width:0; stroke-opacity:1; 
stroke-linecap:round; stroke-linejoin:round;fill-rule:evenodd;"
d="M 22221,5387.84
22595.4,5509.5
22412.9,6071.15
22038.5,5949.49
Z" /> 
<path style="fill:#000000; fill-opacity:1.0; 
stroke:#000000; stroke-width:0; stroke-opacity:1; 
stroke-linecap:round; stroke-linejoin:round;fill-rule:evenodd;"
d="M 23419.2,5777.16
23793.6,5898.82
23611.1,6460.47
23236.7,6338.81
Z" /> 
</g>
<g >
</g>
<g style="fill:#000000; fill-opacity:1.0; 
stroke:#000000; stroke-width:0; stroke-opacity:1; 
stroke-linecap:round; stroke-linejoin:round;">
<path style="fill:#000000; fill-opacity:1.0; 
stroke:#000000; stroke-width:0; stroke-opacity:1; 
stroke-linecap:round; stroke-linejoin:round;fill-rule:evenodd;"
d="M 14717.2,7264.9
14948.7,6946.39
15426.4,7293.51
15195,7612.02
Z" /> 
<path style="fill:#000000; fill-opacity:1.0; 
stroke:#000000; stroke-width:0; stroke-opacity:1; 
stroke-linecap:round; stroke-linejoin:round;fill-rule:evenodd;"
d="M 15457.8,6245.67
15689.2,5927.16
16166.9,6274.27
15935.5,6592.78
Z" /> 
<path style="fill:#000000; fill-opacity:1.0; 
stroke:#000000; stroke-width:0; stroke-opacity:1; 
stroke-linecap:round; stroke-linejoin:round;fill-rule:evenodd;"
d="M 13156.5,6130.98
13388,5812.47
13865.7,6159.59
13634.3,6478.1
Z" /> 
<path style="fill:#000000; fill-opacity:1.0; 
stroke:#000000; stroke-width:0; stroke-opacity:1; 
stroke-linecap:round; stroke-linejoin:round;fill-rule:evenodd;"
d="M 13897.1,5111.75
14128.5,4793.24
14606.2,5140.36
14374.8,5458.87
Z" /> 
</g>
<g >
</g>
<g style="fill:#000000; fill-opacity:1.0; 
stroke:#000000; stroke-width:0; stroke-opacity:1; 
stroke-linecap:round; stroke-linejoin:round;">
<path style="fill:#000000; fill-opacity:1.0; 
stroke:#000000; stroke-width:0; stroke-opacity:1; 
stroke-linecap:round; stroke-linejoin:round;fill-rule:evenodd;"
d="M 21145.4,3521.63
21145.4,3915.33
20554.8,3915.33
20554.8,3521.63
Z" /> 
<path style="fill:#000000; fill-opacity:1.0; 
stroke:#000000; stroke-width:0; stroke-opacity:1; 
stroke-linecap:round; stroke-linejoin:round;fill-rule:evenodd;"
d="M 21145.4,2261.79
21145.4,2655.49
20554.8,2655.49
20554.8,2261.79
Z" /> 
<path style="fill:#000000; fill-opacity:1.0; 
stroke:#000000; stroke-width:0; stroke-opacity:1; 
stroke-linecap:round; stroke-linejoin:round;fill-rule:evenodd;"
d="M 19216.2,3521.63
19216.2,3915.33
18625.7,3915.33
18625.7,3521.63
Z" /> 
<path style="fill:#000000; fill-opacity:1.0; 
stroke:#000000; stroke-width:0; stroke-opacity:1; 
stroke-linecap:round; stroke-linejoin:round;fill-rule:evenodd;"
d="M 19216.2,2261.79
19216.2,2655.49
18625.7,2655.49
18625.7,2261.79
Z" /> 
</g>
<g >
</g>
<g style="fill:#000000; fill-opacity:1.0; 
stroke:#000000; stroke-width:0; stroke-opacity:1; 
stroke-linecap:round; stroke-linejoin:round;">
<circle cx="19396.8" cy="16185.5" r="334.646" /> 
<circle cx="19087.8" cy="15234.5" r="334.646" /> 
<path style="fill:#000000; fill-opacity:1.0; 
stroke:#000000; stroke-width:0; stroke-opacity:1; 
stroke-linecap:round; stroke-linejoin:round;fill-rule:evenodd;"
d="M 18563.9,14705.1
18357.1,14068.6
18993.6,13861.8
19200.4,14498.3
Z" /> 
</g>
<g >
</g>
<g style="fill:#000000; fill-opacity:1.0; 
stroke:#000000; stroke-width:0; stroke-opacity:1; 
stroke-linecap:round; stroke-linejoin:round;">
<path style="fill:#000000; fill-opacity:1.0; 
stroke:#000000; stroke-width:0; stroke-opacity:1; 
stroke-linecap:round; stroke-linejoin:round;fill-rule:evenodd;"
d="M 21406,10923.6
21612.8,10287.1
22249.4,10493.9
22042.5,11130.4
Z" /> 
<circle cx="21518.7" cy="11659.8" r="334.646" /> 
<circle cx="21209.6" cy="12610.9" r="334.646" /> 
</g>
<g >
</g>
<g style="fill:#000000; fill-opacity:1.0; 
stroke:#000000; stroke-width:0; stroke-opacity:1; 
stroke-linecap:round; stroke-linejoin:round;">
<path style="fill:#000000; fill-opacity:1.0; 
stroke:#000000; stroke-width:0; stroke-opacity:1; 
stroke-linecap:round; stroke-linejoin:round;fill-rule:evenodd;"
d="M 11547.6,3973.42
12089,4366.82
11695.7,4908.29
11154.2,4514.89
Z" /> 
<circle cx="10812.6" cy="3853.07" r="334.646" /> 
<circle cx="10003.6" cy="3265.29" r="334.646" /> 
</g>
<g >
</g>
<g style="fill:#000000; fill-opacity:1.0; 
stroke:#000000; stroke-width:0; stroke-opacity:1; 
stroke-linecap:round; stroke-linejoin:round;">
<circle cx="13964" cy="2644.83" r="334.646" /> 
<circle cx="14964" cy="2644.83" r="334.646" /> 
<path style="fill:#000000; fill-opacity:1.0; 
stroke:#000000; stroke-width:0; stroke-opacity:1; 
stroke-linecap:round; stroke-linejoin:round;fill-rule:evenodd;"
d="M 15629.3,2310.18
16298.6,2310.18
16298.6,2979.47
15629.3,2979.47
Z" /> 
</g>
<g >
</g>
<g style="fill:#000000; fill-opacity:1.0; 
stroke:#000000; stroke-width:0; stroke-opacity:1; 
stroke-linecap:round; stroke-linejoin:round;">
<path style="fill:#000000; fill-opacity:1.0; 
stroke:#000000; stroke-width:0; stroke-opacity:1; 
stroke-linecap:round; stroke-linejoin:round;fill-rule:evenodd;"
d="M 19991,8501.52
20338.1,8979.29
20019.6,9210.7
19672.5,8732.93
Z" /> 
<path style="fill:#000000; fill-opacity:1.0; 
stroke:#000000; stroke-width:0; stroke-opacity:1; 
stroke-linecap:round; stroke-linejoin:round;fill-rule:evenodd;"
d="M 19764.6,9395.64
19756.8,9401.31
19740.1,9411.08
19722.6,9419.17
19704.3,9425.5
19685.6,9430.01
19666.4,9432.65
19647.1,9433.41
19627.8,9432.28
19608.8,9429.25
19590.1,9424.38
19571.9,9417.69
19554.6,9409.26
19538.1,9399.17
19522.7,9387.51
19508.5,9374.39
19495.7,9359.95
19490,9352.14
19489.8,9352.28
19374.1,9193.02
19374.3,9192.88
19368.6,9185.07
19358.8,9168.4
19350.8,9150.86
19344.4,9132.61
19339.9,9113.82
19337.3,9094.69
19336.5,9075.38
19337.6,9056.1
19340.7,9037.02
19345.5,9018.33
19352.2,9000.2
19360.7,8982.82
19370.8,8966.35
19382.4,8950.95
19395.5,8936.76
19410,8923.93
19417.8,8918.25
19417.6,8918.06
19592.8,8790.78
19939.9,9268.55
19764.8,9395.83
Z" /> 
<path style="fill:#000000; fill-opacity:1.0; 
stroke:#000000; stroke-width:0; stroke-opacity:1; 
stroke-linecap:round; stroke-linejoin:round;fill-rule:evenodd;"
d="M 20070.6,8443.67
20245.8,8316.39
20245.9,8316.58
20253.7,8310.91
20270.4,8301.14
20287.9,8293.05
20306.2,8286.72
20325,8282.21
20344.1,8279.56
20363.4,8278.81
20382.7,8279.94
20401.8,8282.96
20420.5,8287.84
20438.6,8294.53
20456,8302.96
20472.4,8313.05
20487.8,8324.71
20502,8337.83
20514.9,8352.27
20520.5,8360.08
20520.7,8359.94
20636.4,8519.2
20636.2,8519.34
20641.9,8527.15
20651.7,8543.82
20659.8,8561.36
20666.1,8579.61
20670.6,8598.4
20673.3,8617.53
20674,8636.83
20672.9,8656.12
20669.9,8675.2
20665,8693.89
20658.3,8712.01
20649.9,8729.4
20639.8,8745.87
20628.1,8761.27
20615,8775.46
20600.6,8788.29
20592.8,8793.97
20592.9,8794.16
20417.7,8921.43
Z" /> 
</g>
<g >
</g>
<g style="fill:#000000; fill-opacity:1.0; 
stroke:#000000; stroke-width:0; stroke-opacity:1; 
stroke-linecap:round; stroke-linejoin:round;">
<path style="fill:#000000; fill-opacity:1.0; 
stroke:#000000; stroke-width:0; stroke-opacity:1; 
stroke-linecap:round; stroke-linejoin:round;fill-rule:evenodd;"
d="M 17320.6,4643.67
17495.8,4516.39
17495.9,4516.58
17503.7,4510.91
17520.4,4501.14
17537.9,4493.05
17556.2,4486.72
17575,4482.21
17594.1,4479.56
17613.4,4478.81
17632.7,4479.94
17651.8,4482.96
17670.5,4487.84
17688.6,4494.53
17706,4502.96
17722.4,4513.05
17737.8,4524.71
17752,4537.83
17764.9,4552.27
17770.5,4560.08
17770.7,4559.94
17886.4,4719.2
17886.2,4719.34
17891.9,4727.15
17901.7,4743.82
17909.8,4761.36
17916.1,4779.61
17920.6,4798.4
17923.3,4817.53
17924,4836.83
17922.9,4856.12
17919.9,4875.2
17915,4893.89
17908.3,4912.01
17899.9,4929.4
17889.8,4945.87
17878.1,4961.27
17865,4975.46
17850.6,4988.29
17842.8,4993.97
17842.9,4994.16
17667.7,5121.43
Z" /> 
<path style="fill:#000000; fill-opacity:1.0; 
stroke:#000000; stroke-width:0; stroke-opacity:1; 
stroke-linecap:round; stroke-linejoin:round;fill-rule:evenodd;"
d="M 17014.6,5595.64
17006.8,5601.31
16990.1,5611.08
16972.6,5619.17
16954.3,5625.5
16935.6,5630.01
16916.4,5632.65
16897.1,5633.41
16877.8,5632.28
16858.8,5629.25
16840.1,5624.38
16821.9,5617.69
16804.6,5609.26
16788.1,5599.17
16772.7,5587.51
16758.5,5574.39
16745.7,5559.95
16740,5552.14
16739.8,5552.28
16624.1,5393.02
16624.3,5392.88
16618.6,5385.07
16608.8,5368.4
16600.8,5350.86
16594.4,5332.61
16589.9,5313.82
16587.3,5294.69
16586.5,5275.38
16587.6,5256.1
16590.7,5237.02
16595.5,5218.33
16602.2,5200.2
16610.7,5182.82
16620.8,5166.35
16632.4,5150.95
16645.5,5136.76
16660,5123.93
16667.8,5118.25
16667.6,5118.06
16842.8,4990.78
17189.9,5468.55
17014.8,5595.83
Z" /> 
<path style="fill:#000000; fill-opacity:1.0; 
stroke:#000000; stroke-width:0; stroke-opacity:1; 
stroke-linecap:round; stroke-linejoin:round;fill-rule:evenodd;"
d="M 17241,4701.52
17588.1,5179.29
17269.6,5410.7
16922.5,4932.93
Z" /> 
</g>
<g >
</g>
<g style="fill:#000000; fill-opacity:1.0; 
stroke:#000000; stroke-width:0; stroke-opacity:1; 
stroke-linecap:round; stroke-linejoin:round;">
<path style="fill:#000000; fill-opacity:1.0; 
stroke:#000000; stroke-width:0; stroke-opacity:1; 
stroke-linecap:round; stroke-linejoin:round;fill-rule:evenodd;"
d="M 18747,4994.52
19097.4,4739.96
19548.6,5361.06
19198.3,5615.61
Z" /> 
<path style="fill:#000000; fill-opacity:1.0; 
stroke:#000000; stroke-width:0; stroke-opacity:1; 
stroke-linecap:round; stroke-linejoin:round;fill-rule:evenodd;"
d="M 17950.7,5573.04
18301.1,5318.49
18752.3,5939.59
18402,6194.14
Z" /> 
<path style="fill:#000000; fill-opacity:1.0; 
stroke:#000000; stroke-width:0; stroke-opacity:1; 
stroke-linecap:round; stroke-linejoin:round;fill-rule:evenodd;"
d="M 17154.4,6151.57
17504.8,5897.02
17956.1,6518.12
17605.7,6772.67
Z" /> 
<path style="fill:#000000; fill-opacity:1.0; 
stroke:#000000; stroke-width:0; stroke-opacity:1; 
stroke-linecap:round; stroke-linejoin:round;fill-rule:evenodd;"
d="M 20054.5,6794.1
20404.8,6539.55
20856.1,7160.64
20505.7,7415.2
Z" /> 
<path style="fill:#000000; fill-opacity:1.0; 
stroke:#000000; stroke-width:0; stroke-opacity:1; 
stroke-linecap:round; stroke-linejoin:round;fill-rule:evenodd;"
d="M 19258.2,7372.63
19608.6,7118.08
20059.8,7739.17
19709.5,7993.73
Z" /> 
<path style="fill:#000000; fill-opacity:1.0; 
stroke:#000000; stroke-width:0; stroke-opacity:1; 
stroke-linecap:round; stroke-linejoin:round;fill-rule:evenodd;"
d="M 18461.9,7951.16
18812.3,7696.61
19263.5,8317.7
18913.2,8572.25
Z" /> 
</g>
<g >
</g>
<g >
</g>
<g >
</g>
</g>
<g style="fill:#000000; fill-opacity:1.0; 
stroke:#000000; stroke-width:0; stroke-opacity:1; 
stroke-linecap:round; stroke-linejoin:round;">
</g>
<g style="fill:#000000; fill-opacity:0.0; 
stroke:#000000; stroke-width:0; stroke-opacity:1; 
stroke-linecap:round; stroke-linejoin:round;">
</g>
<g style="fill:#000000; fill-opacity:0.0; 
stroke:#000000; stroke-width:59.0551; stroke-opacity:1; 
stroke-linecap:round; stroke-linejoin:round;">
<g transform="rotate(-72 20755.3 11256.1)">
<text x="20755.3" y="11453"
textLength="2137.23" font-size="524.934" lengthAdjust="spacingAndGlyphs"
text-anchor="middle" opacity="0">data in</text>
</g>
<path d="M20675 12077
L20301 11956
" />
<path d="M20657 12072
L20663 12113
L20640 12184
L20611 12214
L20587 12226
L20546 12232
L20439 12198
L20409 12168
L20397 12145
L20391 12103
L20414 12032
L20443 12002
" />
<path d="M20785 11739
L20589 11675
L20548 11681
L20518 11711
L20495 11782
L20501 11824
" />
<path d="M20767 11733
L20774 11774
L20745 11863
L20715 11893
L20674 11899
L20638 11888
L20608 11858
L20602 11817
L20631 11728
L20625 11686
" />
<path d="M20576 11533
L20622 11390
" />
<path d="M20469 11439
L20790 11543
L20831 11537
L20860 11507
L20872 11471
" />
<path d="M20965 11186
L20769 11122
L20727 11128
L20698 11158
L20675 11230
L20681 11271
" />
<path d="M20947 11180
L20953 11221
L20924 11311
L20895 11341
L20853 11347
L20818 11335
L20788 11306
L20782 11264
L20810 11175
L20804 11134
" />
<path d="M21115 10722
L20866 10641
" />
<path d="M20741 10601
L20753 10624
L20777 10612
L20765 10589
L20741 10601
L20777 10612
" />
<path d="M20924 10463
L21173 10544
" />
<path d="M20959 10474
L20947 10451
L20941 10409
L20958 10356
L20988 10326
L21029 10320
L21225 10383
" />
<g transform="rotate(-288 19855.3 14856.1)">
<text x="19855.3" y="15053"
textLength="2214" font-size="524.934" lengthAdjust="spacingAndGlyphs"
text-anchor="middle" opacity="0">data in</text>
</g>
<path d="M19436 14144
L19811 14022
" />
<path d="M19454 14138
L19425 14108
L19402 14037
L19408 13996
L19420 13972
L19450 13942
L19557 13908
L19598 13914
L19622 13926
L19651 13956
L19674 14027
L19668 14069
" />
<path d="M19546 14483
L19742 14419
L19772 14390
L19779 14348
L19755 14277
L19726 14247
" />
<path d="M19564 14477
L19535 14447
L19506 14358
L19512 14316
L19542 14287
L19578 14275
L19619 14282
L19648 14312
L19677 14401
L19707 14431
" />
<path d="M19837 14526
L19883 14669
" />
<path d="M19979 14539
L19658 14644
L19628 14673
L19622 14715
L19633 14750
" />
<path d="M19726 15035
L19922 14972
L19952 14942
L19958 14901
L19935 14830
L19906 14800
" />
<path d="M19744 15030
L19714 15000
L19685 14911
L19692 14869
L19721 14840
L19757 14828
L19799 14834
L19828 14864
L19857 14953
L19886 14983
" />
<path d="M19877 15499
L20126 15418
" />
<path d="M20251 15377
L20227 15365
L20215 15389
L20239 15401
L20251 15377
L20215 15389
" />
<path d="M20184 15596
L19934 15677
" />
<path d="M20148 15608
L20172 15620
L20201 15650
L20219 15703
L20213 15745
L20183 15774
L19987 15838
" />
<g transform="rotate(-180 14955.3 3506.11)">
<text x="14955.3" y="3702.96"
textLength="2607.71" font-size="524.934" lengthAdjust="spacingAndGlyphs"
text-anchor="middle" opacity="0">data out</text>
</g>
<path d="M15958 3328
L15958 3721
" />
<path d="M15958 3346
L15995 3328
L16070 3328
L16108 3346
L16126 3365
L16145 3402
L16145 3515
L16126 3552
L16108 3571
L16070 3590
L15995 3590
L15958 3571
" />
<path d="M15602 3328
L15602 3534
L15620 3571
L15658 3590
L15733 3590
L15770 3571
" />
<path d="M15602 3346
L15639 3328
L15733 3328
L15770 3346
L15789 3384
L15789 3421
L15770 3459
L15733 3477
L15639 3477
L15602 3496
" />
<path d="M15470 3590
L15320 3590
" />
<path d="M15414 3721
L15414 3384
L15395 3346
L15358 3328
L15320 3328
" />
<path d="M15020 3328
L15020 3534
L15039 3571
L15077 3590
L15152 3590
L15189 3571
" />
<path d="M15020 3346
L15058 3328
L15152 3328
L15189 3346
L15208 3384
L15208 3421
L15189 3459
L15152 3477
L15058 3477
L15020 3496
" />
<path d="M14477 3328
L14514 3346
L14533 3365
L14552 3402
L14552 3515
L14533 3552
L14514 3571
L14477 3590
L14420 3590
L14383 3571
L14364 3552
L14345 3515
L14345 3402
L14364 3365
L14383 3346
L14420 3328
L14477 3328
" />
<path d="M14008 3590
L14008 3328
" />
<path d="M14177 3590
L14177 3384
L14158 3346
L14120 3328
L14064 3328
L14027 3346
L14008 3365
" />
<path d="M13877 3590
L13727 3590
" />
<path d="M13821 3721
L13821 3384
L13802 3346
L13764 3328
L13727 3328
" />
<g transform="rotate(-324 11755.3 3556.11)">
<text x="11755.3" y="3752.96"
textLength="2607.71" font-size="524.934" lengthAdjust="spacingAndGlyphs"
text-anchor="middle" opacity="0">data out</text>
</g>
<path d="M10839 3110
L11070 2792
" />
<path d="M10850 3095
L10808 3088
L10748 3044
L10728 3007
L10724 2981
L10731 2939
L10797 2848
L10834 2829
L10861 2825
L10902 2832
L10963 2876
L10982 2913
" />
<path d="M11127 3320
L11248 3153
L11255 3111
L11236 3074
L11175 3030
L11134 3023
" />
<path d="M11138 3304
L11096 3297
L11021 3242
L11001 3205
L11008 3164
L11030 3133
L11067 3114
L11109 3121
L11185 3176
L11226 3183
" />
<path d="M11387 3184
L11509 3272
" />
<path d="M11510 3111
L11312 3384
L11305 3426
L11324 3463
L11354 3485
" />
<path d="M11597 3661
L11718 3494
L11725 3453
L11706 3416
L11645 3372
L11604 3365
" />
<path d="M11608 3646
L11567 3639
L11491 3584
L11472 3547
L11478 3505
L11500 3475
L11538 3456
L11579 3463
L11655 3518
L11696 3525
" />
<path d="M12037 3981
L12018 3943
L12013 3917
L12020 3876
L12086 3785
L12124 3766
L12150 3761
L12191 3768
L12237 3801
L12256 3839
L12260 3865
L12253 3906
L12187 3997
L12150 4016
L12124 4021
L12082 4014
L12037 3981
" />
<path d="M12570 4044
L12416 4256
" />
<path d="M12434 3945
L12313 4112
L12306 4153
L12325 4190
L12371 4223
L12412 4230
L12438 4226
" />
<path d="M12676 4121
L12798 4209
" />
<path d="M12799 4048
L12601 4321
L12594 4362
L12613 4399
L12644 4421
" />
</g>
<g style="fill:#000000; fill-opacity:0.0; 
stroke:#000000; stroke-width:147.638; stroke-opacity:1; 
stroke-linecap:round; stroke-linejoin:round;">
<g transform="rotate(-54 9105.27 2756.11)">
<text x="9105.27" y="3149.81"
textLength="676.697" font-size="1049.87" lengthAdjust="spacingAndGlyphs"
text-anchor="middle" opacity="0">T</text>
</g>
<path d="M8624 2684
L8888 2320
" />
<path d="M9393 2965
L8756 2502
" />
<g transform="rotate(-198 19705.3 17156.1)">
<text x="19705.3" y="17549.8"
textLength="866.845" font-size="1049.87" lengthAdjust="spacingAndGlyphs"
text-anchor="middle" opacity="0">A</text>
</g>
<path d="M19843 16973
L19486 17089
" />
<path d="M19844 16736
L19838 17566
L19345 16898
" />
<g transform="rotate(-162 20905.3 13556.1)">
<text x="20905.3" y="13949.8"
textLength="979.331" font-size="1049.87" lengthAdjust="spacingAndGlyphs"
text-anchor="middle" opacity="0">G</text>
</g>
<path d="M20587 13866
L20647 13925
L20754 13960
L20872 13959
L20967 13911
L21026 13851
L21108 13720
L21142 13613
L21153 13459
L21141 13376
L21092 13281
L20997 13211
L20926 13188
L20807 13189
L20760 13213
L20679 13462
L20821 13509
" />
<g transform="rotate(-90 12955.3 2656.11)">
<text x="12955.3" y="3049.81"
textLength="979.331" font-size="1049.87" lengthAdjust="spacingAndGlyphs"
text-anchor="middle" opacity="0">C</text>
</g>
<path d="M13236 2412
L13273 2449
L13311 2562
L13311 2637
L13273 2749
L13198 2824
L13123 2862
L12974 2899
L12861 2899
L12711 2862
L12636 2824
L12561 2749
L12524 2637
L12524 2562
L12561 2449
L12599 2412
" />
</g>
<g style="fill:#000000; fill-opacity:0.0; 
stroke:#000000; stroke-width:98.4252; stroke-opacity:1; 
stroke-linecap:round; stroke-linejoin:round;">
<path d="M18305.3 1656.11 A7500 7500 0.0 0 0 23462.8 8780.9" />
<path d="M17405.3 13206.1 A4632.76 4632.76 0.0 1 0 12195.9 6098.72" />
</g>
<g style="fill:#000000; fill-opacity:0.0; 
stroke:#000000; stroke-width:47.2441; stroke-opacity:1; 
stroke-linecap:round; stroke-linejoin:round;">
<path d="M18413 12349
L18218 12412
" />
<path d="M18592 12899
L18396 12963
" />
<path d="M16299 7692
L16178 7859
" />
<path d="M15831 7352
L15710 7519
" />
<path d="M21992 8212
L21796 8149
" />
<path d="M21813 8763
L21618 8699
" />
<path d="M17665 3008
L17665 2803
" />
<path d="M18244 3008
L18244 2803
" />
<path d="M17456 12548
L17887 12408
" />
<path d="M16568 9815
L17456 12548
" />
<path d="M18627 9146
L19515 11879
" />
<path d="M24091 5809
L23203 8542
" />
<path d="M22032 5140
L21144 7873
" />
<path d="M21144 7873
L21574 8013
" />
<path d="M14135 4482
L16460 6171
" />
<path d="M12862 6233
L15187 7923
" />
<path d="M15187 7923
L15454 7556
" />
<path d="M18448 2005
L18448 2458
" />
<path d="M21322 2005
L18448 2005
" />
<path d="M21322 4171
L18448 4171
" />
<path d="M18616 13785
L19114 13623
" />
<path d="M19114 13623
L19276 14121
" />
<path d="M19431 14597
L20056 16521
" />
<path d="M19060 16845
L20056 16521
" />
<path d="M18435 14920
L19060 16845
" />
<path d="M18435 14920
L19431 14597
" />
<path d="M21175 11022
L22171 11346
" />
<path d="M21175 11022
L20549 12947
" />
<path d="M20549 12947
L21545 13270
" />
<path d="M22171 11346
L21545 13270
" />
<path d="M22487 10372
L22325 10870
" />
<path d="M21989 10210
L22487 10372
" />
<path d="M11524 3723
L10909 4570
" />
<path d="M11524 3723
L9887 2533
" />
<path d="M9887 2533
L9272 3381
" />
<path d="M10909 4570
L9272 3381
" />
<path d="M11737 5172
L11313 4864
" />
<path d="M12045 4748
L11737 5172
" />
<path d="M16487 2644
L16487 3168
" />
<path d="M16487 3168
L15963 3168
" />
<path d="M15463 3168
L13440 3168
" />
<path d="M13440 2121
L13440 3168
" />
<path d="M15463 2121
L13440 2121
" />
<path d="M15463 2121
L15463 3168
" />
<path d="M20682 8850
L19790 9498
" />
<path d="M19421 9426
L19282 9234
" />
<path d="M19327 8861
L20219 8213
" />
<path d="M20588 8286
L20727 8477
" />
<path d="M20109 8196
L20135 8031
" />
<path d="M20135 8031
L19944 8170
" />
<path d="M20109 8196
L19944 8170
" />
<path d="M20666.7 8862.21 A275.591 275.591 0.0 0 0 20727.6 8477.27" />
<path d="M20588.8 8286.16 A275.591 275.591 0.0 0 0 20203.8 8225.19" />
<path d="M19343.9 8850 A275.591 275.591 0.0 0 0 19282.9 9234.95" />
<path d="M19421.7 9426.06 A275.591 275.591 0.0 0 0 19806.7 9487.03" />
<path d="M17359 4396
L17194 4370
" />
<path d="M17385 4231
L17194 4370
" />
<path d="M17359 4396
L17385 4231
" />
<path d="M17838 4486
L17977 4677
" />
<path d="M16577 5061
L17469 4413
" />
<path d="M16671 5626
L16532 5434
" />
<path d="M17932 5050
L17040 5698
" />
<path d="M16671.7 5626.06 A275.591 275.591 0.0 0 0 17056.7 5687.03" />
<path d="M16593.9 5050 A275.591 275.591 0.0 0 0 16532.9 5434.95" />
<path d="M17838.8 4486.16 A275.591 275.591 0.0 0 0 17453.8 4425.19" />
<path d="M17916.7 5062.21 A275.591 275.591 0.0 0 0 17977.6 4677.27" />
</g>
<g style="fill:#000000; fill-opacity:0.0; 
stroke:#000000; stroke-width:78.7402; stroke-opacity:1; 
stroke-linecap:round; stroke-linejoin:round;">
<circle cx="19608.2" cy="4806.78" r="88.0343" /> 
</g>
<g style="fill:#000000; fill-opacity:0.0; 
stroke:#000000; stroke-width:47.2441; stroke-opacity:1; 
stroke-linecap:round; stroke-linejoin:round;">
<path d="M17955 8392
L18114 8276
" />
<path d="M17029 7118
L17955 8392
" />
<path d="M17188 7002
L17029 7118
" />
<path d="M20981 6193
L20901 6251
" />
<path d="M20171 5079
L20981 6193
" />
<path d="M20055 4919
L20171 5079
" />
<path d="M19896 5035
L20055 4919
" />
</g>
<g style="fill:#000000; fill-opacity:0.0; 
stroke:#000000; stroke-width:59.0551; stroke-opacity:1; 
stroke-linecap:round; stroke-linejoin:round;">
<text x="24405.3" y="4102.96"
textLength="1579.26" font-size="524.934" lengthAdjust="spacingAndGlyphs"
text-anchor="middle" opacity="0">M2.1</text>
<path d="M23805 4084
L23805 3690
L23936 3971
L24067 3690
L24067 4084
" />
<path d="M24236 3728
L24255 3709
L24292 3690
L24386 3690
L24424 3709
L24442 3728
L24461 3765
L24461 3802
L24442 3859
L24217 4084
L24461 4084
" />
<path d="M24630 4046
L24648 4065
L24630 4084
L24611 4065
L24630 4046
L24630 4084
" />
<path d="M25023 4084
L24798 4084
" />
<path d="M24911 4084
L24911 3690
L24873 3746
L24836 3784
L24798 3802
" />
<g transform="rotate(-90 20705.3 15656.1)">
<text x="20705.3" y="15853"
textLength="1464.1" font-size="524.934" lengthAdjust="spacingAndGlyphs"
text-anchor="middle" opacity="0">M2.1</text>
</g>
<path d="M20883 16256
L20489 16256
L20770 16124
L20489 15993
L20883 15993
" />
<path d="M20527 15824
L20508 15806
L20489 15768
L20489 15674
L20508 15637
L20527 15618
L20564 15599
L20602 15599
L20658 15618
L20883 15843
L20883 15599
" />
<path d="M20845 15431
L20864 15412
L20883 15431
L20864 15449
L20845 15431
L20883 15431
" />
<path d="M20883 15037
L20883 15262
" />
<path d="M20883 15149
L20489 15149
L20545 15187
L20583 15224
L20602 15262
" />
<text x="10705.3" y="2452.96"
textLength="1464.1" font-size="524.934" lengthAdjust="spacingAndGlyphs"
text-anchor="middle" opacity="0">M2.1</text>
<path d="M10105 2434
L10105 2040
L10236 2321
L10367 2040
L10367 2434
" />
<path d="M10536 2078
L10555 2059
L10592 2040
L10686 2040
L10724 2059
L10742 2078
L10761 2115
L10761 2152
L10742 2209
L10517 2434
L10761 2434
" />
<path d="M10930 2396
L10948 2415
L10930 2434
L10911 2415
L10930 2396
L10930 2434
" />
<path d="M11323 2434
L11098 2434
" />
<path d="M11211 2434
L11211 2040
L11173 2096
L11136 2134
L11098 2152
" />
<text x="23494.6" y="2962.41"
textLength="939.164" font-size="524.934" lengthAdjust="spacingAndGlyphs"
text-anchor="middle" opacity="0">MH</text>
<path d="M23157 2943
L23157 2549
L23288 2831
L23419 2549
L23419 2943
" />
<path d="M23607 2943
L23607 2549
" />
<path d="M23607 2737
L23832 2737
" />
<path d="M23832 2943
L23832 2549
" />
<g transform="rotate(72 19455.3 12506.1)">
<text x="19455.3" y="12703"
textLength="845.426" font-size="524.934" lengthAdjust="spacingAndGlyphs"
text-anchor="middle" opacity="0">C1</text>
</g>
<path d="M19301 12487
L19277 12475
L19242 12427
L19230 12391
L19231 12332
L19255 12285
L19285 12255
L19350 12214
L19404 12197
L19481 12192
L19522 12198
L19570 12222
L19605 12270
L19616 12305
L19616 12365
L19604 12388
" />
<path d="M19381 12855
L19311 12641
" />
<path d="M19346 12748
L19721 12626
L19656 12608
L19608 12584
L19579 12554
" />
<g transform="rotate(-54 16540.4 7994.88)">
<text x="16540.4" y="8191.73"
textLength="845.426" font-size="524.934" lengthAdjust="spacingAndGlyphs"
text-anchor="middle" opacity="0">C2</text>
</g>
<path d="M16615 8130
L16619 8156
L16601 8213
L16579 8243
L16531 8278
L16479 8286
L16437 8279
L16366 8250
L16320 8217
L16270 8158
L16251 8121
L16243 8068
L16261 8012
L16283 7981
L16331 7947
L16357 7943
" />
<path d="M16445 7821
L16441 7795
L16448 7754
L16503 7678
L16540 7659
L16567 7655
L16608 7661
L16638 7684
L16673 7732
L16723 8046
L16866 7849
" />
<g transform="rotate(18 21600.9 9085.15)">
<text x="21600.9" y="9282"
textLength="845.426" font-size="524.934" lengthAdjust="spacingAndGlyphs"
text-anchor="middle" opacity="0">C3</text>
</g>
<path d="M21495 9198
L21471 9210
L21412 9211
L21376 9199
L21328 9164
L21304 9117
L21298 9075
L21303 8998
L21321 8944
L21362 8879
L21391 8849
L21438 8825
L21498 8825
L21533 8836
L21581 8871
L21593 8895
" />
<path d="M21729 8900
L21961 8975
L21790 9077
L21844 9095
L21873 9124
L21885 9148
L21892 9189
L21863 9278
L21833 9308
L21810 9320
L21768 9326
L21661 9292
L21631 9262
L21619 9239
" />
<text x="17905.3" y="4152.96"
textLength="845.426" font-size="524.934" lengthAdjust="spacingAndGlyphs"
text-anchor="middle" opacity="0">C4</text>
<path d="M17839 4096
L17820 4115
L17764 4134
L17727 4134
L17670 4115
L17633 4077
L17614 4040
L17595 3965
L17595 3909
L17614 3834
L17633 3796
L17670 3759
L17727 3740
L17764 3740
L17820 3759
L17839 3778
" />
<path d="M18177 3871
L18177 4134
" />
<path d="M18083 3721
L17989 4002
L18233 4002
" />
<g transform="rotate(72 19352.6 10421.5)">
<text x="19352.6" y="10618.4"
textLength="845.426" font-size="524.934" lengthAdjust="spacingAndGlyphs"
text-anchor="middle" opacity="0">D1</text>
</g>
<path d="M19093 10200
L19467 10078
L19496 10167
L19496 10226
L19472 10274
L19442 10303
L19376 10344
L19323 10362
L19246 10367
L19204 10361
L19157 10337
L19122 10289
L19093 10200
" />
<path d="M19278 10770
L19209 10556
" />
<path d="M19244 10663
L19618 10542
L19553 10523
L19506 10499
L19476 10469
" />
<g transform="rotate(-72 22555.3 6806.11)">
<text x="22555.3" y="7002.96"
textLength="845.426" font-size="524.934" lengthAdjust="spacingAndGlyphs"
text-anchor="middle" opacity="0">D2</text>
</g>
<path d="M22634 7137
L22260 7015
L22289 6926
L22324 6879
L22371 6854
L22413 6848
L22490 6854
L22543 6871
L22609 6912
L22639 6941
L22663 6989
L22663 7048
L22634 7137
" />
<path d="M22411 6670
L22399 6647
L22393 6605
L22422 6516
L22452 6486
L22475 6474
L22517 6468
L22552 6480
L22600 6515
L22744 6798
L22820 6566
" />
<g transform="rotate(36 15471.7 5087.84)">
<text x="15471.7" y="5284.69"
textLength="845.426" font-size="524.934" lengthAdjust="spacingAndGlyphs"
text-anchor="middle" opacity="0">D3</text>
</g>
<path d="M15131 5061
L15363 4742
L15439 4797
L15473 4845
L15481 4898
L15475 4939
L15446 5011
L15413 5056
L15353 5106
L15316 5125
L15264 5134
L15207 5116
L15131 5061
" />
<path d="M15651 4951
L15848 5095
L15654 5139
L15699 5172
L15719 5209
L15723 5235
L15716 5277
L15661 5353
L15624 5372
L15597 5376
L15556 5369
L15465 5303
L15446 5266
L15442 5240
" />
<text x="20255.3" y="4663.37"
textLength="845.426" font-size="524.934" lengthAdjust="spacingAndGlyphs"
text-anchor="middle" opacity="0">D4</text>
<path d="M19964 4644
L19964 4250
L20058 4250
L20114 4269
L20152 4307
L20170 4344
L20189 4419
L20189 4475
L20170 4550
L20152 4588
L20114 4625
L20058 4644
L19964 4644
" />
<path d="M20527 4382
L20527 4644
" />
<path d="M20433 4232
L20339 4513
L20583 4513
" />
<g transform="rotate(-18 18505.3 13456.1)">
<text x="18505.3" y="13653"
textLength="751.687" font-size="524.934" lengthAdjust="spacingAndGlyphs"
text-anchor="middle" opacity="0">J1</text>
</g>
<path d="M18313 13291
L18400 13559
L18400 13618
L18376 13665
L18328 13700
L18292 13712
" />
<path d="M18809 13544
L18595 13613
" />
<path d="M18702 13579
L18581 13204
L18563 13269
L18538 13317
L18509 13346
" />
<g transform="rotate(18 22164.7 9671.56)">
<text x="22164.7" y="9868.41"
textLength="751.687" font-size="524.934" lengthAdjust="spacingAndGlyphs"
text-anchor="middle" opacity="0">J2</text>
</g>
<path d="M22106 9425
L22019 9693
L21984 9741
L21937 9765
L21877 9765
L21842 9754
" />
<path d="M22255 9513
L22278 9501
L22320 9495
L22409 9524
L22439 9553
L22451 9577
L22457 9618
L22446 9654
L22410 9702
L22127 9846
L22359 9922
" />
<g transform="rotate(-54 12503.9 5081.87)">
<text x="12503.9" y="5278.72"
textLength="751.687" font-size="524.934" lengthAdjust="spacingAndGlyphs"
text-anchor="middle" opacity="0">J3</text>
</g>
<path d="M12252 5061
L12479 5226
L12514 5274
L12522 5327
L12504 5383
L12482 5414
" />
<path d="M12340 4939
L12483 4742
L12527 4937
L12561 4891
L12598 4872
L12624 4868
L12665 4875
L12741 4930
L12760 4967
L12765 4993
L12758 5034
L12692 5125
L12654 5145
L12628 5149
" />
<g transform="rotate(-90 17054.5 2644.83)">
<text x="17054.5" y="2841.68"
textLength="751.687" font-size="524.934" lengthAdjust="spacingAndGlyphs"
text-anchor="middle" opacity="0">J4</text>
</g>
<path d="M16838 2776
L17120 2776
L17176 2794
L17213 2832
L17232 2888
L17232 2926
" />
<path d="M16970 2419
L17232 2419
" />
<path d="M16820 2513
L17101 2607
L17101 2363
" />
<g transform="rotate(-36 19905.3 9756.11)">
<text x="19905.3" y="9952.96"
textLength="1145.39" font-size="524.934" lengthAdjust="spacingAndGlyphs"
text-anchor="middle" opacity="0">JP1</text>
</g>
<path d="M19513 9774
L19678 10002
L19696 10058
L19688 10110
L19653 10159
L19623 10181
" />
<path d="M19896 9982
L19664 9664
L19786 9576
L19827 9569
L19853 9573
L19890 9592
L19923 9638
L19930 9679
L19926 9705
L19907 9743
L19786 9831
" />
<path d="M20381 9630
L20199 9762
" />
<path d="M20290 9696
L20059 9377
L20061 9445
L20053 9497
L20034 9534
" />
<g transform="rotate(-36 16455.3 4806.11)">
<text x="16455.3" y="5002.96"
textLength="1145.39" font-size="524.934" lengthAdjust="spacingAndGlyphs"
text-anchor="middle" opacity="0">JP2</text>
</g>
<path d="M16063 4824
L16228 5052
L16246 5108
L16238 5160
L16203 5209
L16173 5231
" />
<path d="M16446 5032
L16214 4714
L16336 4626
L16377 4619
L16403 4623
L16440 4642
L16473 4688
L16480 4729
L16476 4755
L16457 4793
L16336 4881
" />
<path d="M16540 4524
L16544 4498
L16563 4460
L16639 4405
L16680 4398
L16707 4403
L16744 4422
L16766 4452
L16784 4509
L16734 4823
L16931 4680
" />
<g transform="rotate(54 20872.8 5542.6)">
<text x="20872.8" y="5739.45"
textLength="1276.62" font-size="524.934" lengthAdjust="spacingAndGlyphs"
text-anchor="middle" opacity="0">SW1</text>
</g>
<path d="M20435 5211
L20453 5268
L20508 5343
L20545 5363
L20571 5367
L20613 5360
L20643 5338
L20662 5301
L20666 5275
L20659 5233
L20631 5162
L20624 5120
L20628 5094
L20647 5057
L20677 5035
L20719 5028
L20745 5032
L20782 5051
L20837 5127
L20855 5184
" />
<path d="M20948 5279
L20684 5586
L20956 5481
L20772 5707
L21146 5552
" />
<path d="M21037 6071
L20905 5889
" />
<path d="M20971 5980
L21289 5749
L21222 5752
L21169 5743
L21132 5724
" />
<g >
</g>
</g>
<g style="fill:#000000; fill-opacity:0.0; 
stroke:#000000; stroke-width:59.0551; stroke-opacity:1; 
stroke-linecap:round; stroke-linejoin:round;">
</g>
<g style="fill:#000000; fill-opacity:0.0; 
stroke:#000000; stroke-width:78.7402; stroke-opacity:1; 
stroke-linecap:round; stroke-linejoin:round;">
<path d="M19721 20368
L25805 1656
" />
<path d="M15963 8807
L19721 20368
" />
<path d="M6122 1666
L15963 8807
" />
<path d="M25805 1656
L6122 1666
" />
<g >
</g>
<g >
</g>
<g >
</g>
<g >
</g>
<g >
</g>
<g >
</g>
<g >
</g>
<g >
</g>
<g >
</g>
<g >
</g>
<g >
</g>
<g >
</g>
<g >
</g>
<g >
</g>
<g >
</g>
<g >
</g>
<g >
</g>
<g >
</g>
<g >
</g>
<g >
</g>
</g> 
</svg>
