M48
; DRILL file {KiCad 5.1.9} date Mon Jan 25 14:03:32 2021
; FORMAT={-:-/ absolute / inch / decimal}
; #@! TF.CreationDate,2021-01-25T14:03:32-05:00
; #@! TF.GenerationSoftware,Kicad,Pcbnew,5.1.9
; #@! TF.FileFunction,Plated,1,2,PTH
FMAT,2
INCH
T1C0.0157
T2C0.0394
%
G90
G05
T1
X4.5125Y-4.23
X4.7325Y-3.995
X4.905Y-4.5475
X4.93Y-4.288
X5.0575Y-4.605
X5.095Y-4.1425
X5.11Y-4.07
X5.135Y-3.56
X5.225Y-3.695
X5.284Y-3.964
X5.373Y-4.262
X5.57Y-4.31
X5.645Y-4.105
T2
X4.4646Y-4.1304
X4.4955Y-4.0353
X4.5264Y-3.9402
X4.9128Y-4.7466
X5.0128Y-4.7466
X5.1128Y-4.7466
X5.1712Y-3.4109
X5.2521Y-3.4697
X5.333Y-3.5285
X5.7536Y-4.1066
X5.7845Y-4.2018
X5.8154Y-4.2969
T0
M30
