%TF.GenerationSoftware,KiCad,Pcbnew,5.1.9*%
%TF.CreationDate,2021-01-25T14:03:35-05:00*%
%TF.ProjectId,penrosekite,70656e72-6f73-4656-9b69-74652e6b6963,rev?*%
%TF.SameCoordinates,Original*%
%TF.FileFunction,Legend,Top*%
%TF.FilePolarity,Positive*%
%FSLAX46Y46*%
G04 Gerber Fmt 4.6, Leading zero omitted, Abs format (unit mm)*
G04 Created by KiCad (PCBNEW 5.1.9) date 2021-01-25 14:03:35*
%MOMM*%
%LPD*%
G01*
G04 APERTURE LIST*
%ADD10C,0.150000*%
%ADD11C,0.500000*%
%ADD12C,0.250000*%
%ADD13C,0.120000*%
%ADD14C,0.200000*%
%ADD15C,3.200000*%
%ADD16C,1.150000*%
%ADD17C,0.100000*%
%ADD18R,1.500000X1.000000*%
%ADD19R,1.700000X1.700000*%
%ADD20O,1.700000X1.700000*%
G04 APERTURE END LIST*
D10*
X118424580Y-120060980D02*
X118424580Y-119060980D01*
X118424580Y-120013361D02*
X118329342Y-120060980D01*
X118138866Y-120060980D01*
X118043628Y-120013361D01*
X117996009Y-119965742D01*
X117948390Y-119870504D01*
X117948390Y-119584790D01*
X117996009Y-119489552D01*
X118043628Y-119441933D01*
X118138866Y-119394314D01*
X118329342Y-119394314D01*
X118424580Y-119441933D01*
X119329342Y-120060980D02*
X119329342Y-119537171D01*
X119281723Y-119441933D01*
X119186485Y-119394314D01*
X118996009Y-119394314D01*
X118900771Y-119441933D01*
X119329342Y-120013361D02*
X119234104Y-120060980D01*
X118996009Y-120060980D01*
X118900771Y-120013361D01*
X118853152Y-119918123D01*
X118853152Y-119822885D01*
X118900771Y-119727647D01*
X118996009Y-119680028D01*
X119234104Y-119680028D01*
X119329342Y-119632409D01*
X119662676Y-119394314D02*
X120043628Y-119394314D01*
X119805533Y-119060980D02*
X119805533Y-119918123D01*
X119853152Y-120013361D01*
X119948390Y-120060980D01*
X120043628Y-120060980D01*
X120805533Y-120060980D02*
X120805533Y-119537171D01*
X120757914Y-119441933D01*
X120662676Y-119394314D01*
X120472200Y-119394314D01*
X120376961Y-119441933D01*
X120805533Y-120013361D02*
X120710295Y-120060980D01*
X120472200Y-120060980D01*
X120376961Y-120013361D01*
X120329342Y-119918123D01*
X120329342Y-119822885D01*
X120376961Y-119727647D01*
X120472200Y-119680028D01*
X120710295Y-119680028D01*
X120805533Y-119632409D01*
X122043628Y-120060980D02*
X122043628Y-119394314D01*
X122043628Y-119060980D02*
X121996009Y-119108600D01*
X122043628Y-119156219D01*
X122091247Y-119108600D01*
X122043628Y-119060980D01*
X122043628Y-119156219D01*
X122519819Y-119394314D02*
X122519819Y-120060980D01*
X122519819Y-119489552D02*
X122567438Y-119441933D01*
X122662676Y-119394314D01*
X122805533Y-119394314D01*
X122900771Y-119441933D01*
X122948390Y-119537171D01*
X122948390Y-120060980D01*
X140098461Y-93877776D02*
X139510676Y-94686793D01*
X140070471Y-93916301D02*
X140175510Y-93933755D01*
X140329609Y-94045715D01*
X140378668Y-94140219D01*
X140389203Y-94206733D01*
X140371748Y-94311772D01*
X140203809Y-94542920D01*
X140109305Y-94591979D01*
X140042791Y-94602514D01*
X139937752Y-94585059D01*
X139783653Y-94473100D01*
X139734594Y-94378596D01*
X139366493Y-93345970D02*
X139058606Y-93769741D01*
X139041151Y-93874780D01*
X139090210Y-93969284D01*
X139244309Y-94081243D01*
X139349348Y-94098698D01*
X139338503Y-93384495D02*
X139443542Y-93401950D01*
X139636166Y-93541899D01*
X139685225Y-93636403D01*
X139667770Y-93741442D01*
X139611791Y-93818491D01*
X139517286Y-93867550D01*
X139412247Y-93850096D01*
X139219624Y-93710147D01*
X139114585Y-93692692D01*
X138704964Y-93689386D02*
X138396767Y-93465468D01*
X138393462Y-93875089D02*
X138897278Y-93181646D01*
X138914733Y-93076607D01*
X138865673Y-92982103D01*
X138788624Y-92926124D01*
X138172230Y-92478287D02*
X137864343Y-92902058D01*
X137846888Y-93007097D01*
X137895947Y-93101601D01*
X138050046Y-93213560D01*
X138155085Y-93231015D01*
X138144240Y-92516812D02*
X138249279Y-92534267D01*
X138441902Y-92674216D01*
X138490962Y-92768720D01*
X138473507Y-92873759D01*
X138417527Y-92950808D01*
X138323023Y-92999868D01*
X138217984Y-92982413D01*
X138025361Y-92842464D01*
X137920322Y-92825009D01*
X137170590Y-91750553D02*
X136778733Y-92289898D01*
X136582805Y-92559570D02*
X136649319Y-92549035D01*
X136638784Y-92482521D01*
X136572270Y-92493056D01*
X136582805Y-92559570D01*
X136638784Y-92482521D01*
X136393487Y-92010000D02*
X136785344Y-91470655D01*
X136449466Y-91932951D02*
X136382952Y-91943486D01*
X136277913Y-91926031D01*
X136162339Y-91842061D01*
X136113280Y-91747557D01*
X136130735Y-91642518D01*
X136438622Y-91218747D01*
X144956097Y-102486136D02*
X144005040Y-102795153D01*
X144910809Y-102500851D02*
X144985527Y-102576713D01*
X145044388Y-102757866D01*
X145028529Y-102863158D01*
X144997956Y-102923162D01*
X144922094Y-102997880D01*
X144650364Y-103086171D01*
X144545072Y-103070313D01*
X144485068Y-103039739D01*
X144410350Y-102963878D01*
X144351489Y-102782724D01*
X144367348Y-102677432D01*
X144676510Y-101625656D02*
X144178338Y-101787522D01*
X144102476Y-101862241D01*
X144086618Y-101967533D01*
X144145478Y-102148686D01*
X144220197Y-102224548D01*
X144631222Y-101640371D02*
X144705940Y-101716233D01*
X144779516Y-101942675D01*
X144763658Y-102047967D01*
X144687796Y-102122685D01*
X144597219Y-102152116D01*
X144491927Y-102136257D01*
X144417209Y-102060396D01*
X144343633Y-101833954D01*
X144268914Y-101758092D01*
X143939467Y-101514649D02*
X143821746Y-101152341D01*
X143578303Y-101481789D02*
X144393494Y-101216917D01*
X144469356Y-101142199D01*
X144485214Y-101036907D01*
X144455784Y-100946330D01*
X144220342Y-100221716D02*
X143722170Y-100383582D01*
X143646308Y-100458300D01*
X143630450Y-100563592D01*
X143689310Y-100744746D01*
X143764029Y-100820607D01*
X144175054Y-100236431D02*
X144249772Y-100312292D01*
X144323348Y-100538734D01*
X144307490Y-100644026D01*
X144231628Y-100718745D01*
X144141051Y-100748175D01*
X144035759Y-100732317D01*
X143961041Y-100656455D01*
X143887465Y-100430013D01*
X143812747Y-100354151D01*
X143793604Y-98908352D02*
X143777746Y-99013644D01*
X143747173Y-99073647D01*
X143671311Y-99148366D01*
X143399581Y-99236656D01*
X143294289Y-99220798D01*
X143234285Y-99190225D01*
X143159567Y-99114363D01*
X143115421Y-98978498D01*
X143131280Y-98873206D01*
X143161853Y-98813202D01*
X143237715Y-98738484D01*
X143509445Y-98650193D01*
X143614737Y-98666052D01*
X143674741Y-98696625D01*
X143749459Y-98772487D01*
X143793604Y-98908352D01*
X142791689Y-97982153D02*
X143425727Y-97776142D01*
X142924125Y-98389749D02*
X143422298Y-98227883D01*
X143498159Y-98153164D01*
X143514018Y-98047872D01*
X143469872Y-97912007D01*
X143395154Y-97836145D01*
X143335150Y-97805572D01*
X142688684Y-97665134D02*
X142570963Y-97302827D01*
X142327520Y-97632275D02*
X143142711Y-97367403D01*
X143218573Y-97292684D01*
X143234431Y-97187392D01*
X143205001Y-97096816D01*
X113107617Y-107317676D02*
X114058674Y-107626693D01*
X113152906Y-107332391D02*
X113137047Y-107227100D01*
X113195908Y-107045946D01*
X113270626Y-106970084D01*
X113330630Y-106939511D01*
X113435922Y-106923653D01*
X113707652Y-107011943D01*
X113783514Y-107086662D01*
X113814087Y-107146665D01*
X113829945Y-107251957D01*
X113771085Y-107433111D01*
X113696367Y-107508973D01*
X112828030Y-108178156D02*
X113326203Y-108340022D01*
X113431495Y-108324164D01*
X113506213Y-108248302D01*
X113565074Y-108067149D01*
X113549216Y-107961857D01*
X112873319Y-108192871D02*
X112857461Y-108087579D01*
X112931036Y-107861137D01*
X113005755Y-107785276D01*
X113111047Y-107769417D01*
X113201623Y-107798848D01*
X113277485Y-107873566D01*
X113293343Y-107978858D01*
X113219768Y-108205300D01*
X113235626Y-108310592D01*
X113359062Y-108701186D02*
X113241342Y-109063494D01*
X113631936Y-108940057D02*
X112816745Y-108675185D01*
X112711453Y-108691044D01*
X112636734Y-108766905D01*
X112607304Y-108857482D01*
X112371862Y-109582097D02*
X112870035Y-109743963D01*
X112975327Y-109728105D01*
X113050045Y-109652243D01*
X113108906Y-109471089D01*
X113093048Y-109365797D01*
X112417151Y-109596812D02*
X112401293Y-109491520D01*
X112474868Y-109265078D01*
X112549587Y-109189216D01*
X112654879Y-109173358D01*
X112745455Y-109202788D01*
X112821317Y-109277507D01*
X112837175Y-109382799D01*
X112763600Y-109609241D01*
X112779458Y-109714533D01*
X111945125Y-110895460D02*
X112019843Y-110819599D01*
X112079847Y-110789025D01*
X112185139Y-110773167D01*
X112456869Y-110861458D01*
X112532731Y-110936176D01*
X112563304Y-110996180D01*
X112579162Y-111101472D01*
X112535017Y-111237337D01*
X112460299Y-111313199D01*
X112400295Y-111343772D01*
X112295003Y-111359630D01*
X112023273Y-111271340D01*
X111947411Y-111196621D01*
X111916838Y-111136618D01*
X111900979Y-111031326D01*
X111945125Y-110895460D01*
X112211285Y-112233682D02*
X111577247Y-112027671D01*
X112343721Y-111826086D02*
X111845548Y-111664220D01*
X111740257Y-111680078D01*
X111665538Y-111755940D01*
X111621393Y-111891805D01*
X111637251Y-111997097D01*
X111667824Y-112057101D01*
X112108279Y-112550701D02*
X111990559Y-112913008D01*
X112381153Y-112789572D02*
X111565962Y-112524700D01*
X111460670Y-112540558D01*
X111385951Y-112616420D01*
X111356521Y-112706997D01*
D11*
X111391977Y-106571377D02*
X111511984Y-106510231D01*
X111813144Y-106507944D01*
X111994298Y-106566805D01*
X112236598Y-106745672D01*
X112358891Y-106985686D01*
X112390608Y-107196270D01*
X112363464Y-107588007D01*
X112275173Y-107859738D01*
X112066876Y-108192615D01*
X111917439Y-108344338D01*
X111677425Y-108466631D01*
X111376264Y-108468918D01*
X111195110Y-108410057D01*
X110952810Y-108231190D01*
X110891663Y-108111183D01*
X120818400Y-120964390D02*
X120723161Y-121154866D01*
X120723161Y-121440580D01*
X120818400Y-121726295D01*
X121008876Y-121916771D01*
X121199352Y-122012009D01*
X121580304Y-122107247D01*
X121866019Y-122107247D01*
X122246971Y-122012009D01*
X122437447Y-121916771D01*
X122627923Y-121726295D01*
X122723161Y-121440580D01*
X122723161Y-121250104D01*
X122627923Y-120964390D01*
X122532685Y-120869152D01*
X121866019Y-120869152D01*
X121866019Y-121250104D01*
X145193491Y-100531747D02*
X146280413Y-100178585D01*
X146354986Y-102257279D02*
X145736952Y-100355166D01*
X138262425Y-90173025D02*
X137702629Y-90943517D01*
X137912089Y-89683049D02*
X139138266Y-91397964D01*
X137128375Y-90761738D01*
D12*
X151202448Y-111773893D02*
G75*
G02*
X129857501Y-82486501I-5914448J18111393D01*
G01*
X114438573Y-93712445D02*
G75*
G02*
X135763000Y-123063000I-9536573J-29350555D01*
G01*
D13*
%TO.C,C1*%
X133162933Y-94987621D02*
X132855812Y-95410335D01*
X134352188Y-95851665D02*
X134045067Y-96274379D01*
%TO.C,C2*%
X122201000Y-115069252D02*
X122201000Y-114546748D01*
X123671000Y-115069252D02*
X123671000Y-114546748D01*
%TO.C,C3*%
X141943838Y-102915742D02*
X141446907Y-103077205D01*
X142398093Y-104313795D02*
X141901162Y-104475258D01*
%TO.C,C4*%
X116564662Y-107043242D02*
X117061593Y-107204705D01*
X116110407Y-108441295D02*
X116607338Y-108602758D01*
%TO.C,D1*%
X131546439Y-96563501D02*
X132222392Y-95633131D01*
X125640615Y-92272669D02*
X131546439Y-96563501D01*
X128873433Y-87823075D02*
X134779257Y-92113907D01*
%TO.C,D2*%
X131309486Y-118122169D02*
X124009486Y-118122169D01*
X131309486Y-112622169D02*
X124009486Y-112622169D01*
X124009486Y-112622169D02*
X124009486Y-113772169D01*
%TO.C,D3*%
X140590055Y-112828571D02*
X138334231Y-105885858D01*
X145820865Y-111128978D02*
X143565041Y-104186265D01*
X143565041Y-104186265D02*
X142471326Y-104541635D01*
%TO.C,D4*%
X115482426Y-106405916D02*
X116576141Y-106761285D01*
X117738250Y-99463203D02*
X115482426Y-106405916D01*
X122969060Y-101162796D02*
X120713236Y-108105509D01*
%TO.C,J1*%
X130271793Y-85855714D02*
X131053548Y-84779721D01*
X131053548Y-84779721D02*
X132129540Y-85561475D01*
X133156992Y-86307963D02*
X137315339Y-89329179D01*
X135751831Y-91481164D02*
X137315339Y-89329179D01*
X131593483Y-88459948D02*
X135751831Y-91481164D01*
X131593483Y-88459948D02*
X133156992Y-86307963D01*
%TO.C,J2*%
X128594584Y-119233941D02*
X128594584Y-121893941D01*
X128594584Y-119233941D02*
X123454584Y-119233941D01*
X123454584Y-119233941D02*
X123454584Y-121893941D01*
X128594584Y-121893941D02*
X123454584Y-121893941D01*
X131194584Y-121893941D02*
X129864584Y-121893941D01*
X131194584Y-120563941D02*
X131194584Y-121893941D01*
%TO.C,J3*%
X148583383Y-107521394D02*
X146053572Y-108343379D01*
X148583383Y-107521394D02*
X146995035Y-102632963D01*
X146995035Y-102632963D02*
X144465225Y-103454948D01*
X146053572Y-108343379D02*
X144465225Y-103454948D01*
X146857016Y-110816126D02*
X146446024Y-109551221D01*
X148121922Y-110405133D02*
X146857016Y-110816126D01*
%TO.C,J4*%
X115381742Y-98816693D02*
X116646647Y-99227685D01*
X116646647Y-99227685D02*
X116235654Y-100492591D01*
X115843203Y-101700432D02*
X114254855Y-106588863D01*
X111725045Y-105766878D02*
X114254855Y-106588863D01*
X113313392Y-100878447D02*
X111725045Y-105766878D01*
X113313392Y-100878447D02*
X115843203Y-101700432D01*
%TO.C,JP1*%
X134689409Y-109079118D02*
X132424161Y-110724916D01*
X131486851Y-110540665D02*
X131134180Y-110055255D01*
X131248591Y-109106882D02*
X133513839Y-107461084D01*
X134451149Y-107645335D02*
X134803820Y-108130745D01*
X133234478Y-107416837D02*
X133300848Y-106997797D01*
X133300848Y-106997797D02*
X132815437Y-107350468D01*
X133234478Y-107416837D02*
X132815437Y-107350468D01*
X134803821Y-108130746D02*
G75*
G02*
X134648958Y-109108507I-566312J-411449D01*
G01*
X133473387Y-107490473D02*
G75*
G02*
X134451149Y-107645335I411450J-566312D01*
G01*
X131134179Y-110055254D02*
G75*
G02*
X131289042Y-109077493I566312J411449D01*
G01*
X132464613Y-110695527D02*
G75*
G02*
X131486851Y-110540665I-411450J566312D01*
G01*
%TO.C,JP2*%
X126630478Y-98272837D02*
X126211437Y-98206468D01*
X126696848Y-97853797D02*
X126211437Y-98206468D01*
X126630478Y-98272837D02*
X126696848Y-97853797D01*
X127847149Y-98501335D02*
X128199820Y-98986745D01*
X124644591Y-99962882D02*
X126909839Y-98317084D01*
X124882851Y-101396665D02*
X124530180Y-100911255D01*
X128085409Y-99935118D02*
X125820161Y-101580916D01*
X125860613Y-101551527D02*
G75*
G02*
X124882851Y-101396665I-411450J566312D01*
G01*
X124530179Y-100911254D02*
G75*
G02*
X124685042Y-99933493I566312J411449D01*
G01*
X126869387Y-98346473D02*
G75*
G02*
X127847149Y-98501335I411450J-566312D01*
G01*
X128199821Y-98986746D02*
G75*
G02*
X128044958Y-99964507I-566312J-411449D01*
G01*
D14*
%TO.C,SW1*%
X131549098Y-99696710D02*
G75*
G03*
X131549098Y-99696710I-223607J0D01*
G01*
D13*
X127126740Y-108804014D02*
X127531248Y-108510121D01*
X124775599Y-105567946D02*
X127126740Y-108804014D01*
X125180107Y-105274053D02*
X124775599Y-105567946D01*
X134812401Y-103220054D02*
X134610147Y-103367000D01*
X132755153Y-100388495D02*
X134812401Y-103220054D01*
X132461260Y-99983986D02*
X132755153Y-100388495D01*
X132056752Y-100277879D02*
X132461260Y-99983986D01*
%TO.C,M3*%
D10*
X137241367Y-99476072D02*
X137241367Y-98476072D01*
X137574700Y-99190358D01*
X137908033Y-98476072D01*
X137908033Y-99476072D01*
X138288986Y-98476072D02*
X138908033Y-98476072D01*
X138574700Y-98857025D01*
X138717557Y-98857025D01*
X138812795Y-98904644D01*
X138860414Y-98952263D01*
X138908033Y-99047501D01*
X138908033Y-99285596D01*
X138860414Y-99380834D01*
X138812795Y-99428453D01*
X138717557Y-99476072D01*
X138431843Y-99476072D01*
X138336605Y-99428453D01*
X138288986Y-99380834D01*
X116193398Y-111510883D02*
X116193398Y-110510883D01*
X116526731Y-111225169D01*
X116860064Y-110510883D01*
X116860064Y-111510883D01*
X117241017Y-110510883D02*
X117860064Y-110510883D01*
X117526731Y-110891836D01*
X117669588Y-110891836D01*
X117764826Y-110939455D01*
X117812445Y-110987074D01*
X117860064Y-111082312D01*
X117860064Y-111320407D01*
X117812445Y-111415645D01*
X117764826Y-111463264D01*
X117669588Y-111510883D01*
X117383874Y-111510883D01*
X117288636Y-111463264D01*
X117241017Y-111415645D01*
X137639547Y-115008890D02*
X137639547Y-114008890D01*
X137972880Y-114723176D01*
X138306213Y-114008890D01*
X138306213Y-115008890D01*
X138687166Y-114008890D02*
X139306213Y-114008890D01*
X138972880Y-114389843D01*
X139115737Y-114389843D01*
X139210975Y-114437462D01*
X139258594Y-114485081D01*
X139306213Y-114580319D01*
X139306213Y-114818414D01*
X139258594Y-114913652D01*
X139210975Y-114961271D01*
X139115737Y-115008890D01*
X138830023Y-115008890D01*
X138734785Y-114961271D01*
X138687166Y-114913652D01*
X119493820Y-90033440D02*
X119493820Y-89033440D01*
X119827153Y-89747726D01*
X120160486Y-89033440D01*
X120160486Y-90033440D01*
X120541439Y-89033440D02*
X121160486Y-89033440D01*
X120827153Y-89414393D01*
X120970010Y-89414393D01*
X121065248Y-89462012D01*
X121112867Y-89509631D01*
X121160486Y-89604869D01*
X121160486Y-89842964D01*
X121112867Y-89938202D01*
X121065248Y-89985821D01*
X120970010Y-90033440D01*
X120684296Y-90033440D01*
X120589058Y-89985821D01*
X120541439Y-89938202D01*
%TO.C,MH*%
X110901257Y-117062380D02*
X110901257Y-116062380D01*
X111234590Y-116776666D01*
X111567923Y-116062380D01*
X111567923Y-117062380D01*
X112044114Y-117062380D02*
X112044114Y-116062380D01*
X112044114Y-116538571D02*
X112615542Y-116538571D01*
X112615542Y-117062380D02*
X112615542Y-116062380D01*
X147248657Y-117062380D02*
X147248657Y-116062380D01*
X147581990Y-116776666D01*
X147915323Y-116062380D01*
X147915323Y-117062380D01*
X148391514Y-117062380D02*
X148391514Y-116062380D01*
X148391514Y-116538571D02*
X148962942Y-116538571D01*
X148962942Y-117062380D02*
X148962942Y-116062380D01*
X122255057Y-82340580D02*
X122255057Y-81340580D01*
X122588390Y-82054866D01*
X122921723Y-81340580D01*
X122921723Y-82340580D01*
X123397914Y-82340580D02*
X123397914Y-81340580D01*
X123397914Y-81816771D02*
X123969342Y-81816771D01*
X123969342Y-82340580D02*
X123969342Y-81340580D01*
%TO.C,C1*%
X135154119Y-96963238D02*
X135164654Y-97029752D01*
X135119209Y-97173316D01*
X135063230Y-97250365D01*
X134940736Y-97337949D01*
X134807707Y-97359019D01*
X134702668Y-97341564D01*
X134520580Y-97268130D01*
X134405006Y-97184160D01*
X134278897Y-97033677D01*
X134229838Y-96939172D01*
X134208768Y-96806144D01*
X134254213Y-96662580D01*
X134310192Y-96585531D01*
X134432686Y-96497947D01*
X134499200Y-96487412D01*
X135790964Y-96248725D02*
X135455086Y-96711021D01*
X135623025Y-96479873D02*
X134814008Y-95892088D01*
X134873602Y-96053106D01*
X134894672Y-96186135D01*
X134877217Y-96291174D01*
%TO.C,C2*%
X121613142Y-114974666D02*
X121660761Y-115022285D01*
X121708380Y-115165142D01*
X121708380Y-115260380D01*
X121660761Y-115403238D01*
X121565523Y-115498476D01*
X121470285Y-115546095D01*
X121279809Y-115593714D01*
X121136952Y-115593714D01*
X120946476Y-115546095D01*
X120851238Y-115498476D01*
X120756000Y-115403238D01*
X120708380Y-115260380D01*
X120708380Y-115165142D01*
X120756000Y-115022285D01*
X120803619Y-114974666D01*
X120803619Y-114593714D02*
X120756000Y-114546095D01*
X120708380Y-114450857D01*
X120708380Y-114212761D01*
X120756000Y-114117523D01*
X120803619Y-114069904D01*
X120898857Y-114022285D01*
X120994095Y-114022285D01*
X121136952Y-114069904D01*
X121708380Y-114641333D01*
X121708380Y-114022285D01*
%TO.C,C3*%
X141175853Y-102245165D02*
X141145280Y-102305169D01*
X141024130Y-102394603D01*
X140933553Y-102424033D01*
X140782973Y-102422890D01*
X140662966Y-102361743D01*
X140588247Y-102285881D01*
X140484098Y-102119443D01*
X140439953Y-101983578D01*
X140426381Y-101787709D01*
X140442239Y-101682417D01*
X140503386Y-101562410D01*
X140624536Y-101472976D01*
X140715113Y-101443546D01*
X140865693Y-101444689D01*
X140925697Y-101475262D01*
X141213285Y-101281680D02*
X141802035Y-101090384D01*
X141602737Y-101555697D01*
X141738602Y-101511551D01*
X141843894Y-101527410D01*
X141903897Y-101557983D01*
X141978616Y-101633845D01*
X142052191Y-101860287D01*
X142036333Y-101965579D01*
X142005760Y-102025582D01*
X141929898Y-102100301D01*
X141658168Y-102188591D01*
X141552876Y-102172733D01*
X141492872Y-102142160D01*
%TO.C,C4*%
X115682127Y-109698660D02*
X115622123Y-109729233D01*
X115471543Y-109730376D01*
X115380966Y-109700946D01*
X115259816Y-109611512D01*
X115198670Y-109491505D01*
X115182811Y-109386213D01*
X115196383Y-109190345D01*
X115240529Y-109054479D01*
X115344677Y-108888041D01*
X115419396Y-108812179D01*
X115539403Y-108751033D01*
X115689983Y-108749889D01*
X115780560Y-108779320D01*
X115901710Y-108868753D01*
X115932283Y-108928757D01*
X116673899Y-109420071D02*
X116467888Y-110054108D01*
X116565178Y-108984188D02*
X116118010Y-109589938D01*
X116706759Y-109781235D01*
%TO.C,D1*%
X127314901Y-95046430D02*
X127902686Y-94237413D01*
X128095309Y-94377362D01*
X128182893Y-94499856D01*
X128203963Y-94632884D01*
X128186508Y-94737923D01*
X128113074Y-94920012D01*
X128029104Y-95035586D01*
X127878621Y-95161694D01*
X127784117Y-95210754D01*
X127651088Y-95231823D01*
X127507524Y-95186379D01*
X127314901Y-95046430D01*
X128547689Y-95942103D02*
X128085393Y-95606225D01*
X128316541Y-95774164D02*
X128904326Y-94965147D01*
X128743308Y-95024741D01*
X128610279Y-95045811D01*
X128505240Y-95028356D01*
%TO.C,D2*%
X126921390Y-112395549D02*
X126921390Y-111395549D01*
X127159486Y-111395549D01*
X127302343Y-111443169D01*
X127397581Y-111538407D01*
X127445200Y-111633645D01*
X127492819Y-111824121D01*
X127492819Y-111966978D01*
X127445200Y-112157454D01*
X127397581Y-112252692D01*
X127302343Y-112347930D01*
X127159486Y-112395549D01*
X126921390Y-112395549D01*
X127873771Y-111490788D02*
X127921390Y-111443169D01*
X128016628Y-111395549D01*
X128254724Y-111395549D01*
X128349962Y-111443169D01*
X128397581Y-111490788D01*
X128445200Y-111586026D01*
X128445200Y-111681264D01*
X128397581Y-111824121D01*
X127826152Y-112395549D01*
X128445200Y-112395549D01*
%TO.C,D3*%
X138090526Y-109026800D02*
X139041582Y-108717783D01*
X139115158Y-108944225D01*
X139114015Y-109094805D01*
X139052868Y-109214812D01*
X138977006Y-109289531D01*
X138810568Y-109393679D01*
X138674702Y-109437825D01*
X138478834Y-109451397D01*
X138373542Y-109435538D01*
X138253535Y-109374392D01*
X138164101Y-109253242D01*
X138090526Y-109026800D01*
X139321169Y-109578262D02*
X139512465Y-110167012D01*
X139047152Y-109967714D01*
X139091298Y-110103579D01*
X139075439Y-110208871D01*
X139044866Y-110268874D01*
X138969004Y-110343593D01*
X138742562Y-110417168D01*
X138637270Y-110401310D01*
X138577267Y-110370737D01*
X138502548Y-110294875D01*
X138414258Y-110023145D01*
X138430116Y-109917853D01*
X138460689Y-109857849D01*
%TO.C,D4*%
X122756596Y-105707678D02*
X121805540Y-105398661D01*
X121879115Y-105172219D01*
X121968549Y-105051069D01*
X122088556Y-104989922D01*
X122193848Y-104974064D01*
X122389717Y-104987636D01*
X122525582Y-105031781D01*
X122692020Y-105135930D01*
X122767882Y-105210649D01*
X122829029Y-105330656D01*
X122830172Y-105481236D01*
X122756596Y-105707678D01*
X122564012Y-104143015D02*
X123198049Y-104349026D01*
X122128129Y-104251736D02*
X122733879Y-104698904D01*
X122925176Y-104110155D01*
%TO.C,J1*%
X128850239Y-84834589D02*
X129428108Y-85254436D01*
X129515692Y-85376930D01*
X129536762Y-85509959D01*
X129491317Y-85653522D01*
X129435338Y-85730572D01*
X130247041Y-84613358D02*
X129911164Y-85075653D01*
X130079103Y-84844505D02*
X129270086Y-84256720D01*
X129329680Y-84417739D01*
X129350750Y-84550767D01*
X129333295Y-84655807D01*
%TO.C,J2*%
X132086964Y-120897274D02*
X132801250Y-120897274D01*
X132944107Y-120944893D01*
X133039345Y-121040131D01*
X133086964Y-121182988D01*
X133086964Y-121278226D01*
X132182203Y-120468702D02*
X132134584Y-120421083D01*
X132086964Y-120325845D01*
X132086964Y-120087750D01*
X132134584Y-119992512D01*
X132182203Y-119944893D01*
X132277441Y-119897274D01*
X132372679Y-119897274D01*
X132515536Y-119944893D01*
X133086964Y-120516321D01*
X133086964Y-119897274D01*
%TO.C,J3*%
X148080663Y-111356844D02*
X148301389Y-112036170D01*
X148300246Y-112186750D01*
X148239100Y-112306757D01*
X148117950Y-112396191D01*
X148027373Y-112425621D01*
X148442970Y-111239123D02*
X149031720Y-111047827D01*
X148832422Y-111513139D01*
X148968287Y-111468994D01*
X149073579Y-111484852D01*
X149133582Y-111515426D01*
X149208301Y-111591287D01*
X149281876Y-111817729D01*
X149266018Y-111923021D01*
X149235445Y-111983025D01*
X149159583Y-112057743D01*
X148887853Y-112146034D01*
X148782561Y-112130176D01*
X148722557Y-112099602D01*
%TO.C,J4*%
X115678930Y-96823348D02*
X115458204Y-97502674D01*
X115368770Y-97623824D01*
X115248763Y-97684971D01*
X115098183Y-97686114D01*
X115007606Y-97656684D01*
X116436404Y-97419954D02*
X116230393Y-98053991D01*
X116327683Y-96984071D02*
X115880515Y-97589822D01*
X116469264Y-97781118D01*
%TO.C,JP1*%
X135462212Y-106344335D02*
X134884342Y-106764182D01*
X134740779Y-106809627D01*
X134607750Y-106788557D01*
X134485256Y-106700973D01*
X134429276Y-106623924D01*
X134933092Y-107317367D02*
X135742109Y-106729581D01*
X135966028Y-107037778D01*
X135983482Y-107142817D01*
X135972948Y-107209332D01*
X135923888Y-107303836D01*
X135808314Y-107387805D01*
X135703275Y-107405260D01*
X135636761Y-107394725D01*
X135542257Y-107345666D01*
X135318339Y-107037469D01*
X135828765Y-108550155D02*
X135492888Y-108087859D01*
X135660826Y-108319007D02*
X136469843Y-107731222D01*
X136298290Y-107738142D01*
X136165261Y-107717072D01*
X136070757Y-107668012D01*
%TO.C,JP2*%
X128782013Y-96717736D02*
X128204143Y-97137583D01*
X128060580Y-97183028D01*
X127927551Y-97161958D01*
X127805057Y-97074374D01*
X127749077Y-96997325D01*
X128252893Y-97690768D02*
X129061910Y-97102982D01*
X129285829Y-97411179D01*
X129303283Y-97516218D01*
X129292749Y-97582733D01*
X129243689Y-97677237D01*
X129128115Y-97761206D01*
X129023076Y-97778661D01*
X128956562Y-97768126D01*
X128862058Y-97719067D01*
X128638140Y-97410870D01*
X129544657Y-97929454D02*
X129611171Y-97939989D01*
X129705675Y-97989049D01*
X129845624Y-98181672D01*
X129863079Y-98286711D01*
X129852544Y-98353225D01*
X129803485Y-98447729D01*
X129726435Y-98503709D01*
X129582872Y-98549154D01*
X128784699Y-98422735D01*
X129148566Y-98923556D01*
%TO.C,SW1*%
X133426313Y-100724913D02*
X133471757Y-100868477D01*
X133611706Y-101061100D01*
X133706210Y-101110159D01*
X133772725Y-101120694D01*
X133877764Y-101103239D01*
X133954813Y-101047260D01*
X134003872Y-100952756D01*
X134014407Y-100886241D01*
X133996952Y-100781202D01*
X133923518Y-100599114D01*
X133906063Y-100494075D01*
X133916598Y-100427561D01*
X133965657Y-100333056D01*
X134042706Y-100277077D01*
X134147745Y-100259622D01*
X134214260Y-100270157D01*
X134308764Y-100319216D01*
X134448713Y-100511839D01*
X134494158Y-100655403D01*
X134728611Y-100897086D02*
X134059543Y-101677494D01*
X134749371Y-101411746D01*
X134283461Y-101985691D01*
X135232427Y-101590529D01*
X134955215Y-102910282D02*
X134619338Y-102447986D01*
X134787277Y-102679134D02*
X135596294Y-102091349D01*
X135424740Y-102098269D01*
X135291711Y-102077199D01*
X135197207Y-102028140D01*
%TD*%
%LPC*%
D15*
%TO.C,M3*%
X140464415Y-97212730D03*
%TD*%
%TO.C,M3*%
X117002922Y-114258503D03*
%TD*%
%TO.C,M3*%
X138449071Y-117756510D03*
%TD*%
%TO.C,M3*%
X120303344Y-92781060D03*
%TD*%
D16*
%TO.C,MH*%
X111658400Y-118110000D03*
%TD*%
%TO.C,MH*%
X148005800Y-118110000D03*
%TD*%
%TO.C,MH*%
X123012200Y-83388200D03*
%TD*%
%TO.C,C1*%
G36*
G01*
X132955213Y-95715860D02*
X133723780Y-96274256D01*
G75*
G02*
X133779088Y-96623456I-146946J-202254D01*
G01*
X133382333Y-97169542D01*
G75*
G02*
X133033133Y-97224850I-202254J146946D01*
G01*
X132264566Y-96666454D01*
G75*
G02*
X132209258Y-96317254I146946J202254D01*
G01*
X132606013Y-95771168D01*
G75*
G02*
X132955213Y-95715860I202254J-146946D01*
G01*
G37*
G36*
G01*
X134174867Y-94037150D02*
X134943434Y-94595546D01*
G75*
G02*
X134998742Y-94944746I-146946J-202254D01*
G01*
X134601987Y-95490832D01*
G75*
G02*
X134252787Y-95546140I-202254J146946D01*
G01*
X133484220Y-94987744D01*
G75*
G02*
X133428912Y-94638544I146946J202254D01*
G01*
X133825667Y-94092458D01*
G75*
G02*
X134174867Y-94037150I202254J-146946D01*
G01*
G37*
%TD*%
%TO.C,C2*%
G36*
G01*
X123411000Y-116433000D02*
X122461000Y-116433000D01*
G75*
G02*
X122211000Y-116183000I0J250000D01*
G01*
X122211000Y-115508000D01*
G75*
G02*
X122461000Y-115258000I250000J0D01*
G01*
X123411000Y-115258000D01*
G75*
G02*
X123661000Y-115508000I0J-250000D01*
G01*
X123661000Y-116183000D01*
G75*
G02*
X123411000Y-116433000I-250000J0D01*
G01*
G37*
G36*
G01*
X123411000Y-114358000D02*
X122461000Y-114358000D01*
G75*
G02*
X122211000Y-114108000I0J250000D01*
G01*
X122211000Y-113433000D01*
G75*
G02*
X122461000Y-113183000I250000J0D01*
G01*
X123411000Y-113183000D01*
G75*
G02*
X123661000Y-113433000I0J-250000D01*
G01*
X123661000Y-114108000D01*
G75*
G02*
X123411000Y-114358000I-250000J0D01*
G01*
G37*
%TD*%
%TO.C,C3*%
G36*
G01*
X141347742Y-103382806D02*
X141641308Y-104286310D01*
G75*
G02*
X141480798Y-104601328I-237764J-77254D01*
G01*
X140838834Y-104809914D01*
G75*
G02*
X140523816Y-104649404I-77254J237764D01*
G01*
X140230250Y-103745900D01*
G75*
G02*
X140390760Y-103430882I237764J77254D01*
G01*
X141032724Y-103222296D01*
G75*
G02*
X141347742Y-103382806I77254J-237764D01*
G01*
G37*
G36*
G01*
X143321184Y-102741596D02*
X143614750Y-103645100D01*
G75*
G02*
X143454240Y-103960118I-237764J-77254D01*
G01*
X142812276Y-104168704D01*
G75*
G02*
X142497258Y-104008194I-77254J237764D01*
G01*
X142203692Y-103104690D01*
G75*
G02*
X142364202Y-102789672I237764J77254D01*
G01*
X143006166Y-102581086D01*
G75*
G02*
X143321184Y-102741596I77254J-237764D01*
G01*
G37*
%TD*%
%TO.C,C4*%
G36*
G01*
X114893750Y-107772600D02*
X115187316Y-106869096D01*
G75*
G02*
X115502334Y-106708586I237764J-77254D01*
G01*
X116144298Y-106917172D01*
G75*
G02*
X116304808Y-107232190I-77254J-237764D01*
G01*
X116011242Y-108135694D01*
G75*
G02*
X115696224Y-108296204I-237764J77254D01*
G01*
X115054260Y-108087618D01*
G75*
G02*
X114893750Y-107772600I77254J237764D01*
G01*
G37*
G36*
G01*
X116867192Y-108413810D02*
X117160758Y-107510306D01*
G75*
G02*
X117475776Y-107349796I237764J-77254D01*
G01*
X118117740Y-107558382D01*
G75*
G02*
X118278250Y-107873400I-77254J-237764D01*
G01*
X117984684Y-108776904D01*
G75*
G02*
X117669666Y-108937414I-237764J77254D01*
G01*
X117027702Y-108728828D01*
G75*
G02*
X116867192Y-108413810I77254J237764D01*
G01*
G37*
%TD*%
D17*
%TO.C,D1*%
G36*
X128267646Y-89422457D02*
G01*
X128855431Y-88613440D01*
X130068956Y-89495117D01*
X129481171Y-90304134D01*
X128267646Y-89422457D01*
G37*
G36*
X126386733Y-92011311D02*
G01*
X126974518Y-91202294D01*
X128188043Y-92083971D01*
X127600258Y-92892988D01*
X126386733Y-92011311D01*
G37*
G36*
X132231829Y-92302605D02*
G01*
X132819614Y-91493588D01*
X134033139Y-92375265D01*
X133445354Y-93184282D01*
X132231829Y-92302605D01*
G37*
G36*
X130350916Y-94891459D02*
G01*
X130938701Y-94082442D01*
X132152226Y-94964119D01*
X131564441Y-95773136D01*
X130350916Y-94891459D01*
G37*
%TD*%
D18*
%TO.C,D2*%
X125209486Y-113772169D03*
X125209486Y-116972169D03*
X130109486Y-113772169D03*
X130109486Y-116972169D03*
%TD*%
D17*
%TO.C,D3*%
G36*
X143549438Y-106241686D02*
G01*
X142598381Y-106550703D01*
X142134856Y-105124118D01*
X143085913Y-104815101D01*
X143549438Y-106241686D01*
G37*
G36*
X140506057Y-107230541D02*
G01*
X139555000Y-107539558D01*
X139091475Y-106112973D01*
X140042532Y-105803956D01*
X140506057Y-107230541D01*
G37*
G36*
X145063621Y-110901863D02*
G01*
X144112564Y-111210880D01*
X143649039Y-109784295D01*
X144600096Y-109475278D01*
X145063621Y-110901863D01*
G37*
G36*
X142020240Y-111890718D02*
G01*
X141069183Y-112199735D01*
X140605658Y-110773150D01*
X141556715Y-110464133D01*
X142020240Y-111890718D01*
G37*
%TD*%
%TO.C,D4*%
G36*
X121260759Y-101080894D02*
G01*
X122211816Y-101389911D01*
X121748291Y-102816496D01*
X120797234Y-102507479D01*
X121260759Y-101080894D01*
G37*
G36*
X118217378Y-100092039D02*
G01*
X119168435Y-100401056D01*
X118704910Y-101827641D01*
X117753853Y-101518624D01*
X118217378Y-100092039D01*
G37*
G36*
X119746576Y-105741071D02*
G01*
X120697633Y-106050088D01*
X120234108Y-107476673D01*
X119283051Y-107167656D01*
X119746576Y-105741071D01*
G37*
G36*
X116703195Y-104752216D02*
G01*
X117654252Y-105061233D01*
X117190727Y-106487818D01*
X116239670Y-106178801D01*
X116703195Y-104752216D01*
G37*
%TD*%
%TO.C,J1*%
G36*
G01*
X134957975Y-90311081D02*
X134957975Y-90311081D01*
G75*
G02*
X134769928Y-89123800I499617J687664D01*
G01*
X134769928Y-89123800D01*
G75*
G02*
X135957209Y-88935753I687664J-499617D01*
G01*
X135957209Y-88935753D01*
G75*
G02*
X136145256Y-90123034I-499617J-687664D01*
G01*
X136145256Y-90123034D01*
G75*
G02*
X134957975Y-90311081I-687664J499617D01*
G01*
G37*
G36*
G01*
X132903072Y-88818107D02*
X132903072Y-88818107D01*
G75*
G02*
X132715025Y-87630826I499617J687664D01*
G01*
X132715025Y-87630826D01*
G75*
G02*
X133902306Y-87442779I687664J-499617D01*
G01*
X133902306Y-87442779D01*
G75*
G02*
X134090353Y-88630060I-499617J-687664D01*
G01*
X134090353Y-88630060D01*
G75*
G02*
X132903072Y-88818107I-687664J499617D01*
G01*
G37*
G36*
X131535833Y-87824750D02*
G01*
X130160504Y-86825515D01*
X131159739Y-85450186D01*
X132535068Y-86449421D01*
X131535833Y-87824750D01*
G37*
%TD*%
D19*
%TO.C,J2*%
X129864584Y-120563941D03*
D20*
X127324584Y-120563941D03*
X124784584Y-120563941D03*
%TD*%
D17*
%TO.C,J3*%
G36*
X148256663Y-108069166D02*
G01*
X148781991Y-109685962D01*
X147165195Y-110211290D01*
X146639867Y-108594494D01*
X148256663Y-108069166D01*
G37*
G36*
G01*
X147734424Y-106461880D02*
X147734424Y-106461880D01*
G75*
G02*
X147188690Y-107532942I-808398J-262664D01*
G01*
X147188690Y-107532942D01*
G75*
G02*
X146117628Y-106987208I-262664J808398D01*
G01*
X146117628Y-106987208D01*
G75*
G02*
X146663362Y-105916146I808398J262664D01*
G01*
X146663362Y-105916146D01*
G75*
G02*
X147734424Y-106461880I262664J-808398D01*
G01*
G37*
G36*
G01*
X146949521Y-104046197D02*
X146949521Y-104046197D01*
G75*
G02*
X146403787Y-105117259I-808398J-262664D01*
G01*
X146403787Y-105117259D01*
G75*
G02*
X145332725Y-104571525I-262664J808398D01*
G01*
X145332725Y-104571525D01*
G75*
G02*
X145878459Y-103500463I808398J262664D01*
G01*
X145878459Y-103500463D01*
G75*
G02*
X146949521Y-104046197I262664J-808398D01*
G01*
G37*
%TD*%
%TO.C,J4*%
G36*
G01*
X112592545Y-104650301D02*
X112592545Y-104650301D01*
G75*
G02*
X113663607Y-104104567I808398J-262664D01*
G01*
X113663607Y-104104567D01*
G75*
G02*
X114209341Y-105175629I-262664J-808398D01*
G01*
X114209341Y-105175629D01*
G75*
G02*
X113138279Y-105721363I-808398J262664D01*
G01*
X113138279Y-105721363D01*
G75*
G02*
X112592545Y-104650301I262664J808398D01*
G01*
G37*
G36*
G01*
X113377448Y-102234618D02*
X113377448Y-102234618D01*
G75*
G02*
X114448510Y-101688884I808398J-262664D01*
G01*
X114448510Y-101688884D01*
G75*
G02*
X114994244Y-102759946I-262664J-808398D01*
G01*
X114994244Y-102759946D01*
G75*
G02*
X113923182Y-103305680I-808398J262664D01*
G01*
X113923182Y-103305680D01*
G75*
G02*
X113377448Y-102234618I262664J808398D01*
G01*
G37*
G36*
X113899687Y-100627332D02*
G01*
X114425015Y-99010536D01*
X116041811Y-99535864D01*
X115516483Y-101152660D01*
X113899687Y-100627332D01*
G37*
%TD*%
%TO.C,JP1*%
G36*
X132932670Y-108192345D02*
G01*
X133814347Y-109405870D01*
X133005330Y-109993655D01*
X132123653Y-108780130D01*
X132932670Y-108192345D01*
G37*
G36*
X132357763Y-110463397D02*
G01*
X132337915Y-110477817D01*
X132295582Y-110502628D01*
X132251022Y-110523171D01*
X132204662Y-110539247D01*
X132156950Y-110550702D01*
X132108346Y-110557424D01*
X132059316Y-110559352D01*
X132010334Y-110556463D01*
X131961869Y-110548786D01*
X131914392Y-110536398D01*
X131868357Y-110519414D01*
X131824208Y-110498001D01*
X131782371Y-110472363D01*
X131743248Y-110442748D01*
X131707217Y-110409440D01*
X131674624Y-110372762D01*
X131660203Y-110352914D01*
X131659716Y-110353268D01*
X131365823Y-109948759D01*
X131366310Y-109948406D01*
X131351889Y-109928557D01*
X131327079Y-109886225D01*
X131306535Y-109841665D01*
X131290460Y-109795305D01*
X131279004Y-109747593D01*
X131272283Y-109698988D01*
X131270355Y-109649958D01*
X131273244Y-109600976D01*
X131280920Y-109552511D01*
X131293309Y-109505034D01*
X131310293Y-109458999D01*
X131331706Y-109414851D01*
X131357344Y-109373014D01*
X131386959Y-109333891D01*
X131420267Y-109297860D01*
X131456944Y-109265266D01*
X131476793Y-109250845D01*
X131476439Y-109250358D01*
X131921398Y-108927076D01*
X132803076Y-110140602D01*
X132358117Y-110463884D01*
X132357763Y-110463397D01*
G37*
G36*
X133134924Y-108045398D02*
G01*
X133579883Y-107722116D01*
X133580237Y-107722603D01*
X133600085Y-107708183D01*
X133642418Y-107683372D01*
X133686978Y-107662829D01*
X133733338Y-107646753D01*
X133781050Y-107635298D01*
X133829654Y-107628576D01*
X133878684Y-107626648D01*
X133927666Y-107629537D01*
X133976131Y-107637214D01*
X134023608Y-107649602D01*
X134069643Y-107666586D01*
X134113792Y-107687999D01*
X134155629Y-107713637D01*
X134194752Y-107743252D01*
X134230783Y-107776560D01*
X134263376Y-107813238D01*
X134277797Y-107833086D01*
X134278284Y-107832732D01*
X134572177Y-108237241D01*
X134571690Y-108237594D01*
X134586111Y-108257443D01*
X134610921Y-108299775D01*
X134631465Y-108344335D01*
X134647540Y-108390695D01*
X134658996Y-108438407D01*
X134665717Y-108487012D01*
X134667645Y-108536042D01*
X134664756Y-108585024D01*
X134657080Y-108633489D01*
X134644691Y-108680966D01*
X134627707Y-108727001D01*
X134606294Y-108771149D01*
X134580656Y-108812986D01*
X134551041Y-108852109D01*
X134517733Y-108888140D01*
X134481056Y-108920734D01*
X134461207Y-108935155D01*
X134461561Y-108935642D01*
X134016602Y-109258924D01*
X133134924Y-108045398D01*
G37*
%TD*%
%TO.C,JP2*%
G36*
X126530924Y-98901398D02*
G01*
X126975883Y-98578116D01*
X126976237Y-98578603D01*
X126996085Y-98564183D01*
X127038418Y-98539372D01*
X127082978Y-98518829D01*
X127129338Y-98502753D01*
X127177050Y-98491298D01*
X127225654Y-98484576D01*
X127274684Y-98482648D01*
X127323666Y-98485537D01*
X127372131Y-98493214D01*
X127419608Y-98505602D01*
X127465643Y-98522586D01*
X127509792Y-98543999D01*
X127551629Y-98569637D01*
X127590752Y-98599252D01*
X127626783Y-98632560D01*
X127659376Y-98669238D01*
X127673797Y-98689086D01*
X127674284Y-98688732D01*
X127968177Y-99093241D01*
X127967690Y-99093594D01*
X127982111Y-99113443D01*
X128006921Y-99155775D01*
X128027465Y-99200335D01*
X128043540Y-99246695D01*
X128054996Y-99294407D01*
X128061717Y-99343012D01*
X128063645Y-99392042D01*
X128060756Y-99441024D01*
X128053080Y-99489489D01*
X128040691Y-99536966D01*
X128023707Y-99583001D01*
X128002294Y-99627149D01*
X127976656Y-99668986D01*
X127947041Y-99708109D01*
X127913733Y-99744140D01*
X127877056Y-99776734D01*
X127857207Y-99791155D01*
X127857561Y-99791642D01*
X127412602Y-100114924D01*
X126530924Y-98901398D01*
G37*
G36*
X125753763Y-101319397D02*
G01*
X125733915Y-101333817D01*
X125691582Y-101358628D01*
X125647022Y-101379171D01*
X125600662Y-101395247D01*
X125552950Y-101406702D01*
X125504346Y-101413424D01*
X125455316Y-101415352D01*
X125406334Y-101412463D01*
X125357869Y-101404786D01*
X125310392Y-101392398D01*
X125264357Y-101375414D01*
X125220208Y-101354001D01*
X125178371Y-101328363D01*
X125139248Y-101298748D01*
X125103217Y-101265440D01*
X125070624Y-101228762D01*
X125056203Y-101208914D01*
X125055716Y-101209268D01*
X124761823Y-100804759D01*
X124762310Y-100804406D01*
X124747889Y-100784557D01*
X124723079Y-100742225D01*
X124702535Y-100697665D01*
X124686460Y-100651305D01*
X124675004Y-100603593D01*
X124668283Y-100554988D01*
X124666355Y-100505958D01*
X124669244Y-100456976D01*
X124676920Y-100408511D01*
X124689309Y-100361034D01*
X124706293Y-100314999D01*
X124727706Y-100270851D01*
X124753344Y-100229014D01*
X124782959Y-100189891D01*
X124816267Y-100153860D01*
X124852944Y-100121266D01*
X124872793Y-100106845D01*
X124872439Y-100106358D01*
X125317398Y-99783076D01*
X126199076Y-100996602D01*
X125754117Y-101319884D01*
X125753763Y-101319397D01*
G37*
G36*
X126328670Y-99048345D02*
G01*
X127210347Y-100261870D01*
X126401330Y-100849655D01*
X125519653Y-99636130D01*
X126328670Y-99048345D01*
G37*
%TD*%
%TO.C,SW1*%
G36*
X129137999Y-100173554D02*
G01*
X130027918Y-99526991D01*
X131174099Y-101104574D01*
X130284180Y-101751137D01*
X129137999Y-100173554D01*
G37*
G36*
X127115457Y-101643017D02*
G01*
X128005376Y-100996454D01*
X129151557Y-102574037D01*
X128261638Y-103220600D01*
X127115457Y-101643017D01*
G37*
G36*
X125092914Y-103112480D02*
G01*
X125982833Y-102465917D01*
X127129014Y-104043500D01*
X126239095Y-104690063D01*
X125092914Y-103112480D01*
G37*
G36*
X132458986Y-104744500D02*
G01*
X133348905Y-104097937D01*
X134495086Y-105675520D01*
X133605167Y-106322083D01*
X132458986Y-104744500D01*
G37*
G36*
X130436443Y-106213963D02*
G01*
X131326362Y-105567400D01*
X132472543Y-107144983D01*
X131582624Y-107791546D01*
X130436443Y-106213963D01*
G37*
G36*
X128413901Y-107683426D02*
G01*
X129303820Y-107036863D01*
X130450001Y-108614446D01*
X129560082Y-109261009D01*
X128413901Y-107683426D01*
G37*
%TD*%
M02*
