%FSLAX45Y45*%
G04 Gerber Fmt 4.5, Leading zero omitted, Abs format (unit mm)*
G04 Created by KiCad (PCBNEW 5.1.8) date 2021-01-20 11:17:26*
%MOMM*%
%LPD*%
G01*
G04 APERTURE LIST*
%TA.AperFunction,Profile*%
%ADD10C,0.200000*%
%TD*%
%ADD11C,0.200000*%
%ADD12C,0.300000*%
G04 APERTURE END LIST*
D10*
X10486767Y-12307528D02*
X15486150Y-12304924D01*
X12031922Y-7554635D02*
X14531514Y-9368469D01*
X14531514Y-9368469D02*
X15486150Y-12304924D01*
X12031922Y-7554635D02*
X10486767Y-12307528D01*
D11*
X11441750Y-10724200D02*
X11481750Y-10764200D01*
X11481750Y-10724200D02*
X11441750Y-10764200D01*
X12000550Y-10127300D02*
X12040550Y-10167300D01*
X12040550Y-10127300D02*
X12000550Y-10167300D01*
X12438700Y-11530650D02*
X12478700Y-11570650D01*
X12478700Y-11530650D02*
X12438700Y-11570650D01*
X12502200Y-10871520D02*
X12542200Y-10911520D01*
X12542200Y-10871520D02*
X12502200Y-10911520D01*
X12826050Y-11676700D02*
X12866050Y-11716700D01*
X12866050Y-11676700D02*
X12826050Y-11716700D01*
X12921300Y-10501950D02*
X12961300Y-10541950D01*
X12961300Y-10501950D02*
X12921300Y-10541950D01*
X12959400Y-10317800D02*
X12999400Y-10357800D01*
X12999400Y-10317800D02*
X12959400Y-10357800D01*
X13022900Y-9022400D02*
X13062900Y-9062400D01*
X13062900Y-9022400D02*
X13022900Y-9062400D01*
X13251500Y-9365300D02*
X13291500Y-9405300D01*
X13291500Y-9365300D02*
X13251500Y-9405300D01*
X13401360Y-10048560D02*
X13441360Y-10088560D01*
X13441360Y-10048560D02*
X13401360Y-10088560D01*
X13627420Y-10805480D02*
X13667420Y-10845480D01*
X13667420Y-10805480D02*
X13627420Y-10845480D01*
X14127800Y-10927400D02*
X14167800Y-10967400D01*
X14167800Y-10927400D02*
X14127800Y-10967400D01*
X14318300Y-10406700D02*
X14358300Y-10446700D01*
X14358300Y-10406700D02*
X14318300Y-10446700D01*
X12528458Y-12056394D02*
G75*
G03*
X12528458Y-12056394I-50000J0D01*
G01*
X12782458Y-12056394D02*
G75*
G03*
X12782458Y-12056394I-50000J0D01*
G01*
X13036458Y-12056394D02*
G75*
G03*
X13036458Y-12056394I-50000J0D01*
G01*
X13184779Y-8663747D02*
G75*
G03*
X13184779Y-8663747I-50000J0D01*
G01*
X13390269Y-8813044D02*
G75*
G03*
X13390269Y-8813044I-50000J0D01*
G01*
X13595759Y-8962342D02*
G75*
G03*
X13595759Y-8962342I-50000J0D01*
G01*
X11390094Y-10491297D02*
G75*
G03*
X11390094Y-10491297I-50000J0D01*
G01*
X11468585Y-10249728D02*
G75*
G03*
X11468585Y-10249728I-50000J0D01*
G01*
X11547075Y-10008160D02*
G75*
G03*
X11547075Y-10008160I-50000J0D01*
G01*
X14664112Y-10430886D02*
G75*
G03*
X14664112Y-10430886I-50000J0D01*
G01*
X14742603Y-10672454D02*
G75*
G03*
X14742603Y-10672454I-50000J0D01*
G01*
X14821093Y-10914023D02*
G75*
G03*
X14821093Y-10914023I-50000J0D01*
G01*
D12*
X10763195Y-12783242D02*
X10763195Y-12483242D01*
X10834624Y-12483242D01*
X10877481Y-12497528D01*
X10906052Y-12526100D01*
X10920338Y-12554671D01*
X10934624Y-12611814D01*
X10934624Y-12654671D01*
X10920338Y-12711814D01*
X10906052Y-12740385D01*
X10877481Y-12768957D01*
X10834624Y-12783242D01*
X10763195Y-12783242D01*
X11063195Y-12783242D02*
X11063195Y-12583242D01*
X11063195Y-12640385D02*
X11077481Y-12611814D01*
X11091767Y-12597528D01*
X11120338Y-12583242D01*
X11148910Y-12583242D01*
X11248909Y-12783242D02*
X11248909Y-12583242D01*
X11248909Y-12483242D02*
X11234624Y-12497528D01*
X11248909Y-12511814D01*
X11263195Y-12497528D01*
X11248909Y-12483242D01*
X11248909Y-12511814D01*
X11434624Y-12783242D02*
X11406052Y-12768957D01*
X11391767Y-12740385D01*
X11391767Y-12483242D01*
X11591767Y-12783242D02*
X11563195Y-12768957D01*
X11548909Y-12740385D01*
X11548909Y-12483242D01*
X11934624Y-12783242D02*
X11934624Y-12483242D01*
X12034624Y-12697528D01*
X12134624Y-12483242D01*
X12134624Y-12783242D01*
X12406052Y-12783242D02*
X12406052Y-12626100D01*
X12391767Y-12597528D01*
X12363195Y-12583242D01*
X12306052Y-12583242D01*
X12277481Y-12597528D01*
X12406052Y-12768957D02*
X12377481Y-12783242D01*
X12306052Y-12783242D01*
X12277481Y-12768957D01*
X12263195Y-12740385D01*
X12263195Y-12711814D01*
X12277481Y-12683242D01*
X12306052Y-12668957D01*
X12377481Y-12668957D01*
X12406052Y-12654671D01*
X12548909Y-12583242D02*
X12548909Y-12883242D01*
X12548909Y-12597528D02*
X12577481Y-12583242D01*
X12634624Y-12583242D01*
X12663195Y-12597528D01*
X12677481Y-12611814D01*
X12691767Y-12640385D01*
X12691767Y-12726100D01*
X12677481Y-12754671D01*
X12663195Y-12768957D01*
X12634624Y-12783242D01*
X12577481Y-12783242D01*
X12548909Y-12768957D01*
X12820338Y-12754671D02*
X12834624Y-12768957D01*
X12820338Y-12783242D01*
X12806052Y-12768957D01*
X12820338Y-12754671D01*
X12820338Y-12783242D01*
X12820338Y-12597528D02*
X12834624Y-12611814D01*
X12820338Y-12626100D01*
X12806052Y-12611814D01*
X12820338Y-12597528D01*
X12820338Y-12626100D01*
X10436767Y-13257528D02*
X10476767Y-13297528D01*
X10476767Y-13257528D02*
X10436767Y-13297528D01*
X10820338Y-13113242D02*
X10848910Y-13113242D01*
X10877481Y-13127528D01*
X10891767Y-13141814D01*
X10906052Y-13170385D01*
X10920338Y-13227528D01*
X10920338Y-13298957D01*
X10906052Y-13356100D01*
X10891767Y-13384671D01*
X10877481Y-13398957D01*
X10848910Y-13413242D01*
X10820338Y-13413242D01*
X10791767Y-13398957D01*
X10777481Y-13384671D01*
X10763195Y-13356100D01*
X10748910Y-13298957D01*
X10748910Y-13227528D01*
X10763195Y-13170385D01*
X10777481Y-13141814D01*
X10791767Y-13127528D01*
X10820338Y-13113242D01*
X11048910Y-13384671D02*
X11063195Y-13398957D01*
X11048910Y-13413242D01*
X11034624Y-13398957D01*
X11048910Y-13384671D01*
X11048910Y-13413242D01*
X11320338Y-13213242D02*
X11320338Y-13413242D01*
X11248909Y-13098957D02*
X11177481Y-13313242D01*
X11363195Y-13313242D01*
X11534624Y-13113242D02*
X11563195Y-13113242D01*
X11591767Y-13127528D01*
X11606052Y-13141814D01*
X11620338Y-13170385D01*
X11634624Y-13227528D01*
X11634624Y-13298957D01*
X11620338Y-13356100D01*
X11606052Y-13384671D01*
X11591767Y-13398957D01*
X11563195Y-13413242D01*
X11534624Y-13413242D01*
X11506052Y-13398957D01*
X11491767Y-13384671D01*
X11477481Y-13356100D01*
X11463195Y-13298957D01*
X11463195Y-13227528D01*
X11477481Y-13170385D01*
X11491767Y-13141814D01*
X11506052Y-13127528D01*
X11534624Y-13113242D01*
X11763195Y-13413242D02*
X11763195Y-13213242D01*
X11763195Y-13241814D02*
X11777481Y-13227528D01*
X11806052Y-13213242D01*
X11848909Y-13213242D01*
X11877481Y-13227528D01*
X11891767Y-13256100D01*
X11891767Y-13413242D01*
X11891767Y-13256100D02*
X11906052Y-13227528D01*
X11934624Y-13213242D01*
X11977481Y-13213242D01*
X12006052Y-13227528D01*
X12020338Y-13256100D01*
X12020338Y-13413242D01*
X12163195Y-13413242D02*
X12163195Y-13213242D01*
X12163195Y-13241814D02*
X12177481Y-13227528D01*
X12206052Y-13213242D01*
X12248909Y-13213242D01*
X12277481Y-13227528D01*
X12291767Y-13256100D01*
X12291767Y-13413242D01*
X12291767Y-13256100D02*
X12306052Y-13227528D01*
X12334624Y-13213242D01*
X12377481Y-13213242D01*
X12406052Y-13227528D01*
X12420338Y-13256100D01*
X12420338Y-13413242D01*
X13006052Y-13098957D02*
X12748909Y-13484671D01*
X13391767Y-13113242D02*
X13420338Y-13113242D01*
X13448909Y-13127528D01*
X13463195Y-13141814D01*
X13477481Y-13170385D01*
X13491767Y-13227528D01*
X13491767Y-13298957D01*
X13477481Y-13356100D01*
X13463195Y-13384671D01*
X13448909Y-13398957D01*
X13420338Y-13413242D01*
X13391767Y-13413242D01*
X13363195Y-13398957D01*
X13348909Y-13384671D01*
X13334624Y-13356100D01*
X13320338Y-13298957D01*
X13320338Y-13227528D01*
X13334624Y-13170385D01*
X13348909Y-13141814D01*
X13363195Y-13127528D01*
X13391767Y-13113242D01*
X13620338Y-13384671D02*
X13634624Y-13398957D01*
X13620338Y-13413242D01*
X13606052Y-13398957D01*
X13620338Y-13384671D01*
X13620338Y-13413242D01*
X13820338Y-13113242D02*
X13848909Y-13113242D01*
X13877481Y-13127528D01*
X13891767Y-13141814D01*
X13906052Y-13170385D01*
X13920338Y-13227528D01*
X13920338Y-13298957D01*
X13906052Y-13356100D01*
X13891767Y-13384671D01*
X13877481Y-13398957D01*
X13848909Y-13413242D01*
X13820338Y-13413242D01*
X13791767Y-13398957D01*
X13777481Y-13384671D01*
X13763195Y-13356100D01*
X13748909Y-13298957D01*
X13748909Y-13227528D01*
X13763195Y-13170385D01*
X13777481Y-13141814D01*
X13791767Y-13127528D01*
X13820338Y-13113242D01*
X14206052Y-13413242D02*
X14034624Y-13413242D01*
X14120338Y-13413242D02*
X14120338Y-13113242D01*
X14091767Y-13156100D01*
X14063195Y-13184671D01*
X14034624Y-13198957D01*
X14463195Y-13113242D02*
X14406052Y-13113242D01*
X14377481Y-13127528D01*
X14363195Y-13141814D01*
X14334624Y-13184671D01*
X14320338Y-13241814D01*
X14320338Y-13356100D01*
X14334624Y-13384671D01*
X14348909Y-13398957D01*
X14377481Y-13413242D01*
X14434624Y-13413242D01*
X14463195Y-13398957D01*
X14477481Y-13384671D01*
X14491767Y-13356100D01*
X14491767Y-13284671D01*
X14477481Y-13256100D01*
X14463195Y-13241814D01*
X14434624Y-13227528D01*
X14377481Y-13227528D01*
X14348909Y-13241814D01*
X14334624Y-13256100D01*
X14320338Y-13284671D01*
X14606052Y-13113242D02*
X14606052Y-13170385D01*
X14720338Y-13113242D02*
X14720338Y-13170385D01*
X15163195Y-13527528D02*
X15148909Y-13513242D01*
X15120338Y-13470385D01*
X15106052Y-13441814D01*
X15091767Y-13398957D01*
X15077481Y-13327528D01*
X15077481Y-13270385D01*
X15091767Y-13198957D01*
X15106052Y-13156100D01*
X15120338Y-13127528D01*
X15148909Y-13084671D01*
X15163195Y-13070385D01*
X15434624Y-13413242D02*
X15263195Y-13413242D01*
X15348909Y-13413242D02*
X15348909Y-13113242D01*
X15320338Y-13156100D01*
X15291767Y-13184671D01*
X15263195Y-13198957D01*
X15534624Y-13113242D02*
X15720338Y-13113242D01*
X15620338Y-13227528D01*
X15663195Y-13227528D01*
X15691767Y-13241814D01*
X15706052Y-13256100D01*
X15720338Y-13284671D01*
X15720338Y-13356100D01*
X15706052Y-13384671D01*
X15691767Y-13398957D01*
X15663195Y-13413242D01*
X15577481Y-13413242D01*
X15548909Y-13398957D01*
X15534624Y-13384671D01*
X16077481Y-13413242D02*
X16077481Y-13113242D01*
X16206052Y-13413242D02*
X16206052Y-13256100D01*
X16191767Y-13227528D01*
X16163195Y-13213242D01*
X16120338Y-13213242D01*
X16091767Y-13227528D01*
X16077481Y-13241814D01*
X16391767Y-13413242D02*
X16363195Y-13398957D01*
X16348909Y-13384671D01*
X16334624Y-13356100D01*
X16334624Y-13270385D01*
X16348909Y-13241814D01*
X16363195Y-13227528D01*
X16391767Y-13213242D01*
X16434624Y-13213242D01*
X16463195Y-13227528D01*
X16477481Y-13241814D01*
X16491767Y-13270385D01*
X16491767Y-13356100D01*
X16477481Y-13384671D01*
X16463195Y-13398957D01*
X16434624Y-13413242D01*
X16391767Y-13413242D01*
X16663195Y-13413242D02*
X16634624Y-13398957D01*
X16620338Y-13370385D01*
X16620338Y-13113242D01*
X16891767Y-13398957D02*
X16863195Y-13413242D01*
X16806052Y-13413242D01*
X16777481Y-13398957D01*
X16763195Y-13370385D01*
X16763195Y-13256100D01*
X16777481Y-13227528D01*
X16806052Y-13213242D01*
X16863195Y-13213242D01*
X16891767Y-13227528D01*
X16906052Y-13256100D01*
X16906052Y-13284671D01*
X16763195Y-13313242D01*
X17020338Y-13398957D02*
X17048910Y-13413242D01*
X17106052Y-13413242D01*
X17134624Y-13398957D01*
X17148910Y-13370385D01*
X17148910Y-13356100D01*
X17134624Y-13327528D01*
X17106052Y-13313242D01*
X17063195Y-13313242D01*
X17034624Y-13298957D01*
X17020338Y-13270385D01*
X17020338Y-13256100D01*
X17034624Y-13227528D01*
X17063195Y-13213242D01*
X17106052Y-13213242D01*
X17134624Y-13227528D01*
X17248910Y-13527528D02*
X17263195Y-13513242D01*
X17291767Y-13470385D01*
X17306052Y-13441814D01*
X17320338Y-13398957D01*
X17334624Y-13327528D01*
X17334624Y-13270385D01*
X17320338Y-13198957D01*
X17306052Y-13156100D01*
X17291767Y-13127528D01*
X17263195Y-13084671D01*
X17248910Y-13070385D01*
X10476767Y-13673528D02*
G75*
G03*
X10476767Y-13673528I-50000J0D01*
G01*
X10920338Y-13809242D02*
X10748910Y-13809242D01*
X10834624Y-13809242D02*
X10834624Y-13509242D01*
X10806052Y-13552100D01*
X10777481Y-13580671D01*
X10748910Y-13594957D01*
X11048910Y-13780671D02*
X11063195Y-13794957D01*
X11048910Y-13809242D01*
X11034624Y-13794957D01*
X11048910Y-13780671D01*
X11048910Y-13809242D01*
X11248909Y-13509242D02*
X11277481Y-13509242D01*
X11306052Y-13523528D01*
X11320338Y-13537814D01*
X11334624Y-13566385D01*
X11348909Y-13623528D01*
X11348909Y-13694957D01*
X11334624Y-13752100D01*
X11320338Y-13780671D01*
X11306052Y-13794957D01*
X11277481Y-13809242D01*
X11248909Y-13809242D01*
X11220338Y-13794957D01*
X11206052Y-13780671D01*
X11191767Y-13752100D01*
X11177481Y-13694957D01*
X11177481Y-13623528D01*
X11191767Y-13566385D01*
X11206052Y-13537814D01*
X11220338Y-13523528D01*
X11248909Y-13509242D01*
X11534624Y-13509242D02*
X11563195Y-13509242D01*
X11591767Y-13523528D01*
X11606052Y-13537814D01*
X11620338Y-13566385D01*
X11634624Y-13623528D01*
X11634624Y-13694957D01*
X11620338Y-13752100D01*
X11606052Y-13780671D01*
X11591767Y-13794957D01*
X11563195Y-13809242D01*
X11534624Y-13809242D01*
X11506052Y-13794957D01*
X11491767Y-13780671D01*
X11477481Y-13752100D01*
X11463195Y-13694957D01*
X11463195Y-13623528D01*
X11477481Y-13566385D01*
X11491767Y-13537814D01*
X11506052Y-13523528D01*
X11534624Y-13509242D01*
X11763195Y-13809242D02*
X11763195Y-13609242D01*
X11763195Y-13637814D02*
X11777481Y-13623528D01*
X11806052Y-13609242D01*
X11848909Y-13609242D01*
X11877481Y-13623528D01*
X11891767Y-13652100D01*
X11891767Y-13809242D01*
X11891767Y-13652100D02*
X11906052Y-13623528D01*
X11934624Y-13609242D01*
X11977481Y-13609242D01*
X12006052Y-13623528D01*
X12020338Y-13652100D01*
X12020338Y-13809242D01*
X12163195Y-13809242D02*
X12163195Y-13609242D01*
X12163195Y-13637814D02*
X12177481Y-13623528D01*
X12206052Y-13609242D01*
X12248909Y-13609242D01*
X12277481Y-13623528D01*
X12291767Y-13652100D01*
X12291767Y-13809242D01*
X12291767Y-13652100D02*
X12306052Y-13623528D01*
X12334624Y-13609242D01*
X12377481Y-13609242D01*
X12406052Y-13623528D01*
X12420338Y-13652100D01*
X12420338Y-13809242D01*
X13006052Y-13494957D02*
X12748909Y-13880671D01*
X13391767Y-13509242D02*
X13420338Y-13509242D01*
X13448909Y-13523528D01*
X13463195Y-13537814D01*
X13477481Y-13566385D01*
X13491767Y-13623528D01*
X13491767Y-13694957D01*
X13477481Y-13752100D01*
X13463195Y-13780671D01*
X13448909Y-13794957D01*
X13420338Y-13809242D01*
X13391767Y-13809242D01*
X13363195Y-13794957D01*
X13348909Y-13780671D01*
X13334624Y-13752100D01*
X13320338Y-13694957D01*
X13320338Y-13623528D01*
X13334624Y-13566385D01*
X13348909Y-13537814D01*
X13363195Y-13523528D01*
X13391767Y-13509242D01*
X13620338Y-13780671D02*
X13634624Y-13794957D01*
X13620338Y-13809242D01*
X13606052Y-13794957D01*
X13620338Y-13780671D01*
X13620338Y-13809242D01*
X13820338Y-13509242D02*
X13848909Y-13509242D01*
X13877481Y-13523528D01*
X13891767Y-13537814D01*
X13906052Y-13566385D01*
X13920338Y-13623528D01*
X13920338Y-13694957D01*
X13906052Y-13752100D01*
X13891767Y-13780671D01*
X13877481Y-13794957D01*
X13848909Y-13809242D01*
X13820338Y-13809242D01*
X13791767Y-13794957D01*
X13777481Y-13780671D01*
X13763195Y-13752100D01*
X13748909Y-13694957D01*
X13748909Y-13623528D01*
X13763195Y-13566385D01*
X13777481Y-13537814D01*
X13791767Y-13523528D01*
X13820338Y-13509242D01*
X14020338Y-13509242D02*
X14206052Y-13509242D01*
X14106052Y-13623528D01*
X14148909Y-13623528D01*
X14177481Y-13637814D01*
X14191767Y-13652100D01*
X14206052Y-13680671D01*
X14206052Y-13752100D01*
X14191767Y-13780671D01*
X14177481Y-13794957D01*
X14148909Y-13809242D01*
X14063195Y-13809242D01*
X14034624Y-13794957D01*
X14020338Y-13780671D01*
X14348909Y-13809242D02*
X14406052Y-13809242D01*
X14434624Y-13794957D01*
X14448909Y-13780671D01*
X14477481Y-13737814D01*
X14491767Y-13680671D01*
X14491767Y-13566385D01*
X14477481Y-13537814D01*
X14463195Y-13523528D01*
X14434624Y-13509242D01*
X14377481Y-13509242D01*
X14348909Y-13523528D01*
X14334624Y-13537814D01*
X14320338Y-13566385D01*
X14320338Y-13637814D01*
X14334624Y-13666385D01*
X14348909Y-13680671D01*
X14377481Y-13694957D01*
X14434624Y-13694957D01*
X14463195Y-13680671D01*
X14477481Y-13666385D01*
X14491767Y-13637814D01*
X14606052Y-13509242D02*
X14606052Y-13566385D01*
X14720338Y-13509242D02*
X14720338Y-13566385D01*
X15163195Y-13923528D02*
X15148909Y-13909242D01*
X15120338Y-13866385D01*
X15106052Y-13837814D01*
X15091767Y-13794957D01*
X15077481Y-13723528D01*
X15077481Y-13666385D01*
X15091767Y-13594957D01*
X15106052Y-13552100D01*
X15120338Y-13523528D01*
X15148909Y-13480671D01*
X15163195Y-13466385D01*
X15434624Y-13809242D02*
X15263195Y-13809242D01*
X15348909Y-13809242D02*
X15348909Y-13509242D01*
X15320338Y-13552100D01*
X15291767Y-13580671D01*
X15263195Y-13594957D01*
X15548909Y-13537814D02*
X15563195Y-13523528D01*
X15591767Y-13509242D01*
X15663195Y-13509242D01*
X15691767Y-13523528D01*
X15706052Y-13537814D01*
X15720338Y-13566385D01*
X15720338Y-13594957D01*
X15706052Y-13637814D01*
X15534624Y-13809242D01*
X15720338Y-13809242D01*
X16077481Y-13809242D02*
X16077481Y-13509242D01*
X16206052Y-13809242D02*
X16206052Y-13652100D01*
X16191767Y-13623528D01*
X16163195Y-13609242D01*
X16120338Y-13609242D01*
X16091767Y-13623528D01*
X16077481Y-13637814D01*
X16391767Y-13809242D02*
X16363195Y-13794957D01*
X16348909Y-13780671D01*
X16334624Y-13752100D01*
X16334624Y-13666385D01*
X16348909Y-13637814D01*
X16363195Y-13623528D01*
X16391767Y-13609242D01*
X16434624Y-13609242D01*
X16463195Y-13623528D01*
X16477481Y-13637814D01*
X16491767Y-13666385D01*
X16491767Y-13752100D01*
X16477481Y-13780671D01*
X16463195Y-13794957D01*
X16434624Y-13809242D01*
X16391767Y-13809242D01*
X16663195Y-13809242D02*
X16634624Y-13794957D01*
X16620338Y-13766385D01*
X16620338Y-13509242D01*
X16891767Y-13794957D02*
X16863195Y-13809242D01*
X16806052Y-13809242D01*
X16777481Y-13794957D01*
X16763195Y-13766385D01*
X16763195Y-13652100D01*
X16777481Y-13623528D01*
X16806052Y-13609242D01*
X16863195Y-13609242D01*
X16891767Y-13623528D01*
X16906052Y-13652100D01*
X16906052Y-13680671D01*
X16763195Y-13709242D01*
X17020338Y-13794957D02*
X17048910Y-13809242D01*
X17106052Y-13809242D01*
X17134624Y-13794957D01*
X17148910Y-13766385D01*
X17148910Y-13752100D01*
X17134624Y-13723528D01*
X17106052Y-13709242D01*
X17063195Y-13709242D01*
X17034624Y-13694957D01*
X17020338Y-13666385D01*
X17020338Y-13652100D01*
X17034624Y-13623528D01*
X17063195Y-13609242D01*
X17106052Y-13609242D01*
X17134624Y-13623528D01*
X17248910Y-13923528D02*
X17263195Y-13909242D01*
X17291767Y-13866385D01*
X17306052Y-13837814D01*
X17320338Y-13794957D01*
X17334624Y-13723528D01*
X17334624Y-13666385D01*
X17320338Y-13594957D01*
X17306052Y-13552100D01*
X17291767Y-13523528D01*
X17263195Y-13480671D01*
X17248910Y-13466385D01*
M02*
