%FSLAX45Y45*%
G04 Gerber Fmt 4.5, Leading zero omitted, Abs format (unit mm)*
G04 Created by KiCad (PCBNEW 5.1.8) date 2021-01-22 11:45:06*
%MOMM*%
%LPD*%
G01*
G04 APERTURE LIST*
%TA.AperFunction,Profile*%
%ADD10C,0.200000*%
%TD*%
%ADD11C,0.200000*%
%ADD12C,0.300000*%
G04 APERTURE END LIST*
D10*
X10486767Y-12307528D02*
X15486150Y-12304924D01*
X12031922Y-7554635D02*
X14531514Y-9368469D01*
X14531514Y-9368469D02*
X15486150Y-12304924D01*
X12031922Y-7554635D02*
X10486767Y-12307528D01*
D11*
X14743080Y-11753500D02*
X14858080Y-11868500D01*
X14858080Y-11753500D02*
X14743080Y-11868500D01*
X12243720Y-8281320D02*
X12358720Y-8396320D01*
X12358720Y-8281320D02*
X12243720Y-8396320D01*
X11108340Y-11753500D02*
X11223340Y-11868500D01*
X11223340Y-11753500D02*
X11108340Y-11868500D01*
X14174060Y-11879580D02*
G75*
G03*
X14174060Y-11879580I-105000J0D01*
G01*
X12119200Y-9276080D02*
G75*
G03*
X12119200Y-9276080I-105000J0D01*
G01*
X11806780Y-11450320D02*
G75*
G03*
X11806780Y-11450320I-105000J0D01*
G01*
D12*
X10763195Y-12783242D02*
X10763195Y-12483242D01*
X10834624Y-12483242D01*
X10877481Y-12497528D01*
X10906052Y-12526100D01*
X10920338Y-12554671D01*
X10934624Y-12611814D01*
X10934624Y-12654671D01*
X10920338Y-12711814D01*
X10906052Y-12740385D01*
X10877481Y-12768957D01*
X10834624Y-12783242D01*
X10763195Y-12783242D01*
X11063195Y-12783242D02*
X11063195Y-12583242D01*
X11063195Y-12640385D02*
X11077481Y-12611814D01*
X11091767Y-12597528D01*
X11120338Y-12583242D01*
X11148910Y-12583242D01*
X11248909Y-12783242D02*
X11248909Y-12583242D01*
X11248909Y-12483242D02*
X11234624Y-12497528D01*
X11248909Y-12511814D01*
X11263195Y-12497528D01*
X11248909Y-12483242D01*
X11248909Y-12511814D01*
X11434624Y-12783242D02*
X11406052Y-12768957D01*
X11391767Y-12740385D01*
X11391767Y-12483242D01*
X11591767Y-12783242D02*
X11563195Y-12768957D01*
X11548909Y-12740385D01*
X11548909Y-12483242D01*
X11934624Y-12783242D02*
X11934624Y-12483242D01*
X12034624Y-12697528D01*
X12134624Y-12483242D01*
X12134624Y-12783242D01*
X12406052Y-12783242D02*
X12406052Y-12626100D01*
X12391767Y-12597528D01*
X12363195Y-12583242D01*
X12306052Y-12583242D01*
X12277481Y-12597528D01*
X12406052Y-12768957D02*
X12377481Y-12783242D01*
X12306052Y-12783242D01*
X12277481Y-12768957D01*
X12263195Y-12740385D01*
X12263195Y-12711814D01*
X12277481Y-12683242D01*
X12306052Y-12668957D01*
X12377481Y-12668957D01*
X12406052Y-12654671D01*
X12548909Y-12583242D02*
X12548909Y-12883242D01*
X12548909Y-12597528D02*
X12577481Y-12583242D01*
X12634624Y-12583242D01*
X12663195Y-12597528D01*
X12677481Y-12611814D01*
X12691767Y-12640385D01*
X12691767Y-12726100D01*
X12677481Y-12754671D01*
X12663195Y-12768957D01*
X12634624Y-12783242D01*
X12577481Y-12783242D01*
X12548909Y-12768957D01*
X12820338Y-12754671D02*
X12834624Y-12768957D01*
X12820338Y-12783242D01*
X12806052Y-12768957D01*
X12820338Y-12754671D01*
X12820338Y-12783242D01*
X12820338Y-12597528D02*
X12834624Y-12611814D01*
X12820338Y-12626100D01*
X12806052Y-12611814D01*
X12820338Y-12597528D01*
X12820338Y-12626100D01*
X10361767Y-13220028D02*
X10476767Y-13335028D01*
X10476767Y-13220028D02*
X10361767Y-13335028D01*
X10920338Y-13413242D02*
X10748910Y-13413242D01*
X10834624Y-13413242D02*
X10834624Y-13113242D01*
X10806052Y-13156100D01*
X10777481Y-13184671D01*
X10748910Y-13198957D01*
X11048910Y-13384671D02*
X11063195Y-13398957D01*
X11048910Y-13413242D01*
X11034624Y-13398957D01*
X11048910Y-13384671D01*
X11048910Y-13413242D01*
X11348909Y-13413242D02*
X11177481Y-13413242D01*
X11263195Y-13413242D02*
X11263195Y-13113242D01*
X11234624Y-13156100D01*
X11206052Y-13184671D01*
X11177481Y-13198957D01*
X11620338Y-13113242D02*
X11477481Y-13113242D01*
X11463195Y-13256100D01*
X11477481Y-13241814D01*
X11506052Y-13227528D01*
X11577481Y-13227528D01*
X11606052Y-13241814D01*
X11620338Y-13256100D01*
X11634624Y-13284671D01*
X11634624Y-13356100D01*
X11620338Y-13384671D01*
X11606052Y-13398957D01*
X11577481Y-13413242D01*
X11506052Y-13413242D01*
X11477481Y-13398957D01*
X11463195Y-13384671D01*
X11763195Y-13413242D02*
X11763195Y-13213242D01*
X11763195Y-13241814D02*
X11777481Y-13227528D01*
X11806052Y-13213242D01*
X11848909Y-13213242D01*
X11877481Y-13227528D01*
X11891767Y-13256100D01*
X11891767Y-13413242D01*
X11891767Y-13256100D02*
X11906052Y-13227528D01*
X11934624Y-13213242D01*
X11977481Y-13213242D01*
X12006052Y-13227528D01*
X12020338Y-13256100D01*
X12020338Y-13413242D01*
X12163195Y-13413242D02*
X12163195Y-13213242D01*
X12163195Y-13241814D02*
X12177481Y-13227528D01*
X12206052Y-13213242D01*
X12248909Y-13213242D01*
X12277481Y-13227528D01*
X12291767Y-13256100D01*
X12291767Y-13413242D01*
X12291767Y-13256100D02*
X12306052Y-13227528D01*
X12334624Y-13213242D01*
X12377481Y-13213242D01*
X12406052Y-13227528D01*
X12420338Y-13256100D01*
X12420338Y-13413242D01*
X13006052Y-13098957D02*
X12748909Y-13484671D01*
X13391767Y-13113242D02*
X13420338Y-13113242D01*
X13448909Y-13127528D01*
X13463195Y-13141814D01*
X13477481Y-13170385D01*
X13491767Y-13227528D01*
X13491767Y-13298957D01*
X13477481Y-13356100D01*
X13463195Y-13384671D01*
X13448909Y-13398957D01*
X13420338Y-13413242D01*
X13391767Y-13413242D01*
X13363195Y-13398957D01*
X13348909Y-13384671D01*
X13334624Y-13356100D01*
X13320338Y-13298957D01*
X13320338Y-13227528D01*
X13334624Y-13170385D01*
X13348909Y-13141814D01*
X13363195Y-13127528D01*
X13391767Y-13113242D01*
X13620338Y-13384671D02*
X13634624Y-13398957D01*
X13620338Y-13413242D01*
X13606052Y-13398957D01*
X13620338Y-13384671D01*
X13620338Y-13413242D01*
X13820338Y-13113242D02*
X13848909Y-13113242D01*
X13877481Y-13127528D01*
X13891767Y-13141814D01*
X13906052Y-13170385D01*
X13920338Y-13227528D01*
X13920338Y-13298957D01*
X13906052Y-13356100D01*
X13891767Y-13384671D01*
X13877481Y-13398957D01*
X13848909Y-13413242D01*
X13820338Y-13413242D01*
X13791767Y-13398957D01*
X13777481Y-13384671D01*
X13763195Y-13356100D01*
X13748909Y-13298957D01*
X13748909Y-13227528D01*
X13763195Y-13170385D01*
X13777481Y-13141814D01*
X13791767Y-13127528D01*
X13820338Y-13113242D01*
X14177481Y-13213242D02*
X14177481Y-13413242D01*
X14106052Y-13098957D02*
X14034624Y-13313242D01*
X14220338Y-13313242D01*
X14477481Y-13113242D02*
X14334624Y-13113242D01*
X14320338Y-13256100D01*
X14334624Y-13241814D01*
X14363195Y-13227528D01*
X14434624Y-13227528D01*
X14463195Y-13241814D01*
X14477481Y-13256100D01*
X14491767Y-13284671D01*
X14491767Y-13356100D01*
X14477481Y-13384671D01*
X14463195Y-13398957D01*
X14434624Y-13413242D01*
X14363195Y-13413242D01*
X14334624Y-13398957D01*
X14320338Y-13384671D01*
X14606052Y-13113242D02*
X14606052Y-13170385D01*
X14720338Y-13113242D02*
X14720338Y-13170385D01*
X15163195Y-13527528D02*
X15148909Y-13513242D01*
X15120338Y-13470385D01*
X15106052Y-13441814D01*
X15091767Y-13398957D01*
X15077481Y-13327528D01*
X15077481Y-13270385D01*
X15091767Y-13198957D01*
X15106052Y-13156100D01*
X15120338Y-13127528D01*
X15148909Y-13084671D01*
X15163195Y-13070385D01*
X15248909Y-13113242D02*
X15434624Y-13113242D01*
X15334624Y-13227528D01*
X15377481Y-13227528D01*
X15406052Y-13241814D01*
X15420338Y-13256100D01*
X15434624Y-13284671D01*
X15434624Y-13356100D01*
X15420338Y-13384671D01*
X15406052Y-13398957D01*
X15377481Y-13413242D01*
X15291767Y-13413242D01*
X15263195Y-13398957D01*
X15248909Y-13384671D01*
X15791767Y-13413242D02*
X15791767Y-13113242D01*
X15920338Y-13413242D02*
X15920338Y-13256100D01*
X15906052Y-13227528D01*
X15877481Y-13213242D01*
X15834624Y-13213242D01*
X15806052Y-13227528D01*
X15791767Y-13241814D01*
X16106052Y-13413242D02*
X16077481Y-13398957D01*
X16063195Y-13384671D01*
X16048909Y-13356100D01*
X16048909Y-13270385D01*
X16063195Y-13241814D01*
X16077481Y-13227528D01*
X16106052Y-13213242D01*
X16148909Y-13213242D01*
X16177481Y-13227528D01*
X16191767Y-13241814D01*
X16206052Y-13270385D01*
X16206052Y-13356100D01*
X16191767Y-13384671D01*
X16177481Y-13398957D01*
X16148909Y-13413242D01*
X16106052Y-13413242D01*
X16377481Y-13413242D02*
X16348909Y-13398957D01*
X16334624Y-13370385D01*
X16334624Y-13113242D01*
X16606052Y-13398957D02*
X16577481Y-13413242D01*
X16520338Y-13413242D01*
X16491767Y-13398957D01*
X16477481Y-13370385D01*
X16477481Y-13256100D01*
X16491767Y-13227528D01*
X16520338Y-13213242D01*
X16577481Y-13213242D01*
X16606052Y-13227528D01*
X16620338Y-13256100D01*
X16620338Y-13284671D01*
X16477481Y-13313242D01*
X16734624Y-13398957D02*
X16763195Y-13413242D01*
X16820338Y-13413242D01*
X16848910Y-13398957D01*
X16863195Y-13370385D01*
X16863195Y-13356100D01*
X16848910Y-13327528D01*
X16820338Y-13313242D01*
X16777481Y-13313242D01*
X16748909Y-13298957D01*
X16734624Y-13270385D01*
X16734624Y-13256100D01*
X16748909Y-13227528D01*
X16777481Y-13213242D01*
X16820338Y-13213242D01*
X16848910Y-13227528D01*
X16963195Y-13527528D02*
X16977481Y-13513242D01*
X17006052Y-13470385D01*
X17020338Y-13441814D01*
X17034624Y-13398957D01*
X17048910Y-13327528D01*
X17048910Y-13270385D01*
X17034624Y-13198957D01*
X17020338Y-13156100D01*
X17006052Y-13127528D01*
X16977481Y-13084671D01*
X16963195Y-13070385D01*
X17506052Y-13527528D02*
X17491767Y-13513242D01*
X17463195Y-13470385D01*
X17448910Y-13441814D01*
X17434624Y-13398957D01*
X17420338Y-13327528D01*
X17420338Y-13270385D01*
X17434624Y-13198957D01*
X17448910Y-13156100D01*
X17463195Y-13127528D01*
X17491767Y-13084671D01*
X17506052Y-13070385D01*
X17620338Y-13213242D02*
X17620338Y-13413242D01*
X17620338Y-13241814D02*
X17634624Y-13227528D01*
X17663195Y-13213242D01*
X17706052Y-13213242D01*
X17734624Y-13227528D01*
X17748910Y-13256100D01*
X17748910Y-13413242D01*
X17934624Y-13413242D02*
X17906052Y-13398957D01*
X17891767Y-13384671D01*
X17877481Y-13356100D01*
X17877481Y-13270385D01*
X17891767Y-13241814D01*
X17906052Y-13227528D01*
X17934624Y-13213242D01*
X17977481Y-13213242D01*
X18006052Y-13227528D01*
X18020338Y-13241814D01*
X18034624Y-13270385D01*
X18034624Y-13356100D01*
X18020338Y-13384671D01*
X18006052Y-13398957D01*
X17977481Y-13413242D01*
X17934624Y-13413242D01*
X18120338Y-13213242D02*
X18234624Y-13213242D01*
X18163195Y-13113242D02*
X18163195Y-13370385D01*
X18177481Y-13398957D01*
X18206052Y-13413242D01*
X18234624Y-13413242D01*
X18563195Y-13213242D02*
X18563195Y-13513242D01*
X18563195Y-13227528D02*
X18591767Y-13213242D01*
X18648910Y-13213242D01*
X18677481Y-13227528D01*
X18691767Y-13241814D01*
X18706052Y-13270385D01*
X18706052Y-13356100D01*
X18691767Y-13384671D01*
X18677481Y-13398957D01*
X18648910Y-13413242D01*
X18591767Y-13413242D01*
X18563195Y-13398957D01*
X18877481Y-13413242D02*
X18848910Y-13398957D01*
X18834624Y-13370385D01*
X18834624Y-13113242D01*
X19120338Y-13413242D02*
X19120338Y-13256100D01*
X19106052Y-13227528D01*
X19077481Y-13213242D01*
X19020338Y-13213242D01*
X18991767Y-13227528D01*
X19120338Y-13398957D02*
X19091767Y-13413242D01*
X19020338Y-13413242D01*
X18991767Y-13398957D01*
X18977481Y-13370385D01*
X18977481Y-13341814D01*
X18991767Y-13313242D01*
X19020338Y-13298957D01*
X19091767Y-13298957D01*
X19120338Y-13284671D01*
X19220338Y-13213242D02*
X19334624Y-13213242D01*
X19263195Y-13113242D02*
X19263195Y-13370385D01*
X19277481Y-13398957D01*
X19306052Y-13413242D01*
X19334624Y-13413242D01*
X19548910Y-13398957D02*
X19520338Y-13413242D01*
X19463195Y-13413242D01*
X19434624Y-13398957D01*
X19420338Y-13370385D01*
X19420338Y-13256100D01*
X19434624Y-13227528D01*
X19463195Y-13213242D01*
X19520338Y-13213242D01*
X19548910Y-13227528D01*
X19563195Y-13256100D01*
X19563195Y-13284671D01*
X19420338Y-13313242D01*
X19820338Y-13413242D02*
X19820338Y-13113242D01*
X19820338Y-13398957D02*
X19791767Y-13413242D01*
X19734624Y-13413242D01*
X19706052Y-13398957D01*
X19691767Y-13384671D01*
X19677481Y-13356100D01*
X19677481Y-13270385D01*
X19691767Y-13241814D01*
X19706052Y-13227528D01*
X19734624Y-13213242D01*
X19791767Y-13213242D01*
X19820338Y-13227528D01*
X19934624Y-13527528D02*
X19948910Y-13513242D01*
X19977481Y-13470385D01*
X19991767Y-13441814D01*
X20006052Y-13398957D01*
X20020338Y-13327528D01*
X20020338Y-13270385D01*
X20006052Y-13198957D01*
X19991767Y-13156100D01*
X19977481Y-13127528D01*
X19948910Y-13084671D01*
X19934624Y-13070385D01*
X10476767Y-13673528D02*
G75*
G03*
X10476767Y-13673528I-105000J0D01*
G01*
X10748910Y-13537814D02*
X10763195Y-13523528D01*
X10791767Y-13509242D01*
X10863195Y-13509242D01*
X10891767Y-13523528D01*
X10906052Y-13537814D01*
X10920338Y-13566385D01*
X10920338Y-13594957D01*
X10906052Y-13637814D01*
X10734624Y-13809242D01*
X10920338Y-13809242D01*
X11048910Y-13780671D02*
X11063195Y-13794957D01*
X11048910Y-13809242D01*
X11034624Y-13794957D01*
X11048910Y-13780671D01*
X11048910Y-13809242D01*
X11348909Y-13809242D02*
X11177481Y-13809242D01*
X11263195Y-13809242D02*
X11263195Y-13509242D01*
X11234624Y-13552100D01*
X11206052Y-13580671D01*
X11177481Y-13594957D01*
X11534624Y-13509242D02*
X11563195Y-13509242D01*
X11591767Y-13523528D01*
X11606052Y-13537814D01*
X11620338Y-13566385D01*
X11634624Y-13623528D01*
X11634624Y-13694957D01*
X11620338Y-13752100D01*
X11606052Y-13780671D01*
X11591767Y-13794957D01*
X11563195Y-13809242D01*
X11534624Y-13809242D01*
X11506052Y-13794957D01*
X11491767Y-13780671D01*
X11477481Y-13752100D01*
X11463195Y-13694957D01*
X11463195Y-13623528D01*
X11477481Y-13566385D01*
X11491767Y-13537814D01*
X11506052Y-13523528D01*
X11534624Y-13509242D01*
X11763195Y-13809242D02*
X11763195Y-13609242D01*
X11763195Y-13637814D02*
X11777481Y-13623528D01*
X11806052Y-13609242D01*
X11848909Y-13609242D01*
X11877481Y-13623528D01*
X11891767Y-13652100D01*
X11891767Y-13809242D01*
X11891767Y-13652100D02*
X11906052Y-13623528D01*
X11934624Y-13609242D01*
X11977481Y-13609242D01*
X12006052Y-13623528D01*
X12020338Y-13652100D01*
X12020338Y-13809242D01*
X12163195Y-13809242D02*
X12163195Y-13609242D01*
X12163195Y-13637814D02*
X12177481Y-13623528D01*
X12206052Y-13609242D01*
X12248909Y-13609242D01*
X12277481Y-13623528D01*
X12291767Y-13652100D01*
X12291767Y-13809242D01*
X12291767Y-13652100D02*
X12306052Y-13623528D01*
X12334624Y-13609242D01*
X12377481Y-13609242D01*
X12406052Y-13623528D01*
X12420338Y-13652100D01*
X12420338Y-13809242D01*
X13006052Y-13494957D02*
X12748909Y-13880671D01*
X13391767Y-13509242D02*
X13420338Y-13509242D01*
X13448909Y-13523528D01*
X13463195Y-13537814D01*
X13477481Y-13566385D01*
X13491767Y-13623528D01*
X13491767Y-13694957D01*
X13477481Y-13752100D01*
X13463195Y-13780671D01*
X13448909Y-13794957D01*
X13420338Y-13809242D01*
X13391767Y-13809242D01*
X13363195Y-13794957D01*
X13348909Y-13780671D01*
X13334624Y-13752100D01*
X13320338Y-13694957D01*
X13320338Y-13623528D01*
X13334624Y-13566385D01*
X13348909Y-13537814D01*
X13363195Y-13523528D01*
X13391767Y-13509242D01*
X13620338Y-13780671D02*
X13634624Y-13794957D01*
X13620338Y-13809242D01*
X13606052Y-13794957D01*
X13620338Y-13780671D01*
X13620338Y-13809242D01*
X13820338Y-13509242D02*
X13848909Y-13509242D01*
X13877481Y-13523528D01*
X13891767Y-13537814D01*
X13906052Y-13566385D01*
X13920338Y-13623528D01*
X13920338Y-13694957D01*
X13906052Y-13752100D01*
X13891767Y-13780671D01*
X13877481Y-13794957D01*
X13848909Y-13809242D01*
X13820338Y-13809242D01*
X13791767Y-13794957D01*
X13777481Y-13780671D01*
X13763195Y-13752100D01*
X13748909Y-13694957D01*
X13748909Y-13623528D01*
X13763195Y-13566385D01*
X13777481Y-13537814D01*
X13791767Y-13523528D01*
X13820338Y-13509242D01*
X14091767Y-13637814D02*
X14063195Y-13623528D01*
X14048909Y-13609242D01*
X14034624Y-13580671D01*
X14034624Y-13566385D01*
X14048909Y-13537814D01*
X14063195Y-13523528D01*
X14091767Y-13509242D01*
X14148909Y-13509242D01*
X14177481Y-13523528D01*
X14191767Y-13537814D01*
X14206052Y-13566385D01*
X14206052Y-13580671D01*
X14191767Y-13609242D01*
X14177481Y-13623528D01*
X14148909Y-13637814D01*
X14091767Y-13637814D01*
X14063195Y-13652100D01*
X14048909Y-13666385D01*
X14034624Y-13694957D01*
X14034624Y-13752100D01*
X14048909Y-13780671D01*
X14063195Y-13794957D01*
X14091767Y-13809242D01*
X14148909Y-13809242D01*
X14177481Y-13794957D01*
X14191767Y-13780671D01*
X14206052Y-13752100D01*
X14206052Y-13694957D01*
X14191767Y-13666385D01*
X14177481Y-13652100D01*
X14148909Y-13637814D01*
X14306052Y-13509242D02*
X14491767Y-13509242D01*
X14391767Y-13623528D01*
X14434624Y-13623528D01*
X14463195Y-13637814D01*
X14477481Y-13652100D01*
X14491767Y-13680671D01*
X14491767Y-13752100D01*
X14477481Y-13780671D01*
X14463195Y-13794957D01*
X14434624Y-13809242D01*
X14348909Y-13809242D01*
X14320338Y-13794957D01*
X14306052Y-13780671D01*
X14606052Y-13509242D02*
X14606052Y-13566385D01*
X14720338Y-13509242D02*
X14720338Y-13566385D01*
X15163195Y-13923528D02*
X15148909Y-13909242D01*
X15120338Y-13866385D01*
X15106052Y-13837814D01*
X15091767Y-13794957D01*
X15077481Y-13723528D01*
X15077481Y-13666385D01*
X15091767Y-13594957D01*
X15106052Y-13552100D01*
X15120338Y-13523528D01*
X15148909Y-13480671D01*
X15163195Y-13466385D01*
X15248909Y-13509242D02*
X15434624Y-13509242D01*
X15334624Y-13623528D01*
X15377481Y-13623528D01*
X15406052Y-13637814D01*
X15420338Y-13652100D01*
X15434624Y-13680671D01*
X15434624Y-13752100D01*
X15420338Y-13780671D01*
X15406052Y-13794957D01*
X15377481Y-13809242D01*
X15291767Y-13809242D01*
X15263195Y-13794957D01*
X15248909Y-13780671D01*
X15791767Y-13809242D02*
X15791767Y-13509242D01*
X15920338Y-13809242D02*
X15920338Y-13652100D01*
X15906052Y-13623528D01*
X15877481Y-13609242D01*
X15834624Y-13609242D01*
X15806052Y-13623528D01*
X15791767Y-13637814D01*
X16106052Y-13809242D02*
X16077481Y-13794957D01*
X16063195Y-13780671D01*
X16048909Y-13752100D01*
X16048909Y-13666385D01*
X16063195Y-13637814D01*
X16077481Y-13623528D01*
X16106052Y-13609242D01*
X16148909Y-13609242D01*
X16177481Y-13623528D01*
X16191767Y-13637814D01*
X16206052Y-13666385D01*
X16206052Y-13752100D01*
X16191767Y-13780671D01*
X16177481Y-13794957D01*
X16148909Y-13809242D01*
X16106052Y-13809242D01*
X16377481Y-13809242D02*
X16348909Y-13794957D01*
X16334624Y-13766385D01*
X16334624Y-13509242D01*
X16606052Y-13794957D02*
X16577481Y-13809242D01*
X16520338Y-13809242D01*
X16491767Y-13794957D01*
X16477481Y-13766385D01*
X16477481Y-13652100D01*
X16491767Y-13623528D01*
X16520338Y-13609242D01*
X16577481Y-13609242D01*
X16606052Y-13623528D01*
X16620338Y-13652100D01*
X16620338Y-13680671D01*
X16477481Y-13709242D01*
X16734624Y-13794957D02*
X16763195Y-13809242D01*
X16820338Y-13809242D01*
X16848910Y-13794957D01*
X16863195Y-13766385D01*
X16863195Y-13752100D01*
X16848910Y-13723528D01*
X16820338Y-13709242D01*
X16777481Y-13709242D01*
X16748909Y-13694957D01*
X16734624Y-13666385D01*
X16734624Y-13652100D01*
X16748909Y-13623528D01*
X16777481Y-13609242D01*
X16820338Y-13609242D01*
X16848910Y-13623528D01*
X16963195Y-13923528D02*
X16977481Y-13909242D01*
X17006052Y-13866385D01*
X17020338Y-13837814D01*
X17034624Y-13794957D01*
X17048910Y-13723528D01*
X17048910Y-13666385D01*
X17034624Y-13594957D01*
X17020338Y-13552100D01*
X17006052Y-13523528D01*
X16977481Y-13480671D01*
X16963195Y-13466385D01*
X17506052Y-13923528D02*
X17491767Y-13909242D01*
X17463195Y-13866385D01*
X17448910Y-13837814D01*
X17434624Y-13794957D01*
X17420338Y-13723528D01*
X17420338Y-13666385D01*
X17434624Y-13594957D01*
X17448910Y-13552100D01*
X17463195Y-13523528D01*
X17491767Y-13480671D01*
X17506052Y-13466385D01*
X17620338Y-13609242D02*
X17620338Y-13809242D01*
X17620338Y-13637814D02*
X17634624Y-13623528D01*
X17663195Y-13609242D01*
X17706052Y-13609242D01*
X17734624Y-13623528D01*
X17748910Y-13652100D01*
X17748910Y-13809242D01*
X17934624Y-13809242D02*
X17906052Y-13794957D01*
X17891767Y-13780671D01*
X17877481Y-13752100D01*
X17877481Y-13666385D01*
X17891767Y-13637814D01*
X17906052Y-13623528D01*
X17934624Y-13609242D01*
X17977481Y-13609242D01*
X18006052Y-13623528D01*
X18020338Y-13637814D01*
X18034624Y-13666385D01*
X18034624Y-13752100D01*
X18020338Y-13780671D01*
X18006052Y-13794957D01*
X17977481Y-13809242D01*
X17934624Y-13809242D01*
X18120338Y-13609242D02*
X18234624Y-13609242D01*
X18163195Y-13509242D02*
X18163195Y-13766385D01*
X18177481Y-13794957D01*
X18206052Y-13809242D01*
X18234624Y-13809242D01*
X18563195Y-13609242D02*
X18563195Y-13909242D01*
X18563195Y-13623528D02*
X18591767Y-13609242D01*
X18648910Y-13609242D01*
X18677481Y-13623528D01*
X18691767Y-13637814D01*
X18706052Y-13666385D01*
X18706052Y-13752100D01*
X18691767Y-13780671D01*
X18677481Y-13794957D01*
X18648910Y-13809242D01*
X18591767Y-13809242D01*
X18563195Y-13794957D01*
X18877481Y-13809242D02*
X18848910Y-13794957D01*
X18834624Y-13766385D01*
X18834624Y-13509242D01*
X19120338Y-13809242D02*
X19120338Y-13652100D01*
X19106052Y-13623528D01*
X19077481Y-13609242D01*
X19020338Y-13609242D01*
X18991767Y-13623528D01*
X19120338Y-13794957D02*
X19091767Y-13809242D01*
X19020338Y-13809242D01*
X18991767Y-13794957D01*
X18977481Y-13766385D01*
X18977481Y-13737814D01*
X18991767Y-13709242D01*
X19020338Y-13694957D01*
X19091767Y-13694957D01*
X19120338Y-13680671D01*
X19220338Y-13609242D02*
X19334624Y-13609242D01*
X19263195Y-13509242D02*
X19263195Y-13766385D01*
X19277481Y-13794957D01*
X19306052Y-13809242D01*
X19334624Y-13809242D01*
X19548910Y-13794957D02*
X19520338Y-13809242D01*
X19463195Y-13809242D01*
X19434624Y-13794957D01*
X19420338Y-13766385D01*
X19420338Y-13652100D01*
X19434624Y-13623528D01*
X19463195Y-13609242D01*
X19520338Y-13609242D01*
X19548910Y-13623528D01*
X19563195Y-13652100D01*
X19563195Y-13680671D01*
X19420338Y-13709242D01*
X19820338Y-13809242D02*
X19820338Y-13509242D01*
X19820338Y-13794957D02*
X19791767Y-13809242D01*
X19734624Y-13809242D01*
X19706052Y-13794957D01*
X19691767Y-13780671D01*
X19677481Y-13752100D01*
X19677481Y-13666385D01*
X19691767Y-13637814D01*
X19706052Y-13623528D01*
X19734624Y-13609242D01*
X19791767Y-13609242D01*
X19820338Y-13623528D01*
X19934624Y-13923528D02*
X19948910Y-13909242D01*
X19977481Y-13866385D01*
X19991767Y-13837814D01*
X20006052Y-13794957D01*
X20020338Y-13723528D01*
X20020338Y-13666385D01*
X20006052Y-13594957D01*
X19991767Y-13552100D01*
X19977481Y-13523528D01*
X19948910Y-13480671D01*
X19934624Y-13466385D01*
M02*
