%TF.GenerationSoftware,KiCad,Pcbnew,5.1.9*%
%TF.CreationDate,2021-01-25T14:03:35-05:00*%
%TF.ProjectId,penrosekite,70656e72-6f73-4656-9b69-74652e6b6963,rev?*%
%TF.SameCoordinates,Original*%
%TF.FileFunction,Soldermask,Bot*%
%TF.FilePolarity,Negative*%
%FSLAX46Y46*%
G04 Gerber Fmt 4.6, Leading zero omitted, Abs format (unit mm)*
G04 Created by KiCad (PCBNEW 5.1.9) date 2021-01-25 14:03:35*
%MOMM*%
%LPD*%
G01*
G04 APERTURE LIST*
%ADD10C,3.200000*%
%ADD11C,1.150000*%
%ADD12C,0.100000*%
%ADD13R,1.700000X1.700000*%
%ADD14O,1.700000X1.700000*%
G04 APERTURE END LIST*
D10*
%TO.C,M3*%
X140464415Y-97212730D03*
%TD*%
%TO.C,M3*%
X117002922Y-114258503D03*
%TD*%
%TO.C,M3*%
X138449071Y-117756510D03*
%TD*%
%TO.C,M3*%
X120303344Y-92781060D03*
%TD*%
D11*
%TO.C,MH*%
X111658400Y-118110000D03*
%TD*%
%TO.C,MH*%
X148005800Y-118110000D03*
%TD*%
%TO.C,MH*%
X123012200Y-83388200D03*
%TD*%
%TO.C,J1*%
G36*
G01*
X134957975Y-90311081D02*
X134957975Y-90311081D01*
G75*
G02*
X134769928Y-89123800I499617J687664D01*
G01*
X134769928Y-89123800D01*
G75*
G02*
X135957209Y-88935753I687664J-499617D01*
G01*
X135957209Y-88935753D01*
G75*
G02*
X136145256Y-90123034I-499617J-687664D01*
G01*
X136145256Y-90123034D01*
G75*
G02*
X134957975Y-90311081I-687664J499617D01*
G01*
G37*
G36*
G01*
X132903072Y-88818107D02*
X132903072Y-88818107D01*
G75*
G02*
X132715025Y-87630826I499617J687664D01*
G01*
X132715025Y-87630826D01*
G75*
G02*
X133902306Y-87442779I687664J-499617D01*
G01*
X133902306Y-87442779D01*
G75*
G02*
X134090353Y-88630060I-499617J-687664D01*
G01*
X134090353Y-88630060D01*
G75*
G02*
X132903072Y-88818107I-687664J499617D01*
G01*
G37*
D12*
G36*
X131535833Y-87824750D02*
G01*
X130160504Y-86825515D01*
X131159739Y-85450186D01*
X132535068Y-86449421D01*
X131535833Y-87824750D01*
G37*
%TD*%
D13*
%TO.C,J2*%
X129864584Y-120563941D03*
D14*
X127324584Y-120563941D03*
X124784584Y-120563941D03*
%TD*%
D12*
%TO.C,J3*%
G36*
X148256663Y-108069166D02*
G01*
X148781991Y-109685962D01*
X147165195Y-110211290D01*
X146639867Y-108594494D01*
X148256663Y-108069166D01*
G37*
G36*
G01*
X147734424Y-106461880D02*
X147734424Y-106461880D01*
G75*
G02*
X147188690Y-107532942I-808398J-262664D01*
G01*
X147188690Y-107532942D01*
G75*
G02*
X146117628Y-106987208I-262664J808398D01*
G01*
X146117628Y-106987208D01*
G75*
G02*
X146663362Y-105916146I808398J262664D01*
G01*
X146663362Y-105916146D01*
G75*
G02*
X147734424Y-106461880I262664J-808398D01*
G01*
G37*
G36*
G01*
X146949521Y-104046197D02*
X146949521Y-104046197D01*
G75*
G02*
X146403787Y-105117259I-808398J-262664D01*
G01*
X146403787Y-105117259D01*
G75*
G02*
X145332725Y-104571525I-262664J808398D01*
G01*
X145332725Y-104571525D01*
G75*
G02*
X145878459Y-103500463I808398J262664D01*
G01*
X145878459Y-103500463D01*
G75*
G02*
X146949521Y-104046197I262664J-808398D01*
G01*
G37*
%TD*%
%TO.C,J4*%
G36*
G01*
X112592545Y-104650301D02*
X112592545Y-104650301D01*
G75*
G02*
X113663607Y-104104567I808398J-262664D01*
G01*
X113663607Y-104104567D01*
G75*
G02*
X114209341Y-105175629I-262664J-808398D01*
G01*
X114209341Y-105175629D01*
G75*
G02*
X113138279Y-105721363I-808398J262664D01*
G01*
X113138279Y-105721363D01*
G75*
G02*
X112592545Y-104650301I262664J808398D01*
G01*
G37*
G36*
G01*
X113377448Y-102234618D02*
X113377448Y-102234618D01*
G75*
G02*
X114448510Y-101688884I808398J-262664D01*
G01*
X114448510Y-101688884D01*
G75*
G02*
X114994244Y-102759946I-262664J-808398D01*
G01*
X114994244Y-102759946D01*
G75*
G02*
X113923182Y-103305680I-808398J262664D01*
G01*
X113923182Y-103305680D01*
G75*
G02*
X113377448Y-102234618I262664J808398D01*
G01*
G37*
G36*
X113899687Y-100627332D02*
G01*
X114425015Y-99010536D01*
X116041811Y-99535864D01*
X115516483Y-101152660D01*
X113899687Y-100627332D01*
G37*
%TD*%
M02*
