%TF.GenerationSoftware,KiCad,Pcbnew,5.1.8*%
%TF.CreationDate,2021-01-20T11:17:19-05:00*%
%TF.ProjectId,penrosekite,70656e72-6f73-4656-9b69-74652e6b6963,rev?*%
%TF.SameCoordinates,Original*%
%TF.FileFunction,Paste,Top*%
%TF.FilePolarity,Positive*%
%FSLAX46Y46*%
G04 Gerber Fmt 4.6, Leading zero omitted, Abs format (unit mm)*
G04 Created by KiCad (PCBNEW 5.1.8) date 2021-01-20 11:17:19*
%MOMM*%
%LPD*%
G01*
G04 APERTURE LIST*
%ADD10C,0.100000*%
%ADD11R,1.500000X1.000000*%
G04 APERTURE END LIST*
%TO.C,C1*%
G36*
G01*
X132955213Y-95715860D02*
X133723780Y-96274256D01*
G75*
G02*
X133779088Y-96623456I-146946J-202254D01*
G01*
X133382333Y-97169542D01*
G75*
G02*
X133033133Y-97224850I-202254J146946D01*
G01*
X132264566Y-96666454D01*
G75*
G02*
X132209258Y-96317254I146946J202254D01*
G01*
X132606013Y-95771168D01*
G75*
G02*
X132955213Y-95715860I202254J-146946D01*
G01*
G37*
G36*
G01*
X134174867Y-94037150D02*
X134943434Y-94595546D01*
G75*
G02*
X134998742Y-94944746I-146946J-202254D01*
G01*
X134601987Y-95490832D01*
G75*
G02*
X134252787Y-95546140I-202254J146946D01*
G01*
X133484220Y-94987744D01*
G75*
G02*
X133428912Y-94638544I146946J202254D01*
G01*
X133825667Y-94092458D01*
G75*
G02*
X134174867Y-94037150I202254J-146946D01*
G01*
G37*
%TD*%
%TO.C,C2*%
G36*
G01*
X123411000Y-116433000D02*
X122461000Y-116433000D01*
G75*
G02*
X122211000Y-116183000I0J250000D01*
G01*
X122211000Y-115508000D01*
G75*
G02*
X122461000Y-115258000I250000J0D01*
G01*
X123411000Y-115258000D01*
G75*
G02*
X123661000Y-115508000I0J-250000D01*
G01*
X123661000Y-116183000D01*
G75*
G02*
X123411000Y-116433000I-250000J0D01*
G01*
G37*
G36*
G01*
X123411000Y-114358000D02*
X122461000Y-114358000D01*
G75*
G02*
X122211000Y-114108000I0J250000D01*
G01*
X122211000Y-113433000D01*
G75*
G02*
X122461000Y-113183000I250000J0D01*
G01*
X123411000Y-113183000D01*
G75*
G02*
X123661000Y-113433000I0J-250000D01*
G01*
X123661000Y-114108000D01*
G75*
G02*
X123411000Y-114358000I-250000J0D01*
G01*
G37*
%TD*%
%TO.C,C3*%
G36*
G01*
X141347742Y-103382806D02*
X141641308Y-104286310D01*
G75*
G02*
X141480798Y-104601328I-237764J-77254D01*
G01*
X140838834Y-104809914D01*
G75*
G02*
X140523816Y-104649404I-77254J237764D01*
G01*
X140230250Y-103745900D01*
G75*
G02*
X140390760Y-103430882I237764J77254D01*
G01*
X141032724Y-103222296D01*
G75*
G02*
X141347742Y-103382806I77254J-237764D01*
G01*
G37*
G36*
G01*
X143321184Y-102741596D02*
X143614750Y-103645100D01*
G75*
G02*
X143454240Y-103960118I-237764J-77254D01*
G01*
X142812276Y-104168704D01*
G75*
G02*
X142497258Y-104008194I-77254J237764D01*
G01*
X142203692Y-103104690D01*
G75*
G02*
X142364202Y-102789672I237764J77254D01*
G01*
X143006166Y-102581086D01*
G75*
G02*
X143321184Y-102741596I77254J-237764D01*
G01*
G37*
%TD*%
%TO.C,C4*%
G36*
G01*
X114893750Y-107772600D02*
X115187316Y-106869096D01*
G75*
G02*
X115502334Y-106708586I237764J-77254D01*
G01*
X116144298Y-106917172D01*
G75*
G02*
X116304808Y-107232190I-77254J-237764D01*
G01*
X116011242Y-108135694D01*
G75*
G02*
X115696224Y-108296204I-237764J77254D01*
G01*
X115054260Y-108087618D01*
G75*
G02*
X114893750Y-107772600I77254J237764D01*
G01*
G37*
G36*
G01*
X116867192Y-108413810D02*
X117160758Y-107510306D01*
G75*
G02*
X117475776Y-107349796I237764J-77254D01*
G01*
X118117740Y-107558382D01*
G75*
G02*
X118278250Y-107873400I-77254J-237764D01*
G01*
X117984684Y-108776904D01*
G75*
G02*
X117669666Y-108937414I-237764J77254D01*
G01*
X117027702Y-108728828D01*
G75*
G02*
X116867192Y-108413810I77254J237764D01*
G01*
G37*
%TD*%
D10*
%TO.C,D1*%
G36*
X128267646Y-89422457D02*
G01*
X128855431Y-88613440D01*
X130068956Y-89495117D01*
X129481171Y-90304134D01*
X128267646Y-89422457D01*
G37*
G36*
X126386733Y-92011311D02*
G01*
X126974518Y-91202294D01*
X128188043Y-92083971D01*
X127600258Y-92892988D01*
X126386733Y-92011311D01*
G37*
G36*
X132231829Y-92302605D02*
G01*
X132819614Y-91493588D01*
X134033139Y-92375265D01*
X133445354Y-93184282D01*
X132231829Y-92302605D01*
G37*
G36*
X130350916Y-94891459D02*
G01*
X130938701Y-94082442D01*
X132152226Y-94964119D01*
X131564441Y-95773136D01*
X130350916Y-94891459D01*
G37*
%TD*%
D11*
%TO.C,D2*%
X125209486Y-113772169D03*
X125209486Y-116972169D03*
X130109486Y-113772169D03*
X130109486Y-116972169D03*
%TD*%
D10*
%TO.C,D3*%
G36*
X143549438Y-106241686D02*
G01*
X142598381Y-106550703D01*
X142134856Y-105124118D01*
X143085913Y-104815101D01*
X143549438Y-106241686D01*
G37*
G36*
X140506057Y-107230541D02*
G01*
X139555000Y-107539558D01*
X139091475Y-106112973D01*
X140042532Y-105803956D01*
X140506057Y-107230541D01*
G37*
G36*
X145063621Y-110901863D02*
G01*
X144112564Y-111210880D01*
X143649039Y-109784295D01*
X144600096Y-109475278D01*
X145063621Y-110901863D01*
G37*
G36*
X142020240Y-111890718D02*
G01*
X141069183Y-112199735D01*
X140605658Y-110773150D01*
X141556715Y-110464133D01*
X142020240Y-111890718D01*
G37*
%TD*%
%TO.C,D4*%
G36*
X121260759Y-101080894D02*
G01*
X122211816Y-101389911D01*
X121748291Y-102816496D01*
X120797234Y-102507479D01*
X121260759Y-101080894D01*
G37*
G36*
X118217378Y-100092039D02*
G01*
X119168435Y-100401056D01*
X118704910Y-101827641D01*
X117753853Y-101518624D01*
X118217378Y-100092039D01*
G37*
G36*
X119746576Y-105741071D02*
G01*
X120697633Y-106050088D01*
X120234108Y-107476673D01*
X119283051Y-107167656D01*
X119746576Y-105741071D01*
G37*
G36*
X116703195Y-104752216D02*
G01*
X117654252Y-105061233D01*
X117190727Y-106487818D01*
X116239670Y-106178801D01*
X116703195Y-104752216D01*
G37*
%TD*%
%TO.C,SW1*%
G36*
X129137999Y-100173554D02*
G01*
X130027918Y-99526991D01*
X131174099Y-101104574D01*
X130284180Y-101751137D01*
X129137999Y-100173554D01*
G37*
G36*
X127115457Y-101643017D02*
G01*
X128005376Y-100996454D01*
X129151557Y-102574037D01*
X128261638Y-103220600D01*
X127115457Y-101643017D01*
G37*
G36*
X125092914Y-103112480D02*
G01*
X125982833Y-102465917D01*
X127129014Y-104043500D01*
X126239095Y-104690063D01*
X125092914Y-103112480D01*
G37*
G36*
X132458986Y-104744500D02*
G01*
X133348905Y-104097937D01*
X134495086Y-105675520D01*
X133605167Y-106322083D01*
X132458986Y-104744500D01*
G37*
G36*
X130436443Y-106213963D02*
G01*
X131326362Y-105567400D01*
X132472543Y-107144983D01*
X131582624Y-107791546D01*
X130436443Y-106213963D01*
G37*
G36*
X128413901Y-107683426D02*
G01*
X129303820Y-107036863D01*
X130450001Y-108614446D01*
X129560082Y-109261009D01*
X128413901Y-107683426D01*
G37*
%TD*%
M02*
